G04 ================== begin FILE IDENTIFICATION RECORD ==================*
G04 Layout Name:  E:/CAD/CAD/FACEBOOK/COM V1/WORK/22-12-20/COM_V1_P2_21-12-2020_4.brd*
G04 Film Name:    COM_V1_P2-L5.gbr*
G04 File Format:  Gerber RS274X*
G04 File Origin:  Cadence Allegro 16.6-2015-S108*
G04 Origin Date:  Fri Dec 25 11:50:57 2020*
G04 *
G04 Layer:  DRAWING FORMAT/FILM_LABEL_OUTLINE*
G04 Layer:  VIA CLASS/L5_SIG*
G04 Layer:  PIN/L5_SIG*
G04 Layer:  ETCH/L5_SIG*
G04 Layer:  BOARD GEOMETRY/OUTLINE*
G04 Layer:  BOARD GEOMETRY/TOOLING_CORNERS*
G04 *
G04 Offset:    (0.000 0.000)*
G04 Mirror:    No*
G04 Mode:      Positive*
G04 Rotation:  0*
G04 FullContactRelief:  No*
G04 UndefLineWidth:     6.000*
G04 ================== end FILE IDENTIFICATION RECORD ====================*
%FSLAX55Y55*MOIN*%
%IR0*IPPOS*OFA0.00000B0.00000*MIA0B0*SFA1.00000B1.00000*%
%ADD10C,.022*%
%ADD14C,.015*%
%ADD11C,.024*%
%ADD13C,.016*%
%ADD12C,.018*%
%ADD15C,.004*%
%ADD16C,.0041*%
%ADD17C,.005*%
%ADD18C,.006*%
%ADD19C,.0062*%
%ADD20C,.003402*%
%ADD21C,.004701*%
%ADD22C,.003902*%
%ADD23C,.01*%
%ADD29C,.189296*%
%ADD25C,.032004*%
%ADD30C,.024004*%
%ADD27C,.034004*%
%ADD26C,.026004*%
%ADD28C,.036004*%
%ADD24C,.028004*%
%ADD31C,.087004*%
G75*
%LPD*%
G75*
G36*
G01X131608Y4112D02*
X130781Y4939D01*
X112599D01*
G02X112276Y5574I0J400D01*
G03X110010I-1133J823D01*
G02X109686Y4939I-324J-235D01*
G01X87132D01*
X74719Y17352D01*
X38730D01*
X37440Y18642D01*
Y18820D01*
X25504Y30756D01*
X5156D01*
X2564Y33347D01*
Y121466D01*
G02X3228Y121767I400J0D01*
G03Y123871I924J1052D01*
G02X2564Y124172I-264J301D01*
G01Y127424D01*
G02X3228Y127724I400J0D01*
G03Y129829I924J1052D01*
G02X2564Y130130I-264J301D01*
G01Y264744D01*
X6800Y268979D01*
X11001D01*
G03X13552I1276J577D01*
G01X39502D01*
G02X39888Y268475I0J-400D01*
G03X42475Y267450I1352J-365D01*
G01X42531Y267555D01*
X64166D01*
G02X64532Y266994I0J-400D01*
G03X64448Y266211I1190J-524D01*
G02X64182Y265752I-392J-80D01*
G03X65578Y263671I410J-1234D01*
G02X66195Y263659I303J-261D01*
G03X68263Y263702I1018J809D01*
G02X68873Y263745I323J-236D01*
G03X70441Y265784I934J904D01*
G02X70265Y266286I195J349D01*
G03X70330Y267067I-1203J493D01*
G02X70720Y267555I390J89D01*
G01X71839D01*
X76651Y262743D01*
X77634D01*
G02X78034Y262350I0J-400D01*
G03X80634I1300J25D01*
G02X81034Y262743I400J-8D01*
G01X81637D01*
X82075Y262305D01*
X85799D01*
G02X86190Y261818I0J-400D01*
G03X88729I1270J-280D01*
G02X89119Y262305I391J86D01*
G01X90590D01*
G02X90989Y261891I0J-400D01*
G03X93588I1299J-45D01*
G02X93988Y262305I400J14D01*
G01X104465D01*
X106107Y260664D01*
X106120Y260639D01*
G03X106618Y260142I1134J636D01*
G01X106642Y260128D01*
X109059Y257710D01*
Y253220D01*
X108025Y252185D01*
Y245566D01*
X104922Y242463D01*
X104824D01*
G03X103050I-887J-881D01*
G01X102026D01*
X101405Y243083D01*
Y249045D01*
X98716Y251734D01*
X84104D01*
G02X83811Y252406I0J400D01*
G03X81904I-953J884D01*
G02X81611Y251734I-293J-272D01*
G01X79379D01*
X74414Y246769D01*
X68513D01*
X64789Y243045D01*
X33828D01*
X31366Y240583D01*
G02X30683Y240857I-283J283D01*
G03X28438Y239709I-1400J-31D01*
G02X28510Y239141I-241J-319D01*
G03X28213Y238573I1331J-1058D01*
G02X27670Y238322I-383J115D01*
G03X28618Y236274I-680J-1558D01*
G02X29161Y236525I383J-115D01*
G03X29917Y236385I680J1558D01*
G02X30334Y235986I18J-400D01*
G01Y231620D01*
G02X29904Y231221I-400J0D01*
G03X28799Y230886I-120J-1596D01*
G02X28199Y231013I-246J315D01*
G03X27773Y228998I-1411J-754D01*
G02X28372Y228872I246J-315D01*
G03X29904Y228030I1411J754D01*
G02X30334Y227631I30J-399D01*
G01Y226226D01*
X29701Y225593D01*
G02X29020Y225916I-283J283D01*
G03X26644Y225061I-1393J142D01*
G02X26364Y224376I-281J-285D01*
G01X25812D01*
X25607Y224582D01*
X24579Y223554D01*
Y194560D01*
X24450Y194431D01*
Y191044D01*
G02X23804Y190728I-400J0D01*
G03Y188520I-861J-1104D01*
G02X24450Y188204I246J-315D01*
G01Y184622D01*
G02X23829Y184288I-400J0D01*
G03X22170Y184208I-775J-1166D01*
G02X21643Y184228I-252J310D01*
G03X20195Y184525I-963J-1017D01*
G02X19666Y184987I-138J375D01*
G03X18784Y183978I-1367J305D01*
G02X19313Y183516I138J-375D01*
G03X21564Y182125I1367J-305D01*
G02X22091Y182105I252J-310D01*
G03X23829Y181956I963J1017D01*
G02X24450Y181622I221J-333D01*
G01Y175513D01*
G03X24258Y174541I1188J-740D01*
G02X24103Y174312I-197J-33D01*
G03X23996Y174284I298J-1368D01*
G02X23487Y174593I-116J383D01*
G03X21014Y175206I-1376J-258D01*
G01X15650D01*
G03Y172816I-729J-1195D01*
G01X16783D01*
G02X17183Y172410I0J-400D01*
G03X19983I1400J-19D01*
G02X20383Y172816I400J6D01*
G01X22282D01*
X22439Y172973D01*
X22489Y172987D01*
G03X22516Y172995I-380J1348D01*
G02X23025Y172686I116J-383D01*
G03X24269Y171550I1376J258D01*
G02X24450Y171351I-19J-199D01*
G01Y169559D01*
X24279Y169534D01*
G03Y166962I191J-1286D01*
G01X24450Y166937D01*
Y161531D01*
G03Y159327I864J-1102D01*
G01Y133535D01*
G03Y131590I1007J-973D01*
G01Y127803D01*
X24444Y127779D01*
G03Y127109I1359J-335D01*
G01X24450Y127085D01*
Y117788D01*
X24340Y117733D01*
G03Y115232I630J-1251D01*
G01X24450Y115176D01*
Y112389D01*
G02X24263Y112189I-200J0D01*
G03Y109394I89J-1397D01*
G02X24450Y109195I-13J-200D01*
G01Y100637D01*
X41086Y84001D01*
Y53418D01*
X58120Y36384D01*
X116935D01*
G02X117288Y35796I0J-400D01*
G03X120116I1414J-750D01*
G02X120469Y36384I353J188D01*
G01X126436D01*
X136433Y26387D01*
X136340Y26250D01*
G03X136119Y25214I1158J-788D01*
G02X135851Y24762I-394J-71D01*
G03X137257Y22420I439J-1330D01*
G02X137850Y22374I276J-289D01*
G03X139977Y22262I1111J852D01*
G02X140550Y22270I290J-275D01*
G01X141744Y21075D01*
Y5146D01*
X140710Y4112D01*
X131608D01*
G37*
G36*
G01X171150Y7018D02*
X158449Y19719D01*
X144773D01*
X138892Y25599D01*
X138883Y25665D01*
G03X137700Y26848I-1385J-202D01*
G01X137634Y26858D01*
X126201Y38291D01*
X93486D01*
G02X93205Y38975I0J400D01*
G03X91232I-986J994D01*
G02X90950Y38291I-282J-284D01*
G01X58629D01*
X55505Y41415D01*
G02X55523Y41997I283J283D01*
G03X53547Y43974I-926J1050D01*
G02X52964Y43955I-300J265D01*
G01X47747Y49172D01*
Y66322D01*
G03Y68665I-766J1172D01*
G01Y77144D01*
G03X47901Y77365I-1065J909D01*
G02X48568Y77411I348J-197D01*
G03X50938Y78877I1114J849D01*
G02X51260Y79452I359J176D01*
G03X51336Y82231I-131J1394D01*
G02X51037Y82805I59J396D01*
G03X48525Y82820I-1252J626D01*
G02X48158Y82246I-360J-175D01*
G03X48143Y82246I-27J-1400D01*
G02X47747Y82646I4J400D01*
G01Y84802D01*
X28240Y104309D01*
X28231Y104376D01*
G03X27473Y105445I-1388J-181D01*
G01X27363Y105501D01*
Y114398D01*
X27537Y114420D01*
G03X28575Y115116I-179J1389D01*
G02X29154Y115244I348J-198D01*
G03X29695Y115022I753J1060D01*
G02X30030Y114620I-65J-395D01*
G03X32362Y115387I1300J-22D01*
G02X32520Y115997I318J243D01*
G03X30823Y117742I-520J1192D01*
G02X30331Y117534I-362J170D01*
G03X28812Y117005I-424J-1229D01*
G02X28227Y116907I-337J216D01*
G03X27537Y117198I-869J-1098D01*
G01X27363Y117220D01*
Y139573D01*
G02X27945Y139929I400J0D01*
G03Y142421I638J1246D01*
G02X27363Y142777I-182J356D01*
G01Y185847D01*
G02X27887Y186227I400J0D01*
G03Y188889I436J1331D01*
G02X27363Y189269I-124J380D01*
G01Y220482D01*
X33118Y226238D01*
Y236392D01*
X33282Y236422D01*
G03X34427Y237748I-254J1377D01*
G01X34430Y237826D01*
X36351Y239748D01*
G02X37023Y239557I283J-283D01*
G03X39291Y240949I1362J324D01*
G02X39550Y241654I259J305D01*
G01X59780D01*
X59798Y241474D01*
G03X60517Y240443I1293J135D01*
G02X60703Y239916I-177J-359D01*
G03X62457Y240534I1179J-548D01*
G02X62271Y241062I177J359D01*
G03X62385Y241474I-1179J548D01*
G01X62404Y241654D01*
X71144D01*
X71554Y242064D01*
G02X72236Y241756I283J-283D01*
G03X72414Y241016I1298J-81D01*
G02X72328Y240508I-345J-203D01*
G03X74292Y240179I843J-990D01*
G02X74377Y240686I345J203D01*
G03X74516Y242527I-843J990D01*
G02X74587Y243116I302J262D01*
G03X74802Y245044I-753J1060D01*
G02X74809Y245319I149J134D01*
G01X79571Y250081D01*
X90465D01*
X90876Y249670D01*
Y248974D01*
G03Y246983I756J-996D01*
G01Y245879D01*
G02X90436Y245481I-400J0D01*
G03X89583Y245265I-127J-1294D01*
G02X89044Y245352I-223J332D01*
G03X87092Y243641I-1027J-798D01*
G02X87084Y243071I-285J-281D01*
G03X88721Y241062I900J-938D01*
G02X89247Y240998I227J-330D01*
G03X90415Y240576I972J863D01*
G02X90876Y240180I60J-395D01*
G01Y224369D01*
G03X90782Y224291I755J-996D01*
G02X90511I-136J147D01*
G03X88814Y224291I-848J-918D01*
G02X88543I-136J147D01*
G03X86847Y224291I-848J-919D01*
G02X86575I-136J147D01*
G03X84878I-848J-918D01*
G02X84607I-136J147D01*
G03X82910I-848J-918D01*
G02X82639I-136J147D01*
G03Y222454I-848J-918D01*
G02X82910I136J-147D01*
G03X84607I848J918D01*
G02X84878I136J-147D01*
G03X86575I848J918D01*
G02X86847I136J-147D01*
G03X88543Y222454I848J918D01*
G02X88814I136J-147D01*
G03X90511Y222454I848J919D01*
G02X90782I136J-147D01*
G03X90876Y222376I849J918D01*
G01Y220481D01*
G02X90534Y220340I-200J0D01*
G01X90527Y220347D01*
X87000D01*
X86324Y219672D01*
Y214475D01*
X87308Y213491D01*
X89345D01*
G02X89731Y212985I0J-400D01*
G03X90717Y211366I1253J-346D01*
G01X90876Y211333D01*
Y210226D01*
X74457Y193808D01*
G02X73774Y194082I-283J283D01*
G03X72445Y192753I-1300J-29D01*
G02X72719Y192070I-9J-400D01*
G01X54700Y174051D01*
Y160647D01*
X54680Y160606D01*
G03Y159387I1261J-609D01*
G01X54700Y159346D01*
Y156359D01*
X54690Y156329D01*
G03Y155443I1328J-443D01*
G01X54700Y155412D01*
Y147952D01*
X60159Y142492D01*
Y119766D01*
X63448Y116478D01*
X63996D01*
G02X64384Y115983I0J-400D01*
G03X64735Y114681I1360J-332D01*
G02X64700Y114095I-289J-277D01*
G03X66599Y113984I889J-1082D01*
G02X66634Y114570I289J277D01*
G03X67105Y115983I-889J1082D01*
G02X67494Y116478I389J95D01*
G01X71572D01*
X71614Y116333D01*
G03X74305I1346J386D01*
G01X74347Y116478D01*
X87845D01*
X100696Y103627D01*
X113480D01*
Y103823D01*
X116988Y107332D01*
X130871D01*
X137815Y114276D01*
X141958D01*
X145599Y117916D01*
G02X146204Y117870I283J-283D01*
G03X147882Y119548I968J710D01*
G02X147836Y120153I237J323D01*
G01X148880Y121197D01*
Y135039D01*
X153797Y139956D01*
X167719D01*
X168094Y140331D01*
X173306D01*
X176563Y137074D01*
X179573Y134065D01*
G02X179601Y133531I-283J-283D01*
G03X181682Y133124I933J-755D01*
G02X182065Y133640I383J116D01*
G01X182437D01*
G02X182811Y133099I0J-400D01*
G03X183165Y131754I1123J-424D01*
G02X183174Y131147I-256J-307D01*
G03X183388Y129199I796J-899D01*
G02Y128499I-194J-350D01*
G03X184551I581J-1050D01*
G02Y129199I194J350D01*
G03X184738Y131170I-581J1050D01*
G02X184730Y131777I256J307D01*
G03X185057Y133099I-796J899D01*
G02X185431Y133640I374J141D01*
G01X186280D01*
G02X186678Y133193I0J-400D01*
G03X187296Y131996I1192J-143D01*
G02X187312Y131302I-191J-351D01*
G03X188507Y131330I622J-1026D01*
G02X188491Y132023I191J351D01*
G03X189061Y133193I-622J1027D01*
G02X189458Y133640I397J48D01*
G01X190280D01*
G02X190677Y133192I0J-400D01*
G03X193060I1192J-144D01*
G02X193457Y133640I397J48D01*
G01X194093D01*
G02X194455Y133071I0J-400D01*
G03X196630I1087J-508D01*
G02X196993Y133640I362J169D01*
G01X197575D01*
G02X197966Y133154I0J-400D01*
G03X198556Y131846I1172J-258D01*
G02Y131146I-194J-350D01*
G03X198432Y129125I581J-1050D01*
G02X198481Y128520I-235J-324D01*
G03X198587Y126736I853J-844D01*
G02X198529Y126071I-249J-313D01*
G03X199849Y125956I573J-1055D01*
G02X199907Y126621I249J313D01*
G03X200040Y128646I-573J1055D01*
G02X199991Y129251I235J324D01*
G03X199719Y131146I-853J844D01*
G02Y131846I194J350D01*
G03X200310Y133154I-581J1050D01*
G02X200700Y133640I391J86D01*
G01X201063D01*
G02X201456Y133169I0J-400D01*
G03X202042Y131914I1181J-213D01*
G02X202090Y131251I-198J-347D01*
G03X203422Y131346I737J-947D01*
G02X203375Y132009I198J347D01*
G03X203818Y133169I-737J947D01*
G02X204212Y133640I394J71D01*
G01X205528D01*
G02X205926Y133200I0J-400D01*
G03X208314I1194J-121D01*
G02X208712Y133640I398J40D01*
G01X209822D01*
X209839Y133460D01*
G03X212234Y133547I1195J116D01*
G01X212236Y133627D01*
X213277Y134668D01*
X216314D01*
G02X216592Y133981I0J-400D01*
G03X218259I833J-864D01*
G02X218536Y134668I278J288D01*
G01X219513D01*
G02X219791Y133981I0J-400D01*
G03X221630Y132462I834J-863D01*
G02X222309Y132450I335J-218D01*
G03X224395Y132252I1116J668D01*
G02X224976Y132269I299J-266D01*
G03X226851Y132494I849J849D01*
G02X227539Y132487I342J-208D01*
G03X229388Y133973I1039J600D01*
G02X229657Y134668I270J295D01*
G01X230313D01*
G02X230591Y133981I0J-400D01*
G03X232474Y132536I833J-864D01*
G02X233174I350J-194D01*
G03X235251Y132494I1050J581D01*
G02X235939Y132487I342J-208D01*
G03X237788Y133973I1039J600D01*
G02X238058Y134668I270J295D01*
G01X243239D01*
G02X243509Y133973I0J-400D01*
G03X245128I810J-886D01*
G02X245397Y134668I270J295D01*
G01X251400D01*
X279584Y106485D01*
G02X279594Y106214I-141J-141D01*
G03X281428Y104380I987J-846D01*
G02X281699Y104370I130J-152D01*
G01X288555Y97514D01*
Y94225D01*
X289788Y92992D01*
X297393D01*
X300682Y89703D01*
Y55190D01*
G03X300446Y55002I748J-1184D01*
G02X299910Y54979I-281J285D01*
G03X297960Y52982I-895J-1077D01*
G02X297914Y52411I-301J-263D01*
G03X299776Y50321I895J-1077D01*
G02X300052I138J-145D01*
G03X300549Y50014I967J1013D01*
G01X300682Y49967D01*
Y39730D01*
G02X300276Y39330I-400J0D01*
G03Y36530I-22J-1400D01*
G02X300682Y36130I6J-400D01*
G01Y32202D01*
G02X299981Y31938I-400J0D01*
G03Y30091I-1053J-923D01*
G02X300682Y29827I301J-264D01*
G01Y29328D01*
G02X300312Y28929I-400J0D01*
G03Y26136I104J-1396D01*
G02X300682Y25737I-30J-399D01*
G01Y24197D01*
G03X300523Y24008I988J-992D01*
G02X300159Y24111I-164J115D01*
G03X299685Y22977I-1398J-81D01*
G02X300332Y22794I264J-301D01*
G03X300682Y22213I1339J411D01*
G01Y21619D01*
G02X299995Y21340I-400J0D01*
G03Y19390I-1005J-975D01*
G02X300682Y19112I287J-278D01*
G01Y17910D01*
G02X299995Y17632I-400J0D01*
G03Y15682I-1005J-975D01*
G02X300682Y15403I287J-278D01*
G01Y9541D01*
X298159Y7018D01*
X198062D01*
X196587Y8494D01*
X182902D01*
X181426Y7018D01*
X171150D01*
G37*
G36*
G01X64318Y117900D02*
X62417Y119801D01*
Y143668D01*
X56406Y149678D01*
Y154534D01*
X56533Y154584D01*
G03X57397Y156131I-515J1302D01*
G02X57855Y156595I394J70D01*
G03X58338Y156601I226J1382D01*
G02X58799Y156107I73J-393D01*
G03X59898Y157134I1356J-350D01*
G02X59437Y157627I-73J393D01*
G03X59474Y158119I-1356J350D01*
G02X59924Y158557I398J41D01*
G03X58710Y159803I180J1389D01*
G02X58261Y159366I-398J-41D01*
G03X57802Y159349I-180J-1389D01*
G02X57327Y159798I-80J392D01*
G03X56523Y161270I-1386J198D01*
G01X56406Y161323D01*
Y173351D01*
X76779Y193724D01*
X115704D01*
X115742Y193572D01*
G03X117920Y192965I1261J315D01*
G02X118202Y192965I141J-142D01*
G01X120744Y190422D01*
X131364D01*
X132802Y188983D01*
Y177748D01*
X130199Y175145D01*
X122857D01*
G02X122463Y175612I0J400D01*
G03X122476Y175713I-1282J217D01*
G02X122911Y176075I398J-36D01*
G03X123617Y178530I120J1295D01*
G02X123528Y178798I90J179D01*
G03X122522Y180664I-1165J576D01*
G02X122172Y181075I49J397D01*
G03X120713Y179831I-1299J46D01*
G02X121063Y179420I-49J-397D01*
G03X121776Y178214I1299J-46D01*
G02X121865Y177946I-90J-179D01*
G03X121736Y177486I1165J-576D01*
G02X121301Y177123I-398J36D01*
G03X119888Y175965I-120J-1295D01*
G02X119512Y175608I-398J42D01*
G03X119209Y172862I76J-1398D01*
G01X119260Y172847D01*
X119353Y172755D01*
X122014D01*
G02X122371Y172173I0J-400D01*
G03X122248Y171365I1159J-590D01*
G02X121854Y170897I-394J-67D01*
G01X121428D01*
X120916Y171408D01*
X119176D01*
X119148Y171417D01*
G03Y168929I-378J-1244D01*
G01X119176Y168938D01*
X119893D01*
X120404Y168427D01*
X120639D01*
G02X121037Y167994I0J-400D01*
G03X122191Y166501I1396J-114D01*
G02X122522Y166102I-69J-394D01*
G03X123928Y164789I1300J-17D01*
G02X124359Y164428I33J-399D01*
G03X124361Y164409I1394J130D01*
G02X124026Y163970I-398J-43D01*
G03X123224Y163508I206J-1284D01*
G02X122707Y163419I-310J253D01*
G03X123123Y161409I-725J-1198D01*
G02X123633Y161532I326J-232D01*
G03X125531Y162749I599J1154D01*
G02X125891Y163167I400J19D01*
G03X126778Y163607I-138J1393D01*
G02X127354Y163617I293J-272D01*
G01X127940Y163030D01*
X132802D01*
Y159692D01*
G02X132222Y159335I-400J0D01*
G03Y157016I-588J-1160D01*
G02X132802Y156659I181J-357D01*
G01Y153975D01*
X132612Y153785D01*
Y137369D01*
G02X132074Y136993I-400J0D01*
G03X130608Y134963I-449J-1220D01*
G02X130583Y134437I-313J-249D01*
G03X132050Y132349I939J-900D01*
G02X132612Y131984I162J-366D01*
G01Y124099D01*
X126413Y117900D01*
X73712D01*
G03X72208I-752J-1181D01*
G01X64318D01*
G37*
G36*
G01X87324Y219257D02*
X87414Y219347D01*
X90112D01*
X90523Y218936D01*
Y214876D01*
X90138Y214491D01*
X87723D01*
X87324Y214890D01*
Y219257D01*
G37*
G36*
G01X197044Y157545D02*
X196278Y158311D01*
Y166429D01*
X195652Y167056D01*
Y167093D01*
X194213Y168532D01*
X194176D01*
X193755Y168953D01*
X191942D01*
X191859Y169035D01*
Y173899D01*
G02X192328Y174293I400J0D01*
G03X191693Y176332I206J1182D01*
G01X191386Y176639D01*
Y177730D01*
X189126Y179990D01*
X188449D01*
G03X186685I-882J-814D01*
G01X177049D01*
G03X176904Y180159I-978J-696D01*
G02X176962Y180782I277J288D01*
G03X177225Y182558I-657J1004D01*
G02X177218Y183063I307J257D01*
G03X175358Y183038I-940J746D01*
G02X175365Y182533I-307J-257D01*
G03X175473Y180922I940J-746D01*
G02X175414Y180299I-277J-288D01*
G03X175094Y179990I657J-1004D01*
G01X174341D01*
G03X174019Y180146I-677J-991D01*
G02X173762Y180665I118J382D01*
G03X173419Y181983I-1128J411D01*
G02X173444Y182608I262J302D01*
G03X171949Y182668I-710J967D01*
G02X171924Y182043I-262J-302D01*
G03X171493Y180704I710J-967D01*
G02X171050Y180185I-380J-124D01*
G03X170187Y179990I-187J-1186D01*
G01X168740D01*
G03X167389I-676J-992D01*
G01X165940D01*
G03X164589I-676J-992D01*
G01X163140D01*
G03X161789I-676J-992D01*
G01X159733D01*
X158911Y180813D01*
Y180958D01*
G02X159388Y181350I400J0D01*
G03Y183705I232J1178D01*
G02X158911Y184098I-78J392D01*
G01Y185136D01*
G02X159394Y185527I400J0D01*
G03X160816Y186197I270J1272D01*
G02X161519Y186209I355J-185D01*
G03Y187390I1045J591D01*
G02X160816Y187401I-348J197D01*
G03X159394Y188071I-1152J-602D01*
G02X158911Y188462I-83J391D01*
G01Y189149D01*
G02X159411Y189536I400J0D01*
G03X160758Y191286I301J1162D01*
G02X160964Y191855I349J196D01*
G03X159614Y192204I-430J1121D01*
G02X159497Y191879I-153J-129D01*
G03X159411Y191860I215J-1181D01*
G02X158911Y192248I-100J387D01*
G01Y192528D01*
X157362Y194078D01*
G02X157664Y194760I283J283D01*
G03X157555Y197147I59J1199D01*
G02X157108Y197626I-56J396D01*
G03X157102Y198154I-1174J249D01*
G02X157534Y198644I389J93D01*
G03X156497Y199559I130J1193D01*
G02X156064Y199069I-389J-93D01*
G03X156102Y196687I-130J-1193D01*
G02X156549Y196208I56J-396D01*
G03X156761Y195241I1174J-249D01*
G01X156459Y194980D01*
X156033Y195406D01*
X154800D01*
G02X154400Y195796I0J400D01*
G03X152001I-1200J-32D01*
G02X151601Y195406I-400J11D01*
G01X149456D01*
X148338Y194289D01*
G02X147770Y194292I-283J283D01*
G03X147477Y194511I-857J-840D01*
G02X147432Y195189I188J353D01*
G03X146169Y195106I-699J976D01*
G02X146214Y194428I-188J-353D01*
G03X145844Y192905I699J-976D01*
G02X145488Y192323I-356J-182D01*
G01X142278D01*
G02X142001Y193011I0J400D01*
G03X141854Y195150I-972J1008D01*
G02X141784Y195732I236J323D01*
G03X139893Y195508I-1067J907D01*
G02X139962Y194926I-236J-323D01*
G03X140056Y193011I1067J-907D01*
G02X139779Y192323I-278J-288D01*
G01X137371D01*
X136350Y193344D01*
Y195425D01*
G02X136849Y195813I400J0D01*
G03Y198526I345J1357D01*
G02X136350Y198914I-99J388D01*
G01Y199534D01*
X130707Y205177D01*
G03X128104Y205256I-1344J-1344D01*
G02X127516Y205320I-265J299D01*
G03X127062Y203266I-1130J-827D01*
G02X127621Y203075I193J-350D01*
G03X128020Y202490I1742J759D01*
G01X132550Y197960D01*
Y192323D01*
X121451D01*
X118573Y195201D01*
X118027D01*
G02X117720Y195857I0J400D01*
G03X115881Y197681I-999J832D01*
G02X115269Y197798I-258J305D01*
G03X113209Y198112I-1147J-612D01*
G02X112931Y198109I-140J142D01*
G03X111172Y198129I-890J-947D01*
G02X110905I-134J149D01*
G03Y196194I-868J-968D01*
G02X111172I134J-149D01*
G03X112954Y196236I868J968D01*
G02X113232Y196239I140J-142D01*
G03X114962Y196194I890J948D01*
G02X115573Y196077I258J-305D01*
G03X115722Y195857I1147J612D01*
G02X115414Y195201I-307J-256D01*
G01X98647D01*
G02X98291Y195783I0J400D01*
G03X97803Y197491I-1157J593D01*
G02X97638Y197985I206J343D01*
G03X97416Y199327I-1204J491D01*
G02X97487Y199916I302J262D01*
G03X96436Y202241I-753J1060D01*
G02X96196Y202388I-46J195D01*
G03X93880Y202837I-1262J-312D01*
G02X93278Y202784I-324J234D01*
G03X92452Y203148I-904J-934D01*
G02X92264Y203348I12J200D01*
G01Y212406D01*
X92266Y212422D01*
G03Y212855I-1282J216D01*
G01X92264Y212871D01*
Y222294D01*
G03X92479Y222454I-633J1078D01*
G02X92750I136J-147D01*
G03X94447Y222454I848J918D01*
G02X94718I136J-147D01*
G03X96415Y222454I848J919D01*
G02X96686I136J-147D01*
G03X98383I848J918D01*
G02X98654I136J-147D01*
G03X100351I848J918D01*
G02X100623I136J-147D01*
G03Y224291I848J918D01*
G02X100351I-136J147D01*
G03X98654I-848J-918D01*
G02X98383I-136J147D01*
G03X96686I-848J-918D01*
G02X96415I-136J147D01*
G03X94718Y224291I-848J-918D01*
G02X94447I-136J147D01*
G03X92750Y224291I-848J-919D01*
G02X92479I-136J147D01*
G03X92264Y224451I-849J-918D01*
G01Y246899D01*
G03Y249057I-632J1079D01*
G01Y250389D01*
X92608Y250734D01*
X98302D01*
X100280Y248755D01*
Y245788D01*
G02X99657Y245456I-400J0D01*
G03X97639Y244496I-724J-1080D01*
G02X97115Y244154I-398J37D01*
G03X97203Y241718I-409J-1234D01*
G02X97715Y241522I153J-370D01*
G03X100127Y241699I1171J566D01*
G02X100791Y241862I382J-120D01*
G01X101411Y241242D01*
X102726D01*
X102776Y241117D01*
G03X103018Y240733I1161J465D01*
G02Y240462I-147J-136D01*
G03X103018Y238765I918J-848D01*
G02Y238494I-147J-136D01*
G03X103018Y236797I919J-848D01*
G02Y236526I-147J-136D01*
G03Y234829I918J-848D01*
G02Y234558I-147J-136D01*
G03Y232861I918J-848D01*
G02Y232590I-147J-136D01*
G03X103018Y230893I918J-848D01*
G02Y230622I-147J-136D01*
G03X103018Y228925I919J-848D01*
G02Y228654I-147J-136D01*
G03Y226957I918J-848D01*
G02Y226686I-147J-136D01*
G03X104855I918J-848D01*
G02Y226957I147J136D01*
G03Y228654I-918J848D01*
G02Y228925I147J136D01*
G03X104855Y230622I-918J848D01*
G02Y230893I147J136D01*
G03X104855Y232590I-919J848D01*
G02Y232861I147J136D01*
G03Y234558I-918J848D01*
G02Y234829I147J136D01*
G03Y236526I-918J848D01*
G02Y236797I147J136D01*
G03X104855Y238494I-918J848D01*
G02Y238765I147J136D01*
G03X104855Y240462I-919J848D01*
G02Y240733I147J136D01*
G03X105097Y241117I-918J848D01*
G01X105148Y241242D01*
X108707D01*
X110557Y243092D01*
Y245884D01*
G02X111187Y246211I400J0D01*
G03X112032Y245979I747J1064D01*
G02X112462Y245588I30J-399D01*
G03X115009Y245980I1300J24D01*
G02X115219Y246453I384J113D01*
G03X115818Y248204I-565J1171D01*
G02X116213Y248781I358J178D01*
G03X115170Y249495I121J1295D01*
G02X114775Y248919I-358J-178D01*
G03X113516Y248253I-121J-1295D01*
G02X112876Y248171I-350J194D01*
G03X111445Y248480I-943J-896D01*
G02X110927Y248692I-151J371D01*
G03X110557Y249182I-1193J-516D01*
G01Y260358D01*
X107474Y263442D01*
X107926Y263894D01*
Y264330D01*
X107951Y264376D01*
G03X105330Y265078I-1221J686D01*
G01X105328Y264880D01*
X93524D01*
G02X93252Y265573I0J400D01*
G03X91480I-886J952D01*
G02X91208Y264880I-272J-293D01*
G01X84453D01*
X81576Y267758D01*
Y272691D01*
X85275Y276390D01*
X109018D01*
G03X110450I716J1085D01*
G01X112118D01*
G03X113550I716J1085D01*
G01X115418D01*
G03X116850I716J1085D01*
G01X117582D01*
G03X117696Y276281I953J885D01*
G02Y275670I-258J-306D01*
G03X119372I838J-994D01*
G02Y276281I258J306D01*
G03X119486Y276390I-839J994D01*
G01X124071D01*
X129340Y271121D01*
Y263348D01*
G02X128868Y262955I-400J0D01*
G03Y260397I-234J-1279D01*
G02X129340Y260003I72J-393D01*
G01Y230175D01*
X129724Y229792D01*
Y229424D01*
X135274Y223874D01*
X169908D01*
X172410Y221371D01*
X172307Y221232D01*
G03X172865Y219250I1043J-777D01*
G01X172990Y219199D01*
Y202703D01*
X175498Y200196D01*
G02X175520Y199653I-283J-283D01*
G03X175640Y197976I914J-778D01*
G02Y197376I-265J-300D01*
G03X175560Y195653I794J-900D01*
G02X175558Y195103I-291J-274D01*
G03X175509Y193501I868J-828D01*
G02X175502Y192977I-306J-258D01*
G03X175661Y191235I898J-797D01*
G02X175680Y190621I-246J-315D01*
G03X175633Y188871I797J-897D01*
G02X175630Y188299I-281J-284D01*
G03X177309Y188290I835J-862D01*
G02X177312Y188861I281J284D01*
G03X177217Y190669I-835J862D01*
G02X177197Y191283I246J315D01*
G03X177317Y192954I-797J897D01*
G02X177324Y193478I306J258D01*
G03X177300Y195097I-898J797D01*
G02X177302Y195647I291J274D01*
G03X177228Y197376I-868J828D01*
G02Y197976I265J300D01*
G03X177560Y198461I-794J900D01*
G01X177608Y198592D01*
X182635D01*
X182659Y198421D01*
G03X183106Y197649I1188J172D01*
G02X183055Y196986I-247J-315D01*
G03X184453Y196906I637J-1133D01*
G02X184477Y197571I234J324D01*
G03X185035Y198421I-630J1022D01*
G01X185060Y198592D01*
X186539D01*
X186580Y198446D01*
G03X188892I1156J323D01*
G01X188933Y198592D01*
X190558D01*
X190587Y198427D01*
G03X192950I1182J210D01*
G01X192980Y198592D01*
X197193D01*
X198490Y197295D01*
G02X198489Y196728I-283J-283D01*
G03X198719Y194845I845J-853D01*
G02X198728Y194163I-205J-344D01*
G03X198652Y192015I694J-1100D01*
G02X198623Y191351I-237J-322D01*
G03X198594Y189145I674J-1112D01*
G02X198626Y188495I-216J-337D01*
G03X200137Y188570I807J-1019D01*
G02X200104Y189220I216J337D01*
G03X200066Y191287I-808J1019D01*
G02X200095Y191951I237J322D01*
G03X200046Y194204I-674J1112D01*
G02X200012Y194885I192J351D01*
G03X200186Y195031I-678J991D01*
G02X200753Y195032I284J-282D01*
G01X205106Y190679D01*
Y177010D01*
X203733Y175637D01*
G02X203096Y175734I-283J283D01*
G03X201240Y174275I-1062J-558D01*
G02X201115Y173600I-265J-300D01*
G03X202328Y173376I419J-1125D01*
G02X202453Y174051I265J300D01*
G03X202612Y174124I-419J1125D01*
G02X203205Y173774I193J-350D01*
G01Y167838D01*
G02X202647Y167470I-400J0D01*
G03X201304Y165275I-513J-1195D01*
G02X201211Y164601I-255J-308D01*
G03X202020Y162348I487J-1097D01*
G02X202527Y161963I108J-385D01*
G01Y157545D01*
X200233D01*
G02X199833Y157928I0J400D01*
G03X197439Y157764I-1199J-52D01*
G01X197440Y157754D01*
Y157545D01*
X197044D01*
G37*
G36*
G01X4291Y272280D02*
X3077Y273494D01*
Y385148D01*
X15214Y397284D01*
X142361D01*
G02X142666Y396626I0J-400D01*
G03X144611Y394165I1222J-1033D01*
G02X145190Y393772I181J-357D01*
G03X145190Y393483I1594J-145D01*
G02X144611Y393090I-398J-36D01*
G03X145482Y391807I-723J-1427D01*
G02X146061Y392200I398J36D01*
G03X147668Y392293I723J1427D01*
G02X148288Y391942I221J-333D01*
G03X149003Y393203I1599J-73D01*
G02X148383Y393555I-221J333D01*
G03X148381Y393733I-1599J72D01*
G02X148980Y394105I399J26D01*
G03X150930Y396605I803J1384D01*
G02X151217Y397284I287J279D01*
G01X191797D01*
X194427Y394655D01*
Y365730D01*
X191392Y362696D01*
X129497D01*
X118201Y351400D01*
X118125Y351395D01*
G03X116903Y350173I76J-1298D01*
G01X116899Y350097D01*
X111698Y344896D01*
X77311D01*
X76982Y344566D01*
X43877D01*
X43636Y344326D01*
X41198D01*
G02X40641Y344430I-227J329D01*
G03X38279Y342069I-1407J-955D01*
G02X38337Y341455I-225J-331D01*
G01X29240Y332358D01*
Y312131D01*
X35915Y305456D01*
Y301613D01*
X34702Y300399D01*
X26408D01*
X24588Y298579D01*
Y285228D01*
X26813Y283004D01*
X51889D01*
G02X52276Y282503I0J-400D01*
G03X54413Y281218I1258J-327D01*
G02X54954I271J-295D01*
G03X57092Y282503I879J958D01*
G02X57479Y283004I387J101D01*
G01X58166D01*
X58890Y282279D01*
G02X58773Y281632I-283J-283D01*
G03X60495Y279910I539J-1183D01*
G02X61142Y280027I364J-166D01*
G01X61604Y279565D01*
Y274505D01*
X59379Y272280D01*
X4291D01*
G37*
G36*
G01X67730Y277745D02*
X66831Y278644D01*
G02X66914Y279273I283J283D01*
G03X67542Y280168I-651J1125D01*
G02X68080Y280470I394J-71D01*
G03X68633Y280386I469J1213D01*
G02X69057Y279939I26J-399D01*
G03X71622Y280038I1291J-157D01*
G02X71868Y280271I196J39D01*
G03X72062Y280236I328J1258D01*
G02X72418Y279801I-42J-398D01*
G03X74997Y279885I1295J-122D01*
G02X75226Y280114I197J32D01*
G03X75278Y280107I205J1284D01*
G02X75628Y279672I-48J-397D01*
G03X78200Y279792I1294J-124D01*
G02X78374Y280028I196J37D01*
G03X78426Y280035I-142J1292D01*
G02X78886Y279648I59J-396D01*
G03X79992Y280962I1300J28D01*
G02X79533Y281349I-59J396D01*
G03X79529Y281426I-1300J-28D01*
G02X79843Y281849I399J32D01*
G03X78547Y283924I-274J1271D01*
G02X77918I-314J247D01*
G03X77308Y284353I-1022J-804D01*
G02X77042Y284813I126J380D01*
G03X74479Y284905I-1274J262D01*
G02X74020Y284457I-397J-52D01*
G03X72516Y283215I-204J-1284D01*
G02X72135Y282828I-400J13D01*
G03X72081Y282824I62J-1299D01*
G02X71646Y283241I-36J398D01*
G03X69048Y283362I-1299J61D01*
G02X68625Y282981I-400J18D01*
G03X68178Y282930I-77J-1298D01*
G02X67664Y283298I-114J383D01*
G03X67318Y284135I-1299J-48D01*
G02X67342Y284703I293J272D01*
G03X65514Y284781I-874J962D01*
G02X65490Y284213I-293J-272D01*
G03X65619Y282185I874J-962D01*
G02X65595Y281514I-229J-328D01*
G03X65137Y281050I667J-1116D01*
G02X64508Y280967I-346J200D01*
G01X60651Y284824D01*
X29442D01*
X26206Y288060D01*
Y295747D01*
X28229Y297770D01*
X34702D01*
X37129Y300197D01*
Y308895D01*
X30252Y315772D01*
Y329526D01*
X44291Y343566D01*
X77703D01*
X77734Y343597D01*
X95274D01*
G02X95594Y342956I0J-400D01*
G03X97674I1040J-781D01*
G02X97994Y343597I320J240D01*
G01X112993D01*
X118191Y348795D01*
X118268Y348799D01*
G03X119500Y350030I-67J1299D01*
G01X119504Y350107D01*
X128758Y359362D01*
X145547D01*
X147974Y356934D01*
Y348237D01*
X144509Y344772D01*
G02X143828Y345020I-283J283D01*
G03X141989Y343182I-1694J-145D01*
G02X142238Y342500I-34J-399D01*
G01X139074Y339337D01*
X134422D01*
X125724Y330639D01*
Y294826D01*
G02X125151Y294465I-400J0D01*
G03X123722Y294267I-565J-1171D01*
G02X123172Y294285I-265J299D01*
G03X123110Y292399I-925J-914D01*
G02X123660Y292381I265J-299D01*
G03X125151Y292124I925J914D01*
G02X125724Y291763I174J-360D01*
G01Y284116D01*
X123673Y282065D01*
X123555Y282106D01*
G03X121904Y280454I-421J-1230D01*
G01X121944Y280336D01*
X120661Y279053D01*
X112488D01*
X111485Y278050D01*
G02X110857Y278131I-283J283D01*
G03X108499Y277882I-1123J-656D01*
G01X108454Y277745D01*
X67730D01*
G37*
G36*
G01X186184Y138555D02*
X184916Y139823D01*
Y140140D01*
X177482Y147574D01*
X177536Y147699D01*
G03X175958Y149277I-1102J476D01*
G01X175833Y149223D01*
X174492Y150564D01*
G02X174562Y151186I283J283D01*
G03X172906Y152841I-640J1016D01*
G02X172285Y152771I-339J213D01*
G01X171052Y154004D01*
X165165D01*
X161891Y157278D01*
Y158404D01*
G02X162399Y158789I400J0D01*
G03Y161101I323J1156D01*
G02X161891Y161486I-108J385D01*
G01Y161984D01*
G02X162260Y162383I400J0D01*
G03Y164975I-102J1296D01*
G02X161891Y165374I31J399D01*
G01Y170151D01*
X162756D01*
X164991Y172386D01*
X166208D01*
X166927Y173105D01*
Y173678D01*
G02X167511Y174034I400J0D01*
G03X169114Y174518I553J1065D01*
G02X169814I350J-194D01*
G03X171914I1050J581D01*
G02X172614I350J-194D01*
G03Y175680I1050J581D01*
G02X171914I-350J194D01*
G03X169814I-1050J-581D01*
G02X169114I-350J194D01*
G03X167511Y176164I-1050J-581D01*
G02X166927Y176519I-184J355D01*
G01Y176804D01*
X167751Y177629D01*
X185022D01*
X186078Y176573D01*
X189331D01*
X190359Y175545D01*
Y173849D01*
G02X189803Y173481I-400J0D01*
G03Y171271I-469J-1105D01*
G02X190359Y170902I156J-368D01*
G01Y170481D01*
G02X189728Y170155I-400J0D01*
G03Y168196I-694J-979D01*
G02X190359Y167870I231J-326D01*
G01Y167864D01*
X190770Y167452D01*
X193134D01*
X194778Y165808D01*
Y157689D01*
X196422Y156045D01*
X203719D01*
X204028Y156353D01*
Y156540D01*
G02X204604Y156899I400J0D01*
G03Y159053I530J1077D01*
G02X204028Y159412I-177J359D01*
G01Y162725D01*
X206083Y164780D01*
X209014D01*
X209039Y164756D01*
X210053D01*
G02X210348Y164086I0J-400D01*
G03X211179Y162077I885J-810D01*
G02X211561Y161677I-18J-400D01*
G01Y159022D01*
G02X211111Y158625I-400J0D01*
G03Y156244I-150J-1191D01*
G02X211561Y155847I50J-397D01*
G01Y149818D01*
G02X211054Y149432I-400J0D01*
G03Y147119I-320J-1157D01*
G02X211561Y146733I107J-385D01*
G01Y144271D01*
G02X211129Y143872I-400J0D01*
G03Y141479I-95J-1196D01*
G02X211561Y141080I32J-399D01*
G01Y140709D01*
X211330D01*
X211300Y140719D01*
G03X209828Y139110I-366J-1143D01*
G02X209459Y138555I-369J-155D01*
G01X206417D01*
G02X206044Y139101I0J400D01*
G03X203623I-1211J474D01*
G02X203251Y138555I-372J-146D01*
G01X203109D01*
G02X202740Y139110I0J400D01*
G03X200528I-1106J465D01*
G02X200159Y138555I-369J-155D01*
G01X199902D01*
G02X199510Y139035I0J400D01*
G03X197158I-1176J240D01*
G02X196766Y138555I-392J-80D01*
G01X186184D01*
G37*
G36*
G01X216776Y162170D02*
X216750Y162196D01*
X215999D01*
G02X215683Y162841I0J400D01*
G03X214410Y164731I-949J735D01*
G02X213902Y165116I-108J385D01*
G01Y165135D01*
G02X214410Y165520I400J0D01*
G03X215917Y166471I324J1156D01*
G02X216577Y166700I394J-68D01*
G03X216195Y167800I801J894D01*
G02X215534Y167570I-394J68D01*
G03X214410Y167831I-801J-894D01*
G02X213902Y168216I-108J385D01*
G01Y173523D01*
G02X214371Y173917I400J0D01*
G03X215735Y175419I208J1182D01*
G02X216120Y175926I386J107D01*
G01X218982D01*
X220260Y174648D01*
G03X221932Y176292I1016J639D01*
G01X221915Y176304D01*
X220813Y177405D01*
G02X220867Y178015I283J283D01*
G03X221228Y178417I-689J983D01*
G02X221928I350J-194D01*
G03X224028Y178417I1050J581D01*
G02X224728Y178417I350J-194D01*
G03X224728Y179581I1050J582D01*
G02X224028Y179580I-350J194D01*
G03X221928Y179580I-1050J-582D01*
G02X221228I-350J194D01*
G03X219004Y178749I-1050J-581D01*
G02X218613Y178266I-391J-83D01*
G01X217232D01*
G02X216832Y178644I0J400D01*
G03X214436I-1198J-68D01*
G02X214036Y178266I-399J23D01*
G01X213004D01*
X207985Y183286D01*
Y195056D01*
G03Y196618I-912J781D01*
G01Y207559D01*
X190589Y224954D01*
X182926D01*
X181931Y225961D01*
X177970D01*
X176963Y224954D01*
X135975D01*
X130340Y230590D01*
Y265324D01*
G02X130903Y265689I400J0D01*
G03Y268063I531J1187D01*
G02X130340Y268428I-163J365D01*
G01Y273102D01*
X127480Y275962D01*
Y292215D01*
G03Y294425I-685J1105D01*
G01Y324309D01*
G02X127849Y324707I400J0D01*
G03Y327300I-102J1296D01*
G02X127480Y327698I31J399D01*
G01Y329967D01*
X134827Y337314D01*
X139074D01*
X161834Y360073D01*
X175633D01*
X175634Y359874D01*
G03X178234I1300J2D01*
G01X178234Y360073D01*
X202787D01*
G02X203081Y359403I0J-400D01*
G03X204996I957J-880D01*
G02X205290Y360073I295J271D01*
G01X256924D01*
X256939Y359889D01*
G03X259294Y359240I1296J104D01*
G02X259929Y359262I326J-232D01*
G03X262220Y359902I1004J826D01*
G01X262245Y360073D01*
X296952D01*
G03X298943I995J985D01*
G01X299918D01*
X306997Y352994D01*
Y340655D01*
X304898Y338556D01*
X298710D01*
X297250Y337096D01*
X290020D01*
G02X289648Y337642I0J400D01*
G03X289438Y339027I-1304J511D01*
G02X289464Y339555I312J250D01*
G03X287366Y339657I-1004J976D01*
G02X287340Y339129I-312J-250D01*
G03X287041Y337642I1004J-976D01*
G02X286668Y337096I-372J-146D01*
G01X262609D01*
G03X260807I-901J-1072D01*
G01X245746D01*
X240649Y331998D01*
Y320922D01*
X240627Y320878D01*
G03Y319678I1154J-600D01*
G01X240649Y319635D01*
Y319458D01*
X240563Y319399D01*
G03X240007Y318200I738J-1070D01*
G02X239453Y317793I-398J-39D01*
G03X237508Y316417I-547J-1289D01*
G02X237109Y315993I-399J-25D01*
G01X232927D01*
X232490Y315556D01*
X232455Y315540D01*
G03X234038Y313602I517J-1193D01*
G01X236303D01*
G02X236586Y312920I0J-400D01*
G03X236291Y312480I994J-986D01*
G02X235739Y312280I-368J156D01*
G03X233945Y311836I-644J-1243D01*
G02X233442Y311705I-328J228D01*
G03X233981Y309645I-610J-1260D01*
G02X234484Y309777I328J-228D01*
G03X235661Y309757I610J1260D01*
G02X236217Y309462I162J-366D01*
G03X238596Y310690I1378J248D01*
G02X238594Y310968I143J140D01*
G03X238931Y311564I-1013J966D01*
G02X239418Y311846I386J-106D01*
G03X241172Y313202I354J1355D01*
G02X241572Y313602I400J0D01*
G01X251149D01*
X251312Y313765D01*
G02X251989Y313554I283J-283D01*
G03X252247Y312982I1279J232D01*
G02X252229Y312466I-314J-248D01*
G03X252221Y310734I965J-871D01*
G02X252219Y310466I-150J-133D01*
G03X254152Y310450I959J-878D01*
G02X254154Y310717I150J133D01*
G03X254216Y312400I-959J878D01*
G02X254233Y312915I314J248D01*
G03X254515Y314154I-966J871D01*
G02X254899Y314667I384J113D01*
G01X258060D01*
X258073Y314481D01*
G03X260667I1297J88D01*
G01X260680Y314667D01*
X269630D01*
X271799Y312498D01*
X271813Y312448D01*
G03X273539Y314174I1348J379D01*
G01X273489Y314189D01*
X273352Y314326D01*
G02X273493Y314667I141J141D01*
G01X279222D01*
X283984Y309905D01*
Y306914D01*
G02X283605Y306515I-400J0D01*
G03Y303718I73J-1398D01*
G02X283984Y303319I-21J-399D01*
G01Y290348D01*
G02X283545Y289950I-400J0D01*
G03Y287163I-140J-1393D01*
G02X283984Y286765I40J-398D01*
G01Y283533D01*
G02X283586Y283133I-400J0D01*
G03Y280333I7J-1400D01*
G02X283984Y279933I-2J-400D01*
G01Y275659D01*
X283636Y275311D01*
X267600D01*
G02X267200Y275721I0J400D01*
G03X266869Y276660I-1400J34D01*
G02X266894Y276944I153J129D01*
G03X264938Y277122I-888J1083D01*
G02X264912Y276838I-153J-129D01*
G03X264400Y275721I888J-1083D01*
G02X264000Y275311I-400J-10D01*
G01X251921D01*
G02X251635Y275990I0J400D01*
G03X249629I-1003J977D01*
G02X249343Y275311I-286J-279D01*
G01X246845D01*
X246711Y275445D01*
Y286759D01*
X246518Y286951D01*
X246504Y287002D01*
G03X244075Y287514I-1348J-379D01*
G02X243799Y287482I-154J127D01*
G03X243039Y287770I-855J-1109D01*
G02X242666Y288187I27J399D01*
G03X241204Y286955I-1299J58D01*
G02X241552Y286517I-50J-397D01*
G03X243703Y285197I1393J-144D01*
G02X244320Y284860I217J-336D01*
G01Y274388D01*
X187106D01*
X186486Y273767D01*
X179524Y273763D01*
X166316Y260555D01*
Y246800D01*
X169148Y243968D01*
X181487D01*
X192258Y254740D01*
X200708D01*
G02X201020Y254089I0J-400D01*
G03X202841Y252257I1014J-814D01*
G02X203477Y252045I248J-314D01*
G03X203927Y253395I1257J331D01*
G02X203291Y253607I-248J314D01*
G03X203048Y254089I-1257J-331D01*
G02X203360Y254740I312J250D01*
G01X205862D01*
G03X208006I1072J736D01*
G01X250130D01*
G02X250480Y254146I0J-400D01*
G03X252599Y252390I1225J-679D01*
G02X253110I255J-308D01*
G03X255229Y254146I895J1077D01*
G02X255579Y254740I350J194D01*
G01X269370D01*
X278093Y246017D01*
Y221081D01*
X260171Y203160D01*
X252569D01*
X252544Y203332D01*
G03X249974Y202941I-1287J-182D01*
G01X249990Y202840D01*
X249115Y201965D01*
G02X248433Y202231I-283J283D01*
G03X247079Y200877I-1299J-55D01*
G02X247345Y200194I-17J-400D01*
G01X246398Y199248D01*
X246384Y199238D01*
G03X246062Y198912I750J-1062D01*
G01X242573Y195423D01*
X235327D01*
G02X234929Y195786I0J400D01*
G03X234811Y196205I-1195J-110D01*
G02X235136Y196780I359J176D01*
G03X235013Y199176I-102J1196D01*
G02X234613Y199651I-7J400D01*
G03X233455Y198676I-1179J225D01*
G02X233855Y198201I7J-400D01*
G03X233957Y197446I1179J-225D01*
G02X233632Y196871I-359J-176D01*
G03X233261Y194572I102J-1196D01*
G02X233386Y193922I-158J-368D01*
G01X231237Y191773D01*
X231189Y191758D01*
G03X230388Y190957I347J-1149D01*
G01X230373Y190909D01*
X229223Y189759D01*
Y187130D01*
X231622Y184731D01*
G02X231413Y184055I-283J-283D01*
G03X230686Y183611I221J-1180D01*
G02X230036Y183636I-316J245D01*
G03X228045Y183656I-1002J-661D01*
G02X227370Y183681I-330J227D01*
G03X227323Y182395I-1036J-605D01*
G02X227998Y182370I330J-227D01*
G03X229982Y182240I1036J605D01*
G02X230632Y182215I316J-245D01*
G03X232610Y182178I1002J661D01*
G02X233235Y182210I325J-233D01*
G03X235130Y183675I899J795D01*
G02X235462Y184298I332J223D01*
G01X238932D01*
X244394Y189759D01*
X247726D01*
X248660Y190692D01*
X251627D01*
G03X253436I905J934D01*
G01X264149D01*
X264766Y190076D01*
Y182429D01*
G02X264083Y182146I-400J0D01*
G01X264019Y182210D01*
X258959D01*
G03X256977Y180388I-729J-1195D01*
G02X256835Y179872I-358J-179D01*
G03X256543Y179617I699J-1096D01*
G02X255955Y179594I-305J259D01*
G03X256025Y177834I-921J-918D01*
G02X256613Y177858I305J-259D01*
G03X258380Y177788I921J918D01*
G02X259003Y177652I260J-304D01*
G03X261332Y179157I1271J588D01*
G02X261634Y179819I302J262D01*
G01X263029D01*
X264766Y178083D01*
Y176983D01*
X259055Y171272D01*
X258253D01*
Y171648D01*
X255557Y174344D01*
X251981D01*
X250949Y173312D01*
X250899Y173298D01*
G03X249881Y172046I379J-1348D01*
G02X249426Y171677I-399J27D01*
G03X250628Y170194I-195J-1387D01*
G02X251083Y170563I399J-27D01*
G03X251189Y170552I195J1387D01*
G02X251446Y169870I-25J-399D01*
G01X248991Y167414D01*
X245779D01*
G03X245554Y167393I0J-1195D01*
G01X245535Y167390D01*
X238178D01*
Y167590D01*
G03X235928Y168176I-1200J5D01*
G02X235228I-350J194D01*
G03X233128Y168177I-1050J-581D01*
G02X232428I-350J194D01*
G03X230178Y167590I-1050J-581D01*
G01Y167390D01*
X228362D01*
X227643Y166670D01*
X227517D01*
G02X227171Y167272I0J400D01*
G03X225299Y167014I-1037J604D01*
G01X225159Y166670D01*
X224921D01*
G02X224524Y167122I0J400D01*
G03X222144I-1190J154D01*
G02X221747Y166670I-397J-51D01*
G01X221657D01*
X221437Y166450D01*
X221180Y166707D01*
X221270Y166843D01*
G03X220309Y166302I-1003J659D01*
G02X220606Y165620I14J-400D01*
G01X219448Y164461D01*
X219430Y164450D01*
G03X219081Y162789I656J-1005D01*
G02X218746Y162170I-335J-219D01*
G01X216776D01*
G37*
G36*
G01X333777Y47415D02*
X329872Y51320D01*
Y60403D01*
X331421Y61953D01*
Y61954D01*
X335365Y65898D01*
Y67297D01*
X335421Y67353D01*
Y108975D01*
X329101Y115296D01*
Y127577D01*
X326428Y130249D01*
Y137032D01*
X325889Y137571D01*
X325958Y137702D01*
G03X323396Y138811I-1239J653D01*
G01X323349Y138676D01*
X321290D01*
X315740Y144226D01*
Y161963D01*
G02X316223Y162355I400J0D01*
G03X317664Y164520I288J1370D01*
G01X317570Y164657D01*
X318746Y165834D01*
X318824D01*
X325675Y172685D01*
G02X326325Y172560I283J-283D01*
G03X333487Y174626I3452J1481D01*
G02X333946Y175083I395J62D01*
G03X335510Y176066I222J1383D01*
G02X335989Y176340I383J-114D01*
G03X337725Y177731I337J1359D01*
G01Y177935D01*
X338145D01*
Y177782D01*
X341536Y174391D01*
Y173335D01*
X341531Y173312D01*
G03Y172664I1362J-324D01*
G01X341536Y172641D01*
Y156304D01*
X340098Y154865D01*
Y149776D01*
X343078Y146795D01*
X345445D01*
X347500Y144740D01*
Y113494D01*
G02X346830Y113199I-400J0D01*
G03Y111129I-943J-1035D01*
G02X347500Y110834I269J-296D01*
G01Y48806D01*
X346109Y47415D01*
X333777D01*
G37*
G36*
G01X291834Y211926D02*
X291211Y212549D01*
Y226046D01*
G02X291663Y226443I400J0D01*
G03Y229219I183J1388D01*
G02X291211Y229616I-52J397D01*
G01Y253625D01*
G02X291860Y253938I400J0D01*
G03X293748Y255997I871J1096D01*
G02Y256272I145J137D01*
G03X292753Y258634I-1017J962D01*
G02X292360Y259011I6J400D01*
G03X291355Y260271I-1398J-83D01*
G01X291211Y260313D01*
Y263177D01*
X292146Y264112D01*
X292196Y264126D01*
G03X293021Y264759I-379J1348D01*
G02X293703Y264768I344J-204D01*
G03X295794Y266303I1100J694D01*
G02X296099Y266962I305J259D01*
G01X305793D01*
G02X306181Y266465I0J-400D01*
G03X308232Y267181I1261J-316D01*
G02X308193Y267781I243J318D01*
G01X310312Y269900D01*
Y279850D01*
X303697Y286466D01*
Y287728D01*
X303058Y288366D01*
X303043Y288401D01*
G03X301754Y289181I-1193J-517D01*
G02X301329Y289523I-30J399D01*
G03X298980Y290342I-1386J-198D01*
G02X298705I-137J145D01*
G03X296349Y289455I-962J-1017D01*
G02X295782Y289129I-398J37D01*
G03X296588Y287728I-589J-1270D01*
G02X297154Y288054I398J-37D01*
G03X298705Y288308I589J1270D01*
G02X298980I137J-145D01*
G03X300131Y287937I962J1017D01*
G02X300577Y287622I54J-396D01*
G03X301205Y286755I1273J262D01*
G01X301306Y286698D01*
Y285475D01*
X307921Y278860D01*
Y270891D01*
X306383Y269352D01*
X295465D01*
G02X295068Y269799I0J400D01*
G03X292660Y270925I-1391J163D01*
G02X292065Y270941I-290J275D01*
G03X291360Y271387I-1067J-907D01*
G01X291211Y271426D01*
Y271997D01*
X302028D01*
X302937Y271089D01*
X302949Y271032D01*
G03X304775Y272660I1367J305D01*
G01X304732Y272675D01*
X303019Y274388D01*
X293705D01*
G02X293422Y275070I0J400D01*
G01X295819Y277467D01*
G02X296477Y277323I283J-283D01*
G03X298752Y276793I1313J487D01*
G02X299027I137J-145D01*
G03X301341Y278175I963J1017D01*
G02X301666Y278675I386J104D01*
G03X302412Y279041I-216J1383D01*
G02X302687I137J-145D01*
G03Y281075I963J1017D01*
G02X302412I-137J145D01*
G03X300098Y279693I-963J-1017D01*
G02X299773Y279193I-386J-104D01*
G03X299611Y279158I216J-1383D01*
G02X299118Y279651I-108J385D01*
G03X297084Y281250I-1348J378D01*
G01X297038Y281224D01*
X296711D01*
Y281465D01*
X296727Y281502D01*
G03X295815Y283394I-1290J544D01*
G01X295765Y283408D01*
X291539Y287634D01*
Y318465D01*
X295648Y322574D01*
X299138D01*
G03Y324964I729J1195D01*
G01X294657D01*
X289149Y319456D01*
Y318711D01*
X270466D01*
X269960Y319218D01*
Y323334D01*
G03X270179Y325128I-818J1011D01*
G01X270681Y325630D01*
X273612D01*
G02X273892Y324945I0J-400D01*
G03X275554Y322723I982J-999D01*
G02X275820Y322656I97J-175D01*
G03X277967Y322597I1094J703D01*
G02X278230Y322652I162J-117D01*
G03X279566Y322666I656J1122D01*
G02X279841Y322601I104J-171D01*
G03X280266Y324394I1105J685D01*
G02X279992Y324460I-104J171D01*
G03X277833Y324537I-1105J-685D01*
G02X277570Y324481I-162J117D01*
G03X276361Y324536I-657J-1122D01*
G02X276101Y324620I-85J181D01*
G03X275855Y324945I-1227J-674D01*
G02X276136Y325630I280J285D01*
G01X280154D01*
X281659Y327134D01*
X298747D01*
X299359Y326522D01*
X301672D01*
X302284Y327134D01*
X303459D01*
G02X303858Y326712I0J-400D01*
G03X305411Y325363I1298J-74D01*
G02X305886Y325028I78J-392D01*
G03X313654Y327571I4108J588D01*
G02X314007Y328160I353J189D01*
G01X318134D01*
X323638Y322656D01*
Y245282D01*
X324226Y244693D01*
Y244301D01*
X329834Y238694D01*
X329849Y238659D01*
G03X330143Y238236I1193J517D01*
G02X330154Y237958I-138J-145D01*
G03X332097Y238101I1045J-932D01*
G02X332068Y238377I128J154D01*
G03X332302Y239496I-1026J799D01*
G02X332690Y239994I388J98D01*
G01X336047D01*
X337508Y238533D01*
Y234042D01*
X337508Y234041D01*
Y233820D01*
X337634Y233694D01*
Y216971D01*
X335252Y214588D01*
X332321D01*
G02X331924Y215040I0J400D01*
G03X331589Y216092I-1289J168D01*
G02Y216635I294J272D01*
G03X329681I-954J883D01*
G02Y216092I-294J-272D01*
G03X329346Y215040I954J-883D01*
G02X328949Y214588I-397J-52D01*
G01X327401D01*
X324739Y211926D01*
X321261D01*
G02X320971Y212602I0J400D01*
G03X318944I-1014J966D01*
G02X318654Y211926I-290J-276D01*
G01X294829D01*
X294811Y211929D01*
G03X294306I-252J-1377D01*
G01X294288Y211926D01*
X291834D01*
G37*
%LPC*%
G75*
G36*
G01X6786Y184355D02*
G03X6666Y184606I-190J63D01*
G02X8450Y185388I488J1312D01*
G03X8553Y185130I185J-76D01*
G02X8821Y182920I-533J-1186D01*
G03X8782Y182647I123J-157D01*
G02X6854Y182993I-1141J-812D01*
G03X6912Y183263I-112J165D01*
G02X6786Y184355I1108J681D01*
G37*
G36*
G01X17360Y179424D02*
G03X17323Y179698I-161J118D01*
G02X19330Y179964I876J1092D01*
G03X19366Y179689I161J-118D01*
G02X17360Y179424I-876J-1092D01*
G37*
G36*
G01X15057Y163674D02*
G03X14772Y164116I-396J58D01*
G02X16528Y165169I387J1346D01*
G03X16783Y164709I391J-84D01*
G02X15057Y163674I-440J-1224D01*
G37*
G36*
G01X68147Y258115D02*
G02X66608Y257941I-652J-1125D01*
G03X66487Y258603I-273J292D01*
G02X68649Y260948I646J1572D01*
G03X69247Y260811I356J182D01*
G02X68996Y258992I787J-1035D01*
G03X68383Y259022I-319J-241D01*
G02X68116Y258788I-1249J1153D01*
G03X68147Y258115I231J-326D01*
G37*
G36*
G01X86576Y248897D02*
G03X86847I136J147D01*
G02Y247060I848J-918D01*
G03X86576I-136J-147D01*
G02X84704Y247261I-848J918D01*
G03X84432Y247315I-164J-115D01*
G02X84782Y249085I-674J1053D01*
G03X85054Y249032I164J115D01*
G02X86576Y248897I674J-1053D01*
G37*
G36*
G01X73222Y234007D02*
G03X73496Y233809I200J-12D01*
G02X72685Y232465I482J-1208D01*
G03X72201Y232814I-398J-42D01*
G02X72210Y235353I-277J1270D01*
G03X72697Y235712I88J390D01*
G02X73494Y234413I1296J-99D01*
G03X73218Y234209I-77J-185D01*
G02X73222Y234007I-1294J-125D01*
G37*
G36*
G01X80247Y226955D02*
G03Y226683I147J-136D01*
G02X78414I-916J-850D01*
G03Y226955I-147J136D01*
G02X78412Y228654I916J850D01*
G03Y228925I-147J136D01*
G02X78412Y230622I918J848D01*
G03Y230893I-147J136D01*
G02X78412Y232590I919J848D01*
G03Y232861I-147J136D01*
G02Y234558I918J848D01*
G03Y234829I-147J136D01*
G02Y236526I918J848D01*
G03Y236797I-147J136D01*
G02X78412Y238494I918J848D01*
G03Y238765I-147J136D01*
G02X78412Y240462I919J848D01*
G03Y240733I-147J136D01*
G02Y242430I918J848D01*
G03Y242701I-147J136D01*
G02X80249I918J848D01*
G03Y242430I147J-136D01*
G02Y240733I-918J-848D01*
G03Y240462I147J-136D01*
G02X80249Y238765I-918J-848D01*
G03Y238494I147J-136D01*
G02X80249Y236797I-919J-848D01*
G03Y236526I147J-136D01*
G02Y234829I-918J-848D01*
G03Y234558I147J-136D01*
G02Y232861I-918J-848D01*
G03Y232590I147J-136D01*
G02X80249Y230893I-918J-848D01*
G03Y230622I147J-136D01*
G02X80249Y228925I-919J-848D01*
G03Y228654I147J-136D01*
G02X80247Y226955I-918J-848D01*
G37*
G36*
G01X72609Y223505D02*
G03X72532Y224028I-335J218D01*
G02X74612Y224333I906J1068D01*
G03X74689Y223810I335J-218D01*
G02X72609Y223505I-906J-1068D01*
G37*
G36*
G01X34156Y215148D02*
G03X33706Y215560I-400J15D01*
G02X35188Y217182I-217J1686D01*
G03X35639Y216770I400J-15D01*
G02X34156Y215148I217J-1686D01*
G37*
G36*
G01X57730Y214030D02*
G03X57788Y214638I-228J329D01*
G02X59510Y214513I931J908D01*
G03X59480Y213903I243J-318D01*
G02X57730Y214030I-954J-1025D01*
G37*
G36*
G01X50685Y196190D02*
G03X50801Y196734I-224J331D01*
G02X52773Y196315I1188J741D01*
G03X52658Y195772I224J-331D01*
G02X50685Y196190I-1188J-741D01*
G37*
G36*
G01X38468Y167300D02*
G03X38445Y167860I-297J268D01*
G02X40443Y167941I959J1020D01*
G03X40466Y167382I297J-268D01*
G02X38468Y167300I-959J-1020D01*
G37*
G36*
G01X48126Y136570D02*
G03X48686Y136536I297J268D01*
G02X48564Y134542I918J-1057D01*
G03X48004Y134576I-297J-268D01*
G02X48126Y136570I-918J1057D01*
G37*
G36*
G01X250612Y125692D02*
G03X250024I-294J-271D01*
G02Y127454I-956J881D01*
G03X250612I294J271D01*
G02X252524I956J-881D01*
G03X253112I294J271D01*
G02Y125692I956J-881D01*
G03X252524I-294J-271D01*
G02X250612I-956J881D01*
G37*
G36*
G01X191160Y123598D02*
G03X191160Y124148I-291J274D01*
G02X191107Y125738I872J825D01*
G03X191073Y126283I-308J255D01*
G02X192823Y126390I825J872D01*
G03X192856Y125844I308J-255D01*
G02X192905Y124150I-825J-872D01*
G03X192906Y123601I291J-274D01*
G02X191160Y123598I-872J-825D01*
G37*
G36*
G01X30251Y107623D02*
G03X30789I269J296D01*
G02Y105699I875J-962D01*
G03X30251I-269J-296D01*
G02Y107623I-875J962D01*
G37*
G36*
G01X187112Y98192D02*
G03X186524I-294J-271D01*
G02Y99954I-956J881D01*
G03X187112I294J271D01*
G02Y98192I956J-881D01*
G37*
G36*
G01X154828Y90654D02*
G03X154307I-261J-304D01*
G02Y92627I-847J986D01*
G03X154828I261J304D01*
G02Y90654I847J-987D01*
G37*
G36*
G01X71103Y60017D02*
G03X71039Y59468I256J-308D01*
G02X69027Y59701I-1117J-844D01*
G03X69090Y60250I-256J308D01*
G02X71103Y60017I1117J844D01*
G37*
G36*
G01X71814Y54962D02*
G03X71850Y55541I-257J306D01*
G02X73776Y55422I1026J953D01*
G03X73741Y54844I257J-306D01*
G02X73964Y53258I-1026J-953D01*
G03X74122Y52731I357J-181D01*
G02X72174Y52150I-698J-1214D01*
G03X72017Y52677I-357J181D01*
G02X71814Y54962I699J1213D01*
G37*
G36*
G01X56032Y49129D02*
G03X56101Y48622I339J-212D01*
G02X53966Y48332I-947J-1032D01*
G03X53897Y48838I-339J212D01*
G02X56032Y49129I947J1032D01*
G37*
G36*
G01X111833Y48537D02*
G03X112313Y48246I388J98D01*
G02X111279Y46540I324J-1362D01*
G03X110799Y46831I-388J-98D01*
G02X111833Y48537I-324J1362D01*
G37*
G36*
G01X278531Y43081D02*
G03X278955Y42731I397J49D01*
G02X277751Y41275I87J-1297D01*
G03X277327Y41626I-397J-49D01*
G02X278531Y43081I-87J1297D01*
G37*
G36*
G01X120433Y42059D02*
G03X120355Y41447I214J-338D01*
G02X118334Y41704I-1166J-1095D01*
G03X118412Y42316I-214J338D01*
G02X120433Y42059I1166J1095D01*
G37*
G36*
G01X142190Y34514D02*
G03X142168Y33943I269J-296D01*
G02X140108Y33914I-1017J-963D01*
G03X140071Y34484I-298J267D01*
G02X142190Y34514I1043J1214D01*
G37*
G36*
G01X84172Y229750D02*
G02X84108Y228077I962J-875D01*
G03X83496Y228101I-316J-246D01*
G02X83560Y229774I-962J875D01*
G03X84172Y229750I316J246D01*
G37*
G36*
G01X73939Y201428D02*
G02X72948Y200396I287J-1268D01*
G03X72452Y200855I-393J73D01*
G02X71545Y203496I-359J1353D01*
G03X71779Y203949I-157J368D01*
G02X71957Y204982I1369J296D01*
G03X71831Y205530I-340J210D01*
G02X71538Y205779I751J1182D01*
G03X71008Y205839I-298J-266D01*
G02X68940Y207595I-810J1142D01*
G03X68670Y208160I-360J175D01*
G02X70154Y208911I291J1267D01*
G03X70449Y208359I367J-159D01*
G02X71243Y207913I-251J-1378D01*
G03X71773Y207853I298J266D01*
G02X73773Y205974I810J-1142D01*
G03X73899Y205426I340J-210D01*
G02X73697Y202957I-751J-1182D01*
G03X73462Y202504I157J-368D01*
G02X73461Y201905I-1369J-296D01*
G03X73939Y201428I390J-87D01*
G37*
G36*
G01X55550Y187815D02*
G02X55131Y189830I-988J845D01*
G03X55659Y190001I175J360D01*
G02X56041Y190481I1500J-801D01*
G03X55928Y191153I-263J301D01*
G02X55109Y192832I527J1297D01*
G03X54727Y193341I-385J109D01*
G02X56086Y194360I11J1400D01*
G03X56467Y193851I385J-109D01*
G02X57472Y191487I-11J-1400D01*
G03X57647Y190829I290J-275D01*
G02X56102Y187868I-488J-1629D01*
G03X55550Y187815I-249J-313D01*
G37*
G36*
G01X215208Y131328D02*
G02X214005Y131308I-584J-1049D01*
G03X213994Y132000I-206J343D01*
G02X215196Y132020I584J1049D01*
G03X215208Y131328I206J-343D01*
G37*
G36*
G01X226875Y128636D02*
G02Y129798I-1050J581D01*
G03X227575I350J194D01*
G02Y128636I1050J-581D01*
G03X226875I-350J-194D01*
G37*
G36*
G01X235975Y129798D02*
G02X235975Y128635I1050J-582D01*
G03X235275Y128635I-350J-194D01*
G02X233175Y128636I-1050J582D01*
G03X232475I-350J-194D01*
G02Y129798I-1050J581D01*
G03X233175I350J194D01*
G02X235275Y129799I1050J-581D01*
G03X235975Y129798I350J194D01*
G37*
G36*
G01X207701Y128528D02*
G02X206538I-581J-1050D01*
G03Y129228I-194J350D01*
G02X207701I581J1050D01*
G03Y128528I194J-350D01*
G37*
G36*
G01X177047Y128500D02*
G02X175884I-581J-1050D01*
G03Y129200I-194J350D01*
G02X177047I581J1050D01*
G03Y128500I194J-350D01*
G37*
G36*
G01X235253Y124667D02*
G02Y125968I-1009J651D01*
G03X235925I336J217D01*
G02Y124667I1009J-651D01*
G03X235253I-336J-217D01*
G37*
G36*
G01X230399Y125939D02*
G02X230386Y124717I1026J-623D01*
G03X229697Y124724I-346J-200D01*
G02X229711Y125947I-1026J623D01*
G03X230399Y125939I346J200D01*
G37*
G36*
G01X215205Y125729D02*
G02X214042I-582J-1050D01*
G03Y126428I-194J350D01*
G02X215205I581J1050D01*
G03Y125729I194J-350D01*
G37*
G36*
G01X203958Y125626D02*
G02X202483I-737J-947D01*
G03Y126257I-246J316D01*
G02X203958I737J947D01*
G03Y125626I246J-316D01*
G37*
G36*
G01X252524Y122192D02*
G02Y123954I-956J881D01*
G03X253112I294J271D01*
G02X255215Y123685I956J-881D01*
G03X255921I353J188D01*
G02Y122461I1147J-612D01*
G03X255215I-353J-188D01*
G02X253112Y122192I-1147J612D01*
G03X252524I-294J-271D01*
G37*
G36*
G01X199743Y120173D02*
G02X198433I-655J-1006D01*
G03X198421Y120851I-218J335D01*
G02X199756I668J1116D01*
G03X199743Y120173I205J-343D01*
G37*
G36*
G01X223005Y120129D02*
G02X221842I-581J-1050D01*
G03Y120829I-194J350D01*
G02Y122929I581J1050D01*
G03Y123629I-194J350D01*
G02X223005I581J1050D01*
G03Y122929I194J-350D01*
G02Y120829I-581J-1050D01*
G03Y120129I194J-350D01*
G37*
G36*
G01X237334Y117506D02*
G02X236481Y116652I307J-1160D01*
G03X235992Y117140I-387J102D01*
G02X236845Y117995I-307J1160D01*
G03X237334Y117506I387J-102D01*
G37*
G36*
G01X207701Y117329D02*
G02X206538I-581J-1050D01*
G03Y118029I-194J350D01*
G02X207701I581J1050D01*
G03Y117329I194J-350D01*
G37*
G36*
G01X203864Y114592D02*
G02X202575Y114592I-645J-1012D01*
G03X202575Y115267I-215J338D01*
G02X202638Y117329I645J1012D01*
G03X202638Y118029I-194J350D01*
G02X203801Y118029I581J1050D01*
G03X203801Y117329I194J-350D01*
G02X203864Y115266I-581J-1050D01*
G03X203864Y114592I215J-338D01*
G37*
G36*
G01X226905Y114529D02*
G02X225742I-581J-1050D01*
G03Y115229I-194J350D01*
G02Y117329I581J1050D01*
G03Y118029I-194J350D01*
G02X225742Y120129I581J1050D01*
G03X225742Y120829I-194J350D01*
G02X226905Y120829I582J1050D01*
G03X226905Y120129I194J-350D01*
G02X226905Y118029I-582J-1050D01*
G03Y117329I194J-350D01*
G02Y115229I-581J-1050D01*
G03Y114529I194J-350D01*
G37*
G36*
G01X215205D02*
G02X214042I-581J-1050D01*
G03Y115229I-194J350D01*
G02Y117329I581J1050D01*
G03Y118029I-194J350D01*
G02X213932Y120060I581J1050D01*
G03X213932Y120714I-231J327D01*
G02X215316Y120713I692J980D01*
G03X215315Y120060I231J-327D01*
G02X215205Y118029I-692J-980D01*
G03Y117329I194J-350D01*
G02Y115229I-581J-1050D01*
G03Y114529I194J-350D01*
G37*
G36*
G01X146566Y111975D02*
G02X145344Y113063I-1283J-211D01*
G03X145760Y113507I19J400D01*
G02X146959Y112440I1193J133D01*
G03X146566Y111975I2J-400D01*
G37*
G36*
G01X223005Y111729D02*
G02X221842Y111730I-582J-1050D01*
G03X221842Y112429I-194J350D01*
G02X223005Y112429I582J1050D01*
G03X223005Y111729I194J-350D01*
G37*
G36*
G01X230805Y111073D02*
G02X229642I-581J-1050D01*
G03Y111773I-194J350D01*
G02Y113873I581J1050D01*
G03Y114573I-194J350D01*
G02X230805I581J1050D01*
G03Y113873I194J-350D01*
G02Y111773I-581J-1050D01*
G03Y111073I194J-350D01*
G37*
G36*
G01X257680Y108220D02*
G02X256456I-612J-1147D01*
G03Y108926I-188J353D01*
G02Y111220I612J1147D01*
G03Y111926I-188J353D01*
G02Y114220I612J1147D01*
G03Y114926I-188J353D01*
G02Y117220I612J1147D01*
G03Y117926I-188J353D01*
G02X257680I612J1147D01*
G03Y117220I188J-353D01*
G02Y114926I-612J-1147D01*
G03Y114220I188J-353D01*
G02Y111926I-612J-1147D01*
G03Y111220I188J-353D01*
G02Y108926I-612J-1147D01*
G03Y108220I188J-353D01*
G37*
G36*
G01X204332Y100124D02*
G02X202740Y100075I-765J-1052D01*
G03X202720Y100707I-255J308D01*
G02X204313Y100756I765J1052D01*
G03X204332Y100124I255J-308D01*
G37*
G36*
G01X192715Y98461D02*
G02Y99685I-1147J612D01*
G03X193421I353J188D01*
G02X195715I1147J-612D01*
G03X196421I353J188D01*
G02Y98461I1147J-612D01*
G03X195715I-353J-188D01*
G02X193421I-1147J612D01*
G03X192715I-353J-188D01*
G37*
G36*
G01X184180Y90220D02*
G02X182956I-612J-1147D01*
G03Y90926I-188J353D01*
G02X182421Y91461I612J1147D01*
G03X181715I-353J-188D01*
G02Y92685I-1147J612D01*
G03X182421I353J188D01*
G02X184180Y90926I1147J-612D01*
G03Y90220I188J-353D01*
G37*
G36*
G01X72614Y85230D02*
G02X71260Y84992I-465J-1321D01*
G03X71140Y85679I-254J309D01*
G02X72493Y85917I465J1321D01*
G03X72614Y85230I254J-309D01*
G37*
G36*
G01X287239Y78928D02*
G02X286353Y77776I507J-1305D01*
G03X285811Y78193I-398J44D01*
G02X286696Y79344I-507J1305D01*
G03X287239Y78928I398J-44D01*
G37*
G36*
G01X98631Y69095D02*
G02X97697Y68030I441J-1329D01*
G03X97178Y68484I-393J75D01*
G02X98112Y69550I-441J1329D01*
G03X98631Y69095I393J-75D01*
G37*
G36*
G01X142087Y64929D02*
G02X140122Y64914I-973J-1271D01*
G03X140094Y65561I-248J314D01*
G02X142104Y65577I993J1501D01*
G03X142087Y64929I226J-330D01*
G37*
G36*
G01X141914Y57959D02*
G02X140314I-800J-1386D01*
G03Y58652I-200J347D01*
G02X141914I800J1386D01*
G03Y57959I200J-347D01*
G37*
G36*
G01X211215Y55461D02*
G02Y56685I-1147J612D01*
G03X211921I353J188D01*
G02Y55461I1147J-612D01*
G03X211215I-353J-188D01*
G37*
G36*
G01X114518Y57127D02*
G02X114302Y55526I1025J-954D01*
G03X113654Y55613I-355J-185D01*
G02X113871Y57214I-1025J954D01*
G03X114518Y57127I355J185D01*
G37*
G36*
G01X91250Y53174D02*
G02X89220Y53041I-1068J741D01*
G03X88640Y53054I-296J-269D01*
G02X88732Y54924I-994J986D01*
G03X89310Y54880I310J253D01*
G02X91178Y54751I872J-964D01*
G03X91822Y54794I306J257D01*
G02X91896Y53190I1183J-750D01*
G03X91250Y53174I-317J-244D01*
G37*
G36*
G01X82532Y51456D02*
G02X80622Y51669I-1052J-763D01*
G03X80667Y52223I-264J300D01*
G02X82530Y54274I1083J888D01*
G03X83127Y54463I223J332D01*
G02X83654Y52800I1308J-500D01*
G03X83057Y52611I-223J-332D01*
G02X82610Y52007I-1308J500D01*
G03X82532Y51456I246J-316D01*
G37*
G36*
G01X131290Y50809D02*
G02X130157Y51610I-1269J-593D01*
G03X130559Y52178I39J398D01*
G02X131691Y51377I1269J593D01*
G03X131290Y50809I-39J-398D01*
G37*
G36*
G01X152637Y49759D02*
G02X151303Y50746I-1338J-413D01*
G03X151687Y51264I1J400D01*
G02X153021Y50277I1338J413D01*
G03X152637Y49759I-1J-400D01*
G37*
G36*
G01X88817Y45181D02*
G02X86839Y45011I-904J-1069D01*
G03X86815Y45293I-153J128D01*
G02X86701Y47322I904J1069D01*
G03X86698Y47875I-291J275D01*
G02X88724Y47887I1007J973D01*
G03X88727Y47334I291J-275D01*
G02X88853Y47184I-1007J-973D01*
G03X89475Y47154I324J235D01*
G02X89262Y45611I1046J-930D01*
G03X88912Y45628I-180J-88D01*
G02X88793Y45462I-1193J734D01*
G03X88817Y45181I153J-128D01*
G37*
G36*
G01X82597Y41440D02*
G02X80959Y41057I-564J-1281D01*
G03X80814Y41680I-307J257D01*
G02X82452Y42063I564J1281D01*
G03X82597Y41440I307J-257D01*
G37*
G36*
G01X141896Y40804D02*
G02X140332I-782J-1396D01*
G03Y41502I-195J349D01*
G02X140332Y44294I782J1396D01*
G03Y44992I-195J349D01*
G02X141896I782J1396D01*
G03Y44294I195J-349D01*
G02X141896Y41502I-782J-1396D01*
G03Y40804I195J-349D01*
G37*
G36*
G01X161061Y36307D02*
G02X159519Y35793I-450J-1220D01*
G03X159305Y36392I-336J217D01*
G02X159715Y39125I427J1334D01*
G03X160106Y39584I-5J400D01*
G02X161472Y38477I1286J191D01*
G03X161105Y38000I25J-399D01*
G02X160873Y36914I-1373J-274D01*
G03X161061Y36307I326J-232D01*
G37*
G36*
G01X190652Y35359D02*
G02X188814Y35634I-1053J-762D01*
G01X188893Y35694D01*
Y35993D01*
X188430D01*
X185620Y38803D01*
G02X187473Y40656I926J927D01*
G01X187918Y40211D01*
G03X188563Y40325I283J283D01*
G02X190903Y39192I1178J-551D01*
G03X191261Y38613I358J-179D01*
G01X192506D01*
G03X192875Y39170I0J400D01*
G02X195269I1197J508D01*
G03X195637Y38613I368J-156D01*
G01X198923D01*
X200828Y40518D01*
Y56345D01*
X209406Y64923D01*
X213002D01*
X214070Y65990D01*
G02X215923Y64138I927J-926D01*
G01X214088Y62303D01*
X210492D01*
X203448Y55259D01*
Y39432D01*
X200009Y35993D01*
X190976D01*
G03X190652Y35359I0J-400D01*
G37*
G36*
G01X190480Y16018D02*
G02Y17566I-1167J774D01*
G03X191147I333J221D01*
G02Y16018I1167J-774D01*
G03X190480I-333J-221D01*
G37*
G36*
G01X111722Y190172D02*
G03X112005Y190162I147J136D01*
G02X111939Y188329I888J-950D01*
G03X111655Y188339I-147J-136D01*
G02X111722Y190172I-888J950D01*
G37*
G36*
G01X102262Y188303D02*
G03X101977Y188302I-142J-141D01*
G02X101972Y190127I-929J910D01*
G03X102257Y190128I142J141D01*
G02X102262Y188303I929J-910D01*
G37*
G36*
G01X67988Y176944D02*
G03X68609Y176806I363J167D01*
G02X68189Y174916I1033J-1222D01*
G03X67567Y175054I-363J-167D01*
G02X67988Y176944I-1033J1222D01*
G37*
G36*
G01X113152Y173949D02*
G03X112679Y173663I-88J-390D01*
G02X111635Y175396I-1351J367D01*
G03X112109Y175682I88J390D01*
G02X113152Y173949I1351J-367D01*
G37*
G36*
G01X102973Y164149D02*
G03X102624Y163744I50J-397D01*
G02X101048Y165103I-1400J-30D01*
G03X101397Y165508I-50J397D01*
G02X102973Y164149I1400J30D01*
G37*
G36*
G01X104897Y159908D02*
G03X105508Y159862I325J234D01*
G02X105374Y158066I1002J-978D01*
G03X104763Y158112I-325J-234D01*
G02X104897Y159908I-1002J978D01*
G37*
G36*
G01X85768Y164921D02*
G02X85264Y163237I792J-1155D01*
G03X84667Y163416I-370J-151D01*
G02X85171Y165100I-792J1155D01*
G03X85768Y164921I370J151D01*
G37*
G36*
G01X95960Y164058D02*
G02X95113Y162496I528J-1297D01*
G03X94570Y162790I-393J-76D01*
G02X93106Y163046I-528J1297D01*
G03X92491Y162945I-267J-297D01*
G02X92208Y164676I-1219J690D01*
G03X92823Y164777I267J297D01*
G02X94073Y165487I1219J-690D01*
G03X94417Y166106I9J400D01*
G02X95558Y165473I1172J767D01*
G03X95214Y164854I-9J-400D01*
G02X95417Y164353I-1172J-766D01*
G03X95960Y164058I393J76D01*
G37*
G36*
G01X122204Y148142D02*
G02X119832Y148307I-1270J-1130D01*
G03X119872Y148877I-259J305D01*
G02X120012Y151277I1271J1130D01*
G03X119960Y151914I-266J299D01*
G02X121620Y153883I694J1099D01*
G03X122244Y153920I297J268D01*
G02X122339Y152299I1062J-751D01*
G03X121716Y152262I-297J-268D01*
G02X121661Y152190I-1061J751D01*
G03X121813Y151570I310J-253D01*
G02X122244Y148712I-670J-1562D01*
G03X122204Y148142I259J-305D01*
G37*
G36*
G01X120277Y133822D02*
G02X120230Y135239I-1230J668D01*
G03X120919Y135262I338J214D01*
G02X120966Y133844I1230J-668D01*
G03X120277Y133822I-338J-214D01*
G37*
G36*
G01X86464Y271592D02*
G03X86138Y271187I73J-393D01*
G02X84599Y272427I-1300J-38D01*
G03X84926Y272832I-73J393D01*
G02X86464Y271592I1300J38D01*
G37*
G36*
G01X108598Y272320D02*
G03X108593Y271755I280J-285D01*
G02X106611Y271775I-1001J-979D01*
G03X106617Y272340I-280J285D01*
G02X108598Y272320I1001J979D01*
G37*
G36*
G01X96416Y248896D02*
G03X96688I136J147D01*
G02Y247060I849J-918D01*
G03X96416I-136J-147D01*
G02Y248896I-849J918D01*
G37*
G36*
G01X94400Y236714D02*
G03X94381Y237237I-311J251D01*
G02X96347Y237306I953J885D01*
G03X96365Y236782I311J-251D01*
G02X94400Y236714I-953J-885D01*
G37*
G36*
G01X125240Y234138D02*
G03X124628I-306J-258D01*
G02Y235814I-994J838D01*
G03X125240I306J258D01*
G02Y234138I994J-838D01*
G37*
G36*
G01X94532Y228102D02*
G03X94468Y228708I-290J276D01*
G02X96143Y228885I733J1074D01*
G03X96206Y228278I290J-276D01*
G02X94532Y228102I-733J-1074D01*
G37*
G36*
G01X123643Y223617D02*
G03X123627Y224153I-305J259D01*
G02X125557Y224211I939J899D01*
G03X125573Y223675I305J-259D01*
G02X123643Y223617I-939J-899D01*
G37*
G36*
G01X166222Y221421D02*
G03X166751Y221415I268J297D01*
G02X166728Y219465I849J-985D01*
G03X166199Y219471I-268J-297D01*
G02X166222Y221421I-849J985D01*
G37*
G36*
G01X162061Y217506D02*
G03X162067Y216995I311J-252D01*
G02X159913Y216970I-1067J-907D01*
G03X159907Y217481I-311J252D01*
G02X159606Y218688I1067J907D01*
G03X159306Y219164I-391J86D01*
G02X158728Y219465I294J1266D01*
G03X158199Y219471I-268J-297D01*
G02X158222Y221421I-849J985D01*
G03X158751Y221415I268J297D01*
G02X160884Y220225I849J-985D01*
G03X161211Y219768I395J-63D01*
G02X162061Y217506I-238J-1380D01*
G37*
G36*
G01X95370Y219441D02*
G03X95648Y219434I142J141D01*
G02X97430Y217541I879J-958D01*
G03X97418Y217267I139J-144D01*
G02X97371Y215518I-985J-849D01*
G03X97333Y215010I289J-277D01*
G02X95424Y213274I-1063J-748D01*
G03X94904I-260J-304D01*
G02X93192Y215231I-845J988D01*
G03X93206Y215515I-134J149D01*
G02X93272Y217343I957J880D01*
G03X93339Y217845I-274J292D01*
G02X95370Y219441I1106J683D01*
G37*
G36*
G01X134203Y212668D02*
G02X135984Y214559I931J908D01*
G02X137818Y212726I850J-984D01*
G02X136034Y210851I-984J-850D01*
G02X134203Y212668I-800J1025D01*
G37*
G36*
G01X109899Y211868D02*
G03X109864Y211601I129J-153D01*
G02X107958Y211849I-1066J-744D01*
G03X107992Y212116I-129J153D01*
G02X109899Y211868I1066J744D01*
G37*
G36*
G01X166318Y210746D02*
G03X165916Y211154I-400J8D01*
G02X164912Y213287I-6J1300D01*
G03X164918Y213792I-307J256D01*
G02X166935Y213767I1018J808D01*
G03X166929Y213262I307J-256D01*
G02X167210Y212428I-1018J-808D01*
G03X167612Y212020I400J-8D01*
G02X168588Y209854I6J-1300D01*
G03X168570Y209344I298J-266D01*
G02X166667I-951J-732D01*
G03X166648Y209854I-317J244D01*
G02X166318Y210746I970J866D01*
G37*
G36*
G01X113849Y207078D02*
G03X113852Y206797I144J-139D01*
G02X112001Y206781I-918J-921D01*
G03X111998Y207062I-144J139D01*
G02X113849Y207078I918J921D01*
G37*
G36*
G01X113560Y199631D02*
G03X113042Y199596I-238J-321D01*
G02X112908Y201570I-909J930D01*
G03X113425Y201606I238J321D01*
G02X113560Y199631I909J-930D01*
G37*
G36*
G01X192476Y193922D02*
G03X192444Y193343I259J-305D01*
G02X190793Y193434I-873J-823D01*
G03X190825Y194013I-259J305D01*
G02X192476Y193922I873J823D01*
G37*
G36*
G01X204204Y180849D02*
G03X204229Y180274I290J-275D01*
G02X202563Y180202I-795J-899D01*
G03X202538Y180777I-290J275D01*
G02X204204Y180849I795J899D01*
G37*
G36*
G01X121446Y260301D02*
G02X119453Y261969I-1025J799D01*
G03X119465Y262488I-298J267D01*
G02X121412Y264209I1007J822D01*
G03X122016Y264239I289J276D01*
G02X122109Y264345I1025J-800D01*
G03X121988Y264684I-143J139D01*
G02X123228Y265273I146J1292D01*
G03X123441Y264676I336J-216D01*
G02X124031Y264282I-400J-1237D01*
G03X124617Y264258I304J260D01*
G02X126532Y262503I917J-922D01*
G03X126538Y261983I307J-256D01*
G02X124560Y260294I-978J-856D01*
G03X123962Y260312I-307J-256D01*
G02X122057Y260326I-946J892D01*
G03X121446Y260301I-295J-270D01*
G37*
G36*
G01X110433Y225327D02*
G02X109698Y226447I-1299J-51D01*
G03X110272Y226823I174J360D01*
G02X111006Y225703I1299J51D01*
G03X110433Y225327I-174J-360D01*
G37*
G36*
G01X156873Y213060D02*
G02X155434Y212987I-660J-1235D01*
G03X155399Y213672I-223J332D01*
G02X156838Y213745I660J1235D01*
G03X156873Y213060I223J-332D01*
G37*
G36*
G01X147489Y205839D02*
G02X146406Y206905I-1193J-129D01*
G03X146841Y207346I37J398D01*
G02X147923Y206280I1193J129D01*
G03X147489Y205839I-37J-398D01*
G37*
G36*
G01X169383Y196799D02*
G02X168023Y196851I-718J-962D01*
G03X168049Y197510I-214J338D01*
G02X169408Y197457I718J962D01*
G03X169383Y196799I214J-338D01*
G37*
G36*
G01X173146Y188487D02*
G02X171984I-581J-1050D01*
G03Y189187I-194J350D01*
G02Y191287I581J1050D01*
G03Y191987I-194J350D01*
G02X173146I581J1050D01*
G03Y191287I194J-350D01*
G02Y189187I-581J-1050D01*
G03Y188487I194J-350D01*
G37*
G36*
G01X184649Y185626D02*
G02X183329Y185653I-681J-989D01*
G03X183342Y186320I-213J338D01*
G02X184663Y186294I681J989D01*
G03X184649Y185626I213J-338D01*
G37*
G36*
G01X188719Y183183D02*
G02X187100Y183139I-785J-908D01*
G03X187084Y183729I-278J288D01*
G02X187288Y185687I785J908D01*
G03Y186387I-194J350D01*
G02X188450I581J1050D01*
G03Y185687I194J-350D01*
G02X188703Y183774I-581J-1050D01*
G03X188719Y183183I278J-288D01*
G37*
G36*
G01X200089Y180281D02*
G02X198658Y180191I-655J-1005D01*
G03X198618Y180832I-259J305D01*
G02X198401Y182662I655J1005D01*
G03X198391Y183221I-291J275D01*
G02X200106Y183251I843J855D01*
G03X200116Y182692I291J-275D01*
G02X200049Y180921I-843J-855D01*
G03X200089Y180281I259J-305D01*
G37*
G36*
G01X18959Y305093D02*
G03X18972Y305702I-253J310D01*
G02X20822Y305830I862J973D01*
G03X20918Y305228I304J-260D01*
G02X18959Y305093I-884J-1453D01*
G37*
G36*
G01X16724Y295463D02*
G03Y294863I265J-300D01*
G02X14475I-1125J-1275D01*
G03Y295463I-265J300D01*
G02Y298013I1125J1275D01*
G03Y298612I-265J300D01*
G02X16724I1125J1275D01*
G03Y298013I265J-300D01*
G02Y295463I-1125J-1275D01*
G37*
G36*
G01X115637Y392976D02*
G02X115264Y391581I972J-1008D01*
G03X114602Y391758I-384J-111D01*
G02X114975Y393153I-972J1008D01*
G03X115637Y392976I384J111D01*
G37*
G36*
G01X184910Y372826D02*
G02X184184Y371225I630J-1251D01*
G03X183590Y371467I-387J-100D01*
G02X181478Y371879I-829J1369D01*
G03X180789Y371796I-321J-239D01*
G02X180600Y373381I-1472J628D01*
G03X181289Y373464I321J239D01*
G02X184336Y373114I1472J-628D01*
G03X184910Y372826I394J70D01*
G37*
G36*
G01X33880Y344156D02*
G02X33793Y342557I1454J-881D01*
G03X33088Y342595I-363J-169D01*
G02X33175Y344194I-1454J881D01*
G03X33880Y344156I363J169D01*
G37*
G36*
G01X8229Y298875D02*
G02X8118Y300451I-1209J707D01*
G03X8777Y300498I314J248D01*
G02X8888Y298921I1209J-707D01*
G03X8229Y298875I-314J-248D01*
G37*
G36*
G01X10362Y277361D02*
G02X7664Y277165I-1375J263D01*
G03X7070Y277370I-378J-131D01*
G02X5455Y279654I-756J1179D01*
G03X5409Y280317I-246J316D01*
G02X6081Y282930I700J1213D01*
G03X6470Y283386I-8J400D01*
G02X9055Y284307I1386J199D01*
G03X9603Y284170I343J206D01*
G02X11709Y283163I719J-1201D01*
G03X12143Y282821I396J56D01*
G02X12629Y280072I132J-1394D01*
G03X12355Y279547I101J-387D01*
G02X10818Y277680I-1314J-484D01*
G03X10362Y277361I-64J-395D01*
G37*
G36*
G01X101113Y339733D02*
G03X101654I271J295D01*
G02Y337818I879J-958D01*
G03X101113I-271J-295D01*
G02Y339733I-879J958D01*
G37*
G36*
G01X107215Y331603D02*
G03X107171Y331066I273J-293D01*
G02X105255Y331223I-1030J-794D01*
G03X105299Y331760I-273J293D01*
G02X107215Y331603I1030J794D01*
G37*
G36*
G01X122726Y327457D02*
G03X123296Y327260I371J149D01*
G02X122846Y325436I648J-1127D01*
G03X122249Y325526I-338J-214D01*
G02X122726Y327457I-1101J1296D01*
G37*
G36*
G01X101198Y327004D02*
G03X101324Y327522I-227J329D01*
G02X103209Y327065I1147J613D01*
G03X103084Y326547I227J-329D01*
G02X101198Y327004I-1147J-613D01*
G37*
G36*
G01X99927Y297528D02*
G03X100036Y296996I342J-207D01*
G02X98165Y296614I-759J-1056D01*
G03X98056Y297145I-342J207D01*
G02X97860Y297319I759J1056D01*
G03X97334Y297373I-294J-271D01*
G02X97253Y297320I-753J1060D01*
G03X97126Y296758I207J-342D01*
G02X94774Y295748I-1086J-715D01*
G03X94357Y296056I-390J-91D01*
G02X94059Y296070I-90J1297D01*
G03X93605Y295768I-64J-395D01*
G02X92549Y297352I-1265J301D01*
G03X93002Y297654I64J395D01*
G02X94788Y298545I1265J-301D01*
G03X95332Y298798I160J366D01*
G02X97535Y299315I1248J-366D01*
G03X98060Y299260I294J271D01*
G02X99927Y297528I754J-1059D01*
G37*
G36*
G01X118251Y323195D02*
G02X116491Y322959I-754J-1059D01*
G03X116413Y323539I-310J253D01*
G02X116038Y323953I754J1059D01*
G03X115375Y323999I-347J-199D01*
G02X115476Y325442I-1027J797D01*
G03X116140Y325395I347J199D01*
G02X118173Y323774I1027J-797D01*
G03X118251Y323195I310J-253D01*
G37*
G36*
G01X44146Y320627D02*
G02X41555Y320481I-1290J-158D01*
G03X41197Y320883I-400J4D01*
G02X41033Y323440I137J1293D01*
G03X41338Y323864I-93J389D01*
G02X41334Y324011I1295J111D01*
G03X41084Y324210I-200J5D01*
G02X40823Y326766I-329J1258D01*
G03X41242Y327121I21J399D01*
G02X41244Y327137I1292J-148D01*
G03X40870Y327586I-397J50D01*
G02X42237Y328723I76J1298D01*
G03X42610Y328274I397J-50D01*
G02X42626Y328272I-81J-1298D01*
G03X42835Y328519I14J200D01*
G02X44197Y327526I1264J303D01*
G03X43829Y327091I30J-399D01*
G02X43834Y326955I-1295J-115D01*
G03X44304Y326555I400J-6D01*
G02X45213Y324167I229J-1280D01*
G03Y323484I209J-341D01*
G02X44541Y321075I-679J-1109D01*
G03X44146Y320627I2J-400D01*
G37*
G36*
G01X35599Y316993D02*
G02X33947Y316722I-665J-1117D01*
G03X33848Y317326I-304J260D01*
G02X35500Y317597I665J1117D01*
G03X35599Y316993I304J-260D01*
G37*
G36*
G01X109080Y315313D02*
G02X108646Y314149I854J-981D01*
G03X107987Y314395I-396J-56D01*
G02X108421Y315558I-854J981D01*
G03X109080Y315313I396J56D01*
G37*
G36*
G01X54781Y305858D02*
G02X53554Y305980I-727J-1078D01*
G03X53623Y306681I-154J369D01*
G02X54851Y306559I727J1078D01*
G03X54781Y305858I154J-369D01*
G37*
G36*
G01X41640Y295541D02*
G02X39672Y297214I-1081J723D01*
G03X39714Y297752I-273J292D01*
G02X39741Y299383I1026J799D01*
G03X39729Y299909I-307J256D01*
G02X40962Y302057I960J877D01*
G03X41204Y302259I42J195D01*
G02X41206Y302384I1299J43D01*
G03X40994Y302597I-200J13D01*
G02X41009Y305192I-75J1298D01*
G03X41430Y305518I28J399D01*
G02X41446Y305593I1278J-237D01*
G03X41196Y305833I-194J48D01*
G02X42131Y306998I-363J1248D01*
G03X42572Y306575I399J-26D01*
G02X42727Y306582I137J-1293D01*
G03X43132Y306963I6J400D01*
G02X43865Y308072I1299J-61D01*
G03X43936Y308749I-174J360D01*
G02X45299Y308605I797J1027D01*
G03X45228Y307929I174J-360D01*
G02X44413Y305602I-797J-1027D01*
G03X44008Y305220I-6J-400D01*
G02X44003Y305157I-1299J60D01*
G03X44239Y304941I199J-19D01*
G02X45109Y302525I242J-1277D01*
G03X45099Y301829I193J-350D01*
G02X45367Y299798I-659J-1121D01*
G03X45337Y299272I285J-280D01*
G02X44808Y297272I-1026J-799D01*
G03X44591Y296752I153J-370D01*
G02X42305Y295541I-1205J-489D01*
G03X41640I-332J-222D01*
G37*
G36*
G01X102481Y286704D02*
G02X102315Y287994I-1200J501D01*
G03X103002Y288082I318J243D01*
G02X103578Y288722I1200J-501D01*
G03X103622Y289395I-192J351D01*
G02X105453Y291193I768J1049D01*
G03X106075Y291154I327J230D01*
G02X105971Y289527I959J-878D01*
G03X105349Y289566I-327J-230D01*
G02X105014Y289304I-959J878D01*
G03X104970Y288630I192J-351D01*
G02X103168Y286792I-768J-1049D01*
G03X102481Y286704I-318J-243D01*
G37*
G36*
G01X186972Y156026D02*
G03X187027Y155470I312J-250D01*
G02X185319Y155299I-770J-920D01*
G03X185263Y155855I-312J250D01*
G02X186972Y156026I770J920D01*
G37*
G36*
G01X177462Y173591D02*
G02X176211Y173308I-402J-1131D01*
G03X176062Y173968I-283J283D01*
G02X177313Y174250I402J1131D01*
G03X177462Y173591I283J-283D01*
G37*
G36*
G01X169380Y166811D02*
G02Y168286I-1071J738D01*
G03X170038I329J227D01*
G02X172180I1071J-738D01*
G03X172838I329J227D01*
G02Y166811I1071J-738D01*
G03X172180I-329J-227D01*
G02X170038I-1071J738D01*
G03X169380I-329J-227D01*
G37*
G36*
G01X166654Y162793D02*
G02X166479Y164209I-1166J574D01*
G03X167143Y164291I305J259D01*
G02X169380Y164454I1166J-574D01*
G03X170038I329J227D01*
G02X172180I1071J-738D01*
G03X172838I329J227D01*
G02X174972Y164465I1071J-738D01*
G03X175612Y164445I327J230D01*
G02X175600Y162960I937J-750D01*
G03X174960Y162951I-316J-245D01*
G02X172838Y162979I-1051J766D01*
G03X172180I-329J-227D01*
G02X170038I-1071J738D01*
G03X169380I-329J-227D01*
G02X167318Y162875I-1071J738D01*
G03X166654Y162793I-305J-259D01*
G37*
G36*
G01X183815Y161826D02*
G02X182653I-581J-1050D01*
G03Y162526I-194J350D01*
G02X183815I581J1050D01*
G03Y161826I194J-350D01*
G37*
G36*
G01X180653Y161704D02*
G02X179265Y161597I-619J-1028D01*
G03X179215Y162247I-256J307D01*
G02X180603Y162354I619J1028D01*
G03X180653Y161704I256J-307D01*
G37*
G36*
G01X171783Y159164D02*
G02Y160639I-1071J738D01*
G03X172442I329J227D01*
G02X174583I1071J-738D01*
G03X175242I329J227D01*
G02Y159164I1071J-738D01*
G03X174583I-329J-227D01*
G02X172442I-1071J738D01*
G03X171783I-329J-227D01*
G37*
G36*
G01X208733Y158772D02*
G02X207360Y158930I-799J-896D01*
G03X207435Y159580I-191J351D01*
G02X208808Y159421I799J896D01*
G03X208733Y158772I191J-351D01*
G37*
G36*
G01X205440Y152571D02*
G02X204086Y152541I-655J-1006D01*
G03X204071Y153201I-233J325D01*
G02X205425Y153231I655J1006D01*
G03X205440Y152571I233J-325D01*
G37*
G36*
G01X202399Y152538D02*
G02X201016Y152554I-703J-973D01*
G03X201024Y153208I-227J330D01*
G02X202407Y153192I703J973D01*
G03X202399Y152538I227J-330D01*
G37*
G36*
G01X202201Y146823D02*
G02X201009Y146963I-717J-963D01*
G03X201090Y147651I-158J367D01*
G02X202282Y147511I717J963D01*
G03X202201Y146823I158J-367D01*
G37*
G36*
G01X193143Y146662D02*
G02X191825Y146863I-809J-887D01*
G03X191925Y147520I-170J362D01*
G02X193525Y149309I809J887D01*
G03X194153Y149443I264J301D01*
G02X194433Y147962I1181J-543D01*
G03X193801Y147857I-277J-289D01*
G02X193243Y147320I-1067J550D01*
G03X193143Y146662I170J-362D01*
G37*
G36*
G01X209125Y358550D02*
G03X209650Y358512I284J282D01*
G02X209510Y356558I782J-1038D01*
G03X208985Y356595I-284J-282D01*
G02X209125Y358550I-782J1038D01*
G37*
G36*
G01X224750Y356171D02*
G03X224317Y355777I-33J-399D01*
G02X221650Y355196I-1400J15D01*
G03X221001Y355306I-362J-170D01*
G02X219903Y357680I-1003J977D01*
G03X220275Y358082I-27J399D01*
G02X222930Y357470I1400J10D01*
G03X223085Y357182I179J-89D01*
G02X223235Y357156I-167J-1390D01*
G03X223479Y357377I45J195D01*
G02X225733Y358666I1387J189D01*
G03X226258Y358692I248J314D01*
G02X228423Y358409I969J-1010D01*
G03X228689Y358337I171J104D01*
G02X228158Y356377I665J-1232D01*
G03X227892Y356449I-171J-104D01*
G02X226360Y356582I-665J1232D01*
G03X225836Y356556I-248J-314D01*
G02X224750Y356171I-969J1010D01*
G37*
G36*
G01X300772Y357203D02*
G03X301164Y356724I392J-79D01*
G02X299790Y355600I-1J-1400D01*
G03X299398Y356079I-392J79D01*
G02X300772Y357203I1J1400D01*
G37*
G36*
G01X243700Y353691D02*
G03X243188Y353557I-180J-357D01*
G02X241019Y353575I-1079J726D01*
G03X240457Y353686I-335J-218D01*
G02X240809Y355465I-738J1070D01*
G03X241371Y355354I335J218D01*
G02X242696Y355444I738J-1071D01*
G03X243208Y355577I180J357D01*
G02X243700Y353691I1079J-726D01*
G37*
G36*
G01X274605Y344876D02*
G03X274117Y344661I-124J-380D01*
G02X271804Y346180I-1275J579D01*
G03Y346717I-296J269D01*
G02X274242Y347687I1037J941D01*
G03X274516Y347505I200J4D01*
G02X274656Y347553I524J-1298D01*
G03X274940Y348012I-110J385D01*
G02X277328Y349241I1376J261D01*
G03X277875Y349211I289J276D01*
G02X279379Y346877I903J-1070D01*
G03X279179Y346369I172J-361D01*
G02X276668Y345146I-1302J-514D01*
G03X276038Y345225I-345J-202D01*
G02X274605Y344876I-998J982D01*
G37*
G36*
G01X150729Y326264D02*
G03X150513Y325723I147J-372D01*
G02X148856Y326385I-1179J-548D01*
G03X149071Y326925I-147J372D01*
G02X150729Y326264I1179J548D01*
G37*
G36*
G01X237286Y321724D02*
G03X236836Y321489I-82J-392D01*
G02X235833Y323406I-1289J547D01*
G03X236283Y323642I82J392D01*
G02X237286Y321724I1289J-547D01*
G37*
G36*
G01X212883Y319451D02*
G03X213398Y319706I134J377D01*
G02X213929Y320427I1334J-427D01*
G03X214013Y321004I-229J328D01*
G02X214102Y322851I1095J873D01*
G03X214140Y323363I-287J278D01*
G02X216282Y323207I1136J818D01*
G03X216244Y322695I287J-278D01*
G02X215910Y320729I-1136J-818D01*
G03X215826Y320152I229J-328D01*
G02X214262Y317959I-1095J-873D01*
G03X213748Y317704I-134J-377D01*
G02X212883Y319451I-1334J427D01*
G37*
G36*
G01X179070Y317911D02*
G03X179599Y317888I277J288D01*
G02X179516Y315940I818J-1010D01*
G03X178987Y315963I-277J-288D01*
G02X179070Y317911I-818J1010D01*
G37*
G36*
G01X196898Y312118D02*
G03X197420Y312086I279J287D01*
G02X197294Y309972I851J-1112D01*
G03X196772Y310003I-279J-287D01*
G02X196898Y312118I-851J1112D01*
G37*
G36*
G01X190863Y309210D02*
G03X190346Y309180I-241J-319D01*
G02X190160Y311210I-897J941D01*
G03X190673Y311274I219J335D01*
G02X190863Y309210I1032J-947D01*
G37*
G36*
G01X269304Y295542D02*
G03X268716I-294J-271D01*
G02X266879Y297379I-956J881D01*
G03Y297967I-271J294D01*
G02Y299879I881J956D01*
G03Y300467I-271J294D01*
G02Y302379I881J956D01*
G03Y302967I-271J294D01*
G02Y304879I881J956D01*
G03Y305467I-271J294D01*
G02X268716Y307304I881J956D01*
G03X269304I294J271D01*
G02X271216I956J-881D01*
G03X271804I294J271D01*
G02X273716I956J-881D01*
G03X274304I294J271D01*
G02X276216I956J-881D01*
G03X276805I294J271D01*
G02X278716I956J-881D01*
G03X279304I294J271D01*
G02X281142Y305467I956J-881D01*
G03Y304879I271J-294D01*
G02Y302967I-881J-956D01*
G03Y302379I271J-294D01*
G02Y300467I-881J-956D01*
G03Y299879I271J-294D01*
G02Y297967I-881J-956D01*
G03Y297379I271J-294D01*
G02X279304Y295542I-881J-956D01*
G03X278716I-294J-271D01*
G02X276805I-956J881D01*
G03X276216I-294J-271D01*
G02X274304I-956J881D01*
G03X273716I-294J-271D01*
G02X271804I-956J881D01*
G03X271216I-294J-271D01*
G02X269304I-956J881D01*
G37*
G36*
G01X263186Y294518D02*
G03X262911I-137J-145D01*
G02Y296552I-963J1017D01*
G03X263186I137J145D01*
G02Y294518I962J-1017D01*
G37*
G36*
G01X233528Y292461D02*
G03Y291921I295J-270D01*
G02X231463I-1033J-945D01*
G03Y292461I-295J270D01*
G02X233528I1033J945D01*
G37*
G36*
G01X251767Y290218D02*
G03X251984Y290389I19J199D01*
G02X252327Y291100I1287J-182D01*
G03X252319Y291658I-291J275D01*
G02X252122Y293244I919J919D01*
G03X252023Y293765I-343J205D01*
G02X251906Y295878I857J1107D01*
G03X251942Y296413I-278J287D01*
G02X251664Y297031I1100J866D01*
G03X251267Y297360I-394J-71D01*
G02X251484Y299941I-9J1300D01*
G03X251934Y300211I70J394D01*
G02X254179Y298716I1331J-433D01*
G03X254129Y298161I261J-303D01*
G02X254016Y296273I-1087J-882D01*
G03X253980Y295738I278J-287D01*
G02X254034Y294079I-1100J-866D01*
G03X254099Y293552I330J-227D01*
G02X254183Y291684I-860J-975D01*
G03X254191Y291126I291J-275D01*
G02X253147Y288913I-919J-919D01*
G03X252930Y288742I-19J-199D01*
G02X251767Y290218I-1287J182D01*
G37*
G36*
G01X188457Y286794D02*
G03X188160Y286358I100J-387D01*
G02X186544Y287458I-1290J-159D01*
G03X186840Y287894I-100J387D01*
G02X186835Y288160I1290J159D01*
G03X186456Y288592I-399J33D01*
G02X187816Y289784I64J1299D01*
G03X188195Y289351I399J-33D01*
G02X188457Y286794I-64J-1299D01*
G37*
G36*
G01X237898Y277162D02*
G03X237283Y277143I-300J-265D01*
G02X237228Y278930I-1105J860D01*
G03X237843Y278949I300J265D01*
G02X237898Y277162I1105J-860D01*
G37*
G36*
G01X136534Y273275D02*
G03X135988Y273482I-370J-152D01*
G02X134512Y275586I-574J1167D01*
G03X134539Y276134I-277J288D01*
G02X136429Y276041I989J844D01*
G03X136402Y275493I277J-288D01*
G02X136617Y275141I-989J-844D01*
G03X137164Y274934I370J152D01*
G02X136534Y273275I574J-1167D01*
G37*
G36*
G01X225397Y250145D02*
G03X225983Y250133I298J266D01*
G02X225946Y248228I1007J-973D01*
G03X225359Y248239I-298J-266D01*
G02X225397Y250145I-1007J973D01*
G37*
G36*
G01X236238Y248658D02*
G03X236261Y248088I291J-274D01*
G02X234302Y248009I-939J-1038D01*
G03X234279Y248580I-291J274D01*
G02X236238Y248658I939J1038D01*
G37*
G36*
G01X238772Y240635D02*
G03X238261I-255J-308D01*
G02Y242790I-895J1077D01*
G03X238772I255J308D01*
G02Y240635I895J-1077D01*
G37*
G36*
G01X222553Y241751D02*
G03X223072Y241719I278J287D01*
G02X222940Y239594I842J-1119D01*
G03X222422Y239626I-278J-287D01*
G02X222553Y241751I-842J1119D01*
G37*
G36*
G01X209246Y239727D02*
G03Y239452I145J-138D01*
G02X207212I-1017J-962D01*
G03Y239727I-145J137D01*
G02X209246I1017J962D01*
G37*
G36*
G01X135255Y236105D02*
G03X135058Y236320I-199J15D01*
G02X136475Y237688I17J1400D01*
G03X136799Y237286I400J-9D01*
G02X137039Y237215I-247J-1276D01*
G03X137551Y237416I150J371D01*
G02X138241Y235659I1177J-552D01*
G03X137729Y235458I-150J-371D01*
G02X136396Y234719I-1177J552D01*
G03X135951Y234377I-48J-397D01*
G02X135000Y235813I-1288J180D01*
G03X135252Y236006I52J193D01*
G02X135255Y236105I1300J3D01*
G37*
G36*
G01X198814Y235589D02*
G03Y235033I288J-278D01*
G02X196944I-935J-903D01*
G03Y235589I-288J278D01*
G02X198814I935J903D01*
G37*
G36*
G01X192085Y235588D02*
G03Y235032I288J-278D01*
G02X190214I-935J-903D01*
G03Y235588I-288J278D01*
G02X192085I935J903D01*
G37*
G36*
G01X139568Y228774D02*
G03X139096Y228554I-108J-385D01*
G02X138264Y230344I-1184J538D01*
G03X138736Y230564I108J385D01*
G02X139568Y228774I1184J-538D01*
G37*
G36*
G01X174325Y229793D02*
G03X174854Y229787I268J297D01*
G02X174831Y227837I849J-985D01*
G03X174302Y227843I-268J-297D01*
G02X174325Y229793I-849J985D01*
G37*
G36*
G01X158325D02*
G03X158854Y229787I268J297D01*
G02X158831Y227837I849J-985D01*
G03X158302Y227843I-268J-297D01*
G02X158325Y229793I-849J985D01*
G37*
G36*
G01X210709Y228293D02*
G03X211240Y228281I272J293D01*
G02X211195Y226187I907J-1067D01*
G03X210664Y226199I-272J-293D01*
G02X210709Y228293I-907J1067D01*
G37*
G36*
G01X239486Y223502D02*
G03X239474Y224039I-302J262D01*
G02X241550Y224082I1018J961D01*
G03X241562Y223546I302J-262D01*
G02X239486Y223502I-1018J-961D01*
G37*
G36*
G01X234387Y210652D02*
G03X234408Y210368I150J-132D01*
G02X232537Y210170I-841J-992D01*
G03X232498Y210452I-158J122D01*
G02X234387Y210652I836J1123D01*
G37*
G36*
G01X192504Y346257D02*
G02X192503Y347897I-1010J819D01*
G03X193124Y347897I310J253D01*
G02X193125Y346257I1010J-819D01*
G03X192504Y346257I-310J-253D01*
G37*
G36*
G01X244216Y347712D02*
G02X244079Y346013I910J-929D01*
G03X243477Y346061I-322J-237D01*
G02X241631Y347893I-910J929D01*
G03X241663Y348412I-288J278D01*
G02X242678Y350494I1038J783D01*
G03X243045Y351034I-7J400D01*
G02X244286Y350190I1218J455D01*
G03X243919Y349650I7J-400D01*
G02X243636Y348292I-1218J-456D01*
G03X243605Y347773I288J-278D01*
G02X243614Y347760I-1043J-777D01*
G03X244216Y347712I322J237D01*
G37*
G36*
G01X224855Y344984D02*
G02X222737Y343884I-821J-1008D01*
G03X222224Y344240I-399J-28D01*
G02X222258Y346723I-369J1247D01*
G03X222763Y346982I124J380D01*
G02X224847Y345598I1238J-396D01*
G03X224855Y344984I260J-304D01*
G37*
G36*
G01X233953Y342939D02*
G02X232687Y344958I-1074J733D01*
G03X232979Y345544I-59J396D01*
G02X232828Y346266I1144J618D01*
G03X232330Y346685I-399J32D01*
G02X233304Y347840I-322J1260D01*
G03X233802Y347421I399J-32D01*
G02X234351Y347441I322J-1260D01*
G03X234819Y347802I70J394D01*
G02X235167Y348586I1296J-106D01*
G03X235138Y349162I-292J274D01*
G02X234942Y349374I853J982D01*
G03X234386Y349462I-322J-237D01*
G02X232560Y351262I-760J1055D01*
G03X232463Y351818I-328J229D01*
G02X234210Y353714I748J1063D01*
G03X234776Y353666I307J256D01*
G02X236607Y351832I841J-991D01*
G03X236695Y351236I305J-259D01*
G02X236938Y349254I-705J-1093D01*
G03X236968Y348678I292J-274D01*
G02X235888Y346416I-853J-982D01*
G03X235419Y346055I-70J-394D01*
G02X235386Y345851I-1296J106D01*
G03X235630Y345382I388J-95D01*
G02X234490Y343056I-470J-1212D01*
G03X233953Y342939I-206J-343D01*
G37*
G36*
G01X242976Y340766D02*
G02X241631Y341039I-893J-945D01*
G03X241766Y341705I-139J375D01*
G02X243112Y341431I893J945D01*
G03X242976Y340766I139J-375D01*
G37*
G36*
G01X209694Y337105D02*
G02X207809Y335321I-881J-956D01*
G03X207298Y335411I-308J-255D01*
G02X206994Y338481I-864J1464D01*
G03X207522Y338809I132J378D01*
G02X207526Y338836I1291J-158D01*
G03X206997Y339272I-396J58D01*
G02X208072Y340419I-564J1604D01*
G03X208541Y339920I385J-107D01*
G02X208880Y339947I272J-1272D01*
G03X209289Y340447I21J399D01*
G02X212409Y340029I1645J428D01*
G03X212498Y339524I347J-199D01*
G02X210542Y337867I-837J-995D01*
G03X209872Y337895I-344J-204D01*
G02X209694Y337693I-1060J753D01*
G03Y337105I271J-294D01*
G37*
G36*
G01X227184Y336980D02*
G02X224924Y335442I-960J-1019D01*
G03X224280Y335587I-372J-148D01*
G02X222414Y337674I-951J1028D01*
G03X222436Y338259I-262J303D01*
G02X224779Y339614I992J988D01*
G03X225382Y339383I386J105D01*
G02X227174Y337260I760J-1176D01*
G03X227184Y336980I147J-135D01*
G37*
G36*
G01X185013Y336411D02*
G02X184930Y334464I818J-1010D01*
G03X184402Y334486I-277J-288D01*
G02X182611Y336359I-818J1010D01*
G03X182508Y336973I-299J265D01*
G02X184198Y337217I687J1220D01*
G03X184273Y336599I287J-279D01*
G02X184484Y336434I-689J-1102D01*
G03X185013Y336411I277J288D01*
G37*
G36*
G01X142326Y322545D02*
G02X140613Y322868I-1035J-787D01*
G03X140723Y323451I-208J341D01*
G02X140463Y324356I1035J787D01*
G03X140138Y324784I-398J36D01*
G02X139908Y324850I241J1278D01*
G03X139639Y324624I-72J-186D01*
G02X139113Y323302I-1274J-259D01*
G03X139028Y322729I230J-327D01*
G02X136727Y321685I-1024J-801D01*
G03X136303Y322009I-393J-75D01*
G02X135648Y324482I-101J1296D01*
G03X135726Y325157I-170J362D01*
G02X137831Y326088I808J1019D01*
G03X138262Y325662I399J-27D01*
G02X138605Y325644I103J-1296D01*
G03X139079Y326043I74J393D01*
G02X141674Y325945I1300J20D01*
G03X141998Y325516I398J-36D01*
G02X142013Y325513I-238J-1278D01*
G03X142482Y325818I79J392D01*
G02X144495Y326598I1268J-285D01*
G03X145034Y326673I229J328D01*
G02X145296Y324784I1007J-823D01*
G03X144757Y324709I-229J-328D01*
G02X143495Y324258I-1007J823D01*
G03X143026Y323953I-79J-392D01*
G02X142435Y323129I-1269J285D01*
G03X142326Y322545I208J-341D01*
G37*
G36*
G01X190233Y318497D02*
G02X188367Y319192I-1277J-575D01*
G03X188563Y319719I-168J363D01*
G02X191019Y321048I1277J575D01*
G03X191638Y320980I337J216D01*
G02X191445Y319231I986J-994D01*
G03X190826Y319299I-337J-216D01*
G02X190430Y319024I-986J994D01*
G03X190233Y318497I168J-363D01*
G37*
G36*
G01X222640Y309008D02*
G02X220297Y310537I-1133J823D01*
G03X220026Y311131I-346J201D01*
G02X219081Y311791I258J1376D01*
G03X218412Y311819I-344J-205D01*
G02X218476Y313350I-1139J815D01*
G03X219145Y313322I344J205D01*
G02X221231Y313538I1139J-815D01*
G03X221816Y313584I271J294D01*
G02X224046Y311892I1098J-869D01*
G03X224211Y311290I324J-235D01*
G02X222920Y309052I-516J-1193D01*
G03X222640Y309008I-119J-161D01*
G37*
G36*
G01X194024Y306151D02*
G02X193845Y304754I1111J-852D01*
G03X193167Y304853I-369J-155D01*
G02X193344Y306226I-1004J827D01*
G03X194024Y306151I363J168D01*
G37*
G36*
G01X226850Y297734D02*
G02X224931Y298374I-1218J-455D01*
G03X225080Y298876I-216J337D01*
G02X226938Y300725I1276J576D01*
G03X227498Y301019I166J364D01*
G02X229968Y301652I1379J-244D01*
G03X230602Y301666I312J250D01*
G02X230639Y299960I1128J-829D01*
G03X230005Y299946I-312J-250D01*
G02X228295Y299502I-1128J829D01*
G03X227735Y299207I-166J-364D01*
G02X227032Y298225I-1379J244D01*
G03X226850Y297734I193J-350D01*
G37*
G36*
G01X141031Y282778D02*
G02X140978Y284250I-1097J698D01*
G03X141637Y284274I321J238D01*
G02X141690Y282801I1097J-698D01*
G03X141031Y282778I-321J-238D01*
G37*
G36*
G01X171090Y282468D02*
G02X169338Y282643I-971J-864D01*
G03X169396Y283228I-240J320D01*
G02X169488Y285050I972J864D01*
G03X169371Y285713I-271J294D01*
G02X168921Y287802I499J1200D01*
G03X168824Y288425I-292J273D01*
G02X170406Y288672I633J1136D01*
G03X170503Y288049I292J-273D01*
G02X170750Y285957I-633J-1136D01*
G03X170867Y285293I271J-294D01*
G02X171149Y283053I-500J-1200D01*
G03X171090Y282468I240J-320D01*
G37*
G36*
G01X220791Y276845D02*
G02X220732Y278808I-1027J951D01*
G03X221302Y278825I276J289D01*
G02X223469Y278687I1027J-951D01*
G03X224132Y278704I326J232D01*
G02X224172Y277138I1180J-753D01*
G03X223509Y277121I-326J-232D01*
G02X221361Y276862I-1181J753D01*
G03X220791Y276845I-276J-289D01*
G37*
G36*
G01X170870Y275948D02*
G02X169344Y275400I-419J-1231D01*
G03X169133Y275988I-340J210D01*
G02X170658Y276537I419J1231D01*
G03X170870Y275948I340J-210D01*
G37*
G36*
G01X153883Y268808D02*
G02X153590Y267342I1351J-1032D01*
G03X152916Y267519I-387J-102D01*
G02X151100Y267472I-932J906D01*
G03X150487Y267387I-272J-293D01*
G02X150260Y269017I-1110J677D01*
G03X150874Y269102I272J293D01*
G02X153193Y268904I1110J-677D01*
G03X153883Y268808I372J147D01*
G37*
G36*
G01X151093Y250778D02*
G02X149834Y251146I-944J-894D01*
G03X150019Y251818I-97J388D01*
G02X151299Y251444I985J995D01*
G03X151093Y250778I84J-391D01*
G37*
G36*
G01X144854Y241128D02*
G02X142905Y239419I-909J-929D01*
G03X142315Y239473I-320J-240D01*
G02X140681Y241490I-878J959D01*
G03X140754Y242074I-232J326D01*
G02X142747Y243745I992J840D01*
G03X143368Y243751I308J255D01*
G02X145620Y243345I1017J-810D01*
G03X146286Y243190I380J124D01*
G02X145982Y241878I931J-908D01*
G03X145315Y242032I-380J-124D01*
G02X144958Y241773I-931J908D01*
G03X144854Y241128I176J-359D01*
G37*
G36*
G01X215102Y215743D02*
G02X213087Y215647I-968J-868D01*
G03X213045Y216170I-322J237D01*
G02X212981Y216238I979J1001D01*
G03X212296Y216076I-298J-267D01*
G02X209914Y215497I-1351J367D01*
G03X209311Y215481I-295J-271D01*
G02X209265Y217323I-1078J894D01*
G03X209868Y217338I295J271D01*
G02X211989Y217377I1077J-894D01*
G03X212673Y217539I298J267D01*
G02X215094Y216268I1351J-367D01*
G03X215102Y215743I306J-258D01*
G37*
G36*
G01X230634Y199951D02*
G02X229234I-700J-975D01*
G03Y200601I-233J325D01*
G02X230634I700J975D01*
G03Y199951I233J-325D01*
G37*
G36*
G01X219059Y196887D02*
G02X217895Y196887I-582J-1050D01*
G03X217895Y197586I-194J350D01*
G02X219059Y197587I582J1050D01*
G03X219059Y196887I194J-350D01*
G37*
G36*
G01X227032Y193970D02*
G02X225447Y193904I-755J-933D01*
G03X225422Y194504I-277J289D01*
G02X225488Y196420I755J933D01*
G03X225526Y197044I-230J327D01*
G02X225711Y198963I804J891D01*
G03X225715Y199646I-206J343D01*
G02X226966Y199639I631J1021D01*
G03X226962Y198956I206J-343D01*
G02X227019Y196952I-631J-1021D01*
G03X226981Y196328I230J-327D01*
G02X227007Y194570I-804J-891D01*
G03X227032Y193970I277J-289D01*
G37*
G36*
G01X222923Y188458D02*
G02X221617Y188505I-689J-983D01*
G03X221628Y189184I-206J343D01*
G02X221596Y191346I706J1092D01*
G03Y192005I-227J329D01*
G02X221500Y194073I738J1071D01*
G03X221539Y194649I-257J307D01*
G02X223250Y194581I889J807D01*
G03X223244Y194004I274J-291D01*
G02X223072Y192005I-910J-928D01*
G03Y191346I227J-329D01*
G02X222960Y189136I-738J-1071D01*
G03X222923Y188458I193J-351D01*
G37*
G36*
G01X250870Y182436D02*
G02X249831Y184223I-1336J419D01*
G03X250298Y184495I85J391D01*
G02X250682Y185102I1336J-419D01*
G03X250698Y185673I-272J293D01*
G02X252871Y186975I936J902D01*
G03X253530Y186810I381J123D01*
G02X253134Y185834I904J-935D01*
G03X252761Y185928I-200J-6D01*
G02X252570Y185673I-1127J648D01*
G03X252586Y185102I288J-278D01*
G02X251337Y182707I-952J-1027D01*
G03X250870Y182436I-85J-391D01*
G37*
G36*
G01X345152Y54040D02*
G03X345460Y53629I399J-22D01*
G02X344022Y51425I-319J-1363D01*
G03X343382I-320J-240D01*
G02X342024Y53646I-1119J841D01*
G03X342355Y54057I-68J394D01*
G02X345152Y54040I1399J59D01*
G37*
G36*
G01X335750Y53937D02*
G03X336093Y53549I400J8D01*
G02X334700Y51429I-201J-1386D01*
G03X334026Y51440I-340J-210D01*
G02X332766Y53612I-1166J775D01*
G03X332952Y53824I-13J200D01*
G02X335750Y53937I1397J87D01*
G37*
G36*
G01X306475Y312748D02*
G03X306200I-138J-145D01*
G02Y314781I-962J1017D01*
G03X306475I137J145D01*
G02Y312748I962J-1017D01*
G37*
G36*
G01X297823Y310429D02*
G03Y310154I145J-137D01*
G02X295790I-1017J-962D01*
G03Y310429I-145J138D01*
G02X295434Y311114I1017J963D01*
G03X295202Y311270I-196J-40D01*
G02X296218Y312890I-238J1278D01*
G03X296461Y312748I193J52D01*
G02X297140Y312752I346J-1357D01*
G03X297626Y313058I95J389D01*
G02X298663Y311408I1370J-289D01*
G03X298176Y311102I-95J-389D01*
G02X297823Y310429I-1370J289D01*
G37*
G36*
G01X305855Y307126D02*
G03Y306851I145J-137D01*
G02X303821I-1017J-963D01*
G03Y307126I-145J137D01*
G02X305855I1017J963D01*
G37*
G36*
G01X321063Y306270D02*
G03X321139Y305677I302J-263D01*
G02X319365Y303823I-735J-1073D01*
G03X318828Y303919I-320J-240D01*
G02X318238Y306307I-704J1093D01*
G03X318658Y306813I35J398D01*
G02X318990Y308151I1349J376D01*
G03Y308426I-145J137D01*
G02X318692Y309868I1017J963D01*
G03X318402Y310396I-376J137D01*
G02X317729Y312548I281J1269D01*
G03Y313092I-294J272D01*
G02X318994Y315238I954J883D01*
G03X319232Y315371I48J194D01*
G02X320160Y313712I1238J-396D01*
G03X319921Y313579I-48J-194D01*
G02X319637Y313092I-1238J396D01*
G03Y312548I294J-272D01*
G02X319926Y311282I-954J-883D01*
G03X320241Y310769I382J-118D01*
G02X321024Y308426I-234J-1381D01*
G03Y308151I145J-137D01*
G02X321063Y306270I-1017J-962D01*
G37*
G36*
G01X300568Y302116D02*
G03X300293I-137J-145D01*
G02Y304150I-962J1017D01*
G03X300568I138J145D01*
G02Y302116I962J-1017D01*
G37*
G36*
G01X307967Y295375D02*
G03Y294832I294J-272D01*
G02X306059I-954J-883D01*
G03Y295375I-294J272D01*
G02X306427Y297419I954J883D01*
G03X306524Y297668I-90J179D01*
G02X308329Y296960I1219J453D01*
G03X308232Y296712I90J-179D01*
G02X307967Y295375I-1219J-453D01*
G37*
G36*
G01X319680Y289390D02*
G03X319680Y288877I307J-257D01*
G02X317686Y288877I-997J-834D01*
G03X317686Y289390I-307J257D01*
G02X319680Y289390I997J834D01*
G37*
G36*
G01X319130Y259928D02*
G03X319186Y259650I166J-111D01*
G02X317301Y259333I-773J-1167D01*
G03X317263Y259614I-159J122D01*
G02X319130Y259928I786J1036D01*
G37*
G36*
G01X299093Y255820D02*
G03X299389Y256365I-73J393D01*
G02X301934Y256264I1295J532D01*
G03X302126Y255719I357J-181D01*
G02X300587Y253426I-576J-1276D01*
G03X300312I-137J-145D01*
G02X299093Y255820I-963J1017D01*
G37*
G36*
G01X320362Y252060D02*
G03X319803I-280J-286D01*
G02Y254062I-979J1001D01*
G03X320362I280J286D01*
G02Y252060I979J-1001D01*
G37*
G36*
G01X299848Y245989D02*
G03Y245714I145J-137D01*
G02X297814I-1017J-963D01*
G03Y245989I-145J137D01*
G02X299848I1017J963D01*
G37*
G36*
G01X319530Y241652D02*
G03X319458Y241085I242J-319D01*
G02X317514Y241330I-1097J-870D01*
G03X317586Y241897I-242J319D01*
G02X317609Y243666I1097J870D01*
G03Y244179I-307J257D01*
G02X319757I1074J898D01*
G03Y243666I307J-257D01*
G02X319530Y241652I-1074J-899D01*
G37*
G36*
G01X307967Y238289D02*
G03Y237745I294J-272D01*
G02X306059I-954J-883D01*
G03Y238289I-294J272D01*
G02X307967I954J883D01*
G37*
G36*
G01X319769Y226317D02*
G03X319268Y226195I-178J-358D01*
G02X318763Y228277I-1129J828D01*
G03X319264Y228398I178J358D01*
G02X319376Y228533I1129J-828D01*
G03Y228808I-145J137D01*
G02X321410I1017J963D01*
G03Y228533I145J-137D01*
G02X319769Y226317I-1017J-962D01*
G37*
G36*
G01X307967Y226478D02*
G03Y225934I294J-272D01*
G02X306059I-954J-883D01*
G03Y226478I-294J272D01*
G02X307967I954J883D01*
G37*
G36*
G01X320727Y221460D02*
G03X320960Y220977I384J-113D01*
G02X319089Y220075I-528J-1297D01*
G03X318856Y220559I-384J113D01*
G02X320727Y221460I528J1297D01*
G37*
G36*
G01X308087Y220557D02*
G03Y220044I307J-257D01*
G02X305939I-1074J-899D01*
G03Y220557I-307J257D01*
G02X308087I1074J899D01*
G37*
G36*
G01X320802Y268452D02*
G02X318769I-1017J-963D01*
G03Y268727I-145J137D01*
G02X318976Y270831I1017J962D01*
G03X319082Y271372I-231J326D01*
G02X318866Y272176I1183J749D01*
G03X318452Y272592I-400J16D01*
G02X317488Y275052I-50J1399D01*
G03X317569Y275561I-261J303D01*
G02X317729Y277115I1114J671D01*
G03Y277659I-294J272D01*
G02X317789Y279486I954J883D01*
G03X317736Y280109I-275J290D01*
G02X319431Y280213I779J1163D01*
G03X319455Y279588I262J-303D01*
G02X319637Y277659I-772J-1046D01*
G03Y277115I294J-272D01*
G02X319597Y275307I-954J-883D01*
G03X319550Y274793I281J-285D01*
G02X319801Y273936I-1148J-802D01*
G03X320215Y273520I400J-16D01*
G02X321075Y270978I50J-1399D01*
G03X320969Y270438I231J-326D01*
G02X320802Y268727I-1183J-749D01*
G03Y268452I145J-137D01*
G37*
G36*
G01X319844Y235687D02*
G02X319280Y237114I-1371J284D01*
G03X319900Y237345I231J327D01*
G02X320453Y235941I1262J-313D01*
G03X319844Y235687I-218J-335D01*
G37*
G54D29*
X129724Y87175D03*
X20000Y380000D03*
X261404Y224970D03*
G54D25*
X115489Y7535D03*
X123953Y29291D03*
X120901Y12833D03*
X94214Y255654D03*
X84943Y105146D03*
X51234Y213426D03*
X56639Y125865D03*
X74003Y175644D03*
X85326Y184932D03*
X74722Y185613D03*
X97091Y131810D03*
X84330Y132180D03*
X27934Y276176D03*
X140785Y393731D03*
X177930Y383446D03*
X175618Y372527D03*
X173820Y383421D03*
X181887D03*
X174447Y347876D03*
X185584Y344776D03*
X174447Y352826D03*
G54D30*
X233365Y116157D03*
X191809Y118829D03*
X233444Y112279D03*
X207120Y113479D03*
Y121880D03*
X214623Y110679D03*
X199320Y113579D03*
X203219Y110679D03*
X218323Y130279D03*
X191868Y130248D03*
X191568Y102073D03*
X199320Y110680D03*
X222424Y127479D03*
X225825Y125317D03*
X156209Y114306D03*
X162463Y133087D03*
X168034Y136976D03*
X176333Y133178D03*
X187869Y127450D03*
X169134Y127676D03*
X183814Y110975D03*
X176692Y113579D03*
X188452Y113465D03*
X226168Y102917D03*
X226351Y110679D03*
X218482Y110973D03*
X159201Y125659D03*
X218257Y119421D03*
X154134Y133076D03*
X235328Y110090D03*
X245198Y125502D03*
X242715Y104912D03*
X245374Y112148D03*
X235668Y102982D03*
X245700Y118197D03*
X195834Y175476D03*
X168665Y193037D03*
X187518Y195918D03*
X160508Y196729D03*
X172634Y195976D03*
X168767Y201372D03*
X153567Y199576D03*
X165559Y186657D03*
X155758Y202026D03*
X191769Y184637D03*
X191567Y187476D03*
X164765Y201437D03*
X172522Y199086D03*
X165334Y192976D03*
X164765Y195836D03*
X203134Y190276D03*
X203173Y187437D03*
X168665Y184637D03*
X165034Y189776D03*
X198558Y163506D03*
Y166390D03*
X192467Y142672D03*
X189034Y142576D03*
X204784Y145595D03*
X182929Y148376D03*
X165709Y159889D03*
X180034Y157776D03*
X180334Y154676D03*
X192234Y157776D03*
X180234Y172376D03*
X182934Y151876D03*
X192434Y151565D03*
X192433Y154550D03*
X207834Y153976D03*
X186257Y148580D03*
Y151564D03*
X186134Y160676D03*
X192433Y163504D03*
X186257D03*
X189344Y163505D03*
X183127Y172694D03*
X180029Y169474D03*
X226434Y186676D03*
X228578Y178999D03*
X218434Y181776D03*
X231578Y178999D03*
X230734Y175176D03*
X218275Y192746D03*
X218477Y201437D03*
X218782Y209147D03*
X225976Y208736D03*
X222034Y184676D03*
X214534Y184776D03*
X218477Y184637D03*
X230191Y208742D03*
X227225Y175258D03*
X235317Y202004D03*
X235034Y178826D03*
X237834Y208876D03*
X244502Y171677D03*
X243934Y179029D03*
X237594Y200198D03*
G54D27*
X38202Y257876D03*
X41620Y252926D03*
X38934Y261676D03*
X49284Y250060D03*
X34351Y259591D03*
X83210Y98854D03*
X68446Y213340D03*
X30350Y215027D03*
X50623Y184174D03*
X50413Y178817D03*
X40334Y236876D03*
X96066Y144454D03*
X23800Y343726D03*
X65034Y353976D03*
X99634Y352976D03*
X7434Y323376D03*
X23934Y337376D03*
X110677Y353068D03*
X18610Y343572D03*
X27630Y341101D03*
X11434Y331876D03*
X89213Y348127D03*
X94034Y352476D03*
X98862Y358370D03*
X11915Y326372D03*
X23830Y325594D03*
X30234Y303776D03*
X77834Y319476D03*
X82634Y319576D03*
X113431Y318759D03*
X219394Y336093D03*
X158634Y290054D03*
X152848Y283636D03*
X131008Y281092D03*
X157832Y283611D03*
X205085Y227376D03*
X224034Y215476D03*
X220034D03*
G54D26*
X100839Y256158D03*
X67426Y252063D03*
X75920Y250721D03*
X77391Y256121D03*
X86763Y254112D03*
X17514Y156608D03*
X63134Y248876D03*
X21368Y168142D03*
X13855Y146007D03*
X9632Y147394D03*
X11318Y158357D03*
X63734Y260376D03*
X106834Y255676D03*
X58848Y265010D03*
X32636Y111837D03*
X81043Y47250D03*
X75547Y61705D03*
X71760Y218581D03*
X46401Y219353D03*
X58989Y201647D03*
X35391Y164291D03*
X69448Y199672D03*
X56034Y208576D03*
X30970Y153924D03*
X60479Y231143D03*
X62409Y227926D03*
X56216Y226341D03*
X67384Y191202D03*
X58934Y206676D03*
X63434Y224276D03*
X53569Y175330D03*
X44310Y170829D03*
X36040Y169162D03*
X47321Y193376D03*
X216191Y9073D03*
X177142Y11424D03*
X216068Y17073D03*
X173992Y20874D03*
X222568Y13073D03*
X177142Y14574D03*
X222571Y9077D03*
X173992Y14574D03*
X222568Y21073D03*
X177142Y20874D03*
X216068Y21073D03*
Y13073D03*
X173992Y17724D03*
X222568Y17073D03*
X177142Y17724D03*
X189742Y20875D03*
X161392Y20874D03*
X177142Y61824D03*
X183442Y49224D03*
X216068Y33073D03*
X173992Y33474D03*
X216068Y37073D03*
X173992Y36624D03*
X164542Y52374D03*
Y49224D03*
Y55524D03*
X161392Y61824D03*
X173992Y55524D03*
X222568Y49073D03*
X173992Y49224D03*
X222568Y41073D03*
X177142Y36624D03*
X188568Y89073D03*
X180292Y52374D03*
X161392Y42924D03*
X177142Y49224D03*
X189741Y42923D03*
X222568Y56073D03*
X177142Y64974D03*
X186592Y55524D03*
X173992Y46074D03*
X216068Y53073D03*
X173992Y52374D03*
X177142D03*
X216068Y25073D03*
X173992Y27174D03*
X170842Y55524D03*
X173992Y61824D03*
X216068Y41073D03*
X173992Y39774D03*
X180292Y55524D03*
X222568Y29073D03*
X177142Y27174D03*
X222568Y33073D03*
X177142Y30324D03*
X192892Y49224D03*
X186592Y52374D03*
X167692Y58673D03*
X222568Y45073D03*
X177142Y39774D03*
Y55524D03*
X167722Y39703D03*
X173992Y24024D03*
X183907Y118932D03*
X186591Y33475D03*
X177142Y42924D03*
X216068Y49073D03*
X167692Y55524D03*
X216068Y29073D03*
X173992Y30324D03*
X183442Y55524D03*
X222568Y37073D03*
X177142Y33474D03*
X222568Y25073D03*
X177142Y24024D03*
Y46074D03*
X216068Y45073D03*
X173992Y42924D03*
Y64974D03*
X170842Y52374D03*
X150393Y102191D03*
X161392Y27173D03*
X164542Y42921D03*
X161391Y68121D03*
X183442Y64969D03*
X189741Y68122D03*
X164541Y58672D03*
X161392Y58669D03*
Y55520D03*
X189742Y52371D03*
X189744Y27174D03*
X174091Y103629D03*
X183438Y58672D03*
X205169Y66398D03*
X164676Y118715D03*
X264642Y11424D03*
X261493Y20874D03*
X264642Y14574D03*
X261493D03*
X264642Y20874D03*
X261493Y17724D03*
X264642D03*
X277242Y20875D03*
X248893Y20874D03*
X245556Y42793D03*
X261493Y33474D03*
Y36624D03*
X264642Y52374D03*
X274093Y33473D03*
X252043Y52374D03*
X270943Y49224D03*
X261493Y60249D03*
X274092Y52374D03*
X248892Y39775D03*
X261493Y49224D03*
X252043Y55524D03*
X264642Y36624D03*
X248892Y42924D03*
X264643Y49224D03*
X264642Y55524D03*
X252043Y49224D03*
X255193Y58673D03*
X274092Y55524D03*
X264642Y60249D03*
X261493Y46074D03*
Y52374D03*
Y27174D03*
X248892Y61824D03*
X267792Y52374D03*
X261493Y39774D03*
X280393Y55524D03*
X264642Y27174D03*
Y30324D03*
X255193Y55524D03*
X264642Y39774D03*
X270943Y55524D03*
X261493Y24024D03*
X258342Y55524D03*
X264642Y42924D03*
Y63399D03*
X261493Y30324D03*
X264642Y33474D03*
X267792Y55524D03*
X261493Y63399D03*
X258342Y52374D03*
X264642Y24024D03*
Y46074D03*
X261493Y42924D03*
X255174Y39756D03*
X261493Y55524D03*
X248893Y68118D03*
X277242Y27174D03*
X274089Y58672D03*
X274093Y42922D03*
X248893Y58669D03*
X277932Y35074D03*
X252043Y42921D03*
X277242Y68124D03*
X277242Y52374D03*
X248893Y33472D03*
X270943Y64974D03*
X248893Y55520D03*
X73066Y134069D03*
X105634Y153176D03*
X67087Y158721D03*
X122334Y141576D03*
X128953Y184150D03*
X124634Y183576D03*
Y187576D03*
X116952Y185923D03*
X116477Y189394D03*
X122550Y158043D03*
X116861Y164834D03*
X114152Y213651D03*
X96330Y210983D03*
X105244Y210490D03*
X94734Y272776D03*
X129354Y198220D03*
X128934Y224976D03*
X116646Y229856D03*
X116334Y256876D03*
X141234Y210576D03*
X143184Y203026D03*
X116931Y265804D03*
X81916Y362943D03*
X77276Y357959D03*
X83122Y349401D03*
X68834Y355476D03*
X72534Y355576D03*
X68834Y351976D03*
X72534Y352076D03*
X16834Y310976D03*
X78134Y351976D03*
X77634Y361076D03*
X24242Y314483D03*
X100134Y347976D03*
X89919Y311161D03*
X88769Y291190D03*
X59509Y306184D03*
X34334Y330396D03*
X85134Y291476D03*
X52898Y330378D03*
X94243Y306348D03*
X87750Y326876D03*
X88013Y330591D03*
X99434Y313676D03*
X87957Y322867D03*
X97572Y286475D03*
X84974Y324803D03*
X105734Y306726D03*
X98687Y323817D03*
X98944Y327465D03*
X95964Y333169D03*
X99458Y333272D03*
X103067Y331220D03*
X88043Y297280D03*
X103534Y311676D03*
X94628Y320326D03*
X103826Y314750D03*
X107034Y311676D03*
X95469Y283494D03*
X64814Y302790D03*
X59477Y335182D03*
X102334Y304976D03*
X38606Y293710D03*
X112278Y293397D03*
X119484Y306526D03*
X119857Y283302D03*
X114991Y328732D03*
X139991Y350065D03*
X119879Y316653D03*
X125549Y350302D03*
X122363Y350046D03*
X164777Y167488D03*
X231934Y218676D03*
X228834Y218776D03*
X145997Y228662D03*
X213739Y236860D03*
X234178Y175099D03*
X156237Y247296D03*
X212734Y208976D03*
X216853Y247194D03*
X158859Y255040D03*
X223634Y226376D03*
X207234Y245022D03*
X223334Y230176D03*
X190734Y250576D03*
X212934Y247876D03*
X155492Y237949D03*
X146914Y283089D03*
X148434Y317476D03*
X145834Y266205D03*
X208989Y308839D03*
X142056Y265854D03*
X156834Y272376D03*
X149110Y341468D03*
X196689Y358316D03*
X133034Y330476D03*
X217529Y345616D03*
X203434Y289876D03*
X148150Y304427D03*
X145534Y277276D03*
X143734Y274276D03*
X182778Y331567D03*
X157367Y300170D03*
X189074Y336348D03*
X170734Y309276D03*
X215334Y340376D03*
X169834Y269075D03*
X148150Y307527D03*
X158089Y296885D03*
X133566Y317256D03*
X130206Y317493D03*
X144387Y321576D03*
X140734Y274176D03*
X180370Y347997D03*
X147054Y295928D03*
X140924Y293320D03*
X133192Y293268D03*
X137853Y294778D03*
X188632Y299926D03*
X189197Y291290D03*
X187004Y281355D03*
X149704Y278657D03*
X136934Y283376D03*
X224286Y350370D03*
X192046Y325559D03*
X214570Y329494D03*
X236670Y170948D03*
X247494Y207702D03*
X247434Y185476D03*
X259643Y184895D03*
X260433Y206279D03*
X251460Y206976D03*
X247534Y213476D03*
X243509Y291990D03*
X257536Y349032D03*
X235646Y332826D03*
X262072Y348514D03*
X248513Y348490D03*
X265227Y355485D03*
X263116Y282065D03*
X267207Y281846D03*
X307647Y262628D03*
X306954Y255914D03*
X296901Y260224D03*
X294635Y251772D03*
X318041Y264636D03*
X295108Y297687D03*
X289571Y323934D03*
G54D28*
X55109Y92360D03*
X57534Y114801D03*
X70608Y102061D03*
X66380Y147208D03*
X123355Y120592D03*
X232350Y234693D03*
X285205Y353586D03*
G54D24*
X112716Y13064D03*
X112822Y23044D03*
X105550Y17948D03*
X14991Y111993D03*
X9241Y141692D03*
X8538Y68710D03*
X5455Y54956D03*
X5352Y60043D03*
X4502Y116248D03*
X4809Y86502D03*
X15270Y50022D03*
X5462Y65541D03*
X8493Y52078D03*
X15218Y54836D03*
X15167Y64875D03*
X15116Y59891D03*
X29944Y59282D03*
X30567Y258986D03*
X30154Y262192D03*
X23172Y231126D03*
X15132Y169320D03*
X7018Y155933D03*
X14252Y193236D03*
X7572Y161235D03*
X28766Y248356D03*
X33702Y255470D03*
X17928Y144974D03*
X72837Y249924D03*
X22437Y194000D03*
X11952Y228654D03*
X7100Y176528D03*
X7172Y168239D03*
X49094Y256159D03*
X9081Y193010D03*
X18725Y238186D03*
X18165Y193074D03*
X7205Y189508D03*
X34127Y102064D03*
X49143Y129356D03*
X70890Y109645D03*
X44362Y130546D03*
X39709Y111682D03*
X29368Y121882D03*
X38115Y105020D03*
X38092Y108256D03*
X38194Y115288D03*
X30017Y127341D03*
X103351Y46365D03*
X73105Y79359D03*
X95176Y51444D03*
X57321Y57512D03*
X114266Y59808D03*
X104349Y51484D03*
X102911Y69478D03*
X110924Y71432D03*
X110532Y66979D03*
X51650Y118680D03*
X89796Y102074D03*
X110385Y44214D03*
X95163Y62466D03*
X72174Y44708D03*
X95092Y44662D03*
X57148Y66655D03*
X70398Y47803D03*
X94290Y99551D03*
X47840Y170124D03*
X30097Y205950D03*
X49369Y210180D03*
X50018Y228984D03*
X50443Y149982D03*
X43146Y147309D03*
X29186Y183528D03*
X52448Y165249D03*
X47806Y187851D03*
X40735Y160439D03*
X219801Y10791D03*
X130550Y63702D03*
X125085Y61818D03*
X148483Y99202D03*
X115191Y44067D03*
X115609Y51132D03*
X115805Y69666D03*
X151525Y81886D03*
X154994Y81629D03*
X255462Y14959D03*
X275787Y16768D03*
X261269Y11367D03*
X279843Y37658D03*
X295174Y89275D03*
X242990Y51535D03*
X290293Y88307D03*
X287004Y85070D03*
X243772Y29089D03*
X279818Y87703D03*
X280431Y80247D03*
X297509Y81728D03*
X286142Y40078D03*
X66274Y126794D03*
X65216Y132232D03*
X88805Y132161D03*
X92986Y132244D03*
X113548Y131244D03*
X107012Y140420D03*
X114874Y119925D03*
X88963Y141976D03*
X83963Y141789D03*
X93967Y141495D03*
X104237Y137306D03*
X76658Y158654D03*
X82534Y145730D03*
X83046Y152670D03*
X59077Y167132D03*
X108360Y165538D03*
X88963Y153722D03*
X81119Y168821D03*
X105419Y150046D03*
X70198Y147511D03*
X61234Y148491D03*
X94010Y153727D03*
X69126Y168230D03*
X74429Y161732D03*
X101073Y152712D03*
X86580Y146945D03*
X66038Y165418D03*
X93946Y150090D03*
X63130Y151174D03*
X129687Y141076D03*
X127330Y129382D03*
X125355Y137076D03*
X118908Y120132D03*
X126766Y155487D03*
X96680Y266908D03*
X154930Y218073D03*
X128738Y194598D03*
X130546Y207431D03*
X116740Y204599D03*
X117490Y243552D03*
X110197Y357632D03*
X24378Y277421D03*
X71300Y369010D03*
X46447Y360389D03*
X6810Y291040D03*
X104528Y386677D03*
X51266Y385299D03*
X91008Y388919D03*
X116893Y382772D03*
X124259Y382014D03*
X114810Y340282D03*
X218997Y237361D03*
X151438Y256018D03*
X160530Y277855D03*
X216213Y300781D03*
X206463Y328376D03*
X233156Y328450D03*
X191437Y297435D03*
X221293Y289134D03*
X208664Y299851D03*
X183488Y328014D03*
X217716Y309414D03*
X209816Y320122D03*
X204233Y314724D03*
X212578Y310238D03*
X213470Y350067D03*
X190617Y284945D03*
X227078Y309716D03*
X190675Y330573D03*
X156366Y305170D03*
X179614Y338461D03*
X178528Y326479D03*
X184880Y322776D03*
X186866Y325553D03*
X197580Y281881D03*
X225703Y329432D03*
X235104Y222944D03*
X235576Y214549D03*
X245534Y294836D03*
X267411Y292185D03*
X252002Y347844D03*
X238469Y337502D03*
X285032Y344832D03*
X238070Y327667D03*
X268575Y339558D03*
X259845Y282010D03*
X344313Y122158D03*
X343777Y142603D03*
X337225Y124072D03*
X339874Y72851D03*
X343283Y131842D03*
X320640Y149657D03*
X328227Y168120D03*
X325336Y149094D03*
X303192Y262520D03*
X299877Y218608D03*
X295006Y219078D03*
X306851Y250981D03*
X307210Y247563D03*
X331179Y225724D03*
X331093Y231150D03*
X307380Y259022D03*
X319456Y322164D03*
X298807Y319864D03*
X307074Y290323D03*
X307364Y286865D03*
X318150Y295662D03*
G54D31*
X82620Y373837D03*
X43250D03*
%LPD*%
G75*
G54D10*
X37042Y181635D03*
X40605Y181838D03*
X39180Y179192D03*
X36737Y177258D03*
X41521Y177156D03*
X135864Y16741D03*
X133589Y14879D03*
X138139Y14672D03*
X135916Y12707D03*
X133950Y10484D03*
X137984Y10276D03*
X135967Y7742D03*
X137933Y4846D03*
X134106D03*
X135764Y32387D03*
X137988Y34223D03*
X135712Y36162D03*
X137988Y38050D03*
X188413Y376121D03*
X191722Y376147D03*
X191748Y373277D03*
X188464D03*
G54D20*
G01X221276Y175287D02*
X219467Y177096D01*
X213071D01*
X212731Y176756D01*
Y138190D01*
X209449Y134908D01*
X182832D01*
X174986Y142755D01*
Y147781D01*
X172037Y150730D01*
X145420D01*
X144984Y150294D01*
X144627D01*
G01X168034Y144376D02*
Y141926D01*
X167234Y141126D01*
X153175D01*
X151762Y142539D01*
X145304D01*
X144627Y141862D01*
Y141812D01*
G01X157460Y146777D02*
X144627D01*
G01X170864Y144491D02*
X169318Y146037D01*
X167503D01*
X166628Y145163D01*
Y145064D01*
X166634Y145058D01*
Y143923D01*
X166628Y143918D01*
Y143481D01*
X165924Y142776D01*
X153610D01*
X152570Y143817D01*
X144731D01*
X144627Y143713D01*
G01X245779Y164883D02*
X245266D01*
X244957Y165192D01*
X229953D01*
X228270Y163509D01*
G01X245779Y166219D02*
X228847D01*
X228128Y165500D01*
X222142D01*
X220086Y163445D01*
G54D11*
X20141Y324165D03*
X27634Y325976D03*
Y290176D03*
Y293476D03*
X129434Y154676D03*
X132538Y154938D03*
X188134Y236176D03*
X105893Y358256D03*
X102361Y373385D03*
X102322Y377068D03*
X102305Y368526D03*
X102834Y363176D03*
G54D21*
G01X165634Y174776D02*
X162244Y171386D01*
X149838D01*
X147363Y173862D01*
X143719D01*
X142364Y172506D01*
Y170479D01*
X140301Y168416D01*
G01X156934Y167476D02*
X146166D01*
X142956Y164266D01*
X128452D01*
X124839Y167880D01*
X122433D01*
G01X118770Y170173D02*
X120405D01*
X120916Y169662D01*
X124996D01*
X128747Y165911D01*
X132190D01*
X141195Y174915D01*
X148254D01*
X150394Y172776D01*
X158634D01*
X160934Y175076D01*
X163534D01*
G54D12*
G01X141877Y187987D02*
X141536Y188328D01*
X138841D01*
X138253Y188916D01*
X138091D01*
X134450Y192557D01*
Y198747D01*
X129364Y203834D01*
X57773Y11639D03*
X99799Y106800D03*
X65654Y120624D03*
X99850Y109150D03*
X93520Y115139D03*
X111520Y164357D03*
X113570Y180320D03*
X69938Y163174D03*
X22110Y174335D03*
X14920Y174011D03*
X108587Y287927D03*
X107174Y285782D03*
X106730Y265061D03*
X41240Y268110D03*
X159654Y13844D03*
X151368Y29015D03*
X150650Y70588D03*
Y35698D03*
Y39408D03*
Y42898D03*
Y56573D03*
Y46389D03*
Y60038D03*
Y63658D03*
Y67123D03*
X154134Y121476D03*
X127774Y111979D03*
X183924Y201127D03*
X131432Y188276D03*
X176537Y248643D03*
X171687Y247962D03*
X165634Y174776D03*
X174173Y247770D03*
X179054Y248695D03*
X122433Y167880D03*
X159450Y262257D03*
X155944Y244699D03*
X211785Y245409D03*
X119588Y174210D03*
X220358Y259376D03*
X163638Y263901D03*
X161120Y264004D03*
X117900Y288869D03*
X197523Y362229D03*
X225423Y369072D03*
X222214Y372496D03*
X289690Y16657D03*
Y20365D03*
X294929Y125316D03*
X319909Y90736D03*
X288509Y69520D03*
X288354Y64193D03*
X286182Y65434D03*
Y68020D03*
X288536Y66830D03*
X289690Y24010D03*
Y27532D03*
Y31054D03*
Y34563D03*
X289163Y41855D03*
X289690Y38017D03*
X287623Y61681D03*
Y58333D03*
Y54908D03*
X287684Y51886D03*
X240869Y55187D03*
X242748Y59113D03*
X242649Y61568D03*
X242549Y65843D03*
X290664Y95770D03*
X295597Y128294D03*
X295648Y97516D03*
X319632Y128848D03*
X306620Y132611D03*
X290613Y128708D03*
X337875Y174735D03*
X339828Y163227D03*
X326841Y155853D03*
X336860Y144229D03*
X268840Y192568D03*
X269010Y162724D03*
X297954Y208951D03*
X343580Y195201D03*
X282203Y256226D03*
X321052Y189403D03*
X258230Y181015D03*
X289495Y208888D03*
X289431Y229064D03*
X283213Y220447D03*
X295186Y194379D03*
X323674Y199104D03*
X266944Y144959D03*
X279733Y258126D03*
X290148Y145421D03*
X251278Y171950D03*
X343078Y151728D03*
X325970Y199690D03*
X330795Y234126D03*
X331113Y223034D03*
X245888Y320637D03*
X251143Y334548D03*
X304316Y271337D03*
X291818Y265474D03*
X261708Y336024D03*
X293309Y349520D03*
X296387Y349608D03*
X294848Y347475D03*
X293639Y345166D03*
X291463Y346925D03*
X290781Y349564D03*
X242372Y290164D03*
X283228Y308455D03*
X261619Y314414D03*
X275042Y288821D03*
X263102Y291616D03*
X299092Y349674D03*
X250669Y308907D03*
X274484Y332699D03*
X310704Y337951D03*
X297770Y280029D03*
X245156Y286623D03*
X259461Y334484D03*
X344792Y330619D03*
X328369Y264365D03*
X273161Y312826D03*
X305768Y319858D03*
X295437Y282046D03*
X299868Y323769D03*
G54D22*
G01X57773Y11639D02*
X77338D01*
X86097Y2880D01*
X301566D01*
X313684Y14999D01*
Y32561D01*
X322212Y41088D01*
Y54434D01*
X330226Y62448D01*
Y62449D01*
X334170Y66393D01*
Y107760D01*
X319632Y122298D01*
Y128848D01*
G01X127774Y111979D02*
X102679D01*
X99850Y109150D01*
G01X144627Y150294D02*
X137932D01*
X134753Y147115D01*
Y121908D01*
X127984Y115139D01*
X93520D01*
G01X13296Y176844D02*
X12727Y176275D01*
Y174218D01*
G01X14920Y174011D02*
X21786D01*
X22110Y174335D01*
G01X41240Y268110D02*
X41881Y268751D01*
X77319D01*
X82570Y263500D01*
X105842D01*
X106730Y264389D01*
Y265061D01*
G01X321052Y189403D02*
Y188272D01*
X311833Y179053D01*
Y127579D01*
X331760Y107652D01*
Y66501D01*
X328445Y63186D01*
X320871Y55611D01*
Y41183D01*
X312684Y32997D01*
Y15840D01*
X302157Y5312D01*
X198950D01*
X198950Y5313D01*
X198077D01*
X196092Y7298D01*
X183397D01*
X181721Y5623D01*
X169578D01*
X167875Y5623D01*
X159654Y13844D01*
G01X144627Y141812D02*
X143109Y140294D01*
X141514D01*
G01X144627Y146777D02*
X139385D01*
X137098Y144490D01*
Y137225D01*
X140736Y133587D01*
Y124941D01*
X127774Y111979D01*
G01X144627Y143713D02*
X143690Y142776D01*
X141178D01*
G01X319909Y90736D02*
X314261D01*
X309106Y95892D01*
Y141588D01*
X295677Y155017D01*
X288284D01*
X277995Y165306D01*
Y191864D01*
X271791Y198068D01*
X250535D01*
X248568Y196101D01*
X245779Y193313D01*
G01X279066Y267602D02*
X276033Y264569D01*
X264953D01*
X258885Y270637D01*
X202961D01*
X199134Y266810D01*
X192160D01*
X177032Y251681D01*
Y249138D01*
X176537Y248643D01*
G01X171687Y247962D02*
Y248140D01*
X169694Y250134D01*
Y255285D01*
X187602Y273192D01*
X302524D01*
X304316Y271400D01*
Y271337D01*
G01X174173Y247770D02*
Y250133D01*
X196310Y272269D01*
X285707D01*
X289819Y268157D01*
X306878D01*
X309116Y270396D01*
Y279355D01*
X302501Y285970D01*
Y287233D01*
X301850Y287884D01*
G01X291818Y265474D02*
X289940Y263596D01*
X264274D01*
X258192Y269678D01*
X240554D01*
X235846Y264970D01*
X230820D01*
X229653Y266137D01*
X223722D01*
X222646Y265061D01*
X196397D01*
X181957Y250620D01*
X179634D01*
X179048Y250034D01*
Y248701D01*
X179054Y248695D01*
G01X245779Y143462D02*
X247903D01*
X265584Y125781D01*
X276624D01*
X281558Y120847D01*
X295344D01*
X296548Y122051D01*
Y127343D01*
X295597Y128294D01*
G01X119588Y174210D02*
X119848Y173950D01*
X130694D01*
X137740Y180995D01*
X144627D01*
G01X266944Y144959D02*
Y149858D01*
X262659Y154144D01*
X259884D01*
X249145Y164883D01*
X245779D01*
G01X279733Y258126D02*
X277714Y256107D01*
X223628D01*
X220358Y259376D01*
G01X290613Y128708D02*
X288529Y130792D01*
X269504D01*
X258351Y141945D01*
Y153008D01*
X256621Y154738D01*
X252497D01*
X245779Y161456D01*
G01X253744Y168995D02*
X250968Y166219D01*
X245779D01*
G01X232973Y314348D02*
X233422Y314797D01*
X250654D01*
X252470Y316614D01*
X269374D01*
X273161Y312826D01*
G01X341903Y305103D02*
X336024Y310981D01*
Y318011D01*
X311760Y342275D01*
Y359409D01*
X306427Y364742D01*
X200036D01*
X197523Y362229D01*
G01X326476Y205391D02*
Y205341D01*
X331524Y200292D01*
X341897D01*
X344706Y203102D01*
Y265066D01*
X342720Y267052D01*
Y268360D01*
X345086Y270726D01*
Y325337D01*
X340174Y330249D01*
Y336116D01*
X310322Y365969D01*
X228526D01*
X225423Y369072D01*
G01X301679Y201542D02*
X307596D01*
X314657Y194481D01*
X339738D01*
X340719Y193500D01*
X344497D01*
X345804Y194807D01*
Y266559D01*
X346189Y266944D01*
Y326029D01*
X342690Y329529D01*
Y335278D01*
X307940Y370028D01*
X260879D01*
X258577Y367726D01*
X229258D01*
X224488Y372496D01*
X222214D01*
G01X294929Y125316D02*
X291700D01*
X288974Y128042D01*
X268467D01*
X245779Y150730D01*
G01X258230Y181015D02*
X263524D01*
X267415Y177123D01*
Y159415D01*
X273663Y153167D01*
X295574D01*
X308216Y140526D01*
Y107828D01*
X296158Y95770D01*
X290664D01*
G01X290148Y145421D02*
X293180D01*
X295058Y143544D01*
Y142494D01*
X304540Y133012D01*
Y110159D01*
X304150Y109769D01*
X295648Y101268D01*
Y97516D01*
G01X306620Y132611D02*
X306545Y132687D01*
Y139833D01*
X297732Y148645D01*
X287861D01*
X286232Y147016D01*
X274215D01*
X272057Y149175D01*
Y149842D01*
X266624Y155274D01*
Y158274D01*
X257058Y167840D01*
Y171152D01*
X255062Y173148D01*
X252476D01*
X251278Y171950D01*
G01X269010Y162724D02*
X273420Y167133D01*
Y187988D01*
X268840Y192568D01*
G01X343580Y195201D02*
X342617Y196165D01*
X319327D01*
X309188Y206304D01*
X302301D01*
X300992Y207613D01*
X299291D01*
X297954Y208951D01*
G01X282155Y260974D02*
X283354Y259774D01*
Y257377D01*
X282203Y256226D01*
G01X331042Y239176D02*
X325422Y244796D01*
Y323104D01*
X318175Y330351D01*
X303810D01*
X301177Y327718D01*
X299854D01*
X297221Y330351D01*
X283185D01*
X279659Y326825D01*
X261242D01*
X260280Y325864D01*
X259103D01*
X255937Y322698D01*
Y322237D01*
G01X331136Y241770D02*
X331065D01*
X326765Y246070D01*
Y270972D01*
X335108Y279315D01*
Y317342D01*
X318727Y333723D01*
X308248D01*
X305882Y336088D01*
X299191D01*
X298072Y334969D01*
X283520D01*
X278986Y330436D01*
X264532D01*
X262778Y332190D01*
Y334966D01*
X261720Y336024D01*
X261708D01*
G01X289495Y208888D02*
X289431Y208952D01*
Y229064D01*
G01X295186Y194379D02*
X287346Y202218D01*
Y216314D01*
X283213Y220447D01*
G01X323674Y199104D02*
X323574D01*
X323514Y199044D01*
X318884D01*
X309455Y208472D01*
X305144D01*
G01X343078Y151728D02*
X347194Y155844D01*
Y327418D01*
X344792Y329819D01*
Y330619D01*
G01X328369Y264365D02*
Y258294D01*
X339404Y247258D01*
Y215310D01*
X337214Y213120D01*
X329227D01*
X324411Y208304D01*
Y201249D01*
X325970Y199690D01*
G01X253450Y321601D02*
Y330505D01*
X255302Y332356D01*
X257685D01*
X258104Y332775D01*
G01X251143Y334548D02*
Y325184D01*
X246596Y320637D01*
X245888D01*
G01X329296Y278080D02*
Y279821D01*
X332990Y283515D01*
Y316942D01*
X318691Y331241D01*
X282816D01*
X279290Y327716D01*
X260873D01*
X259911Y326754D01*
X258734D01*
X256123Y324143D01*
X255353D01*
X255303Y324193D01*
G01X274484Y332699D02*
X277645Y335859D01*
X297704D01*
X299205Y337361D01*
X310114D01*
X310704Y337951D01*
G01X245156Y286623D02*
X245516Y286264D01*
Y274950D01*
X246350Y274116D01*
X290777D01*
X296690Y280029D01*
X297770D01*
G01X331273Y278382D02*
X333966Y281075D01*
Y317225D01*
X319059Y332131D01*
X282092D01*
X279438Y329477D01*
X262490D01*
X260371Y331596D01*
Y333573D01*
X259461Y334484D01*
G01X271384Y323356D02*
Y325348D01*
G01D02*
X271813Y325776D01*
X302227D01*
G01D02*
X304432Y323571D01*
Y321194D01*
X305768Y319858D01*
G01X299868Y323769D02*
X295152D01*
X290344Y318960D01*
Y287139D01*
X295437Y282046D01*
G54D13*
X89834Y218476D03*
X88134D03*
Y216876D03*
Y215276D03*
X89734D03*
Y216876D03*
X85034Y261376D03*
X56563Y232083D03*
X54302Y232443D03*
X51912Y234832D03*
X51964Y232417D03*
X54199Y234858D03*
X56834Y234476D03*
X92034Y270676D03*
X33983Y304892D03*
X55250Y274078D03*
X55022Y277002D03*
X104263Y318861D03*
X110574Y317876D03*
X98734Y306676D03*
X101134Y315876D03*
X84434Y329676D03*
X84334Y332476D03*
X87934Y334176D03*
X84216Y336513D03*
X86390Y337141D03*
X83631Y338642D03*
X87074Y339335D03*
X88105Y342176D03*
X39334Y333976D03*
Y336976D03*
X72734Y328576D03*
X70822Y329748D03*
X44634Y316776D03*
X31995Y318161D03*
X186134Y139776D03*
X195520Y139625D03*
X192534Y139676D03*
X141178Y142776D03*
X141514Y140294D03*
X161392Y24024D03*
X186589D03*
X189742Y30324D03*
X196150Y23220D03*
X195840Y29659D03*
X189741Y58674D03*
X196425Y60287D03*
Y62537D03*
X196451Y64941D03*
X196194Y51613D03*
X186589Y58669D03*
X167694Y52374D03*
X164542Y39772D03*
X161392Y49220D03*
X186592Y42926D03*
X161392Y30323D03*
X161391Y64972D03*
X190391Y63398D03*
X186592Y68119D03*
X164541Y61822D03*
X161391Y71271D03*
X161392Y52370D03*
X164541Y68121D03*
X183442Y52374D03*
X146836Y116409D03*
X160819Y116406D03*
X160861Y120151D03*
X157015Y125184D03*
X230109Y118625D03*
X218493Y126521D03*
X155761Y110229D03*
X232434Y102184D03*
X154063Y136987D03*
X156864D03*
X156865Y133087D03*
X159663D03*
X162464Y129187D03*
X159664D03*
Y136987D03*
X156864Y129187D03*
X154434Y129176D03*
X165265Y136987D03*
X162465Y136988D03*
X172565Y127448D03*
X170864Y136988D03*
X173664D03*
X165265Y133088D03*
X164834Y129276D03*
X172634Y130476D03*
X168065Y133088D03*
X171234Y133176D03*
X173664Y133087D03*
X214996Y65064D03*
X186546Y39730D03*
X180081Y151564D03*
X176834Y152176D03*
X192434Y166576D03*
X183334Y169476D03*
X189234Y175176D03*
X180081Y175445D03*
X207873Y163504D03*
X124835Y193521D03*
X123110Y198281D03*
X192334Y169676D03*
X202134Y158076D03*
X180751Y220576D03*
X180201Y201722D03*
X183001Y220550D03*
X170864Y144491D03*
X168034Y144376D03*
X231734Y186676D03*
X165264Y148391D03*
X126934Y145176D03*
X162464Y148391D03*
X140301Y168416D03*
X156934Y167476D03*
X217277Y164181D03*
X131449Y262775D03*
X134269Y263105D03*
X133082Y261206D03*
X135478Y261079D03*
X217377Y175099D03*
X228578Y148391D03*
X163534Y175076D03*
X118770Y170173D03*
X157084Y182676D03*
X228270Y163509D03*
X141877Y187987D03*
X129364Y203834D03*
X225546Y163714D03*
X220086Y163445D03*
X221276Y175287D03*
X188193Y353735D03*
X136634Y350658D03*
X133673Y350465D03*
X130650Y349963D03*
X137234Y341676D03*
X134683Y341688D03*
X132762Y341031D03*
X132357Y338553D03*
X232973Y314348D03*
X241895Y23110D03*
X247129Y16819D03*
X241097Y17143D03*
X248893Y24024D03*
Y30323D03*
X270870Y45985D03*
X270943Y52373D03*
X255195Y52371D03*
X252043Y39772D03*
X277895Y63395D03*
X252043Y58669D03*
X277242Y30324D03*
Y24024D03*
X274092Y68124D03*
X277242Y58670D03*
X248893Y52370D03*
X248892Y64972D03*
X277242Y46072D03*
X274093D03*
X277242Y55524D03*
X270939Y58670D03*
X248892Y49224D03*
X252043Y68118D03*
X236755Y121521D03*
X245361Y115191D03*
X244262Y152247D03*
X282155Y260974D03*
X331042Y239176D03*
X331136Y241770D03*
X260620Y188030D03*
X305144Y208472D03*
X253744Y168995D03*
X326476Y205391D03*
X301679Y201542D03*
X258104Y332775D03*
X253450Y321601D03*
X279066Y267602D03*
X301850Y287884D03*
X255937Y322237D03*
X329296Y278080D03*
X255303Y324193D03*
X245146Y340064D03*
X265723Y337744D03*
X245217Y342644D03*
X245152Y338049D03*
X331273Y278382D03*
X287239Y323223D03*
X271384Y323356D03*
X296155Y302345D03*
X294782Y306473D03*
X341903Y305103D03*
G54D23*
G01X-183757Y-112707D02*
X381593D01*
G01X381743Y-73471D02*
Y-152707D01*
X-183757D01*
G01Y-73376D02*
Y-152707D01*
G01Y-132707D02*
X381743D01*
Y-132557D01*
G01X-183757Y-92707D02*
X381693D01*
G01X-183757Y-73507D02*
X381743D01*
G54D14*
X93600Y247978D03*
X103937Y243550D03*
X89664Y247978D03*
G54D15*
G01X165264Y148391D02*
X164846D01*
X162860Y146404D01*
X158758D01*
X157853Y145499D01*
X140798D01*
X138712Y143414D01*
Y137628D01*
X143138Y133203D01*
Y124692D01*
X128825Y110379D01*
X103378D01*
X99799Y106800D01*
G01X162464Y148391D02*
X159074D01*
X157460Y146777D01*
G01X181611Y171772D02*
X181634Y171796D01*
G01Y172956D02*
X181611Y172978D01*
G01X245779Y193313D02*
X240961Y188494D01*
X233553D01*
X231734Y186676D01*
G01X228578Y148391D02*
X231255D01*
X236184Y143462D01*
X245779D01*
G01X144627Y180995D02*
X155404D01*
X157084Y182676D01*
G01X245779Y161456D02*
X245296Y161939D01*
X227321D01*
X225546Y163714D01*
G01X245779Y150730D02*
X244262Y152247D01*
G54D16*
G01X183924Y201127D02*
X182652Y202400D01*
Y204614D01*
X183637Y205599D01*
Y213307D01*
X178452Y218492D01*
Y223396D01*
X178862Y223806D01*
X181031D01*
X181434Y223398D01*
X181409Y221218D01*
X180751Y220576D01*
G01X180201Y201722D02*
X181292D01*
X181702Y202132D01*
Y205007D01*
X182687Y205993D01*
Y212913D01*
X177502Y218098D01*
Y223790D01*
X178469Y224756D01*
X181428D01*
X182389Y223784D01*
X182359Y221207D01*
X183001Y220550D01*
G54D17*
G01X-27874Y388000D02*
Y12000D01*
G01D02*
X-7874D01*
G01Y42000D02*
Y12000D01*
G01Y42000D02*
X0D01*
G01X-7874Y48700D02*
X0D01*
G01X-7874Y144800D02*
Y48700D01*
G01Y248500D02*
X0D01*
G01X-7874Y255200D02*
X0D01*
G01X-7874Y151500D02*
X0D01*
G01X-7874Y144800D02*
X0D01*
G01X-7874Y248500D02*
Y151500D01*
G01Y351300D02*
Y255200D01*
G01Y388000D02*
Y358000D01*
G01D02*
X0D01*
G01X-7874Y351300D02*
X0D01*
G01X-27874Y388000D02*
X-7874D01*
G01X12000Y0D02*
X0Y12000D01*
G01X12000Y0D02*
X338000D01*
G01X0Y42000D02*
Y12000D01*
G01Y144800D02*
Y48700D01*
G01Y351300D02*
Y255200D01*
G01Y248500D02*
Y151500D01*
G01Y388000D02*
Y358000D01*
G01Y388000D02*
X12000Y400000D01*
G01X338000D02*
X12000D01*
G01X350000Y12000D02*
X338000Y0D01*
G01X350000Y12000D02*
Y42000D01*
G01Y48700D02*
X357874D01*
G01X350000Y42000D02*
X357874D01*
G01X350000Y48700D02*
Y144800D01*
G01Y255200D02*
X357874D01*
G01X350000Y248500D02*
X357874D01*
G01X350000Y144800D02*
X357874D01*
G01X350000Y151500D02*
X357874D01*
G01X350000D02*
Y248500D01*
G01Y255200D02*
Y351300D01*
G01D02*
X357874D01*
G01X350000Y358000D02*
X357874D01*
G01X350000D02*
Y388000D01*
G01X338000Y400000D02*
X350000Y388000D01*
G01X377874Y12000D02*
Y388000D01*
G01X357874Y12000D02*
Y42000D01*
G01Y12000D02*
X377874D01*
G01X357874Y48700D02*
Y144800D01*
G01Y151500D02*
Y248500D01*
G01Y255200D02*
Y351300D01*
G01Y358000D02*
Y388000D01*
G01D02*
X377874D01*
G54D18*
G01X-172757Y-118840D02*
X-173507Y-118340D01*
X-174382Y-118007D01*
X-175382D01*
X-176507Y-118507D01*
X-177382Y-119340D01*
X-178007Y-120340D01*
X-178507Y-122007D01*
X-178632Y-123507D01*
X-178382Y-125007D01*
X-178007Y-126007D01*
X-177257Y-127007D01*
X-176382Y-127674D01*
X-175507Y-128007D01*
X-174632D01*
X-173757Y-127674D01*
X-173007Y-127174D01*
X-172382Y-126507D01*
G01X-168632Y-128007D02*
X-165507Y-118007D01*
X-162382Y-128007D01*
G01X-163507Y-124507D02*
X-167507D01*
G01X-158007Y-128007D02*
Y-118007D01*
X-154882D01*
X-153882Y-118507D01*
X-153257Y-119174D01*
X-153007Y-120507D01*
X-153257Y-121840D01*
X-154007Y-122673D01*
X-154882Y-123174D01*
X-158007D01*
G01X-154882D02*
X-153007Y-128007D01*
G01X-148257D02*
Y-118007D01*
X-145757D01*
X-144757Y-118507D01*
X-144007Y-119174D01*
X-143382Y-120173D01*
X-142882Y-121340D01*
X-142757Y-123007D01*
X-142882Y-124674D01*
X-143382Y-125840D01*
X-144007Y-126840D01*
X-144757Y-127507D01*
X-145757Y-128007D01*
X-148257D01*
G01X-128007D02*
Y-118007D01*
X-124882D01*
X-123882Y-118507D01*
X-123257Y-119174D01*
X-123007Y-120507D01*
X-123257Y-121840D01*
X-124007Y-122673D01*
X-124882Y-123174D01*
X-128007D01*
G01X-124882D02*
X-123007Y-128007D01*
G01X-113007D02*
X-118007D01*
Y-118007D01*
X-113007D01*
G01X-115007Y-122840D02*
X-118007D01*
G01X-107882Y-128007D02*
Y-118007D01*
X-103132D01*
G01X-104882Y-122840D02*
X-107882D01*
G01X-95507Y-128340D02*
X-95757Y-128173D01*
Y-127840D01*
X-95507Y-127674D01*
X-95257Y-127840D01*
Y-128173D01*
X-95507Y-128340D01*
G01Y-123840D02*
X-95757Y-123673D01*
Y-123340D01*
X-95507Y-123174D01*
X-95257Y-123340D01*
Y-123673D01*
X-95507Y-123840D01*
G01X-85507Y-118007D02*
Y-128007D01*
G01X-88382Y-118007D02*
X-82632D01*
G01X-75507Y-128007D02*
X-76257Y-127840D01*
X-77007Y-127174D01*
X-77507Y-126007D01*
X-77757Y-124674D01*
X-77507Y-123340D01*
X-77007Y-122174D01*
X-76257Y-121507D01*
X-75507Y-121340D01*
X-74757Y-121507D01*
X-74007Y-122174D01*
X-73507Y-123340D01*
X-73382Y-124674D01*
X-73507Y-126007D01*
X-74007Y-127174D01*
X-74757Y-127840D01*
X-75507Y-128007D01*
G01X-68632Y-121340D02*
X-67132Y-128007D01*
X-65507Y-121340D01*
X-63882Y-128007D01*
X-62382Y-121340D01*
G01X-57382Y-123507D02*
X-53382D01*
X-53757Y-122340D01*
X-54382Y-121674D01*
X-55257Y-121340D01*
X-56132Y-121507D01*
X-56882Y-122007D01*
X-57382Y-123174D01*
X-57632Y-124174D01*
Y-125173D01*
X-57382Y-126174D01*
X-56757Y-127174D01*
X-56007Y-127840D01*
X-55132Y-128007D01*
X-54257Y-127674D01*
X-53382Y-126674D01*
G01X-47257Y-128007D02*
Y-121340D01*
G01Y-122673D02*
X-46632Y-122007D01*
X-46007Y-121507D01*
X-45132Y-121340D01*
X-44507Y-121507D01*
X-43757Y-122007D01*
G01X-38382Y-128007D02*
Y-118007D01*
X-32632Y-128007D01*
Y-118007D01*
G01X-25507Y-128007D02*
X-26257Y-127840D01*
X-27007Y-127174D01*
X-27507Y-126007D01*
X-27757Y-124674D01*
X-27507Y-123340D01*
X-27007Y-122174D01*
X-26257Y-121507D01*
X-25507Y-121340D01*
X-24757Y-121507D01*
X-24007Y-122174D01*
X-23507Y-123340D01*
X-23382Y-124674D01*
X-23507Y-126007D01*
X-24007Y-127174D01*
X-24757Y-127840D01*
X-25507Y-128007D01*
G01X-13257Y-118007D02*
Y-128007D01*
G01Y-126507D02*
X-13757Y-127340D01*
X-14507Y-127840D01*
X-15382Y-128007D01*
X-16382Y-127674D01*
X-17132Y-126840D01*
X-17632Y-125840D01*
X-17757Y-124674D01*
X-17632Y-123507D01*
X-17132Y-122507D01*
X-16382Y-121674D01*
X-15382Y-121340D01*
X-14507Y-121507D01*
X-13882Y-121840D01*
X-13257Y-122507D01*
G01X-7382Y-123507D02*
X-3382D01*
X-3757Y-122340D01*
X-4382Y-121674D01*
X-5257Y-121340D01*
X-6132Y-121507D01*
X-6882Y-122007D01*
X-7382Y-123174D01*
X-7632Y-124174D01*
Y-125173D01*
X-7382Y-126174D01*
X-6757Y-127174D01*
X-6007Y-127840D01*
X-5132Y-128007D01*
X-4257Y-127674D01*
X-3382Y-126674D01*
G01X17243Y-118840D02*
X16493Y-118340D01*
X15618Y-118007D01*
X14618D01*
X13493Y-118507D01*
X12618Y-119340D01*
X11993Y-120340D01*
X11493Y-122007D01*
X11368Y-123507D01*
X11618Y-125007D01*
X11993Y-126007D01*
X12743Y-127007D01*
X13618Y-127674D01*
X14493Y-128007D01*
X15368D01*
X16243Y-127674D01*
X16993Y-127174D01*
X17618Y-126507D01*
G01X24493Y-128007D02*
X23493Y-127840D01*
X22618Y-127174D01*
X21868Y-126174D01*
X21368Y-125007D01*
X21118Y-123673D01*
Y-122340D01*
X21368Y-121007D01*
X21868Y-119840D01*
X22618Y-118840D01*
X23493Y-118173D01*
X24493Y-118007D01*
X25493Y-118173D01*
X26368Y-118840D01*
X27118Y-119840D01*
X27618Y-121007D01*
X27868Y-122340D01*
Y-123673D01*
X27618Y-125007D01*
X27118Y-126174D01*
X26368Y-127174D01*
X25493Y-127840D01*
X24493Y-128007D01*
G01X31243D02*
Y-118007D01*
X34493Y-126340D01*
X37743Y-118007D01*
Y-128007D01*
G01X41243D02*
Y-118007D01*
X44493Y-126340D01*
X47743Y-118007D01*
Y-128007D01*
G01X61368Y-118007D02*
X64493Y-128007D01*
X67618Y-118007D01*
G01X74493Y-128007D02*
Y-118007D01*
X72993Y-120007D01*
G01Y-128007D02*
X75993D01*
G01X91993D02*
Y-118007D01*
X95118D01*
X96118Y-118507D01*
X96743Y-119174D01*
X96993Y-120507D01*
X96743Y-121840D01*
X95993Y-122673D01*
X95118Y-123174D01*
X91993D01*
G01X95118D02*
X96993Y-128007D01*
G01X102618Y-123507D02*
X106618D01*
X106243Y-122340D01*
X105618Y-121674D01*
X104743Y-121340D01*
X103868Y-121507D01*
X103118Y-122007D01*
X102618Y-123174D01*
X102368Y-124174D01*
Y-125173D01*
X102618Y-126174D01*
X103243Y-127174D01*
X103993Y-127840D01*
X104868Y-128007D01*
X105743Y-127674D01*
X106618Y-126674D01*
G01X112243Y-121340D02*
X114493Y-128007D01*
X116743Y-121340D01*
G01X122868Y-124674D02*
X126118D01*
G01X135493Y-122673D02*
X135993Y-122174D01*
X136368Y-121340D01*
X136618Y-120173D01*
X136368Y-119174D01*
X135868Y-118507D01*
X134993Y-118007D01*
X131618D01*
Y-128007D01*
X135743D01*
X136618Y-127340D01*
X137118Y-126340D01*
X137368Y-125173D01*
X137118Y-124007D01*
X136368Y-123007D01*
X135493Y-122673D01*
X131618D01*
G01X-177882Y-146507D02*
Y-136507D01*
X-173132D01*
G01X-174882Y-141340D02*
X-177882D01*
G01X-167007Y-136507D02*
X-164007D01*
G01X-165507D02*
Y-146507D01*
G01X-167007D02*
X-164007D01*
G01X-158007Y-136507D02*
Y-146507D01*
X-153007D01*
G01X-148757D02*
Y-136507D01*
X-145507Y-144840D01*
X-142257Y-136507D01*
Y-146507D01*
G01X-128007Y-136507D02*
Y-146507D01*
X-123007D01*
G01X-118632D02*
X-115507Y-136507D01*
X-112382Y-146507D01*
G01X-113507Y-143007D02*
X-117507D01*
G01X-105507Y-146507D02*
Y-142007D01*
X-108007Y-136507D01*
G01X-103007D02*
X-105507Y-142007D01*
G01X-93007Y-146507D02*
X-98007D01*
Y-136507D01*
X-93007D01*
G01X-95007Y-141340D02*
X-98007D01*
G01X-88007Y-146507D02*
Y-136507D01*
X-84882D01*
X-83882Y-137007D01*
X-83257Y-137673D01*
X-83007Y-139007D01*
X-83257Y-140340D01*
X-84007Y-141173D01*
X-84882Y-141674D01*
X-88007D01*
G01X-84882D02*
X-83007Y-146507D01*
G01X-75507Y-146840D02*
X-75757Y-146673D01*
Y-146340D01*
X-75507Y-146174D01*
X-75257Y-146340D01*
Y-146673D01*
X-75507Y-146840D01*
G01Y-142340D02*
X-75757Y-142174D01*
Y-141840D01*
X-75507Y-141674D01*
X-75257Y-141840D01*
Y-142174D01*
X-75507Y-142340D01*
G01X-178257Y-88007D02*
Y-78007D01*
X-175757D01*
X-174757Y-78507D01*
X-174007Y-79174D01*
X-173382Y-80173D01*
X-172882Y-81340D01*
X-172757Y-83007D01*
X-172882Y-84674D01*
X-173382Y-85840D01*
X-174007Y-86840D01*
X-174757Y-87507D01*
X-175757Y-88007D01*
X-178257D01*
G01X-168632D02*
X-165507Y-78007D01*
X-162382Y-88007D01*
G01X-163507Y-84507D02*
X-167507D01*
G01X-155507Y-78007D02*
Y-88007D01*
G01X-158382Y-78007D02*
X-152632D01*
G01X-143007Y-88007D02*
X-148007D01*
Y-78007D01*
X-143007D01*
G01X-145007Y-82840D02*
X-148007D01*
G01X-135507Y-88340D02*
X-135757Y-88173D01*
Y-87840D01*
X-135507Y-87674D01*
X-135257Y-87840D01*
Y-88173D01*
X-135507Y-88340D01*
G01Y-83840D02*
X-135757Y-83674D01*
Y-83340D01*
X-135507Y-83174D01*
X-135257Y-83340D01*
Y-83674D01*
X-135507Y-83840D01*
G01X-125507Y-78007D02*
X-126507Y-78340D01*
X-127257Y-79174D01*
X-127757Y-80173D01*
X-128132Y-81507D01*
X-128257Y-83007D01*
X-128132Y-84507D01*
X-127757Y-85840D01*
X-127257Y-86840D01*
X-126507Y-87674D01*
X-125507Y-88007D01*
X-124507Y-87674D01*
X-123757Y-86840D01*
X-123257Y-85840D01*
X-122882Y-84507D01*
X-122757Y-83007D01*
X-122882Y-81507D01*
X-123257Y-80173D01*
X-123757Y-79174D01*
X-124507Y-78340D01*
X-125507Y-78007D01*
G01X-114007Y-88007D02*
Y-78007D01*
X-118632Y-85174D01*
X-112382D01*
G01X-107132Y-84674D02*
X-103882D01*
G01X-98007Y-86007D02*
X-97382Y-87007D01*
X-96632Y-87674D01*
X-95757Y-88007D01*
X-94757Y-87674D01*
X-94007Y-87007D01*
X-93257Y-86007D01*
X-93007Y-84674D01*
Y-78007D01*
G01X-88257D02*
Y-85174D01*
X-87757Y-86674D01*
X-86757Y-87674D01*
X-85507Y-88007D01*
X-84257Y-87674D01*
X-83257Y-86674D01*
X-82757Y-85174D01*
Y-78007D01*
G01X-78007D02*
Y-88007D01*
X-73007D01*
G01X-65507D02*
Y-83507D01*
X-68007Y-78007D01*
G01X-63007D02*
X-65507Y-83507D01*
G01X-57132Y-84674D02*
X-53882D01*
G01X-47882Y-79673D02*
X-47132Y-78674D01*
X-46257Y-78173D01*
X-45257Y-78007D01*
X-44007Y-78340D01*
X-43132Y-79174D01*
X-42882Y-80173D01*
X-43007Y-81174D01*
X-43507Y-82007D01*
X-46007Y-83674D01*
X-47132Y-84840D01*
X-47882Y-86507D01*
X-48132Y-88007D01*
X-42882D01*
G01X-35507Y-78007D02*
X-36507Y-78340D01*
X-37257Y-79174D01*
X-37757Y-80173D01*
X-38132Y-81507D01*
X-38257Y-83007D01*
X-38132Y-84507D01*
X-37757Y-85840D01*
X-37257Y-86840D01*
X-36507Y-87674D01*
X-35507Y-88007D01*
X-34507Y-87674D01*
X-33757Y-86840D01*
X-33257Y-85840D01*
X-32882Y-84507D01*
X-32757Y-83007D01*
X-32882Y-81507D01*
X-33257Y-80173D01*
X-33757Y-79174D01*
X-34507Y-78340D01*
X-35507Y-78007D01*
G01X-27882Y-79673D02*
X-27132Y-78674D01*
X-26257Y-78173D01*
X-25257Y-78007D01*
X-24007Y-78340D01*
X-23132Y-79174D01*
X-22882Y-80173D01*
X-23007Y-81174D01*
X-23507Y-82007D01*
X-26007Y-83674D01*
X-27132Y-84840D01*
X-27882Y-86507D01*
X-28132Y-88007D01*
X-22882D01*
G01X-15507Y-78007D02*
X-16507Y-78340D01*
X-17257Y-79174D01*
X-17757Y-80173D01*
X-18132Y-81507D01*
X-18257Y-83007D01*
X-18132Y-84507D01*
X-17757Y-85840D01*
X-17257Y-86840D01*
X-16507Y-87674D01*
X-15507Y-88007D01*
X-14507Y-87674D01*
X-13757Y-86840D01*
X-13257Y-85840D01*
X-12882Y-84507D01*
X-12757Y-83007D01*
X-12882Y-81507D01*
X-13257Y-80173D01*
X-13757Y-79174D01*
X-14507Y-78340D01*
X-15507Y-78007D01*
G01X13275Y-138644D02*
Y-148644D01*
X18275D01*
G01X23025Y-147144D02*
X23775Y-147977D01*
X24650Y-148477D01*
X25775Y-148644D01*
X26900Y-148310D01*
X27775Y-147644D01*
X28400Y-146477D01*
X28525Y-145144D01*
X28275Y-143811D01*
X27650Y-142977D01*
X26775Y-142311D01*
X25900Y-142144D01*
X25025Y-142311D01*
X23900Y-142977D01*
X24275Y-138644D01*
X27650D01*
G01X16993Y-88007D02*
Y-78007D01*
X19993D01*
X20993Y-78507D01*
X21743Y-79673D01*
X21993Y-81007D01*
X21743Y-82340D01*
X21118Y-83340D01*
X19993Y-83840D01*
X16993D01*
G01X26368Y-88007D02*
X29493Y-78007D01*
X32618Y-88007D01*
G01X31493Y-84507D02*
X27493D01*
G01X36993Y-88007D02*
Y-78007D01*
X40118D01*
X41118Y-78507D01*
X41743Y-79174D01*
X41993Y-80507D01*
X41743Y-81840D01*
X40993Y-82673D01*
X40118Y-83174D01*
X36993D01*
G01X40118D02*
X41993Y-88007D01*
G01X49493Y-78007D02*
Y-88007D01*
G01X46618Y-78007D02*
X52368D01*
G01X66618Y-88007D02*
Y-78007D01*
X72368Y-88007D01*
Y-78007D01*
G01X76743D02*
Y-85174D01*
X77243Y-86674D01*
X78243Y-87674D01*
X79493Y-88007D01*
X80743Y-87674D01*
X81743Y-86674D01*
X82243Y-85174D01*
Y-78007D01*
G01X86243Y-88007D02*
Y-78007D01*
X89493Y-86340D01*
X92743Y-78007D01*
Y-88007D01*
G01X100493Y-82673D02*
X100993Y-82174D01*
X101368Y-81340D01*
X101618Y-80173D01*
X101368Y-79174D01*
X100868Y-78507D01*
X99993Y-78007D01*
X96618D01*
Y-88007D01*
X100743D01*
X101618Y-87340D01*
X102118Y-86340D01*
X102368Y-85174D01*
X102118Y-84007D01*
X101368Y-83007D01*
X100493Y-82673D01*
X96618D01*
G01X111993Y-88007D02*
X106993D01*
Y-78007D01*
X111993D01*
G01X109993Y-82840D02*
X106993D01*
G01X116993Y-88007D02*
Y-78007D01*
X120118D01*
X121118Y-78507D01*
X121743Y-79174D01*
X121993Y-80507D01*
X121743Y-81840D01*
X120993Y-82673D01*
X120118Y-83174D01*
X116993D01*
G01X120118D02*
X121993Y-88007D01*
G01X129493Y-88340D02*
X129243Y-88173D01*
Y-87840D01*
X129493Y-87674D01*
X129743Y-87840D01*
Y-88173D01*
X129493Y-88340D01*
G01Y-83840D02*
X129243Y-83674D01*
Y-83340D01*
X129493Y-83174D01*
X129743Y-83340D01*
Y-83674D01*
X129493Y-83840D01*
G01X139493Y-78007D02*
Y-88007D01*
G01X136618Y-78007D02*
X142368D01*
G01X146618Y-88007D02*
Y-78007D01*
X152368Y-88007D01*
Y-78007D01*
G01X157868Y-84674D02*
X161118D01*
G01X172243Y-78840D02*
X171493Y-78340D01*
X170618Y-78007D01*
X169618D01*
X168493Y-78507D01*
X167618Y-79340D01*
X166993Y-80340D01*
X166493Y-82007D01*
X166368Y-83507D01*
X166618Y-85007D01*
X166993Y-86007D01*
X167743Y-87007D01*
X168618Y-87674D01*
X169493Y-88007D01*
X170368D01*
X171243Y-87674D01*
X171993Y-87174D01*
X172618Y-86507D01*
G01X179493Y-88007D02*
X178493Y-87840D01*
X177618Y-87174D01*
X176868Y-86174D01*
X176368Y-85007D01*
X176118Y-83674D01*
Y-82340D01*
X176368Y-81007D01*
X176868Y-79840D01*
X177618Y-78840D01*
X178493Y-78173D01*
X179493Y-78007D01*
X180493Y-78173D01*
X181368Y-78840D01*
X182118Y-79840D01*
X182618Y-81007D01*
X182868Y-82340D01*
Y-83674D01*
X182618Y-85007D01*
X182118Y-86174D01*
X181368Y-87174D01*
X180493Y-87840D01*
X179493Y-88007D01*
G01X186243D02*
Y-78007D01*
X189493Y-86340D01*
X192743Y-78007D01*
Y-88007D01*
G01X196243D02*
Y-78007D01*
X199493Y-86340D01*
X202743Y-78007D01*
Y-88007D01*
G01X207868Y-84674D02*
X211118D01*
G01X216368Y-78007D02*
X219493Y-88007D01*
X222618Y-78007D01*
G01X229493Y-88007D02*
Y-78007D01*
X227993Y-80007D01*
G01Y-88007D02*
X230993D01*
G01X237868Y-84674D02*
X241118D01*
G01X246993Y-88007D02*
Y-78007D01*
X250118D01*
X251118Y-78507D01*
X251743Y-79174D01*
X251993Y-80507D01*
X251743Y-81840D01*
X250993Y-82673D01*
X250118Y-83174D01*
X246993D01*
G01X250118D02*
X251993Y-88007D01*
G01X261993D02*
X256993D01*
Y-78007D01*
X261993D01*
G01X259993Y-82840D02*
X256993D01*
G01X266368Y-78007D02*
X269493Y-88007D01*
X272618Y-78007D01*
G01X280493Y-82673D02*
X280993Y-82174D01*
X281368Y-81340D01*
X281618Y-80173D01*
X281368Y-79174D01*
X280868Y-78507D01*
X279993Y-78007D01*
X276618D01*
Y-88007D01*
X280743D01*
X281618Y-87340D01*
X282118Y-86340D01*
X282368Y-85174D01*
X282118Y-84007D01*
X281368Y-83007D01*
X280493Y-82673D01*
X276618D01*
G01X12000Y-2D02*
X337997D01*
G01Y399998D02*
X12000D01*
G54D19*
G01X214996Y65064D02*
X213545Y63613D01*
X209949D01*
X202138Y55802D01*
Y39975D01*
X199466Y37303D01*
X188973D01*
X186546Y39730D01*
M02*
