G04 ================== begin FILE IDENTIFICATION RECORD ==================*
G04 Layout Name:  E:/CAD/CAD/FACEBOOK/COM V1/WORK/22-12-20/COM_V1_P2_21-12-2020_4.brd*
G04 Film Name:    COM_V1_P2-L2.gbr*
G04 File Format:  Gerber RS274X*
G04 File Origin:  Cadence Allegro 16.6-2015-S108*
G04 Origin Date:  Fri Dec 25 11:50:54 2020*
G04 *
G04 Layer:  DRAWING FORMAT/FILM_LABEL_OUTLINE*
G04 Layer:  VIA CLASS/L2_GND*
G04 Layer:  PIN/L2_GND*
G04 Layer:  ETCH/L2_GND*
G04 Layer:  BOARD GEOMETRY/OUTLINE*
G04 Layer:  BOARD GEOMETRY/TOOLING_CORNERS*
G04 *
G04 Offset:    (0.000 0.000)*
G04 Mirror:    No*
G04 Mode:      Positive*
G04 Rotation:  0*
G04 FullContactRelief:  No*
G04 UndefLineWidth:     6.000*
G04 ================== end FILE IDENTIFICATION RECORD ====================*
%FSLAX55Y55*MOIN*%
%IR0*IPPOS*OFA0.00000B0.00000*MIA0B0*SFA1.00000B1.00000*%
%ADD12C,.169291*%
%ADD10C,.022*%
%ADD11C,.024*%
%ADD15C,.016*%
%ADD14C,.026*%
%ADD13C,.018*%
%ADD16C,.067*%
%ADD17C,.055118*%
%ADD18C,.005*%
%ADD19C,.006*%
%ADD20C,.01*%
%ADD21C,.02*%
%ADD24C,.032004*%
%ADD28C,.024004*%
%ADD25C,.034004*%
%ADD23C,.026004*%
%ADD29C,.036004*%
%ADD22C,.028004*%
%ADD30C,.067122*%
%ADD27C,.087004*%
%ADD26C,.079004*%
%ADD31C,.082996*%
G75*
%LPD*%
G75*
G36*
G01X13407Y3063D02*
X2826Y13644D01*
Y386497D01*
X13733Y397403D01*
X319983D01*
X320449Y396937D01*
X337100D01*
X346462Y387575D01*
Y331896D01*
G02X345780Y331612I-400J0D01*
G03Y329626I-987J-993D01*
G02X346462Y329343I282J-284D01*
G01Y113956D01*
G02X346023Y113558I-400J0D01*
G03Y110770I-136J-1394D01*
G02X346462Y110372I39J-398D01*
G01Y53813D01*
G02X345857Y53469I-400J0D01*
G03X345460Y53629I-716J-1203D01*
G02X345152Y54040I91J389D01*
G03X342355Y54057I-1398J76D01*
G02X342024Y53646I-400J-17D01*
G03X343382Y51425I240J-1380D01*
G02X344022I320J-240D01*
G03X345857Y51063I1119J841D01*
G02X346462Y50719I205J-344D01*
G01Y13353D01*
X336172Y3063D01*
X139378D01*
G02X139089Y3740I0J400D01*
G03X137788Y6440I-1156J1106D01*
G02X137395Y7019I-36J398D01*
G03X137509Y8171I-1427J723D01*
G02X137912Y8678I385J107D01*
G03X137892Y11874I72J1599D01*
G02X137478Y12360I-23J399D01*
G03X137516Y12689I-1562J347D01*
G02X137960Y13082I400J-4D01*
G03X137918Y16257I179J1590D01*
G02X137462Y16671I-55J396D01*
G03X134266Y16836I-1599J70D01*
G02X133811Y16464I-399J24D01*
G03X133858Y13302I-223J-1585D01*
G02X134324Y12868I67J-394D01*
G03X134326Y12528I1592J-161D01*
G02X133932Y12084I-397J-45D01*
G03X134080Y8888I18J-1600D01*
G02X134483Y8340I32J-399D01*
G03X134537Y7024I1484J-598D01*
G02X134165Y6445I-357J-179D01*
G03X132950Y3740I-59J-1599D01*
G02X132661Y3063I-289J-277D01*
G01X13407D01*
G37*
%LPC*%
G75*
G36*
G01X248614Y369900D02*
G03X247977I-318J-242D01*
G02X245454Y372423I-1432J1091D01*
G03Y373059I-242J318D01*
G02Y375923I1091J1432D01*
G03Y376559I-242J318D01*
G02X247977Y379082I1091J1432D01*
G03X248614I318J242D01*
G02X251477I1432J-1091D01*
G03X252114I318J242D01*
G02X252454Y379423I1432J-1091D01*
G03Y380059I-242J318D01*
G02Y382923I1091J1432D01*
G03Y383559I-242J318D01*
G02X254636I1091J1432D01*
G03Y382923I242J-318D01*
G02Y380059I-1091J-1432D01*
G03Y379423I242J-318D01*
G02Y376559I-1091J-1432D01*
G03Y375923I242J-318D01*
G02Y373059I-1091J-1432D01*
G03Y372423I242J-318D01*
G02X252114Y369900I-1091J-1432D01*
G03X251477I-318J-242D01*
G02X248614I-1432J1091D01*
G37*
G36*
G01X224750Y356171D02*
G03X224317Y355777I-33J-399D01*
G02X221650Y355196I-1400J15D01*
G03X221001Y355306I-362J-170D01*
G02X219903Y357680I-1003J977D01*
G03X220275Y358082I-27J399D01*
G02X222930Y357470I1400J10D01*
G03X223085Y357182I179J-89D01*
G02X223235Y357156I-167J-1390D01*
G03X223479Y357377I45J195D01*
G02X225733Y358666I1387J189D01*
G03X226258Y358692I248J314D01*
G02X228423Y358409I969J-1010D01*
G03X228689Y358337I171J104D01*
G02X228158Y356377I665J-1232D01*
G03X227892Y356449I-171J-104D01*
G02X226360Y356582I-665J1232D01*
G03X225836Y356556I-248J-314D01*
G02X224750Y356171I-969J1010D01*
G37*
G36*
G01X300772Y357203D02*
G03X301164Y356724I392J-79D01*
G02X299790Y355600I-1J-1400D01*
G03X299398Y356079I-392J79D01*
G02X300772Y357203I1J1400D01*
G37*
G36*
G01X243700Y353691D02*
G03X243188Y353557I-180J-357D01*
G02X241019Y353575I-1079J726D01*
G03X240457Y353686I-335J-218D01*
G02X240809Y355465I-738J1070D01*
G03X241371Y355354I335J218D01*
G02X242696Y355444I738J-1071D01*
G03X243208Y355577I180J357D01*
G02X243700Y353691I1079J-726D01*
G37*
G36*
G01X274605Y344876D02*
G03X274117Y344661I-124J-380D01*
G02X271804Y346180I-1275J579D01*
G03Y346717I-296J269D01*
G02X274242Y347687I1037J941D01*
G03X274516Y347505I200J4D01*
G02X274656Y347553I524J-1298D01*
G03X274940Y348012I-110J385D01*
G02X277328Y349241I1376J261D01*
G03X277875Y349211I289J276D01*
G02X279379Y346877I903J-1070D01*
G03X279179Y346369I172J-361D01*
G02X276668Y345146I-1302J-514D01*
G03X276038Y345225I-345J-202D01*
G02X274605Y344876I-998J982D01*
G37*
G36*
G01X133472Y339942D02*
G03X133377Y339359I219J-335D01*
G02X131646Y339642I-1020J-806D01*
G03X131742Y340224I-219J335D01*
G02X133285Y342221I1020J806D01*
G03X133541Y342309I80J183D01*
G02X135663Y342543I1142J-621D01*
G03X136263Y342540I301J263D01*
G02X136254Y340820I971J-865D01*
G03X135654Y340824I-301J-263D01*
G02X134160Y340498I-971J864D01*
G03X133904Y340410I-80J-183D01*
G02X133472Y339942I-1142J621D01*
G37*
G36*
G01X244327Y341074D02*
G03X244344Y341681I-252J311D01*
G02X244237Y341790I873J963D01*
G03X243635Y341791I-302J-263D01*
G02X243639Y343504I-976J859D01*
G03X244241Y343503I302J263D01*
G02X246036Y341635I976J-859D01*
G03X246019Y341028I252J-311D01*
G02X246112Y339194I-873J-963D01*
G03X246113Y338925I149J-134D01*
G02X244186Y338919I-960J-877D01*
G03X244186Y339188I-149J134D01*
G02X244327Y341074I960J876D01*
G37*
G36*
G01X84921Y337605D02*
G03X85211Y337689I108J168D01*
G02X85737Y338265I1179J-548D01*
G03X85898Y338781I-201J346D01*
G02X87727Y338211I1176J554D01*
G03X87566Y337695I201J-346D01*
G02X85828Y335968I-1176J-554D01*
G03X85317Y335820I-173J-361D01*
G02X83039Y337064I-1101J692D01*
G03X82902Y337565I-362J170D01*
G02X84734Y337952I730J1076D01*
G03X84812Y337669I170J-106D01*
G02X84921Y337605I-596J-1156D01*
G37*
G36*
G01X265889Y333314D02*
G03X265507Y333690I-399J-24D01*
G02X264748Y336224I61J1399D01*
G03X264799Y336829I-234J324D01*
G02X266535Y336728I924J914D01*
G03X266514Y336120I250J-312D01*
G02X266968Y335083I-946J-1032D01*
G03X267326Y334684I400J-1D01*
G02X265889Y333314I-139J-1293D01*
G37*
G36*
G01X250977Y333157D02*
G03X250544Y332864I-47J-397D01*
G02X249357Y334502I-1255J340D01*
G03X249770Y334823I21J399D01*
G02X251876Y335741I1373J-276D01*
G03X252148Y335802I105J170D01*
G02X254160Y336005I1088J-712D01*
G03X254431Y335993I142J141D01*
G02X254346Y334084I839J-994D01*
G03X254075Y334096I-142J-141D01*
G02X252631Y333940I-839J994D01*
G03X252363Y333861I-93J-177D01*
G02X250977Y333157I-1220J687D01*
G37*
G36*
G01X259582Y333089D02*
G03X259400Y332874I17J-199D01*
G02X257907Y334060I-1296J-99D01*
G03X258075Y334286I-30J198D01*
G02X259817Y335838I1386J197D01*
G03X260317Y336180I102J387D01*
G02X261352Y334669I1391J-156D01*
G03X260852Y334327I-102J-387D01*
G02X259582Y333089I-1391J156D01*
G37*
G36*
G01X71492Y328191D02*
G03X71042Y328467I-382J-118D01*
G02X72064Y330133I-220J1281D01*
G03X72514Y329857I382J118D01*
G02X71492Y328191I220J-1281D01*
G37*
G36*
G01X150729Y326264D02*
G03X150513Y325723I147J-372D01*
G02X148856Y326385I-1179J-548D01*
G03X149071Y326925I-147J372D01*
G02X150729Y326264I1179J548D01*
G37*
G36*
G01X270362Y324792D02*
G03X270890Y324559I376J137D01*
G02X270164Y322909I494J-1203D01*
G03X269636Y323142I-376J-137D01*
G02X270362Y324792I-494J1203D01*
G37*
G36*
G01X279992Y324460D02*
G03X280266Y324394I170J105D01*
G02X279841Y322601I679J-1109D01*
G03X279566Y322666I-170J-105D01*
G02X278230Y322652I-680J1108D01*
G03X277967Y322597I-101J-173D01*
G02X275820Y322656I-1054J762D01*
G03X275554Y322723I-168J-108D01*
G02X276101Y324620I-681J1224D01*
G03X276361Y324536I175J96D01*
G02X277570Y324481I552J-1177D01*
G03X277833Y324537I101J173D01*
G02X279992Y324460I1054J-762D01*
G37*
G36*
G01X288943Y322795D02*
G03X288395Y322628I-193J-350D01*
G02X287866Y324362I-1156J595D01*
G03X288415Y324529I193J350D01*
G02X288943Y322795I1156J-595D01*
G37*
G36*
G01X306900Y329141D02*
G03X307518Y328946I380J126D01*
G02X305886Y325028I2475J-3331D01*
G03X305411Y325363I-396J-57D01*
G02X304357Y327664I-255J1275D01*
G03X304401Y327931I-123J158D01*
G02X306900Y329141I1170J769D01*
G37*
G36*
G01X237286Y321724D02*
G03X236836Y321489I-82J-392D01*
G02X235833Y323406I-1289J547D01*
G03X236283Y323642I82J392D01*
G02X237286Y321724I1289J-547D01*
G37*
G36*
G01X336658Y319142D02*
G03Y319416I-145J137D01*
G02X336920Y321559I1017J962D01*
G03X336935Y322223I-215J337D01*
G02X339337Y321466I2390J3393D01*
G03X338969Y320913I1J-400D01*
G02X338691Y319416I-1294J-534D01*
G03Y319142I145J-137D01*
G02X336658I-1017J-963D01*
G37*
G36*
G01X212883Y319451D02*
G03X213398Y319706I134J377D01*
G02X213929Y320427I1334J-427D01*
G03X214013Y321004I-229J328D01*
G02X214102Y322851I1095J873D01*
G03X214140Y323363I-287J278D01*
G02X216282Y323207I1136J818D01*
G03X216244Y322695I287J-278D01*
G02X215910Y320729I-1136J-818D01*
G03X215826Y320152I229J-328D01*
G02X214262Y317959I-1095J-873D01*
G03X213748Y317704I-134J-377D01*
G02X212883Y319451I-1334J427D01*
G37*
G36*
G01X248671Y318281D02*
G03X248829Y317780I367J-160D01*
G02X246888Y317289I-730J-1195D01*
G03X246799Y317571I-173J101D01*
G02X246702Y317621I589J1270D01*
G03X246436Y317556I-98J-174D01*
G02X244604Y319331I-1091J707D01*
G03X244712Y319877I-228J329D01*
G02X247288Y320621I1176J760D01*
G03X247621Y320222I400J-4D01*
G02X248671Y318281I-233J-1381D01*
G37*
G36*
G01X260241Y315534D02*
G03X260756Y315516I268J297D01*
G02X260613Y313440I863J-1102D01*
G03X260100Y313493I-287J-278D01*
G02X260241Y315534I-730J1076D01*
G37*
G36*
G01X306475Y312748D02*
G03X306200I-138J-145D01*
G02Y314781I-962J1017D01*
G03X306475I137J145D01*
G02Y312748I962J-1017D01*
G37*
G36*
G01X196898Y312118D02*
G03X197420Y312086I279J287D01*
G02X197294Y309972I851J-1112D01*
G03X196772Y310003I-279J-287D01*
G02X196898Y312118I-851J1112D01*
G37*
G36*
G01X234484Y309777D02*
G03X233981Y309645I-174J-360D01*
G02X233442Y311705I-1150J799D01*
G03X233945Y311836I174J360D01*
G02X235739Y312280I1150J-799D01*
G03X236291Y312480I184J355D01*
G02X237934Y313289I1289J-546D01*
G03X238421Y313570I101J387D01*
G02X239418Y311846I1351J-369D01*
G03X238931Y311564I-101J-387D01*
G02X236936Y310691I-1351J369D01*
G03X236384Y310491I-184J-355D01*
G02X234484Y309777I-1289J546D01*
G37*
G36*
G01X297823Y310429D02*
G03Y310154I145J-137D01*
G02X295790I-1017J-962D01*
G03Y310429I-145J138D01*
G02X295434Y311114I1017J963D01*
G03X295202Y311270I-196J-40D01*
G02X296218Y312890I-238J1278D01*
G03X296461Y312748I193J52D01*
G02X297140Y312752I346J-1357D01*
G03X297626Y313058I95J389D01*
G02X298663Y311408I1370J-289D01*
G03X298176Y311102I-95J-389D01*
G02X297823Y310429I-1370J289D01*
G37*
G36*
G01X252503Y308477D02*
G03X251934Y308306I-208J-342D01*
G02X251457Y310065I-1265J601D01*
G03X252034Y310206I225J331D01*
G02X252219Y310466I1144J-618D01*
G03X252221Y310734I-147J135D01*
G02X252229Y312466I974J862D01*
G03X252247Y312982I-297J268D01*
G02X254233Y312915I1021J805D01*
G03X254216Y312400I297J-268D01*
G02X254154Y310717I-1021J-805D01*
G03X254152Y310450I147J-135D01*
G02X252503Y308477I-974J-862D01*
G37*
G36*
G01X305855Y307126D02*
G03Y306851I145J-137D01*
G02X303821I-1017J-963D01*
G03Y307126I-145J137D01*
G02X305855I1017J963D01*
G37*
G36*
G01X284916Y304100D02*
G03X284641I-137J-145D01*
G02Y306133I-962J1017D01*
G03X284916I138J145D01*
G02Y304100I962J-1017D01*
G37*
G36*
G01X321063Y306270D02*
G03X321139Y305677I302J-263D01*
G02X319382Y305407I-735J-1073D01*
G03X319276Y305995I-315J247D01*
G02X318990Y308151I731J1194D01*
G03Y308426I-145J137D01*
G02X318692Y309868I1017J963D01*
G03X318402Y310396I-376J137D01*
G02X317729Y312548I281J1269D01*
G03Y313092I-294J272D01*
G02X319637I954J883D01*
G03Y312548I294J-272D01*
G02X319926Y311282I-954J-883D01*
G03X320241Y310769I382J-118D01*
G02X321024Y308426I-234J-1381D01*
G03Y308151I145J-137D01*
G02X321063Y306270I-1017J-962D01*
G37*
G36*
G01X300568Y302116D02*
G03X300293I-137J-145D01*
G02Y304150I-962J1017D01*
G03X300568I138J145D01*
G02Y302116I962J-1017D01*
G37*
G36*
G01X288067Y300850D02*
G03Y300575I145J-137D01*
G02X286033I-1017J-962D01*
G03Y300850I-145J138D01*
G02X288067I1017J962D01*
G37*
G36*
G01X263186Y294518D02*
G03X262911I-137J-145D01*
G02Y296552I-963J1017D01*
G03X263186I137J145D01*
G02Y294518I962J-1017D01*
G37*
G36*
G01X307967Y295375D02*
G03Y294832I294J-272D01*
G02X306059I-954J-883D01*
G03Y295375I-294J272D01*
G02X306427Y297419I954J883D01*
G03X306524Y297668I-90J179D01*
G02X308329Y296960I1219J453D01*
G03X308232Y296712I90J-179D01*
G02X307967Y295375I-1219J-453D01*
G37*
G36*
G01X125961Y292322D02*
G03X125442Y292316I-256J-307D01*
G02X123660Y292381I-856J978D01*
G03X123110Y292399I-285J-281D01*
G02X123172Y294285I-863J973D01*
G03X123722Y294267I285J281D01*
G02X125419Y294292I863J-972D01*
G03X125938Y294298I256J307D01*
G02X125961Y292322I856J-978D01*
G37*
G36*
G01X233528Y292461D02*
G03Y291921I295J-270D01*
G02X231463I-1033J-945D01*
G03Y292461I-295J270D01*
G02X233528I1033J945D01*
G37*
G36*
G01X28686Y292140D02*
G03Y291511I247J-314D01*
G02X26582I-1052J-1336D01*
G03Y292140I-247J314D01*
G02X28686I1052J1336D01*
G37*
G36*
G01X251767Y290218D02*
G03X251984Y290389I19J199D01*
G02X252327Y291100I1287J-182D01*
G03X252319Y291658I-291J275D01*
G02X252122Y293244I919J919D01*
G03X252023Y293765I-343J205D01*
G02X251906Y295878I857J1107D01*
G03X251942Y296413I-278J287D01*
G02X251664Y297031I1100J866D01*
G03X251267Y297360I-394J-71D01*
G02X251484Y299941I-9J1300D01*
G03X251934Y300211I70J394D01*
G02X254179Y298716I1331J-433D01*
G03X254129Y298161I261J-303D01*
G02X254016Y296273I-1087J-882D01*
G03X253980Y295738I278J-287D01*
G02X254034Y294079I-1100J-866D01*
G03X254099Y293552I330J-227D01*
G02X254183Y291684I-860J-975D01*
G03X254191Y291126I291J-275D01*
G02X253147Y288913I-919J-919D01*
G03X252930Y288742I-19J-199D01*
G02X251767Y290218I-1287J182D01*
G37*
G36*
G01X319680Y289390D02*
G03X319680Y288877I307J-257D01*
G02X317686Y288877I-997J-834D01*
G03X317686Y289390I-307J257D01*
G02X319680Y289390I997J834D01*
G37*
G36*
G01X242074Y291532D02*
G03X242229Y291763I-42J195D01*
G02X243869Y290741I1280J227D01*
G03X243731Y290501I55J-192D01*
G02X242762Y288819I-1359J-337D01*
G03X242624Y288576I56J-192D01*
G02X242666Y288187I-1257J-331D01*
G03X243039Y287770I400J-18D01*
G02X243799Y287482I-94J-1397D01*
G03X244075Y287514I122J158D01*
G02X244301Y285514I1081J-890D01*
G03X244025Y285483I-122J-158D01*
G02X241552Y286517I-1081J890D01*
G03X241204Y286955I-398J41D01*
G02X240923Y289467I163J1290D01*
G03X241044Y289719I-68J188D01*
G02X242074Y291532I1328J445D01*
G37*
G36*
G01X188457Y286794D02*
G03X188160Y286358I100J-387D01*
G02X186544Y287458I-1290J-159D01*
G03X186840Y287894I-100J387D01*
G02X186835Y288160I1290J159D01*
G03X186456Y288592I-399J33D01*
G02X187816Y289784I64J1299D01*
G03X188195Y289351I399J-33D01*
G02X188457Y286794I-64J-1299D01*
G37*
G36*
G01X343259Y287501D02*
G03Y286958I294J-272D01*
G02X341351I-954J-883D01*
G03Y287501I-294J272D01*
G02X343259I954J883D01*
G37*
G36*
G01X330563Y277293D02*
G03X330299Y277253I-109J-168D01*
G02X330006Y279169I-1003J827D01*
G03X330270Y279209I109J168D01*
G02X330563Y277293I1003J-827D01*
G37*
G36*
G01X319637Y277659D02*
G03Y277115I294J-272D01*
G02X317729I-954J-883D01*
G03Y277659I-294J272D01*
G02X319637I954J883D01*
G37*
G36*
G01X343730Y276012D02*
G03X343634Y275480I243J-318D01*
G02X341600Y275847I-1184J-747D01*
G03X341696Y276378I-243J318D01*
G02X343730Y276012I1184J747D01*
G37*
G36*
G01X106611Y271775D02*
G03X106617Y272340I-280J285D01*
G02X108598Y272320I1001J979D01*
G03X108593Y271755I280J-285D01*
G02X106611Y271775I-1001J-979D01*
G37*
G36*
G01X249442Y268869D02*
G03X250034Y268832I313J249D01*
G02X249925Y267091I908J-931D01*
G03X249333Y267128I-313J-249D01*
G02X247559Y267089I-908J931D01*
G03X247292I-133J-149D01*
G02Y269028I-867J969D01*
G03X247559I133J149D01*
G02X249442Y268869I867J-969D01*
G37*
G36*
G01X217028Y268744D02*
G03X217308Y268733I145J138D01*
G02X217239Y266877I875J-962D01*
G03X216959Y266887I-145J-138D01*
G02X217028Y268744I-875J962D01*
G37*
G36*
G01X320802Y268727D02*
G03Y268452I145J-137D01*
G02X318769I-1017J-963D01*
G03Y268727I-145J137D01*
G02X318976Y270831I1017J962D01*
G03X319082Y271372I-231J326D01*
G02X321075Y270978I1183J749D01*
G03X320969Y270438I231J-326D01*
G02X320802Y268727I-1183J-749D01*
G37*
G36*
G01X249168Y265592D02*
G03X249446Y265568I152J131D01*
G02X249214Y263642I887J-1084D01*
G03X248938Y263685I-160J-120D01*
G02X249168Y265592I-755J1058D01*
G37*
G36*
G01X242037Y264667D02*
G03X241603Y264267I-34J-399D01*
G02X240322Y265659I-1400J-4D01*
G03X240755Y266058I34J399D01*
G02X242037Y264667I1400J4D01*
G37*
G36*
G01X161221Y262607D02*
G03X160850Y262219I29J-399D01*
G02X159350Y263653I-1400J38D01*
G03X159721Y264042I-29J399D01*
G02X162140Y264963I1400J-38D01*
G03X162700Y264940I291J274D01*
G02X162618Y262942I938J-1039D01*
G03X162059Y262965I-291J-274D01*
G02X161221Y262607I-938J1039D01*
G37*
G36*
G01X86593Y260569D02*
G03X86022Y260530I-267J-298D01*
G02X85900Y262345I-988J845D01*
G03X86471Y262383I267J298D01*
G02X86593Y260569I988J-845D01*
G37*
G36*
G01X135536Y262810D02*
G03X135820Y262333I390J-91D01*
G02X134513Y260207I-342J-1254D01*
G03X133949Y260237I-297J-268D01*
G02X131786Y261107I-867J969D01*
G03X131401Y261476I-399J-31D01*
G02X132444Y263612I48J1299D01*
G03X133108Y263689I306J257D01*
G02X135536Y262810I1162J-584D01*
G37*
G36*
G01X332107Y261799D02*
G03X332096Y261532I144J-139D01*
G02X330160Y261610I-1003J-827D01*
G03X330170Y261877I-144J139D01*
G02X332107Y261799I1003J827D01*
G37*
G36*
G01X218994Y259689D02*
G03X218698Y260166I-390J89D01*
G02X220393Y261215I330J1361D01*
G03X220689Y260737I390J-89D01*
G02X218994Y259689I-330J-1361D01*
G37*
G36*
G01X239033Y258290D02*
G03X238522I-256J-308D01*
G02Y260444I-895J1077D01*
G03X239033I255J308D01*
G02Y258290I894J-1077D01*
G37*
G36*
G01X319130Y259928D02*
G03X319186Y259650I166J-111D01*
G02X317301Y259333I-773J-1167D01*
G03X317263Y259614I-159J122D01*
G02X319130Y259928I786J1036D01*
G37*
G36*
G01X293748Y256272D02*
G03Y255997I145J-137D01*
G02X291714I-1017J-963D01*
G03Y256272I-145J137D01*
G02X291334Y257151I1017J963D01*
G03X290941Y257527I-399J-24D01*
G02X289682Y258360I22J1400D01*
G03X289155Y258564I-366J-162D01*
G02X289871Y260413I-564J1281D01*
G03X290398Y260209I366J162D01*
G02X292360Y259011I564J-1281D01*
G03X292753Y258634I399J24D01*
G02X293748Y256272I-22J-1400D01*
G37*
G36*
G01X299093Y255820D02*
G03X299389Y256365I-73J393D01*
G02X301934Y256264I1295J532D01*
G03X302126Y255719I357J-181D01*
G02X300587Y253426I-576J-1276D01*
G03X300312I-137J-145D01*
G02X299093Y255820I-963J1017D01*
G37*
G36*
G01X253110Y252390D02*
G03X252599I-255J-308D01*
G02Y254544I-895J1077D01*
G03X253110I255J308D01*
G02Y252390I895J-1077D01*
G37*
G36*
G01X320362Y252060D02*
G03X319803I-280J-286D01*
G02Y254062I-979J1001D01*
G03X320362I280J286D01*
G02Y252060I979J-1001D01*
G37*
G36*
G01X181627Y252585D02*
G03X181228Y252174I1J-400D01*
G02X179925Y253438I-1300J-36D01*
G03X180324Y253849I-1J400D01*
G02X181627Y252585I1300J36D01*
G37*
G36*
G01X225397Y250145D02*
G03X225983Y250133I298J266D01*
G02X225946Y248228I1007J-973D01*
G03X225359Y248239I-298J-266D01*
G02X225397Y250145I-1007J973D01*
G37*
G36*
G01X331709Y250085D02*
G03Y249571I307J-257D01*
G02X329561I-1074J-899D01*
G03Y250085I-307J257D01*
G02X331709I1074J899D01*
G37*
G36*
G01X86576Y248897D02*
G03X86847I136J147D01*
G02X88544I848J-918D01*
G03X88816I136J147D01*
G02X90512I848J-918D01*
G03X90784I136J147D01*
G02X92480Y248897I848J-918D01*
G03X92751I136J147D01*
G02X94448Y248897I848J-919D01*
G03X94719I136J147D01*
G02X96416Y248896I848J-918D01*
G03X96688I136J147D01*
G02Y247060I849J-918D01*
G03X96416I-136J-147D01*
G02X94719Y247060I-849J918D01*
G03X94448I-136J-147D01*
G02X92751Y247060I-848J918D01*
G03X92480I-136J-147D01*
G02X90784Y247060I-848J919D01*
G03X90512I-136J-147D01*
G02X88816I-848J918D01*
G03X88544I-136J-147D01*
G02X86847I-848J918D01*
G03X86576I-136J-147D01*
G02X84704Y247261I-848J918D01*
G03X84432Y247315I-164J-115D01*
G02X84782Y249085I-674J1053D01*
G03X85054Y249032I164J115D01*
G02X86576Y248897I674J-1053D01*
G37*
G36*
G01X175964Y247366D02*
G03X175439Y247171I-164J-365D01*
G02X173128Y246837I-1266J598D01*
G03X172576Y246880I-298J-266D01*
G02X172732Y248895I-888J1082D01*
G03X173284Y248852I298J266D01*
G02X174746Y249047I888J-1082D01*
G03X175271Y249241I164J365D01*
G02X177495Y249664I1266J-598D01*
G03X178055Y249675I274J292D01*
G02X178096Y247674I1000J-980D01*
G03X177536Y247663I-274J-292D01*
G02X175964Y247366I-1000J981D01*
G37*
G36*
G01X236238Y248658D02*
G03X236261Y248088I291J-274D01*
G02X234302Y248009I-939J-1038D01*
G03X234279Y248580I-291J274D01*
G02X236238Y248658I939J1038D01*
G37*
G36*
G01X299848Y245989D02*
G03Y245714I145J-137D01*
G02X297814I-1017J-963D01*
G03Y245989I-145J137D01*
G02X299848I1017J963D01*
G37*
G36*
G01X157015Y246254D02*
G03X156963Y245660I239J-320D01*
G02X155164Y245862I-1019J-960D01*
G03X155246Y246454I-223J332D01*
G02X157015Y246254I990J842D01*
G37*
G36*
G01X319757Y244179D02*
G03Y243666I307J-257D01*
G02X317609I-1074J-899D01*
G03Y244179I-307J257D01*
G02X319757I1074J898D01*
G37*
G36*
G01X342757Y243655D02*
G03X342773Y243076I284J-281D01*
G02X340979Y243026I-870J-966D01*
G03X340962Y243604I-284J281D01*
G02X342757Y243655I870J966D01*
G37*
G36*
G01X238772Y240635D02*
G03X238261I-255J-308D01*
G02Y242790I-895J1077D01*
G03X238772I255J308D01*
G02Y240635I895J-1077D01*
G37*
G36*
G01X222553Y241751D02*
G03X223072Y241719I278J287D01*
G02X222940Y239594I842J-1119D01*
G03X222422Y239626I-278J-287D01*
G02X222553Y241751I-842J1119D01*
G37*
G36*
G01X74377Y240686D02*
G03X74292Y240179I259J-304D01*
G02X72328Y240508I-1120J-660D01*
G03X72414Y241016I-259J304D01*
G02X72781Y242736I1120J660D01*
G03X72852Y243324I-232J326D01*
G02X74587Y243116I982J852D01*
G03X74516Y242527I232J-326D01*
G02X74377Y240686I-982J-852D01*
G37*
G36*
G01X62271Y241062D02*
G03X62457Y240534I363J-169D01*
G02X60703Y239916I-574J-1166D01*
G03X60517Y240443I-363J169D01*
G02X62271Y241062I574J1166D01*
G37*
G36*
G01X330238Y240198D02*
G03X330260Y240808I-247J314D01*
G02X331939Y240747I875J961D01*
G03X331917Y240137I247J-314D01*
G02X330238Y240198I-875J-961D01*
G37*
G36*
G01X209246Y239727D02*
G03Y239452I145J-138D01*
G02X207212I-1017J-962D01*
G03Y239727I-145J137D01*
G02X209246I1017J962D01*
G37*
G36*
G01X307967Y238289D02*
G03Y237745I294J-272D01*
G02X306059I-954J-883D01*
G03Y238289I-294J272D01*
G02X307967I954J883D01*
G37*
G36*
G01X135255Y236105D02*
G03X135058Y236320I-199J15D01*
G02X136475Y237688I17J1400D01*
G03X136799Y237286I400J-9D01*
G02X137039Y237215I-247J-1276D01*
G03X137551Y237416I150J371D01*
G02X138241Y235659I1177J-552D01*
G03X137729Y235458I-150J-371D01*
G02X136396Y234719I-1177J552D01*
G03X135951Y234377I-48J-397D01*
G02X135000Y235813I-1288J180D01*
G03X135252Y236006I52J193D01*
G02X135255Y236105I1300J3D01*
G37*
G36*
G01X198814Y235589D02*
G03Y235033I288J-278D01*
G02X196944I-935J-903D01*
G03Y235589I-288J278D01*
G02X198814I935J903D01*
G37*
G36*
G01X342643Y234352D02*
G03Y233808I294J-272D01*
G02X340735I-954J-883D01*
G03Y234352I-294J272D01*
G02X342643I954J883D01*
G37*
G36*
G01X73222Y234007D02*
G03X73496Y233809I200J-12D01*
G02X72685Y232465I482J-1208D01*
G03X72201Y232814I-398J-42D01*
G02X72210Y235353I-277J1270D01*
G03X72697Y235712I88J390D01*
G02X73494Y234413I1296J-99D01*
G03X73218Y234209I-77J-185D01*
G02X73222Y234007I-1294J-125D01*
G37*
G36*
G01X174325Y229793D02*
G03X174854Y229787I268J297D01*
G02X174831Y227837I849J-985D01*
G03X174302Y227843I-268J-297D01*
G02X174325Y229793I-849J985D01*
G37*
G36*
G01X158325D02*
G03X158854Y229787I268J297D01*
G02X158831Y227837I849J-985D01*
G03X158302Y227843I-268J-297D01*
G02X158325Y229793I-849J985D01*
G37*
G36*
G01X290789Y229405D02*
G03X291326Y229131I388J97D01*
G02X290488Y227490I520J-1300D01*
G03X289951Y227764I-388J-97D01*
G02X290789Y229405I-520J1300D01*
G37*
G36*
G01X321410Y228808D02*
G03Y228533I145J-137D01*
G02X319376I-1017J-963D01*
G03Y228808I-145J137D01*
G02X321410I1017J963D01*
G37*
G36*
G01X343113Y228644D02*
G03Y228369I145J-137D01*
G02X341080I-1017J-963D01*
G03Y228644I-145J137D01*
G02X343113I1017J963D01*
G37*
G36*
G01X210709Y228293D02*
G03X211240Y228281I272J293D01*
G02X211195Y226187I907J-1067D01*
G03X210664Y226199I-272J-293D01*
G02X210709Y228293I-907J1067D01*
G37*
G36*
G01X104855Y226957D02*
G03Y226686I147J-136D01*
G02X103018I-918J-848D01*
G03Y226957I-147J136D01*
G02Y228654I918J848D01*
G03Y228925I-147J136D01*
G02X103018Y230622I918J848D01*
G03Y230893I-147J136D01*
G02X103018Y232590I919J848D01*
G03Y232861I-147J136D01*
G02Y234558I918J848D01*
G03Y234829I-147J136D01*
G02Y236526I918J848D01*
G03Y236797I-147J136D01*
G02X103018Y238494I918J848D01*
G03Y238765I-147J136D01*
G02X103018Y240462I919J848D01*
G03Y240733I-147J136D01*
G02Y242430I918J848D01*
G03Y242701I-147J136D01*
G02X104855I918J848D01*
G03Y242430I147J-136D01*
G02Y240733I-918J-848D01*
G03Y240462I147J-136D01*
G02X104855Y238765I-918J-848D01*
G03Y238494I147J-136D01*
G02X104855Y236797I-919J-848D01*
G03Y236526I147J-136D01*
G02Y234829I-918J-848D01*
G03Y234558I147J-136D01*
G02Y232861I-918J-848D01*
G03Y232590I147J-136D01*
G02X104855Y230893I-918J-848D01*
G03Y230622I147J-136D01*
G02X104855Y228925I-919J-848D01*
G03Y228654I147J-136D01*
G02Y226957I-918J-848D01*
G37*
G36*
G01X80247Y226955D02*
G03Y226683I147J-136D01*
G02X78414I-916J-850D01*
G03Y226955I-147J136D01*
G02X78412Y228654I916J850D01*
G03Y228925I-147J136D01*
G02X78412Y230622I918J848D01*
G03Y230893I-147J136D01*
G02X78412Y232590I919J848D01*
G03Y232861I-147J136D01*
G02Y234558I918J848D01*
G03Y234829I-147J136D01*
G02Y236526I918J848D01*
G03Y236797I-147J136D01*
G02X78412Y238494I918J848D01*
G03Y238765I-147J136D01*
G02X78412Y240462I919J848D01*
G03Y240733I-147J136D01*
G02Y242430I918J848D01*
G03Y242701I-147J136D01*
G02X80249I918J848D01*
G03Y242430I147J-136D01*
G02Y240733I-918J-848D01*
G03Y240462I147J-136D01*
G02X80249Y238765I-918J-848D01*
G03Y238494I147J-136D01*
G02X80249Y236797I-919J-848D01*
G03Y236526I147J-136D01*
G02Y234829I-918J-848D01*
G03Y234558I147J-136D01*
G02Y232861I-918J-848D01*
G03Y232590I147J-136D01*
G02X80249Y230893I-918J-848D01*
G03Y230622I147J-136D01*
G02X80249Y228925I-919J-848D01*
G03Y228654I147J-136D01*
G02X80247Y226955I-918J-848D01*
G37*
G36*
G01X307967Y226478D02*
G03Y225934I294J-272D01*
G02X306059I-954J-883D01*
G03Y226478I-294J272D01*
G02X307967I954J883D01*
G37*
G36*
G01X82639Y224291D02*
G03X82910I136J147D01*
G02X84607I848J-918D01*
G03X84878I136J147D01*
G02X86575I848J-918D01*
G03X86847I136J147D01*
G02X88543Y224291I848J-918D01*
G03X88814I136J147D01*
G02X90511Y224291I848J-919D01*
G03X90782I136J147D01*
G02X92479I848J-918D01*
G03X92750I136J147D01*
G02X94447Y224291I848J-918D01*
G03X94718I136J147D01*
G02X96415Y224291I848J-919D01*
G03X96686I136J147D01*
G02X98383I848J-918D01*
G03X98654I136J147D01*
G02X100351I848J-918D01*
G03X100623I136J147D01*
G02Y222454I848J-918D01*
G03X100351I-136J-147D01*
G02X98654I-848J918D01*
G03X98383I-136J-147D01*
G02X96686I-848J918D01*
G03X96415I-136J-147D01*
G02X94718Y222454I-848J918D01*
G03X94447I-136J-147D01*
G02X92750Y222454I-848J919D01*
G03X92479I-136J-147D01*
G02X90782I-848J918D01*
G03X90511I-136J-147D01*
G02X88814Y222454I-848J918D01*
G03X88543I-136J-147D01*
G02X86847Y222454I-848J919D01*
G03X86575I-136J-147D01*
G02X84878I-848J918D01*
G03X84607I-136J-147D01*
G02X82910I-848J918D01*
G03X82639I-136J-147D01*
G02Y224291I-848J918D01*
G37*
G36*
G01X72609Y223505D02*
G03X72532Y224028I-335J218D01*
G02X74612Y224333I906J1068D01*
G03X74689Y223810I335J-218D01*
G02X72609Y223505I-906J-1068D01*
G37*
G36*
G01X239486Y223502D02*
G03X239474Y224039I-302J262D01*
G02X241550Y224082I1018J961D01*
G03X241562Y223546I302J-262D01*
G02X239486Y223502I-1018J-961D01*
G37*
G36*
G01X343259Y222541D02*
G03Y221997I294J-272D01*
G02X341351I-954J-883D01*
G03Y222541I-294J272D01*
G02X343259I954J883D01*
G37*
G36*
G01X181623Y221541D02*
G03X182152Y221535I268J297D01*
G02X182129Y219585I849J-985D01*
G03X181600Y219591I-268J-297D01*
G02X181623Y221541I-849J985D01*
G37*
G36*
G01X174222Y221421D02*
G03X174751Y221415I268J297D01*
G02X174728Y219465I849J-985D01*
G03X174199Y219471I-268J-297D01*
G02X174222Y221421I-849J985D01*
G37*
G36*
G01X166222D02*
G03X166751Y221415I268J297D01*
G02X166728Y219465I849J-985D01*
G03X166199Y219471I-268J-297D01*
G02X166222Y221421I-849J985D01*
G37*
G36*
G01X308087Y220557D02*
G03Y220044I307J-257D01*
G02X305939I-1074J-899D01*
G03Y220557I-307J257D01*
G02X308087I1074J899D01*
G37*
G36*
G01X162061Y217506D02*
G03X162067Y216995I311J-252D01*
G02X159913Y216970I-1067J-907D01*
G03X159907Y217481I-311J252D01*
G02X159606Y218688I1067J907D01*
G03X159306Y219164I-391J86D01*
G02X158728Y219465I294J1266D01*
G03X158199Y219471I-268J-297D01*
G02X158222Y221421I-849J985D01*
G03X158751Y221415I268J297D01*
G02X160884Y220225I849J-985D01*
G03X161211Y219768I395J-63D01*
G02X162061Y217506I-238J-1380D01*
G37*
G36*
G01X331589Y216635D02*
G03Y216092I294J-272D01*
G02X329681I-954J-883D01*
G03Y216635I-294J272D01*
G02X331589I954J883D01*
G37*
G36*
G01X95370Y219441D02*
G03X95648Y219434I142J141D01*
G02X97430Y217541I879J-958D01*
G03X97418Y217267I139J-144D01*
G02X97371Y215518I-985J-849D01*
G03X97333Y215010I289J-277D01*
G02X95424Y213274I-1063J-748D01*
G03X94904I-260J-304D01*
G02X93192Y215231I-845J988D01*
G03X93206Y215515I-134J149D01*
G02X93272Y217343I957J880D01*
G03X93339Y217845I-274J292D01*
G02X95370Y219441I1106J683D01*
G37*
G36*
G01X57730Y214030D02*
G03X57788Y214638I-228J329D01*
G02X59510Y214513I931J908D01*
G03X59480Y213903I243J-318D01*
G02X57730Y214030I-954J-1025D01*
G37*
G36*
G01X134203Y212668D02*
G02X135984Y214559I931J908D01*
G02X137818Y212726I850J-984D01*
G02X136034Y210851I-984J-850D01*
G02X134203Y212668I-800J1025D01*
G37*
G36*
G01X234387Y210652D02*
G03X234408Y210368I150J-132D01*
G02X232537Y210170I-841J-992D01*
G03X232498Y210452I-158J122D01*
G02X234387Y210652I836J1123D01*
G37*
G36*
G01X331589Y210730D02*
G03Y210186I294J-272D01*
G02X329681I-954J-883D01*
G03Y210730I-294J272D01*
G02X331589I954J883D01*
G37*
G36*
G01X166318Y210746D02*
G03X165916Y211154I-400J8D01*
G02X164912Y213287I-6J1300D01*
G03X164918Y213792I-307J256D01*
G02X166935Y213767I1018J808D01*
G03X166929Y213262I307J-256D01*
G02X167210Y212428I-1018J-808D01*
G03X167612Y212020I400J-8D01*
G02X168588Y209854I6J-1300D01*
G03X168570Y209344I298J-266D01*
G02X166667I-951J-732D01*
G03X166648Y209854I-317J244D01*
G02X166318Y210746I970J866D01*
G37*
G36*
G01X319637Y208761D02*
G03Y208218I294J-272D01*
G02X317729I-954J-883D01*
G03Y208761I-294J272D01*
G02X319637I954J883D01*
G37*
G36*
G01X331589Y204824D02*
G03Y204281I294J-272D01*
G02X329681I-954J-883D01*
G03Y204824I-294J272D01*
G02X331589I954J883D01*
G37*
G36*
G01X71545Y203496D02*
G03X71779Y203949I-157J368D01*
G02X71957Y204982I1369J296D01*
G03X71831Y205530I-340J210D01*
G02X71538Y205779I751J1182D01*
G03X71008Y205839I-298J-266D01*
G02X71243Y207913I-810J1142D01*
G03X71773Y207853I298J266D01*
G02X73773Y205974I810J-1142D01*
G03X73899Y205426I340J-210D01*
G02X73697Y202957I-751J-1182D01*
G03X73462Y202504I157J-368D01*
G02X71545Y203496I-1369J-296D01*
G37*
G36*
G01X294580Y202590D02*
G03X295162Y202578I297J268D01*
G02X295124Y200659I1000J-980D01*
G03X294542Y200670I-297J-268D01*
G02X294580Y202590I-1000J980D01*
G37*
G36*
G01X113560Y199631D02*
G03X113042Y199596I-238J-321D01*
G02X112908Y201570I-909J930D01*
G03X113425Y201606I238J321D01*
G02X113560Y199631I909J-930D01*
G37*
G36*
G01X325338Y198440D02*
G03X324828Y198310I-181J-357D01*
G02X324306Y200353I-1154J793D01*
G03X324816Y200483I181J357D01*
G02X325338Y198440I1154J-793D01*
G37*
G36*
G01X304737Y195222D02*
G03X304226I-256J-308D01*
G02Y197376I-894J1077D01*
G03X304737I256J308D01*
G02X306207Y197576I894J-1077D01*
G03X306732Y197767I164J365D01*
G02X307440Y195990I1172J-562D01*
G03X306928Y195768I-143J-374D01*
G02X304737Y195222I-1296J531D01*
G37*
G36*
G01X92734Y198312D02*
G03X92428Y198712I-400J11D01*
G02X91593Y200598I305J1264D01*
G03X91545Y200848I-176J96D01*
G02X93278Y202784I829J1002D01*
G03X93880Y202837I278J287D01*
G02X96196Y202388I1054J-762D01*
G03X96436Y202241I194J48D01*
G02X97487Y199916I298J-1266D01*
G03X97416Y199327I232J-326D01*
G02X97638Y197985I-982J-852D01*
G03X97803Y197491I370J-151D01*
G02X96382Y195315I-669J-1115D01*
G03X95865Y195268I-231J-326D01*
G02X94013Y195258I-931J908D01*
G03X93472Y195281I-283J-282D01*
G02X92428Y197559I-838J994D01*
G03X92757Y198030I-63J395D01*
G02X92734Y198312I1277J246D01*
G37*
G36*
G01X296588Y195595D02*
G03X296416Y195047I180J-357D01*
G02X294555Y195629I-1230J-668D01*
G03X294726Y196177I-180J357D01*
G02X296588Y195595I1230J668D01*
G37*
G36*
G01X141784Y195732D02*
G03X141854Y195150I305J-259D01*
G02X139962Y194926I-825J-1131D01*
G03X139893Y195508I-305J259D01*
G02X141784Y195732I825J1131D01*
G37*
G36*
G01X192476Y193922D02*
G03X192444Y193343I259J-305D01*
G02X190793Y193434I-873J-823D01*
G03X190825Y194013I-259J305D01*
G02X192476Y193922I873J823D01*
G37*
G36*
G01X102262Y188303D02*
G03X101977Y188302I-142J-141D01*
G02X101972Y190127I-929J910D01*
G03X102257Y190128I142J141D01*
G02X102262Y188303I929J-910D01*
G37*
G36*
G01X158726Y185898D02*
G03X158137Y185885I-289J-277D01*
G02X158052Y187554I-903J791D01*
G03X158640Y187600I273J293D01*
G02X158726Y185898I1024J-801D01*
G37*
G36*
G01X142906Y187193D02*
G03X142981Y186631I317J-244D01*
G02X141191Y184768I-787J-1035D01*
G03X140926Y184807I-154J-127D01*
G02X140219Y187187I-724J1080D01*
G03X140613Y187681I5J400D01*
G02X142906Y187193I1264J306D01*
G37*
G36*
G01X188703Y183774D02*
G03X188719Y183183I278J-288D01*
G02X187100Y183139I-785J-908D01*
G03X187084Y183729I-278J288D01*
G02X188703Y183774I785J908D01*
G37*
G36*
G01X6854Y182993D02*
G03X6912Y183263I-112J165D01*
G02X8821Y182920I1108J681D01*
G03X8782Y182647I123J-157D01*
G02X6854Y182993I-1141J-812D01*
G37*
G36*
G01X17360Y179424D02*
G03X17323Y179698I-161J118D01*
G02X19330Y179964I876J1092D01*
G03X19366Y179689I161J-118D01*
G02X17360Y179424I-876J-1092D01*
G37*
G36*
G01X283641Y178999D02*
G03X283635Y178488I304J-260D01*
G02X281482Y178516I-1088J-881D01*
G03X281489Y179028I-304J260D01*
G02X283641Y178999I1088J881D01*
G37*
G36*
G01X271484Y177292D02*
G03Y176781I308J-256D01*
G02X269329I-1077J-895D01*
G03Y177292I-308J255D01*
G02X271484I1077J894D01*
G37*
G36*
G01X164398Y175909D02*
G03X164909Y175855I288J278D01*
G02X164636Y173943I725J-1079D01*
G03X164130Y174034I-307J-256D01*
G02X164398Y175909I-596J1042D01*
G37*
G36*
G01X121338Y174538D02*
G03X120987Y174156I49J-397D01*
G02X119512Y175608I-1399J54D01*
G03X119888Y175965I-22J399D01*
G02X121301Y177123I1293J-137D01*
G03X121736Y177486I37J398D01*
G02X121865Y177946I1295J-116D01*
G03X121776Y178214I-179J89D01*
G02X121063Y179420I586J1160D01*
G03X120713Y179831I-400J14D01*
G02X122172Y181075I160J1290D01*
G03X122522Y180664I400J-14D01*
G02X123528Y178798I-160J-1290D01*
G03X123617Y178530I179J-89D01*
G02X122911Y176075I-586J-1160D01*
G03X122476Y175713I-37J-398D01*
G02X121338Y174538I-1295J116D01*
G37*
G36*
G01X113152Y173949D02*
G03X112679Y173663I-88J-390D01*
G02X111635Y175396I-1351J367D01*
G03X112109Y175682I88J390D01*
G02X113152Y173949I1351J-367D01*
G37*
G36*
G01X314755Y175028D02*
G03X314688Y174439I233J-325D01*
G02X312818Y174654I-1053J-923D01*
G03X312885Y175243I-233J325D01*
G02X314755Y175028I1053J923D01*
G37*
G36*
G01X24103Y174312D02*
G03X24258Y174541I-43J195D01*
G02X25937Y173405I1381J232D01*
G03X25782Y173176I43J-195D01*
G02X23025Y172686I-1381J-232D01*
G03X22516Y172995I-393J-74D01*
G02X23487Y174593I-406J1340D01*
G03X23996Y174284I393J74D01*
G02X24103Y174312I406J-1340D01*
G37*
G36*
G01X281001Y174038D02*
G03X281202Y173561I382J-120D01*
G02X279233Y172731I-632J-1249D01*
G03X279032Y173208I-382J120D01*
G02X281001Y174038I632J1249D01*
G37*
G36*
G01X254394Y170344D02*
G03X254459Y170081I175J-97D01*
G02X252606Y169624I-715J-1086D01*
G03X252541Y169887I-175J97D01*
G02X252036Y170524I715J1086D01*
G03X251777Y170642I-188J-69D01*
G02X251083Y170563I-499J1308D01*
G03X250628Y170194I-56J-396D01*
G02X249426Y171677I-1397J96D01*
G03X249881Y172046I56J396D01*
G02X252620Y172349I1397J-96D01*
G03X252871Y172215I192J57D01*
G02X254394Y170344I385J-1242D01*
G37*
G36*
G01X141255Y169825D02*
G03X141261Y169293I302J-262D01*
G02X139267Y169204I-960J-877D01*
G03X139226Y169735I-318J242D01*
G02X141255Y169825I971J1009D01*
G37*
G36*
G01X38468Y167300D02*
G03X38445Y167860I-297J268D01*
G02X40443Y167941I959J1020D01*
G03X40466Y167382I297J-268D01*
G02X38468Y167300I-959J-1020D01*
G37*
G36*
G01X102973Y164149D02*
G03X102624Y163744I50J-397D01*
G02X101048Y165103I-1400J-30D01*
G03X101397Y165508I-50J397D01*
G02X102973Y164149I1400J30D01*
G37*
G36*
G01X15057Y163674D02*
G03X14772Y164116I-396J58D01*
G02X16528Y165169I387J1346D01*
G03X16783Y164709I391J-84D01*
G02X15057Y163674I-440J-1224D01*
G37*
G36*
G01X122522Y166102D02*
G03X122191Y166501I-400J5D01*
G02X123829Y167768I242J1379D01*
G03X124132Y167347I399J-32D01*
G02X125107Y166282I-310J-1263D01*
G03X125558Y165947I395J61D01*
G02X125891Y163167I195J-1387D01*
G03X125531Y162749I39J-398D01*
G02X123633Y161532I-1299J-63D01*
G03X123123Y161409I-184J-355D01*
G02X122707Y163419I-1141J812D01*
G03X123224Y163508I207J342D01*
G02X124026Y163970I1008J-822D01*
G03X124361Y164409I-63J395D01*
G02X124359Y164428I1392J149D01*
G03X123928Y164789I-398J-38D01*
G02X122522Y166102I-106J1296D01*
G37*
G36*
G01X186972Y156026D02*
G03X187027Y155470I312J-250D01*
G02X185319Y155299I-770J-920D01*
G03X185263Y155855I-312J250D01*
G02X186972Y156026I770J920D01*
G37*
G36*
G01X279865Y149764D02*
G03X279526Y149325I59J-396D01*
G02X278011Y150570I-1392J-150D01*
G03X278376Y150988I-35J398D01*
G02X280540Y152020I1299J62D01*
G03X281096Y152043I266J298D01*
G02X281173Y150177I942J-896D01*
G03X280616Y150154I-266J-298D01*
G02X279865Y149764I-942J896D01*
G37*
G36*
G01X291543Y145307D02*
G03X291949Y144875I399J-33D01*
G02X290580Y143589I26J-1400D01*
G03X290174Y144021I-399J33D01*
G02X291543Y145307I-26J1400D01*
G37*
G36*
G01X140514Y141125D02*
G03X140435Y141709I-308J256D01*
G02X142177Y141945I743J1067D01*
G03X142256Y141361I308J-256D01*
G02X140514Y141125I-743J-1067D01*
G37*
G36*
G01X48126Y136570D02*
G03X48686Y136536I297J268D01*
G02X48564Y134542I918J-1057D01*
G03X48004Y134576I-297J-268D01*
G02X48126Y136570I-918J1057D01*
G37*
G36*
G01X163975Y128437D02*
G03X163383Y128415I-286J-279D01*
G02X163323Y130026I-919J772D01*
G03X163915Y130048I286J279D01*
G02X163975Y128437I919J-772D01*
G37*
G36*
G01X250612Y125692D02*
G03X250024I-294J-271D01*
G02Y127454I-956J881D01*
G03X250612I294J271D01*
G02X252524I956J-881D01*
G03X253112I294J271D01*
G02Y125692I956J-881D01*
G03X252524I-294J-271D01*
G02X250612I-956J881D01*
G37*
G36*
G01X191160Y123598D02*
G03X191160Y124148I-291J274D01*
G02X191107Y125738I872J825D01*
G03X191073Y126283I-308J255D01*
G02X192823Y126390I825J872D01*
G03X192856Y125844I308J-255D01*
G02X192905Y124150I-825J-872D01*
G03X192906Y123601I291J-274D01*
G02X191160Y123598I-872J-825D01*
G37*
G36*
G01X30030Y114620D02*
G03X29695Y115022I-400J7D01*
G02X29154Y115244I212J1283D01*
G03X28575Y115116I-232J-326D01*
G02X26154Y115094I-1217J693D01*
G03X25624Y115244I-344J-204D01*
G02X26174Y117197I-653J1238D01*
G03X26705Y117048I344J204D01*
G02X28227Y116907I654J-1238D01*
G03X28812Y117005I248J314D01*
G02X30331Y117534I1095J-701D01*
G03X30823Y117742I130J378D01*
G02X32520Y115997I1177J-553D01*
G03X32362Y115387I160J-367D01*
G02X30030Y114620I-1033J-790D01*
G37*
G36*
G01X66634Y114570D02*
G03X66599Y113984I254J-309D01*
G02X64700Y114095I-1010J-970D01*
G03X64735Y114681I-254J309D01*
G02X66634Y114570I1010J970D01*
G37*
G36*
G01X100890Y108213D02*
G03X100879Y107691I297J-268D01*
G02X98759Y107737I-1080J-891D01*
G03X98770Y108259I-297J268D01*
G02X100890Y108213I1080J891D01*
G37*
G36*
G01X30251Y107623D02*
G03X30789I269J296D01*
G02Y105699I875J-962D01*
G03X30251I-269J-296D01*
G02Y107623I-875J962D01*
G37*
G36*
G01X27857Y103229D02*
G03Y102678I290J-276D01*
G02X25829I-1014J-965D01*
G03Y103229I-290J276D01*
G02X27857I1014J965D01*
G37*
G36*
G01X187112Y98192D02*
G03X186524I-294J-271D01*
G02Y99954I-956J881D01*
G03X187112I294J271D01*
G02Y98192I956J-881D01*
G37*
G36*
G01X154828Y90654D02*
G03X154307I-261J-304D01*
G02Y92627I-847J986D01*
G03X154828I261J304D01*
G02Y90654I847J-987D01*
G37*
G36*
G01X288994Y62947D02*
G03X288831Y62389I183J-356D01*
G02X286984Y62927I-1208J-708D01*
G03X287146Y63485I-183J356D01*
G02X287010Y63801I1208J708D01*
G03X286527Y64077I-384J-112D01*
G02X285208Y66440I-345J1357D01*
G03Y67014I-278J287D01*
G02X286602Y69356I974J1006D01*
G03X287119Y69689I120J382D01*
G02X289450Y68483I1390J-169D01*
G03X289456Y67885I269J-296D01*
G02X289414Y65739I-920J-1055D01*
G03X289373Y65153I251J-312D01*
G02X288994Y62947I-1019J-960D01*
G37*
G36*
G01X197400Y61676D02*
G03Y61147I300J-265D01*
G02X195450I-975J-860D01*
G03Y61676I-300J265D01*
G02X195516Y63466I975J860D01*
G03X195522Y64032I-280J286D01*
G02X197360Y64012I929J910D01*
G03X197354Y63446I280J-286D01*
G02X197400Y61676I-929J-910D01*
G37*
G36*
G01X243710Y60655D02*
G03X243732Y60109I303J-261D01*
G02X241687Y60027I-984J-996D01*
G03X241665Y60572I-303J261D01*
G02X243710Y60655I984J996D01*
G37*
G36*
G01X314739Y52861D02*
G03X314282Y52519I-60J-395D01*
G02X313105Y54088I-1388J185D01*
G03X313561Y54431I60J395D01*
G02X316326Y54502I1388J-185D01*
G03X316794Y54182I393J73D01*
G02X315680Y52550I262J-1375D01*
G03X315212Y52870I-393J-73D01*
G02X314739Y52861I-262J1375D01*
G37*
G36*
G01X335750Y53937D02*
G03X336093Y53549I400J8D01*
G02X334700Y51429I-201J-1386D01*
G03X334026Y51440I-340J-210D01*
G02X332766Y53612I-1166J775D01*
G03X332952Y53824I-13J200D01*
G02X335750Y53937I1397J87D01*
G37*
G36*
G01X71814Y54962D02*
G03X71850Y55541I-257J306D01*
G02X73776Y55422I1026J953D01*
G03X73741Y54844I257J-306D01*
G02X73964Y53258I-1026J-953D01*
G03X74122Y52731I357J-181D01*
G02X72174Y52150I-698J-1214D01*
G03X72017Y52677I-357J181D01*
G02X71814Y54962I699J1213D01*
G37*
G36*
G01X56032Y49129D02*
G03X56101Y48622I339J-212D01*
G02X53966Y48332I-947J-1032D01*
G03X53897Y48838I-339J212D01*
G02X56032Y49129I947J1032D01*
G37*
G36*
G01X111833Y48537D02*
G03X112313Y48246I388J98D01*
G02X111279Y46540I324J-1362D01*
G03X110799Y46831I-388J-98D01*
G02X111833Y48537I-324J1362D01*
G37*
G36*
G01X309174Y44882D02*
G03X308912Y45361I-387J99D01*
G02X310368Y47651I437J1330D01*
G03X310928Y47628I291J274D01*
G02X312207Y45231I939J-1039D01*
G03X311910Y44774I97J-388D01*
G02X311893Y44210I-1379J-240D01*
G03X312246Y43719I389J-92D01*
G02X311116Y41352I-123J-1395D01*
G03X310510Y41318I-288J-278D01*
G02X308973Y43504I-1111J853D01*
G03X309224Y44029I-122J381D01*
G02X309174Y44882I1306J505D01*
G37*
G36*
G01X278531Y43081D02*
G03X278955Y42731I397J49D01*
G02X277751Y41275I87J-1297D01*
G03X277327Y41626I-397J-49D01*
G02X278531Y43081I-87J1297D01*
G37*
G36*
G01X161472Y38477D02*
G03X161105Y38000I25J-399D01*
G02X159715Y39125I-1373J-274D01*
G03X160106Y39584I-5J400D01*
G02X161472Y38477I1286J191D01*
G37*
G36*
G01X137805Y32634D02*
G03X137360Y32266I-46J-397D01*
G02X135948Y33977I-1596J121D01*
G03X136392Y34344I46J397D01*
G02X136398Y34406I1596J-119D01*
G03X136145Y34622I-199J23D01*
G02X135934Y37747I-433J1540D01*
G03X136389Y38124I55J396D01*
G02X137766Y36465I1598J-74D01*
G03X137311Y36088I-55J-396D01*
G02X137302Y35979I-1598J75D01*
G03X137555Y35764I199J-23D01*
G02X137805Y32634I433J-1541D01*
G37*
G36*
G01X152714Y11479D02*
G03X152186Y11433I-238J-321D01*
G02X152004Y13521I-1016J964D01*
G03X152533Y13567I238J321D01*
G02X152714Y11479I1016J-964D01*
G37*
G36*
G01X191635Y4377D02*
G03X191351Y4363I-135J-147D01*
G02X189341Y4283I-1043J934D01*
G03X188796Y4289I-276J-290D01*
G02X186805Y4392I-944J1034D01*
G03X186208I-299J-266D01*
G02Y6254I-1046J931D01*
G03X186805I299J266D01*
G02X188817Y6336I1046J-931D01*
G03X189363Y6330I276J290D01*
G02X191255Y6328I944J-1034D01*
G03X191539Y6342I135J147D01*
G02X191635Y4377I1043J-934D01*
G37*
G36*
G01X103162Y374885D02*
G02X101527Y374867I-802J-1499D01*
G03X101520Y375569I-196J349D01*
G02X103155Y375586I802J1499D01*
G03X103162Y374885I196J-349D01*
G37*
G36*
G01X186939Y371613D02*
G02X184184Y371225I-1400J-37D01*
G03X183590Y371467I-387J-100D01*
G02X181478Y371879I-829J1369D01*
G03X180789Y371796I-321J-239D01*
G02X180600Y373381I-1472J628D01*
G03X181289Y373464I321J239D01*
G02X184336Y373114I1472J-628D01*
G03X184910Y372826I394J70D01*
G02X186264Y372774I630J-1251D01*
G03X186869Y373149I207J342D01*
G02X187319Y374394I1595J129D01*
G03X187308Y374963I-286J279D01*
G02X189730Y377030I1104J1158D01*
G03X190391Y377036I329J227D01*
G02X192848Y375009I1331J-888D01*
G03X192853Y374435I281J-284D01*
G02X190435Y372364I-1104J-1158D01*
G03X189778I-328J-228D01*
G02X187564Y371954I-1314J914D01*
G03X186939Y371613I-225J-331D01*
G37*
G36*
G01X134847Y349905D02*
G02X134764Y351173I-1173J560D01*
G03X135460Y351218I336J218D01*
G02X135543Y349951I1173J-560D01*
G03X134847Y349905I-336J-218D01*
G37*
G36*
G01X192504Y346257D02*
G02X192503Y347897I-1010J819D01*
G03X193124Y347897I310J253D01*
G02X193125Y346257I1010J-819D01*
G03X192504Y346257I-310J-253D01*
G37*
G36*
G01X243605Y347773D02*
G02X241631Y347893I-1038J-783D01*
G03X241663Y348412I-288J278D01*
G02X242678Y350494I1038J783D01*
G03X243045Y351034I-7J400D01*
G02X244286Y350190I1218J455D01*
G03X243919Y349650I7J-400D01*
G02X243636Y348292I-1218J-456D01*
G03X243605Y347773I288J-278D01*
G37*
G36*
G01X294966Y345616D02*
G02X292239Y345165I-1326J-449D01*
G03X291755Y345556I-400J0D01*
G02X290312Y347722I-293J1369D01*
G03X290160Y348309I-329J228D01*
G02X291782Y350543I621J1255D01*
G03X292344Y350533I286J280D01*
G02X294486Y350279I966J-1014D01*
G03X295170Y350299I336J217D01*
G02X297416Y350557I1218J-691D01*
G03X298017Y350572I294J271D01*
G02X298063Y348724I1074J-898D01*
G03X297462Y348710I-294J-271D01*
G02X296564Y348218I-1074J898D01*
G03X296222Y347745I51J-397D01*
G02X295234Y346129I-1374J-270D01*
G03X294966Y345616I110J-385D01*
G37*
G36*
G01X224855Y344984D02*
G02X223188Y344963I-821J-1008D01*
G03X223180Y345577I-260J304D01*
G02X224847Y345598I821J1008D01*
G03X224855Y344984I260J-304D01*
G37*
G36*
G01X224322Y337603D02*
G02X222414Y337674I-992J-988D01*
G03X222436Y338259I-262J303D01*
G02X224779Y339614I992J988D01*
G03X225382Y339383I386J105D01*
G02X224745Y338116I760J-1176D01*
G03X224406Y338246I-200J-13D01*
G02X224343Y338188I-979J1001D01*
G03X224322Y337603I262J-303D01*
G37*
G36*
G01X209694Y337105D02*
G02X207809Y335321I-881J-956D01*
G03X207298Y335411I-308J-255D01*
G02X206994Y338481I-864J1464D01*
G03X207522Y338809I132J378D01*
G02X207526Y338836I1291J-158D01*
G03X206997Y339272I-396J58D01*
G02X208072Y340419I-564J1604D01*
G03X208541Y339920I385J-107D01*
G02X208880Y339947I272J-1272D01*
G03X209289Y340447I21J399D01*
G02X212409Y340029I1645J428D01*
G03X212498Y339524I347J-199D01*
G02X210542Y337867I-837J-995D01*
G03X209872Y337895I-344J-204D01*
G02X209694Y337693I-1060J753D01*
G03Y337105I271J-294D01*
G37*
G36*
G01X310130Y336034D02*
G02X308955Y336979I-1327J-446D01*
G03X309377Y337504I43J398D01*
G02X309384Y338417I1327J446D01*
G03X308927Y338942I-377J133D01*
G02X308314Y341674I-278J1372D01*
G03X308605Y342164I-96J388D01*
G02X310295Y341159I1354J355D01*
G03X310004Y340670I96J-388D01*
G02X309970Y339848I-1354J-355D01*
G03X310426Y339323I377J-133D01*
G02X310553Y336559I278J-1372D01*
G03X310130Y336034I-43J-398D01*
G37*
G36*
G01X39946Y335123D02*
G02X38722I-612J-1147D01*
G03Y335828I-188J353D01*
G02X39946I612J1147D01*
G03Y335123I188J-353D01*
G37*
G36*
G01X85132Y330772D02*
G02X83659Y330720I-698J-1097D01*
G03X83636Y331379I-238J321D01*
G02X85108Y331431I698J1097D01*
G03X85132Y330772I238J-321D01*
G37*
G36*
G01X258047Y327923D02*
G02X257653Y329368I-1223J443D01*
G03X258283Y329540I255J308D01*
G02X258678Y328095I1223J-443D01*
G03X258047Y327923I-255J-308D01*
G37*
G36*
G01X118251Y323195D02*
G02X116491Y322959I-754J-1059D01*
G03X116413Y323539I-310J253D01*
G02X116038Y323953I754J1059D01*
G03X115375Y323999I-347J-199D01*
G02X115476Y325442I-1027J797D01*
G03X116140Y325395I347J199D01*
G02X118173Y323774I1027J-797D01*
G03X118251Y323195I310J-253D01*
G37*
G36*
G01X254793Y320794D02*
G02X253357Y319861I-185J-1287D01*
G03X253085Y320354I-385J109D01*
G02X254361Y322529I366J1248D01*
G03X254693Y322614I140J143D01*
G02X254762Y322793I1244J-377D01*
G03X254677Y323054I-181J86D01*
G02X256479Y323637I626J1140D01*
G03X256563Y323376I181J-86D01*
G02X256717Y323277I-626J-1140D01*
G03X257345Y323501I240J320D01*
G02X259204Y324345I1262J-312D01*
G03X259709Y324463I183J355D01*
G02X261791Y324477I1046J-772D01*
G03X262350Y324399I319J242D01*
G02X263934Y324385I783J-1038D01*
G03X264209Y324411I123J158D01*
G02X264389Y322535I982J-853D01*
G03X264114Y322509I-123J-158D01*
G02X262097Y322575I-982J853D01*
G03X261538Y322653I-319J-242D01*
G02X260159Y322536I-783J1038D01*
G03X259654Y322418I-183J-355D01*
G02X257828Y322149I-1046J772D01*
G03X257199Y321925I-240J-320D01*
G02X255026Y321309I-1262J312D01*
G03X254695Y321224I-140J-143D01*
G02X254639Y321073I-1244J377D01*
G03X254793Y320794I183J-81D01*
G37*
G36*
G01X190233Y318497D02*
G02X188367Y319192I-1277J-575D01*
G03X188563Y319719I-168J363D01*
G02X191019Y321048I1277J575D01*
G03X191638Y320980I337J216D01*
G02X191445Y319231I986J-994D01*
G03X190826Y319299I-337J-216D01*
G02X190430Y319024I-986J994D01*
G03X190233Y318497I168J-363D01*
G37*
G36*
G01X240293Y316689D02*
G02X239453Y317793I-1388J-185D01*
G03X240007Y318200I156J368D01*
G02X240834Y317115I1294J128D01*
G03X240293Y316689I-144J-373D01*
G37*
G36*
G01X100676Y314059D02*
G02X99492Y314974I-1242J-384D01*
G03X99892Y315492I18J400D01*
G02X101076Y314577I1242J384D01*
G03X100676Y314059I-18J-400D01*
G37*
G36*
G01X222640Y309008D02*
G02X222411Y310902I-1132J823D01*
G03X222694Y310927I129J153D01*
G02X222762Y311003I1000J-830D01*
G03X222656Y311339I-143J139D01*
G02X224046Y311892I258J1376D01*
G03X224211Y311290I324J-235D01*
G02X222920Y309052I-516J-1193D01*
G03X222640Y309008I-119J-161D01*
G37*
G36*
G01X194024Y306151D02*
G02X193845Y304754I1111J-852D01*
G03X193167Y304853I-369J-155D01*
G02X193344Y306226I-1004J827D01*
G03X194024Y306151I363J168D01*
G37*
G36*
G01X54781Y305858D02*
G02X53554Y305980I-727J-1078D01*
G03X53623Y306681I-154J369D01*
G02X54851Y306559I727J1078D01*
G03X54781Y305858I154J-369D01*
G37*
G36*
G01X332065Y302062D02*
G02X330180Y302070I-947J-891D01*
G03X330181Y302346I-144J138D01*
G02X329859Y303520I947J891D01*
G03X329358Y303992I-390J87D01*
G02X327953Y306299I-388J1345D01*
G03Y306574I-145J137D01*
G02X329986I1017J963D01*
G03Y306299I145J-137D01*
G02X330325Y304986I-1017J-963D01*
G03X330810Y304498I387J-100D01*
G02X332067Y302338I318J-1261D01*
G03X332065Y302062I144J-138D01*
G37*
G36*
G01X8229Y298875D02*
G02X8118Y300451I-1209J707D01*
G03X8777Y300498I314J248D01*
G02X8888Y298921I1209J-707D01*
G03X8229Y298875I-314J-248D01*
G37*
G36*
G01X343849Y300384D02*
G02X342188Y299352I-379J-1244D01*
G03X341886Y299806I-395J65D01*
G02X341676Y302462I325J1362D01*
G03X341899Y302968I-153J370D01*
G02X341823Y303606I1315J480D01*
G03X341661Y303825I-199J22D01*
G02X341484Y306334I241J1278D01*
G03X341644Y306988I-129J379D01*
G02X341547Y308667I941J897D01*
G03X341523Y309178I-320J241D01*
G02X343521Y309273I959J878D01*
G03X343545Y308762I320J-241D01*
G02X343005Y306654I-959J-878D01*
G03X342844Y306000I129J-379D01*
G02X343202Y305046I-941J-897D01*
G03X343378Y304839I200J-9D01*
G02X343749Y302154I-164J-1391D01*
G03X343526Y301648I153J-370D01*
G02X343576Y300856I-1315J-480D01*
G03X343849Y300384I390J-89D01*
G37*
G36*
G01X226850Y297734D02*
G02X224931Y298374I-1218J-455D01*
G03X225080Y298876I-216J337D01*
G02X226938Y300725I1276J576D01*
G03X227498Y301019I166J364D01*
G02X229968Y301652I1379J-244D01*
G03X230602Y301666I312J250D01*
G02X230639Y299960I1128J-829D01*
G03X230005Y299946I-312J-250D01*
G02X228295Y299502I-1128J829D01*
G03X227735Y299207I-166J-364D01*
G02X227032Y298225I-1379J244D01*
G03X226850Y297734I193J-350D01*
G37*
G36*
G01X342547Y294421D02*
G02X341186Y294376I-644J-1130D01*
G03X341163Y295058I-221J334D01*
G02X342524Y295102I644J1130D01*
G03X342547Y294421I221J-334D01*
G37*
G36*
G01X296588Y287728D02*
G02X295782Y289129I-1394J130D01*
G03X296349Y289455I168J363D01*
G02X298705Y290342I1394J-130D01*
G03X298980I137J145D01*
G02X301329Y289523I963J-1017D01*
G03X301754Y289181I396J57D01*
G02X300577Y287622I96J-1297D01*
G03X300131Y287937I-392J-81D01*
G02X298980Y288308I-189J1387D01*
G03X298705I-137J-145D01*
G02X297154Y288054I-963J1017D01*
G03X296588Y287728I-168J-363D01*
G37*
G36*
G01X108543Y286077D02*
G02X106904Y287156I-1369J-295D01*
G03X107218Y287633I-77J392D01*
G02X107282Y288435I1369J295D01*
G03X106938Y288979I-373J145D01*
G02X105971Y289527I95J1297D01*
G03X105349Y289566I-327J-230D01*
G02X105014Y289304I-959J878D01*
G03X104970Y288630I192J-351D01*
G02X103168Y286792I-768J-1049D01*
G03X102481Y286704I-318J-243D01*
G02X102315Y287994I-1200J501D01*
G03X103002Y288082I318J243D01*
G02X103578Y288722I1200J-501D01*
G03X103622Y289395I-192J351D01*
G02X105453Y291193I768J1049D01*
G03X106075Y291154I327J230D01*
G02X108264Y289856I959J-878D01*
G03X108631Y289327I379J-129D01*
G02X108857Y286553I-44J-1400D01*
G03X108543Y286077I77J-392D01*
G37*
G36*
G01X141031Y282778D02*
G02X140978Y284250I-1097J698D01*
G03X141637Y284274I321J238D01*
G02X141690Y282801I1097J-698D01*
G03X141031Y282778I-321J-238D01*
G37*
G36*
G01X78200Y279792D02*
G02X75628Y279672I-1277J-244D01*
G03X75278Y280107I-398J38D01*
G02X75226Y280114I153J1291D01*
G03X74997Y279885I-32J-197D01*
G02X72418Y279801I-1284J-206D01*
G03X72062Y280236I-398J37D01*
G02X71868Y280271I135J1293D01*
G03X71622Y280038I-51J-194D01*
G02X69057Y279939I-1275J-256D01*
G03X68633Y280386I-397J48D01*
G02X68080Y280470I-85J1297D01*
G03X67542Y280168I-144J-373D01*
G02X65595Y281514I-1280J230D01*
G03X65619Y282185I-205J343D01*
G02X65490Y284213I746J1065D01*
G03X65514Y284781I-269J296D01*
G02X67342Y284703I953J885D01*
G03X67318Y284135I269J-296D01*
G02X67664Y283298I-953J-885D01*
G03X68178Y282930I400J15D01*
G02X68625Y282981I370J-1246D01*
G03X69048Y283362I24J399D01*
G02X71646Y283241I1299J-60D01*
G03X72081Y282824I400J-19D01*
G02X72135Y282828I116J-1295D01*
G03X72516Y283215I-19J400D01*
G02X74020Y284457I1300J-42D01*
G03X74479Y284905I63J395D01*
G02X77042Y284813I1289J170D01*
G03X77308Y284353I392J-80D01*
G02X77918Y283924I-411J-1234D01*
G03X78547I314J247D01*
G02X79843Y281849I1022J-804D01*
G03X79529Y281426I84J-391D01*
G02X79533Y281349I-1296J-105D01*
G03X79992Y280962I400J9D01*
G02X78886Y279648I193J-1286D01*
G03X78426Y280035I-400J-9D01*
G02X78374Y280028I-194J1286D01*
G03X78200Y279792I22J-199D01*
G37*
G36*
G01X223509Y277121D02*
G02X223469Y278687I-1180J753D01*
G03X224132Y278704I326J232D01*
G02X224172Y277138I1180J-753D01*
G03X223509Y277121I-326J-232D01*
G37*
G36*
G01X298752Y276793D02*
G02X296772Y278771I-963J1017D01*
G03X296770Y279049I-145J137D01*
G02X296390Y280267I1000J980D01*
G03X295871Y280715I-394J68D01*
G02X296817Y281808I-435J1331D01*
G03X297335Y281360I394J-68D01*
G02X299118Y279651I435J-1331D01*
G03X299611Y279158I385J-108D01*
G02X299773Y279193I378J-1348D01*
G03X300098Y279693I-62J395D01*
G02X302412Y281075I1352J365D01*
G03X302687I137J145D01*
G02Y279041I963J-1017D01*
G03X302412I-137J-145D01*
G02X301666Y278675I-963J1017D01*
G03X301341Y278175I62J-395D01*
G02X299027Y276793I-1352J-365D01*
G03X298752I-138J-145D01*
G37*
G36*
G01X10362Y277361D02*
G02X7664Y277165I-1375J263D01*
G03X7070Y277370I-378J-131D01*
G02X5455Y279654I-756J1179D01*
G03X5409Y280317I-246J316D01*
G02X6081Y282930I700J1213D01*
G03X6470Y283386I-8J400D01*
G02X9055Y284307I1386J199D01*
G03X9603Y284170I343J206D01*
G02X11709Y283163I719J-1201D01*
G03X12143Y282821I396J56D01*
G02X12629Y280072I132J-1394D01*
G03X12355Y279547I101J-387D01*
G02X10818Y277680I-1314J-484D01*
G03X10362Y277361I-64J-395D01*
G37*
G36*
G01X55818Y275247D02*
G02X54508Y275145I-568J-1170D01*
G03X54454Y275833I-229J328D01*
G02X55765Y275935I568J1170D01*
G03X55818Y275247I229J-328D01*
G37*
G36*
G01X280152Y268317D02*
G02X278642Y268831I-1086J-716D01*
G03X278836Y269443I-131J378D01*
G02X280934Y271279I1135J820D01*
G03X281209I137J145D01*
G02Y269246I963J-1017D01*
G03X280934I-137J-145D01*
G02X280371Y268921I-963J1017D01*
G03X280152Y268317I114J-383D01*
G37*
G36*
G01X293021Y264759D02*
G02X293027Y266179I-1204J715D01*
G03X293709Y266164I346J201D01*
G02X293703Y264768I1094J-703D01*
G03X293021Y264759I-338J-213D01*
G37*
G36*
G01X329759Y264532D02*
G02X328881Y265668I-1390J-167D01*
G03X329425Y266088I146J372D01*
G02X330303Y264952I1390J167D01*
G03X329759Y264532I-146J-372D01*
G37*
G36*
G01X121446Y260301D02*
G02X119453Y261969I-1025J799D01*
G03X119465Y262488I-298J267D01*
G02X121412Y264209I1007J822D01*
G03X122016Y264239I289J276D01*
G02X122109Y264345I1025J-800D01*
G03X121988Y264684I-143J139D01*
G02X123228Y265273I146J1292D01*
G03X123441Y264676I336J-216D01*
G02X124031Y264282I-400J-1237D01*
G03X124617Y264258I304J260D01*
G02X126532Y262503I917J-922D01*
G03X126538Y261983I307J-256D01*
G02X124560Y260294I-978J-856D01*
G03X123962Y260312I-307J-256D01*
G02X122057Y260326I-946J892D01*
G03X121446Y260301I-295J-270D01*
G37*
G36*
G01X228516Y259866D02*
G02X227452Y260608I-1177J-553D01*
G03X227843Y261188I35J399D01*
G02X228060Y262771I1248J635D01*
G03X228062Y263310I-294J271D01*
G02X230132Y263302I1038J939D01*
G03X230130Y262763I294J-271D01*
G02X228926Y260433I-1038J-939D01*
G03X228516Y259866I-47J-397D01*
G37*
G36*
G01X204845Y256902D02*
G02X202664Y258242I-1211J474D01*
G03X202454Y258898I-298J266D01*
G02X203713Y259300I289J1268D01*
G03X203923Y258643I298J-266D01*
G02X204029Y258614I-288J-1268D01*
G03X204523Y258850I122J381D01*
G02X205518Y259658I1211J-474D01*
G03X205824Y260199I-66J394D01*
G02X208037Y261503I1210J477D01*
G03X208672Y261526I309J255D01*
G02X209985Y262051I1062J-751D01*
G03X210450Y262543I77J392D01*
G02X211486Y261527I1357J347D01*
G03X211004Y261052I-91J-389D01*
G02X208731Y259948I-1270J-277D01*
G03X208096Y259925I-309J-255D01*
G02X207249Y259393I-1062J751D01*
G03X206944Y258852I66J-394D01*
G02X205339Y257137I-1210J-477D01*
G03X204845Y256902I-122J-381D01*
G37*
G36*
G01X68147Y258115D02*
G02X66608Y257941I-652J-1125D01*
G03X66487Y258603I-273J292D01*
G02X68649Y260948I646J1572D01*
G03X69247Y260811I356J182D01*
G02X68996Y258992I787J-1035D01*
G03X68383Y259022I-319J-241D01*
G02X68116Y258788I-1249J1153D01*
G03X68147Y258115I231J-326D01*
G37*
G36*
G01X281670Y257520D02*
G02X280815Y256409I533J-1295D01*
G03X280266Y256831I-397J52D01*
G02X281121Y257942I-533J1295D01*
G03X281670Y257520I397J-52D01*
G37*
G36*
G01X176634Y254014D02*
G02X174260Y254709I-1300J-38D01*
G03X174204Y255225I-330J226D01*
G02X174006Y255463I893J945D01*
G03X173640Y255377I-168J-109D01*
G02X173235Y256479I-1291J151D01*
G03X173881Y256630I273J293D01*
G02X176135Y256953I1216J-461D01*
G03X176649Y256844I319J241D01*
G02X177170Y257003I632J-1136D01*
G03X177532Y257450I-34J399D01*
G02X178934Y256313I1291J159D01*
G03X178572Y255866I34J-399D01*
G02X177092Y254421I-1290J-158D01*
G03X176634Y254014I-58J-396D01*
G37*
G36*
G01X203927Y253395D02*
G02X203477Y252045I807J-1019D01*
G03X202841Y252257I-387J-102D01*
G02X203291Y253607I-807J1019D01*
G03X203927Y253395I387J102D01*
G37*
G36*
G01X151093Y250778D02*
G02X149834Y251146I-944J-894D01*
G03X150019Y251818I-97J388D01*
G02X151299Y251444I985J995D01*
G03X151093Y250778I84J-391D01*
G37*
G36*
G01X115009Y245980D02*
G02X112462Y245588I-1247J-368D01*
G03X112032Y245979I-400J-7D01*
G02X110741Y246759I-98J1296D01*
G03X110223Y246971I-367J-159D01*
G02X110927Y248692I-489J1205D01*
G03X111445Y248480I367J159D01*
G02X112876Y248171I489J-1205D01*
G03X113516Y248253I290J276D01*
G02X114775Y248919I1138J-629D01*
G03X115170Y249495I37J398D01*
G02X116213Y248781I1164J580D01*
G03X115818Y248204I-37J-398D01*
G02X115219Y246453I-1164J-580D01*
G03X115009Y245980I174J-360D01*
G37*
G36*
G01X144854Y241128D02*
G02X142905Y239419I-909J-929D01*
G03X142315Y239473I-320J-240D01*
G02X140681Y241490I-878J959D01*
G03X140754Y242074I-232J326D01*
G02X142747Y243745I992J840D01*
G03X143368Y243751I308J255D01*
G02X145620Y243345I1017J-810D01*
G03X146286Y243190I380J124D01*
G02X145982Y241878I931J-908D01*
G03X145315Y242032I-380J-124D01*
G02X144958Y241773I-931J908D01*
G03X144854Y241128I176J-359D01*
G37*
G36*
G01X28618Y236274D02*
G02X27670Y238322I-1628J490D01*
G03X28213Y238573I160J367D01*
G02X28510Y239141I1628J-490D01*
G03X28438Y239709I-313J249D01*
G02X30497Y240128I845J1116D01*
G03X30653Y239577I347J-199D01*
G02X31358Y238851I-812J-1494D01*
G03X32007Y238757I357J180D01*
G02X31853Y237037I1021J-958D01*
G03X31198Y237060I-335J-218D01*
G02X29161Y236525I-1357J1024D01*
G03X28618Y236274I-160J-367D01*
G37*
G36*
G01X192085Y235032D02*
G02X190214I-935J-903D01*
G03Y235588I-288J278D01*
G02X190105Y235717I935J903D01*
G03X189754Y235659I-161J-119D01*
G02X189461Y237239I-1620J517D01*
G03X190097Y237254I312J250D01*
G02X192085Y235588I1053J-763D01*
G03Y235032I288J-278D01*
G37*
G36*
G01X57579Y232895D02*
G02X55547Y231271I-1016J-811D01*
G03X55015Y231356I-312J-250D01*
G02X53418Y231489I-713J1087D01*
G03X52868Y231483I-272J-293D01*
G02X51029Y233321I-904J934D01*
G03X51017Y233889I-287J278D01*
G02X52776Y235804I895J943D01*
G03X53314Y235810I266J299D01*
G02X55323Y235512I885J-952D01*
G03X55943Y235422I346J201D01*
G02X57642Y233457I891J-947D01*
G03X57579Y232895I249J-313D01*
G37*
G36*
G01X110433Y225327D02*
G02X109698Y226447I-1299J-51D01*
G03X110272Y226823I174J360D01*
G02X111006Y225703I1299J51D01*
G03X110433Y225327I-174J-360D01*
G37*
G36*
G01X215102Y215743D02*
G02X213087Y215647I-968J-868D01*
G03X213045Y216170I-322J237D01*
G02X212981Y216238I979J1001D01*
G03X212296Y216076I-298J-267D01*
G02X209914Y215497I-1351J367D01*
G03X209311Y215481I-295J-271D01*
G02X209265Y217323I-1078J894D01*
G03X209868Y217338I295J271D01*
G02X211989Y217377I1077J-894D01*
G03X212673Y217539I298J267D01*
G02X215094Y216268I1351J-367D01*
G03X215102Y215743I306J-258D01*
G37*
G36*
G01X91109Y213933D02*
G02X89903Y213361I-125J-1294D01*
G03X89609Y213981I-333J222D01*
G02X88934Y214251I125J1294D01*
G02X87109Y216076I-800J1025D01*
G02Y217676I1025J800D01*
G02X88984Y219459I1025J800D01*
G02X90806Y217612I850J-984D01*
G02X90759Y216076I-1072J-736D01*
G02X90815Y214553I-1025J-800D01*
G03X91109Y213933I333J-222D01*
G37*
G36*
G01X156873Y213060D02*
G02X155434Y212987I-660J-1235D01*
G03X155399Y213672I-223J332D01*
G02X156838Y213745I660J1235D01*
G03X156873Y213060I223J-332D01*
G37*
G36*
G01X128410Y204717D02*
G02X128126Y203435I954J-884D01*
G03X127444Y203574I-381J-123D01*
G02X127732Y204879I-1057J918D01*
G03X128410Y204717I384J110D01*
G37*
G36*
G01X271754Y202484D02*
G02X270514I-620J-1143D01*
G03Y203187I-191J352D01*
G02X271754I620J1143D01*
G03Y202484I191J-352D01*
G37*
G36*
G01X230634Y199951D02*
G02X229234I-700J-975D01*
G03Y200601I-233J325D01*
G02X230634I700J975D01*
G03Y199951I233J-325D01*
G37*
G36*
G01X192350Y199687D02*
G02X191187I-581J-1050D01*
G03Y200387I-194J350D01*
G02X192350I581J1050D01*
G03Y199687I194J-350D01*
G37*
G36*
G01X235013Y199176D02*
G02X233855Y198201I21J-1200D01*
G03X233455Y198676I-393J75D01*
G02X234613Y199651I-21J1200D01*
G03X235013Y199176I393J-75D01*
G37*
G36*
G01X89404Y197582D02*
G02X87174Y196354I-1243J-382D01*
G03X86623Y196408I-304J-260D01*
G02X86804Y198275I-806J1021D01*
G03X87356Y198221I304J260D01*
G02X87600Y198374I805J-1021D01*
G03X87810Y198852I-173J361D01*
G02X88219Y200231I1243J382D01*
G03X88184Y200871I-257J307D01*
G02X88042Y202925I721J1082D01*
G03X88012Y203548I-266J299D01*
G02X89640Y203627I765J1051D01*
G03X89670Y203004I266J-299D01*
G02X89739Y200955I-765J-1051D01*
G03X89774Y200316I257J-307D01*
G02X89614Y198061I-721J-1082D01*
G03X89404Y197582I173J-361D01*
G37*
G36*
G01X219059Y196887D02*
G02X217895Y196887I-582J-1050D01*
G03X217895Y197586I-194J350D01*
G02X219059Y197587I582J1050D01*
G03X219059Y196887I194J-350D01*
G37*
G36*
G01X169383Y196799D02*
G02X168023Y196851I-718J-962D01*
G03X168049Y197510I-214J338D01*
G02X169408Y197457I718J962D01*
G03X169383Y196799I214J-338D01*
G37*
G36*
G01X184453Y196906D02*
G02X183055Y196986I-761J-1054D01*
G03X183106Y197649I-196J349D01*
G02X183083Y199519I741J944D01*
G03X183086Y200133I-255J309D01*
G02X184700Y200084I838J994D01*
G03X184666Y199470I239J-321D01*
G02X184477Y197571I-819J-877D01*
G03X184453Y196906I210J-340D01*
G37*
G36*
G01X226981Y196328D02*
G02X225488Y196420I-804J-891D01*
G03X225526Y197044I-230J327D01*
G02X227019Y196952I804J891D01*
G03X226981Y196328I230J-327D01*
G37*
G36*
G01X235180Y190118D02*
G02Y191280I-1050J581D01*
G03X235880I350J194D01*
G02Y190118I1050J-581D01*
G03X235180I-350J-194D01*
G37*
G36*
G01X155508Y189994D02*
G02Y191157I-1050J581D01*
G03X156208I350J194D01*
G02Y189994I1050J-581D01*
G03X155508I-350J-194D01*
G37*
G36*
G01X222923Y188458D02*
G02X221617Y188505I-689J-983D01*
G03X221628Y189184I-206J343D01*
G02X221596Y191346I706J1092D01*
G03Y192005I-227J329D01*
G02X221500Y194073I738J1071D01*
G03X221539Y194649I-257J307D01*
G02X223250Y194581I889J807D01*
G03X223244Y194004I274J-291D01*
G02X223072Y192005I-910J-928D01*
G03Y191346I227J-329D01*
G02X222960Y189136I-738J-1071D01*
G03X222923Y188458I193J-351D01*
G37*
G36*
G01X177309Y188290D02*
G02X175630Y188299I-845J-853D01*
G03X175633Y188871I-278J287D01*
G02X175680Y190621I845J853D01*
G03X175661Y191235I-266J299D01*
G02X175502Y192977I739J946D01*
G03X175509Y193501I-299J266D01*
G02X175558Y195103I917J774D01*
G03X175560Y195653I-289J276D01*
G02X175640Y197376I874J822D01*
G03Y197976I-265J300D01*
G02X175773Y199878I794J900D01*
G03X175731Y200570I-220J334D01*
G02X176924Y200644I533J1075D01*
G03X176967Y199951I220J-334D01*
G02X177228Y197976I-533J-1075D01*
G03Y197376I265J-300D01*
G02X177302Y195647I-794J-900D01*
G03X177300Y195097I289J-276D01*
G02X177324Y193478I-874J-822D01*
G03X177317Y192954I299J-266D01*
G02X177197Y191283I-917J-774D01*
G03X177217Y190669I266J-299D01*
G02X177312Y188861I-739J-946D01*
G03X177309Y188290I278J-287D01*
G37*
G36*
G01X173146Y188487D02*
G02X171984I-581J-1050D01*
G03Y189187I-194J350D01*
G02X173146I581J1050D01*
G03Y188487I194J-350D01*
G37*
G36*
G01X200137Y188570D02*
G02X198626Y188495I-703J-1094D01*
G03X198594Y189145I-248J314D01*
G02X198623Y191351I703J1094D01*
G03X198652Y192015I-207J342D01*
G02X200095Y191951I769J1048D01*
G03X200066Y191287I207J-342D01*
G02X200104Y189220I-769J-1048D01*
G03X200137Y188570I248J-314D01*
G37*
G36*
G01X232784Y186094D02*
G02Y187257I-1050J581D01*
G03X233484I350J194D01*
G02Y186094I1050J-581D01*
G03X232784I-350J-194D01*
G37*
G36*
G01X184649Y185626D02*
G02X183329Y185653I-681J-989D01*
G03X183342Y186320I-213J338D01*
G02X184663Y186294I681J989D01*
G03X184649Y185626I213J-338D01*
G37*
G36*
G01X232610Y182178D02*
G02X230632Y182215I-976J698D01*
G03X229982Y182240I-334J-220D01*
G02X227998Y182370I-948J736D01*
G03X227323Y182395I-345J-202D01*
G02X227370Y183681I-989J680D01*
G03X228045Y183656I345J202D01*
G02X230036Y183636I989J-680D01*
G03X230686Y183611I334J220D01*
G02X232533Y183671I948J-736D01*
G03X233158Y183704I300J265D01*
G02X233235Y182210I976J-698D01*
G03X232610Y182178I-300J-265D01*
G37*
G36*
G01X250870Y182436D02*
G02X249831Y184223I-1336J419D01*
G03X250298Y184495I85J391D01*
G02X250682Y185102I1336J-419D01*
G03X250698Y185673I-272J293D01*
G02X252871Y186975I936J902D01*
G03X253530Y186810I381J123D01*
G02X253134Y185834I904J-935D01*
G03X252761Y185928I-200J-6D01*
G02X252570Y185673I-1127J648D01*
G03X252586Y185102I288J-278D01*
G02X251337Y182707I-952J-1027D01*
G03X250870Y182436I-85J-391D01*
G37*
G36*
G01X158712Y183311D02*
G02X158627Y181855I909J-784D01*
G03X157993Y181892I-331J-224D01*
G02X158078Y183348I-909J784D01*
G03X158712Y183311I331J224D01*
G37*
G36*
G01X176904Y180159D02*
G02X175414Y180299I-832J-865D01*
G03X175473Y180922I-219J335D01*
G02X176962Y180782I832J865D01*
G03X176904Y180159I219J-335D01*
G37*
G36*
G01X200089Y180281D02*
G02X198658Y180191I-655J-1005D01*
G03X198618Y180832I-259J305D01*
G02X198401Y182662I655J1005D01*
G03X198391Y183221I-291J275D01*
G02X200106Y183251I843J855D01*
G03X200116Y182692I291J-275D01*
G02X200049Y180921I-843J-855D01*
G03X200089Y180281I259J-305D01*
G37*
G36*
G01X221228Y178417D02*
G02Y179580I-1050J581D01*
G03X221928I350J194D01*
G02X224028Y179580I1050J-581D01*
G03X224728Y179581I350J194D01*
G02X224728Y178417I1050J-582D01*
G03X224028Y178417I-350J-194D01*
G02X221928Y178417I-1050J581D01*
G03X221228I-350J-194D01*
G37*
G36*
G01X166314Y178417D02*
G02Y179580I-1050J581D01*
G03X167014I350J194D01*
G02X169114Y179580I1050J-581D01*
G03X169814Y179580I350J194D01*
G02X171050Y180185I1050J-581D01*
G03X171493Y180704I62J395D01*
G02X171924Y182043I1141J372D01*
G03X171949Y182668I-237J322D01*
G02X173444Y182608I785J908D01*
G03X173419Y181983I237J-322D01*
G02X172447Y179890I-785J-908D01*
G03X172005Y179371I-62J-395D01*
G02X169814Y178417I-1141J-372D01*
G03X169114Y178417I-350J-194D01*
G02X167014Y178417I-1050J581D01*
G03X166314I-350J-194D01*
G37*
G36*
G01X259140Y179063D02*
G02X259003Y177652I1133J-822D01*
G03X258380Y177788I-363J-168D01*
G02X256613Y177858I-846J988D01*
G03X256025Y177834I-283J-282D01*
G02X255955Y179594I-991J842D01*
G03X256543Y179617I283J282D01*
G02X256835Y179872I991J-842D01*
G03X256977Y180388I-215J337D01*
G02X258906Y179789I1252J627D01*
G03X258731Y179283I193J-350D01*
G02X258786Y179126I-1197J-507D01*
G03X259140Y179063I193J54D01*
G37*
G36*
G01X41247Y178733D02*
G02X39921Y177208I273J-1577D01*
G03X39453Y177616I-400J13D01*
G02X38826Y177632I-273J1577D01*
G03X38337Y177245I-89J-390D01*
G02X37091Y178819I-1600J14D01*
G03X37580Y179206I89J390D01*
G02X37621Y179553I1600J-13D01*
G03X37193Y180042I-390J90D01*
G02X38426Y182439I-151J1593D01*
G03X39138Y182479I346J201D01*
G02X40964Y180279I1466J-641D01*
G03X40680Y179750I90J-390D01*
G02X40779Y179140I-1500J-558D01*
G03X41247Y178733I400J-13D01*
G37*
G36*
G01X215628Y174517D02*
G02Y175681I-1050J582D01*
G03X216328I350J194D01*
G02Y174517I1050J-582D01*
G03X215628I-350J-194D01*
G37*
G36*
G01X171914Y174518D02*
G02Y175680I-1050J581D01*
G03X172614I350J194D01*
G02Y174518I1050J-581D01*
G03X171914I-350J-194D01*
G37*
G36*
G01X208758Y173855D02*
G02X207335Y173571I-524J-1080D01*
G03X207210Y174196I-300J265D01*
G02X208633Y174480I524J1080D01*
G03X208758Y173855I300J-265D01*
G37*
G36*
G01X177462Y173591D02*
G02X176211Y173308I-402J-1131D01*
G03X176062Y173968I-283J283D01*
G02X177313Y174250I402J1131D01*
G03X177462Y173591I283J-283D01*
G37*
G36*
G01X264910Y171932D02*
G02X264780Y170322I950J-887D01*
G03X264144Y170359I-332J-222D01*
G02X264276Y171997I-1064J910D01*
G03X264910Y171932I342J208D01*
G37*
G36*
G01X232428Y167014D02*
G02Y168177I-1050J581D01*
G03X233128I350J194D01*
G02X235228Y168176I1050J-581D01*
G03X235928I350J194D01*
G02Y167014I1050J-581D01*
G03X235228I-350J-194D01*
G02X233128Y167014I-1050J581D01*
G03X232428I-350J-194D01*
G37*
G36*
G01X169380Y166811D02*
G02Y168286I-1071J738D01*
G03X170038I329J227D01*
G02X172180I1071J-738D01*
G03X172838I329J227D01*
G02Y166811I1071J-738D01*
G03X172180I-329J-227D01*
G02X170038I-1071J738D01*
G03X169380I-329J-227D01*
G37*
G36*
G01X215917Y166471D02*
G02X215534Y167570I-1183J205D01*
G03X216195Y167800I267J298D01*
G02X216577Y166700I1183J-205D01*
G03X215917Y166471I-267J-298D01*
G37*
G36*
G01X160724Y162728D02*
G02X158693Y163053I-890J948D01*
G03X158034Y163117I-351J-192D01*
G02X158175Y164571I-1000J831D01*
G03X158834Y164507I351J192D01*
G02X160721Y164626I1000J-831D01*
G03X161268Y164627I273J292D01*
G02X161271Y162729I890J-948D01*
G03X160724Y162728I-273J-292D01*
G37*
G36*
G01X233122Y164399D02*
G02X233093Y162924I1056J-758D01*
G03X232434Y162937I-334J-220D01*
G02X232463Y164412I-1056J758D01*
G03X233122Y164399I334J220D01*
G37*
G36*
G01X227296Y164209D02*
G02X227202Y162962I974J-701D01*
G03X226521Y163014I-356J-182D01*
G02X226615Y164261I-974J701D01*
G03X227296Y164209I356J182D01*
G37*
G36*
G01X202498Y164399D02*
G02X201211Y164601I-800J-894D01*
G03X201304Y165275I-162J366D01*
G02X202616Y165068I830J1001D01*
G03X202498Y164399I148J-371D01*
G37*
G36*
G01X166654Y162793D02*
G02X166479Y164209I-1166J574D01*
G03X167143Y164291I305J259D01*
G02X169380Y164454I1166J-574D01*
G03X170038I329J227D01*
G02X172180I1071J-738D01*
G03X172838I329J227D01*
G02Y162979I1071J-738D01*
G03X172180I-329J-227D01*
G02X170038I-1071J738D01*
G03X169380I-329J-227D01*
G02X167318Y162875I-1071J738D01*
G03X166654Y162793I-305J-259D01*
G37*
G36*
G01X95960Y164058D02*
G02X95113Y162496I528J-1297D01*
G03X94570Y162790I-393J-76D01*
G02X94073Y165487I-528J1297D01*
G03X94417Y166106I9J400D01*
G02X95558Y165473I1172J767D01*
G03X95214Y164854I-9J-400D01*
G02X95417Y164353I-1172J-766D01*
G03X95960Y164058I393J76D01*
G37*
G36*
G01X180653Y161704D02*
G02X179265Y161597I-619J-1028D01*
G03X179215Y162247I-256J307D01*
G02X180603Y162354I619J1028D01*
G03X180653Y161704I256J-307D01*
G37*
G36*
G01X295437Y160017D02*
G02X292740Y159818I-1375J263D01*
G03X292067Y159955I-378J-132D01*
G02X292352Y161359I-1036J942D01*
G03X293026Y161222I378J132D01*
G02X294625Y161562I1036J-942D01*
G03X295179Y161854I161J366D01*
G02X295991Y160308I1375J-263D01*
G03X295437Y160017I-161J-366D01*
G37*
G36*
G01X171783Y159164D02*
G02Y160639I-1071J738D01*
G03X172442I329J227D01*
G02X174583I1071J-738D01*
G03X175242I329J227D01*
G02Y159164I1071J-738D01*
G03X174583I-329J-227D01*
G02X172442I-1071J738D01*
G03X171783I-329J-227D01*
G37*
G36*
G01X235862Y160462D02*
G02Y159128I1116J-667D01*
G03X235183Y159140I-343J-205D01*
G02Y160450I-1006J655D01*
G03X235862Y160462I335J218D01*
G37*
G36*
G01X227129Y160501D02*
G02X226987Y159063I1005J-825D01*
G03X226336Y159141I-353J-189D01*
G02X226476Y160551I-894J800D01*
G03X227129Y160501I344J203D01*
G37*
G36*
G01X270940Y159890D02*
G02X269946Y160843I-1341J-404D01*
G03X270172Y161132I50J194D01*
G02X270117Y161243I1228J672D01*
G03X269586Y161448I-366J-160D01*
G02X270293Y163285I-576J1276D01*
G03X270824Y163081I366J160D01*
G02X272599Y162528I576J-1276D01*
G03X273260Y162493I342J207D01*
G02X273176Y160922I1115J-847D01*
G03X272515Y160958I-342J-207D01*
G02X271340Y160406I-1115J847D01*
G03X270940Y159890I-17J-400D01*
G37*
G36*
G01X208733Y158772D02*
G02X207360Y158930I-799J-896D01*
G03X207435Y159580I-191J351D01*
G02X208808Y159421I799J896D01*
G03X208733Y158772I191J-351D01*
G37*
G36*
G01X130786Y153645D02*
G02X127872Y154004I-1353J1030D01*
G03X127341Y154210I-367J-158D01*
G02X127954Y156228I-575J1277D01*
G03X128511Y156103I339J212D01*
G02X130594Y155918I923J-1428D01*
G03X131186Y155968I273J292D01*
G02X131437Y156233I1353J-1030D01*
G03X131285Y156923I-259J305D01*
G02X132581Y157285I349J1253D01*
G03X132809Y156616I291J-274D01*
G02X131378Y153695I-271J-1679D01*
G03X130786Y153645I-273J-292D01*
G37*
G36*
G01X216632Y153124D02*
G02X216527Y151772I935J-752D01*
G03X215869Y151823I-347J-200D01*
G02X215974Y153175I-935J752D01*
G03X216632Y153124I347J200D01*
G37*
G36*
G01X248137Y152673D02*
G02X245856Y151529I-1253J-348D01*
G03X245221Y151525I-316J-245D01*
G02X245176Y153025I-958J722D01*
G03X245810Y153059I304J259D01*
G02X246434Y153546I1074J-733D01*
G03X246681Y154028I-138J375D01*
G02X248928Y155214I1253J348D01*
G03X249456Y155140I306J258D01*
G02X249108Y153143I778J-1164D01*
G03X248586Y153251I-322J-238D01*
G02X248384Y153156I-652J1125D01*
G03X248137Y152673I138J-375D01*
G37*
G36*
G01X169372Y151620D02*
G02Y152782I-1050J581D01*
G03X170072I350J194D01*
G02X172172I1050J-581D01*
G03X172872I350J194D01*
G02Y151620I1050J-581D01*
G03X172172I-350J-194D01*
G02X170072I-1050J581D01*
G03X169372I-350J-194D01*
G37*
G36*
G01X205440Y152571D02*
G02X204086Y152541I-655J-1006D01*
G03X204071Y153201I-233J325D01*
G02X205425Y153231I655J1006D01*
G03X205440Y152571I233J-325D01*
G37*
G36*
G01X202399Y152538D02*
G02X201016Y152554I-703J-973D01*
G03X201024Y153208I-227J330D01*
G02X202407Y153192I703J973D01*
G03X202399Y152538I227J-330D01*
G37*
G36*
G01X218647Y148255D02*
G02X218174Y149441I-1180J217D01*
G03X218803Y149692I236J323D01*
G02X219483Y150566I1181J-217D01*
G03X219596Y151216I-167J364D01*
G02X221327Y152877I838J859D01*
G03X221963Y152931I298J267D01*
G02X222085Y151490I1015J-640D01*
G03X221449Y151436I-298J-267D01*
G02X220934Y150985I-1015J640D01*
G03X220822Y150335I167J-364D01*
G02X219277Y148506I-838J-859D01*
G03X218647Y148255I-236J-323D01*
G37*
G36*
G01X163514Y147810D02*
G02Y148972I-1050J581D01*
G03X164214I350J194D01*
G02X166314I1050J-581D01*
G03X167014I350J194D01*
G02Y147810I1050J-581D01*
G03X166314I-350J-194D01*
G02X164214I-1050J581D01*
G03X163514I-350J-194D01*
G37*
G36*
G01X122204Y148142D02*
G02X119832Y148307I-1270J-1130D01*
G03X119872Y148877I-259J305D01*
G02X120012Y151277I1271J1130D01*
G03X119960Y151914I-266J299D01*
G02X121620Y153883I694J1099D01*
G03X122244Y153920I297J268D01*
G02X122339Y152299I1062J-751D01*
G03X121716Y152262I-297J-268D01*
G02X121661Y152190I-1061J751D01*
G03X121813Y151570I310J-253D01*
G02X122244Y148712I-670J-1562D01*
G03X122204Y148142I259J-305D01*
G37*
G36*
G01X163675Y143679D02*
G02X163565Y145034I-1042J596D01*
G03X164222Y145087I310J253D01*
G02X166327Y145046I1042J-596D01*
G03X167020Y145018I355J185D01*
G02X166970Y143820I1014J-642D01*
G03X166278Y143849I-355J-185D01*
G02X164333Y143733I-1014J642D01*
G03X163675Y143679I-310J-253D01*
G37*
G36*
G01X235276Y136438D02*
G02X235273Y137601I-1051J579D01*
G03X235973Y137603I349J195D01*
G02X235975Y136440I1051J-579D01*
G03X235276Y136438I-349J-195D01*
G37*
G36*
G01X171914Y136406D02*
G02Y137569I-1050J581D01*
G03X172614I350J194D01*
G02Y136406I1050J-581D01*
G03X171914I-350J-194D01*
G37*
G36*
G01X164215Y137569D02*
G02X164215Y136406I1050J-582D01*
G03X163515Y136406I-350J-194D01*
G02X163515Y137569I-1050J582D01*
G03X164215Y137569I350J194D01*
G37*
G36*
G01X157914Y136405D02*
G02Y137568I-1050J581D01*
G03X158614I350J194D01*
G02Y136405I1050J-581D01*
G03X157914I-350J-194D01*
G37*
G36*
G01X224204Y136299D02*
G02X221972Y136421I-1079J725D01*
G03X221270Y136433I-354J-185D01*
G02X219177Y136440I-1044J591D01*
G03X218477Y136439I-349J-195D01*
G02X218474Y137601I-1052J579D01*
G03X219174Y137603I349J195D01*
G02X221270Y137615I1052J-579D01*
G03X221972Y137627I348J197D01*
G02X224204Y137749I1152J-603D01*
G03X224858Y137735I332J223D01*
G02X226876Y137603I967J-711D01*
G03X227576Y137602I350J193D01*
G02X229673Y137601I1048J-584D01*
G03X230372Y137603I349J195D01*
G02X230375Y136440I1051J-579D01*
G03X229675Y136438I-349J-195D01*
G02X227573Y136438I-1051J579D01*
G03X226873Y136439I-350J-193D01*
G02X224858Y136312I-1048J584D01*
G03X224204Y136299I-322J-237D01*
G37*
G36*
G01X120277Y133822D02*
G02X120230Y135239I-1230J668D01*
G03X120919Y135262I338J214D01*
G02X120966Y133844I1230J-668D01*
G03X120277Y133822I-338J-214D01*
G37*
G36*
G01X232474Y132536D02*
G02Y133698I-1050J581D01*
G03X233174I350J194D01*
G02Y132536I1050J-581D01*
G03X232474I-350J-194D01*
G37*
G36*
G01X172781Y133900D02*
G02X172724Y132341I883J-813D01*
G03X172117Y132363I-313J-249D01*
G02X172174Y133922I-883J813D01*
G03X172781Y133900I313J249D01*
G37*
G36*
G01X157914Y132505D02*
G02Y133669I-1049J582D01*
G03X158614I350J194D01*
G02Y132505I1049J-582D01*
G03X157914I-350J-194D01*
G37*
G36*
G01X224395Y132252D02*
G02X222309Y132450I-970J865D01*
G03X221630Y132462I-343J-205D01*
G02Y133772I-1006J655D01*
G03X222309Y133785I335J218D01*
G02X224395Y133983I1116J-668D01*
G03X224976Y133966I299J266D01*
G02Y132269I849J-849D01*
G03X224395Y132252I-283J-283D01*
G37*
G36*
G01X226875Y128636D02*
G02Y129798I-1050J581D01*
G03X227575I350J194D01*
G02Y128636I1050J-581D01*
G03X226875I-350J-194D01*
G37*
G36*
G01X235975Y129798D02*
G02X235975Y128635I1050J-582D01*
G03X235275Y128635I-350J-194D01*
G02X233175Y128636I-1050J582D01*
G03X232475I-350J-194D01*
G02Y129798I-1050J581D01*
G03X233175I350J194D01*
G02X235275Y129799I1050J-581D01*
G03X235975Y129798I350J194D01*
G37*
G36*
G01X155349Y128399D02*
G02X155342Y129961I-915J777D01*
G03X155949Y129964I302J262D01*
G02X157914Y129768I915J-777D01*
G03X158614I350J194D01*
G02Y128606I1050J-581D01*
G03X157914I-350J-194D01*
G02X155956Y128402I-1050J581D01*
G03X155349Y128399I-302J-262D01*
G37*
G36*
G01X207701Y128528D02*
G02X206538I-581J-1050D01*
G03Y129228I-194J350D01*
G02X207701I581J1050D01*
G03Y128528I194J-350D01*
G37*
G36*
G01X295914Y126312D02*
G02X294464Y126637I-985J-996D01*
G03X294613Y127298I-133J377D01*
G02X296062Y126973I985J996D01*
G03X295914Y126312I133J-377D01*
G37*
G36*
G01X199849Y125956D02*
G02X198529Y126071I-747J-940D01*
G03X198587Y126736I-191J351D01*
G02X198481Y128520I747J940D01*
G03X198432Y129125I-284J281D01*
G02X198556Y131146I706J971D01*
G03Y131846I-194J350D01*
G02X199719I581J1050D01*
G03Y131146I194J-350D01*
G02X199991Y129251I-581J-1050D01*
G03X200040Y128646I284J-281D01*
G02X199907Y126621I-706J-971D01*
G03X199849Y125956I191J-351D01*
G37*
G36*
G01X215205Y125729D02*
G02X214042I-582J-1050D01*
G03Y126428I-194J350D01*
G02X215205I581J1050D01*
G03Y125729I194J-350D01*
G37*
G36*
G01X203958Y125626D02*
G02X202483I-737J-947D01*
G03Y126257I-246J316D01*
G02X203958I737J947D01*
G03Y125626I246J-316D01*
G37*
G36*
G01X252524Y122192D02*
G02Y123954I-956J881D01*
G03X253112I294J271D01*
G02X255215Y123685I956J-881D01*
G03X255921I353J188D01*
G02Y122461I1147J-612D01*
G03X255215I-353J-188D01*
G02X253112Y122192I-1147J612D01*
G03X252524I-294J-271D01*
G37*
G36*
G01X199743Y120173D02*
G02X198433I-655J-1006D01*
G03X198421Y120851I-218J335D01*
G02X199756I668J1116D01*
G03X199743Y120173I205J-343D01*
G37*
G36*
G01X223005Y120129D02*
G02X221842I-581J-1050D01*
G03Y120829I-194J350D01*
G02Y122929I581J1050D01*
G03Y123629I-194J350D01*
G02X223005I581J1050D01*
G03Y122929I194J-350D01*
G02Y120829I-581J-1050D01*
G03Y120129I194J-350D01*
G37*
G36*
G01X237334Y117506D02*
G02X236481Y116652I307J-1160D01*
G03X235992Y117140I-387J102D01*
G02X236845Y117995I-307J1160D01*
G03X237334Y117506I387J-102D01*
G37*
G36*
G01X207701Y117329D02*
G02X206538I-581J-1050D01*
G03Y118029I-194J350D01*
G02X207701I581J1050D01*
G03Y117329I194J-350D01*
G37*
G36*
G01X203864Y114592D02*
G02X202575Y114592I-645J-1012D01*
G03X202575Y115267I-215J338D01*
G02X202638Y117329I645J1012D01*
G03X202638Y118029I-194J350D01*
G02X203801Y118029I581J1050D01*
G03X203801Y117329I194J-350D01*
G02X203864Y115266I-581J-1050D01*
G03X203864Y114592I215J-338D01*
G37*
G36*
G01X226905Y114529D02*
G02X225742I-581J-1050D01*
G03Y115229I-194J350D01*
G02Y117329I581J1050D01*
G03Y118029I-194J350D01*
G02X225742Y120129I581J1050D01*
G03X225742Y120829I-194J350D01*
G02X226905Y120829I582J1050D01*
G03X226905Y120129I194J-350D01*
G02X226905Y118029I-582J-1050D01*
G03Y117329I194J-350D01*
G02Y115229I-581J-1050D01*
G03Y114529I194J-350D01*
G37*
G36*
G01X215205D02*
G02X214042I-581J-1050D01*
G03Y115229I-194J350D01*
G02Y117329I581J1050D01*
G03Y118029I-194J350D01*
G02X213932Y120060I581J1050D01*
G03X213932Y120714I-231J327D01*
G02X215316Y120713I692J980D01*
G03X215315Y120060I231J-327D01*
G02X215205Y118029I-692J-980D01*
G03Y117329I194J-350D01*
G02Y115229I-581J-1050D01*
G03Y114529I194J-350D01*
G37*
G36*
G01X223005Y111729D02*
G02X221842Y111730I-582J-1050D01*
G03X221842Y112429I-194J350D01*
G02X223005Y112429I582J1050D01*
G03X223005Y111729I194J-350D01*
G37*
G36*
G01X230805Y111073D02*
G02X229642I-581J-1050D01*
G03Y111773I-194J350D01*
G02Y113873I581J1050D01*
G03Y114573I-194J350D01*
G02X230805I581J1050D01*
G03Y113873I194J-350D01*
G02Y111773I-581J-1050D01*
G03Y111073I194J-350D01*
G37*
G36*
G01X257680Y108220D02*
G02X256456I-612J-1147D01*
G03Y108926I-188J353D01*
G02Y111220I612J1147D01*
G03Y111926I-188J353D01*
G02Y114220I612J1147D01*
G03Y114926I-188J353D01*
G02Y117220I612J1147D01*
G03Y117926I-188J353D01*
G02X257680I612J1147D01*
G03Y117220I188J-353D01*
G02Y114926I-612J-1147D01*
G03Y114220I188J-353D01*
G02Y111926I-612J-1147D01*
G03Y111220I188J-353D01*
G02Y108926I-612J-1147D01*
G03Y108220I188J-353D01*
G37*
G36*
G01X192715Y98461D02*
G02Y99685I-1147J612D01*
G03X193421I353J188D01*
G02X195715I1147J-612D01*
G03X196421I353J188D01*
G02Y98461I1147J-612D01*
G03X195715I-353J-188D01*
G02X193421I-1147J612D01*
G03X192715I-353J-188D01*
G37*
G36*
G01X184180Y90220D02*
G02X182956I-612J-1147D01*
G03Y90926I-188J353D01*
G02X182421Y91461I612J1147D01*
G03X181715I-353J-188D01*
G02Y92685I-1147J612D01*
G03X182421I353J188D01*
G02X184180Y90926I1147J-612D01*
G03Y90220I188J-353D01*
G37*
G36*
G01X72614Y85230D02*
G02X71260Y84992I-465J-1321D01*
G03X71140Y85679I-254J309D01*
G02X72493Y85917I465J1321D01*
G03X72614Y85230I254J-309D01*
G37*
G36*
G01X47901Y77365D02*
G02X45514Y78826I-1220J688D01*
G03X45192Y79446I-334J221D01*
G02X44745Y82158I42J1400D01*
G03X44952Y82732I-140J375D01*
G02X46654Y82119I1213J699D01*
G03X46447Y81545I140J-375D01*
G02X46501Y81442I-1213J-699D01*
G03X46863I181J85D01*
G02X48158Y82246I1267J-596D01*
G03X48525Y82820I8J400D01*
G02X51037Y82805I1260J611D01*
G03X51336Y82231I358J-179D01*
G02X51260Y79452I-206J-1385D01*
G03X50938Y78877I37J-398D01*
G02X48568Y77411I-1257J-617D01*
G03X47901Y77365I-318J-242D01*
G37*
G36*
G01X287239Y78928D02*
G02X286353Y77776I507J-1305D01*
G03X285811Y78193I-398J44D01*
G02X286696Y79344I-507J1305D01*
G03X287239Y78928I398J-44D01*
G37*
G36*
G01X98631Y69095D02*
G02X97697Y68030I441J-1329D01*
G03X97178Y68484I-393J75D01*
G02X98112Y69550I-441J1329D01*
G03X98631Y69095I393J-75D01*
G37*
G36*
G01X211215Y55461D02*
G02Y56685I-1147J612D01*
G03X211921I353J188D01*
G02Y55461I1147J-612D01*
G03X211215I-353J-188D01*
G37*
G36*
G01X114518Y57127D02*
G02X114302Y55526I1025J-954D01*
G03X113654Y55613I-355J-185D01*
G02X113871Y57214I-1025J954D01*
G03X114518Y57127I355J185D01*
G37*
G36*
G01X91250Y53174D02*
G02X89220Y53041I-1068J741D01*
G03X88640Y53054I-296J-269D01*
G02X88732Y54924I-994J986D01*
G03X89310Y54880I310J253D01*
G02X91178Y54751I872J-964D01*
G03X91822Y54794I306J257D01*
G02X91896Y53190I1183J-750D01*
G03X91250Y53174I-317J-244D01*
G37*
G36*
G01X288421Y53076D02*
G02X286900Y53046I-737J-1190D01*
G03X286886Y53717I-224J331D01*
G02X288408Y53747I737J1190D01*
G03X288421Y53076I224J-331D01*
G37*
G36*
G01X82532Y51456D02*
G02X80622Y51669I-1052J-763D01*
G03X80667Y52223I-264J300D01*
G02X82530Y54274I1083J888D01*
G03X83127Y54463I223J332D01*
G02X83654Y52800I1308J-500D01*
G03X83057Y52611I-223J-332D01*
G02X82610Y52007I-1308J500D01*
G03X82532Y51456I246J-316D01*
G37*
G36*
G01X131290Y50809D02*
G02X130157Y51610I-1269J-593D01*
G03X130559Y52178I39J398D01*
G02X131691Y51377I1269J593D01*
G03X131290Y50809I-39J-398D01*
G37*
G36*
G01X151642Y47376D02*
G02X150162Y47701I-992J-988D01*
G03X150307Y48358I-139J375D01*
G02X151303Y50746I992J988D01*
G03X151687Y51264I1J400D01*
G02X153021Y50277I1338J413D01*
G03X152637Y49759I-1J-400D01*
G02X151786Y48033I-1338J-413D01*
G03X151642Y47376I139J-375D01*
G37*
G36*
G01X335740Y44442D02*
G02X334527Y43701I23J-1400D01*
G03X334168Y44289I-353J188D01*
G02X335380Y45030I-23J1400D01*
G03X335740Y44442I353J-188D01*
G37*
G36*
G01X339398Y44334D02*
G02X338106Y43948I-295J-1369D01*
G03X337986Y44593I-285J281D01*
G02X339583Y46829I578J1275D01*
G03X340148Y46812I291J274D01*
G02X342445Y46204I959J-1020D01*
G03X343136Y46067I382J118D01*
G02X344309Y43778I1080J-891D01*
G03X343943Y43298I26J-399D01*
G02X341395Y43775I-1372J-282D01*
G03X341069Y44392I-336J217D01*
G02X340088Y44832I38J1400D01*
G03X339523Y44849I-291J-274D01*
G02X339330Y44697I-959J1020D01*
G03X339398Y44334I110J-167D01*
G37*
G36*
G01X190480Y16018D02*
G02Y17566I-1167J774D01*
G03X191147I333J221D01*
G02Y16018I1167J-774D01*
G03X190480I-333J-221D01*
G37*
G54D24*
X51234Y213426D03*
X94214Y255654D03*
X177930Y383446D03*
X175618Y372527D03*
X173820Y383421D03*
X181887D03*
G54D28*
X192467Y142672D03*
X211034Y142676D03*
X233365Y116157D03*
X186134Y139776D03*
X204834Y139576D03*
X195520Y139625D03*
X192534Y139676D03*
X198334Y139276D03*
X210934Y139576D03*
X191809Y118829D03*
X231425Y125317D03*
X207120Y133079D03*
X233444Y112279D03*
X207120Y113479D03*
X217425Y133117D03*
X214624Y130279D03*
X207120Y121880D03*
X234244Y125317D03*
X146836Y116409D03*
X160819Y116406D03*
X160861Y120151D03*
X157015Y125184D03*
X230109Y118625D03*
X218493Y126521D03*
X155761Y110229D03*
X232434Y102184D03*
X154063Y136987D03*
X172565Y127448D03*
X183234Y136876D03*
X195567Y136376D03*
X207934Y136576D03*
X165265Y133088D03*
X172634Y130476D03*
X168065Y133088D03*
X214623Y110679D03*
X199320Y113579D03*
X203219Y110679D03*
X211034Y133576D03*
X218323Y130279D03*
X191868Y130248D03*
Y133049D03*
X191568Y102073D03*
X199320Y110680D03*
X222424Y127479D03*
X202827Y130304D03*
X225825Y125317D03*
X226434Y186676D03*
X226134Y167876D03*
X154134Y175176D03*
X157354Y160142D03*
X201484Y145861D03*
X204784Y145595D03*
X189334Y172376D03*
X162722Y159945D03*
X153200Y195764D03*
X182929Y148376D03*
X155421Y193735D03*
X165709Y159889D03*
X195834Y175476D03*
X180081Y151564D03*
X176834Y152176D03*
X192434Y166576D03*
X183334Y169476D03*
X189234Y175176D03*
X180081Y175445D03*
X207873Y163504D03*
X205134Y206976D03*
X192334Y169676D03*
X202134Y158076D03*
X192334Y145776D03*
X168665Y193037D03*
X187736Y198770D03*
X187518Y195918D03*
X234836Y156073D03*
X228578Y178999D03*
X218434Y181776D03*
X180201Y201722D03*
X180034Y157776D03*
X180334Y154676D03*
X170864Y144491D03*
X160508Y196729D03*
X202034Y175176D03*
X211234Y163276D03*
X214578Y159795D03*
X172634Y195976D03*
X168767Y201372D03*
X157723Y195959D03*
X157664Y199837D03*
X153567Y199576D03*
X154234Y182676D03*
X156634Y179176D03*
X165559Y186657D03*
X156934Y167476D03*
X231578Y178999D03*
X217277Y164181D03*
X220134Y159676D03*
X155758Y202026D03*
X191769Y184637D03*
X228578Y148391D03*
X191567Y187476D03*
X230734Y175176D03*
X225984Y151612D03*
X160534Y192976D03*
X192434Y151565D03*
X192433Y154550D03*
X207834Y153976D03*
X214613Y156326D03*
X210961Y157434D03*
X186257Y148580D03*
Y151564D03*
X186134Y160676D03*
X183234Y163576D03*
X192433Y163504D03*
X186257D03*
X189344Y163505D03*
X198558Y163506D03*
Y166390D03*
X218477Y184637D03*
X146734Y196165D03*
X230191Y208742D03*
X210734Y148276D03*
X183127Y172694D03*
X180029Y169474D03*
X192534Y175476D03*
X211034Y166476D03*
X207634Y169776D03*
X171052Y148447D03*
X162165Y152344D03*
X165217Y152292D03*
X220086Y163445D03*
X220266Y167502D03*
X227225Y175258D03*
X221276Y175287D03*
X235328Y110090D03*
X236755Y121521D03*
X245361Y115191D03*
X235317Y202004D03*
X235706Y193645D03*
X235034Y178826D03*
X237594Y200198D03*
G54D25*
X68446Y213340D03*
X50623Y184174D03*
X50413Y178817D03*
X38202Y257876D03*
X23800Y343726D03*
X39234Y343476D03*
X20141Y324165D03*
X27634Y325976D03*
X121148Y326822D03*
X7434Y323376D03*
X20034Y303776D03*
X23934Y337376D03*
X11915Y326372D03*
X23830Y325594D03*
X30234Y303776D03*
X65034Y353976D03*
X99634Y352976D03*
X105893Y358256D03*
X102305Y368526D03*
X102834Y363176D03*
X110677Y353068D03*
X274913Y137657D03*
X260708Y150869D03*
X224034Y215476D03*
X220034D03*
X219394Y336093D03*
G54D23*
X32636Y111837D03*
X81043Y47250D03*
X82858Y253290D03*
X100839Y256158D03*
X71760Y218581D03*
X67426Y252063D03*
X75920Y250721D03*
X107254Y261276D03*
X92289Y261846D03*
X77391Y256121D03*
X46401Y219353D03*
X86763Y254112D03*
X72474Y194053D03*
X58989Y201647D03*
X35391Y164291D03*
X69448Y199672D03*
X56034Y208576D03*
X30970Y153924D03*
X114152Y213651D03*
X60479Y231143D03*
X62409Y227926D03*
X17514Y156608D03*
X96330Y210983D03*
X106834Y255676D03*
X109059Y212861D03*
X63434Y224276D03*
X105244Y210490D03*
X53569Y175330D03*
X54562Y188660D03*
X44310Y170829D03*
X36040Y169162D03*
X47321Y193376D03*
X67087Y158721D03*
X89919Y311161D03*
X88769Y291190D03*
X59509Y306184D03*
X59312Y280449D03*
X34334Y330396D03*
X85134Y291476D03*
X52898Y330378D03*
X75768Y276134D03*
X92366Y266525D03*
X94734Y272776D03*
X92034Y270676D03*
X94243Y306348D03*
X33983Y304892D03*
X87750Y326876D03*
X88013Y330591D03*
X87957Y322867D03*
X97572Y286475D03*
X84974Y324803D03*
X112278Y293397D03*
X34934Y315876D03*
X55619Y270944D03*
X75947Y271707D03*
X104263Y318861D03*
X110574Y317876D03*
X98734Y306676D03*
X58848Y265010D03*
X87934Y334176D03*
X88105Y342176D03*
X44634Y316776D03*
X31995Y318161D03*
X216191Y9073D03*
X177142Y11424D03*
X216068Y17073D03*
X173992Y20874D03*
X222568Y13073D03*
X177142Y14574D03*
X222571Y9077D03*
X173992Y14574D03*
X222568Y21073D03*
X177142Y20874D03*
X216068Y21073D03*
Y13073D03*
X173992Y17724D03*
X222568Y17073D03*
X177142Y17724D03*
Y61824D03*
X183442Y49224D03*
X216068Y33073D03*
X173992Y33474D03*
X216068Y37073D03*
X173992Y36624D03*
X122334Y141576D03*
X164542Y52374D03*
Y49224D03*
Y55524D03*
X161392Y61824D03*
X173992Y55524D03*
X222568Y49073D03*
X173992Y49224D03*
X189741Y39774D03*
X222568Y41073D03*
X177142Y36624D03*
X188568Y89073D03*
X180292Y52374D03*
X161392Y42924D03*
X177142Y49224D03*
X189741Y42923D03*
X222568Y56073D03*
X177142Y64974D03*
X186592Y55524D03*
X173992Y46074D03*
X216068Y53073D03*
X173992Y52374D03*
X177142D03*
X216068Y25073D03*
X173992Y27174D03*
X170842Y55524D03*
X173992Y61824D03*
X145283Y111764D03*
X216068Y41073D03*
X173992Y39774D03*
X180292Y55524D03*
X222568Y29073D03*
X177142Y27174D03*
X161392Y24024D03*
X186589D03*
X189742Y30324D03*
X196150Y23220D03*
X195840Y29659D03*
X189741Y58674D03*
X196194Y51613D03*
X186589Y58669D03*
X167694Y52374D03*
X164542Y39772D03*
X161392Y49220D03*
X186592Y42926D03*
X161392Y30323D03*
X161391Y64972D03*
X190391Y63398D03*
X186592Y68119D03*
X164541Y61822D03*
X161391Y71271D03*
X161392Y52370D03*
X164541Y68121D03*
X183442Y52374D03*
X154134Y121476D03*
X222568Y33073D03*
X177142Y30324D03*
X192892Y49224D03*
X186592Y52374D03*
X167692Y58673D03*
X222568Y45073D03*
X177142Y39774D03*
Y55524D03*
X167722Y39703D03*
X203568Y99073D03*
X173992Y24024D03*
X183907Y118932D03*
X194072Y39677D03*
X186591Y33475D03*
X177142Y42924D03*
X216068Y49073D03*
X167692Y55524D03*
X216068Y29073D03*
X173992Y30324D03*
X183442Y55524D03*
X222568Y37073D03*
X177142Y33474D03*
X222568Y25073D03*
X177142Y24024D03*
Y46074D03*
X216068Y45073D03*
X173992Y42924D03*
X214996Y65064D03*
X186546Y39730D03*
X173992Y64974D03*
X170842Y52374D03*
X150393Y102191D03*
X164676Y118715D03*
X195334Y148900D03*
X128634Y261676D03*
X128953Y184150D03*
X137912Y229093D03*
X140975Y177055D03*
X231934Y218676D03*
X228834Y218776D03*
X164777Y167488D03*
X145997Y228662D03*
X129354Y198220D03*
X139753Y190528D03*
X206934Y255476D03*
X212250Y259113D03*
X124835Y193521D03*
X123110Y198281D03*
X124634Y183576D03*
Y187576D03*
X189845Y212428D03*
X193054Y212312D03*
X128934Y224976D03*
X116646Y229856D03*
X213739Y236860D03*
X123530Y171584D03*
X128334Y172076D03*
X176830Y145490D03*
X126934Y145176D03*
X139664Y160907D03*
X128434Y168576D03*
X234178Y175099D03*
X118770Y170173D03*
X116334Y256876D03*
X212734Y208976D03*
X155492Y237949D03*
X154247Y159711D03*
X146914Y283089D03*
X148434Y317476D03*
X145834Y266205D03*
X123134Y280876D03*
X208989Y308839D03*
X119484Y306526D03*
X142056Y265854D03*
X156834Y272376D03*
X149110Y341468D03*
X119857Y283302D03*
X196689Y358316D03*
X114991Y328732D03*
X133034Y330476D03*
X188193Y353735D03*
X116931Y265804D03*
X139991Y350065D03*
X147054Y295928D03*
X140924Y293320D03*
X133192Y293268D03*
X137853Y294778D03*
X188632Y299926D03*
X189197Y291290D03*
X187004Y281355D03*
X149704Y278657D03*
X136934Y283376D03*
X130650Y349963D03*
X224286Y350370D03*
X232973Y314348D03*
X192046Y325559D03*
X214570Y329494D03*
X264642Y11424D03*
X261493Y20874D03*
X264642Y14574D03*
X261493D03*
X241895Y23110D03*
X247129Y16819D03*
X241097Y17143D03*
X264642Y20874D03*
X261493Y17724D03*
X264642D03*
X245556Y42793D03*
X261493Y33474D03*
Y36624D03*
X264642Y52374D03*
X274093Y33473D03*
X252043Y52374D03*
X270943Y49224D03*
X261493Y60249D03*
X274092Y52374D03*
X248892Y39775D03*
X261493Y49224D03*
X252043Y55524D03*
X264642Y36624D03*
X248892Y42924D03*
X264643Y49224D03*
X264642Y55524D03*
X252043Y49224D03*
X255193Y58673D03*
X274092Y55524D03*
X264642Y60249D03*
X261493Y46074D03*
Y52374D03*
X280058Y115293D03*
X261493Y27174D03*
X248892Y61824D03*
X267792Y52374D03*
X288924Y114620D03*
X261493Y39774D03*
X280393Y55524D03*
X264642Y27174D03*
X248893Y24024D03*
Y30323D03*
X270870Y45985D03*
X270943Y52373D03*
X255195Y52371D03*
X252043Y39772D03*
X277895Y63395D03*
X252043Y58669D03*
X277242Y30324D03*
Y24024D03*
X274092Y68124D03*
X277242Y58670D03*
X248893Y52370D03*
X248892Y64972D03*
X277242Y46072D03*
X274093D03*
X277242Y55524D03*
X270939Y58670D03*
X248892Y49224D03*
X252043Y68118D03*
X264642Y30324D03*
X255193Y55524D03*
X264642Y39774D03*
X270943Y55524D03*
X261493Y24024D03*
X258342Y55524D03*
X264642Y42924D03*
Y63399D03*
X261493Y30324D03*
X264642Y33474D03*
X267792Y55524D03*
X261493Y63399D03*
X258342Y52374D03*
X264642Y24024D03*
Y46074D03*
X261493Y42924D03*
X255174Y39756D03*
X261493Y55524D03*
X280196Y126525D03*
X251257Y203150D03*
X260708Y161493D03*
X307647Y262628D03*
X282155Y260974D03*
X318281Y202740D03*
X306954Y255914D03*
X236670Y170948D03*
X256050Y150915D03*
X260620Y188030D03*
X248804Y192638D03*
X252434Y194776D03*
X264972Y205298D03*
X305144Y208472D03*
X252531Y191626D03*
X270104Y149382D03*
X274234Y193511D03*
X251460Y206976D03*
X247534Y213476D03*
X284532Y211567D03*
X296901Y260224D03*
X294635Y251772D03*
X326476Y205391D03*
X321162Y237032D03*
X301679Y201542D03*
X257536Y349032D03*
X235646Y332826D03*
X235964Y268858D03*
X262072Y348514D03*
X331038Y292978D03*
Y296915D03*
X342765Y313138D03*
X263116Y282065D03*
X307442Y266148D03*
X318041Y264636D03*
X295108Y297687D03*
X267207Y281846D03*
X327808Y314911D03*
X296155Y302345D03*
X294782Y306473D03*
G54D29*
X232310Y372292D03*
X307849Y372653D03*
X236952Y372139D03*
X308886Y393056D03*
G54D22*
X111142Y6397D03*
X57773Y11639D03*
X25457Y132563D03*
X34127Y102064D03*
X66274Y126794D03*
X49143Y129356D03*
X70890Y109645D03*
X109047Y108669D03*
X44362Y130546D03*
X65216Y132232D03*
X39709Y111682D03*
X29368Y121882D03*
X38115Y105020D03*
X38092Y108256D03*
X38194Y115288D03*
X14991Y111993D03*
X30017Y127341D03*
X88805Y132161D03*
X92986Y132244D03*
X87912Y44112D03*
X69922Y58624D03*
X103351Y46365D03*
X113548Y131244D03*
X73105Y79359D03*
X65654Y120624D03*
X81378Y42962D03*
X87705Y48848D03*
X95176Y51444D03*
X28584Y141175D03*
X9241Y141692D03*
X107012Y140420D03*
X114874Y119925D03*
X8538Y68710D03*
X5455Y54956D03*
X5352Y60043D03*
X46981Y67494D03*
X57321Y57512D03*
X114266Y59808D03*
X104349Y51484D03*
X102911Y69478D03*
X110924Y71432D03*
X110532Y66979D03*
X51650Y118680D03*
X89796Y102074D03*
X110385Y44214D03*
X95163Y62466D03*
X54597Y43048D03*
X88963Y141976D03*
X83963Y141789D03*
X93967Y141495D03*
X25804Y127444D03*
X15218Y54836D03*
X15167Y64875D03*
X15116Y59891D03*
X94290Y99551D03*
X104237Y137306D03*
X29944Y59282D03*
X93520Y115139D03*
X72960Y116719D03*
X30567Y258986D03*
X51989Y197474D03*
X76658Y158654D03*
X30154Y262192D03*
X28323Y187558D03*
X38385Y239881D03*
X23172Y231126D03*
X15132Y169320D03*
X86560Y163766D03*
X82534Y145730D03*
X83046Y152670D03*
X7018Y155933D03*
X23054Y183122D03*
X59077Y167132D03*
X27627Y226059D03*
X108360Y165538D03*
X56456Y192450D03*
X14252Y193236D03*
X25314Y160429D03*
X111520Y164357D03*
X113570Y180320D03*
X7572Y161235D03*
X69938Y163174D03*
X28766Y248356D03*
X47840Y170124D03*
X33702Y255470D03*
X30097Y205950D03*
X18583Y172391D03*
X17928Y144974D03*
X49369Y210180D03*
X88963Y153722D03*
X81119Y168821D03*
X72837Y249924D03*
X22437Y194000D03*
X70198Y147511D03*
X50443Y149982D03*
X43146Y147309D03*
X61234Y148491D03*
X94010Y153727D03*
X69126Y168230D03*
X74429Y161732D03*
X101073Y152712D03*
X86580Y146945D03*
X49094Y256159D03*
X9081Y193010D03*
X66038Y165418D03*
X93946Y150090D03*
X29186Y183528D03*
X14920Y174011D03*
X18725Y238186D03*
X18300Y185292D03*
X22943Y189624D03*
X18165Y193074D03*
X7205Y189508D03*
X52448Y165249D03*
X47806Y187851D03*
X40735Y160439D03*
X63130Y151174D03*
X110197Y357632D03*
X114810Y340282D03*
X24378Y277421D03*
X46447Y360389D03*
X106730Y265061D03*
X41240Y268110D03*
X6810Y291040D03*
X104528Y386677D03*
X51266Y385299D03*
X91008Y388919D03*
X159654Y13844D03*
X129687Y141076D03*
X127330Y129382D03*
X151368Y29015D03*
X150650Y70588D03*
Y35698D03*
Y39408D03*
Y42898D03*
Y56573D03*
Y60038D03*
Y63658D03*
Y67123D03*
X130550Y63702D03*
X125085Y61818D03*
X127774Y111979D03*
X125355Y137076D03*
X148483Y99202D03*
X115191Y44067D03*
X115609Y51132D03*
X115805Y69666D03*
X118908Y120132D03*
X154930Y218073D03*
X128738Y194598D03*
X137194Y197170D03*
X232994Y258160D03*
X131432Y188276D03*
X130546Y207431D03*
X140652Y152136D03*
X211785Y245409D03*
X116740Y204599D03*
X218997Y237361D03*
X117490Y243552D03*
X151438Y256018D03*
X160530Y277855D03*
X207545Y372531D03*
X196063Y372532D03*
X216213Y300781D03*
X217273Y312634D03*
X206463Y328376D03*
X233156Y328450D03*
X226295Y267854D03*
X191437Y297435D03*
X221293Y289134D03*
X208664Y299851D03*
X183488Y328014D03*
X210487Y379730D03*
X231534Y266845D03*
X117900Y288869D03*
X209816Y320122D03*
X204233Y314724D03*
X212578Y310238D03*
X213470Y350067D03*
X190617Y284945D03*
X227078Y309716D03*
X190675Y330573D03*
X156366Y305170D03*
X179614Y338461D03*
X178528Y326479D03*
X184880Y322776D03*
X186866Y325553D03*
X191705Y310328D03*
X183195Y338193D03*
X197523Y362229D03*
X124259Y382014D03*
X225423Y369072D03*
X222214Y372496D03*
X197580Y281881D03*
X225703Y329432D03*
X116610Y391968D03*
X289690Y16657D03*
Y20365D03*
X255462Y14959D03*
X275787Y16768D03*
X279843Y37658D03*
X300416Y27532D03*
X295109Y115319D03*
X286633Y124740D03*
X285230Y114620D03*
X319909Y90736D03*
X295174Y89275D03*
X279459Y138355D03*
X298606Y123470D03*
X295188Y105458D03*
X344313Y122158D03*
X317005Y72821D03*
X319882Y85051D03*
X289690Y24010D03*
Y27532D03*
Y31054D03*
Y34563D03*
X289163Y41855D03*
X289690Y38017D03*
X287623Y58333D03*
X240869Y55187D03*
X242549Y65843D03*
X282068Y141262D03*
X320508Y78914D03*
X290664Y95770D03*
X242990Y51535D03*
X270739Y139017D03*
X324148Y49364D03*
X295648Y97516D03*
X319632Y128848D03*
X296719Y131600D03*
X299759Y133949D03*
X286142Y40078D03*
X302565Y40133D03*
X306620Y132611D03*
X339874Y72851D03*
X343283Y131842D03*
X290613Y128708D03*
X307832Y52653D03*
X322319Y60442D03*
X323042Y94089D03*
X269511Y184957D03*
X283607Y190938D03*
X282111Y194005D03*
X303192Y262520D03*
X299877Y218608D03*
X297274Y156658D03*
X337875Y174735D03*
X339828Y163227D03*
X326841Y155853D03*
X336860Y144229D03*
X307724Y152499D03*
X303574Y155904D03*
X268840Y192568D03*
X297954Y208951D03*
X343580Y195201D03*
X295006Y219078D03*
X321052Y189403D03*
X275834Y187176D03*
X289495Y208888D03*
X310669Y180426D03*
X308818Y164512D03*
X283213Y220447D03*
X320640Y149657D03*
X266944Y144959D03*
X249651Y200103D03*
X283034Y187506D03*
X295490Y191029D03*
X235576Y214549D03*
X278339Y144741D03*
X316511Y163725D03*
X343078Y151728D03*
X304698Y171474D03*
X330795Y234126D03*
X331113Y223034D03*
X294558Y210552D03*
X319958Y213568D03*
X307380Y259022D03*
X242607Y330878D03*
X236178Y278003D03*
X344403Y267746D03*
X305669Y334046D03*
X325877Y334810D03*
X319456Y322164D03*
X245534Y294836D03*
X250632Y276967D03*
X304316Y271337D03*
X305651Y368426D03*
X283228Y308455D03*
X271116Y267845D03*
X298807Y319864D03*
X275042Y288821D03*
X263102Y291616D03*
X293677Y269962D03*
X274484Y332699D03*
X267411Y292185D03*
X283405Y288556D03*
X300362Y333726D03*
X252002Y347844D03*
X238469Y337502D03*
X286070Y296297D03*
X288344Y338153D03*
X238070Y327667D03*
X327537Y289875D03*
X331290Y288266D03*
X327830Y299733D03*
X328542Y285640D03*
X342068Y316422D03*
X273161Y312826D03*
X268575Y339558D03*
X259845Y282010D03*
X300515Y329313D03*
X283594Y281733D03*
X265800Y275755D03*
X305768Y319858D03*
X299868Y323769D03*
X297948Y361058D03*
X306515Y386539D03*
G54D30*
X329777Y174041D03*
X319541D03*
X329777Y341363D03*
X319541D03*
G54D27*
X43250Y373837D03*
G54D26*
X82620D03*
G54D31*
X339324Y189789D03*
X309994D03*
%LPD*%
G75*
G54D10*
X97091Y131810D03*
X66534Y176276D03*
X69643Y175584D03*
X74003Y175644D03*
X74722Y185613D03*
X56639Y125865D03*
X26788Y230259D03*
X29784Y229626D03*
X27934Y276176D03*
X141114Y63658D03*
Y46389D03*
Y42898D03*
Y56573D03*
Y60038D03*
Y39408D03*
Y35698D03*
X84943Y105146D03*
X115489Y7535D03*
X118702Y35046D03*
X119579Y43412D03*
X123953Y29291D03*
X119189Y40352D03*
X120901Y12833D03*
X85326Y184932D03*
X84330Y132180D03*
X174447Y347876D03*
X185584Y344776D03*
X174447Y352826D03*
X199632Y382565D03*
X199425Y386185D03*
X199519Y375318D03*
X199544Y378809D03*
X140785Y393731D03*
X143888Y395592D03*
Y391662D03*
X146784Y393627D03*
X149784Y395489D03*
X149887Y391869D03*
X201804Y380704D03*
X203873Y382720D03*
X201701Y384531D03*
X204028Y386160D03*
X203954Y378848D03*
X204070Y375293D03*
X201769Y377051D03*
G54D20*
G01X-183757Y-112707D02*
X381593D01*
G01X381743Y-73471D02*
Y-152707D01*
X-183757D01*
G01Y-73376D02*
Y-152707D01*
G01Y-132707D02*
X381743D01*
Y-132557D01*
G01X-183757Y-92707D02*
X381693D01*
G01X-183757Y-73507D02*
X381743D01*
G54D11*
X33489Y217246D03*
X30350Y215027D03*
X35856Y215084D03*
X57159Y189200D03*
X40334Y236876D03*
X41620Y252926D03*
X77834Y319476D03*
X38934Y261676D03*
X49284Y250060D03*
X18610Y343572D03*
X27630Y341101D03*
X11434Y331876D03*
X15600Y293588D03*
Y296738D03*
Y299887D03*
X31634Y343476D03*
X35334Y343276D03*
X34351Y259591D03*
X83210Y98854D03*
X96066Y144454D03*
X82634Y319576D03*
X158634Y290054D03*
X152848Y283636D03*
X155234Y267776D03*
X131008Y281092D03*
X142134Y344876D03*
X157832Y283611D03*
X89213Y348127D03*
X113431Y318759D03*
X94034Y352476D03*
X98862Y358370D03*
X205085Y227376D03*
G54D21*
G01X82620Y369687D02*
Y373837D01*
G01D02*
Y377987D01*
G01X78469Y373837D02*
X82620D01*
G01D02*
X86770D01*
G01X319541Y170485D02*
Y174041D01*
G01D02*
Y177597D01*
G01X315985Y174041D02*
X319541D01*
G01D02*
X323097D01*
G01X329777Y170485D02*
Y174041D01*
G01D02*
Y177597D01*
G01X326221Y174041D02*
X329777D01*
G01D02*
X333333D01*
G01X319541Y337807D02*
Y341363D01*
G01D02*
Y344920D01*
G01X315985Y341363D02*
X319541D01*
G01D02*
X323097D01*
G01X329777Y337807D02*
Y341363D01*
G01D02*
Y344920D01*
G01X326221Y341363D02*
X329777D01*
G01D02*
X333333D01*
G54D12*
X20000Y20000D03*
Y380000D03*
X129724Y87175D03*
X330000Y20000D03*
X261404Y224970D03*
X279850Y380000D03*
G54D13*
X112716Y13064D03*
X112822Y23044D03*
X105550Y17948D03*
X4502Y116248D03*
X4152Y122819D03*
Y128777D03*
X4809Y86502D03*
X24351Y110792D03*
X87720Y46362D03*
X90522Y46223D03*
X72174Y44708D03*
X82033Y40158D03*
X92218Y39969D03*
X95092Y44662D03*
X70208Y61094D03*
X15270Y50022D03*
X5462Y65541D03*
X8493Y52078D03*
X57148Y66655D03*
X70398Y47803D03*
X11952Y228654D03*
X54738Y194742D03*
X55941Y159996D03*
X56018Y155886D03*
X60154Y155757D03*
X60103Y159945D03*
X58081Y157977D03*
X105419Y150046D03*
X83875Y164570D03*
X91272Y163635D03*
X103761Y159090D03*
X106510Y158884D03*
X20680Y183211D03*
X7100Y176528D03*
X7172Y168239D03*
X7154Y185918D03*
X51470Y195031D03*
X50018Y228984D03*
X96680Y266908D03*
X12276Y269556D03*
X71300Y369010D03*
X113630Y392766D03*
X219801Y10791D03*
X137497Y25462D03*
X136290Y23433D03*
X147206Y122696D03*
X174091Y103629D03*
X141152Y32980D03*
X138962Y23226D03*
X151525Y81886D03*
X154994Y81629D03*
X179842Y209257D03*
X222832Y159860D03*
X224385Y257933D03*
X196052Y269213D03*
X198845D03*
X226224Y335960D03*
X217716Y309414D03*
X220284Y312508D03*
X222696Y267746D03*
X229992Y268613D03*
X219764Y277796D03*
X210578Y377328D03*
X116893Y382772D03*
X261269Y11367D03*
X298990Y20365D03*
Y16657D03*
X290293Y88307D03*
X287004Y85070D03*
X301018Y51334D03*
X301430Y54006D03*
X298809Y51334D03*
X299014Y53903D03*
X281682Y137365D03*
X243772Y29089D03*
X301670Y23205D03*
X298761Y24029D03*
X300253Y37930D03*
X298929Y31015D03*
X306439Y27116D03*
X306106Y46230D03*
X279818Y87703D03*
X280431Y80247D03*
X317878Y45870D03*
X324719Y138354D03*
X324873Y128950D03*
X325338Y121088D03*
X324746Y108472D03*
X325499Y97580D03*
X326312Y91234D03*
X326928Y73197D03*
X317371Y63640D03*
X323023Y66301D03*
X297509Y81728D03*
X343777Y142603D03*
X315389Y103265D03*
X337225Y124072D03*
X306851Y250981D03*
X307210Y247563D03*
X318361Y240215D03*
X318472Y235971D03*
X318139Y227023D03*
X341987Y212557D03*
X342101Y218273D03*
X331179Y225724D03*
X331093Y231150D03*
X331200Y237026D03*
X341833Y247345D03*
X341987Y251970D03*
X342218Y258984D03*
X319384Y221856D03*
X320432Y219680D03*
X326290Y207686D03*
X341884Y207675D03*
X269533Y196473D03*
X334168Y176466D03*
X336326Y177699D03*
X343057Y179960D03*
X337919Y180217D03*
X301384Y186126D03*
X287080Y186414D03*
X328227Y168120D03*
X343065Y156493D03*
X342893Y172988D03*
X325336Y149094D03*
X297293Y143198D03*
X235104Y222944D03*
X331301Y381710D03*
X334301D03*
X307074Y290323D03*
X307364Y286865D03*
X318515Y281272D03*
X342244Y263737D03*
X342090Y271342D03*
X342190Y279458D03*
X342242Y282850D03*
X341764Y290768D03*
X318150Y295662D03*
X318402Y273992D03*
X288460Y340531D03*
X271530Y270202D03*
X290999Y270034D03*
X266006Y278026D03*
X256979Y320058D03*
X286698Y288531D03*
X238948Y278088D03*
X330154Y312304D03*
X237595Y309710D03*
X270516Y335108D03*
X344710Y371158D03*
X344762Y367304D03*
X332005Y376956D03*
X329319Y271033D03*
X285032Y344832D03*
X331633Y394873D03*
X342783Y385392D03*
X339392Y391790D03*
G54D14*
X55109Y92360D03*
X57534Y114801D03*
X70608Y102061D03*
X66380Y147208D03*
X123355Y120592D03*
X141088Y67063D03*
X232350Y234693D03*
X281588Y133925D03*
X308635Y160062D03*
X307435Y156723D03*
X285205Y353586D03*
G54D15*
X73066Y134069D03*
X75547Y61705D03*
X98934Y244376D03*
X96706Y242920D03*
X90219Y241861D03*
X90310Y244187D03*
X95412Y235898D03*
X95202Y229782D03*
X95334Y238122D03*
X63134Y248876D03*
X79334Y262376D03*
X108798Y210857D03*
X85134Y228876D03*
X95473Y227205D03*
X88017Y244554D03*
X98886Y242088D03*
X56216Y226341D03*
X87984Y242133D03*
X74227Y200160D03*
X67384Y191202D03*
X112916Y207983D03*
X110037Y197161D03*
X112934Y205876D03*
X112041Y197161D03*
X114122Y197187D03*
X112893Y189212D03*
X110768Y189289D03*
X105634Y153176D03*
X21368Y168142D03*
X24470Y168248D03*
X13855Y146007D03*
X9632Y147394D03*
X11318Y158357D03*
X58934Y206676D03*
X68960Y209428D03*
X63734Y260376D03*
X82534Y228976D03*
X109934Y314332D03*
X81916Y362943D03*
X105734Y306726D03*
X77276Y357959D03*
X83122Y349401D03*
X98687Y323817D03*
X98944Y327465D03*
X95964Y333169D03*
X99458Y333272D03*
X102470Y328135D03*
X106329Y332554D03*
X101937Y325935D03*
X103067Y331220D03*
X106142Y330272D03*
X96580Y298432D03*
X94267Y297353D03*
X99277Y295940D03*
X96040Y296043D03*
X98815Y298201D03*
X53534Y282176D03*
X55834D03*
X65003Y272431D03*
X65183Y274666D03*
X66750Y276234D03*
X66005Y270402D03*
X68834Y355476D03*
X72534Y355576D03*
X68834Y351976D03*
X86225Y272870D03*
X84838Y271149D03*
X72534Y352076D03*
X100234Y338776D03*
X88043Y297280D03*
X40946Y328884D03*
X43386Y296264D03*
X40740Y298550D03*
X44311Y298474D03*
X44534Y322376D03*
X41334Y322176D03*
X44534Y325276D03*
X40754Y325468D03*
X42534Y326976D03*
X42634Y323976D03*
X44439Y300709D03*
X40688Y300786D03*
X44430Y306902D03*
X40919Y303895D03*
X40833Y307082D03*
X42709Y305282D03*
X69808Y264649D03*
X64592Y264518D03*
X67212Y264469D03*
X65722Y266470D03*
X42503Y302302D03*
X44482Y303664D03*
X42856Y320468D03*
X19834Y306676D03*
X16834Y310976D03*
X103534Y311676D03*
X94628Y320326D03*
X103826Y314750D03*
X107034Y311676D03*
X107134Y315376D03*
X78134Y351976D03*
X77634Y361076D03*
X102534Y338776D03*
X44734Y309776D03*
X34513Y318444D03*
X24242Y314483D03*
X92340Y296069D03*
X95469Y283494D03*
X64814Y302790D03*
X59477Y335182D03*
X96634Y342176D03*
X102334Y304976D03*
X100134Y347976D03*
X38606Y293710D03*
X112834Y277476D03*
X109734D03*
X69062Y266779D03*
X40560Y296264D03*
X44099Y328822D03*
X189742Y20875D03*
X161392Y20874D03*
X203485Y101759D03*
X161392Y27173D03*
X164542Y42921D03*
X161391Y68121D03*
X183442Y64969D03*
X189741Y68122D03*
X164541Y58672D03*
X161392Y58669D03*
Y55520D03*
X189598Y34596D03*
X160611Y35087D03*
X189742Y52371D03*
X189744Y27174D03*
X156209Y114306D03*
X187934Y130276D03*
X145134Y125176D03*
X146634Y133076D03*
X162463Y133087D03*
X214577Y133049D03*
X183134Y139876D03*
X189034Y142576D03*
X180134Y139576D03*
X189634Y136876D03*
X168034Y136976D03*
X176333Y133178D03*
X146802Y140699D03*
X201634Y139576D03*
X187869Y133050D03*
Y127450D03*
X183970Y130249D03*
X183934Y132676D03*
X183970Y127449D03*
X169134Y127676D03*
X176465Y130250D03*
Y127450D03*
X183814Y110975D03*
X176692Y113579D03*
X188452Y113465D03*
X226168Y102917D03*
X226351Y110679D03*
X218482Y110973D03*
X214972Y141231D03*
X147172Y118580D03*
X228671Y125347D03*
X146953Y113640D03*
X202637Y132956D03*
X131625Y135773D03*
X131522Y133538D03*
X159201Y125659D03*
X218257Y119421D03*
X228578Y133087D03*
X154134Y133076D03*
X147434Y125476D03*
X180534Y132776D03*
X195543Y132563D03*
X183438Y58672D03*
X205169Y66398D03*
X187025Y223124D03*
X216853Y247194D03*
X124634Y222776D03*
X158859Y255040D03*
X124566Y225052D03*
X126234Y234976D03*
X123634D03*
X223634Y226376D03*
X203134Y195876D03*
X203173Y201437D03*
X218275Y192746D03*
X203173Y198637D03*
X207073Y195837D03*
X155934Y197876D03*
X148034Y207476D03*
X164765Y201437D03*
X172522Y199086D03*
X159712Y190698D03*
X218477Y201437D03*
X146913Y193452D03*
X117004Y193888D03*
X116721Y196689D03*
X141234Y210576D03*
X218782Y209147D03*
X225976Y208736D03*
X189254Y208381D03*
X146296Y205710D03*
X165334Y192976D03*
X143184Y203026D03*
X164765Y195836D03*
X231536Y190610D03*
X172565Y193037D03*
X233734Y195676D03*
X226277Y193037D03*
X187762Y201288D03*
X187250Y208510D03*
X193648Y207225D03*
X203134Y190276D03*
X116952Y185923D03*
X116477Y189394D03*
X162564Y186799D03*
X146724Y148391D03*
X153601Y187846D03*
X203334Y181676D03*
X203434Y179376D03*
X146921Y186736D03*
X187869Y187437D03*
X201807Y148614D03*
X214734Y163576D03*
X201534Y172476D03*
X214334Y147676D03*
X205134Y157976D03*
X207634Y166776D03*
X198634Y157876D03*
X215634Y178576D03*
X222034Y184676D03*
X203173Y187437D03*
X214534Y184776D03*
X168665Y184637D03*
X165034Y189776D03*
X168064Y175099D03*
X173664Y178999D03*
X176434Y148176D03*
X192234Y157776D03*
X159664Y152291D03*
Y159845D03*
X162464Y178998D03*
X159664Y144491D03*
X154063Y148391D03*
X154234Y163776D03*
X222978Y148391D03*
X231378Y144491D03*
X222978Y163695D03*
X231378Y159794D03*
X234177Y148391D03*
X223334Y167276D03*
X122550Y158043D03*
X176278Y183809D03*
X231378Y152291D03*
X159664Y167594D03*
X146724Y163695D03*
Y171346D03*
X146634Y178876D03*
X183234Y160776D03*
X192734Y148407D03*
X180234Y172376D03*
X182934Y151876D03*
X189034Y169176D03*
X176549Y163695D03*
X187567Y179176D03*
X154234Y179076D03*
X116861Y164834D03*
X147050Y155448D03*
X226346Y200667D03*
X199334Y195876D03*
X169343Y246456D03*
X139920Y230026D03*
X187137Y220786D03*
X207234Y245022D03*
X223334Y230176D03*
X190734Y250576D03*
X212934Y247876D03*
X190934Y256076D03*
X180417Y316878D03*
X178169Y316973D03*
X119879Y316653D03*
X217529Y345616D03*
X221856Y345487D03*
X203434Y289876D03*
X148150Y304427D03*
X118534Y274676D03*
X116134Y277476D03*
X135413Y274649D03*
X135528Y276979D03*
X145534Y277276D03*
X137738Y273767D03*
X143734Y274276D03*
X138365Y324366D03*
X141758Y324239D03*
X141291Y321758D03*
X138004Y321928D03*
X136202Y323306D03*
X143751Y325532D03*
X232879Y343672D03*
X234124Y346161D03*
X233211Y352882D03*
X233626Y350517D03*
X232008Y347945D03*
X151984Y268426D03*
X182778Y331567D03*
X131434Y266876D03*
X157367Y300170D03*
X189074Y336348D03*
X170734Y309276D03*
X189449Y310121D03*
X169457Y289561D03*
X215334Y340376D03*
X183583Y335496D03*
X185832Y335401D03*
X204038Y358523D03*
X208203Y357634D03*
X210432Y357474D03*
X169834Y269075D03*
X149377Y268064D03*
X148150Y307527D03*
X125549Y350302D03*
X118201Y350097D03*
X122363Y350046D03*
X169870Y286914D03*
X158089Y296885D03*
X170451Y274717D03*
X169551Y277219D03*
X170119Y281604D03*
X170368Y284093D03*
X123944Y326132D03*
X127746Y326004D03*
X133566Y317256D03*
X130206Y317493D03*
X146041Y325850D03*
X140379Y326062D03*
X136534Y326176D03*
X144387Y321576D03*
X140734Y274176D03*
X118534Y277276D03*
X182034Y264876D03*
X176934Y359876D03*
X180370Y347997D03*
X277242Y20875D03*
X248893Y20874D03*
X283819Y105060D03*
X248893Y68118D03*
X277242Y27174D03*
X274089Y58672D03*
X274093Y42922D03*
X248893Y58669D03*
X277932Y35074D03*
X252043Y42921D03*
X277242Y68124D03*
X277242Y52374D03*
X248893Y33472D03*
X244318Y133087D03*
X245198Y125502D03*
X236934Y125317D03*
X242715Y104912D03*
X245374Y112148D03*
X235668Y102982D03*
X245700Y118197D03*
X244334Y140776D03*
X236978Y133087D03*
X270943Y64974D03*
X248893Y55520D03*
X280582Y105368D03*
X296357Y112048D03*
X247494Y207702D03*
X247134Y202176D03*
Y198176D03*
X237834Y208876D03*
X236978Y186799D03*
X247434Y185476D03*
X236978Y148391D03*
X236967Y163576D03*
X244146Y149240D03*
X243583Y163725D03*
X244142Y155588D03*
X260400Y157652D03*
X275713Y149019D03*
X259643Y184895D03*
X244502Y171677D03*
X243934Y179029D03*
X260433Y206279D03*
X262776Y199916D03*
X267760Y301423D03*
X270260D03*
X272760D03*
X275260D03*
X277760D03*
X280260D03*
X270260Y303923D03*
X272760D03*
X275260D03*
X277760D03*
X270260Y306423D03*
X272760D03*
X275260D03*
X277760D03*
X280260D03*
X235161Y344170D03*
X235991Y350144D03*
X248513Y348490D03*
X245126Y346783D03*
X265227Y355485D03*
X258235Y359994D03*
X260933Y360088D03*
X236115Y347696D03*
X267760Y296423D03*
X272760D03*
X275260D03*
X277760D03*
X280260D03*
X270260Y298923D03*
X272760D03*
X275260D03*
X277760D03*
X318124Y305012D03*
X320470Y314975D03*
X288419Y311284D03*
X241780Y320278D03*
X280260Y298923D03*
X267760D03*
X270260Y296423D03*
X235617Y352674D03*
X242084Y339820D03*
X245070Y330812D03*
X267760Y306423D03*
X280260Y303923D03*
X267760D03*
G54D16*
X82620Y373837D03*
G54D17*
X329777Y174041D03*
X319541D03*
X329777Y341363D03*
X319541D03*
G54D18*
G01X-27874Y388000D02*
Y12000D01*
G01D02*
X-7874D01*
G01Y42000D02*
Y12000D01*
G01Y42000D02*
X0D01*
G01X-7874Y48700D02*
X0D01*
G01X-7874Y144800D02*
Y48700D01*
G01Y248500D02*
X0D01*
G01X-7874Y255200D02*
X0D01*
G01X-7874Y151500D02*
X0D01*
G01X-7874Y144800D02*
X0D01*
G01X-7874Y248500D02*
Y151500D01*
G01Y351300D02*
Y255200D01*
G01Y388000D02*
Y358000D01*
G01D02*
X0D01*
G01X-7874Y351300D02*
X0D01*
G01X-27874Y388000D02*
X-7874D01*
G01X12000Y0D02*
X0Y12000D01*
G01X12000Y0D02*
X338000D01*
G01X0Y42000D02*
Y12000D01*
G01Y144800D02*
Y48700D01*
G01Y351300D02*
Y255200D01*
G01Y248500D02*
Y151500D01*
G01Y388000D02*
Y358000D01*
G01Y388000D02*
X12000Y400000D01*
G01X338000D02*
X12000D01*
G01X350000Y12000D02*
X338000Y0D01*
G01X350000Y12000D02*
Y42000D01*
G01Y48700D02*
X357874D01*
G01X350000Y42000D02*
X357874D01*
G01X350000Y48700D02*
Y144800D01*
G01Y255200D02*
X357874D01*
G01X350000Y248500D02*
X357874D01*
G01X350000Y144800D02*
X357874D01*
G01X350000Y151500D02*
X357874D01*
G01X350000D02*
Y248500D01*
G01Y255200D02*
Y351300D01*
G01D02*
X357874D01*
G01X350000Y358000D02*
X357874D01*
G01X350000D02*
Y388000D01*
G01X338000Y400000D02*
X350000Y388000D01*
G01X377874Y12000D02*
Y388000D01*
G01X357874Y12000D02*
Y42000D01*
G01Y12000D02*
X377874D01*
G01X357874Y48700D02*
Y144800D01*
G01Y151500D02*
Y248500D01*
G01Y255200D02*
Y351300D01*
G01Y358000D02*
Y388000D01*
G01D02*
X377874D01*
G54D19*
G01X-172757Y-118840D02*
X-173507Y-118340D01*
X-174382Y-118007D01*
X-175382D01*
X-176507Y-118507D01*
X-177382Y-119340D01*
X-178007Y-120340D01*
X-178507Y-122007D01*
X-178632Y-123507D01*
X-178382Y-125007D01*
X-178007Y-126007D01*
X-177257Y-127007D01*
X-176382Y-127674D01*
X-175507Y-128007D01*
X-174632D01*
X-173757Y-127674D01*
X-173007Y-127174D01*
X-172382Y-126507D01*
G01X-168632Y-128007D02*
X-165507Y-118007D01*
X-162382Y-128007D01*
G01X-163507Y-124507D02*
X-167507D01*
G01X-158007Y-128007D02*
Y-118007D01*
X-154882D01*
X-153882Y-118507D01*
X-153257Y-119174D01*
X-153007Y-120507D01*
X-153257Y-121840D01*
X-154007Y-122673D01*
X-154882Y-123174D01*
X-158007D01*
G01X-154882D02*
X-153007Y-128007D01*
G01X-148257D02*
Y-118007D01*
X-145757D01*
X-144757Y-118507D01*
X-144007Y-119174D01*
X-143382Y-120173D01*
X-142882Y-121340D01*
X-142757Y-123007D01*
X-142882Y-124674D01*
X-143382Y-125840D01*
X-144007Y-126840D01*
X-144757Y-127507D01*
X-145757Y-128007D01*
X-148257D01*
G01X-128007D02*
Y-118007D01*
X-124882D01*
X-123882Y-118507D01*
X-123257Y-119174D01*
X-123007Y-120507D01*
X-123257Y-121840D01*
X-124007Y-122673D01*
X-124882Y-123174D01*
X-128007D01*
G01X-124882D02*
X-123007Y-128007D01*
G01X-113007D02*
X-118007D01*
Y-118007D01*
X-113007D01*
G01X-115007Y-122840D02*
X-118007D01*
G01X-107882Y-128007D02*
Y-118007D01*
X-103132D01*
G01X-104882Y-122840D02*
X-107882D01*
G01X-95507Y-128340D02*
X-95757Y-128173D01*
Y-127840D01*
X-95507Y-127674D01*
X-95257Y-127840D01*
Y-128173D01*
X-95507Y-128340D01*
G01Y-123840D02*
X-95757Y-123673D01*
Y-123340D01*
X-95507Y-123174D01*
X-95257Y-123340D01*
Y-123673D01*
X-95507Y-123840D01*
G01X-85507Y-118007D02*
Y-128007D01*
G01X-88382Y-118007D02*
X-82632D01*
G01X-75507Y-128007D02*
X-76257Y-127840D01*
X-77007Y-127174D01*
X-77507Y-126007D01*
X-77757Y-124674D01*
X-77507Y-123340D01*
X-77007Y-122174D01*
X-76257Y-121507D01*
X-75507Y-121340D01*
X-74757Y-121507D01*
X-74007Y-122174D01*
X-73507Y-123340D01*
X-73382Y-124674D01*
X-73507Y-126007D01*
X-74007Y-127174D01*
X-74757Y-127840D01*
X-75507Y-128007D01*
G01X-68632Y-121340D02*
X-67132Y-128007D01*
X-65507Y-121340D01*
X-63882Y-128007D01*
X-62382Y-121340D01*
G01X-57382Y-123507D02*
X-53382D01*
X-53757Y-122340D01*
X-54382Y-121674D01*
X-55257Y-121340D01*
X-56132Y-121507D01*
X-56882Y-122007D01*
X-57382Y-123174D01*
X-57632Y-124174D01*
Y-125173D01*
X-57382Y-126174D01*
X-56757Y-127174D01*
X-56007Y-127840D01*
X-55132Y-128007D01*
X-54257Y-127674D01*
X-53382Y-126674D01*
G01X-47257Y-128007D02*
Y-121340D01*
G01Y-122673D02*
X-46632Y-122007D01*
X-46007Y-121507D01*
X-45132Y-121340D01*
X-44507Y-121507D01*
X-43757Y-122007D01*
G01X-38382Y-128007D02*
Y-118007D01*
X-32632Y-128007D01*
Y-118007D01*
G01X-25507Y-128007D02*
X-26257Y-127840D01*
X-27007Y-127174D01*
X-27507Y-126007D01*
X-27757Y-124674D01*
X-27507Y-123340D01*
X-27007Y-122174D01*
X-26257Y-121507D01*
X-25507Y-121340D01*
X-24757Y-121507D01*
X-24007Y-122174D01*
X-23507Y-123340D01*
X-23382Y-124674D01*
X-23507Y-126007D01*
X-24007Y-127174D01*
X-24757Y-127840D01*
X-25507Y-128007D01*
G01X-13257Y-118007D02*
Y-128007D01*
G01Y-126507D02*
X-13757Y-127340D01*
X-14507Y-127840D01*
X-15382Y-128007D01*
X-16382Y-127674D01*
X-17132Y-126840D01*
X-17632Y-125840D01*
X-17757Y-124674D01*
X-17632Y-123507D01*
X-17132Y-122507D01*
X-16382Y-121674D01*
X-15382Y-121340D01*
X-14507Y-121507D01*
X-13882Y-121840D01*
X-13257Y-122507D01*
G01X-7382Y-123507D02*
X-3382D01*
X-3757Y-122340D01*
X-4382Y-121674D01*
X-5257Y-121340D01*
X-6132Y-121507D01*
X-6882Y-122007D01*
X-7382Y-123174D01*
X-7632Y-124174D01*
Y-125173D01*
X-7382Y-126174D01*
X-6757Y-127174D01*
X-6007Y-127840D01*
X-5132Y-128007D01*
X-4257Y-127674D01*
X-3382Y-126674D01*
G01X17243Y-118840D02*
X16493Y-118340D01*
X15618Y-118007D01*
X14618D01*
X13493Y-118507D01*
X12618Y-119340D01*
X11993Y-120340D01*
X11493Y-122007D01*
X11368Y-123507D01*
X11618Y-125007D01*
X11993Y-126007D01*
X12743Y-127007D01*
X13618Y-127674D01*
X14493Y-128007D01*
X15368D01*
X16243Y-127674D01*
X16993Y-127174D01*
X17618Y-126507D01*
G01X24493Y-128007D02*
X23493Y-127840D01*
X22618Y-127174D01*
X21868Y-126174D01*
X21368Y-125007D01*
X21118Y-123673D01*
Y-122340D01*
X21368Y-121007D01*
X21868Y-119840D01*
X22618Y-118840D01*
X23493Y-118173D01*
X24493Y-118007D01*
X25493Y-118173D01*
X26368Y-118840D01*
X27118Y-119840D01*
X27618Y-121007D01*
X27868Y-122340D01*
Y-123673D01*
X27618Y-125007D01*
X27118Y-126174D01*
X26368Y-127174D01*
X25493Y-127840D01*
X24493Y-128007D01*
G01X31243D02*
Y-118007D01*
X34493Y-126340D01*
X37743Y-118007D01*
Y-128007D01*
G01X41243D02*
Y-118007D01*
X44493Y-126340D01*
X47743Y-118007D01*
Y-128007D01*
G01X61368Y-118007D02*
X64493Y-128007D01*
X67618Y-118007D01*
G01X74493Y-128007D02*
Y-118007D01*
X72993Y-120007D01*
G01Y-128007D02*
X75993D01*
G01X91993D02*
Y-118007D01*
X95118D01*
X96118Y-118507D01*
X96743Y-119174D01*
X96993Y-120507D01*
X96743Y-121840D01*
X95993Y-122673D01*
X95118Y-123174D01*
X91993D01*
G01X95118D02*
X96993Y-128007D01*
G01X102618Y-123507D02*
X106618D01*
X106243Y-122340D01*
X105618Y-121674D01*
X104743Y-121340D01*
X103868Y-121507D01*
X103118Y-122007D01*
X102618Y-123174D01*
X102368Y-124174D01*
Y-125173D01*
X102618Y-126174D01*
X103243Y-127174D01*
X103993Y-127840D01*
X104868Y-128007D01*
X105743Y-127674D01*
X106618Y-126674D01*
G01X112243Y-121340D02*
X114493Y-128007D01*
X116743Y-121340D01*
G01X122868Y-124674D02*
X126118D01*
G01X135493Y-122673D02*
X135993Y-122174D01*
X136368Y-121340D01*
X136618Y-120173D01*
X136368Y-119174D01*
X135868Y-118507D01*
X134993Y-118007D01*
X131618D01*
Y-128007D01*
X135743D01*
X136618Y-127340D01*
X137118Y-126340D01*
X137368Y-125173D01*
X137118Y-124007D01*
X136368Y-123007D01*
X135493Y-122673D01*
X131618D01*
G01X-177882Y-146507D02*
Y-136507D01*
X-173132D01*
G01X-174882Y-141340D02*
X-177882D01*
G01X-167007Y-136507D02*
X-164007D01*
G01X-165507D02*
Y-146507D01*
G01X-167007D02*
X-164007D01*
G01X-158007Y-136507D02*
Y-146507D01*
X-153007D01*
G01X-148757D02*
Y-136507D01*
X-145507Y-144840D01*
X-142257Y-136507D01*
Y-146507D01*
G01X-128007Y-136507D02*
Y-146507D01*
X-123007D01*
G01X-118632D02*
X-115507Y-136507D01*
X-112382Y-146507D01*
G01X-113507Y-143007D02*
X-117507D01*
G01X-105507Y-146507D02*
Y-142007D01*
X-108007Y-136507D01*
G01X-103007D02*
X-105507Y-142007D01*
G01X-93007Y-146507D02*
X-98007D01*
Y-136507D01*
X-93007D01*
G01X-95007Y-141340D02*
X-98007D01*
G01X-88007Y-146507D02*
Y-136507D01*
X-84882D01*
X-83882Y-137007D01*
X-83257Y-137673D01*
X-83007Y-139007D01*
X-83257Y-140340D01*
X-84007Y-141173D01*
X-84882Y-141674D01*
X-88007D01*
G01X-84882D02*
X-83007Y-146507D01*
G01X-75507Y-146840D02*
X-75757Y-146673D01*
Y-146340D01*
X-75507Y-146174D01*
X-75257Y-146340D01*
Y-146673D01*
X-75507Y-146840D01*
G01Y-142340D02*
X-75757Y-142174D01*
Y-141840D01*
X-75507Y-141674D01*
X-75257Y-141840D01*
Y-142174D01*
X-75507Y-142340D01*
G01X-178257Y-88007D02*
Y-78007D01*
X-175757D01*
X-174757Y-78507D01*
X-174007Y-79174D01*
X-173382Y-80173D01*
X-172882Y-81340D01*
X-172757Y-83007D01*
X-172882Y-84674D01*
X-173382Y-85840D01*
X-174007Y-86840D01*
X-174757Y-87507D01*
X-175757Y-88007D01*
X-178257D01*
G01X-168632D02*
X-165507Y-78007D01*
X-162382Y-88007D01*
G01X-163507Y-84507D02*
X-167507D01*
G01X-155507Y-78007D02*
Y-88007D01*
G01X-158382Y-78007D02*
X-152632D01*
G01X-143007Y-88007D02*
X-148007D01*
Y-78007D01*
X-143007D01*
G01X-145007Y-82840D02*
X-148007D01*
G01X-135507Y-88340D02*
X-135757Y-88173D01*
Y-87840D01*
X-135507Y-87674D01*
X-135257Y-87840D01*
Y-88173D01*
X-135507Y-88340D01*
G01Y-83840D02*
X-135757Y-83674D01*
Y-83340D01*
X-135507Y-83174D01*
X-135257Y-83340D01*
Y-83674D01*
X-135507Y-83840D01*
G01X-125507Y-78007D02*
X-126507Y-78340D01*
X-127257Y-79174D01*
X-127757Y-80173D01*
X-128132Y-81507D01*
X-128257Y-83007D01*
X-128132Y-84507D01*
X-127757Y-85840D01*
X-127257Y-86840D01*
X-126507Y-87674D01*
X-125507Y-88007D01*
X-124507Y-87674D01*
X-123757Y-86840D01*
X-123257Y-85840D01*
X-122882Y-84507D01*
X-122757Y-83007D01*
X-122882Y-81507D01*
X-123257Y-80173D01*
X-123757Y-79174D01*
X-124507Y-78340D01*
X-125507Y-78007D01*
G01X-114007Y-88007D02*
Y-78007D01*
X-118632Y-85174D01*
X-112382D01*
G01X-107132Y-84674D02*
X-103882D01*
G01X-98007Y-86007D02*
X-97382Y-87007D01*
X-96632Y-87674D01*
X-95757Y-88007D01*
X-94757Y-87674D01*
X-94007Y-87007D01*
X-93257Y-86007D01*
X-93007Y-84674D01*
Y-78007D01*
G01X-88257D02*
Y-85174D01*
X-87757Y-86674D01*
X-86757Y-87674D01*
X-85507Y-88007D01*
X-84257Y-87674D01*
X-83257Y-86674D01*
X-82757Y-85174D01*
Y-78007D01*
G01X-78007D02*
Y-88007D01*
X-73007D01*
G01X-65507D02*
Y-83507D01*
X-68007Y-78007D01*
G01X-63007D02*
X-65507Y-83507D01*
G01X-57132Y-84674D02*
X-53882D01*
G01X-47882Y-79673D02*
X-47132Y-78674D01*
X-46257Y-78173D01*
X-45257Y-78007D01*
X-44007Y-78340D01*
X-43132Y-79174D01*
X-42882Y-80173D01*
X-43007Y-81174D01*
X-43507Y-82007D01*
X-46007Y-83674D01*
X-47132Y-84840D01*
X-47882Y-86507D01*
X-48132Y-88007D01*
X-42882D01*
G01X-35507Y-78007D02*
X-36507Y-78340D01*
X-37257Y-79174D01*
X-37757Y-80173D01*
X-38132Y-81507D01*
X-38257Y-83007D01*
X-38132Y-84507D01*
X-37757Y-85840D01*
X-37257Y-86840D01*
X-36507Y-87674D01*
X-35507Y-88007D01*
X-34507Y-87674D01*
X-33757Y-86840D01*
X-33257Y-85840D01*
X-32882Y-84507D01*
X-32757Y-83007D01*
X-32882Y-81507D01*
X-33257Y-80173D01*
X-33757Y-79174D01*
X-34507Y-78340D01*
X-35507Y-78007D01*
G01X-27882Y-79673D02*
X-27132Y-78674D01*
X-26257Y-78173D01*
X-25257Y-78007D01*
X-24007Y-78340D01*
X-23132Y-79174D01*
X-22882Y-80173D01*
X-23007Y-81174D01*
X-23507Y-82007D01*
X-26007Y-83674D01*
X-27132Y-84840D01*
X-27882Y-86507D01*
X-28132Y-88007D01*
X-22882D01*
G01X-15507Y-78007D02*
X-16507Y-78340D01*
X-17257Y-79174D01*
X-17757Y-80173D01*
X-18132Y-81507D01*
X-18257Y-83007D01*
X-18132Y-84507D01*
X-17757Y-85840D01*
X-17257Y-86840D01*
X-16507Y-87674D01*
X-15507Y-88007D01*
X-14507Y-87674D01*
X-13757Y-86840D01*
X-13257Y-85840D01*
X-12882Y-84507D01*
X-12757Y-83007D01*
X-12882Y-81507D01*
X-13257Y-80173D01*
X-13757Y-79174D01*
X-14507Y-78340D01*
X-15507Y-78007D01*
G01X-5634Y-135355D02*
Y-145355D01*
X-634D01*
G01X4490Y-137022D02*
X5241Y-136022D01*
X6116Y-135522D01*
X7116Y-135355D01*
X8366Y-135688D01*
X9241Y-136522D01*
X9491Y-137521D01*
X9366Y-138522D01*
X8866Y-139355D01*
X6366Y-141022D01*
X5241Y-142188D01*
X4490Y-143855D01*
X4241Y-145355D01*
X9491D01*
G01X16993Y-88007D02*
Y-78007D01*
X19993D01*
X20993Y-78507D01*
X21743Y-79673D01*
X21993Y-81007D01*
X21743Y-82340D01*
X21118Y-83340D01*
X19993Y-83840D01*
X16993D01*
G01X26368Y-88007D02*
X29493Y-78007D01*
X32618Y-88007D01*
G01X31493Y-84507D02*
X27493D01*
G01X36993Y-88007D02*
Y-78007D01*
X40118D01*
X41118Y-78507D01*
X41743Y-79174D01*
X41993Y-80507D01*
X41743Y-81840D01*
X40993Y-82673D01*
X40118Y-83174D01*
X36993D01*
G01X40118D02*
X41993Y-88007D01*
G01X49493Y-78007D02*
Y-88007D01*
G01X46618Y-78007D02*
X52368D01*
G01X66618Y-88007D02*
Y-78007D01*
X72368Y-88007D01*
Y-78007D01*
G01X76743D02*
Y-85174D01*
X77243Y-86674D01*
X78243Y-87674D01*
X79493Y-88007D01*
X80743Y-87674D01*
X81743Y-86674D01*
X82243Y-85174D01*
Y-78007D01*
G01X86243Y-88007D02*
Y-78007D01*
X89493Y-86340D01*
X92743Y-78007D01*
Y-88007D01*
G01X100493Y-82673D02*
X100993Y-82174D01*
X101368Y-81340D01*
X101618Y-80173D01*
X101368Y-79174D01*
X100868Y-78507D01*
X99993Y-78007D01*
X96618D01*
Y-88007D01*
X100743D01*
X101618Y-87340D01*
X102118Y-86340D01*
X102368Y-85174D01*
X102118Y-84007D01*
X101368Y-83007D01*
X100493Y-82673D01*
X96618D01*
G01X111993Y-88007D02*
X106993D01*
Y-78007D01*
X111993D01*
G01X109993Y-82840D02*
X106993D01*
G01X116993Y-88007D02*
Y-78007D01*
X120118D01*
X121118Y-78507D01*
X121743Y-79174D01*
X121993Y-80507D01*
X121743Y-81840D01*
X120993Y-82673D01*
X120118Y-83174D01*
X116993D01*
G01X120118D02*
X121993Y-88007D01*
G01X129493Y-88340D02*
X129243Y-88173D01*
Y-87840D01*
X129493Y-87674D01*
X129743Y-87840D01*
Y-88173D01*
X129493Y-88340D01*
G01Y-83840D02*
X129243Y-83674D01*
Y-83340D01*
X129493Y-83174D01*
X129743Y-83340D01*
Y-83674D01*
X129493Y-83840D01*
G01X139493Y-78007D02*
Y-88007D01*
G01X136618Y-78007D02*
X142368D01*
G01X146618Y-88007D02*
Y-78007D01*
X152368Y-88007D01*
Y-78007D01*
G01X157868Y-84674D02*
X161118D01*
G01X172243Y-78840D02*
X171493Y-78340D01*
X170618Y-78007D01*
X169618D01*
X168493Y-78507D01*
X167618Y-79340D01*
X166993Y-80340D01*
X166493Y-82007D01*
X166368Y-83507D01*
X166618Y-85007D01*
X166993Y-86007D01*
X167743Y-87007D01*
X168618Y-87674D01*
X169493Y-88007D01*
X170368D01*
X171243Y-87674D01*
X171993Y-87174D01*
X172618Y-86507D01*
G01X179493Y-88007D02*
X178493Y-87840D01*
X177618Y-87174D01*
X176868Y-86174D01*
X176368Y-85007D01*
X176118Y-83674D01*
Y-82340D01*
X176368Y-81007D01*
X176868Y-79840D01*
X177618Y-78840D01*
X178493Y-78173D01*
X179493Y-78007D01*
X180493Y-78173D01*
X181368Y-78840D01*
X182118Y-79840D01*
X182618Y-81007D01*
X182868Y-82340D01*
Y-83674D01*
X182618Y-85007D01*
X182118Y-86174D01*
X181368Y-87174D01*
X180493Y-87840D01*
X179493Y-88007D01*
G01X186243D02*
Y-78007D01*
X189493Y-86340D01*
X192743Y-78007D01*
Y-88007D01*
G01X196243D02*
Y-78007D01*
X199493Y-86340D01*
X202743Y-78007D01*
Y-88007D01*
G01X207868Y-84674D02*
X211118D01*
G01X216368Y-78007D02*
X219493Y-88007D01*
X222618Y-78007D01*
G01X229493Y-88007D02*
Y-78007D01*
X227993Y-80007D01*
G01Y-88007D02*
X230993D01*
G01X237868Y-84674D02*
X241118D01*
G01X246993Y-88007D02*
Y-78007D01*
X250118D01*
X251118Y-78507D01*
X251743Y-79174D01*
X251993Y-80507D01*
X251743Y-81840D01*
X250993Y-82673D01*
X250118Y-83174D01*
X246993D01*
G01X250118D02*
X251993Y-88007D01*
G01X261993D02*
X256993D01*
Y-78007D01*
X261993D01*
G01X259993Y-82840D02*
X256993D01*
G01X266368Y-78007D02*
X269493Y-88007D01*
X272618Y-78007D01*
G01X280493Y-82673D02*
X280993Y-82174D01*
X281368Y-81340D01*
X281618Y-80173D01*
X281368Y-79174D01*
X280868Y-78507D01*
X279993Y-78007D01*
X276618D01*
Y-88007D01*
X280743D01*
X281618Y-87340D01*
X282118Y-86340D01*
X282368Y-85174D01*
X282118Y-84007D01*
X281368Y-83007D01*
X280493Y-82673D01*
X276618D01*
G01X12000Y-2D02*
X337997D01*
G01Y399998D02*
X12000D01*
M02*
