G04 ================== begin FILE IDENTIFICATION RECORD ==================*
G04 Layout Name:  E:/CAD/CAD/FACEBOOK/COM V1/WORK/22-12-20/COM_V1_P2_21-12-2020_4.brd*
G04 Film Name:    COM_V1_P2-L3.gbr*
G04 File Format:  Gerber RS274X*
G04 File Origin:  Cadence Allegro 16.6-2015-S108*
G04 Origin Date:  Fri Dec 25 11:50:55 2020*
G04 *
G04 Layer:  DRAWING FORMAT/FILM_LABEL_OUTLINE*
G04 Layer:  VIA CLASS/L3_SIG*
G04 Layer:  PIN/L3_SIG*
G04 Layer:  ETCH/L3_SIG*
G04 Layer:  BOARD GEOMETRY/OUTLINE*
G04 Layer:  BOARD GEOMETRY/TOOLING_CORNERS*
G04 *
G04 Offset:    (0.000 0.000)*
G04 Mirror:    No*
G04 Mode:      Positive*
G04 Rotation:  0*
G04 FullContactRelief:  No*
G04 UndefLineWidth:     6.000*
G04 ================== end FILE IDENTIFICATION RECORD ====================*
%FSLAX55Y55*MOIN*%
%IR0*IPPOS*OFA0.00000B0.00000*MIA0B0*SFA1.00000B1.00000*%
%ADD14C,.022*%
%ADD13C,.015*%
%ADD10C,.024*%
%ADD12C,.016*%
%ADD11C,.018*%
%ADD15C,.062992*%
%ADD16C,.004*%
%ADD17C,.005*%
%ADD18C,.0042*%
%ADD19C,.006*%
%ADD20C,.007*%
%ADD21C,.0044*%
%ADD22C,.0035*%
%ADD23C,.0062*%
%ADD24C,.0045*%
%ADD25C,.003402*%
%ADD26C,.0047*%
%ADD27C,.004701*%
%ADD28C,.0068*%
%ADD29C,.003449*%
%ADD30C,.01*%
%ADD31C,.02*%
%ADD32C,.013*%
%ADD40C,.189296*%
%ADD34C,.032004*%
%ADD38C,.024004*%
%ADD37C,.034004*%
%ADD35C,.026004*%
%ADD39C,.036004*%
%ADD33C,.028004*%
%ADD41C,.075122*%
%ADD36C,.087004*%
G75*
%LPD*%
G75*
G36*
G01X28724Y108663D02*
X28362Y108301D01*
Y107475D01*
G03Y105847I1014J-814D01*
G01Y105353D01*
X29138Y104577D01*
Y100853D01*
X27432Y99147D01*
X25363D01*
X24794Y99716D01*
Y107732D01*
X30069Y113007D01*
X34051D01*
X34775Y112283D01*
Y110266D01*
X33172Y108663D01*
X28724D01*
G37*
G36*
G01X60956Y29750D02*
X58473Y32232D01*
Y48368D01*
X58007Y48834D01*
Y51098D01*
X55672Y53433D01*
X53408D01*
X42131Y64710D01*
Y83535D01*
X44407Y85811D01*
X46475D01*
X47302Y86638D01*
X55957D01*
X57853Y84742D01*
Y74640D01*
X67162Y65331D01*
Y59435D01*
X68772Y57824D01*
G03X69122Y57475I1149J800D01*
G01X71721Y54876D01*
G03X72023Y52673I994J-986D01*
G01Y51539D01*
G03Y51495I1400J-22D01*
G01Y49122D01*
G02X71351Y48829I-400J0D01*
G03Y46777I-953J-1026D01*
G02X72023Y46484I272J-293D01*
G01Y46109D01*
X71867Y46074D01*
G03Y43342I307J-1366D01*
G01X72023Y43306D01*
Y33991D01*
X67782Y29750D01*
X60956D01*
G37*
G36*
G01X87324Y219257D02*
X87414Y219347D01*
X90112D01*
X90523Y218936D01*
Y214876D01*
X90138Y214491D01*
X87723D01*
X87324Y214890D01*
Y219257D01*
G37*
G36*
G01X92212Y244942D02*
X90299Y246856D01*
X90447Y247004D01*
X90455Y247010D01*
G03X90512Y247060I-792J967D01*
G02X90784I136J-147D01*
G03Y248897I848J918D01*
G02X90512I-136J147D01*
G03X90146Y249132I-848J-918D01*
G01X90024Y249183D01*
Y258926D01*
X90944Y259846D01*
Y260432D01*
G02X91566Y260765I400J0D01*
G03X91211Y262572I723J1081D01*
G02X90596Y262513I-332J224D01*
G01X90334Y262776D01*
Y274776D01*
X90634Y275076D01*
X92734D01*
X92960Y274849D01*
X98069D01*
X100713Y272206D01*
Y260200D01*
X100742Y260171D01*
Y258508D01*
X99098Y256864D01*
Y249151D01*
G02X98416Y248867I-400J0D01*
G03X96688Y248896I-880J-888D01*
G02X96416I-136J147D01*
G03Y247060I-849J-918D01*
G02X96688I136J-147D01*
G03X98416Y247090I849J918D01*
G02X99098Y246806I281J-284D01*
G01Y246382D01*
X97658Y244942D01*
X92212D01*
G37*
G36*
G01X5018Y249483D02*
Y283998D01*
X6646Y285626D01*
X12451D01*
X13478Y284598D01*
Y277815D01*
X11115Y275452D01*
Y270338D01*
G03Y268774I1162J-782D01*
G01Y251609D01*
X16767Y245956D01*
X33143D01*
X34593Y244507D01*
X34660D01*
X37185Y241982D01*
Y240602D01*
G03X37218Y239107I1200J-721D01*
G01Y234240D01*
X46365Y225094D01*
X55848D01*
X55874Y225086D01*
G03X56558I343J1254D01*
G01X56584Y225094D01*
X59931D01*
X66406Y218619D01*
Y192058D01*
G03Y190346I979J-856D01*
G01Y187582D01*
X70619Y183369D01*
X84986D01*
X85005Y183365D01*
G03X85647I321J1568D01*
G01X85667Y183369D01*
X90968D01*
X104020Y170317D01*
Y164664D01*
X102273D01*
X88501Y178436D01*
X65378D01*
X62500Y181314D01*
Y214816D01*
X62056Y215261D01*
Y216136D01*
X58988Y219204D01*
X58113D01*
X57053Y220264D01*
X53258D01*
X52968Y220553D01*
X46903D01*
X46868Y220566D01*
G03X45804Y220508I-467J-1214D01*
G01X45674Y220441D01*
X34546Y231569D01*
Y240304D01*
X32697Y242154D01*
X29727D01*
X29698Y242163D01*
G03X28869I-415J-1337D01*
G01X28840Y242154D01*
X27250D01*
X26016Y240920D01*
X13581D01*
X5018Y249483D01*
G37*
G36*
G01X5360Y313151D02*
X2500Y316010D01*
Y360255D01*
X8854Y366609D01*
X39685D01*
X42609Y369533D01*
X42706Y369521D01*
G03X47566Y374381I543J4316D01*
G01X47553Y374478D01*
X60239Y387164D01*
X102730D01*
G02X103129Y386744I0J-400D01*
G03X105029Y385370I1399J-67D01*
G01X105150Y385416D01*
X107206Y383360D01*
Y357644D01*
X106655Y357092D01*
Y357065D01*
X101998Y352408D01*
G02X101318Y352745I-283J283D01*
G03X99864Y351291I-1684J231D01*
G02X100202Y350612I54J-396D01*
G01X99139Y349550D01*
X90144D01*
G03X88282I-931J-1423D01*
G01X84423D01*
X84387Y349703D01*
G03X81857I-1265J-302D01*
G01X81821Y349550D01*
X25503D01*
X20775Y344822D01*
Y335778D01*
X26736Y329817D01*
X29819D01*
X30641Y328995D01*
Y316028D01*
X27764Y313151D01*
X25664D01*
G02X25329Y313770I0J400D01*
G03X23155I-1087J713D01*
G02X22820Y313151I-335J-219D01*
G01X5360D01*
G37*
G36*
G01X124218Y287276D02*
X138934D01*
X140073Y286136D01*
X138434Y284497D01*
Y283476D01*
G03X140329Y282028I1500J0D01*
G02X140834Y281642I105J-386D01*
G01Y277376D01*
X138370Y274911D01*
X138246Y274964D01*
G03X137164Y274934I-508J-1197D01*
G02X136617Y275141I-177J359D01*
G03X136402Y275493I-1203J-492D01*
G02X136429Y276041I304J260D01*
G03X134539Y276134I-901J937D01*
G02X134512Y275586I-304J-260D01*
G03X134220Y274134I901J-937D01*
G02X133852Y273576I-367J-158D01*
G01X120083D01*
G02X119719Y274140I0J400D01*
G03X119372Y275670I-1185J535D01*
G02Y276281I258J306D01*
G03X117692Y278267I-838J994D01*
G02X117128Y278314I-259J305D01*
G03X116975Y276484I-994J-838D01*
G02X117540Y276437I259J-305D01*
G03X117696Y276281I994J838D01*
G02Y275670I-258J-306D01*
G03X117349Y274140I838J-994D01*
G02X116984Y273576I-365J-165D01*
G01X114834D01*
X114185Y272927D01*
X110907D01*
X109393Y271413D01*
X109377D01*
X107390Y269426D01*
X106484D01*
X106134Y269776D01*
Y287072D01*
X109103Y290041D01*
X121453D01*
X124218Y287276D01*
G37*
G36*
G01X173302Y162029D02*
G02X173751Y162426I400J0D01*
G03X174960Y162951I158J1290D01*
G02X175600Y162960I323J-236D01*
G03X175612Y164445I949J735D01*
G02X174972Y164465I-312J250D01*
G03X173751Y165007I-1063J-748D01*
G02X173302Y165404I-49J397D01*
G01Y165861D01*
G02X173751Y166258I400J0D01*
G03Y168839I158J1290D01*
G02X173302Y169236I-49J397D01*
G01Y173238D01*
X174014Y173950D01*
X174058Y173965D01*
G03X174797Y174705I-394J1134D01*
G01X174813Y174748D01*
X175106Y175042D01*
X175286Y174861D01*
X175300Y174807D01*
G03X176062Y173968I1164J291D01*
G02X176211Y173308I-134J-377D01*
G03X177462Y173591I849J-849D01*
G02X177313Y174250I134J377D01*
G03X177664Y175052I-849J849D01*
G01X177671Y175244D01*
X178044D01*
X180319Y177520D01*
Y177578D01*
X180399Y177658D01*
Y185160D01*
X182249Y187010D01*
G02X182905Y186873I283J-283D01*
G03X183342Y186320I1118J436D01*
G02X183329Y185653I-227J-330D01*
G03X184649Y185626I640J-1016D01*
G02X184663Y186294I227J330D01*
G03X184870Y188160I-640J1015D01*
G02X185152Y188843I282J283D01*
G01X186625D01*
G02X186936Y188192I0J-400D01*
G03X187288Y186387I933J-755D01*
G02Y185687I-194J-350D01*
G03X187084Y183729I581J-1050D01*
G02X187100Y183139I-262J-303D01*
G03X188719Y183183I834J-863D01*
G02X188703Y183774I262J303D01*
G03X188450Y185687I-834J863D01*
G02Y186387I194J350D01*
G03X188802Y188192I-581J1050D01*
G02X189113Y188843I311J251D01*
G01X190292D01*
G02X190611Y188202I0J-400D01*
G03X192523I956J-725D01*
G02X192842Y188843I319J242D01*
G01X196099D01*
X196334Y189078D01*
X198709D01*
X198749Y189059D01*
G03X198854Y189016I548J1179D01*
G01X198985Y188828D01*
X198872Y188648D01*
G03X200353Y188395I562J-1172D01*
G02X200636Y189078I283J283D01*
G01X203055D01*
X203061Y189078D01*
G03X203207I73J1198D01*
G01X203213Y189078D01*
X206567D01*
X211264Y184380D01*
Y168067D01*
G02X210907Y167669I-400J0D01*
G03X210316Y165514I127J-1193D01*
G01Y164049D01*
G03X210161Y162737I918J-774D01*
G01X210226Y162608D01*
X209508Y161889D01*
X204792D01*
X203784Y162897D01*
Y166976D01*
X198284Y172476D01*
X190645D01*
X190600Y172669D01*
G03X189208Y171082I-1267J-294D01*
G02X189434Y170832I-24J-249D01*
G01Y170718D01*
G02X189159Y170470I-250J0D01*
G03X189679Y168047I-126J-1294D01*
G01X189680D01*
X189846Y168142D01*
X190662Y167326D01*
X194334D01*
X194759Y166900D01*
Y163111D01*
X194703Y163056D01*
Y162306D01*
X193734Y161336D01*
X190944D01*
X189234Y159626D01*
Y145754D01*
X191465Y143523D01*
X191361Y143355D01*
G03X193661Y142158I1106J-683D01*
G02X194474Y142313I459J-198D01*
G01X196434Y140354D01*
Y138776D01*
X195174Y137516D01*
G03X195129Y137499I393J-1139D01*
G01X190659D01*
G03X188608I-1026J-624D01*
G01X184259D01*
G03X182208I-1026J-624D01*
G01X177841D01*
X175095Y140245D01*
Y146880D01*
G02X175730Y147204I400J0D01*
G03X175880Y147111I704J972D01*
G02X175963Y146458I-185J-355D01*
G03X177381Y146667I868J-968D01*
G02X177272Y147316I169J362D01*
G03X175730Y149148I-838J860D01*
G02X175095Y149472I-235J324D01*
G01Y151947D01*
X175099Y151967D01*
G03Y152436I-1177J235D01*
G01X175095Y152455D01*
Y153340D01*
X173302Y155133D01*
Y158401D01*
G02X173502Y158601I200J0D01*
G01X173503D01*
G03X174583Y159164I9J1300D01*
G02X175242I329J-227D01*
G03Y160639I1071J738D01*
G02X174583I-329J227D01*
G03X173503Y161201I-1071J-738D01*
G01X173502D01*
G02X173302Y161401I0J200D01*
G01Y162029D01*
G37*
G36*
G01X207124Y134876D02*
X205931Y136069D01*
X205377D01*
X205340Y136032D01*
X200771D01*
X200742Y136003D01*
X199607D01*
X197694Y137915D01*
X197934Y138154D01*
Y140975D01*
X195535Y143374D01*
G03X194660Y143886I-1414J-1414D01*
G01X194609Y143900D01*
X194134Y144376D01*
X192733D01*
X190734Y146375D01*
Y156613D01*
G02X191409Y156904I400J0D01*
G03X191120Y158222I825J872D01*
G01X191069Y158096D01*
X190734D01*
Y159004D01*
X191566Y159836D01*
X194356D01*
X196203Y161685D01*
Y162434D01*
X196259Y162489D01*
Y167521D01*
X194956Y168826D01*
X191284D01*
X190934Y169176D01*
Y170676D01*
X191234Y170975D01*
X197662D01*
X201255Y167383D01*
X201120Y167242D01*
G03X201087Y165345I1014J-966D01*
G02X200987Y164594I-374J-332D01*
G03X202124Y162276I711J-1089D01*
G01X202242Y162317D01*
X203234Y161325D01*
Y160827D01*
X204494Y159566D01*
G02X204442Y158956I-283J-283D01*
G03X206115Y157284I692J-981D01*
G02X206724Y157336I327J-231D01*
G01X207322Y156739D01*
Y155067D01*
X207223Y155009D01*
G03Y152942I611J-1033D01*
G01X207322Y152884D01*
Y144761D01*
X209978Y142104D01*
X209992Y142081D01*
G03X210439Y141633I1042J595D01*
G01X210462Y141620D01*
X211141Y140941D01*
X211840Y140243D01*
Y137901D01*
X208814Y134876D01*
X207124D01*
G37*
G36*
G01X268133Y129072D02*
X254842Y142363D01*
X242463D01*
X242054Y142773D01*
X222677D01*
X222267Y142363D01*
X220968D01*
X215537Y136933D01*
Y136827D01*
X214825Y136114D01*
Y134642D01*
G02X214463Y134244I-400J0D01*
G03X213667Y132267I114J-1195D01*
G02X213363Y131606I-303J-261D01*
G01X209435D01*
X208969Y132072D01*
Y133375D01*
X209436D01*
X213340Y137279D01*
Y140865D01*
X212383Y141821D01*
Y145388D01*
X213664Y146669D01*
X213793Y146604D01*
G03X215406Y148216I540J1072D01*
G01X215340Y148345D01*
X215592Y148597D01*
G02X216273Y148353I283J-283D01*
G03X218647Y148255I1194J119D01*
G02X219277Y148506I393J-72D01*
G03X221181Y149388I707J970D01*
G02X221580Y149759I399J-29D01*
G01X221704D01*
G02X222023Y149117I0J-400D01*
G03X223934I956J-726D01*
G02X224252Y149759I318J242D01*
G01X227304D01*
G02X227622Y149117I0J-400D01*
G03X229674Y148882I956J-726D01*
G02X230039Y149445I365J163D01*
G01X232717D01*
G02X233082Y148882I0J-400D01*
G03X235272I1095J-491D01*
G02X235638Y149445I365J164D01*
G01X235868D01*
G02X236027Y149123I0J-200D01*
G03X238073Y148882I951J-732D01*
G02X238438Y149445I365J164D01*
G01X242946D01*
Y149244D01*
G03X245347I1200J-4D01*
G01Y149445D01*
X246545D01*
X247573Y148417D01*
X251960D01*
X253257Y149714D01*
X255548D01*
X255583Y149701D01*
G03Y152128I467J1214D01*
G01X255548Y152115D01*
X255043D01*
G02X254902Y152456I0J200D01*
G01X255101Y152655D01*
X263168D01*
X264290Y151534D01*
Y149435D01*
X266748Y146977D01*
G02X266572Y146309I-283J-283D01*
G03X268334Y145128I373J-1350D01*
G02X268732Y145576I397J48D01*
G01X270206D01*
X270227Y145597D01*
X271302Y144521D01*
Y141328D01*
X270332Y140358D01*
X270288Y140343D01*
G03X272064Y138567I450J-1326D01*
G01X272079Y138611D01*
X273773Y140304D01*
Y143139D01*
X280132D01*
X284062Y147070D01*
X297187Y160194D01*
X302720D01*
X305700Y157215D01*
X305677Y157108D01*
G03X307820Y154965I1759J-385D01*
G01X307927Y154988D01*
X310374Y152540D01*
Y134491D01*
X308649Y132766D01*
G02X307978Y132952I-283J283D01*
G03X306280Y131253I-1358J-341D01*
G02X306466Y130582I-97J-388D01*
G01X304956Y129072D01*
X296761D01*
G03X294433I-1164J-778D01*
G01X291972D01*
X291923Y129202D01*
G03X289303I-1310J-494D01*
G01X289254Y129072D01*
X268133D01*
G37*
G36*
G01X152000Y243676D02*
X151340Y244337D01*
X133679D01*
X132787Y245229D01*
X132425Y245591D01*
Y259503D01*
X129881Y262047D01*
X129866Y262091D01*
G03X129762Y262322I-1232J-416D01*
G01X129736Y262368D01*
Y263711D01*
X135678D01*
X138177Y261212D01*
X155782D01*
X161519Y266950D01*
X163456D01*
X165029Y265376D01*
Y263844D01*
X159294Y258109D01*
Y258099D01*
X157157Y255962D01*
Y251495D01*
X157966Y250686D01*
Y248208D01*
X157915Y248157D01*
Y247353D01*
X157546D01*
X157518Y247519D01*
G03X157214Y246439I-1281J-223D01*
G02X157915Y246175I301J-264D01*
G01Y244024D01*
X157567Y243676D01*
X152000D01*
G37*
G36*
G01X210999Y146530D02*
X210367Y147162D01*
Y151973D01*
X212603Y154209D01*
Y165405D01*
X212765Y165567D01*
Y177896D01*
X213751Y178882D01*
G02X214434Y178594I283J-283D01*
G03X216788Y178906I1200J-18D01*
G02X217172Y179416I385J110D01*
G01X219340D01*
X219797Y179872D01*
X221546D01*
Y176882D01*
G02X221178Y176483I-400J0D01*
G03Y174091I98J-1196D01*
G02X221546Y173692I-33J-399D01*
G01Y170436D01*
X219627Y168517D01*
G03X219988Y166334I639J-1016D01*
G02X220178Y165662I-93J-389D01*
G01X219419Y164904D01*
Y164442D01*
G03X219152Y162692I667J-998D01*
G01X217441Y160981D01*
Y158298D01*
X218544Y157195D01*
Y153864D01*
G02X218000Y153491I-400J0D01*
G03X216632Y153124I-433J-1119D01*
G02X215974Y153175I-312J251D01*
G03X216032Y152090I-1040J-599D01*
G02X216408Y152061I183J-81D01*
G03X216492Y151837I1159J311D01*
G02X216134Y151259I-358J-178D01*
G01X216133D01*
X214788Y149914D01*
X214626D01*
X211242Y146530D01*
X210999D01*
G37*
G36*
G01X309201Y322128D02*
X306124Y325204D01*
G02X306113Y325758I283J283D01*
G03X306290Y327275I-957J881D01*
G02X306353Y327538I174J98D01*
G03X306630Y329616I-782J1162D01*
G02X306933Y330277I303J262D01*
G01X314278D01*
X317610Y333609D01*
X325156D01*
G03Y336010I721J1200D01*
G01X316616D01*
X314118Y333512D01*
G02X313435Y333795I-283J283D01*
G01Y334372D01*
X314163Y335099D01*
Y344796D01*
X313435Y345524D01*
Y345833D01*
X301341Y357927D01*
X300732D01*
X300680Y358046D01*
G03X299515Y358875I-1280J-567D01*
G02X299148Y359274I33J399D01*
G01Y360337D01*
G03X296722Y360380I-1200J721D01*
G01X296747Y360335D01*
Y360107D01*
X296323Y359683D01*
X271478D01*
X269722Y357927D01*
X242330D01*
Y355783D01*
G02X242127Y355583I-200J0D01*
G03X241371Y355354I-18J-1300D01*
G02X240809Y355465I-227J329D01*
G03X240457Y353686I-1090J-709D01*
G02X241019Y353575I227J-329D01*
G03X242127Y352983I1090J709D01*
G02X242330Y352783I3J-200D01*
G01Y350909D01*
X239636Y348214D01*
X237313D01*
X237257Y348319D01*
G03X236968Y348678I-1141J-623D01*
G02X236938Y349254I262J302D01*
G03X236695Y351236I-948J890D01*
G02X236607Y351832I217J336D01*
G03X234776Y353666I-990J842D01*
G02X234210Y353714I-259J305D01*
G03X232463Y351818I-999J-832D01*
G02X232560Y351262I-230J-327D01*
G03X234386Y349462I1065J-745D01*
G02X234942Y349374I234J-325D01*
G03X235138Y349162I1048J769D01*
G02X235167Y348586I-262J-302D01*
G03X234974Y348319I948J-890D01*
G01X234917Y348214D01*
X233288D01*
X233243Y348352D01*
G03X230773I-1235J-407D01*
G01X230728Y348214D01*
X228884D01*
X227038Y350060D01*
X225340D01*
X217473Y357927D01*
X214515D01*
X211201Y361241D01*
X209693D01*
X203049Y367886D01*
X166895D01*
Y392693D01*
X168767Y394565D01*
X306986D01*
G02X307332Y393964I0J-400D01*
G03X310441I1555J-908D01*
G02X310786Y394565I345J202D01*
G01X330259D01*
X330305Y394429D01*
G03X332961I1328J444D01*
G01X333006Y394565D01*
X339572D01*
X343889Y390249D01*
Y387048D01*
G02X343332Y386680I-400J0D01*
G03Y384104I-549J-1288D01*
G02X343889Y383736I157J-368D01*
G01Y372293D01*
G03Y370024I821J-1134D01*
G01Y368399D01*
G03Y366210I873J-1095D01*
G01Y354784D01*
X343458Y354354D01*
Y331045D01*
X343450Y331018D01*
G03Y330221I1342J-398D01*
G01X343458Y330193D01*
Y322128D01*
X320868D01*
X320849Y322307D01*
G03X318064I-1393J-143D01*
G01X318045Y322128D01*
X309201D01*
G37*
%LPC*%
G75*
G36*
G01X204204Y180849D02*
G03X204229Y180274I290J-275D01*
G02X202563Y180202I-795J-899D01*
G03X202538Y180777I-290J275D01*
G02X204204Y180849I795J899D01*
G37*
G36*
G01X186972Y156026D02*
G03X187027Y155470I312J-250D01*
G02X185319Y155299I-770J-920D01*
G03X185263Y155855I-312J250D01*
G02X186972Y156026I770J920D01*
G37*
G36*
G01X200089Y180281D02*
G02X198658Y180191I-655J-1005D01*
G03X198618Y180832I-259J305D01*
G02X198401Y182662I655J1005D01*
G03X198391Y183221I-291J275D01*
G02X200106Y183251I843J855D01*
G03X200116Y182692I291J-275D01*
G02X200049Y180921I-843J-855D01*
G03X200089Y180281I259J-305D01*
G37*
G36*
G01X208758Y173855D02*
G02X207335Y173571I-524J-1080D01*
G03X207210Y174196I-300J265D01*
G02X208633Y174480I524J1080D01*
G03X208758Y173855I300J-265D01*
G37*
G36*
G01X202328Y173376D02*
G02X201115Y173600I-794J-900D01*
G03X201240Y174275I-140J375D01*
G02X202453Y174051I794J900D01*
G03X202328Y173376I140J-375D01*
G37*
G36*
G01X183815Y161826D02*
G02X182653I-581J-1050D01*
G03Y162526I-194J350D01*
G02X183815I581J1050D01*
G03Y161826I194J-350D01*
G37*
G36*
G01X180653Y161704D02*
G02X179265Y161597I-619J-1028D01*
G03X179215Y162247I-256J307D01*
G02X180603Y162354I619J1028D01*
G03X180653Y161704I256J-307D01*
G37*
G36*
G01X205440Y152571D02*
G02X204086Y152541I-655J-1006D01*
G03X204071Y153201I-233J325D01*
G02X205425Y153231I655J1006D01*
G03X205440Y152571I233J-325D01*
G37*
G36*
G01X202399Y152538D02*
G02X201016Y152554I-703J-973D01*
G03X201024Y153208I-227J330D01*
G02X202407Y153192I703J973D01*
G03X202399Y152538I227J-330D01*
G37*
G36*
G01X193801Y147857D02*
G02X193525Y149309I-1067J550D01*
G03X194153Y149443I264J301D01*
G02X194433Y147962I1181J-543D01*
G03X193801Y147857I-277J-289D01*
G37*
G36*
G01X202201Y146823D02*
G02X201009Y146963I-717J-963D01*
G03X201090Y147651I-158J367D01*
G02X202282Y147511I717J963D01*
G03X202201Y146823I158J-367D01*
G37*
G36*
G01X291543Y145307D02*
G03X291949Y144875I399J-33D01*
G02X290580Y143589I26J-1400D01*
G03X290174Y144021I-399J33D01*
G02X291543Y145307I-26J1400D01*
G37*
G36*
G01X282460Y135500D02*
G02X280803Y135545I-871J-1575D01*
G03X280863Y136229I-174J360D01*
G02X280397Y136807I819J1136D01*
G03X279904Y137027I-367J-159D01*
G02X280743Y138913I-445J1328D01*
G03X281237Y138693I367J159D01*
G02X282437Y136187I445J-1328D01*
G03X282460Y135500I216J-337D01*
G37*
G36*
G01X151093Y250778D02*
G02X149834Y251146I-944J-894D01*
G03X150019Y251818I-97J388D01*
G02X151299Y251444I985J995D01*
G03X151093Y250778I84J-391D01*
G37*
G36*
G01X215917Y166471D02*
G02X215534Y167570I-1183J205D01*
G03X216195Y167800I267J298D01*
G02X216577Y166700I1183J-205D01*
G03X215917Y166471I-267J-298D01*
G37*
G36*
G01X215848Y163129D02*
G02X215527Y164476I-1114J446D01*
G03X216163Y164628I264J300D01*
G02X216484Y163281I1114J-446D01*
G03X215848Y163129I-264J-300D01*
G37*
G36*
G01X211564Y378835D02*
G03X211584Y378302I308J-256D01*
G02X209501Y378223I-1007J-973D01*
G03X209480Y378757I-308J256D01*
G02X211564Y378835I1007J973D01*
G37*
G36*
G01X248614Y369900D02*
G03X247977I-318J-242D01*
G02X245454Y372423I-1432J1091D01*
G03Y373059I-242J318D01*
G02Y375923I1091J1432D01*
G03Y376559I-242J318D01*
G02X247977Y379082I1091J1432D01*
G03X248614I318J242D01*
G02X251477I1432J-1091D01*
G03X252114I318J242D01*
G02X252454Y379423I1432J-1091D01*
G03Y380059I-242J318D01*
G02Y382923I1091J1432D01*
G03Y383559I-242J318D01*
G02X254636I1091J1432D01*
G03Y382923I242J-318D01*
G02Y380059I-1091J-1432D01*
G03Y379423I242J-318D01*
G02Y376559I-1091J-1432D01*
G03Y375923I242J-318D01*
G02Y373059I-1091J-1432D01*
G03Y372423I242J-318D01*
G02X252114Y369900I-1091J-1432D01*
G03X251477I-318J-242D01*
G02X248614I-1432J1091D01*
G37*
G36*
G01X228423Y358409D02*
G03X228689Y358337I171J104D01*
G02X228158Y356377I665J-1232D01*
G03X227892Y356449I-171J-104D01*
G02X228423Y358409I-665J1232D01*
G37*
G36*
G01X332468Y380936D02*
G02Y382484I-1167J774D01*
G03X333134I333J221D01*
G02Y380936I1167J-774D01*
G03X332468I-333J-221D01*
G37*
G36*
G01X204755Y376739D02*
G02X202479Y375119I-685J-1446D01*
G03X202019Y375471I-398J-43D01*
G02X201556Y375465I-251J1580D01*
G03X201107Y375119I-53J-396D01*
G02X198748Y376721I-1588J200D01*
G03X198753Y377419I-193J351D01*
G02X199754Y380396I792J1391D01*
G03X200206Y380775I52J397D01*
G02X200207Y380794I1599J-67D01*
G03X199965Y381000I-200J11D01*
G02X199879Y384146I-333J1565D01*
G03X200109Y384365I31J198D01*
G02X200102Y384459I1592J166D01*
G03X199849Y384643I-200J-9D01*
G02X201004Y386444I-424J1543D01*
G03X201460Y386113I395J65D01*
G02X201986Y386105I241J-1582D01*
G03X202451Y386431I71J394D01*
G02X204780Y384747I1577J-271D01*
G03X204749Y384060I188J-353D01*
G02X203818Y381121I-876J-1339D01*
G03X203404Y380718I-14J-400D01*
G02X203403Y380624I-1600J-15D01*
G03X203641Y380418I200J-10D01*
G02X204732Y377450I312J-1569D01*
G03X204755Y376739I194J-350D01*
G37*
G36*
G01X186939Y371613D02*
G02X186264Y372774I-1400J-37D01*
G03X186869Y373149I207J342D01*
G02X187319Y374394I1595J129D01*
G03X187308Y374963I-286J279D01*
G02X189730Y377030I1104J1158D01*
G03X190391Y377036I329J227D01*
G02X192848Y375009I1331J-888D01*
G03X192853Y374435I281J-284D01*
G02X190435Y372364I-1104J-1158D01*
G03X189778I-328J-228D01*
G02X187564Y371954I-1314J914D01*
G03X186939Y371613I-225J-331D01*
G37*
G36*
G01X259294Y359240D02*
G02X259239Y360820I-1060J754D01*
G03X259874Y360842I309J254D01*
G02X259929Y359262I1060J-754D01*
G03X259294Y359240I-309J-254D01*
G37*
G54D40*
X279850Y380000D03*
G54D34*
X94214Y255654D03*
G54D38*
X183134Y139876D03*
X189034Y142576D03*
X180134Y139576D03*
X182929Y148376D03*
X195834Y175476D03*
X180034Y157776D03*
X180334Y154676D03*
X191769Y184637D03*
X207634Y166776D03*
X203173Y187437D03*
X180234Y172376D03*
X182934Y151876D03*
X187567Y179176D03*
X186257Y148580D03*
Y151564D03*
X186134Y160676D03*
X192433Y163504D03*
X186257D03*
X189344Y163505D03*
X183127Y172694D03*
X180029Y169474D03*
X192534Y175476D03*
X207634Y169776D03*
X204834Y139576D03*
X207934Y136576D03*
X201634Y139576D03*
X204784Y145595D03*
X198634Y157876D03*
X192434Y151565D03*
X192433Y154550D03*
X198558Y163506D03*
Y166390D03*
X214972Y141231D03*
X231378Y144491D03*
X214578Y159795D03*
X217377Y175099D03*
X214613Y156326D03*
G54D37*
X65034Y353976D03*
X7434Y323376D03*
X18610Y343572D03*
X11434Y331876D03*
X94034Y352476D03*
X98862Y358370D03*
X11915Y326372D03*
X23830Y325594D03*
X131008Y281092D03*
X274913Y137657D03*
G54D35*
X92366Y266525D03*
X94734Y272776D03*
X81916Y362943D03*
X77276Y357959D03*
X68834Y355476D03*
X72534Y355576D03*
X68834Y351976D03*
X72534Y352076D03*
X78134Y351976D03*
X77634Y361076D03*
X112834Y277476D03*
X109734D03*
X123134Y280876D03*
X119857Y283302D03*
G54D39*
X232310Y372292D03*
X307849Y372653D03*
X236952Y372139D03*
G54D33*
X46981Y67494D03*
X57321Y57512D03*
X57148Y66655D03*
X96680Y266908D03*
X71300Y369010D03*
X46447Y360389D03*
X296719Y131600D03*
X299759Y133949D03*
X297274Y156658D03*
X297293Y143198D03*
X151438Y256018D03*
X207545Y372531D03*
X196063Y372532D03*
X225423Y369072D03*
X222214Y372496D03*
X305651Y368426D03*
X332005Y376956D03*
X306515Y386539D03*
X339392Y391790D03*
G54D41*
X329777Y341363D03*
X319541D03*
G54D36*
X82620Y373837D03*
%LPD*%
G75*
G54D10*
X29841Y238084D03*
X38202Y257876D03*
X20141Y324165D03*
X27634Y325976D03*
X23934Y337376D03*
X105893Y358256D03*
X102361Y373385D03*
X102322Y377068D03*
X102305Y368526D03*
X102834Y363176D03*
X260708Y150869D03*
G54D20*
G01X100839Y256158D02*
X100834Y256154D01*
Y248912D01*
X104597Y245150D01*
X104600D01*
X105537Y244212D01*
Y242985D01*
X105537Y224535D01*
X104837Y223835D01*
X103500D01*
X102070Y225265D01*
X91281D01*
X81834Y234713D01*
Y238816D01*
X81036Y239613D01*
X79331D01*
G01X145834Y266205D02*
X141826Y270213D01*
X112894D01*
X109466Y266785D01*
Y259830D01*
X108439Y258803D01*
X104020D01*
X102063Y260760D01*
Y272981D01*
X97214Y277829D01*
X74895D01*
X74047Y276981D01*
Y275234D01*
X75130Y274152D01*
X77010D01*
X77710Y273452D01*
Y265277D01*
X72726Y260293D01*
G01X69423Y256990D02*
X67495D01*
G01X79331Y241582D02*
X80334D01*
X81034Y242282D01*
Y244976D01*
X77899Y248111D01*
Y251543D01*
X75484Y253958D01*
Y261098D01*
X78995Y264609D01*
Y274657D01*
X77518Y276134D01*
X75768D01*
G01X88769Y291190D02*
X90007Y292427D01*
Y297566D01*
X95117Y302676D01*
X133634D01*
X148434Y317476D01*
G01X34334Y330396D02*
Y323781D01*
X44039Y314076D01*
X51617D01*
X59509Y306184D01*
G54D11*
G01X206463Y328376D02*
X195726Y317638D01*
X189240D01*
X188956Y317922D01*
X65744Y115651D03*
X66274Y126794D03*
X65589Y113014D03*
X26843Y104195D03*
Y101712D03*
X70890Y109645D03*
X55154Y47591D03*
X109047Y108669D03*
X44362Y130546D03*
X113548Y131244D03*
X45234Y80846D03*
X48130D03*
X51130D03*
X46682Y78053D03*
X49682Y78260D03*
X49785Y83432D03*
X46165D03*
X28584Y141175D03*
X9241Y141692D03*
X54844Y49870D03*
X102911Y69478D03*
X110532Y66979D03*
X99072Y67766D03*
X51650Y118680D03*
X110385Y44214D03*
X96737Y69813D03*
X54597Y43048D03*
X25804Y127444D03*
X47086Y135633D03*
X49604Y135479D03*
X104237Y137306D03*
X29944Y59282D03*
X30567Y258986D03*
X30154Y262192D03*
X28323Y187558D03*
X38385Y239881D03*
X102797Y165538D03*
X30097Y205950D03*
X18583Y172391D03*
X17928Y144974D03*
X22437Y194000D03*
X50443Y149982D03*
X43146Y147309D03*
X61234Y148491D03*
X39507Y166362D03*
X39404Y168880D03*
X33028Y237799D03*
X94010Y153727D03*
X101073Y152712D03*
X73783Y222743D03*
X86580Y146945D03*
X49094Y256159D03*
X29186Y183528D03*
X18725Y238186D03*
X18300Y185292D03*
X22943Y189624D03*
X110197Y357632D03*
X6314Y278549D03*
X8986Y280604D03*
X7856Y283585D03*
X11042Y279063D03*
X12275Y281427D03*
X8986Y277624D03*
X6109Y281530D03*
X10322Y282968D03*
X108587Y287927D03*
X107174Y285782D03*
X107592Y270776D03*
X107618Y273320D03*
X106730Y265061D03*
X51266Y385299D03*
X91008Y388919D03*
X192313Y16792D03*
X223124Y137024D03*
X127330Y129382D03*
X199088Y121967D03*
X183907Y118932D03*
X223424Y133117D03*
X150393Y102191D03*
X148483Y99202D03*
X115191Y44067D03*
X115805Y69666D03*
X128738Y194598D03*
X164777Y167488D03*
X140198Y170743D03*
X162158Y163679D03*
X140718Y196640D03*
X137194Y197170D03*
X223914Y240600D03*
X221580Y240745D03*
X183692Y195852D03*
X233334Y211576D03*
X130546Y207431D03*
X156059Y214908D03*
X140652Y152136D03*
X176537Y248643D03*
X211806Y262890D03*
X171687Y247962D03*
X174173Y247770D03*
X156213Y211824D03*
X179054Y248695D03*
X159450Y262257D03*
X155944Y244699D03*
X116740Y204599D03*
X135075Y237720D03*
X229091Y261823D03*
X212734Y208976D03*
X121982Y162221D03*
X117490Y243552D03*
X154247Y159711D03*
X160530Y277855D03*
X232496Y293406D03*
Y290976D03*
X188956Y317922D03*
X206463Y328376D03*
X191437Y297435D03*
X226356Y299451D03*
X163638Y263901D03*
X161120Y264004D03*
X231534Y266845D03*
X212414Y318131D03*
X229101Y264249D03*
X117900Y288869D03*
X222917Y355792D03*
X224866Y357566D03*
X219999Y356283D03*
X221675Y358092D03*
X212578Y310238D03*
X213470Y350067D03*
X190617Y284945D03*
X156366Y305170D03*
X179614Y338461D03*
X178528Y326479D03*
X191705Y310328D03*
X183195Y338193D03*
X197580Y281881D03*
X255462Y14959D03*
X279843Y37658D03*
X286633Y124740D03*
X282068Y141262D03*
X320508Y78914D03*
X270739Y139017D03*
X324148Y49364D03*
X286142Y40078D03*
X302565Y40133D03*
X339874Y72851D03*
X343283Y131842D03*
X323042Y94089D03*
X305632Y196299D03*
X318413Y258482D03*
X303192Y262520D03*
X299349Y254443D03*
X301549D03*
X237628Y259367D03*
X239928D03*
X270406Y175887D03*
Y178187D03*
X330635Y248673D03*
X307724Y152499D03*
X303574Y155904D03*
X297954Y208951D03*
X343580Y195201D03*
X330635Y250983D03*
X239666Y241713D03*
X237366D03*
X296554Y161590D03*
X236670Y170948D03*
X303332Y196299D03*
X250234Y153976D03*
X274375Y161646D03*
X295957Y196845D03*
X236978Y159795D03*
X278134Y149176D03*
X296162Y201599D03*
X295186Y194379D03*
X271400Y161804D03*
X320640Y149657D03*
X293542Y201650D03*
X307380Y259022D03*
X242607Y330878D03*
X328970Y307537D03*
X303649Y280058D03*
X328970Y305337D03*
X301449Y280058D03*
X261948Y295535D03*
X297790Y277810D03*
X299990D03*
X264148Y295535D03*
X309960Y342519D03*
X319786Y267489D03*
Y269689D03*
X320007Y309389D03*
Y307189D03*
X344403Y267746D03*
X308803Y335587D03*
X305669Y334046D03*
X325877Y334810D03*
X337674Y318179D03*
X308649Y340314D03*
X245534Y294836D03*
X337674Y320379D03*
X291818Y265474D03*
X267411Y292185D03*
X283405Y288556D03*
X300362Y333726D03*
X237572Y323095D03*
X252002Y347844D03*
X301163Y355324D03*
X248098Y316585D03*
X240203Y264264D03*
X242156Y266062D03*
X299399Y357480D03*
X238070Y327667D03*
X239772Y313201D03*
X342450Y274734D03*
X343214Y303448D03*
X265800Y275755D03*
X297948Y361058D03*
G54D30*
G01X-183757Y-112707D02*
X381593D01*
G01X381743Y-73471D02*
Y-152707D01*
X-183757D01*
G01Y-73376D02*
Y-152707D01*
G01Y-132707D02*
X381743D01*
Y-132557D01*
G01X-183757Y-92707D02*
X381693D01*
G01X-183757Y-73507D02*
X381743D01*
G01X70034Y259776D02*
X75947Y265689D01*
Y271707D01*
G01X210734Y148276D02*
X212878Y150419D01*
Y160499D01*
X213034Y160655D01*
Y173554D01*
X214578Y175099D01*
G01X139934Y283476D02*
Y283876D01*
X141434Y285376D01*
X148334D01*
X150034Y283676D01*
Y282576D01*
X156834Y275776D01*
Y272376D01*
G54D21*
G01X198806Y210595D02*
Y210540D01*
X198711Y210444D01*
Y210240D01*
X198696Y210225D01*
Y207177D01*
G01X197856Y210595D02*
Y207177D01*
G01X207195Y210361D02*
X207210Y210346D01*
Y206222D01*
X206262Y205274D01*
X203635D01*
X202738Y204377D01*
G01X208050Y210595D02*
Y205874D01*
X206610Y204434D01*
X203983D01*
X203332Y203783D01*
G54D12*
X31663Y106661D03*
X32636Y111837D03*
X31330Y114598D03*
X81480Y50693D03*
X81043Y47250D03*
X100839Y256158D03*
X67426Y252063D03*
X61092Y241610D03*
X75920Y250721D03*
X67495Y256990D03*
X89834Y218476D03*
X88134D03*
Y216876D03*
Y215276D03*
X89734D03*
Y216876D03*
X107254Y261276D03*
X46401Y219353D03*
X85034Y261376D03*
X114152Y213651D03*
X111571Y226874D03*
X17514Y156608D03*
X96330Y210983D03*
X90984Y212639D03*
X114334Y200676D03*
X112134Y200526D03*
X106834Y255676D03*
X109059Y212861D03*
X70034Y259776D03*
X63434Y224276D03*
X105244Y210490D03*
X53569Y175330D03*
X8020Y183944D03*
X88769Y291190D03*
X59509Y306184D03*
X34334Y330396D03*
X75768Y276134D03*
X92034Y270676D03*
X75947Y271707D03*
X216191Y9073D03*
X216068Y17073D03*
X222571Y9077D03*
X207120Y127478D03*
X177142Y61824D03*
X233365Y116157D03*
X216068Y33073D03*
X186134Y139776D03*
X195520Y139625D03*
X192534Y139676D03*
X198334Y139276D03*
X210934Y139576D03*
X203220Y127204D03*
X164542Y52374D03*
X225825Y129217D03*
X199334Y127676D03*
X214623Y113479D03*
X164542Y49224D03*
X207120Y133079D03*
X164542Y55524D03*
X233444Y112279D03*
X173992Y49224D03*
X189741Y39774D03*
X217425Y133117D03*
X177142Y49224D03*
X189741Y42923D03*
X228624Y137017D03*
X217425D03*
X207120Y130278D03*
X186592Y55524D03*
X220624Y133117D03*
X153460Y91641D03*
X191898Y127155D03*
X230224Y115623D03*
X216068Y25073D03*
X214624Y127478D03*
X170842Y55524D03*
X230224Y112823D03*
X220225Y137024D03*
X230224Y110023D03*
X222568Y29073D03*
X155675Y91641D03*
X192031Y124973D03*
X226323Y119079D03*
X222568Y33073D03*
X214623Y110679D03*
X192892Y49224D03*
X222568Y45073D03*
X226323Y113479D03*
X214623Y116279D03*
X177142Y55524D03*
X211034Y133576D03*
X225825Y137024D03*
X218323Y130279D03*
X225825Y133117D03*
X226324Y121879D03*
X216068Y29073D03*
X214623Y119079D03*
X183442Y55524D03*
X222568Y25073D03*
X222424Y127479D03*
X202827Y130304D03*
X173992Y64974D03*
X225825Y125317D03*
X214624Y124679D03*
X170842Y52374D03*
X199102Y125017D03*
X124232Y162687D03*
X226434Y186676D03*
X157354Y160142D03*
X171122Y152201D03*
X162722Y159945D03*
X168322Y152201D03*
X165709Y159889D03*
X180081Y151564D03*
X176834Y152176D03*
X192434Y166576D03*
X183334Y169476D03*
X189234Y175176D03*
X180081Y175445D03*
X207873Y163504D03*
X192334Y169676D03*
X202134Y158076D03*
X192334Y145776D03*
X157350Y220456D03*
X168665Y193037D03*
X159600Y220430D03*
X168665Y195837D03*
X172634Y181076D03*
X176465Y187437D03*
X172734Y183576D03*
X176478Y189724D03*
X191768Y198637D03*
Y201437D03*
X183847Y198593D03*
X218434Y181776D03*
X167618Y210720D03*
X176264Y201646D03*
X176434Y198876D03*
X176400Y192180D03*
X176426Y194275D03*
X167618Y208613D03*
X222978Y178998D03*
X225778Y178999D03*
X162634Y144276D03*
X165263Y144491D03*
X173350Y220456D03*
X172634Y195976D03*
X165350Y220456D03*
X168767Y201372D03*
X170864Y178999D03*
X175600Y220430D03*
X176434Y196476D03*
X234534Y186676D03*
X139664Y160907D03*
X170864Y175099D03*
X157234Y186676D03*
X154234Y182676D03*
X156634Y179176D03*
X165559Y186657D03*
X167600Y220430D03*
X168767Y198472D03*
X234177Y159795D03*
X131449Y262775D03*
X134269Y263105D03*
X133082Y261206D03*
X135478Y261079D03*
X116334Y250076D03*
X220134Y159676D03*
X231378Y167595D03*
X234178D03*
X225442Y159941D03*
X116334Y256876D03*
X230734Y175176D03*
X226334Y183076D03*
X234130Y190699D03*
X220178Y178998D03*
X210734Y148276D03*
X214578Y175099D03*
X173922Y152201D03*
X234134Y183006D03*
X220266Y167502D03*
X155492Y237949D03*
X197879Y236492D03*
X191150Y236492D03*
X159621Y182528D03*
X148434Y317476D03*
X145834Y266205D03*
X156834Y272376D03*
X139934Y283476D03*
X196689Y358316D03*
X149334Y325176D03*
X133034Y330476D03*
X225632Y297280D03*
X188193Y353735D03*
X139991Y350065D03*
X136934Y283376D03*
X232973Y314348D03*
X245556Y42793D03*
X235328Y110090D03*
X252043Y52374D03*
X248892Y39775D03*
X261493Y49224D03*
X252043Y55524D03*
X248892Y42924D03*
X264643Y49224D03*
X264642Y55524D03*
X252043Y49224D03*
X255193Y58673D03*
X274092Y55524D03*
X280393D03*
X270943D03*
X258342D03*
Y52374D03*
X261493Y55524D03*
X341689Y232925D03*
X251257Y203150D03*
X236930Y190699D03*
X330635Y215208D03*
Y217519D03*
X331174Y262704D03*
X331093Y260705D03*
X307013Y225051D03*
Y227361D03*
Y236862D03*
Y239172D03*
X260708Y161493D03*
X318049Y260650D03*
X307647Y262628D03*
X318281Y202740D03*
X341903Y242111D03*
X306954Y255914D03*
X318683Y209644D03*
Y207334D03*
X256050Y150915D03*
X341689Y235235D03*
X257534Y178776D03*
X265861Y171044D03*
X264972Y205298D03*
X305144Y208472D03*
X255034Y178676D03*
X251460Y206976D03*
X341833Y244570D03*
X253256Y170973D03*
X296901Y260224D03*
X294635Y251772D03*
X321162Y237032D03*
X318683Y276232D03*
X267187Y333391D03*
X318683Y290224D03*
X318683Y288043D03*
X243509Y291990D03*
X250942Y267901D03*
X329296Y278080D03*
X343470Y299140D03*
X257536Y349032D03*
X235646Y332826D03*
X235964Y268858D03*
X241301Y318328D03*
X262072Y348514D03*
X318683Y278542D03*
X331273Y278382D03*
X342765Y313138D03*
X251258Y298660D03*
X318041Y264636D03*
X253238Y292577D03*
X246425Y268058D03*
X248425D03*
G54D31*
G01X8986Y277624D02*
Y249524D01*
X14609Y243901D01*
X33313D01*
X35780Y241434D01*
Y233110D01*
X46365Y222525D01*
X57354D01*
X64350Y215529D01*
Y185116D01*
X68975Y180491D01*
X90446D01*
X102797Y168140D01*
Y165538D01*
G01X23934Y337376D02*
X25100D01*
X26947Y335528D01*
X32118D01*
X36256Y339665D01*
X51151D01*
X56322Y344837D01*
X138051D01*
X144827Y351613D01*
X158025D01*
X164362Y345276D01*
X181710D01*
X186858Y350423D01*
Y352399D01*
X188193Y353735D01*
G54D22*
G01X226434Y186676D02*
X227859Y185250D01*
X234913D01*
X236938Y183225D01*
X239894D01*
X242935Y186266D01*
G01X226334Y183076D02*
X227759Y184500D01*
X234602D01*
X236628Y182475D01*
X240237D01*
X243465Y185734D01*
X243465Y185736D01*
G54D13*
G01X85034Y261376D02*
Y259226D01*
X79852Y254043D01*
Y249287D01*
X83904Y245234D01*
Y236076D01*
X86804Y233176D01*
X96634D01*
X101238Y237779D01*
Y242050D01*
X79331Y239613D03*
Y241582D03*
X93600Y247978D03*
X103937Y243550D03*
X79331Y225833D03*
X89663Y223372D03*
X99503D03*
X93599D03*
G54D32*
G01X101238Y242050D02*
X102738Y243550D01*
X103937D01*
G54D23*
G01X235328Y110090D02*
X236632Y108786D01*
X237568Y107850D01*
Y27073D01*
X235568Y25073D01*
X233694D01*
X231568Y22947D01*
Y20573D01*
X226068Y15073D01*
X221511D01*
X217412Y10974D01*
Y10294D01*
X216191Y9073D01*
G01X216068Y17073D02*
X215218Y17073D01*
X214568Y16423D01*
Y15248D01*
X215133Y14683D01*
X218948D01*
X219568Y15303D01*
Y18423D01*
X220218Y19073D01*
X223068D01*
X224568Y17573D01*
X226068D01*
X230068Y21573D01*
Y25073D01*
X231568Y26573D01*
X234517D01*
X236118Y28174D01*
Y30472D01*
X235093Y31497D01*
Y32422D01*
X236118Y33447D01*
Y34372D01*
X235093Y35397D01*
Y36547D01*
X236018Y37472D01*
Y42623D01*
X235093Y43548D01*
Y45522D01*
X236118Y46547D01*
Y47472D01*
X235093Y48497D01*
Y49422D01*
X236118Y50447D01*
Y51372D01*
X235093Y52397D01*
Y53547D01*
X236018Y54472D01*
Y58017D01*
X235093Y58942D01*
Y60270D01*
X236068Y61245D01*
Y62220D01*
X235093Y63195D01*
Y64170D01*
X236068Y65145D01*
Y66120D01*
X235093Y67095D01*
Y68547D01*
X236018Y69472D01*
Y98623D01*
X234093Y100548D01*
Y103944D01*
X235956Y105808D01*
Y106685D01*
X233445Y109196D01*
Y112279D01*
X233444Y112279D01*
G01X216068Y25073D02*
X215046Y24051D01*
X214458Y23463D01*
Y20406D01*
X215401Y19463D01*
X216735D01*
X216823Y19551D01*
X217546D01*
X220578Y22583D01*
X221801D01*
X221901Y22683D01*
X223235D01*
X223335Y22583D01*
X223558D01*
X224568Y21573D01*
X227068D01*
X228568Y23073D01*
Y26230D01*
X233568Y31230D01*
Y32416D01*
X232043Y33941D01*
Y35548D01*
X234568Y38073D01*
Y41416D01*
X232043Y43941D01*
Y45205D01*
X233568Y46730D01*
Y49416D01*
X232043Y50941D01*
Y52548D01*
X234568Y55073D01*
Y57416D01*
X232043Y59941D01*
Y61205D01*
X233568Y62730D01*
Y64416D01*
X232043Y65941D01*
Y67548D01*
X234568Y70073D01*
Y97573D01*
X230841Y101299D01*
Y102847D01*
X232568Y104573D01*
Y108073D01*
X231624Y109017D01*
G01X222571Y9077D02*
X224142Y10648D01*
X224143D01*
X239068Y25573D01*
Y108636D01*
X235568Y112136D01*
G01X192313Y16792D02*
Y14956D01*
X192933Y14336D01*
X199248D01*
X206197Y7387D01*
X247891D01*
X255462Y14959D01*
G01X217048Y101788D02*
Y83554D01*
X215672Y82178D01*
X215651D01*
X213315Y79842D01*
Y61477D01*
X208543Y56705D01*
Y30205D01*
X195130Y16792D01*
X192313D01*
G01X227568Y108883D02*
Y103653D01*
X227678Y103543D01*
Y99463D01*
X231568Y95573D01*
Y94572D01*
X230997Y94001D01*
X229639D01*
X229068Y93430D01*
Y92622D01*
X229639Y92051D01*
X230997D01*
X231568Y91480D01*
Y90672D01*
X230997Y90101D01*
X229639D01*
X229068Y89530D01*
Y88722D01*
X229639Y88151D01*
X230997D01*
X231568Y87580D01*
Y86772D01*
X230997Y86201D01*
X229639D01*
X229068Y85630D01*
Y84822D01*
X229639Y84251D01*
X230997D01*
X231568Y83680D01*
Y82872D01*
X230997Y82301D01*
X229639D01*
X229068Y81730D01*
Y80922D01*
X229639Y80351D01*
X230997D01*
X231568Y79780D01*
Y78972D01*
X230997Y78401D01*
X229639D01*
X229068Y77830D01*
Y77022D01*
X229639Y76451D01*
X230997D01*
X231568Y75880D01*
Y75073D01*
X231068Y74573D01*
X229568D01*
X229068Y74073D01*
Y73154D01*
X230478Y71744D01*
Y70483D01*
X229068Y69073D01*
Y32573D01*
X227568Y31073D01*
X218068D01*
X217560Y31581D01*
X217559D01*
X216068Y33073D01*
G01X173992Y49224D02*
X175188Y48029D01*
X175618Y47599D01*
X179042D01*
X181068Y45573D01*
Y43503D01*
X183222Y41349D01*
X188166D01*
X189741Y39774D01*
G01Y42923D02*
X191418Y44600D01*
Y46485D01*
X189886Y48016D01*
X185683D01*
X185002Y47335D01*
X182306D01*
X180417Y49224D01*
X177142D01*
G01X230224Y110023D02*
X229068Y108867D01*
Y107573D01*
X229568Y107073D01*
X230568D01*
X231068Y106573D01*
Y105073D01*
X229068Y103073D01*
Y100573D01*
X233118Y96523D01*
Y70674D01*
X230593Y68149D01*
Y65340D01*
X231901Y64032D01*
Y63113D01*
X230593Y61805D01*
Y58223D01*
X231243Y57573D01*
X232360D01*
X233118Y56816D01*
Y55674D01*
X232542Y55098D01*
X231243D01*
X230593Y54448D01*
Y50119D01*
X232068Y48644D01*
Y47502D01*
X230593Y46027D01*
Y41723D01*
X231243Y41073D01*
X232568D01*
X233118Y40523D01*
Y38674D01*
X232542Y38098D01*
X231243D01*
X230593Y37448D01*
Y33341D01*
X231568Y32366D01*
Y31280D01*
X229861Y29573D01*
X226427D01*
X225777Y28923D01*
Y27863D01*
X227068Y26573D01*
Y23674D01*
X226467Y23073D01*
X225218D01*
X224568Y23723D01*
Y26073D01*
X223568Y27073D01*
X218718D01*
X218068Y27723D01*
Y28923D01*
X218718Y29573D01*
X222068D01*
X222568Y29073D01*
G01Y33073D02*
X221093Y34548D01*
X220568Y35073D01*
Y64873D01*
X222646Y66951D01*
X225497D01*
X226068Y67522D01*
Y68330D01*
X225497Y68901D01*
X223639D01*
X223068Y69472D01*
Y70280D01*
X223639Y70851D01*
X225497D01*
X226068Y71422D01*
Y72230D01*
X225497Y72801D01*
X223639D01*
X223068Y73372D01*
Y74180D01*
X223639Y74751D01*
X225497D01*
X226068Y75322D01*
Y76130D01*
X225497Y76701D01*
X223639D01*
X223068Y77272D01*
Y78080D01*
X223639Y78651D01*
X225497D01*
X226068Y79222D01*
Y80030D01*
X225497Y80601D01*
X223639D01*
X223068Y81172D01*
Y81980D01*
X223639Y82551D01*
X225497D01*
X226068Y83122D01*
Y83930D01*
X225497Y84501D01*
X223639D01*
X223068Y85072D01*
Y85880D01*
X223639Y86451D01*
X225497D01*
X226068Y87022D01*
Y87830D01*
X225497Y88401D01*
X223639D01*
X223068Y88972D01*
Y89780D01*
X223639Y90351D01*
X225497D01*
X226068Y90922D01*
Y91730D01*
X225497Y92301D01*
X223639D01*
X223068Y92872D01*
Y93680D01*
X223639Y94251D01*
X225497D01*
X226068Y94822D01*
Y95923D01*
X223068Y98923D01*
Y109073D01*
X223708Y109714D01*
G01X224839Y108844D02*
X224568Y108573D01*
Y100073D01*
X227568Y97073D01*
Y64557D01*
X226997Y63986D01*
X223139D01*
X222568Y63414D01*
Y62607D01*
X223139Y62036D01*
X226997D01*
X227568Y61464D01*
Y60545D01*
X226997Y59974D01*
X223139D01*
X222568Y59403D01*
Y58595D01*
X223139Y58024D01*
X226997D01*
X227568Y57453D01*
Y56645D01*
X226997Y56074D01*
X225139D01*
X224568Y55503D01*
Y54695D01*
X225139Y54124D01*
X226997D01*
X227568Y53553D01*
Y52745D01*
X226997Y52174D01*
X225139D01*
X224568Y51603D01*
Y50795D01*
X225139Y50224D01*
X226997D01*
X227568Y49653D01*
Y48845D01*
X226997Y48274D01*
X225139D01*
X224568Y47703D01*
Y46895D01*
X225139Y46324D01*
X226997D01*
X227568Y45753D01*
Y33723D01*
X226918Y33073D01*
X225218D01*
X224568Y33723D01*
Y43073D01*
X222568Y45073D01*
G01X216068Y29073D02*
X213568Y29073D01*
X212568Y30073D01*
Y34423D01*
X213218Y35073D01*
X217918D01*
X218568Y35723D01*
Y38423D01*
X217918Y39073D01*
X213218D01*
X212568Y39723D01*
Y42423D01*
X213218Y43073D01*
X217918D01*
X218568Y43723D01*
Y46423D01*
X217918Y47073D01*
X213218D01*
X212568Y47723D01*
Y50423D01*
X213218Y51073D01*
X217568D01*
X218568Y52073D01*
Y68073D01*
X221568Y71073D01*
Y109073D01*
X221074Y109567D01*
G01X222568Y25073D02*
X219546D01*
X218568Y25073D01*
X216568Y27073D01*
X212138D01*
X210568Y28643D01*
Y51073D01*
X215461Y55966D01*
Y56176D01*
X217308Y58024D01*
Y70183D01*
X219873Y72748D01*
Y73556D01*
X219302Y74127D01*
X217139D01*
X216568Y74698D01*
Y75506D01*
X217139Y76077D01*
X219302D01*
X219873Y76648D01*
Y77456D01*
X219302Y78027D01*
X217139D01*
X216568Y78598D01*
Y79406D01*
X219873Y82711D01*
Y108573D01*
G01X279843Y37658D02*
X279210Y38291D01*
X258882D01*
X257700Y37109D01*
X247937D01*
X245556Y39489D01*
Y42793D01*
G01X248892Y39775D02*
X247683Y40984D01*
X247282Y41385D01*
Y43591D01*
X248226Y44534D01*
X248318D01*
X249857Y46073D01*
X254568D01*
X257719Y49224D01*
X261493D01*
G01X264643D02*
Y48898D01*
X263318Y47573D01*
X259718D01*
X259068Y46923D01*
Y45151D01*
X258448Y44531D01*
X250500D01*
X248892Y42924D01*
G54D14*
X177930Y383446D03*
X179318Y372424D03*
X175618Y372527D03*
X173820Y383421D03*
X181887D03*
X182760Y372836D03*
G54D24*
G01X170842Y55524D02*
X171438Y56119D01*
Y57758D01*
X172708Y59028D01*
X180322D01*
X182421Y61127D01*
X182650D01*
X187224Y65701D01*
X187230D01*
X187430Y65901D01*
X192298D01*
X192568Y66171D01*
Y67916D01*
X194224Y69573D01*
X196598D01*
X197048Y70023D01*
Y71092D01*
X191280Y76861D01*
Y78285D01*
X192442Y79448D01*
X193866D01*
X195586Y77728D01*
X196222D01*
X196894Y78399D01*
Y79145D01*
X195283Y80756D01*
Y82288D01*
X196367Y83372D01*
X197900D01*
X199510Y81761D01*
X200256D01*
X200783Y82288D01*
Y83034D01*
X199172Y84645D01*
Y86178D01*
X200256Y87261D01*
X201789D01*
X203400Y85650D01*
X204173D01*
X205179Y86656D01*
Y102174D01*
X205259Y102254D01*
Y104623D01*
X208601Y107965D01*
Y119999D01*
X213123Y124521D01*
Y126366D01*
X214235Y127478D01*
X214624D01*
G01X258342Y55524D02*
X258375D01*
X258828Y55977D01*
Y56613D01*
X258468Y56973D01*
X257318D01*
X257068Y57223D01*
Y57873D01*
X257368Y58173D01*
X258468D01*
X258768Y58473D01*
Y59073D01*
X258450Y59391D01*
X257350D01*
X257031Y59709D01*
Y60346D01*
X257359Y60673D01*
X258518D01*
X258943Y61098D01*
Y64438D01*
X261490Y66985D01*
X263480D01*
X266068Y69573D01*
Y92868D01*
X265541Y93396D01*
X263652D01*
X262568Y94479D01*
Y96012D01*
X263652Y97096D01*
X265541D01*
X266068Y97623D01*
Y98368D01*
X265541Y98896D01*
X263652D01*
X262568Y99979D01*
Y101512D01*
X263652Y102596D01*
X265541D01*
X266068Y103123D01*
Y103868D01*
X265541Y104396D01*
X263652D01*
X262568Y105479D01*
Y107012D01*
X263652Y108095D01*
X265541D01*
X266068Y108623D01*
Y109368D01*
X265541Y109895D01*
X263652D01*
X262568Y110979D01*
Y112512D01*
X263652Y113596D01*
X265541D01*
X266068Y114123D01*
Y117159D01*
X253154Y130073D01*
X242068D01*
X237568Y134573D01*
X226295D01*
X225650Y133929D01*
Y133292D01*
X225825Y133117D01*
G01X258342Y52374D02*
X258343D01*
X259873Y53904D01*
Y64053D01*
X261875Y66055D01*
X263893D01*
X267018Y69180D01*
Y93262D01*
X265934Y94346D01*
X264045D01*
X263518Y94873D01*
Y95618D01*
X264045Y96146D01*
X265934D01*
X267018Y97229D01*
Y98762D01*
X265934Y99846D01*
X264045D01*
X263518Y100373D01*
Y101118D01*
X264045Y101646D01*
X265934D01*
X267018Y102729D01*
Y104262D01*
X265934Y105346D01*
X264045D01*
X263518Y105873D01*
Y106618D01*
X264045Y107146D01*
X265934D01*
X267018Y108229D01*
Y109762D01*
X265934Y110846D01*
X264045D01*
X263518Y111373D01*
Y112118D01*
X264045Y112646D01*
X265934D01*
X267018Y113729D01*
Y117553D01*
X253547Y131023D01*
X252760D01*
X242618Y131023D01*
X238118Y135523D01*
X225830D01*
X224930Y134622D01*
X223424Y133117D01*
G01X170842Y52374D02*
X172368Y53899D01*
Y57373D01*
X173093Y58098D01*
X180707D01*
X182806Y60197D01*
X183036D01*
X187609Y64771D01*
X187616D01*
X187816Y64971D01*
X192712D01*
X193518Y65778D01*
Y67523D01*
X194618Y68623D01*
X196992D01*
X197998Y69630D01*
Y71486D01*
X192230Y77255D01*
Y77891D01*
X192836Y78498D01*
X193472D01*
X195192Y76778D01*
X196616D01*
X197844Y78006D01*
Y79538D01*
X196233Y81149D01*
Y81895D01*
X196760Y82422D01*
X197506D01*
X199117Y80811D01*
X200650D01*
X201733Y81895D01*
Y83428D01*
X200122Y85038D01*
Y85784D01*
X200650Y86311D01*
X201395D01*
X203006Y84700D01*
X204539D01*
X206109Y86270D01*
Y104270D01*
X209577Y107739D01*
Y119632D01*
X214624Y124679D01*
G54D15*
X339324Y325615D03*
X309994D03*
G54D25*
G01X153464Y138406D02*
Y138377D01*
X151762Y136674D01*
Y129354D01*
X149408Y127000D01*
X144627D01*
G01X183630Y123065D02*
X175037D01*
X155933Y103961D01*
X147384D01*
G01X157601Y102495D02*
X157661Y102556D01*
X157844D01*
X176874Y121585D01*
X184429D01*
X189125Y126281D01*
X189432D01*
X189771Y126301D01*
X190449Y127067D01*
X191898Y127155D01*
G01X158308Y101788D02*
X158368Y101848D01*
X158368Y102032D01*
X177181Y120845D01*
X184736D01*
X189430Y125539D01*
X189816Y125562D01*
X190582Y124884D01*
X192031Y124973D01*
G01X242935Y186266D02*
X245227Y188558D01*
Y188867D01*
G01X168665Y193037D02*
X167634Y194067D01*
X166988D01*
X166184Y194870D01*
Y196851D01*
X164474Y198560D01*
X162068D01*
X157872Y202757D01*
G01X168665Y195837D02*
X167634Y194807D01*
X167294D01*
X166924Y195177D01*
Y197157D01*
X164781Y199300D01*
X162375D01*
X158872Y202804D01*
Y203056D01*
G01X172634Y181076D02*
X171647Y182062D01*
X162907D01*
X160232Y179387D01*
Y174770D01*
X158338Y172876D01*
X145915D01*
X144627Y174164D01*
G01X172734Y183576D02*
X171961Y182802D01*
X162601D01*
X159492Y179694D01*
Y175076D01*
X158032Y173616D01*
X146349D01*
X144942Y175023D01*
G01X191768Y198637D02*
X192798Y199667D01*
X195510D01*
X201294Y205452D01*
Y210380D01*
X201424Y210510D01*
Y210595D01*
G01X191768Y201437D02*
X192798Y200407D01*
X195203D01*
X200554Y205758D01*
Y210380D01*
X200424Y210510D01*
Y210595D01*
G01X183847Y198593D02*
Y198376D01*
X184644Y197579D01*
X185083D01*
X185518Y198014D01*
Y202404D01*
X192980Y209867D01*
X194519D01*
X195088Y210436D01*
Y210595D01*
G01X183692Y195852D02*
X184678Y196839D01*
X185389D01*
X186294Y197744D01*
Y202133D01*
X193287Y209126D01*
X194826D01*
X195829Y210130D01*
Y210161D01*
X195918Y210251D01*
Y210332D01*
X196138Y210552D01*
Y210573D01*
X196117Y210595D01*
G01X182431D02*
Y206486D01*
X180849Y204904D01*
X179751D01*
X177939Y203092D01*
Y201470D01*
X177389Y200920D01*
X176915D01*
X176334Y201502D01*
Y201575D01*
X176264Y201646D01*
G01X183431Y210595D02*
Y206439D01*
X181156Y204164D01*
X180058D01*
X178679Y202785D01*
Y201121D01*
X177738Y200180D01*
X176864D01*
X176434Y199750D01*
Y198876D01*
G01X182256Y196993D02*
X182446Y197183D01*
X182446Y197703D01*
Y201983D01*
X185565Y205101D01*
Y209920D01*
X185824Y210180D01*
Y210595D01*
G01X184824D02*
Y205408D01*
X181706Y202290D01*
Y198010D01*
X181706Y197744D01*
X181623Y197661D01*
G01X172634Y195976D02*
X173921Y197262D01*
Y210595D01*
G01X168767Y201372D02*
X169847Y200292D01*
X170187D01*
X170638Y200743D01*
Y202768D01*
X171184Y203314D01*
Y210380D01*
X171054Y210510D01*
Y210595D01*
G01X202738Y204377D02*
X202542Y204180D01*
Y204040D01*
X196230Y197728D01*
Y191676D01*
X195307Y190754D01*
X183291D01*
X178489Y185952D01*
Y178449D01*
X177435Y177396D01*
X172029D01*
X171652Y177019D01*
X170085D01*
X169802Y177302D01*
Y177937D01*
X170864Y178999D01*
G01X176434Y196476D02*
X174661Y198248D01*
Y209920D01*
X174921Y210180D01*
Y210595D01*
G01X203332Y203783D02*
X200267Y200718D01*
X200266D01*
X196970Y197421D01*
Y191370D01*
X195614Y190014D01*
X183598D01*
X179229Y185645D01*
Y178142D01*
X177742Y176655D01*
X172420D01*
X170864Y175099D01*
G01X157234Y186676D02*
X156407Y185849D01*
X152642D01*
X151017Y187473D01*
Y200061D01*
X150997Y200081D01*
Y209698D01*
X150101Y210595D01*
G01X154234Y182676D02*
X150389D01*
X149477Y183588D01*
Y199239D01*
X144627Y204089D01*
G01X165559Y186657D02*
X163130Y189086D01*
X154298D01*
X154168Y189216D01*
X152890D01*
X151758Y190348D01*
Y200368D01*
X151738Y200388D01*
Y210595D01*
G01X168767Y198472D02*
X169847Y199552D01*
X170494D01*
X171378Y200436D01*
Y202462D01*
X171924Y203007D01*
Y210380D01*
X172054Y210510D01*
Y210595D01*
G01X231378Y167595D02*
X231547D01*
X232981Y169029D01*
X241048D01*
X242392Y167685D01*
X245700D01*
X245779Y167606D01*
G01X243465Y185736D02*
X243522Y185792D01*
Y185799D01*
X243680Y185957D01*
Y185964D01*
X245534Y187818D01*
X245592D01*
X245779Y188005D01*
G01X220266Y167502D02*
X224688Y171923D01*
X235385D01*
X237250Y173788D01*
X245779D01*
G01X144627Y199137D02*
X145390Y198374D01*
X146998D01*
X148606Y196765D01*
Y177801D01*
X149485Y176923D01*
X157948D01*
X158352Y177326D01*
Y178550D01*
X158364Y178563D01*
Y181212D01*
X159621Y182469D01*
Y182528D01*
G54D16*
G01X323042Y94089D02*
X319295D01*
X317557Y92351D01*
Y75581D01*
X325903Y67235D01*
Y47372D01*
X310060Y31530D01*
Y14372D01*
X298393Y2705D01*
X110146D01*
X93976Y18874D01*
X63856D01*
X29944Y52787D01*
Y59282D01*
G01X65744Y115651D02*
X73457Y123364D01*
X93294D01*
X114142Y144212D01*
X123922D01*
X124558Y143576D01*
X130542D01*
X133676Y146709D01*
X133998D01*
X149509Y146709D01*
X152906Y150106D01*
X154121D01*
X155893Y151879D01*
Y154634D01*
X157354Y156095D01*
Y160142D01*
G01X144649Y163637D02*
Y152418D01*
X141641Y149410D01*
X130460D01*
X124245Y155624D01*
X122376D01*
X122368Y155632D01*
X83076D01*
X68556Y141113D01*
Y129076D01*
X66274Y126794D01*
G01X31663Y106661D02*
X33263D01*
X33269Y106655D01*
X39792D01*
X41647Y104800D01*
X43709D01*
X44109Y104400D01*
Y101716D01*
X44509Y101316D01*
X45309D01*
X45709Y101716D01*
Y104400D01*
X46109Y104800D01*
X46909D01*
X47309Y104400D01*
Y101716D01*
X47709Y101316D01*
X48509D01*
X48909Y101716D01*
Y104400D01*
X49309Y104800D01*
X50109D01*
X50509Y104400D01*
Y101716D01*
X50909Y101316D01*
X51709D01*
X52109Y101716D01*
Y104400D01*
X52509Y104800D01*
X53309D01*
X53709Y104400D01*
Y101716D01*
X54109Y101316D01*
X54909D01*
X55309Y101716D01*
Y104400D01*
X55709Y104800D01*
X57858D01*
X58258Y104400D01*
Y101588D01*
X58658Y101188D01*
X59458D01*
X59858Y101588D01*
Y104400D01*
X60258Y104800D01*
X61058D01*
X61458Y104400D01*
Y101588D01*
X61858Y101188D01*
X62658D01*
X63058Y101588D01*
Y104400D01*
X63458Y104800D01*
X78955D01*
X81388Y107232D01*
X91376D01*
X110326Y126183D01*
Y131499D01*
X111671Y132844D01*
X115056D01*
X116917Y130982D01*
X133764D01*
X138486Y135703D01*
X148429D01*
X151794Y139069D01*
Y139098D01*
X152772Y140076D01*
X152844D01*
X159688Y146920D01*
X171505D01*
X172452Y147867D01*
Y150871D01*
X171122Y152201D01*
G01X162722Y159945D02*
X157000Y154222D01*
Y149347D01*
X153462Y145809D01*
X134049D01*
X130915Y142676D01*
X127585D01*
X127185Y142276D01*
Y140728D01*
X126785Y140328D01*
X125985D01*
X125585Y140728D01*
Y142276D01*
X125185Y142676D01*
X124185D01*
X123557Y143304D01*
X120440D01*
X120040Y142904D01*
Y141122D01*
X119640Y140722D01*
X118840D01*
X118440Y141122D01*
Y142904D01*
X118040Y143304D01*
X114538D01*
X91721Y120487D01*
X87816D01*
X87416Y120887D01*
Y121755D01*
X87016Y122155D01*
X86216D01*
X85816Y121755D01*
Y120887D01*
X85416Y120487D01*
X84616D01*
X84216Y120887D01*
Y121755D01*
X83816Y122155D01*
X83016D01*
X82616Y121755D01*
Y120887D01*
X82216Y120487D01*
X81416D01*
X81016Y120887D01*
Y121755D01*
X80616Y122155D01*
X79816D01*
X79416Y121755D01*
Y120887D01*
X79016Y120487D01*
X78216D01*
X77816Y120887D01*
Y121755D01*
X77416Y122155D01*
X76616D01*
X76216Y121755D01*
Y120887D01*
X75816Y120487D01*
X74776D01*
X72951Y118662D01*
X72386D01*
X71997Y119051D01*
X71431D01*
X70865Y118485D01*
Y117919D01*
X71254Y117531D01*
Y116965D01*
X70688Y116399D01*
X70123D01*
X69734Y116788D01*
X69168D01*
X68603Y116222D01*
Y115657D01*
X68991Y115268D01*
Y114702D01*
X67303Y113014D01*
X65589D01*
G01X31330Y114598D02*
X34405D01*
X42666Y106336D01*
X43666D01*
X44066Y106736D01*
Y112248D01*
X44466Y112648D01*
X45266D01*
X45666Y112248D01*
Y106736D01*
X46066Y106336D01*
X47166D01*
X47566Y106736D01*
Y110270D01*
X47966Y110670D01*
X48766D01*
X49166Y110270D01*
Y106736D01*
X49566Y106336D01*
X76522D01*
X79975Y109790D01*
Y111992D01*
X80375Y112392D01*
X81175D01*
X81575Y111992D01*
Y109790D01*
X81975Y109390D01*
X82775D01*
X83175Y109790D01*
Y111992D01*
X83575Y112392D01*
X84375D01*
X84775Y111992D01*
Y109790D01*
X85175Y109390D01*
X85975D01*
X86375Y109790D01*
Y111992D01*
X86775Y112392D01*
X87575D01*
X87975Y111992D01*
Y109790D01*
X88375Y109390D01*
X90459D01*
X107893Y126824D01*
Y130339D01*
X111298Y133744D01*
X115604D01*
X117465Y131882D01*
X133050D01*
X137771Y136603D01*
X148064D01*
X161252Y149791D01*
X165912D01*
X168322Y152201D01*
G01X165709Y159889D02*
X164599Y158779D01*
X164213D01*
X159126Y153691D01*
X159084D01*
X158264Y152871D01*
Y151711D01*
X158294Y151681D01*
Y149510D01*
X153693Y144909D01*
X140724D01*
X135242Y139428D01*
X121305D01*
X120905Y139028D01*
Y137569D01*
X120505Y137169D01*
X119705D01*
X119305Y137569D01*
Y139028D01*
X118905Y139428D01*
X118105D01*
X117705Y139028D01*
Y137569D01*
X117305Y137169D01*
X116505D01*
X116105Y137569D01*
Y139028D01*
X115705Y139428D01*
X112583D01*
X91400Y118245D01*
X89421D01*
X89021Y117845D01*
Y116121D01*
X88621Y115721D01*
X87821D01*
X87421Y116121D01*
Y117845D01*
X87021Y118245D01*
X86221D01*
X85821Y117845D01*
Y116121D01*
X85421Y115721D01*
X84621D01*
X84221Y116121D01*
Y117845D01*
X83821Y118245D01*
X83021D01*
X82621Y117845D01*
Y116121D01*
X82221Y115721D01*
X81421D01*
X81021Y116121D01*
Y117845D01*
X80621Y118245D01*
X79490D01*
X77246Y116001D01*
X76680D01*
X75775Y116906D01*
X75209D01*
X74643Y116340D01*
Y115775D01*
X75549Y114869D01*
Y114304D01*
X74983Y113738D01*
X74417D01*
X73512Y114643D01*
X72946D01*
X72380Y114078D01*
X70235D01*
X68133Y111976D01*
X67397D01*
X66885Y111464D01*
Y109351D01*
X67493Y108742D01*
X68287D01*
X69190Y109645D01*
X70890D01*
G01X55154Y47591D02*
X50186D01*
X7014Y90762D01*
Y136032D01*
X2801Y140246D01*
Y286562D01*
X4948Y288709D01*
X21597D01*
X23344Y286962D01*
X36910D01*
X48924Y298976D01*
X56735D01*
X73161Y315401D01*
X96294D01*
X116540Y335647D01*
X154462D01*
X159965Y341150D01*
X197308D01*
X205527Y332930D01*
X229378D01*
X232347Y335900D01*
X247009D01*
X254288Y343179D01*
X309300D01*
X309960Y342519D01*
G01X44362Y130546D02*
X35164Y139744D01*
Y154697D01*
X30642Y159219D01*
Y170010D01*
X33068Y172436D01*
X56162D01*
X60856Y177130D01*
Y215639D01*
X58491Y218004D01*
X53820D01*
X52471Y219353D01*
X46401D01*
G01X109047Y108669D02*
X115122Y102594D01*
X135804D01*
X138482Y105272D01*
X155513D01*
X175123Y124883D01*
X179845D01*
X182217Y127255D01*
Y133507D01*
X183660Y134949D01*
X195929D01*
X197252Y133626D01*
Y129757D01*
X199334Y127676D01*
G01X162634Y144276D02*
Y141797D01*
X159243Y138406D01*
X153464D01*
G01X144627Y127000D02*
X143421D01*
X142131Y125710D01*
X116935D01*
X113625Y129020D01*
Y131167D01*
X113548Y131244D01*
G01X9241Y141692D02*
X10443Y140490D01*
Y92290D01*
X13561Y89172D01*
X55120D01*
X77740Y66552D01*
Y37907D01*
X80891Y34757D01*
X108966D01*
X123878Y19844D01*
X137181D01*
X149639Y7388D01*
X204112D01*
X205454Y6046D01*
X296189D01*
X304290Y14148D01*
Y86611D01*
X287067Y103834D01*
Y118351D01*
X284033Y121385D01*
Y126086D01*
X285147Y127200D01*
X288382D01*
X294211Y121372D01*
X303780D01*
X311918Y129510D01*
Y159817D01*
X311918Y164992D01*
X310097Y166813D01*
X284885D01*
X274696Y156625D01*
X269394D01*
X264526Y161493D01*
X260708D01*
G01X130546Y207431D02*
X131111Y206866D01*
Y192940D01*
X127308Y189138D01*
Y181224D01*
X131070Y177462D01*
Y163666D01*
X127816Y160412D01*
X122271D01*
X120814Y158955D01*
Y157002D01*
X120345Y156532D01*
X81818D01*
X52935Y127649D01*
X42109D01*
X28584Y141175D01*
G01X54844Y49870D02*
X49346D01*
X8032Y91184D01*
Y136403D01*
X3818Y140616D01*
Y284496D01*
X6490Y287168D01*
X21866D01*
X22972Y286062D01*
X37449D01*
X49345Y297958D01*
X57156D01*
X73582Y314384D01*
X96715D01*
X116961Y334630D01*
X154884D01*
X160392Y340139D01*
X196935D01*
X205195Y331879D01*
X229599D01*
X232704Y334984D01*
X247487D01*
X254694Y342191D01*
X306773D01*
X308649Y340314D01*
G01X199102Y125017D02*
X196766D01*
X192968Y128816D01*
X188483D01*
X188449Y128850D01*
X186869D01*
X186019Y127999D01*
Y127579D01*
X186019Y125453D01*
X183630Y123065D01*
G01X147384Y103961D02*
X138444D01*
X136177Y101694D01*
X112592D01*
X105900Y95002D01*
X79945D01*
X78086Y96862D01*
X64685D01*
X62632Y94809D01*
X24652D01*
X19273Y100188D01*
Y143629D01*
X17928Y144974D01*
G01X102911Y69478D02*
X111343D01*
X113520Y67301D01*
X125756D01*
X132498Y74042D01*
Y74304D01*
X144400Y86207D01*
Y101388D01*
X145203Y102191D01*
X150393D01*
G01X99072Y67766D02*
X101062Y65777D01*
X109330D01*
X110532Y66979D01*
G01X148483Y99202D02*
Y87180D01*
X126181Y64878D01*
X112633D01*
X110532Y66979D01*
G01X51650Y118680D02*
X49994Y120336D01*
Y121680D01*
X46766Y124908D01*
X39536D01*
X22342Y142101D01*
Y153925D01*
X19660Y156608D01*
X17514D01*
G01X81480Y50693D02*
X83080D01*
X84475Y52088D01*
X90794D01*
X98668Y44214D01*
X110385D01*
G01X115191Y44067D02*
X107005Y35881D01*
X81301D01*
X78900Y38282D01*
Y46009D01*
X80141Y47250D01*
X81043D01*
G01X115805Y69666D02*
Y71366D01*
X113059Y74112D01*
X101036D01*
X96737Y69813D01*
G01X54597Y43048D02*
X56807Y45257D01*
Y50601D01*
X55175Y52233D01*
X48600D01*
X9074Y91760D01*
Y136858D01*
X5414Y140518D01*
Y195022D01*
X9488Y199096D01*
X17341D01*
X22437Y194000D01*
G01X25804Y127444D02*
X27006Y126242D01*
Y125970D01*
X28911Y124065D01*
X38821D01*
X41852Y121034D01*
X42417D01*
X43517Y122133D01*
X44082D01*
X44648Y121568D01*
Y121002D01*
X43549Y119902D01*
Y119337D01*
X44114Y118771D01*
X44680D01*
X45780Y119871D01*
X46345D01*
X46911Y119305D01*
Y118739D01*
X45812Y117640D01*
Y117074D01*
X46377Y116508D01*
X46943D01*
X48042Y117608D01*
X48608D01*
X49174Y117042D01*
Y116476D01*
X48074Y115377D01*
Y114811D01*
X48640Y114246D01*
X49206D01*
X50305Y115345D01*
X50871D01*
X51437Y114779D01*
Y114214D01*
X50337Y113114D01*
Y112548D01*
X55269Y107617D01*
X72880D01*
X79667Y114403D01*
X89671D01*
X109911Y134644D01*
X116100D01*
X117962Y132782D01*
X123927D01*
X128799Y137654D01*
X147983D01*
X160921Y150591D01*
X165496D01*
X166922Y152018D01*
Y152781D01*
X167742Y153601D01*
X172522D01*
X173922Y152201D01*
G01X47086Y135633D02*
X48113Y136660D01*
Y138254D01*
X46547Y139820D01*
X43732D01*
X39403Y144150D01*
Y152809D01*
X42442Y155848D01*
Y166329D01*
X41947Y166824D01*
X39969D01*
X39507Y166362D01*
G01X49604Y135479D02*
X49013Y136070D01*
Y138626D01*
X46920Y140720D01*
X44105D01*
X40303Y144522D01*
Y152436D01*
X43386Y155519D01*
Y166927D01*
X42358Y167954D01*
X40611D01*
X39686Y168880D01*
X39404D01*
G01X33028Y237799D02*
Y230415D01*
X41318Y222125D01*
Y213910D01*
X59535Y195692D01*
Y177649D01*
X55372Y173485D01*
X32548D01*
X29902Y170839D01*
X19935D01*
X19038Y169942D01*
Y166859D01*
X19828Y166068D01*
Y161198D01*
X25916Y155110D01*
Y140836D01*
X40502Y126250D01*
X47872D01*
X51602Y122519D01*
X65074D01*
X71006Y128452D01*
Y141768D01*
X79710Y150471D01*
X90748D01*
X94004Y153727D01*
X94010D01*
G01X104237Y137306D02*
Y144887D01*
X101073Y148051D01*
Y152712D01*
G01X67426Y252063D02*
X65501Y253986D01*
X59357D01*
X48772Y264572D01*
X35842D01*
X30567Y259297D01*
Y258986D01*
G01X75920Y250721D02*
X74789Y251852D01*
X71553Y255088D01*
X60530D01*
X49496Y266123D01*
X35325D01*
X31394Y262192D01*
X30154D01*
G01X128738Y194598D02*
X118281Y184142D01*
X111678D01*
X107926Y187893D01*
Y193134D01*
X93950Y207111D01*
X89839D01*
X76899Y220051D01*
Y235258D01*
X74831Y237326D01*
X72042D01*
X51492Y257876D01*
X38202D01*
G01X28323Y187558D02*
X27616Y188264D01*
Y193002D01*
X39592Y204978D01*
Y222127D01*
X31680Y230039D01*
Y236244D01*
X29841Y238084D01*
G01X107254Y261276D02*
X103917Y264613D01*
Y274321D01*
X97545Y280693D01*
X90454D01*
X82254Y288892D01*
X49114D01*
X28278Y268056D01*
Y252519D01*
X35090Y245707D01*
X35200D01*
X38385Y242521D01*
Y239881D01*
G01X325877Y334810D02*
X317113D01*
X313781Y331478D01*
X278233D01*
X271785Y337926D01*
X267854D01*
X266304Y339476D01*
X261962D01*
X245956Y323470D01*
X245904D01*
X244216Y321781D01*
Y319268D01*
X243795Y318848D01*
Y312530D01*
X236910Y305645D01*
X207597D01*
X198024Y296072D01*
X197624Y295672D01*
X169948D01*
X164153Y289878D01*
Y271281D01*
X155284Y262412D01*
X138674D01*
X136175Y264911D01*
X128091D01*
X125151Y267851D01*
X121868D01*
X114959Y260942D01*
Y258640D01*
X107536Y251216D01*
Y247002D01*
X114152Y240386D01*
Y213651D01*
G01X169561Y296608D02*
X170388Y297435D01*
X191437D01*
G01X130546Y207431D02*
X126318D01*
X120063Y201176D01*
Y192786D01*
X118313Y191036D01*
X113030D01*
X94935Y209130D01*
X90591D01*
X79331Y220391D01*
Y225833D01*
G01X18583Y172391D02*
Y175755D01*
X22366Y179538D01*
X25330D01*
X26276Y180484D01*
Y202129D01*
X30097Y205950D01*
G01X90984Y212639D02*
X92116Y213770D01*
Y219369D01*
X89663Y221822D01*
Y223372D01*
G01X63434Y224276D02*
X77813Y209896D01*
Y201275D01*
X112561Y166528D01*
X117676D01*
X121982Y162221D01*
G01X43146Y147309D02*
X47771D01*
X50443Y149982D01*
G01X61234Y148491D02*
X51934D01*
X50443Y149982D01*
G01X105244Y210490D02*
X107235Y208499D01*
X110610D01*
X112166Y210054D01*
X117297D01*
X117697Y210454D01*
Y227049D01*
X118526Y227878D01*
Y242360D01*
X117490Y243396D01*
Y243552D01*
G01X86580Y146945D02*
X94007D01*
X97120Y150058D01*
Y153581D01*
X98263Y154724D01*
X123872D01*
X130087Y148510D01*
X142353D01*
X146471Y152628D01*
X147348D01*
X154247Y159527D01*
Y159711D01*
G01X49094Y256159D02*
X50443D01*
X61059Y245544D01*
X61256D01*
X69057Y237743D01*
Y233397D01*
X71394Y231060D01*
Y223653D01*
X72305Y222743D01*
X73783D01*
G01X29186Y183528D02*
Y180060D01*
X33915Y175330D01*
X53569D01*
G01X18300Y185292D02*
X19002Y185994D01*
X23872D01*
X25041Y187163D01*
Y224994D01*
X21296Y228739D01*
Y233185D01*
X18725Y235756D01*
Y238186D01*
G01X22943Y189624D02*
X12020D01*
X11250Y188855D01*
Y187086D01*
X8109Y183944D01*
X8020D01*
G01X156366Y305170D02*
Y302945D01*
X155117Y301696D01*
Y280962D01*
X160022Y276058D01*
Y271578D01*
X159298Y270854D01*
X152385D01*
X150476Y272764D01*
X142790D01*
X141753Y271727D01*
X111404D01*
X109890Y270213D01*
X109874D01*
X108278Y268616D01*
Y266608D01*
X106730Y265061D01*
G01X213470Y350067D02*
Y357275D01*
X210704Y360041D01*
X209196D01*
X202552Y366686D01*
X160660D01*
X131065Y396280D01*
X55304D01*
X51266Y392242D01*
Y385299D01*
G01X91008Y388919D02*
X91345Y389255D01*
X136482D01*
X160270Y365468D01*
X201991D01*
X205947Y361512D01*
Y354223D01*
X218190Y341980D01*
X236428D01*
X239628Y345180D01*
X256449D01*
X261479Y350210D01*
X263702D01*
X271975Y358482D01*
X296820D01*
X297948Y359610D01*
Y361058D01*
G01X231624Y109017D02*
Y110603D01*
X230804Y111423D01*
X229644D01*
X228824Y112243D01*
X228795Y112271D01*
Y114194D01*
X229092Y114491D01*
X230224Y115623D01*
G01X235568Y112136D02*
X233631Y114073D01*
X231474D01*
X230224Y112823D01*
G01X218323Y130279D02*
X216857Y128813D01*
Y118841D01*
X217048Y118649D01*
Y101788D01*
G01X177142Y61824D02*
X175937Y63030D01*
X175568Y63399D01*
Y65573D01*
X176952Y66957D01*
X177615D01*
X179952Y64620D01*
X180615D01*
X181083Y65088D01*
Y65751D01*
X178746Y68088D01*
Y68751D01*
X179215Y69220D01*
X179877D01*
X182215Y66883D01*
X182877D01*
X183346Y67351D01*
Y68014D01*
X181009Y70351D01*
Y71014D01*
X181477Y71483D01*
X182140D01*
X184477Y69145D01*
X185140D01*
X185609Y69614D01*
Y70277D01*
X183272Y72614D01*
Y73277D01*
X183740Y73745D01*
X184403D01*
X186740Y71408D01*
X187403D01*
X187872Y71877D01*
Y72540D01*
X185534Y74877D01*
Y75540D01*
X186003Y76008D01*
X186666D01*
X189003Y73671D01*
X189666D01*
X190134Y74140D01*
Y74802D01*
X187797Y77140D01*
Y77802D01*
X201895Y91900D01*
Y104400D01*
X205568Y108073D01*
Y125926D01*
X205982Y126341D01*
X207120Y127478D01*
G01X233365Y116157D02*
X232449Y117073D01*
X230783Y117073D01*
X230782Y117072D01*
X229567D01*
X227751Y115256D01*
Y110099D01*
X227568Y109915D01*
Y108883D01*
G01X164542Y52374D02*
X165569Y53401D01*
X166068Y53899D01*
Y56073D01*
X167068Y57073D01*
X168183D01*
X168283Y57173D01*
X168314D01*
X169192Y58051D01*
Y66198D01*
X171701Y68706D01*
Y69369D01*
X171114Y69956D01*
Y70619D01*
X171582Y71088D01*
X172245D01*
X173332Y70000D01*
X173995D01*
X174464Y70469D01*
Y71132D01*
X173377Y72219D01*
Y72785D01*
X173777Y73185D01*
X174342D01*
X175427Y72100D01*
X176089D01*
X176558Y72569D01*
Y73232D01*
X175639Y74150D01*
Y75144D01*
X176108Y75613D01*
X176771D01*
X177358Y75026D01*
X178021D01*
X178489Y75495D01*
Y76157D01*
X177902Y76744D01*
Y77407D01*
X178371Y77876D01*
X179033D01*
X179621Y77289D01*
X180283D01*
X180752Y77757D01*
Y78420D01*
X180165Y79007D01*
Y79670D01*
X180634Y80139D01*
X181296D01*
X181884Y79551D01*
X182546D01*
X183015Y80020D01*
Y80683D01*
X182428Y81270D01*
Y81933D01*
X182896Y82401D01*
X183559D01*
X184146Y81814D01*
X184809D01*
X185278Y82283D01*
Y82946D01*
X184690Y83533D01*
Y84196D01*
X185159Y84664D01*
X185822D01*
X186409Y84077D01*
X187072D01*
X187540Y84546D01*
Y85208D01*
X186953Y85796D01*
Y86458D01*
X187422Y86927D01*
X188084D01*
X188672Y86340D01*
X189334D01*
X192066Y89071D01*
Y89734D01*
X191479Y90321D01*
Y90984D01*
X191947Y91452D01*
X192610D01*
X193197Y90865D01*
X193860D01*
X194329Y91334D01*
Y91997D01*
X193741Y92584D01*
Y93247D01*
X194210Y93715D01*
X194873D01*
X195460Y93128D01*
X196123D01*
X196591Y93597D01*
Y94259D01*
X196004Y94847D01*
Y95509D01*
X196473Y95978D01*
X197136D01*
X197723Y95391D01*
X198386D01*
X199068Y96073D01*
Y105573D01*
X201814Y108319D01*
Y125798D01*
X203220Y127204D01*
G01X252043Y52374D02*
X250969Y53448D01*
X250568Y53849D01*
Y67471D01*
X250542Y67497D01*
Y68740D01*
X251421Y69618D01*
X251494D01*
X253068Y71192D01*
Y71855D01*
X252599Y72323D01*
X251036D01*
X250568Y72792D01*
Y73455D01*
X251036Y73923D01*
X252599D01*
X253068Y74392D01*
Y75055D01*
X252599Y75523D01*
X251036D01*
X250568Y75992D01*
Y76655D01*
X251036Y77123D01*
X252599D01*
X253068Y77592D01*
Y78255D01*
X252599Y78723D01*
X251036D01*
X250568Y79192D01*
Y79855D01*
X251036Y80323D01*
X252599D01*
X253068Y80792D01*
Y81455D01*
X252599Y81923D01*
X251036D01*
X250568Y82392D01*
Y83055D01*
X251036Y83523D01*
X252599D01*
X253068Y83992D01*
Y84655D01*
X252599Y85123D01*
X251036D01*
X250568Y85592D01*
Y86255D01*
X251036Y86723D01*
X252599D01*
X253068Y87192D01*
Y87855D01*
X252599Y88323D01*
X251036D01*
X250568Y88792D01*
Y89455D01*
X251036Y89923D01*
X252599D01*
X253068Y90392D01*
Y91055D01*
X252599Y91523D01*
X251036D01*
X250568Y91992D01*
Y92655D01*
X251036Y93123D01*
X252599D01*
X253068Y93592D01*
Y94255D01*
X252599Y94723D01*
X251036D01*
X250568Y95192D01*
Y95855D01*
X251036Y96323D01*
X252599D01*
X253068Y96792D01*
Y97455D01*
X252599Y97923D01*
X251036D01*
X250568Y98392D01*
Y99055D01*
X251036Y99523D01*
X252599D01*
X253068Y99992D01*
Y100655D01*
X252599Y101123D01*
X251036D01*
X250568Y101592D01*
Y102255D01*
X251036Y102723D01*
X252599D01*
X253068Y103192D01*
Y103855D01*
X252599Y104323D01*
X251036D01*
X250568Y104792D01*
Y105455D01*
X251036Y105923D01*
X252599D01*
X253068Y106392D01*
Y107055D01*
X252599Y107523D01*
X251036D01*
X250568Y107992D01*
Y116073D01*
X246568Y120073D01*
X241068D01*
X237568Y123573D01*
X233497D01*
X232825Y124245D01*
Y126091D01*
X232084Y126832D01*
X226610D01*
X225825Y127617D01*
Y129217D01*
G01X164542Y49224D02*
X165943D01*
X166411Y48755D01*
Y48042D01*
X166880Y47573D01*
X167543D01*
X168011Y48042D01*
Y49255D01*
X168480Y49724D01*
X169143D01*
X169611Y49255D01*
Y48042D01*
X170080Y47573D01*
X170743D01*
X171211Y48042D01*
Y49217D01*
X172866Y50871D01*
X191866D01*
X192893Y51898D01*
Y52898D01*
X193568Y53573D01*
X203068D01*
X203548Y54053D01*
Y61553D01*
X203968Y61973D01*
X209468D01*
X211194Y63699D01*
Y82699D01*
X214268Y85773D01*
Y108873D01*
X213224Y109917D01*
Y110098D01*
X213223Y110099D01*
Y111259D01*
X213224Y111259D01*
Y112079D01*
X213492Y112347D01*
Y112348D01*
X214623Y113479D01*
G01X207120Y133079D02*
X205367Y134832D01*
X201268D01*
X200868Y134432D01*
Y109374D01*
X197568Y106073D01*
Y102073D01*
X196068Y100573D01*
Y98451D01*
X189608Y91992D01*
X188824D01*
X188237Y92579D01*
X187574D01*
X187106Y92111D01*
Y91448D01*
X187693Y90861D01*
Y90319D01*
X183976Y86602D01*
X183410D01*
X182835Y87177D01*
X182172D01*
X181703Y86708D01*
Y86046D01*
X182290Y85458D01*
Y84796D01*
X181822Y84327D01*
X181159D01*
X180572Y84914D01*
X179909D01*
X179440Y84446D01*
Y83783D01*
X180028Y83196D01*
Y82533D01*
X179559Y82064D01*
X178896D01*
X178309Y82652D01*
X177646D01*
X177178Y82183D01*
Y81520D01*
X177765Y80933D01*
Y80270D01*
X177296Y79802D01*
X176634D01*
X176046Y80389D01*
X175384D01*
X174915Y79920D01*
Y79257D01*
X175502Y78670D01*
Y78007D01*
X175034Y77539D01*
X174371D01*
X173784Y78126D01*
X173121D01*
X172652Y77657D01*
Y76995D01*
X173240Y76407D01*
Y75745D01*
X172771Y75276D01*
X172108D01*
X171521Y75863D01*
X170858D01*
X170389Y75395D01*
Y73314D01*
X168671Y71596D01*
X167838D01*
X167431Y72003D01*
X166866D01*
X166300Y71437D01*
Y70871D01*
X166740Y70431D01*
Y69246D01*
X166343Y68848D01*
Y59445D01*
X166041Y59142D01*
Y58051D01*
X164543Y56553D01*
Y55524D01*
X164542Y55524D01*
G01X252043D02*
X253151Y56633D01*
X253152D01*
X253568Y57049D01*
Y65573D01*
X257568Y69573D01*
Y70704D01*
X257099Y71173D01*
X255036D01*
X254568Y71642D01*
Y72304D01*
X255036Y72773D01*
X257099D01*
X257568Y73242D01*
Y73904D01*
X257099Y74373D01*
X255036D01*
X254568Y74842D01*
Y75504D01*
X255036Y75973D01*
X257099D01*
X257568Y76442D01*
Y77104D01*
X257099Y77573D01*
X255036D01*
X254568Y78042D01*
Y78704D01*
X255036Y79173D01*
X257099D01*
X257568Y79642D01*
Y80304D01*
X257099Y80773D01*
X255036D01*
X254568Y81242D01*
Y81904D01*
X255036Y82373D01*
X257099D01*
X257568Y82842D01*
Y83504D01*
X257099Y83973D01*
X255036D01*
X254568Y84442D01*
Y85104D01*
X255036Y85573D01*
X257099D01*
X257568Y86042D01*
Y86704D01*
X257099Y87173D01*
X255036D01*
X254568Y87642D01*
Y88304D01*
X255036Y88773D01*
X257099D01*
X257568Y89242D01*
Y89904D01*
X257099Y90373D01*
X255036D01*
X254568Y90842D01*
Y91504D01*
X255036Y91973D01*
X257099D01*
X257568Y92442D01*
Y103073D01*
X254568Y106073D01*
Y114573D01*
X247568Y121573D01*
X243068D01*
X236824Y127816D01*
X236444D01*
X236444Y127817D01*
X228045D01*
X227225Y128637D01*
Y129797D01*
X226405Y130617D01*
X221097D01*
X219235Y132479D01*
X219227D01*
X218590Y133117D01*
X217425Y133117D01*
G01X264642Y55524D02*
X265774Y56655D01*
X269225Y60106D01*
Y102977D01*
X269919Y103671D01*
X272216D01*
X272568Y104023D01*
Y104520D01*
X272216Y104871D01*
X269919D01*
X269568Y105223D01*
Y105720D01*
X269919Y106071D01*
X272216D01*
X272568Y106423D01*
Y106920D01*
X272216Y107271D01*
X269919D01*
X269568Y107623D01*
Y108120D01*
X269919Y108471D01*
X272216D01*
X272568Y108823D01*
Y109320D01*
X272216Y109671D01*
X269919D01*
X269568Y110023D01*
Y110520D01*
X269919Y110871D01*
X272216D01*
X272568Y111223D01*
Y111720D01*
X272216Y112071D01*
X269919D01*
X269568Y112423D01*
Y112920D01*
X269919Y113271D01*
X272216D01*
X272568Y113623D01*
Y114573D01*
X252568Y134573D01*
X243068D01*
X239123Y138518D01*
X230125D01*
X229756Y138149D01*
X229755D01*
X228624Y137017D01*
G01X252043Y49224D02*
X250542Y47724D01*
X248270D01*
X248120Y47874D01*
X248047D01*
X244590Y51331D01*
Y52198D01*
X244568Y52220D01*
Y68494D01*
X243068Y69994D01*
Y71225D01*
X243468Y71625D01*
X244099D01*
X244568Y72094D01*
Y72756D01*
X244099Y73225D01*
X243036D01*
X242568Y73694D01*
Y74356D01*
X243036Y74825D01*
X244099D01*
X244568Y75293D01*
Y75956D01*
X244099Y76425D01*
X243036D01*
X242568Y76893D01*
Y77556D01*
X243036Y78025D01*
X244099D01*
X244568Y78494D01*
Y79156D01*
X244099Y79625D01*
X243036D01*
X242568Y80094D01*
Y80756D01*
X243036Y81225D01*
X244099D01*
X244568Y81694D01*
Y82356D01*
X244099Y82825D01*
X243036D01*
X242568Y83294D01*
Y83956D01*
X243036Y84425D01*
X244099D01*
X244568Y84894D01*
Y85556D01*
X244099Y86025D01*
X243036D01*
X242568Y86494D01*
Y87156D01*
X243036Y87625D01*
X244099D01*
X244568Y88093D01*
Y88756D01*
X244099Y89225D01*
X243036D01*
X242568Y89693D01*
Y90356D01*
X243036Y90825D01*
X244099D01*
X244568Y91294D01*
Y91956D01*
X244099Y92425D01*
X243036D01*
X242568Y92894D01*
Y93556D01*
X243036Y94025D01*
X244099D01*
X244568Y94494D01*
Y95156D01*
X244099Y95625D01*
X243036D01*
X242568Y96094D01*
Y96756D01*
X244568Y98756D01*
Y107384D01*
X230878Y121073D01*
X229568D01*
X227068Y123573D01*
X225068D01*
X224068Y124573D01*
Y128073D01*
X223068Y129073D01*
X221509D01*
X218903Y131679D01*
X216475D01*
X216025Y132129D01*
Y135617D01*
X217425Y137017D01*
G01X207120Y130278D02*
X212645D01*
X214044Y128879D01*
X215234D01*
X215886Y128227D01*
Y128196D01*
X216024Y128058D01*
Y121114D01*
X216023Y121113D01*
Y118499D01*
X215203Y117679D01*
X213674D01*
X211568Y115573D01*
Y105073D01*
X209068Y102573D01*
Y82476D01*
X208599Y82007D01*
X207536D01*
X207068Y81539D01*
Y80876D01*
X207536Y80407D01*
X208599D01*
X209068Y79939D01*
Y79276D01*
X208599Y78807D01*
X207536D01*
X207068Y78339D01*
Y77676D01*
X207536Y77207D01*
X208599D01*
X209068Y76739D01*
Y76076D01*
X208599Y75607D01*
X207536D01*
X207068Y75139D01*
Y74476D01*
X207536Y74007D01*
X208599D01*
X209068Y73539D01*
Y72876D01*
X208599Y72407D01*
X207536D01*
X207068Y71939D01*
Y71276D01*
X207536Y70807D01*
X208599D01*
X209068Y70339D01*
Y69676D01*
X208599Y69207D01*
X207536D01*
X207068Y68739D01*
Y68076D01*
X207536Y67607D01*
X208599D01*
X209068Y67139D01*
Y65573D01*
X208082Y64587D01*
X201582D01*
X200568Y63573D01*
Y57573D01*
X200068Y57073D01*
X188142D01*
X187678Y56609D01*
X186592Y55524D01*
G01X255193Y58673D02*
X255193Y63271D01*
X263068Y71146D01*
Y71892D01*
X262541Y72419D01*
X260018D01*
X259568Y72869D01*
Y73769D01*
X260018Y74219D01*
X262541D01*
X263068Y74746D01*
Y75492D01*
X262541Y76019D01*
X260095D01*
X259568Y76546D01*
Y77292D01*
X260095Y77819D01*
X262541D01*
X263068Y78346D01*
Y79092D01*
X262541Y79619D01*
X260095D01*
X259568Y80146D01*
Y80892D01*
X260095Y81419D01*
X262541D01*
X263068Y81946D01*
Y82692D01*
X262541Y83219D01*
X260095D01*
X259568Y83746D01*
Y84492D01*
X260095Y85019D01*
X262541D01*
X263068Y85546D01*
Y86292D01*
X262541Y86819D01*
X260095D01*
X259568Y87346D01*
Y88092D01*
X260095Y88619D01*
X262541D01*
X263068Y89146D01*
Y89892D01*
X259568Y93392D01*
Y119148D01*
X257643Y121073D01*
X251068D01*
X248568Y123573D01*
X245068D01*
X237024Y131617D01*
X222803D01*
X222024Y132396D01*
Y134224D01*
X223124Y135324D01*
Y137024D01*
G01X274092Y55524D02*
X275224Y56655D01*
X275648Y57079D01*
Y69389D01*
X275216Y69821D01*
X274419D01*
X274068Y70172D01*
Y70669D01*
X274419Y71021D01*
X275216D01*
X275568Y71372D01*
Y71869D01*
X275216Y72221D01*
X274419D01*
X274068Y72572D01*
Y73069D01*
X274419Y73421D01*
X275216D01*
X275568Y73772D01*
Y74269D01*
X275216Y74621D01*
X274419D01*
X274068Y74972D01*
Y75469D01*
X274419Y75821D01*
X275216D01*
X275568Y76172D01*
Y76669D01*
X275216Y77021D01*
X274419D01*
X274068Y77372D01*
Y77869D01*
X274419Y78221D01*
X275216D01*
X275568Y78572D01*
Y79069D01*
X275216Y79421D01*
X274419D01*
X274068Y79772D01*
Y80269D01*
X274419Y80621D01*
X275216D01*
X275568Y80972D01*
Y115573D01*
X253568Y137573D01*
X244068D01*
X241068Y140573D01*
X224568D01*
X222518Y138524D01*
X222503D01*
X221624Y137645D01*
Y136130D01*
X220625Y135130D01*
Y133118D01*
X220624Y133117D01*
G01X220225Y137024D02*
Y138624D01*
X223174Y141573D01*
X241556D01*
X244057Y139073D01*
X254068D01*
X277068Y116073D01*
Y71573D01*
X280393Y68248D01*
Y55524D01*
G01X223708Y109714D02*
Y109984D01*
X223824Y110100D01*
Y111260D01*
X223824Y116580D01*
X226323Y119079D01*
G01X214623Y110679D02*
X215467Y109835D01*
X215468D01*
Y84973D01*
X212298Y81803D01*
Y62803D01*
X207679Y58184D01*
X205216D01*
X204748Y57716D01*
Y57053D01*
X205216Y56584D01*
X206179D01*
X206648Y56116D01*
Y55453D01*
X206179Y54984D01*
X205216D01*
X204748Y54516D01*
Y53853D01*
X205216Y53384D01*
X206130D01*
X206530Y52984D01*
Y47042D01*
X206061Y46573D01*
X205399D01*
X204930Y47042D01*
Y49755D01*
X204461Y50224D01*
X203799D01*
X203330Y49755D01*
Y46542D01*
X202861Y46073D01*
X202199D01*
X201730Y46542D01*
Y51255D01*
X201261Y51724D01*
X200599D01*
X200130Y51255D01*
Y46542D01*
X199661Y46073D01*
X198999D01*
X198530Y46542D01*
Y49755D01*
X198061Y50224D01*
X197399D01*
X196930Y49755D01*
Y47042D01*
X196461Y46573D01*
X195799D01*
X195330Y47042D01*
Y48755D01*
X194861Y49224D01*
X192892D01*
G01X226323Y113479D02*
X225192Y112348D01*
Y112347D01*
X224839Y111994D01*
Y108844D01*
G01X214623Y116279D02*
X212424Y114080D01*
Y111590D01*
X212423Y111590D01*
Y109767D01*
X212424Y109767D01*
Y108717D01*
X213068Y108073D01*
Y100306D01*
X212599Y99838D01*
X210736D01*
X210268Y99369D01*
Y98706D01*
X210736Y98238D01*
X212599D01*
X213068Y97769D01*
Y97106D01*
X212599Y96638D01*
X210736D01*
X210268Y96169D01*
Y95506D01*
X210736Y95038D01*
X212599D01*
X213068Y94569D01*
Y93906D01*
X212599Y93438D01*
X210736D01*
X210268Y92969D01*
Y92306D01*
X210736Y91838D01*
X212599D01*
X213068Y91369D01*
Y90706D01*
X212599Y90238D01*
X210736D01*
X210268Y89769D01*
Y89106D01*
X210736Y88638D01*
X212599D01*
X213068Y88169D01*
Y86270D01*
X210268Y83470D01*
Y64773D01*
X208882Y63387D01*
X202882D01*
X202068Y62573D01*
Y55573D01*
X201568Y55073D01*
X192568D01*
X191519Y54024D01*
X177617D01*
X177143Y54498D01*
Y55524D01*
X177142Y55524D01*
G01X270943D02*
X272150Y56731D01*
X272568Y57149D01*
Y60073D01*
X274068Y61573D01*
Y65573D01*
X272568Y67073D01*
Y81821D01*
X272919Y82173D01*
X274016D01*
X274368Y82524D01*
Y83021D01*
X274016Y83373D01*
X272919D01*
X272568Y83724D01*
Y84221D01*
X272919Y84573D01*
X274016D01*
X274368Y84924D01*
Y85421D01*
X274016Y85773D01*
X272919D01*
X272568Y86124D01*
Y86621D01*
X272919Y86973D01*
X274016D01*
X274368Y87324D01*
Y87821D01*
X274016Y88173D01*
X272919D01*
X272568Y88524D01*
Y89021D01*
X272919Y89373D01*
X274016D01*
X274368Y89724D01*
Y90221D01*
X274016Y90573D01*
X272919D01*
X272568Y90924D01*
Y91421D01*
X272919Y91773D01*
X274016D01*
X274368Y92124D01*
Y92621D01*
X274016Y92973D01*
X272919D01*
X272568Y93324D01*
Y93821D01*
X272919Y94173D01*
X274016D01*
X274368Y94524D01*
Y95021D01*
X274016Y95373D01*
X272919D01*
X272568Y95724D01*
Y96221D01*
X272919Y96573D01*
X274016D01*
X274368Y96924D01*
Y97421D01*
X274016Y97773D01*
X272919D01*
X272568Y98124D01*
Y98621D01*
X272919Y98973D01*
X274016D01*
X274368Y99324D01*
Y114773D01*
X253068Y136073D01*
X243568D01*
X240068Y139573D01*
X228381D01*
X227314Y138508D01*
X227309D01*
X225825Y137024D01*
G01X199088Y121967D02*
X197886Y120765D01*
X189426D01*
X187593Y118932D01*
X183907D01*
G01X221074Y109567D02*
Y110049D01*
X221024Y110100D01*
Y119659D01*
X221074Y119709D01*
Y119958D01*
X221594Y120479D01*
X223324D01*
X224724Y121879D01*
X226324D01*
G01X214623Y119079D02*
X213074Y119079D01*
X210568Y116573D01*
Y106073D01*
X207618Y103123D01*
Y84623D01*
X205568Y82573D01*
Y79073D01*
X205068Y78573D01*
X201068D01*
X200601Y78106D01*
Y77372D01*
X201001Y76972D01*
X204948D01*
X205568Y76353D01*
Y75690D01*
X205099Y75222D01*
X200968D01*
X200568Y74822D01*
Y74022D01*
X200968Y73622D01*
X205099D01*
X205568Y73153D01*
Y72490D01*
X205099Y72022D01*
X200968D01*
X200568Y71622D01*
Y70822D01*
X200968Y70422D01*
X205099D01*
X205568Y69953D01*
Y69387D01*
X205168Y68987D01*
X200968D01*
X200568Y68587D01*
Y67973D01*
X200968Y67573D01*
X202668D01*
X203068Y67173D01*
Y66187D01*
X202668Y65787D01*
X199782D01*
X199068Y65073D01*
Y58973D01*
X198668Y58573D01*
X192068D01*
X190467Y60174D01*
X185972D01*
X185068Y59269D01*
Y59058D01*
X185068Y57149D01*
X184594Y56675D01*
X183442Y55524D01*
G01X219873Y108573D02*
Y110384D01*
X219882Y110393D01*
Y124938D01*
X220690Y125746D01*
X222424Y127479D01*
G01X173992Y64974D02*
Y65004D01*
X173250Y65746D01*
Y67484D01*
X173741Y67975D01*
X175470D01*
X177176Y69682D01*
Y70247D01*
X176716Y70708D01*
Y71273D01*
X177282Y71839D01*
X177847D01*
X178308Y71378D01*
X178873D01*
X180035Y72540D01*
Y73203D01*
X179448Y73790D01*
Y74453D01*
X179917Y74922D01*
X180579D01*
X181167Y74334D01*
X181829D01*
X182298Y74803D01*
Y75466D01*
X181711Y76053D01*
Y76716D01*
X182179Y77184D01*
X182842D01*
X183429Y76597D01*
X184092D01*
X184561Y77066D01*
Y77729D01*
X183973Y78316D01*
Y78979D01*
X184442Y79447D01*
X185105D01*
X185692Y78860D01*
X186355D01*
X186823Y79329D01*
Y79991D01*
X186236Y80579D01*
Y81241D01*
X186705Y81710D01*
X187368D01*
X187955Y81123D01*
X188618D01*
X189086Y81591D01*
Y82254D01*
X188499Y82841D01*
Y83504D01*
X188968Y83973D01*
X189630D01*
X190218Y83386D01*
X190880D01*
X191349Y83854D01*
Y84517D01*
X190762Y85104D01*
Y85767D01*
X191230Y86236D01*
X191893D01*
X192480Y85648D01*
X193143D01*
X193612Y86117D01*
Y86780D01*
X193024Y87367D01*
Y88030D01*
X193493Y88498D01*
X194156D01*
X194743Y87911D01*
X195406D01*
X195874Y88380D01*
Y89042D01*
X195287Y89630D01*
Y90292D01*
X195756Y90761D01*
X196419D01*
X197006Y90174D01*
X197669D01*
X198137Y90642D01*
Y91305D01*
X197550Y91892D01*
Y92555D01*
X198019Y93024D01*
X199019D01*
X200568Y94573D01*
Y105073D01*
X204620Y109125D01*
Y128511D01*
X202827Y130304D01*
G01X225825Y125317D02*
X226716Y125317D01*
X229459Y122573D01*
X231568D01*
X234074Y120067D01*
X237574D01*
X241068Y116573D01*
Y114073D01*
X248568Y106573D01*
Y96573D01*
X248117Y96122D01*
X247036D01*
X246568Y95654D01*
Y94991D01*
X247036Y94523D01*
X248099D01*
X248568Y94054D01*
Y93391D01*
X248099Y92923D01*
X247036D01*
X246568Y92454D01*
Y91791D01*
X247036Y91322D01*
X248099D01*
X248568Y90854D01*
Y90191D01*
X248099Y89722D01*
X247036D01*
X246568Y89254D01*
Y88591D01*
X247036Y88122D01*
X248099D01*
X248568Y87654D01*
Y86991D01*
X248099Y86522D01*
X247036D01*
X246568Y86054D01*
Y85391D01*
X247036Y84922D01*
X248099D01*
X248568Y84454D01*
Y83791D01*
X248099Y83322D01*
X247036D01*
X246568Y82854D01*
Y82191D01*
X247036Y81723D01*
X248099D01*
X248568Y81254D01*
Y80591D01*
X248099Y80123D01*
X247036D01*
X246568Y79654D01*
Y78991D01*
X247036Y78522D01*
X248099D01*
X248568Y78054D01*
Y77391D01*
X248099Y76922D01*
X247036D01*
X246568Y76454D01*
Y75791D01*
X247036Y75322D01*
X248099D01*
X248568Y74854D01*
Y74191D01*
X248099Y73722D01*
X247036D01*
X246568Y73254D01*
Y72591D01*
X247036Y72122D01*
X248099D01*
X248568Y71654D01*
Y70991D01*
X246568Y68991D01*
Y52573D01*
X248242Y50898D01*
X248243D01*
X248272Y50870D01*
X249514D01*
X249515Y50871D01*
X262111D01*
X262992Y51753D01*
Y54024D01*
X262624Y54393D01*
X261493Y55524D01*
G01X140198Y170743D02*
X141501Y169440D01*
X162825D01*
X164777Y167488D01*
G01X140718Y196640D02*
X138253Y194174D01*
Y168343D01*
X141210Y165386D01*
X142900D01*
X144649Y163637D01*
G01D02*
X146711Y165699D01*
X160138D01*
X162158Y163679D01*
G01X137194Y197170D02*
X135548Y198816D01*
Y208263D01*
X133366Y210445D01*
Y226788D01*
X139875Y233296D01*
X147488D01*
X153746Y239554D01*
X159549D01*
X162276Y242281D01*
Y250850D01*
X163467Y252041D01*
Y256671D01*
X177436Y270641D01*
Y281323D01*
X180366Y284253D01*
X187312D01*
X190966Y287907D01*
Y290836D01*
X191921Y291791D01*
X201532D01*
X205351Y295610D01*
X231508D01*
X249730Y313831D01*
Y324684D01*
X252714Y327669D01*
Y327685D01*
X255676Y330647D01*
X258112D01*
X260856Y333391D01*
X267187D01*
G01X198696Y207177D02*
Y207097D01*
X198676Y207077D01*
Y206837D01*
X198196Y206357D01*
X198168D01*
X196575Y204764D01*
X192159D01*
X189975Y202579D01*
Y195048D01*
X187511Y192584D01*
X183269D01*
X178823Y188138D01*
X177165D01*
X176465Y187437D01*
G01X197856Y207177D02*
X196243Y205564D01*
X191828D01*
X189175Y202911D01*
Y195379D01*
X187179Y193384D01*
X182937D01*
X178491Y188938D01*
X177244D01*
X176478Y189704D01*
Y189724D01*
G01X176400Y192180D02*
X177013Y192793D01*
X178057D01*
X182256Y196993D01*
G01X181623Y197661D02*
X177675Y193713D01*
X176987D01*
X176426Y194275D01*
G01X222978Y178998D02*
X223979Y177998D01*
Y174353D01*
X225563Y172768D01*
X235100D01*
X237584Y175251D01*
X245264D01*
X245364Y175151D01*
X245779D01*
G01X225778Y178999D02*
X224779Y178000D01*
Y174684D01*
X225895Y173568D01*
X234769D01*
X237252Y176051D01*
X245579D01*
X245679Y176151D01*
X245779D01*
G01X225632Y297280D02*
X225300Y296948D01*
X205122D01*
X201008Y292834D01*
X187341D01*
X176420Y281912D01*
Y270943D01*
X162510Y257034D01*
Y252532D01*
X161369Y251391D01*
Y242647D01*
X159209Y240487D01*
X153232D01*
X146941Y234196D01*
X139635D01*
X139629Y234190D01*
X139428D01*
X132373Y227135D01*
Y209549D01*
X134066Y207855D01*
Y166505D01*
X139664Y160907D01*
G01X140652Y152136D02*
X133032Y159756D01*
Y207616D01*
X130934Y209715D01*
Y227189D01*
X138912Y235167D01*
X146308D01*
X152532Y241390D01*
X158839D01*
X160410Y242961D01*
Y251803D01*
X161580Y252972D01*
Y257376D01*
X175520Y271316D01*
Y281539D01*
X175519Y281539D01*
Y282284D01*
X186969Y293734D01*
X200636D01*
X204750Y297848D01*
X223202D01*
X224140Y298786D01*
X225691D01*
X226356Y299451D01*
G01X150101Y210595D02*
X149249Y211446D01*
Y221511D01*
X153980Y226242D01*
X160492D01*
X169900Y235650D01*
Y240876D01*
X176537Y247513D01*
Y248643D01*
G01X144627Y204089D02*
X143984Y204732D01*
Y218791D01*
X156654Y231461D01*
X162114D01*
X167642Y236989D01*
Y246876D01*
X168722Y247956D01*
X171681D01*
X171687Y247962D01*
G01X156634Y179176D02*
X155684Y180126D01*
Y183268D01*
X154337Y184615D01*
X151891D01*
X150247Y186260D01*
Y199742D01*
X150227Y199762D01*
Y208301D01*
X144884Y213645D01*
Y218418D01*
X156892Y230426D01*
X162467D01*
X168667Y236627D01*
Y242264D01*
X169067Y242664D01*
X174173Y247770D01*
G01X151738Y210595D02*
Y211846D01*
X150149Y213435D01*
Y221138D01*
X154268Y225258D01*
X160781D01*
X170897Y235373D01*
Y240126D01*
X179048Y248278D01*
Y248689D01*
X179054Y248695D01*
G01X236670Y170948D02*
X236466Y170743D01*
X229568D01*
X227974Y169148D01*
Y166835D01*
X226637Y165499D01*
X222217D01*
X221499Y164781D01*
Y162725D01*
X220161Y161387D01*
X219545D01*
X218642Y160484D01*
Y158795D01*
X223759Y153678D01*
X226637D01*
X229670Y150645D01*
X247042D01*
X248070Y149617D01*
X251463D01*
X252760Y150915D01*
X256050D01*
G01X250234Y153976D02*
Y155676D01*
X249867Y156042D01*
G01X245779Y167606D02*
X246731Y166654D01*
X255631D01*
X261936Y172959D01*
X272586D01*
X274138Y174510D01*
Y175958D01*
X285926Y187746D01*
Y190538D01*
X291820Y196432D01*
X295544D01*
X295957Y196845D01*
G01X135075Y237720D02*
X135606D01*
X137662Y239776D01*
X139510D01*
X140718Y238568D01*
X145651D01*
X149559Y242476D01*
X158064D01*
X159305Y243717D01*
Y252429D01*
X160494Y253618D01*
Y257612D01*
X174299Y271417D01*
Y282429D01*
X186605Y294735D01*
X199479D01*
X209096Y304352D01*
X238452D01*
X246259Y312159D01*
Y314746D01*
X248098Y316585D01*
G01X229091Y261823D02*
X231532Y264264D01*
X240203D01*
G01X245779Y173788D02*
X252843D01*
X253256Y173375D01*
Y170973D01*
G01X155492Y237949D02*
X156049Y238506D01*
X160738D01*
X161243Y239010D01*
X163176Y240943D01*
Y250121D01*
X164475Y251421D01*
Y255358D01*
X190617Y281500D01*
Y284945D01*
G01X197580Y281881D02*
X197507Y281954D01*
X196409D01*
X168274Y253820D01*
Y249986D01*
X166732Y248444D01*
Y238255D01*
X165846Y237370D01*
Y237356D01*
X161028Y232539D01*
X156016D01*
X155716Y232239D01*
X155651D01*
X142917Y219505D01*
Y208268D01*
X142253Y207605D01*
X141172Y206524D01*
Y202592D01*
X144627Y199137D01*
G01X242607Y330878D02*
X237756D01*
X236306Y329428D01*
Y326843D01*
X239227Y323922D01*
Y322242D01*
X237417Y320431D01*
X222718D01*
X217343Y325807D01*
X208846D01*
X206773Y323734D01*
Y308130D01*
X200849Y302206D01*
X167680D01*
X162136Y296662D01*
Y281171D01*
X159958Y278993D01*
Y278427D01*
X160530Y277855D01*
G01X211806Y262890D02*
X210176Y264520D01*
Y270334D01*
X212756Y272914D01*
X249600D01*
X250942Y271571D01*
Y267901D01*
G01X231534Y266845D02*
X233546Y268858D01*
X235964D01*
G01X241301Y318328D02*
X241060D01*
X240046Y319343D01*
X225903D01*
X222627Y316068D01*
X213316D01*
X212414Y316970D01*
Y318131D01*
G01X229101Y264249D02*
X230019Y265168D01*
X238244D01*
X239138Y266062D01*
X242156D01*
G01X232973Y314348D02*
X216687D01*
X212578Y310238D01*
G01X178528Y326479D02*
Y337375D01*
X179614Y338461D01*
G01X191705Y310328D02*
X189699Y312334D01*
X187481D01*
X180444Y319371D01*
Y335459D01*
X182235Y337250D01*
Y337282D01*
X183147Y338193D01*
X183195D01*
G01X344403Y267746D02*
X345500Y266648D01*
Y202042D01*
X341368Y197910D01*
Y197862D01*
X340255Y196797D01*
X327078Y183620D01*
X316668D01*
X310733Y177685D01*
Y170842D01*
X313970Y167605D01*
Y123812D01*
X308710Y118553D01*
X292820D01*
X286633Y124740D01*
G01X320508Y78914D02*
X330759Y89165D01*
Y164072D01*
X340200Y173513D01*
Y184112D01*
X343580Y187493D01*
Y195201D01*
G01X320640Y149657D02*
X321907Y148390D01*
Y120826D01*
X305680Y104599D01*
Y67832D01*
X324148Y49364D01*
G01X302565Y40133D02*
X286196D01*
X286142Y40078D01*
G01X339874Y72851D02*
X342136Y75112D01*
Y124802D01*
X347300Y129966D01*
Y308603D01*
X342765Y313138D01*
G01X343283Y131842D02*
X346400Y134959D01*
Y300258D01*
X343214Y303444D01*
Y303448D01*
G01X245779Y194257D02*
X245679D01*
X245579Y194157D01*
X243361D01*
X238267Y189063D01*
X236478D01*
X236131Y189409D01*
Y189900D01*
X236930Y190699D01*
G01X303192Y262520D02*
X304831Y260881D01*
X310758D01*
X313157Y258482D01*
X318413D01*
G01X297954Y208951D02*
X296258Y207254D01*
X270653D01*
X265575Y202177D01*
Y196910D01*
X261840Y193176D01*
X251583D01*
X249523Y191116D01*
X245596D01*
X239378Y184898D01*
X236361D01*
X235234Y186025D01*
X235184D01*
X234534Y186676D01*
G01X243509Y291990D02*
X243360Y292139D01*
Y295086D01*
X244717Y296443D01*
X247790D01*
X248786Y295447D01*
Y287898D01*
X263579Y273105D01*
X296455D01*
X305385Y264161D01*
X314538D01*
X318049Y260650D01*
G01X250942Y267901D02*
X254424D01*
X268683Y253642D01*
X275441D01*
X283164Y245919D01*
X290644D01*
X303122Y233440D01*
X321701D01*
X322101Y233040D01*
Y223707D01*
X326790Y219019D01*
X331570D01*
X332135Y218453D01*
Y213758D01*
X331577Y213200D01*
X328740D01*
X318281Y202740D01*
G01X329296Y278080D02*
X330869Y276506D01*
X335744D01*
X337491Y274759D01*
Y246522D01*
X341903Y242111D01*
G01X306954Y255914D02*
Y256387D01*
X296277Y267064D01*
X292399D01*
X291818Y266483D01*
Y265474D01*
G01X235015Y161439D02*
X234177Y160601D01*
Y159795D01*
G01X274375Y161646D02*
X278445D01*
X284512Y167713D01*
X301318Y184520D01*
X326705D01*
X339626Y197440D01*
X340468Y198246D01*
Y198283D01*
X344600Y202414D01*
Y265235D01*
X342803Y267032D01*
Y268409D01*
X345500Y271106D01*
Y297068D01*
X343470Y299097D01*
Y299140D01*
G01X236978Y159795D02*
X238180Y160997D01*
X249062D01*
G01X257534Y178776D02*
X258458D01*
X260893Y181212D01*
X274323D01*
X279045Y185934D01*
Y195798D01*
X280765Y197518D01*
X292082D01*
X296162Y201599D01*
G01X271400Y161804D02*
X280121Y170525D01*
X281610D01*
X292203Y181118D01*
Y191396D01*
X295186Y194379D01*
G01X264972Y205298D02*
X268551Y208878D01*
X284913D01*
X288511Y212477D01*
X301139D01*
X305144Y208472D01*
G01X255034Y178676D02*
Y181880D01*
X255817Y182662D01*
X274274D01*
X277959Y186348D01*
Y196588D01*
X280235Y198863D01*
X290755D01*
X293542Y201650D01*
G01X234130Y190699D02*
X235331Y189498D01*
Y189078D01*
X236146Y188263D01*
X238598D01*
X243692Y193357D01*
X244919D01*
X244929Y193347D01*
X245275D01*
X245365Y193257D01*
X245779D01*
G01X331273Y278382D02*
X335273D01*
X338519Y275136D01*
Y247884D01*
X341833Y244570D01*
G01X234134Y183006D02*
X236309Y180830D01*
X251774D01*
X257459Y186514D01*
X266731D01*
X267754Y187537D01*
X271805D01*
X277028Y192761D01*
Y197016D01*
X283566Y203554D01*
X297600D01*
X299799Y201355D01*
Y193550D01*
X307930Y185420D01*
X325553D01*
X338607Y198473D01*
X338952Y198804D01*
X340100Y199952D01*
Y224300D01*
X340986Y225186D01*
X342965D01*
X343700Y225921D01*
Y254904D01*
X340081Y258524D01*
Y272364D01*
X342450Y274734D01*
G01X296901Y260224D02*
X294635Y257958D01*
Y251772D01*
G01X321162Y237032D02*
X319694Y238499D01*
X315065D01*
X311379Y242185D01*
Y257568D01*
X309925Y259022D01*
X307380D01*
G01X305669Y334046D02*
X307262D01*
X308803Y335587D01*
G01X245534Y294836D02*
Y294617D01*
X246268Y293883D01*
Y288953D01*
X263027Y272194D01*
X296079D01*
X305645Y262628D01*
X307647D01*
G01X283405Y288556D02*
X283207Y288359D01*
X282642D01*
X279969Y291031D01*
X268564D01*
X267411Y292185D01*
G01X301163Y355324D02*
X301938D01*
X312962Y344299D01*
Y335596D01*
X309812Y332446D01*
X301642D01*
X300362Y333726D01*
G01X257536Y349032D02*
X256347Y347844D01*
X252002D01*
G01X235646Y332826D02*
X235272Y332452D01*
Y325035D01*
X237212Y323095D01*
X237572D01*
G01X262072Y348514D02*
X263409D01*
X272375Y357480D01*
X299399D01*
G01X239772Y313201D02*
X239837D01*
X240051Y312987D01*
X241424D01*
X242808Y314372D01*
Y319153D01*
X243309Y319654D01*
Y322429D01*
X238070Y327667D01*
G01X318041Y264636D02*
X308639Y274038D01*
X264097D01*
X252246Y285889D01*
X252234D01*
X250036Y288086D01*
Y297342D01*
X251258Y298564D01*
Y298660D01*
G01X265800Y275755D02*
X265774Y275729D01*
X263754D01*
X261500Y277983D01*
Y284316D01*
X253238Y292577D01*
G54D26*
G01X157872Y202757D02*
Y219934D01*
X157350Y220456D01*
G01X158872Y203056D02*
Y219702D01*
X159600Y220430D01*
G01X144627Y174164D02*
X144548D01*
X143942Y174770D01*
Y188771D01*
X143211Y189502D01*
Y196885D01*
X138637Y201459D01*
Y218255D01*
X155530Y235148D01*
X159118D01*
X164792Y240822D01*
Y250145D01*
X165463Y250816D01*
Y254512D01*
X198750Y287798D01*
X205196D01*
X210089Y292691D01*
X231780D01*
X232496Y293406D01*
G01X330635Y215208D02*
X329995Y215849D01*
X313401D01*
X310617Y218632D01*
Y227434D01*
X308974Y229076D01*
X296468D01*
X276683Y248862D01*
X265162D01*
X252679Y261345D01*
X233688D01*
X221531Y249188D01*
Y247507D01*
X209443Y235419D01*
X203042D01*
X198806Y231184D01*
Y210595D01*
G01X144942Y175023D02*
Y189186D01*
X144211Y189916D01*
Y197299D01*
X139637Y201874D01*
Y217841D01*
X155944Y234148D01*
X159532D01*
X165792Y240407D01*
Y249731D01*
X166463Y250402D01*
Y254098D01*
X199164Y286798D01*
X205610D01*
X210503Y291691D01*
X222388D01*
X222952Y291127D01*
X224633D01*
X225197Y291691D01*
X226040D01*
X226587Y291144D01*
X228051D01*
X228598Y291691D01*
X231780D01*
X232496Y290976D01*
G01X330635Y217519D02*
X329915Y216799D01*
X313794D01*
X311567Y219026D01*
Y227827D01*
X309368Y230026D01*
X296862D01*
X277077Y249812D01*
X265556D01*
X253072Y262295D01*
X233224D01*
X220581Y249652D01*
Y247900D01*
X209050Y236369D01*
X202648D01*
X197856Y231578D01*
Y210595D01*
G01X201424D02*
Y228601D01*
X205952Y233128D01*
X219545D01*
X223242Y236825D01*
Y239820D01*
X223242Y239929D01*
X223914Y240600D01*
G01X200424Y210595D02*
Y229015D01*
X205537Y234128D01*
X219131D01*
X222242Y237240D01*
Y239820D01*
X222243Y240082D01*
X221580Y240745D01*
G01X195088Y210595D02*
Y224632D01*
X184997Y234724D01*
Y238906D01*
X196886Y250795D01*
Y260331D01*
X211680Y275125D01*
X252813D01*
X270532Y257406D01*
X275506D01*
X283217Y249696D01*
X298456D01*
X299858Y251097D01*
Y253935D01*
X299349Y254443D01*
G01X196117Y210595D02*
X196088Y210623D01*
Y225047D01*
X185997Y235138D01*
Y238491D01*
X197886Y250380D01*
Y259917D01*
X212144Y274175D01*
X252349D01*
X270118Y256406D01*
X275092D01*
X282802Y248696D01*
X298870D01*
X300858Y250683D01*
Y253752D01*
X301549Y254443D01*
G01X185824Y210595D02*
Y211147D01*
X190139Y215462D01*
Y216083D01*
X190139Y225720D01*
X183622Y232237D01*
Y239226D01*
X195209Y250813D01*
Y261200D01*
X213767Y279758D01*
X250995D01*
X267986Y262767D01*
X297608D01*
X303253Y257122D01*
Y239168D01*
X304920Y237500D01*
X306374D01*
X307013Y236862D01*
G01Y239172D02*
X306341Y238500D01*
X305335D01*
X304203Y239632D01*
Y257586D01*
X298022Y263767D01*
X268400D01*
X251410Y280758D01*
X213352D01*
X194209Y261614D01*
Y251227D01*
X182622Y239640D01*
Y231822D01*
X189139Y225306D01*
Y215876D01*
X184824Y211562D01*
Y210595D01*
G01X173921D02*
Y219885D01*
X173350Y220456D01*
G01X171054Y210595D02*
Y215627D01*
X170078Y216603D01*
X167578D01*
X165984Y218197D01*
Y219822D01*
X165350Y220456D01*
G01X330635Y248673D02*
X331263Y249300D01*
X332722D01*
X333464Y248558D01*
Y246947D01*
X332440Y245923D01*
X328618D01*
X324935Y242240D01*
Y224300D01*
X328793Y220442D01*
X331932D01*
X333101Y219273D01*
Y202932D01*
X326981Y196813D01*
X321005D01*
X302691Y215127D01*
X282688D01*
X280022Y212462D01*
X256864D01*
X251104Y218222D01*
X236735D01*
X233603Y221354D01*
X233493Y221464D01*
X207140D01*
X204616Y218940D01*
Y212940D01*
X207195Y210361D01*
G01X174921Y210595D02*
Y219751D01*
X175600Y220430D01*
G01X337674Y318179D02*
X337109Y318744D01*
X309494D01*
X302358Y325880D01*
X254398D01*
X251615Y323097D01*
Y312165D01*
X249034Y309585D01*
Y309557D01*
X235324Y295847D01*
Y289721D01*
X232152Y286549D01*
X209989D01*
X201370Y277931D01*
X200584D01*
X200583Y277931D01*
X195855D01*
X184668Y266745D01*
Y250556D01*
X184618Y250506D01*
Y250334D01*
X173762Y239477D01*
Y235610D01*
X172782Y234630D01*
Y234592D01*
X160799Y222610D01*
X155724D01*
X153141Y220027D01*
Y214500D01*
X153874Y213767D01*
X154918D01*
X156059Y214908D01*
G01X330635Y250983D02*
X331291Y250327D01*
X333039D01*
X334414Y248952D01*
Y246553D01*
X332834Y244973D01*
X329012D01*
X325885Y241846D01*
Y224693D01*
X329186Y221392D01*
X332325D01*
X334051Y219667D01*
Y202932D01*
X334052Y202931D01*
Y202469D01*
X327446Y195863D01*
X320541D01*
X302226Y214177D01*
X283152D01*
X280537Y211563D01*
X280467D01*
X280416Y211512D01*
X256541D01*
X256484Y211569D01*
X256413D01*
X250728Y217255D01*
X236288D01*
X233029Y220514D01*
X207534D01*
X205566Y218547D01*
Y213333D01*
X208050Y210850D01*
Y210595D01*
G01X337674Y320379D02*
X336989Y319694D01*
X309888D01*
X302751Y326830D01*
X254004D01*
X250665Y323491D01*
Y312602D01*
X234374Y296311D01*
Y290114D01*
X231759Y287499D01*
X209595D01*
X200977Y278881D01*
X195461D01*
X183668Y267089D01*
Y250727D01*
X172762Y239820D01*
Y235953D01*
X171832Y235023D01*
Y234986D01*
X160406Y223560D01*
X155331D01*
X152191Y220420D01*
Y214106D01*
X153582Y212714D01*
X155323D01*
X156213Y211824D01*
G01X172054Y210595D02*
Y216041D01*
X170492Y217603D01*
X168063D01*
X167034Y218632D01*
Y219864D01*
X167600Y220430D01*
G01X246425Y268058D02*
X246970Y268603D01*
Y269772D01*
X245946Y270796D01*
X221980D01*
X220956Y269772D01*
Y266863D01*
X215858Y261765D01*
Y259339D01*
X214735Y258216D01*
Y258083D01*
X213280Y256628D01*
X213147D01*
X195122Y238603D01*
Y237086D01*
X195716Y236492D01*
X197879D01*
G01X248425Y268058D02*
X247920Y268564D01*
Y270166D01*
X246339Y271746D01*
X221587D01*
X220006Y270166D01*
Y267257D01*
X214908Y262158D01*
Y259732D01*
X213785Y258610D01*
Y258477D01*
X212886Y257578D01*
X212753D01*
X194172Y238997D01*
Y236962D01*
X193702Y236492D01*
X191150D01*
G01X307013Y225051D02*
X306333Y225731D01*
X297050D01*
X295374Y224055D01*
X290544D01*
X269613Y244986D01*
X248273D01*
X248223Y245036D01*
X248045D01*
X238296Y254785D01*
Y258686D01*
X238293Y258690D01*
Y258702D01*
X237628Y259367D01*
G01X307013Y227361D02*
X306408Y226756D01*
X306358D01*
X306333Y226731D01*
X296636D01*
X294960Y225055D01*
X290958D01*
X270027Y245986D01*
X248439D01*
X239246Y255178D01*
Y258686D01*
X239928Y259367D01*
G01X318683Y209644D02*
X317959Y208920D01*
X315056Y208920D01*
X313367D01*
X300486Y221801D01*
X285999D01*
X269899Y237902D01*
X239685D01*
X239041Y238546D01*
Y241088D01*
X239666Y241713D01*
G01X318683Y207334D02*
X318097Y207920D01*
X312952D01*
X300072Y220801D01*
X285585D01*
X269485Y236902D01*
X239271D01*
X238041Y238131D01*
X238041Y240638D01*
Y241038D01*
X237366Y241713D01*
G01X328970Y307537D02*
X329523Y306983D01*
X330913D01*
X331186Y307256D01*
Y308272D01*
X329866Y309592D01*
X325945D01*
X325172Y308819D01*
Y303030D01*
X320025Y297883D01*
X316614D01*
X313522Y294792D01*
Y284978D01*
X312221Y283676D01*
X304099D01*
X303021Y282598D01*
Y280687D01*
X303649Y280058D01*
G01X328970Y305337D02*
X329564Y305931D01*
X331322D01*
X332214Y306823D01*
Y308901D01*
X330523Y310592D01*
X325461D01*
X324172Y309303D01*
Y303413D01*
X319592Y298833D01*
X316220D01*
X312572Y295186D01*
Y285371D01*
X311827Y284626D01*
X303706D01*
X302071Y282991D01*
Y280679D01*
X301449Y280058D01*
G01X297790Y277810D02*
X298305Y277294D01*
Y276447D01*
X297867Y276009D01*
X295621D01*
X291863Y279766D01*
Y304847D01*
X289416Y307294D01*
Y308456D01*
X288667Y309205D01*
X287505D01*
X285542Y311168D01*
X280415D01*
X279935Y311648D01*
X278535D01*
X278055Y311168D01*
X276655D01*
X276175Y311648D01*
X274775D01*
X274295Y311168D01*
X267913D01*
X262548Y305803D01*
Y296135D01*
X261948Y295535D01*
G01X264148D02*
X263548Y296135D01*
Y305389D01*
X268328Y310168D01*
X285127D01*
X290863Y304432D01*
Y279352D01*
X295206Y275009D01*
X298282D01*
X299337Y276064D01*
Y277157D01*
X299990Y277810D01*
G54D17*
G01X-27874Y388000D02*
Y12000D01*
G01D02*
X-7874D01*
G01Y42000D02*
Y12000D01*
G01Y42000D02*
X0D01*
G01X-7874Y48700D02*
X0D01*
G01X-7874Y144800D02*
Y48700D01*
G01Y248500D02*
X0D01*
G01X-7874Y255200D02*
X0D01*
G01X-7874Y151500D02*
X0D01*
G01X-7874Y144800D02*
X0D01*
G01X-7874Y248500D02*
Y151500D01*
G01Y351300D02*
Y255200D01*
G01Y388000D02*
Y358000D01*
G01D02*
X0D01*
G01X-7874Y351300D02*
X0D01*
G01X-27874Y388000D02*
X-7874D01*
G01X12000Y0D02*
X0Y12000D01*
G01X12000Y0D02*
X338000D01*
G01X0Y42000D02*
Y12000D01*
G01Y144800D02*
Y48700D01*
G01Y351300D02*
Y255200D01*
G01Y248500D02*
Y151500D01*
G01Y388000D02*
Y358000D01*
G01Y388000D02*
X12000Y400000D01*
G01X338000D02*
X12000D01*
G01X350000Y12000D02*
X338000Y0D01*
G01X350000Y12000D02*
Y42000D01*
G01Y48700D02*
X357874D01*
G01X350000Y42000D02*
X357874D01*
G01X350000Y48700D02*
Y144800D01*
G01Y255200D02*
X357874D01*
G01X350000Y248500D02*
X357874D01*
G01X350000Y144800D02*
X357874D01*
G01X350000Y151500D02*
X357874D01*
G01X350000D02*
Y248500D01*
G01Y255200D02*
Y351300D01*
G01D02*
X357874D01*
G01X350000Y358000D02*
X357874D01*
G01X350000D02*
Y388000D01*
G01X338000Y400000D02*
X350000Y388000D01*
G01X377874Y12000D02*
Y388000D01*
G01X357874Y12000D02*
Y42000D01*
G01Y12000D02*
X377874D01*
G01X357874Y48700D02*
Y144800D01*
G01Y151500D02*
Y248500D01*
G01Y255200D02*
Y351300D01*
G01Y358000D02*
Y388000D01*
G01D02*
X377874D01*
G54D27*
G01X124232Y162687D02*
X118952Y167966D01*
X112561D01*
X78954Y201573D01*
Y213985D01*
X65732Y227206D01*
Y237785D01*
X61908Y241610D01*
X61092D01*
G01X111571Y226874D02*
X108832Y229613D01*
Y243991D01*
X105674Y247150D01*
Y251731D01*
X111529Y257586D01*
Y263744D01*
X116682Y268896D01*
X136592D01*
X141565Y263923D01*
X154770D01*
X163096Y272249D01*
Y290143D01*
X169561Y296608D01*
G01X116334Y256876D02*
X120961Y252248D01*
Y203770D01*
X116177Y198986D01*
X110444D01*
X98402Y211028D01*
X96375D01*
X96330Y210983D01*
G01X114334Y200676D02*
X112632Y202378D01*
X111171D01*
X101034Y212515D01*
Y218576D01*
X99503Y220107D01*
Y223372D01*
G01X112134Y200526D02*
X111132D01*
X99682Y211976D01*
Y218027D01*
X97012Y220697D01*
X95041D01*
X93599Y222139D01*
Y223372D01*
G01X109059Y212861D02*
X106829Y215091D01*
Y244528D01*
X104191Y247166D01*
Y253033D01*
X106834Y255676D01*
G01X110197Y357632D02*
X115478Y362913D01*
X192092D01*
X196689Y358316D01*
G01X127330Y129382D02*
X128557Y128155D01*
X148948D01*
X150957Y130164D01*
Y137050D01*
X152629Y138723D01*
Y138752D01*
X153118Y139241D01*
X153190D01*
X153190Y139242D01*
X158454D01*
X161104Y141892D01*
Y145100D01*
X161932Y145928D01*
X163827D01*
X165263Y144491D01*
G01X233334Y211576D02*
X223934D01*
X216262Y203903D01*
Y183948D01*
X218434Y181776D01*
G01X116740Y204599D02*
X119718Y207576D01*
Y246692D01*
X116334Y250076D01*
G01X249867Y156042D02*
X248401Y157508D01*
X241518D01*
X236917Y152907D01*
X233268D01*
X230925Y155249D01*
X224560D01*
X220134Y159676D01*
G01X270739Y139017D02*
X272538Y140816D01*
Y145596D01*
X270706Y147428D01*
X269213D01*
X266172Y150469D01*
Y153237D01*
X264634Y154775D01*
X254387D01*
X249317Y159845D01*
X239230D01*
X237360Y157976D01*
X227434D01*
X226500Y158909D01*
X226474D01*
X225442Y159941D01*
G01X230734Y175176D02*
Y176811D01*
X230086Y177458D01*
Y179520D01*
X229223Y180384D01*
Y180386D01*
X228734Y180876D01*
X219902D01*
X219077Y180051D01*
X215458D01*
X212734Y182776D01*
Y208976D01*
G01X133034Y330476D02*
X144034D01*
X147749Y326761D01*
Y326690D01*
X148648Y325791D01*
X148718D01*
X149334Y325176D01*
G01X139991Y350065D02*
X146968Y357043D01*
X194202D01*
X201856Y349389D01*
X209239D01*
X217635Y340994D01*
X236903D01*
X240133Y344223D01*
X257782D01*
X262072Y348514D01*
G01X296554Y161590D02*
X295327Y162817D01*
X288084D01*
X282442Y157175D01*
X279998D01*
X277494Y154672D01*
X268697D01*
X264093Y159276D01*
X253946D01*
X251166Y162055D01*
X235632D01*
X235015Y161439D01*
G01X249062Y160997D02*
X250066D01*
X255223Y155841D01*
X265388D01*
X267897Y153331D01*
X273978D01*
X278134Y149176D01*
G01X265861Y171044D02*
Y169000D01*
X262476Y165616D01*
X236158D01*
X234178Y167595D01*
G54D18*
G01X245227Y188867D02*
X245812Y189452D01*
X255522D01*
X257437Y191367D01*
X263690D01*
X265097Y189960D01*
X269262D01*
X271650Y192347D01*
Y198488D01*
X278986Y205824D01*
X308667D01*
X319855Y194636D01*
X328233D01*
X335470Y201873D01*
Y271152D01*
X332260Y274362D01*
X331431D01*
X331431Y274363D01*
X323038D01*
X320583Y276818D01*
X319269D01*
X318683Y276232D01*
G01X245779Y175151D02*
X264872D01*
X266225Y176504D01*
X269789D01*
X270406Y175887D01*
G01X245779Y176151D02*
X264458D01*
X265811Y177504D01*
X269724D01*
X270406Y178187D01*
G01X245779Y188005D02*
X246226Y188452D01*
X255936D01*
X257851Y190367D01*
X263275D01*
X264683Y188960D01*
X269677D01*
X272650Y191933D01*
Y198073D01*
X279400Y204824D01*
X308253D01*
X319441Y193636D01*
X328647D01*
X336470Y201459D01*
Y271566D01*
X332674Y275362D01*
X331845D01*
X331845Y275363D01*
X323452D01*
X320998Y277818D01*
X319408D01*
X318683Y278542D01*
G01X305632Y196299D02*
X304990Y196941D01*
Y198246D01*
X306036Y199292D01*
X308231D01*
X308646Y199293D01*
X308815D01*
X309758Y199292D01*
X317842Y191208D01*
X329744D01*
X338658Y200123D01*
Y232811D01*
X339383Y233536D01*
X341078D01*
X341689Y232925D01*
G01X251257Y203150D02*
X251233Y203126D01*
X250353D01*
X249809Y203670D01*
Y204442D01*
X250411Y205045D01*
X251976D01*
X252425Y204596D01*
X253841D01*
X254842Y203595D01*
Y202457D01*
X246641Y194257D01*
X245779D01*
G01X303332Y196299D02*
X303990Y196957D01*
Y198661D01*
X305622Y200292D01*
X308231D01*
X308438Y200293D01*
X308815D01*
X310172Y200292D01*
X318256Y192208D01*
X329330D01*
X337658Y200537D01*
Y233225D01*
X338969Y234536D01*
X340989D01*
X341689Y235235D01*
G01X245779Y193257D02*
X247056D01*
X255842Y202043D01*
Y204009D01*
X254255Y205596D01*
X252839D01*
X251460Y206976D01*
G54D28*
G01X72726Y260293D02*
Y257826D01*
X71890Y256990D01*
X69423D01*
G54D19*
G01X-172757Y-118840D02*
X-173507Y-118340D01*
X-174382Y-118007D01*
X-175382D01*
X-176507Y-118507D01*
X-177382Y-119340D01*
X-178007Y-120340D01*
X-178507Y-122007D01*
X-178632Y-123507D01*
X-178382Y-125007D01*
X-178007Y-126007D01*
X-177257Y-127007D01*
X-176382Y-127674D01*
X-175507Y-128007D01*
X-174632D01*
X-173757Y-127674D01*
X-173007Y-127174D01*
X-172382Y-126507D01*
G01X-168632Y-128007D02*
X-165507Y-118007D01*
X-162382Y-128007D01*
G01X-163507Y-124507D02*
X-167507D01*
G01X-158007Y-128007D02*
Y-118007D01*
X-154882D01*
X-153882Y-118507D01*
X-153257Y-119174D01*
X-153007Y-120507D01*
X-153257Y-121840D01*
X-154007Y-122673D01*
X-154882Y-123174D01*
X-158007D01*
G01X-154882D02*
X-153007Y-128007D01*
G01X-148257D02*
Y-118007D01*
X-145757D01*
X-144757Y-118507D01*
X-144007Y-119174D01*
X-143382Y-120173D01*
X-142882Y-121340D01*
X-142757Y-123007D01*
X-142882Y-124674D01*
X-143382Y-125840D01*
X-144007Y-126840D01*
X-144757Y-127507D01*
X-145757Y-128007D01*
X-148257D01*
G01X-128007D02*
Y-118007D01*
X-124882D01*
X-123882Y-118507D01*
X-123257Y-119174D01*
X-123007Y-120507D01*
X-123257Y-121840D01*
X-124007Y-122673D01*
X-124882Y-123174D01*
X-128007D01*
G01X-124882D02*
X-123007Y-128007D01*
G01X-113007D02*
X-118007D01*
Y-118007D01*
X-113007D01*
G01X-115007Y-122840D02*
X-118007D01*
G01X-107882Y-128007D02*
Y-118007D01*
X-103132D01*
G01X-104882Y-122840D02*
X-107882D01*
G01X-95507Y-128340D02*
X-95757Y-128173D01*
Y-127840D01*
X-95507Y-127674D01*
X-95257Y-127840D01*
Y-128173D01*
X-95507Y-128340D01*
G01Y-123840D02*
X-95757Y-123673D01*
Y-123340D01*
X-95507Y-123174D01*
X-95257Y-123340D01*
Y-123673D01*
X-95507Y-123840D01*
G01X-85507Y-118007D02*
Y-128007D01*
G01X-88382Y-118007D02*
X-82632D01*
G01X-75507Y-128007D02*
X-76257Y-127840D01*
X-77007Y-127174D01*
X-77507Y-126007D01*
X-77757Y-124674D01*
X-77507Y-123340D01*
X-77007Y-122174D01*
X-76257Y-121507D01*
X-75507Y-121340D01*
X-74757Y-121507D01*
X-74007Y-122174D01*
X-73507Y-123340D01*
X-73382Y-124674D01*
X-73507Y-126007D01*
X-74007Y-127174D01*
X-74757Y-127840D01*
X-75507Y-128007D01*
G01X-68632Y-121340D02*
X-67132Y-128007D01*
X-65507Y-121340D01*
X-63882Y-128007D01*
X-62382Y-121340D01*
G01X-57382Y-123507D02*
X-53382D01*
X-53757Y-122340D01*
X-54382Y-121674D01*
X-55257Y-121340D01*
X-56132Y-121507D01*
X-56882Y-122007D01*
X-57382Y-123174D01*
X-57632Y-124174D01*
Y-125173D01*
X-57382Y-126174D01*
X-56757Y-127174D01*
X-56007Y-127840D01*
X-55132Y-128007D01*
X-54257Y-127674D01*
X-53382Y-126674D01*
G01X-47257Y-128007D02*
Y-121340D01*
G01Y-122673D02*
X-46632Y-122007D01*
X-46007Y-121507D01*
X-45132Y-121340D01*
X-44507Y-121507D01*
X-43757Y-122007D01*
G01X-38382Y-128007D02*
Y-118007D01*
X-32632Y-128007D01*
Y-118007D01*
G01X-25507Y-128007D02*
X-26257Y-127840D01*
X-27007Y-127174D01*
X-27507Y-126007D01*
X-27757Y-124674D01*
X-27507Y-123340D01*
X-27007Y-122174D01*
X-26257Y-121507D01*
X-25507Y-121340D01*
X-24757Y-121507D01*
X-24007Y-122174D01*
X-23507Y-123340D01*
X-23382Y-124674D01*
X-23507Y-126007D01*
X-24007Y-127174D01*
X-24757Y-127840D01*
X-25507Y-128007D01*
G01X-13257Y-118007D02*
Y-128007D01*
G01Y-126507D02*
X-13757Y-127340D01*
X-14507Y-127840D01*
X-15382Y-128007D01*
X-16382Y-127674D01*
X-17132Y-126840D01*
X-17632Y-125840D01*
X-17757Y-124674D01*
X-17632Y-123507D01*
X-17132Y-122507D01*
X-16382Y-121674D01*
X-15382Y-121340D01*
X-14507Y-121507D01*
X-13882Y-121840D01*
X-13257Y-122507D01*
G01X-7382Y-123507D02*
X-3382D01*
X-3757Y-122340D01*
X-4382Y-121674D01*
X-5257Y-121340D01*
X-6132Y-121507D01*
X-6882Y-122007D01*
X-7382Y-123174D01*
X-7632Y-124174D01*
Y-125173D01*
X-7382Y-126174D01*
X-6757Y-127174D01*
X-6007Y-127840D01*
X-5132Y-128007D01*
X-4257Y-127674D01*
X-3382Y-126674D01*
G01X17243Y-118840D02*
X16493Y-118340D01*
X15618Y-118007D01*
X14618D01*
X13493Y-118507D01*
X12618Y-119340D01*
X11993Y-120340D01*
X11493Y-122007D01*
X11368Y-123507D01*
X11618Y-125007D01*
X11993Y-126007D01*
X12743Y-127007D01*
X13618Y-127674D01*
X14493Y-128007D01*
X15368D01*
X16243Y-127674D01*
X16993Y-127174D01*
X17618Y-126507D01*
G01X24493Y-128007D02*
X23493Y-127840D01*
X22618Y-127174D01*
X21868Y-126174D01*
X21368Y-125007D01*
X21118Y-123673D01*
Y-122340D01*
X21368Y-121007D01*
X21868Y-119840D01*
X22618Y-118840D01*
X23493Y-118173D01*
X24493Y-118007D01*
X25493Y-118173D01*
X26368Y-118840D01*
X27118Y-119840D01*
X27618Y-121007D01*
X27868Y-122340D01*
Y-123673D01*
X27618Y-125007D01*
X27118Y-126174D01*
X26368Y-127174D01*
X25493Y-127840D01*
X24493Y-128007D01*
G01X31243D02*
Y-118007D01*
X34493Y-126340D01*
X37743Y-118007D01*
Y-128007D01*
G01X41243D02*
Y-118007D01*
X44493Y-126340D01*
X47743Y-118007D01*
Y-128007D01*
G01X61368Y-118007D02*
X64493Y-128007D01*
X67618Y-118007D01*
G01X74493Y-128007D02*
Y-118007D01*
X72993Y-120007D01*
G01Y-128007D02*
X75993D01*
G01X91993D02*
Y-118007D01*
X95118D01*
X96118Y-118507D01*
X96743Y-119174D01*
X96993Y-120507D01*
X96743Y-121840D01*
X95993Y-122673D01*
X95118Y-123174D01*
X91993D01*
G01X95118D02*
X96993Y-128007D01*
G01X102618Y-123507D02*
X106618D01*
X106243Y-122340D01*
X105618Y-121674D01*
X104743Y-121340D01*
X103868Y-121507D01*
X103118Y-122007D01*
X102618Y-123174D01*
X102368Y-124174D01*
Y-125173D01*
X102618Y-126174D01*
X103243Y-127174D01*
X103993Y-127840D01*
X104868Y-128007D01*
X105743Y-127674D01*
X106618Y-126674D01*
G01X112243Y-121340D02*
X114493Y-128007D01*
X116743Y-121340D01*
G01X122868Y-124674D02*
X126118D01*
G01X135493Y-122673D02*
X135993Y-122174D01*
X136368Y-121340D01*
X136618Y-120173D01*
X136368Y-119174D01*
X135868Y-118507D01*
X134993Y-118007D01*
X131618D01*
Y-128007D01*
X135743D01*
X136618Y-127340D01*
X137118Y-126340D01*
X137368Y-125173D01*
X137118Y-124007D01*
X136368Y-123007D01*
X135493Y-122673D01*
X131618D01*
G01X-177882Y-146507D02*
Y-136507D01*
X-173132D01*
G01X-174882Y-141340D02*
X-177882D01*
G01X-167007Y-136507D02*
X-164007D01*
G01X-165507D02*
Y-146507D01*
G01X-167007D02*
X-164007D01*
G01X-158007Y-136507D02*
Y-146507D01*
X-153007D01*
G01X-148757D02*
Y-136507D01*
X-145507Y-144840D01*
X-142257Y-136507D01*
Y-146507D01*
G01X-128007Y-136507D02*
Y-146507D01*
X-123007D01*
G01X-118632D02*
X-115507Y-136507D01*
X-112382Y-146507D01*
G01X-113507Y-143007D02*
X-117507D01*
G01X-105507Y-146507D02*
Y-142007D01*
X-108007Y-136507D01*
G01X-103007D02*
X-105507Y-142007D01*
G01X-93007Y-146507D02*
X-98007D01*
Y-136507D01*
X-93007D01*
G01X-95007Y-141340D02*
X-98007D01*
G01X-88007Y-146507D02*
Y-136507D01*
X-84882D01*
X-83882Y-137007D01*
X-83257Y-137673D01*
X-83007Y-139007D01*
X-83257Y-140340D01*
X-84007Y-141173D01*
X-84882Y-141674D01*
X-88007D01*
G01X-84882D02*
X-83007Y-146507D01*
G01X-75507Y-146840D02*
X-75757Y-146673D01*
Y-146340D01*
X-75507Y-146174D01*
X-75257Y-146340D01*
Y-146673D01*
X-75507Y-146840D01*
G01Y-142340D02*
X-75757Y-142174D01*
Y-141840D01*
X-75507Y-141674D01*
X-75257Y-141840D01*
Y-142174D01*
X-75507Y-142340D01*
G01X-178257Y-88007D02*
Y-78007D01*
X-175757D01*
X-174757Y-78507D01*
X-174007Y-79174D01*
X-173382Y-80173D01*
X-172882Y-81340D01*
X-172757Y-83007D01*
X-172882Y-84674D01*
X-173382Y-85840D01*
X-174007Y-86840D01*
X-174757Y-87507D01*
X-175757Y-88007D01*
X-178257D01*
G01X-168632D02*
X-165507Y-78007D01*
X-162382Y-88007D01*
G01X-163507Y-84507D02*
X-167507D01*
G01X-155507Y-78007D02*
Y-88007D01*
G01X-158382Y-78007D02*
X-152632D01*
G01X-143007Y-88007D02*
X-148007D01*
Y-78007D01*
X-143007D01*
G01X-145007Y-82840D02*
X-148007D01*
G01X-135507Y-88340D02*
X-135757Y-88173D01*
Y-87840D01*
X-135507Y-87674D01*
X-135257Y-87840D01*
Y-88173D01*
X-135507Y-88340D01*
G01Y-83840D02*
X-135757Y-83674D01*
Y-83340D01*
X-135507Y-83174D01*
X-135257Y-83340D01*
Y-83674D01*
X-135507Y-83840D01*
G01X-125507Y-78007D02*
X-126507Y-78340D01*
X-127257Y-79174D01*
X-127757Y-80173D01*
X-128132Y-81507D01*
X-128257Y-83007D01*
X-128132Y-84507D01*
X-127757Y-85840D01*
X-127257Y-86840D01*
X-126507Y-87674D01*
X-125507Y-88007D01*
X-124507Y-87674D01*
X-123757Y-86840D01*
X-123257Y-85840D01*
X-122882Y-84507D01*
X-122757Y-83007D01*
X-122882Y-81507D01*
X-123257Y-80173D01*
X-123757Y-79174D01*
X-124507Y-78340D01*
X-125507Y-78007D01*
G01X-114007Y-88007D02*
Y-78007D01*
X-118632Y-85174D01*
X-112382D01*
G01X-107132Y-84674D02*
X-103882D01*
G01X-98007Y-86007D02*
X-97382Y-87007D01*
X-96632Y-87674D01*
X-95757Y-88007D01*
X-94757Y-87674D01*
X-94007Y-87007D01*
X-93257Y-86007D01*
X-93007Y-84674D01*
Y-78007D01*
G01X-88257D02*
Y-85174D01*
X-87757Y-86674D01*
X-86757Y-87674D01*
X-85507Y-88007D01*
X-84257Y-87674D01*
X-83257Y-86674D01*
X-82757Y-85174D01*
Y-78007D01*
G01X-78007D02*
Y-88007D01*
X-73007D01*
G01X-65507D02*
Y-83507D01*
X-68007Y-78007D01*
G01X-63007D02*
X-65507Y-83507D01*
G01X-57132Y-84674D02*
X-53882D01*
G01X-47882Y-79673D02*
X-47132Y-78674D01*
X-46257Y-78173D01*
X-45257Y-78007D01*
X-44007Y-78340D01*
X-43132Y-79174D01*
X-42882Y-80173D01*
X-43007Y-81174D01*
X-43507Y-82007D01*
X-46007Y-83674D01*
X-47132Y-84840D01*
X-47882Y-86507D01*
X-48132Y-88007D01*
X-42882D01*
G01X-35507Y-78007D02*
X-36507Y-78340D01*
X-37257Y-79174D01*
X-37757Y-80173D01*
X-38132Y-81507D01*
X-38257Y-83007D01*
X-38132Y-84507D01*
X-37757Y-85840D01*
X-37257Y-86840D01*
X-36507Y-87674D01*
X-35507Y-88007D01*
X-34507Y-87674D01*
X-33757Y-86840D01*
X-33257Y-85840D01*
X-32882Y-84507D01*
X-32757Y-83007D01*
X-32882Y-81507D01*
X-33257Y-80173D01*
X-33757Y-79174D01*
X-34507Y-78340D01*
X-35507Y-78007D01*
G01X-27882Y-79673D02*
X-27132Y-78674D01*
X-26257Y-78173D01*
X-25257Y-78007D01*
X-24007Y-78340D01*
X-23132Y-79174D01*
X-22882Y-80173D01*
X-23007Y-81174D01*
X-23507Y-82007D01*
X-26007Y-83674D01*
X-27132Y-84840D01*
X-27882Y-86507D01*
X-28132Y-88007D01*
X-22882D01*
G01X-15507Y-78007D02*
X-16507Y-78340D01*
X-17257Y-79174D01*
X-17757Y-80173D01*
X-18132Y-81507D01*
X-18257Y-83007D01*
X-18132Y-84507D01*
X-17757Y-85840D01*
X-17257Y-86840D01*
X-16507Y-87674D01*
X-15507Y-88007D01*
X-14507Y-87674D01*
X-13757Y-86840D01*
X-13257Y-85840D01*
X-12882Y-84507D01*
X-12757Y-83007D01*
X-12882Y-81507D01*
X-13257Y-80173D01*
X-13757Y-79174D01*
X-14507Y-78340D01*
X-15507Y-78007D01*
G01X-24838Y-136132D02*
Y-146132D01*
X-19838D01*
G01X-15088Y-144132D02*
X-14338Y-145299D01*
X-13338Y-145966D01*
X-12213Y-146132D01*
X-11213Y-145966D01*
X-10213Y-145133D01*
X-9588Y-144132D01*
X-9463Y-143132D01*
X-9713Y-141966D01*
X-10588Y-141133D01*
X-11464Y-140799D01*
X-12588D01*
G01X-11464D02*
X-10713Y-140299D01*
X-10088Y-139466D01*
X-9838Y-138466D01*
X-10088Y-137466D01*
X-10713Y-136633D01*
X-11838Y-136132D01*
X-12963Y-136299D01*
X-14088Y-136966D01*
G01X16993Y-88007D02*
Y-78007D01*
X19993D01*
X20993Y-78507D01*
X21743Y-79673D01*
X21993Y-81007D01*
X21743Y-82340D01*
X21118Y-83340D01*
X19993Y-83840D01*
X16993D01*
G01X26368Y-88007D02*
X29493Y-78007D01*
X32618Y-88007D01*
G01X31493Y-84507D02*
X27493D01*
G01X36993Y-88007D02*
Y-78007D01*
X40118D01*
X41118Y-78507D01*
X41743Y-79174D01*
X41993Y-80507D01*
X41743Y-81840D01*
X40993Y-82673D01*
X40118Y-83174D01*
X36993D01*
G01X40118D02*
X41993Y-88007D01*
G01X49493Y-78007D02*
Y-88007D01*
G01X46618Y-78007D02*
X52368D01*
G01X66618Y-88007D02*
Y-78007D01*
X72368Y-88007D01*
Y-78007D01*
G01X76743D02*
Y-85174D01*
X77243Y-86674D01*
X78243Y-87674D01*
X79493Y-88007D01*
X80743Y-87674D01*
X81743Y-86674D01*
X82243Y-85174D01*
Y-78007D01*
G01X86243Y-88007D02*
Y-78007D01*
X89493Y-86340D01*
X92743Y-78007D01*
Y-88007D01*
G01X100493Y-82673D02*
X100993Y-82174D01*
X101368Y-81340D01*
X101618Y-80173D01*
X101368Y-79174D01*
X100868Y-78507D01*
X99993Y-78007D01*
X96618D01*
Y-88007D01*
X100743D01*
X101618Y-87340D01*
X102118Y-86340D01*
X102368Y-85174D01*
X102118Y-84007D01*
X101368Y-83007D01*
X100493Y-82673D01*
X96618D01*
G01X111993Y-88007D02*
X106993D01*
Y-78007D01*
X111993D01*
G01X109993Y-82840D02*
X106993D01*
G01X116993Y-88007D02*
Y-78007D01*
X120118D01*
X121118Y-78507D01*
X121743Y-79174D01*
X121993Y-80507D01*
X121743Y-81840D01*
X120993Y-82673D01*
X120118Y-83174D01*
X116993D01*
G01X120118D02*
X121993Y-88007D01*
G01X129493Y-88340D02*
X129243Y-88173D01*
Y-87840D01*
X129493Y-87674D01*
X129743Y-87840D01*
Y-88173D01*
X129493Y-88340D01*
G01Y-83840D02*
X129243Y-83674D01*
Y-83340D01*
X129493Y-83174D01*
X129743Y-83340D01*
Y-83674D01*
X129493Y-83840D01*
G01X139493Y-78007D02*
Y-88007D01*
G01X136618Y-78007D02*
X142368D01*
G01X146618Y-88007D02*
Y-78007D01*
X152368Y-88007D01*
Y-78007D01*
G01X157868Y-84674D02*
X161118D01*
G01X172243Y-78840D02*
X171493Y-78340D01*
X170618Y-78007D01*
X169618D01*
X168493Y-78507D01*
X167618Y-79340D01*
X166993Y-80340D01*
X166493Y-82007D01*
X166368Y-83507D01*
X166618Y-85007D01*
X166993Y-86007D01*
X167743Y-87007D01*
X168618Y-87674D01*
X169493Y-88007D01*
X170368D01*
X171243Y-87674D01*
X171993Y-87174D01*
X172618Y-86507D01*
G01X179493Y-88007D02*
X178493Y-87840D01*
X177618Y-87174D01*
X176868Y-86174D01*
X176368Y-85007D01*
X176118Y-83674D01*
Y-82340D01*
X176368Y-81007D01*
X176868Y-79840D01*
X177618Y-78840D01*
X178493Y-78173D01*
X179493Y-78007D01*
X180493Y-78173D01*
X181368Y-78840D01*
X182118Y-79840D01*
X182618Y-81007D01*
X182868Y-82340D01*
Y-83674D01*
X182618Y-85007D01*
X182118Y-86174D01*
X181368Y-87174D01*
X180493Y-87840D01*
X179493Y-88007D01*
G01X186243D02*
Y-78007D01*
X189493Y-86340D01*
X192743Y-78007D01*
Y-88007D01*
G01X196243D02*
Y-78007D01*
X199493Y-86340D01*
X202743Y-78007D01*
Y-88007D01*
G01X207868Y-84674D02*
X211118D01*
G01X216368Y-78007D02*
X219493Y-88007D01*
X222618Y-78007D01*
G01X229493Y-88007D02*
Y-78007D01*
X227993Y-80007D01*
G01Y-88007D02*
X230993D01*
G01X237868Y-84674D02*
X241118D01*
G01X246993Y-88007D02*
Y-78007D01*
X250118D01*
X251118Y-78507D01*
X251743Y-79174D01*
X251993Y-80507D01*
X251743Y-81840D01*
X250993Y-82673D01*
X250118Y-83174D01*
X246993D01*
G01X250118D02*
X251993Y-88007D01*
G01X261993D02*
X256993D01*
Y-78007D01*
X261993D01*
G01X259993Y-82840D02*
X256993D01*
G01X266368Y-78007D02*
X269493Y-88007D01*
X272618Y-78007D01*
G01X280493Y-82673D02*
X280993Y-82174D01*
X281368Y-81340D01*
X281618Y-80173D01*
X281368Y-79174D01*
X280868Y-78507D01*
X279993Y-78007D01*
X276618D01*
Y-88007D01*
X280743D01*
X281618Y-87340D01*
X282118Y-86340D01*
X282368Y-85174D01*
X282118Y-84007D01*
X281368Y-83007D01*
X280493Y-82673D01*
X276618D01*
G01X12000Y-2D02*
X337997D01*
G01Y399998D02*
X12000D01*
G54D29*
G01X153460Y91641D02*
X154068Y92248D01*
Y98962D01*
X157601Y102495D01*
G01X155675Y91641D02*
X155068Y92248D01*
Y98548D01*
X158308Y101788D01*
G01X318683Y290224D02*
X318678Y290220D01*
X317349D01*
X317160Y290408D01*
Y291438D01*
X317538Y291816D01*
X320322D01*
X320922Y291217D01*
Y290037D01*
X321354Y289604D01*
X322156D01*
X328189Y283571D01*
X331905D01*
X334483Y286149D01*
Y311166D01*
X328942Y316706D01*
X267576D01*
X257050Y306181D01*
X249720D01*
X237483Y293944D01*
Y288598D01*
X233166Y284282D01*
X210755D01*
X201008Y274535D01*
X195625D01*
X186880Y265790D01*
Y249880D01*
X177201Y240201D01*
Y235297D01*
X163799Y221895D01*
Y220012D01*
X164046Y219766D01*
Y218926D01*
X163802Y218682D01*
X163799D01*
Y217911D01*
X164043Y217667D01*
Y216846D01*
X163799Y216602D01*
Y215534D01*
X164077Y215256D01*
Y214133D01*
X163799Y213856D01*
Y212826D01*
X164043Y212582D01*
Y211707D01*
X163799Y211463D01*
Y210609D01*
X164340Y210068D01*
X166966D01*
X167618Y210720D01*
G01X320007Y309389D02*
Y309351D01*
X319366Y308710D01*
X307874D01*
X301160Y315425D01*
X268498D01*
X257914Y304841D01*
X250467D01*
X238890Y293264D01*
Y287943D01*
X233983Y283036D01*
X211684D01*
X201049Y272401D01*
X195540D01*
X188177Y265038D01*
Y249070D01*
X178298Y239191D01*
Y221620D01*
X178279Y221600D01*
Y219552D01*
X178298Y219532D01*
Y216908D01*
X182431Y212776D01*
Y210595D01*
G01X320007Y307189D02*
X319969D01*
X319447Y307710D01*
X307460D01*
X306453Y308718D01*
X300746Y314425D01*
X268913D01*
X258329Y303841D01*
X250881D01*
X239890Y292849D01*
Y287528D01*
X234398Y282036D01*
X212099D01*
X201463Y271401D01*
X195954D01*
X189177Y264624D01*
Y248655D01*
X179298Y238776D01*
Y221206D01*
X179279Y221186D01*
Y219966D01*
X179298Y219946D01*
Y217322D01*
X183431Y213190D01*
Y210595D01*
G01X318683Y288043D02*
X319244Y288604D01*
X321742D01*
X327774Y282571D01*
X332320D01*
X335483Y285734D01*
Y311580D01*
X329357Y317706D01*
X267161D01*
X256636Y307181D01*
X249306D01*
X236483Y294358D01*
Y289012D01*
X232752Y285282D01*
X210341D01*
X200594Y275535D01*
X195211D01*
X185880Y266204D01*
Y250294D01*
X176201Y240615D01*
Y235711D01*
X162799Y222309D01*
Y220993D01*
X162799Y220992D01*
Y210555D01*
X164032Y209323D01*
X166908D01*
X167618Y208613D01*
G01X319786Y269689D02*
X320273Y269202D01*
X331821D01*
X334582Y266441D01*
Y263027D01*
X332260Y260705D01*
X331093D01*
G01X319786Y267489D02*
X320498Y268202D01*
X331406D01*
X333582Y266026D01*
Y263442D01*
X332844Y262704D01*
X331174D01*
M02*
