G04 ================== begin FILE IDENTIFICATION RECORD ==================*
G04 Layout Name:  E:/CAD/CAD/FACEBOOK/COM V1/WORK/22-12-20/COM_V1_P2_21-12-2020_4.brd*
G04 Film Name:    COM_V1_P2-L7.gbr*
G04 File Format:  Gerber RS274X*
G04 File Origin:  Cadence Allegro 16.6-2015-S108*
G04 Origin Date:  Fri Dec 25 11:50:55 2020*
G04 *
G04 Layer:  DRAWING FORMAT/FILM_LABEL_OUTLINE*
G04 Layer:  VIA CLASS/L7_PWR2*
G04 Layer:  PIN/L7_PWR2*
G04 Layer:  ETCH/L7_PWR2*
G04 Layer:  BOARD GEOMETRY/OUTLINE*
G04 Layer:  BOARD GEOMETRY/TOOLING_CORNERS*
G04 *
G04 Offset:    (0.000 0.000)*
G04 Mirror:    No*
G04 Mode:      Positive*
G04 Rotation:  0*
G04 FullContactRelief:  No*
G04 UndefLineWidth:     6.000*
G04 ================== end FILE IDENTIFICATION RECORD ====================*
%FSLAX55Y55*MOIN*%
%IR0*IPPOS*OFA0.00000B0.00000*MIA0B0*SFA1.00000B1.00000*%
%ADD14C,.022*%
%ADD13C,.015*%
%ADD10C,.024*%
%ADD12C,.016*%
%ADD16C,.026*%
%ADD11C,.018*%
%ADD15C,.062992*%
%ADD17C,.005*%
%ADD18C,.006*%
%ADD19C,.0062*%
%ADD20C,.003402*%
%ADD21C,.0045*%
%ADD22C,.0048*%
%ADD23C,.003902*%
%ADD24C,.01*%
%ADD25C,.02*%
%ADD26C,.012*%
%ADD36C,.189296*%
%ADD29C,.032004*%
%ADD33C,.024004*%
%ADD28C,.034004*%
%ADD30C,.026004*%
%ADD31C,.036004*%
%ADD27C,.028004*%
%ADD34C,.075122*%
%ADD32C,.087004*%
%ADD35C,.074996*%
G75*
%LPD*%
G75*
G36*
G01X44613Y3891D02*
X39648Y8856D01*
Y35542D01*
X33856Y41334D01*
X30133D01*
X30029Y41231D01*
X7481D01*
X3447Y45265D01*
Y84980D01*
G02X4061Y85319I400J0D01*
G03Y87685I748J1183D01*
G02X3447Y88024I-214J338D01*
G01Y114571D01*
G02X3992Y114944I400J0D01*
G03Y117552I510J1304D01*
G02X3447Y117924I-146J373D01*
G01Y121045D01*
G02X3915Y121439I400J0D01*
G03Y124199I237J1380D01*
G02X3447Y124593I-68J394D01*
G01Y127003D01*
G02X3915Y127397I400J0D01*
G03Y130157I237J1380D01*
G02X3447Y130551I-68J394D01*
G01Y288954D01*
X4949Y290456D01*
G02X5583Y290366I283J-283D01*
G03X7484Y292267I1227J675D01*
G02X7394Y292901I193J351D01*
G01X7832Y293338D01*
X13911D01*
X13948Y293186D01*
G03X17251I1652J403D01*
G01X17289Y293338D01*
X25931D01*
X25961Y293174D01*
G03X26582Y292140I1673J302D01*
G02Y291511I-247J-314D01*
G03X28686I1052J-1336D01*
G02Y292140I247J314D01*
G03X28828Y294686I-1052J1336D01*
G01X28686Y294828D01*
X37434Y303576D01*
Y330076D01*
X32834Y334676D01*
Y342271D01*
G03X33088Y342595I-1200J1204D01*
G02X33793Y342557I342J-207D01*
G03X33880Y344156I1541J719D01*
G02X33175Y344194I-342J207D01*
G03X32834Y344680I-1541J-719D01*
G01Y386270D01*
X43218Y396655D01*
X142000D01*
G02X142378Y396122I0J-400D01*
G03X144611Y394165I1510J-530D01*
G02X145190Y393772I181J-357D01*
G03X145190Y393483I1594J-145D01*
G02X144611Y393090I-398J-36D01*
G03X145482Y391807I-723J-1427D01*
G02X146061Y392200I398J36D01*
G03X147668Y392293I723J1427D01*
G02X148288Y391942I221J-333D01*
G03X149003Y393203I1599J-73D01*
G02X148383Y393555I-221J333D01*
G03X148381Y393733I-1599J72D01*
G02X148980Y394105I399J26D01*
G03X151262Y396102I803J1384D01*
G02X151631Y396655I370J153D01*
G01X330479D01*
G02X330735Y395948I0J-400D01*
G03X332530I897J-1075D01*
G02X332786Y396655I256J307D01*
G01X335761D01*
X338781Y393635D01*
G02X338696Y393005I-283J-283D01*
G03X340607Y391094I696J-1215D01*
G02X341237Y391178I347J-199D01*
G01X346449Y385967D01*
Y372361D01*
G02X345751Y372094I-400J0D01*
G03Y370223I-1042J-936D01*
G02X346449Y369955I298J-267D01*
G01Y368038D01*
X346178Y367767D01*
X346015Y367930D01*
X346001Y367956D01*
G03X343361Y367307I-1239J-652D01*
G02X342961Y366907I-400J1D01*
G01X307062D01*
G02X306748Y367556I0J400D01*
G03X304554I-1097J870D01*
G02X304241Y366907I-313J-249D01*
G01X252979D01*
X247036Y360964D01*
Y346394D01*
X246466Y345824D01*
X246222Y346068D01*
X246287Y346197D01*
G03X244216Y347712I-1161J586D01*
G02X243614Y347760I-280J286D01*
G03X243605Y347773I-1052J-764D01*
G02X243636Y348292I319J241D01*
G03X243919Y349650I-936J903D01*
G02X244286Y350190I375J140D01*
G03X243045Y351034I-23J1300D01*
G02X242678Y350494I-375J-140D01*
G03X241663Y348412I23J-1300D01*
G02X241631Y347893I-319J-241D01*
G03X243477Y346061I936J-903D01*
G02X244079Y346013I280J-286D01*
G03X245151Y345483I1047J770D01*
G02X245442Y344800I8J-400D01*
G01X244177Y343536D01*
G02X243603Y343543I-283J283D01*
G03X241765Y341705I-945J-893D01*
G02X241773Y341132I-275J-291D01*
G01X241706Y341065D01*
X241663Y341050D01*
G03X241600Y338613I421J-1230D01*
G01X241725Y338563D01*
Y331966D01*
G03Y329790I882J-1088D01*
G01Y321588D01*
X241559Y321560D01*
G03X240635Y319664I221J-1281D01*
G02X240571Y319404I-176J-94D01*
G03X241495Y317043I731J-1076D01*
G01X241510Y317045D01*
X241725D01*
Y316776D01*
X241734Y316767D01*
Y305813D01*
X241757D01*
X243826Y303745D01*
X257169D01*
X263534Y297379D01*
G02X263451Y296750I-283J-283D01*
G03X263186Y296552I698J-1214D01*
G02X262911I-137J145D01*
G03Y294518I-963J-1017D01*
G02X263186I137J-145D01*
G03X265362Y294838I963J1017D01*
G02X265992Y294922I347J-199D01*
G01X266854Y294060D01*
G02X266758Y293423I-283J-283D01*
G03X267340Y290786I653J-1239D01*
G02X267719Y290387I-20J-399D01*
G01Y283543D01*
G02X267293Y283144I-400J0D01*
G03Y280549I-86J-1297D01*
G02X267719Y280150I27J-399D01*
G01Y279258D01*
G02X267028Y278984I-400J0D01*
G03X264938Y277122I-1021J-958D01*
G02X264912Y276838I-153J-129D01*
G03X266869Y276660I888J-1083D01*
G02X266894Y276944I153J129D01*
G03X267028Y277068I-888J1083D01*
G02X267719Y276795I292J-274D01*
G01Y252959D01*
X248792Y234032D01*
Y226426D01*
G02X249427Y225944I135J-481D01*
G01Y222982D01*
X252434Y219976D01*
Y208576D01*
G02X251899Y208199I-400J0D01*
G03Y205752I-439J-1224D01*
G02X252434Y205375I135J-377D01*
G01Y204662D01*
G02X251851Y204306I-400J0D01*
G03Y201994I-594J-1156D01*
G02X252434Y201638I183J-356D01*
G01Y197376D01*
X248986Y193928D01*
X248895Y193935D01*
G03X247507Y192546I-91J-1297D01*
G01X247513Y192455D01*
X242734Y187676D01*
X242682D01*
Y179384D01*
X242674Y179353D01*
G03Y178705I1259J-324D01*
G01X242682Y178674D01*
Y174676D01*
X242734D01*
X243334Y174076D01*
X267134D01*
X268484Y175426D01*
G02X269131Y175308I283J-283D01*
G03X271484Y176781I1275J579D01*
G02Y177292I308J255D01*
G03X271757Y178556I-1077J894D01*
G01X271726Y178668D01*
X274534Y181476D01*
X281206D01*
G02X281510Y180816I0J-400D01*
G03X281489Y179028I1066J-908D01*
G02X281482Y178516I-311J-252D01*
G03X283635Y178488I1065J-909D01*
G02X283641Y178999I311J252D01*
G03X283643Y180816I-1065J909D01*
G02X283948Y181476I305J259D01*
G01X287134D01*
X287284Y181625D01*
X309056D01*
G02X309414Y181048I0J-400D01*
G03X311722Y181349I1255J-621D01*
G01X311599Y181490D01*
X316055Y185947D01*
Y212624D01*
X318844Y215413D01*
X329335D01*
Y215212D01*
G03X331935I1300J-4D01*
G01Y215413D01*
X343329D01*
X345398Y213344D01*
Y143926D01*
G02X344726Y143632I-400J0D01*
G03Y141574I-949J-1029D01*
G02X345398Y141280I271J-294D01*
G01Y123823D01*
G02X344845Y123453I-400J0D01*
G03Y120864I-533J-1295D01*
G02X345398Y120493I152J-370D01*
G01Y113482D01*
X345284Y113428D01*
G03Y110901I603J-1263D01*
G01X345398Y110846D01*
Y55417D01*
G02X344721Y55128I-400J0D01*
G03X342355Y54057I-968J-1012D01*
G02X342024Y53646I-400J-17D01*
G03X341012Y51637I240J-1380D01*
G02X340655Y51057I-357J-180D01*
G01X337547D01*
G02X337180Y51614I0J400D01*
G03X336093Y53549I-1288J549D01*
G02X335750Y53937I57J396D01*
G03X332952Y53824I-1400J-27D01*
G02X332766Y53612I-200J-12D01*
G03X331590Y51625I93J-1397D01*
G02X331227Y51057I-363J-168D01*
G01X318247D01*
G02X317983Y51757I0J400D01*
G03X316794Y54182I-926J1050D01*
G02X316326Y54502I-75J393D01*
G03X313561Y54431I-1377J-256D01*
G02X313105Y54088I-396J53D01*
G03X311884Y51734I-211J-1384D01*
G02X311596Y51057I-288J-277D01*
G01X309178D01*
G02X308879Y51723I0J400D01*
G03X306786I-1046J930D01*
G02X306487Y51057I-299J-266D01*
G01X302814D01*
G02X302415Y51429I0J400D01*
G03X302092Y52232I-1397J-96D01*
G02X302184Y52826I307J257D01*
G03X300446Y55002I-754J1180D01*
G02X299910Y54979I-281J285D01*
G03X297960Y52982I-895J-1077D01*
G02X297914Y52411I-301J-263D01*
G03X297869Y52371I895J-1077D01*
G02X297317Y52385I-269J296D01*
G01X296370Y53332D01*
Y75674D01*
X287988Y84057D01*
X288099Y84196D01*
G03X286131Y86164I-1095J873D01*
G01X285991Y86053D01*
X279407Y92637D01*
Y103854D01*
G02X279989Y104210I400J0D01*
G03Y106525I592J1157D01*
G02X279407Y106881I-182J356D01*
G01Y113611D01*
G02X279866Y114007I400J0D01*
G03Y116579I192J1286D01*
G02X279407Y116974I-59J396D01*
G01Y124870D01*
G02X279899Y125259I400J0D01*
G03Y127790I297J1266D01*
G02X279407Y128180I-91J389D01*
G01Y132633D01*
G02X280131Y132868I400J0D01*
G03X282460Y135500I1457J1057D01*
G02X282437Y136187I194J350D01*
G03X282573Y136286I-756J1179D01*
G01X287061D01*
X289750Y138975D01*
Y143621D01*
G02X290150Y144021I400J0D01*
G03X290174Y144021I0J1400D01*
G02X290580Y143589I7J-400D01*
G03X291949Y144875I1396J-114D01*
G02X291543Y145307I-7J400D01*
G03X290150Y146822I-1396J114D01*
G02X289750Y147222I1J400D01*
G01Y159326D01*
G02X290346Y159675I400J0D01*
G03X292067Y159955I684J1221D01*
G02X292740Y159818I296J-269D01*
G03X295437Y160017I1322J462D01*
G02X295991Y160308I393J-75D01*
G03X295179Y161854I563J1282D01*
G02X294625Y161562I-393J75D01*
G03X293026Y161222I-563J-1282D01*
G02X292352Y161359I-296J269D01*
G03X289640Y161061I-1322J-462D01*
G02X288960Y160826I-397J47D01*
G01X288862Y160923D01*
X276146D01*
G02X275752Y161395I0J400D01*
G03X273260Y162493I-1377J251D01*
G02X272599Y162528I-319J242D01*
G03X270824Y163081I-1199J-724D01*
G02X270293Y163285I-164J365D01*
G03X269586Y161448I-1283J-561D01*
G02X270117Y161243I164J-365D01*
G03X270172Y161132I1283J561D01*
G02X269946Y160843I-175J-96D01*
G03X270940Y159890I-347J-1357D01*
G02X271340Y160406I383J115D01*
G03X272515Y160958I60J1399D01*
G02X273176Y160922I319J-242D01*
G03X273760Y160388I1199J724D01*
G02X273868Y159746I-176J-359D01*
G01X268866Y154744D01*
X251404D01*
G03X249456Y155140I-1170J-768D01*
G02X248928Y155214I-222J332D01*
G03X248749Y155388I-994J-839D01*
G03X246741Y154894I-815J-1013D01*
G01X246676Y154744D01*
X245680D01*
G02X245296Y155255I0J400D01*
G03X244833Y156569I-1153J333D01*
G03X242477Y155474I-1202J-496D01*
G02X242033Y154744I-444J-230D01*
G01X236434D01*
G02X235991Y155474I0J500D01*
G03X233682I-1154J599D01*
G02X233238Y154744I-444J-230D01*
G01X227165D01*
X224434Y157476D01*
Y158461D01*
G02X224986Y158831I400J0D01*
G03X226336Y159141I456J1110D01*
G02X226987Y159063I298J-267D01*
G03X227129Y160501I1147J613D01*
G02X226476Y160551I-309J254D01*
G03X224986Y161051I-1034J-610D01*
G02X224434Y161421I-152J370D01*
G01Y162281D01*
G02X225012Y162639I400J0D01*
G03X226521Y163014I534J1075D01*
G02X227202Y162962I325J-233D01*
G03X227296Y164209I1069J546D01*
G02X226615Y164261I-325J233D01*
G03X225012Y164789I-1069J-546D01*
G02X224434Y165147I-178J358D01*
G01Y166794D01*
X224448Y166830D01*
G03Y167722I-1114J446D01*
G01X224434Y167757D01*
Y174687D01*
X226169D01*
G03Y175828I1056J570D01*
G01X224434D01*
Y177707D01*
G02X225070Y178030I400J0D01*
G03Y179968I708J969D01*
G02X224434Y180292I-236J323D01*
G01Y205787D01*
X215434Y214787D01*
X215434Y214870D01*
G03X215102Y215743I-1300J5D01*
G02X215094Y216268I298J267D01*
G03X212888Y217989I-1070J903D01*
G02X212280Y217940I-325J234D01*
G01X205192Y225029D01*
G02X205400Y225705I283J283D01*
G03X203414Y227691I-316J1671D01*
G02X202738Y227482I-393J74D01*
G01X201653Y228567D01*
Y251576D01*
G02X202049Y251976I400J0D01*
G03X202841Y252257I-15J1300D01*
G02X203477Y252045I248J-314D01*
G03X203927Y253395I1257J331D01*
G02X203291Y253607I-248J314D01*
G03X202049Y254576I-1257J-331D01*
G02X201653Y254976I5J400D01*
G01Y258612D01*
G02X202216Y258977I400J0D01*
G03X202454Y258898I527J1188D01*
G02X202664Y258242I-89J-390D01*
G03X204845Y256902I970J-866D01*
G02X205339Y257137I372J-146D01*
G03X206944Y258852I395J1239D01*
G02X207249Y259393I372J147D01*
G03X208096Y259925I-215J1282D01*
G02X208731Y259948I327J-231D01*
G03X211004Y261052I1003J827D01*
G02X211486Y261527I391J85D01*
G03X210450Y262543I320J1363D01*
G02X209985Y262051I-388J-99D01*
G03X208672Y261526I-251J-1276D01*
G02X208037Y261503I-327J231D01*
G03X205824Y260199I-1003J-827D01*
G02X205518Y259658I-372J-147D01*
G03X204523Y258850I216J-1282D01*
G02X204029Y258614I-372J146D01*
G03X203923Y258643I-395J-1239D01*
G02X203713Y259300I89J390D01*
G03X202216Y261354I-970J866D01*
G02X201653Y261720I-162J366D01*
G01Y261810D01*
X199295Y264168D01*
X199639Y264512D01*
Y267456D01*
G03X199600Y267628I-400J0D01*
G02X199713Y268114I361J172D01*
G03X199059Y270597I-868J1099D01*
G02X198722Y270964I61J395D01*
G03X198606Y271219I-399J-28D01*
G01X198049Y271775D01*
X194100D01*
G03X193817Y271658I0J-400D01*
G02X193251I-283J283D01*
G01X191081Y273828D01*
Y277302D01*
X191134Y277354D01*
Y283638D01*
X191244Y283694D01*
G03X191709Y285821I-628J1252D01*
G03X191134Y287171I-1275J254D01*
G01Y291197D01*
X189534Y292797D01*
Y297154D01*
X189830Y297450D01*
X190050Y297230D01*
X190062Y297170D01*
G03X190908Y298732I1375J265D01*
G02X190434Y299231I26J499D01*
G01Y300493D01*
X191297Y301357D01*
Y304045D01*
G02X191807Y304430I400J0D01*
G03X193167Y304853I357J1250D01*
G02X193845Y304754I309J-254D01*
G03X194024Y306151I1290J544D01*
G02X193344Y306226I-317J243D01*
G03X191807Y306930I-1180J-546D01*
G02X191297Y307315I-110J385D01*
G01Y308528D01*
G02X191699Y308928I400J0D01*
G03Y311728I6J1400D01*
G02X191297Y312128I-2J400D01*
G01Y318095D01*
X190739Y318653D01*
G02X190760Y319238I283J283D01*
G03X190826Y319299I-919J1056D01*
G02X191445Y319231I282J-284D01*
G03X191638Y320980I1179J755D01*
G02X191019Y321048I-282J284D01*
G03X188784Y321213I-1179J-755D01*
G02X188200Y321193I-302J263D01*
G01X186226Y323167D01*
X186211Y323212D01*
G03X185316Y324107I-1331J-436D01*
G01X185270Y324122D01*
X183446Y325947D01*
G02X183675Y326626I283J283D01*
G03X182101Y328200I-187J1388D01*
G02X181422Y327971I-396J53D01*
G01X175667Y333726D01*
X175058D01*
X174708Y334076D01*
X100480D01*
G03X98436I-1022J-804D01*
G01X96896D01*
G03X95032I-932J-907D01*
G01X89244D01*
X89231Y334262D01*
G03X86637I-1297J-87D01*
G01X86624Y334076D01*
X79220D01*
X78869Y333726D01*
X77884D01*
X73661Y329504D01*
X73522Y329610D01*
G03X72514Y329857I-788J-1034D01*
G02X72064Y330133I-68J394D01*
G03X71042Y328467I-1242J-385D01*
G02X71492Y328191I68J-394D01*
G03X73308Y327409I1242J385D01*
G02X73884Y327050I176J-359D01*
G01Y318726D01*
X64821Y309663D01*
Y304102D01*
X64647Y304079D01*
G03Y301501I167J-1289D01*
G01X64821Y301478D01*
Y288963D01*
X64034Y288176D01*
X60965D01*
X60934Y288208D01*
X53165D01*
X42834Y277876D01*
Y269457D01*
G02X42169Y269158I-400J0D01*
G03Y267062I-929J-1048D01*
G02X42834Y266763I265J-299D01*
G01Y254862D01*
G02X42279Y254494I-400J0D01*
G03Y251359I-659J-1567D01*
G02X42834Y250991I155J-369D01*
G01Y233476D01*
X46034Y230276D01*
X46134D01*
X53334Y223076D01*
X57851D01*
X61155Y219772D01*
Y174443D01*
X66348Y169250D01*
X67436D01*
G02X67812Y168712I0J-400D01*
G03X70441I1315J-482D01*
G02X70817Y169250I376J138D01*
G01X79319D01*
G02X79719Y168843I0J-400D01*
G03X82519I1400J-22D01*
G02X82919Y169250I400J6D01*
G01X117855D01*
G03X119685I915J924D01*
G01X120916D01*
G02X121253Y168634I0J-400D01*
G03X122191Y166501I1180J-754D01*
G02X122522Y166102I-69J-394D01*
G03X123928Y164789I1300J-17D01*
G02X124359Y164428I33J-399D01*
G03X124361Y164409I1394J130D01*
G02X124026Y163970I-398J-43D01*
G03X123224Y163508I206J-1284D01*
G02X122707Y163419I-310J253D01*
G03X123123Y161409I-725J-1198D01*
G02X123633Y161532I326J-232D01*
G03X125531Y162749I599J1154D01*
G02X125891Y163167I400J19D01*
G03X125558Y165947I-138J1393D01*
G02X125107Y166282I-56J396D01*
G03X124132Y167347I-1285J-197D01*
G02X123829Y167768I95J388D01*
G03X123612Y168634I-1396J112D01*
G02X123950Y169250I337J215D01*
G01X126756D01*
G02X127151Y168785I0J-400D01*
G03X129717I1283J-210D01*
G02X130112Y169250I395J64D01*
G01X132660D01*
X133639Y168270D01*
Y157927D01*
X132339Y156628D01*
X132275Y156618D01*
G03X131631Y156376I264J-1680D01*
G01X129459D01*
G03X129409I-25J-1700D01*
G01X127848D01*
G03X125684I-1082J-889D01*
G01X123683D01*
G02X123416Y157074I0J400D01*
G03X121684I-866J969D01*
G02X121417Y156376I-267J-298D01*
G01X115134D01*
X113334Y154576D01*
Y132636D01*
X113186Y132596D01*
G03Y129891I362J-1353D01*
G01X113334Y129852D01*
Y124039D01*
X117538Y119834D01*
X117552Y119781D01*
G03X117635Y119547I1356J351D01*
G01X117654Y119507D01*
Y108096D01*
X111206Y101648D01*
Y75764D01*
X115370Y71599D01*
G02X115247Y70950I-283J-283D01*
G03X117193Y69480I558J-1284D01*
G01X117216Y69654D01*
X117654D01*
Y59518D01*
X123016Y54157D01*
Y30588D01*
G03Y27994I937J-1297D01*
G01Y4719D01*
X122188Y3891D01*
X44613D01*
G37*
G36*
G01X111866Y265586D02*
Y264956D01*
X119247Y257575D01*
X133118D01*
X137030Y253664D01*
G02X137027Y253307I-177J-177D01*
G03X136933Y251545I906J-932D01*
G02Y250906I-385J-320D01*
G03X137915Y248775I1001J-830D01*
G02X138408Y248275I-7J-500D01*
G01Y242935D01*
X140288Y241056D01*
X140236Y240932D01*
G03X141937Y239232I1200J-500D01*
G01X142060Y239283D01*
X147434Y233910D01*
Y230076D01*
X147434Y226534D01*
X146558Y225658D01*
X134142D01*
X131958Y227842D01*
Y234072D01*
X117343Y248688D01*
G02X117322Y249230I283J283D01*
G03X115489Y251064I-988J845D01*
G02X114946Y251085I-260J304D01*
G01X113520Y252511D01*
Y252540D01*
X106934Y259126D01*
X90645D01*
X90481Y259289D01*
Y266123D01*
X94486Y270128D01*
X106351D01*
G03X107907Y269412I1241J648D01*
G01X108015Y269437D01*
X111866Y265586D01*
G37*
G36*
G01X140697Y126528D02*
X136950Y130275D01*
Y153308D01*
X135759Y154498D01*
Y167836D01*
X132929Y170666D01*
X129702D01*
G02X129380Y171304I0J400D01*
G03X127288I-1046J772D01*
G02X126966Y170666I-322J-237D01*
G01X125149D01*
G02X124768Y171188I0J400D01*
G03X122291I-1239J396D01*
G02X121910Y170666I-381J-122D01*
G01X119979D01*
X119923Y170774D01*
G03X117616I-1153J-600D01*
G01X117560Y170666D01*
X80824D01*
X80746Y170744D01*
X67214D01*
X63516Y174442D01*
Y222434D01*
X66657Y225575D01*
X71639D01*
G02X72039Y225158I0J-400D01*
G03X72532Y224028I1399J-62D01*
G02X72609Y223505I-259J-305D01*
G03X74689Y223810I1174J-763D01*
G02X74612Y224333I259J305D01*
G03X74438Y226075I-1174J763D01*
G01X74300Y226217D01*
X76545Y228462D01*
X77520D01*
X78203Y229145D01*
X78352Y228996D01*
X78359Y228988D01*
G03X78412Y228925I972J786D01*
G02Y228654I-147J-136D01*
G03X78414Y226955I918J-848D01*
G02Y226683I-147J-136D01*
G03X80247I916J-850D01*
G02Y226955I147J136D01*
G03X80249Y228654I-916J850D01*
G02Y228925I147J136D01*
G03X80249Y230622I-918J848D01*
G02Y230893I147J136D01*
G03X80546Y231446I-919J848D01*
G01X80559Y231501D01*
X88334Y239276D01*
Y240874D01*
X88461Y240923D01*
G03X88721Y241062I-476J1210D01*
G02X89247Y240998I227J-330D01*
G03X91201Y242714I972J863D01*
G02X91222Y243261I302J262D01*
G03X90409Y245483I-913J926D01*
G01X90335Y245489D01*
X90141Y245683D01*
X90534Y246075D01*
X91534D01*
Y246476D01*
X93034D01*
Y249426D01*
X93534Y249926D01*
X98323D01*
X102643Y245606D01*
Y243450D01*
X102273D01*
Y240586D01*
X102643Y240216D01*
Y238367D01*
X102809Y238201D01*
X102764Y238080D01*
G03X103018Y236797I1172J-435D01*
G02Y236526I-147J-136D01*
G03Y234829I918J-848D01*
G02Y234558I-147J-136D01*
G03Y232861I918J-848D01*
G02Y232590I-147J-136D01*
G03X103018Y230893I918J-848D01*
G02Y230622I-147J-136D01*
G03X103018Y228925I919J-848D01*
G02Y228654I-147J-136D01*
G03Y226957I918J-848D01*
G02Y226686I-147J-136D01*
G03X104010Y224589I918J-848D01*
G02X104434Y224190I24J-399D01*
G01Y222076D01*
X103134Y220776D01*
Y219175D01*
X98228Y214268D01*
G02X97550Y214483I-283J283D01*
G03X97333Y215010I-1281J-221D01*
G02X97371Y215518I327J230D01*
G03X97418Y217267I-938J900D01*
G02X97430Y217541I151J131D01*
G03X95648Y219434I-904J935D01*
G02X95370Y219441I-135J147D01*
G03X93339Y217845I-925J-914D01*
G02X93272Y217343I-340J-210D01*
G03X93206Y215515I890J-948D01*
G02X93192Y215231I-147J-135D01*
G03X94904Y213274I868J-968D01*
G02X95424I260J-304D01*
G03X96425Y212972I845J988D01*
G01X96522Y212983D01*
X96732Y212773D01*
X96241Y212282D01*
X96173Y212274D01*
G03X95040Y211141I157J-1291D01*
G01X95031Y211072D01*
X89951Y205992D01*
Y205875D01*
X89895Y205819D01*
Y205786D01*
G02X89572Y205627I-200J0D01*
G03X88012Y203548I-796J-1028D01*
G02X88042Y202925I-235J-323D01*
G03X88184Y200871I863J-972D01*
G02X88219Y200231I-222J-333D01*
G03X87810Y198852I834J-997D01*
G02X87600Y198374I-382J-117D01*
G03X87356Y198221I561J-1173D01*
G02X86804Y198275I-248J314D01*
G03X86623Y196408I-987J-846D01*
G02X87174Y196354I248J-314D01*
G03X89349Y197730I987J846D01*
G02X89468Y198001I183J81D01*
G03X89609Y198058I-415J1232D01*
G01X89650Y198077D01*
X89895D01*
Y191772D01*
X89951Y191716D01*
Y191259D01*
X96084Y185126D01*
X115084D01*
X115306Y185347D01*
X115787D01*
G03X117935Y186775I1166J576D01*
G01X117813Y186915D01*
X120273Y189376D01*
X125519D01*
X126634Y188261D01*
Y187305D01*
X128176Y185763D01*
G02X128142Y185167I-283J-283D01*
G03X130142Y184675I810J-1017D01*
G02X130508Y185236I366J161D01*
G01X139076D01*
G03X140926Y184807I1126J651D01*
G02X141191Y184768I111J-166D01*
G03X143401Y185111I1003J827D01*
G01X143451Y185236D01*
X144458D01*
X153206Y176488D01*
Y175937D01*
G03Y174414I928J-761D01*
G01Y164397D01*
X153181Y164352D01*
G03Y163199I1052J-577D01*
G01X153206Y163154D01*
Y160490D01*
G03Y158933I1041J-779D01*
G01Y153285D01*
X154251Y152240D01*
Y152195D01*
X157140Y149306D01*
X160949D01*
G02X161328Y148778I0J-400D01*
G03X163514Y147810I1136J-387D01*
G02X164214I350J-194D01*
G03X166314I1050J581D01*
G02X167014I350J-194D01*
G03X169200Y148778I1050J581D01*
G02X169579Y149306I379J129D01*
G01X170017D01*
Y149056D01*
X169994Y149012D01*
G03X172202Y148792I1059J-565D01*
G02X172585Y149306I383J115D01*
G01X175010D01*
G02X175366Y148724I0J-400D01*
G03X175880Y147111I1068J-548D01*
G02X175963Y146458I-185J-355D01*
G03X177381Y146667I868J-968D01*
G02X177272Y147316I169J362D01*
G03X177458Y148802I-838J860D01*
G02X177799Y149411I341J209D01*
G01X181461D01*
G02X181828Y148852I0J-400D01*
G03X184031I1101J-477D01*
G02X184398Y149411I367J159D01*
G01X184716D01*
G02X185101Y148904I0J-400D01*
G03X187413I1156J-323D01*
G02X187798Y149411I385J108D01*
G01X191252D01*
G02X191622Y148860I0J-400D01*
G03X193801Y147857I1111J-453D01*
G02X194433Y147962I356J-183D01*
G03X196631Y148985I901J938D01*
G02X197031Y149411I399J26D01*
G01X200257D01*
G02X200644Y148912I0J-400D01*
G03X201090Y147651I1163J-298D01*
G02X201009Y146963I-239J-321D01*
G03X202201Y146823I475J-1102D01*
G02X202282Y147511I239J321D01*
G03X202969Y148912I-475J1102D01*
G02X203357Y149411I387J99D01*
G01X205177D01*
X207014Y147574D01*
Y142579D01*
X209060Y140533D01*
X211190D01*
X212291Y139432D01*
Y135869D01*
X212177Y135755D01*
Y134993D01*
G02X211591Y134639I-400J0D01*
G03Y132513I-557J-1063D01*
G02X212177Y132158I186J-354D01*
G01Y129324D01*
X209380Y126528D01*
X208622D01*
G02X208247Y127066I0J400D01*
G03X207701Y128528I-1127J413D01*
G02Y129228I194J350D01*
G03X206538I-581J1050D01*
G02Y128528I-194J-350D01*
G03X205993Y127066I581J-1050D01*
G02X205617Y126528I-376J-138D01*
G01X204796D01*
G02X204402Y126997I0J400D01*
G03X202038I-1182J207D01*
G02X201644Y126528I-394J-69D01*
G01X200749D01*
G02X200395Y127115I0J400D01*
G03X200040Y128646I-1061J561D01*
G02X199991Y129251I235J324D01*
G03X199719Y131146I-853J844D01*
G02Y131846I194J350D01*
G03X198556I-581J1050D01*
G02Y131146I-194J-350D01*
G03X198432Y129125I581J-1050D01*
G02X198481Y128520I-235J-324D01*
G03X198273Y127115I853J-844D01*
G02X197919Y126528I-354J-187D01*
G01X193482D01*
G02X193086Y126985I0J400D01*
G03X190710I-1188J170D01*
G02X190314Y126528I-396J-57D01*
G01X189382D01*
G02X189004Y127058I0J400D01*
G03X186735I-1135J391D01*
G02X186356Y126528I-378J-130D01*
G01X185483D01*
G02X185105Y127058I0J400D01*
G03X184551Y128499I-1135J391D01*
G02Y129199I194J350D01*
G03X184738Y131170I-581J1050D01*
G02X184730Y131777I256J307D01*
G03X183165Y131754I-796J899D01*
G02X183174Y131147I-256J-307D01*
G03X183388Y129199I796J-899D01*
G02Y128499I-194J-350D01*
G03X182835Y127058I581J-1050D01*
G02X182457Y126528I-378J-130D01*
G01X177978D01*
G02X177600Y127058I0J400D01*
G03X177047Y128500I-1135J391D01*
G02Y129200I194J350D01*
G03X175884I-581J1050D01*
G02Y128500I-194J-350D01*
G03X175331Y127058I581J-1050D01*
G02X174953Y126528I-378J-130D01*
G01X174078D01*
G02X173700Y127058I0J400D01*
G03X171430I-1135J390D01*
G02X171052Y126528I-378J-130D01*
G01X170549D01*
G02X170195Y127115I0J400D01*
G03X168073I-1061J561D01*
G02X167719Y126528I-354J-187D01*
G01X160029D01*
G03X158374I-828J-869D01*
G01X148013D01*
X147971Y126549D01*
G03X146897I-537J-1073D01*
G01X146855Y126528D01*
X140697D01*
G37*
G36*
G01X107057Y219576D02*
X106909Y219723D01*
Y219922D01*
X106912Y219940D01*
G03X106925Y220326I-1279J235D01*
G03X106912Y220711I-1292J150D01*
G01X106909Y220729D01*
Y240271D01*
X106502Y240678D01*
X105437D01*
Y240713D01*
X104533D01*
X104491Y240734D01*
G03X103600Y240818I-554J-1121D01*
G01X103488Y240786D01*
X103274Y241000D01*
Y241920D01*
G02X103737Y242315I400J0D01*
G03X104491Y242429I199J1234D01*
G01X104533Y242450D01*
X105437D01*
Y244650D01*
X105014D01*
X98138Y251526D01*
X92670D01*
Y256711D01*
X93484Y257526D01*
X99440D01*
G02X99770Y256898I0J-400D01*
G03X101908I1069J-740D01*
G02X102237Y257526I329J228D01*
G01X106501D01*
X106871Y257156D01*
X106684Y256969D01*
X106621Y256958D01*
G03X108042Y255195I213J-1283D01*
G02X108696Y255330I372J-148D01*
G01X114482Y249545D01*
G02X114306Y248877I-283J-283D01*
G03X113516Y248253I348J-1253D01*
G02X112876Y248171I-350J194D01*
G03X111445Y248480I-943J-896D01*
G02X110927Y248692I-151J371D01*
G03X110223Y246971I-1193J-516D01*
G02X110741Y246759I151J-371D01*
G03X112032Y245979I1193J516D01*
G02X112462Y245588I30J-399D01*
G03X115009Y245980I1300J24D01*
G02X115219Y246453I384J113D01*
G03X115907Y247276I-565J1171D01*
G02X116575Y247451I385J-107D01*
G01X130698Y233328D01*
Y220293D01*
X129981Y219576D01*
X107057D01*
G37*
G36*
G01X51655Y231276D02*
X51155Y231776D01*
X48534D01*
X45834Y234476D01*
X45634Y234676D01*
Y278176D01*
X53934Y286476D01*
X64817D01*
G02X65205Y285979I0J-400D01*
G03X65514Y284781I1262J-314D01*
G02X65490Y284213I-293J-272D01*
G03X65619Y282185I874J-962D01*
G02X65595Y281514I-229J-328D01*
G03X65077Y279864I667J-1116D01*
G02X64993Y279607I-182J-82D01*
G03X64571Y277726I641J-1132D01*
G02X64266Y276948I-409J-288D01*
G03X63617Y274753I268J-1272D01*
G02Y274398I-176J-177D01*
G03X63704Y272474I916J-923D01*
G03X64516Y271226I1300J-43D01*
G02X64752Y270748I-150J-371D01*
G03X66336Y271659I1253J-347D01*
G02X66203Y271930I51J193D01*
G03X66217Y271965I-1200J501D01*
G02X66434Y272091I187J-72D01*
G03X67603Y274242I199J1285D01*
G02Y274909I373J333D01*
G03X67931Y275690I-969J867D01*
G03X67111Y277483I-1181J544D01*
G02X66848Y278010I111J384D01*
G03X66889Y278138I-1215J464D01*
G02X67726Y278362I483J-130D01*
G01X68612Y277476D01*
X74045D01*
G02X74397Y276620I0J-500D01*
G03X76414Y275005I915J-924D01*
G03X76851Y276854I-645J1129D01*
G02X77184Y277476I333J222D01*
G01X81266D01*
Y277521D01*
X82808Y279063D01*
Y285935D01*
X87216Y290343D01*
G02X87797Y290326I283J-283D01*
G03X89633Y292161I972J864D01*
G02X89616Y292743I266J299D01*
G01X91767Y294895D01*
X91888Y294850D01*
G03X93469Y295424I453J1219D01*
G01X94897D01*
G03X97183I1143J619D01*
G01X98078D01*
X98135Y295319D01*
G03X100420I1142J621D01*
G01X100476Y295424D01*
X106220D01*
X110480Y291164D01*
X110740D01*
X118418Y283486D01*
Y283311D01*
X118562Y283167D01*
X118572Y283103D01*
G03X119658Y282017I1285J199D01*
G01X119722Y282007D01*
X120166Y281564D01*
X121458D01*
G02X121853Y281096I0J-400D01*
G03X124415I1281J-220D01*
G02X124810Y281564I394J68D01*
G01X128909D01*
G02X129309Y281150I0J-400D01*
G03X131630Y279510I1699J-58D01*
G01X131752Y279558D01*
X134229Y277080D01*
X134228Y276996D01*
G03X134539Y276134I1300J-17D01*
G02X134512Y275586I-304J-260D01*
G03X135988Y273482I901J-937D01*
G02X136534Y273275I177J-359D01*
G03X137811Y272469I1203J492D01*
G02X138234Y272070I23J-399D01*
G01Y259576D01*
X137234Y258576D01*
X119661D01*
X112866Y265370D01*
Y267689D01*
X109289Y271266D01*
X108910D01*
X108856Y271380D01*
G03X108593Y271755I-1263J-604D01*
G02X108598Y272320I286J280D01*
G03X106617Y272340I-981J999D01*
G02X106611Y271775I-286J-280D01*
G03X106328Y271380I981J-999D01*
G01X106274Y271266D01*
X96022D01*
G02X95719Y271927I0J400D01*
G03X93749I-985J849D01*
G02X93507Y271270I-303J-261D01*
G01X93350Y271113D01*
X93188Y271275D01*
X93174Y271300D01*
G03X91242Y269644I-1141J-624D01*
G02X91281Y269044I-244J-317D01*
G01X86334Y264097D01*
Y263176D01*
X86034Y262876D01*
Y262825D01*
G02X85792Y262575I-250J0D01*
G03X85587Y262552I42J-1300D01*
G03X85280Y260099I-553J-1177D01*
G03X85792Y259976I553J1177D01*
G02X86034Y259726I-8J-250D01*
G01Y257676D01*
X90534Y253176D01*
Y248578D01*
X90513Y248536D01*
G03Y247421I1119J-558D01*
G01X90534Y247379D01*
Y247076D01*
X89134D01*
X88834Y247376D01*
Y247461D01*
G03X88849Y248460I-1138J517D01*
G01X88834Y248497D01*
Y249176D01*
X87195Y250815D01*
X86443D01*
X86432Y250826D01*
X77566D01*
X77555Y250815D01*
X77228D01*
X77195Y250976D01*
G03X74646Y250464I-1275J-255D01*
G01X74667Y250359D01*
X74379Y250071D01*
X74200Y250249D01*
X74186Y250300D01*
G03X73496Y248689I-1349J-376D01*
G02X74084Y248336I188J-353D01*
G01Y248147D01*
X73259Y247322D01*
X73258D01*
X57884Y231947D01*
Y231276D01*
X51655D01*
G37*
G36*
G01X61234Y226576D02*
X59434Y228376D01*
Y231376D01*
X71841Y243783D01*
G02X72650Y243637I354J-353D01*
G03X72802Y243384I1184J539D01*
G02X72719Y242689I-397J-305D01*
G03X72413Y241016I814J-1014D01*
G02X72328Y240508I-345J-203D01*
G03X72089Y238798I843J-990D01*
G03X74416Y239896I1244J377D01*
G03X74223Y240284I-1244J-378D01*
G02X74383Y240691I499J38D01*
G03X74557Y242477I-849J985D01*
G02X74648Y243162I404J295D01*
G03X74372Y245359I-815J1014D01*
G02X74226Y246168I207J455D01*
G01X77234Y249176D01*
X77330D01*
X77980Y249826D01*
X82492D01*
G02X82799Y249169I0J-400D01*
G03X84718I960J-801D01*
G02X85025Y249826I307J256D01*
G01X86017D01*
X86331Y249511D01*
Y243829D01*
X86334Y243828D01*
Y240576D01*
X84791Y239033D01*
X84662Y239056D01*
G03X83154Y237547I-229J-1280D01*
G01X83177Y237419D01*
X82584Y236826D01*
X79827D01*
X79792Y236840D01*
G03X78870I-461J-1162D01*
G01X78834Y236826D01*
X78584D01*
X77934Y236176D01*
Y231710D01*
X72800Y226576D01*
X61234D01*
G37*
G36*
G01X157554Y150307D02*
X155252Y152609D01*
Y158886D01*
G03Y160537I-1004J826D01*
G01Y163137D01*
X155278Y163183D01*
G03X155280Y163187I-1046J589D01*
G02X155959Y163216I349J-196D01*
G03X158034Y163117I1075J732D01*
G02X158693Y163053I308J-256D01*
G03X160724Y162728I1141J623D01*
G02X161271Y162729I274J-292D01*
G03X161268Y164627I887J951D01*
G02X160721Y164626I-274J292D01*
G03X158834Y164507I-887J-951D01*
G02X158175Y164571I-308J256D01*
G03X155756Y164189I-1141J-623D01*
G02X155370Y164162I-197J37D01*
G03X155278Y164368I-1136J-386D01*
G01X155252Y164414D01*
Y174737D01*
X155263Y174770D01*
G03Y175582I-1130J406D01*
G01X155252Y175614D01*
Y176960D01*
X154785Y177427D01*
G02X154859Y178051I283J283D01*
G03X155167Y178321I-625J1024D01*
G02X155767Y178346I311J-252D01*
G03X155701Y179931I867J830D01*
G02X155101Y179906I-311J252D01*
G03X153209Y179701I-867J-830D01*
G02X152585Y179626I-341J208D01*
G01X147240Y184971D01*
G02X147373Y185624I283J283D01*
G03X145809Y187188I-452J1112D01*
G02X145156Y187056I-371J151D01*
G01X144401Y187811D01*
X143180D01*
X143177Y188008D01*
G03X140577I-1300J-20D01*
G01X140574Y187811D01*
X133231D01*
G02X132832Y188225I0J400D01*
G03X130033I-1399J51D01*
G02X129633Y187811I-400J-14D01*
G01X128499D01*
X128034Y188276D01*
X127986Y188323D01*
X125834Y190476D01*
X119959D01*
X118454Y188971D01*
G02X117773Y189287I-283J283D01*
G03X116584Y188098I-1296J107D01*
G02X116900Y187417I33J-399D01*
G01X116679Y187195D01*
X116626Y187182D01*
G03X115770Y186464I327J-1259D01*
G01X115717Y186348D01*
X96734D01*
X90895Y192187D01*
Y205405D01*
X95478Y209988D01*
X95614Y209898D01*
G03X97416Y211699I716J1085D01*
G01X97326Y211836D01*
X103466Y217976D01*
X131109D01*
X136859Y223726D01*
X146198D01*
X149048Y226576D01*
Y234376D01*
X144784Y238639D01*
G02X144803Y239222I283J283D01*
G03X144854Y241128I-858J977D01*
G02X144958Y241773I280J286D01*
G03X145315Y242032I-573J1167D01*
G02X145982Y241878I286J-279D01*
G03X146286Y243190I1236J405D01*
G02X145620Y243345I-286J279D01*
G03X143368Y243751I-1236J-405D01*
G02X142747Y243745I-313J249D01*
G03X140607Y243540I-1001J-830D01*
G02X139973Y243450I-351J192D01*
G01X139599Y243824D01*
Y272842D01*
X139234Y273207D01*
Y273490D01*
X139038Y273686D01*
X139038Y273769D01*
G03X137739Y275067I-1300J-2D01*
G01X137656Y275068D01*
X136556Y276168D01*
X136638Y276302D01*
G03X134851Y278089I-1110J677D01*
G01X134717Y278007D01*
X132485Y280239D01*
X132545Y280366D01*
G03X130200Y282588I-1537J726D01*
G01X130155Y282564D01*
X129877D01*
X127856Y284585D01*
X120068D01*
X120054Y284587D01*
G03X119752Y284598I-196J-1285D01*
G01X119659Y284590D01*
X117456Y286793D01*
G02X117775Y287475I283J283D01*
G03X116505Y288744I125J1395D01*
G02X115824Y288426I-398J-36D01*
G01X110860Y293390D01*
Y297336D01*
X112299Y298776D01*
X160861D01*
X167834Y291802D01*
Y280776D01*
X169451Y279159D01*
G02X169258Y278486I-283J-283D01*
G03X169133Y275988I293J-1267D01*
G02X169344Y275400I-129J-379D01*
G03X170870Y275948I1107J-682D01*
G02X170658Y276537I129J379D01*
G03X170818Y276926I-1107J683D01*
G02X171490Y277119I390J-90D01*
G01X178334Y270276D01*
X188662D01*
X192434Y266504D01*
Y257372D01*
G02X191775Y257067I-400J0D01*
G03Y255084I-841J-991D01*
G02X192434Y254779I259J-305D01*
G01Y251671D01*
G02X191728Y251414I-400J0D01*
G03Y249738I-994J-838D01*
G02X192434Y249480I306J-258D01*
G01Y246276D01*
X193334Y245376D01*
Y224576D01*
X210634Y207276D01*
X213834D01*
X217988Y203121D01*
G02X217898Y202488I-283J-283D01*
G03X218526Y200237I579J-1051D01*
G02X218734Y200038I8J-200D01*
G01Y200035D01*
G02X218526Y199835I-200J0D01*
G03X217895Y197586I-49J-1199D01*
G02X217895Y196887I-194J-350D01*
G03X218370Y194642I582J-1050D01*
G02X218734Y194243I-36J-398D01*
G01Y193922D01*
X218515D01*
X218497Y193926D01*
G03X218319Y191547I-222J-1180D01*
G02X218734Y191147I15J-400D01*
G01Y190875D01*
X216134Y188276D01*
Y187103D01*
X214941Y185910D01*
X214831Y185938D01*
G03X214609Y183578I-297J-1163D01*
G02X215034Y183179I25J-399D01*
G01Y180367D01*
X215142Y180259D01*
G02X215053Y179626I-283J-283D01*
G03X215709Y177378I581J-1050D01*
G02X216134Y176979I25J-399D01*
G01Y176206D01*
G02X215445Y175929I-400J0D01*
G03Y174269I-867J-830D01*
G02X216134Y173992I289J-277D01*
G01Y172097D01*
X213234Y169197D01*
Y166676D01*
G03X214013Y165360I1500J0D01*
G01X214038Y165346D01*
X214169Y165216D01*
G02X214098Y164593I-283J-283D01*
G03X215848Y163129I636J-1018D01*
G02X216484Y163281I371J-149D01*
G03X218474Y164091I793J901D01*
G01X218488Y164276D01*
X219036D01*
Y164028D01*
X219015Y163986D01*
G03X219650Y162327I1072J-541D01*
G01X219778Y162277D01*
Y161940D01*
X219025D01*
X217502Y160417D01*
Y156539D01*
X215768Y154806D01*
X213132D01*
X210102Y151776D01*
X209812D01*
X208448Y150411D01*
X187669D01*
G02X187316Y151000I0J400D01*
G03X185198I-1059J565D01*
G02X184845Y150411I-353J-188D01*
G01X184129D01*
G02X183830Y151077I0J400D01*
G03X182038I-896J798D01*
G02X181739Y150411I-299J-266D01*
G01X181493D01*
G02X181140Y151000I0J400D01*
G03X179022I-1059J565D01*
G02X178669Y150411I-353J-188D01*
G01X175396D01*
X175292Y150307D01*
X157554D01*
G37*
G36*
G01X25034Y298676D02*
X23534Y300176D01*
Y308876D01*
X20434Y311976D01*
Y319176D01*
X18134Y321476D01*
Y327476D01*
X19134Y328476D01*
X32834D01*
X35834Y325476D01*
Y319873D01*
G02X35217Y319537I-400J0D01*
G03X33454Y319197I-704J-1093D01*
G02X32861Y319131I-326J232D01*
G03X33055Y317407I-866J-970D01*
G02X33647Y317474I326J-232D01*
G03X33848Y317326I866J970D01*
G02X33947Y316722I-205J-344D01*
G03X35316Y314633I987J-847D01*
G02X35834Y314251I118J-382D01*
G01Y303476D01*
X31034Y298676D01*
X25034D01*
G37*
G36*
G01X180434Y275176D02*
X180408Y275202D01*
X177996D01*
X174000Y279199D01*
Y290806D01*
X173982Y290824D01*
Y290948D01*
X160954Y303976D01*
X157981D01*
G02X157622Y304552I0J400D01*
G03X155109I-1257J617D01*
G02X154750Y303976I-359J-176D01*
G01X149849D01*
G02X149450Y304388I0J400D01*
G03X146850I-1300J39D01*
G02X146451Y303976I-400J-12D01*
G01X127033D01*
X122834Y308176D01*
X118678D01*
X107160Y296657D01*
X100362D01*
G03X100036Y296996I-1085J-717D01*
G02X99927Y297528I233J325D01*
G03X98060Y299260I-1112J673D01*
G02X97535Y299315I-232J326D01*
G03X95332Y298798I-955J-882D01*
G02X94788Y298545I-384J113D01*
G03X93002Y297654I-521J-1191D01*
G02X92549Y297352I-389J93D01*
G03X91078Y295757I-209J-1283D01*
G01X91105Y295647D01*
X87066Y291607D01*
G02X86395Y291793I-283J283D01*
G03X84817Y290215I-1261J-317D01*
G02X85002Y289544I-98J-388D01*
G01X81421Y285962D01*
Y279644D01*
X80753Y278976D01*
X69234D01*
X67934Y280276D01*
Y310076D01*
X75534Y317676D01*
Y328976D01*
X79634Y333076D01*
X82646D01*
G02X83043Y332628I0J-400D01*
G03X83636Y331379I1291J-153D01*
G02X83659Y330720I-215J-338D01*
G03X85132Y330772I775J-1044D01*
G02X85108Y331431I215J338D01*
G03X85625Y332628I-774J1044D01*
G02X86022Y333076I397J47D01*
G01X87241D01*
G03X88627I693J1100D01*
G01X94657D01*
X94689Y332915D01*
G03X97239I1275J255D01*
G01X97271Y333076D01*
X98164D01*
X98204Y332928D01*
G03X100712I1254J343D01*
G01X100752Y333076D01*
X104633D01*
G02X105032Y332647I0J-400D01*
G03X105299Y331760I1297J-93D01*
G02X105255Y331223I-317J-244D01*
G03X107171Y331066I887J-951D01*
G02X107215Y331603I317J244D01*
G03X107626Y332647I-887J951D01*
G02X108024Y333076I399J29D01*
G01X174294D01*
X178808Y328562D01*
G02X178526Y327879I-283J-283D01*
G03X179929Y326476I3J-1400D01*
G02X180611Y326758I400J-1D01*
G01X183757Y323613D01*
G03X185716Y321653I1123J-836D01*
G01X187930Y319440D01*
G02X187938Y318883I-283J-283D01*
G03X188762Y316535I1019J-961D01*
G01X188934Y316511D01*
Y311321D01*
X188829Y311264D01*
G03Y308978I620J-1143D01*
G01X188934Y308922D01*
Y298676D01*
X188034Y297776D01*
Y292176D01*
X189634Y290576D01*
Y287101D01*
G03X189304Y285432I800J-1025D01*
G03X189634Y283948I1313J-487D01*
G01Y276476D01*
X188334Y275176D01*
X180434D01*
G37*
G36*
G01X117684Y127026D02*
X115884Y128826D01*
Y153276D01*
X117384Y154776D01*
X125560D01*
G03X127341Y154210I1206J711D01*
G02X127872Y154004I164J-365D01*
G03X130786Y153645I1562J672D01*
G02X131378Y153695I318J-242D01*
G03X133709Y153705I1161J1243D01*
G02X133988Y153702I138J-145D01*
G01X135912Y151778D01*
Y130030D01*
X132908Y127026D01*
X117684D01*
G37*
G36*
G01X214022Y138624D02*
Y139728D01*
G02X214560Y140104I400J0D01*
G03X213777Y141341I413J1127D01*
G02X213096Y141094I-398J37D01*
G01X212415Y141776D01*
X212047D01*
Y142030D01*
X212074Y142076D01*
G03X209854Y142455I-1040J600D01*
G01X209874Y142351D01*
X209658Y142135D01*
X209285Y142508D01*
Y147427D01*
X209434Y147576D01*
Y149276D01*
X210434Y150275D01*
X218434D01*
G02X218822Y149776I0J-400D01*
G03X218803Y149692I1162J-300D01*
G02X218174Y149441I-393J72D01*
G03X218647Y148255I-707J-970D01*
G02X219277Y148506I393J-72D01*
G03X221146Y149776I707J970D01*
G02X221533Y150275I387J100D01*
G01X223555D01*
X223955Y150676D01*
X225233D01*
G03X226735I751J936D01*
G01X242926D01*
G02X243231Y150017I0J-400D01*
G03X245062I915J-776D01*
G02X245367Y150676I305J259D01*
G01X254763D01*
X254806Y150534D01*
G03X257293I1243J381D01*
G01X257336Y150676D01*
X259012D01*
X259045Y150517D01*
G03X262372I1663J352D01*
G01X262405Y150676D01*
X268206D01*
Y150876D01*
X276168Y158839D01*
X284434D01*
X284893Y158379D01*
X285137D01*
X287434Y156083D01*
Y139876D01*
X286183Y138624D01*
X282296D01*
X282257Y138642D01*
G03X281106I-575J-1277D01*
G01X281067Y138624D01*
X280841D01*
X280797Y138766D01*
G03X278120I-1339J-411D01*
G01X278077Y138624D01*
X276312D01*
G03X273515I-1398J-967D01*
G01X272539D01*
G02X272139Y139023I0J400D01*
G03X269338I-1400J-6D01*
G02X268938Y138624I-400J2D01*
G01X214022D01*
G37*
G36*
G01X245934Y175576D02*
X244634Y176876D01*
Y177933D01*
G03Y180125I-700J1096D01*
G01Y187776D01*
X248294Y191436D01*
X248410Y191399D01*
G03X250043Y193032I394J1239D01*
G01X250006Y193148D01*
X250837Y193979D01*
G02X251429Y193950I283J-283D01*
G03X253259Y195780I1005J825D01*
G02X253230Y196372I254J309D01*
G01X253534Y196676D01*
Y218878D01*
G02X253808Y219324I500J0D01*
G03X252041Y223588I7596J5646D01*
G02X251362Y223247I-396J-58D01*
G01X250927Y223682D01*
Y227360D01*
X250941Y227374D01*
Y230721D01*
X270180Y249959D01*
Y268674D01*
G02X270791Y269013I400J0D01*
G03Y271392I739J1189D01*
G02X270180Y271731I-211J340D01*
G01Y293608D01*
X268762Y295026D01*
G02X268743Y295571I283J283D01*
G03X268844Y295704I-982J852D01*
G02X269177I167J-111D01*
G03X271216Y295542I1083J719D01*
G02X271804I294J-271D01*
G03X273716I956J881D01*
G02X274304I294J-271D01*
G03X276216I956J881D01*
G02X276805I294J-271D01*
G03X278716I956J881D01*
G02X279304I294J-271D01*
G03X281142Y297379I956J881D01*
G02Y297967I271J294D01*
G03Y299879I-881J956D01*
G02Y300467I271J294D01*
G03Y302379I-881J956D01*
G02Y302967I271J294D01*
G03Y304879I-881J956D01*
G02Y305467I271J294D01*
G03X279304Y307304I-881J956D01*
G02X278716I-294J271D01*
G03X276805I-956J-881D01*
G02X276216I-294J271D01*
G03X274304I-956J-881D01*
G02X273716I-294J271D01*
G03X271804I-956J-881D01*
G02X271216I-294J271D01*
G03X269304I-956J-881D01*
G02X268716I-294J271D01*
G03X266879Y305467I-956J-881D01*
G02Y304879I-271J-294D01*
G03Y302967I881J-956D01*
G02Y302379I-271J-294D01*
G03Y300467I881J-956D01*
G02Y299879I-271J-294D01*
G03Y297967I881J-956D01*
G02Y297379I-271J-294D01*
G03X266794Y297292I881J-956D01*
G02X266503Y297285I-149J134D01*
G01X258802Y304986D01*
X245306D01*
X243134Y307158D01*
Y329575D01*
X243243Y329630D01*
G03X243595Y329885I-636J1247D01*
G02X244157Y329886I282J-284D01*
G03X244208Y331785I913J926D01*
G02X243646Y331817I-265J299D01*
G03X243243Y332126I-1039J-939D01*
G01X243134Y332181D01*
Y339053D01*
G03X243276Y340339I-1050J767D01*
G01X243222Y340464D01*
X244146Y341388D01*
X244309Y341303D01*
G03X246065Y343058I604J1152D01*
G01X245979Y343221D01*
X248724Y345966D01*
Y347198D01*
X248870Y347239D01*
G03Y349740I-356J1250D01*
G01X248724Y349781D01*
Y361079D01*
X252973Y365327D01*
X344010D01*
X345734Y363603D01*
Y332336D01*
G02X345214Y331955I-400J0D01*
G03Y329284I-421J-1335D01*
G02X345734Y328902I120J-381D01*
G01Y269286D01*
G02X345127Y268944I-400J0D01*
G03Y266547I-724J-1198D01*
G02X345734Y266205I207J-342D01*
G01Y221308D01*
X343673Y219247D01*
G02X343104Y219251I-283J283D01*
G03X342973Y219369I-1003J-977D01*
G02X343006Y220019I249J313D01*
G03X343259Y221997I-701J1095D01*
G02Y222541I294J272D01*
G03X341351I-954J883D01*
G02Y221997I-294J-272D01*
G03X341455Y220130I954J-883D01*
G02X341395Y219482I-262J-303D01*
G03X340781Y217807I706J-1209D01*
G02X340404Y217274I-377J-133D01*
G01X332328D01*
G02X331930Y217638I0J400D01*
G03X329340I-1295J-119D01*
G02X328942Y217274I-398J37D01*
G01X319291D01*
X315055Y213038D01*
Y186361D01*
X311320Y182626D01*
X272684D01*
X265634Y175576D01*
X249036D01*
G03X249032I-2J-1300D01*
G01X245934D01*
G37*
%LPC*%
G75*
G36*
G01X211564Y378835D02*
G03X211584Y378302I308J-256D01*
G02X209501Y378223I-1007J-973D01*
G03X209480Y378757I-308J256D01*
G02X211564Y378835I1007J973D01*
G37*
G36*
G01X248614Y369900D02*
G03X247977I-318J-242D01*
G02X245454Y372423I-1432J1091D01*
G03Y373059I-242J318D01*
G02Y375923I1091J1432D01*
G03Y376559I-242J318D01*
G02X247977Y379082I1091J1432D01*
G03X248614I318J242D01*
G02X251477I1432J-1091D01*
G03X252114I318J242D01*
G02X252454Y379423I1432J-1091D01*
G03Y380059I-242J318D01*
G02Y382923I1091J1432D01*
G03Y383559I-242J318D01*
G02X254636I1091J1432D01*
G03Y382923I242J-318D01*
G02Y380059I-1091J-1432D01*
G03Y379423I242J-318D01*
G02Y376559I-1091J-1432D01*
G03Y375923I242J-318D01*
G02Y373059I-1091J-1432D01*
G03Y372423I242J-318D01*
G02X252114Y369900I-1091J-1432D01*
G03X251477I-318J-242D01*
G02X248614I-1432J1091D01*
G37*
G36*
G01X209125Y358550D02*
G03X209650Y358512I284J282D01*
G02X209510Y356558I782J-1038D01*
G03X208985Y356595I-284J-282D01*
G02X209125Y358550I-782J1038D01*
G37*
G36*
G01X224750Y356171D02*
G03X224317Y355777I-33J-399D01*
G02X221650Y355196I-1400J15D01*
G03X221001Y355306I-362J-170D01*
G02X219903Y357680I-1003J977D01*
G03X220275Y358082I-27J399D01*
G02X222930Y357470I1400J10D01*
G03X223085Y357182I179J-89D01*
G02X223235Y357156I-167J-1390D01*
G03X223479Y357377I45J195D01*
G02X225733Y358666I1387J189D01*
G03X226258Y358692I248J314D01*
G02X228423Y358409I969J-1010D01*
G03X228689Y358337I171J104D01*
G02X228158Y356377I665J-1232D01*
G03X227892Y356449I-171J-104D01*
G02X226360Y356582I-665J1232D01*
G03X225836Y356556I-248J-314D01*
G02X224750Y356171I-969J1010D01*
G37*
G36*
G01X243700Y353691D02*
G03X243188Y353557I-180J-357D01*
G02X241019Y353575I-1079J726D01*
G03X240457Y353686I-335J-218D01*
G02X240809Y355465I-738J1070D01*
G03X241371Y355354I335J218D01*
G02X242696Y355444I738J-1071D01*
G03X243208Y355577I180J357D01*
G02X243700Y353691I1079J-726D01*
G37*
G36*
G01X101113Y339733D02*
G03X101654I271J295D01*
G02Y337818I879J-958D01*
G03X101113I-271J-295D01*
G02Y339733I-879J958D01*
G37*
G36*
G01X133472Y339942D02*
G03X133377Y339359I219J-335D01*
G02X131646Y339642I-1020J-806D01*
G03X131742Y340224I-219J335D01*
G02X133285Y342221I1020J806D01*
G03X133541Y342309I80J183D01*
G02X135663Y342543I1142J-621D01*
G03X136263Y342540I301J263D01*
G02X136254Y340820I971J-865D01*
G03X135654Y340824I-301J-263D01*
G02X134160Y340498I-971J864D01*
G03X133904Y340410I-80J-183D01*
G02X133472Y339942I-1142J621D01*
G37*
G36*
G01X84921Y337605D02*
G03X85211Y337689I108J168D01*
G02X85737Y338265I1179J-548D01*
G03X85898Y338781I-201J346D01*
G02X87727Y338211I1176J554D01*
G03X87566Y337695I201J-346D01*
G02X85828Y335968I-1176J-554D01*
G03X85317Y335820I-173J-361D01*
G02X83039Y337064I-1101J692D01*
G03X82902Y337565I-362J170D01*
G02X84734Y337952I730J1076D01*
G03X84812Y337669I170J-106D01*
G02X84921Y337605I-596J-1156D01*
G37*
G36*
G01X237286Y321724D02*
G03X236836Y321489I-82J-392D01*
G02X235833Y323406I-1289J547D01*
G03X236283Y323642I82J392D01*
G02X237286Y321724I1289J-547D01*
G37*
G36*
G01X212883Y319451D02*
G03X213398Y319706I134J377D01*
G02X213929Y320427I1334J-427D01*
G03X214013Y321004I-229J328D01*
G02X214102Y322851I1095J873D01*
G03X214140Y323363I-287J278D01*
G02X216282Y323207I1136J818D01*
G03X216244Y322695I287J-278D01*
G02X215910Y320729I-1136J-818D01*
G03X215826Y320152I229J-328D01*
G02X214262Y317959I-1095J-873D01*
G03X213748Y317704I-134J-377D01*
G02X212883Y319451I-1334J427D01*
G37*
G36*
G01X238594Y310968D02*
G03X238596Y310690I145J-138D01*
G02X236217Y309462I-1000J-980D01*
G03X235661Y309757I-394J-71D01*
G02X234484Y309777I-567J1280D01*
G03X233981Y309645I-174J-360D01*
G02X233442Y311705I-1150J799D01*
G03X233945Y311836I174J360D01*
G02X235739Y312280I1150J-799D01*
G03X236291Y312480I184J355D01*
G02X237934Y313289I1289J-546D01*
G03X238421Y313570I101J387D01*
G02X239418Y311846I1351J-369D01*
G03X238931Y311564I-101J-387D01*
G02X238594Y310968I-1351J369D01*
G37*
G36*
G01X233528Y292461D02*
G03Y291921I295J-270D01*
G02X231463I-1033J-945D01*
G03Y292461I-295J270D01*
G02X233528I1033J945D01*
G37*
G36*
G01X251767Y290218D02*
G03X251984Y290389I19J199D01*
G02X252327Y291100I1287J-182D01*
G03X252319Y291658I-291J275D01*
G02X252122Y293244I919J919D01*
G03X252023Y293765I-343J205D01*
G02X251906Y295878I857J1107D01*
G03X251942Y296413I-278J287D01*
G02X251664Y297031I1100J866D01*
G03X251267Y297360I-394J-71D01*
G02X251484Y299941I-9J1300D01*
G03X251934Y300211I70J394D01*
G02X254179Y298716I1331J-433D01*
G03X254129Y298161I261J-303D01*
G02X254016Y296273I-1087J-882D01*
G03X253980Y295738I278J-287D01*
G02X254034Y294079I-1100J-866D01*
G03X254099Y293552I330J-227D01*
G02X254183Y291684I-860J-975D01*
G03X254191Y291126I291J-275D01*
G02X253147Y288913I-919J-919D01*
G03X252930Y288742I-19J-199D01*
G02X251767Y290218I-1287J182D01*
G37*
G36*
G01X242074Y291532D02*
G03X242229Y291763I-42J195D01*
G02X243869Y290741I1280J227D01*
G03X243731Y290501I55J-192D01*
G02X242762Y288819I-1359J-337D01*
G03X242624Y288576I56J-192D01*
G02X242666Y288187I-1257J-331D01*
G03X243039Y287770I400J-18D01*
G02X243799Y287482I-94J-1397D01*
G03X244075Y287514I122J158D01*
G02X244301Y285514I1081J-890D01*
G03X244025Y285483I-122J-158D01*
G02X241552Y286517I-1081J890D01*
G03X241204Y286955I-398J41D01*
G02X240923Y289467I163J1290D01*
G03X241044Y289719I-68J188D01*
G02X242074Y291532I1328J445D01*
G37*
G36*
G01X249442Y268869D02*
G03X250034Y268832I313J249D01*
G02X249925Y267091I908J-931D01*
G03X249333Y267128I-313J-249D01*
G02X247559Y267089I-908J931D01*
G03X247292I-133J-149D01*
G02Y269028I-867J969D01*
G03X247559I133J149D01*
G02X249442Y268869I867J-969D01*
G37*
G36*
G01X217028Y268744D02*
G03X217308Y268733I145J138D01*
G02X217239Y266877I875J-962D01*
G03X216959Y266887I-145J-138D01*
G02X217028Y268744I-875J962D01*
G37*
G36*
G01X231393Y268624D02*
G03X231735Y268231I400J3D01*
G02X230134Y266834I-201J-1386D01*
G03X229791Y267227I-400J-3D01*
G02X231393Y268624I201J1386D01*
G37*
G36*
G01X249168Y265592D02*
G03X249446Y265568I152J131D01*
G02X249214Y263642I887J-1084D01*
G03X248938Y263685I-160J-120D01*
G02X249168Y265592I-755J1058D01*
G37*
G36*
G01X242037Y264667D02*
G03X241603Y264267I-34J-399D01*
G02X240322Y265659I-1400J-4D01*
G03X240755Y266058I34J399D01*
G02X242037Y264667I1400J4D01*
G37*
G36*
G01X218994Y259689D02*
G03X218698Y260166I-390J89D01*
G02X220393Y261215I330J1361D01*
G03X220689Y260737I390J-89D01*
G02X218994Y259689I-330J-1361D01*
G37*
G36*
G01X239033Y258290D02*
G03X238522I-256J-308D01*
G02Y260444I-895J1077D01*
G03X239033I255J308D01*
G02Y258290I894J-1077D01*
G37*
G36*
G01X253110Y252390D02*
G03X252599I-255J-308D01*
G02Y254544I-895J1077D01*
G03X253110I255J308D01*
G02Y252390I895J-1077D01*
G37*
G36*
G01X225397Y250145D02*
G03X225983Y250133I298J266D01*
G02X225946Y248228I1007J-973D01*
G03X225359Y248239I-298J-266D01*
G02X225397Y250145I-1007J973D01*
G37*
G36*
G01X236238Y248658D02*
G03X236261Y248088I291J-274D01*
G02X234302Y248009I-939J-1038D01*
G03X234279Y248580I-291J274D01*
G02X236238Y248658I939J1038D01*
G37*
G36*
G01X238772Y240635D02*
G03X238261I-255J-308D01*
G02Y242790I-895J1077D01*
G03X238772I255J308D01*
G02Y240635I895J-1077D01*
G37*
G36*
G01X222553Y241751D02*
G03X223072Y241719I278J287D01*
G02X222940Y239594I842J-1119D01*
G03X222422Y239626I-278J-287D01*
G02X222553Y241751I-842J1119D01*
G37*
G36*
G01X209246Y239727D02*
G03Y239452I145J-138D01*
G02X207212I-1017J-962D01*
G03Y239727I-145J137D01*
G02X209246I1017J962D01*
G37*
G36*
G01X28199Y231013D02*
G03X28799Y230886I353J188D01*
G02X28372Y228872I985J-1261D01*
G03X27773Y228998I-353J-188D01*
G02X28199Y231013I-985J1261D01*
G37*
G36*
G01X210709Y228293D02*
G03X211240Y228281I272J293D01*
G02X211195Y226187I907J-1067D01*
G03X210664Y226199I-272J-293D01*
G02X210709Y228293I-907J1067D01*
G37*
G36*
G01X239486Y223502D02*
G03X239474Y224039I-302J262D01*
G02X241550Y224082I1018J961D01*
G03X241562Y223546I302J-262D01*
G02X239486Y223502I-1018J-961D01*
G37*
G36*
G01X34156Y215148D02*
G03X33706Y215560I-400J15D01*
G02X35188Y217182I-217J1686D01*
G03X35639Y216770I400J-15D01*
G02X34156Y215148I217J-1686D01*
G37*
G36*
G01X57730Y214030D02*
G03X57788Y214638I-228J329D01*
G02X59510Y214513I931J908D01*
G03X59480Y213903I243J-318D01*
G02X57730Y214030I-954J-1025D01*
G37*
G36*
G01X234387Y210652D02*
G03X234408Y210368I150J-132D01*
G02X232537Y210170I-841J-992D01*
G03X232498Y210452I-158J122D01*
G02X234387Y210652I836J1123D01*
G37*
G36*
G01X331589Y210730D02*
G03Y210186I294J-272D01*
G02X329681I-954J-883D01*
G03Y210730I-294J272D01*
G02X331589I954J883D01*
G37*
G36*
G01X319637Y208761D02*
G03Y208218I294J-272D01*
G02X317729I-954J-883D01*
G03Y208761I-294J272D01*
G02X319637I954J883D01*
G37*
G36*
G01X327388Y206817D02*
G03X327413Y206292I314J-248D01*
G02X325406Y206130I-937J-901D01*
G03X325346Y206652I-329J227D01*
G02X327388Y206817I944J1034D01*
G37*
G36*
G01X331589Y204824D02*
G03Y204281I294J-272D01*
G02X329681I-954J-883D01*
G03Y204824I-294J272D01*
G02X331589I954J883D01*
G37*
G36*
G01X325338Y198440D02*
G03X324828Y198310I-181J-357D01*
G02X324306Y200353I-1154J793D01*
G03X324816Y200483I181J357D01*
G02X325338Y198440I1154J-793D01*
G37*
G36*
G01X50685Y196190D02*
G03X50801Y196734I-224J331D01*
G02X52773Y196315I1188J741D01*
G03X52658Y195772I224J-331D01*
G02X50685Y196190I-1188J-741D01*
G37*
G36*
G01X6786Y184355D02*
G03X6666Y184606I-190J63D01*
G02X8450Y185388I488J1312D01*
G03X8553Y185130I185J-76D01*
G02X8821Y182920I-533J-1186D01*
G03X8782Y182647I123J-157D01*
G02X6854Y182993I-1141J-812D01*
G03X6912Y183263I-112J165D01*
G02X6786Y184355I1108J681D01*
G37*
G36*
G01X314755Y175028D02*
G03X314688Y174439I233J-325D01*
G02X312818Y174654I-1053J-923D01*
G03X312885Y175243I-233J325D01*
G02X314755Y175028I1053J923D01*
G37*
G36*
G01X24103Y174312D02*
G03X24258Y174541I-43J195D01*
G02X25937Y173405I1381J232D01*
G03X25782Y173176I43J-195D01*
G02X23025Y172686I-1381J-232D01*
G03X22516Y172995I-393J-74D01*
G02X23487Y174593I-406J1340D01*
G03X23996Y174284I393J74D01*
G02X24103Y174312I406J-1340D01*
G37*
G36*
G01X281001Y174038D02*
G03X281202Y173561I382J-120D01*
G02X279233Y172731I-632J-1249D01*
G03X279032Y173208I-382J120D01*
G02X281001Y174038I632J1249D01*
G37*
G36*
G01X254394Y170344D02*
G03X254459Y170081I175J-97D01*
G02X252606Y169624I-715J-1086D01*
G03X252541Y169887I-175J97D01*
G02X252036Y170524I715J1086D01*
G03X251777Y170642I-188J-69D01*
G02X251083Y170563I-499J1308D01*
G03X250628Y170194I-56J-396D01*
G02X249426Y171677I-1397J96D01*
G03X249881Y172046I56J396D01*
G02X252620Y172349I1397J-96D01*
G03X252871Y172215I192J57D01*
G02X254394Y170344I385J-1242D01*
G37*
G36*
G01X38468Y167300D02*
G03X38445Y167860I-297J268D01*
G02X40443Y167941I959J1020D01*
G03X40466Y167382I297J-268D01*
G02X38468Y167300I-959J-1020D01*
G37*
G36*
G01X15057Y163674D02*
G03X14772Y164116I-396J58D01*
G02X16528Y165169I387J1346D01*
G03X16783Y164709I391J-84D01*
G02X15057Y163674I-440J-1224D01*
G37*
G36*
G01X104897Y159908D02*
G03X105508Y159862I325J234D01*
G02X105374Y158066I1002J-978D01*
G03X104763Y158112I-325J-234D01*
G02X104897Y159908I-1002J978D01*
G37*
G36*
G01X309146Y158336D02*
G03X308928Y157729I114J-384D01*
G02X306924Y158449I-1493J-1006D01*
G03X307142Y159056I-114J384D01*
G02X309146Y158336I1493J1006D01*
G37*
G36*
G01X48126Y136570D02*
G03X48686Y136536I297J268D01*
G02X48564Y134542I918J-1057D01*
G03X48004Y134576I-297J-268D01*
G02X48126Y136570I-918J1057D01*
G37*
G36*
G01X30030Y114620D02*
G03X29695Y115022I-400J7D01*
G02X29154Y115244I212J1283D01*
G03X28575Y115116I-232J-326D01*
G02X26154Y115094I-1217J693D01*
G03X25624Y115244I-344J-204D01*
G02X26174Y117197I-653J1238D01*
G03X26705Y117048I344J204D01*
G02X28227Y116907I654J-1238D01*
G03X28812Y117005I248J314D01*
G02X30331Y117534I1095J-701D01*
G03X30823Y117742I130J378D01*
G02X32520Y115997I1177J-553D01*
G03X32362Y115387I160J-367D01*
G02X30030Y114620I-1033J-790D01*
G37*
G36*
G01X66634Y114570D02*
G03X66599Y113984I254J-309D01*
G02X64700Y114095I-1010J-970D01*
G03X64735Y114681I-254J309D01*
G02X66634Y114570I1010J970D01*
G37*
G36*
G01X100890Y108213D02*
G03X100879Y107691I297J-268D01*
G02X98759Y107737I-1080J-891D01*
G03X98770Y108259I-297J268D01*
G02X100890Y108213I1080J891D01*
G37*
G36*
G01X30251Y107623D02*
G03X30789I269J296D01*
G02Y105699I875J-962D01*
G03X30251I-269J-296D01*
G02Y107623I-875J962D01*
G37*
G36*
G01X27857Y103229D02*
G03Y102678I290J-276D01*
G02X25829I-1014J-965D01*
G03Y103229I-290J276D01*
G02X27857I1014J965D01*
G37*
G36*
G01X88732Y54924D02*
G03X89310Y54880I310J253D01*
G02X89220Y53041I872J-964D01*
G03X88640Y53054I-296J-269D01*
G02X88732Y54924I-994J986D01*
G37*
G36*
G01X71814Y54962D02*
G03X71850Y55541I-257J306D01*
G02X73776Y55422I1026J953D01*
G03X73741Y54844I257J-306D01*
G02X73964Y53258I-1026J-953D01*
G03X74122Y52731I357J-181D01*
G02X72174Y52150I-698J-1214D01*
G03X72017Y52677I-357J181D01*
G02X71814Y54962I699J1213D01*
G37*
G36*
G01X56032Y49129D02*
G03X56101Y48622I339J-212D01*
G02X53966Y48332I-947J-1032D01*
G03X53897Y48838I-339J212D01*
G02X56032Y49129I947J1032D01*
G37*
G36*
G01X111833Y48537D02*
G03X112313Y48246I388J98D01*
G02X111279Y46540I324J-1362D01*
G03X110799Y46831I-388J-98D01*
G02X111833Y48537I-324J1362D01*
G37*
G36*
G01X120433Y42059D02*
G03X120355Y41447I214J-338D01*
G02X118334Y41704I-1166J-1095D01*
G03X118412Y42316I-214J338D01*
G02X120433Y42059I1166J1095D01*
G37*
G36*
G01X332468Y380936D02*
G02Y382484I-1167J774D01*
G03X333134I333J221D01*
G02Y380936I1167J-774D01*
G03X332468I-333J-221D01*
G37*
G36*
G01X204755Y376739D02*
G02X202479Y375119I-685J-1446D01*
G03X202019Y375471I-398J-43D01*
G02X201556Y375465I-251J1580D01*
G03X201107Y375119I-53J-396D01*
G02X198748Y376721I-1588J200D01*
G03X198753Y377419I-193J351D01*
G02X199754Y380396I792J1391D01*
G03X200206Y380775I52J397D01*
G02X200207Y380794I1599J-67D01*
G03X199965Y381000I-200J11D01*
G02X199879Y384146I-333J1565D01*
G03X200109Y384365I31J198D01*
G02X200102Y384459I1592J166D01*
G03X199849Y384643I-200J-9D01*
G02X201004Y386444I-424J1543D01*
G03X201460Y386113I395J65D01*
G02X201986Y386105I241J-1582D01*
G03X202451Y386431I71J394D01*
G02X204780Y384747I1577J-271D01*
G03X204749Y384060I188J-353D01*
G02X203818Y381121I-876J-1339D01*
G03X203404Y380718I-14J-400D01*
G02X203403Y380624I-1600J-15D01*
G03X203641Y380418I200J-10D01*
G02X204732Y377450I312J-1569D01*
G03X204755Y376739I194J-350D01*
G37*
G36*
G01X103162Y374885D02*
G02X101527Y374867I-802J-1499D01*
G03X101520Y375569I-196J349D01*
G02X103155Y375586I802J1499D01*
G03X103162Y374885I196J-349D01*
G37*
G36*
G01X186939Y371613D02*
G02X184184Y371225I-1400J-37D01*
G03X183590Y371467I-387J-100D01*
G02X181478Y371879I-829J1369D01*
G03X180789Y371796I-321J-239D01*
G02X180600Y373381I-1472J628D01*
G03X181289Y373464I321J239D01*
G02X184336Y373114I1472J-628D01*
G03X184910Y372826I394J70D01*
G02X186264Y372774I630J-1251D01*
G03X186869Y373149I207J342D01*
G02X187319Y374394I1595J129D01*
G03X187308Y374963I-286J279D01*
G02X189730Y377030I1104J1158D01*
G03X190391Y377036I329J227D01*
G02X192848Y375009I1331J-888D01*
G03X192853Y374435I281J-284D01*
G02X190435Y372364I-1104J-1158D01*
G03X189778I-328J-228D01*
G02X187564Y371954I-1314J914D01*
G03X186939Y371613I-225J-331D01*
G37*
G36*
G01X134847Y349905D02*
G02X134764Y351173I-1173J560D01*
G03X135460Y351218I336J218D01*
G02X135543Y349951I1173J-560D01*
G03X134847Y349905I-336J-218D01*
G37*
G36*
G01X224855Y344984D02*
G02X222737Y343884I-821J-1008D01*
G03X222224Y344240I-399J-28D01*
G02X222258Y346723I-369J1247D01*
G03X222763Y346982I124J380D01*
G02X224847Y345598I1238J-396D01*
G03X224855Y344984I260J-304D01*
G37*
G36*
G01X233953Y342939D02*
G02X232687Y344958I-1074J733D01*
G03X232979Y345544I-59J396D01*
G02X232828Y346266I1144J618D01*
G03X232330Y346685I-399J32D01*
G02X233304Y347840I-322J1260D01*
G03X233802Y347421I399J-32D01*
G02X234351Y347441I322J-1260D01*
G03X234819Y347802I70J394D01*
G02X235167Y348586I1296J-106D01*
G03X235138Y349162I-292J274D01*
G02X234942Y349374I853J982D01*
G03X234386Y349462I-322J-237D01*
G02X232560Y351262I-760J1055D01*
G03X232463Y351818I-328J229D01*
G02X234210Y353714I748J1063D01*
G03X234776Y353666I307J256D01*
G02X236607Y351832I841J-991D01*
G03X236695Y351236I305J-259D01*
G02X236938Y349254I-705J-1093D01*
G03X236968Y348678I292J-274D01*
G02X235888Y346416I-853J-982D01*
G03X235419Y346055I-70J-394D01*
G02X235386Y345851I-1296J106D01*
G03X235630Y345382I388J-95D01*
G02X234490Y343056I-470J-1212D01*
G03X233953Y342939I-206J-343D01*
G37*
G36*
G01X227184Y336980D02*
G02X224924Y335442I-960J-1019D01*
G03X224280Y335587I-372J-148D01*
G02X222414Y337674I-951J1028D01*
G03X222436Y338259I-262J303D01*
G02X224779Y339614I992J988D01*
G03X225382Y339383I386J105D01*
G02X227174Y337260I760J-1176D01*
G03X227184Y336980I147J-135D01*
G37*
G36*
G01X185013Y336411D02*
G02X184930Y334464I818J-1010D01*
G03X184402Y334486I-277J-288D01*
G02X182611Y336359I-818J1010D01*
G03X182508Y336973I-299J265D01*
G02X184198Y337217I687J1220D01*
G03X184273Y336599I287J-279D01*
G02X184484Y336434I-689J-1102D01*
G03X185013Y336411I277J288D01*
G37*
G36*
G01X39946Y335123D02*
G02X38722I-612J-1147D01*
G03Y335828I-188J353D01*
G02X39946I612J1147D01*
G03Y335123I188J-353D01*
G37*
G36*
G01X44146Y320627D02*
G02X41555Y320481I-1290J-158D01*
G03X41197Y320883I-400J4D01*
G02X41033Y323440I137J1293D01*
G03X41338Y323864I-93J389D01*
G02X41334Y324011I1295J111D01*
G03X41084Y324210I-200J5D01*
G02X40823Y326766I-329J1258D01*
G03X41242Y327121I21J399D01*
G02X41244Y327137I1292J-148D01*
G03X40870Y327586I-397J50D01*
G02X42237Y328723I76J1298D01*
G03X42610Y328274I397J-50D01*
G02X42626Y328272I-81J-1298D01*
G03X42835Y328519I14J200D01*
G02X44197Y327526I1264J303D01*
G03X43829Y327091I30J-399D01*
G02X43834Y326955I-1295J-115D01*
G03X44304Y326555I400J-6D01*
G02X45213Y324167I229J-1280D01*
G03Y323484I209J-341D01*
G02X44541Y321075I-679J-1109D01*
G03X44146Y320627I2J-400D01*
G37*
G36*
G01X224211Y311290D02*
G02X222609Y310812I-516J-1193D01*
G03X222417Y311406I-334J220D01*
G02X221966Y311684I497J1309D01*
G03X221381Y311638I-271J-294D01*
G02X221231Y313538I-1098J869D01*
G03X221816Y313584I271J294D01*
G02X224046Y311892I1098J-869D01*
G03X224211Y311290I324J-235D01*
G37*
G36*
G01X54781Y305858D02*
G02X53554Y305980I-727J-1078D01*
G03X53623Y306681I-154J369D01*
G02X54851Y306559I727J1078D01*
G03X54781Y305858I154J-369D01*
G37*
G36*
G01X226850Y297734D02*
G02X224931Y298374I-1218J-455D01*
G03X225080Y298876I-216J337D01*
G02X226938Y300725I1276J576D01*
G03X227498Y301019I166J364D01*
G02X228295Y299502I1379J-244D01*
G03X227735Y299207I-166J-364D01*
G02X227032Y298225I-1379J244D01*
G03X226850Y297734I193J-350D01*
G37*
G36*
G01X41640Y295541D02*
G02X39672Y297214I-1081J723D01*
G03X39714Y297752I-273J292D01*
G02X39741Y299383I1026J799D01*
G03X39729Y299909I-307J256D01*
G02X40962Y302057I960J877D01*
G03X41204Y302259I42J195D01*
G02X41206Y302384I1299J43D01*
G03X40994Y302597I-200J13D01*
G02X41009Y305192I-75J1298D01*
G03X41430Y305518I28J399D01*
G02X41446Y305593I1278J-237D01*
G03X41196Y305833I-194J48D01*
G02X42131Y306998I-363J1248D01*
G03X42572Y306575I399J-26D01*
G02X42727Y306582I137J-1293D01*
G03X43132Y306963I6J400D01*
G02X43865Y308072I1299J-61D01*
G03X43936Y308749I-174J360D01*
G02X45299Y308605I797J1027D01*
G03X45228Y307929I174J-360D01*
G02X44413Y305602I-797J-1027D01*
G03X44008Y305220I-6J-400D01*
G02X44003Y305157I-1299J60D01*
G03X44239Y304941I199J-19D01*
G02X45109Y302525I242J-1277D01*
G03X45099Y301829I193J-350D01*
G02X45367Y299798I-659J-1121D01*
G03X45337Y299272I285J-280D01*
G02X44808Y297272I-1026J-799D01*
G03X44591Y296752I153J-370D01*
G02X42305Y295541I-1205J-489D01*
G03X41640I-332J-222D01*
G37*
G36*
G01X10362Y277361D02*
G02X7664Y277165I-1375J263D01*
G03X7070Y277370I-378J-131D01*
G02X5455Y279654I-756J1179D01*
G03X5409Y280317I-246J316D01*
G02X6081Y282930I700J1213D01*
G03X6470Y283386I-8J400D01*
G02X9055Y284307I1386J199D01*
G03X9603Y284170I343J206D01*
G02X11709Y283163I719J-1201D01*
G03X12143Y282821I396J56D01*
G02X12629Y280072I132J-1394D01*
G03X12355Y279547I101J-387D01*
G02X10818Y277680I-1314J-484D01*
G03X10362Y277361I-64J-395D01*
G37*
G36*
G01X228516Y259866D02*
G02X227452Y260608I-1177J-553D01*
G03X227843Y261188I35J399D01*
G02X228060Y262771I1248J635D01*
G03X228062Y263310I-294J271D01*
G02X230132Y263302I1038J939D01*
G03X230130Y262763I294J-271D01*
G02X228926Y260433I-1038J-939D01*
G03X228516Y259866I-47J-397D01*
G37*
G36*
G01X213028Y246052D02*
G02X211477Y246775I-1244J-643D01*
G03X211752Y247333I-88J390D01*
G02X213278Y246622I1181J543D01*
G03X213028Y246052I106J-386D01*
G37*
G36*
G01X31198Y237060D02*
G02X28510Y239141I-1357J1024D01*
G03X28438Y239709I-313J249D01*
G02X30497Y240128I845J1116D01*
G03X30653Y239577I347J-199D01*
G02X31358Y238851I-812J-1494D01*
G03X32007Y238757I357J180D01*
G02X31853Y237037I1021J-958D01*
G03X31198Y237060I-335J-218D01*
G37*
G36*
G01X230634Y199951D02*
G02X229234I-700J-975D01*
G03Y200601I-233J325D01*
G02X230634I700J975D01*
G03Y199951I233J-325D01*
G37*
G36*
G01X234811Y196205D02*
G02X233632Y196871I-1077J-529D01*
G03X233957Y197446I-34J399D01*
G02X233855Y198201I1077J529D01*
G03X233455Y198676I-393J75D01*
G02X234613Y199651I-21J1200D01*
G03X235013Y199176I393J-75D01*
G02X235136Y196780I21J-1200D01*
G03X234811Y196205I34J-399D01*
G37*
G36*
G01X227032Y193970D02*
G02X225447Y193904I-755J-933D01*
G03X225422Y194504I-277J289D01*
G02X225488Y196420I755J933D01*
G03X225526Y197044I-230J327D01*
G02X225711Y198963I804J891D01*
G03X225715Y199646I-206J343D01*
G02X226966Y199639I631J1021D01*
G03X226962Y198956I206J-343D01*
G02X227019Y196952I-631J-1021D01*
G03X226981Y196328I230J-327D01*
G02X227007Y194570I-804J-891D01*
G03X227032Y193970I277J-289D01*
G37*
G36*
G01X232533Y189941D02*
G02X232485Y191345I-997J668D01*
G03X233133Y191368I316J245D01*
G02X235180Y191280I997J-668D01*
G03X235880I350J194D01*
G02Y190118I1050J-581D01*
G03X235180I-350J-194D01*
G02X233182Y189964I-1050J581D01*
G03X232533Y189941I-316J-245D01*
G37*
G36*
G01X55550Y187815D02*
G02X55131Y189830I-988J845D01*
G03X55659Y190001I175J360D01*
G02X56041Y190481I1500J-801D01*
G03X55928Y191153I-263J301D01*
G02X55109Y192832I527J1297D01*
G03X54727Y193341I-385J109D01*
G02X56086Y194360I11J1400D01*
G03X56467Y193851I385J-109D01*
G02X57472Y191487I-11J-1400D01*
G03X57647Y190829I290J-275D01*
G02X56102Y187868I-488J-1629D01*
G03X55550Y187815I-249J-313D01*
G37*
G36*
G01X232784Y186094D02*
G02Y187257I-1050J581D01*
G03X233484I350J194D01*
G02X235412Y187494I1050J-581D01*
G03X236023Y187525I293J273D01*
G02X236100Y185980I956J-726D01*
G03X235490Y185950I-293J-273D01*
G02X233484Y186094I-956J726D01*
G03X232784I-350J-194D01*
G37*
G36*
G01X20195Y184525D02*
G02X19313Y183516I485J-1314D01*
G03X18784Y183978I-390J87D01*
G02X19666Y184987I-485J1314D01*
G03X20195Y184525I390J-87D01*
G37*
G36*
G01X232610Y182178D02*
G02X230632Y182215I-976J698D01*
G03X229982Y182240I-334J-220D01*
G02X227998Y182370I-948J736D01*
G03X227323Y182395I-345J-202D01*
G02X227370Y183681I-989J680D01*
G03X228045Y183656I345J202D01*
G02X230036Y183636I989J-680D01*
G03X230686Y183611I334J220D01*
G02X232533Y183671I948J-736D01*
G03X233158Y183704I300J265D01*
G02X233235Y182210I976J-698D01*
G03X232610Y182178I-300J-265D01*
G37*
G36*
G01X41247Y178733D02*
G02X39921Y177208I273J-1577D01*
G03X39453Y177616I-400J13D01*
G02X38826Y177632I-273J1577D01*
G03X38337Y177245I-89J-390D01*
G02X37091Y178819I-1600J14D01*
G03X37580Y179206I89J390D01*
G02X37621Y179553I1600J-13D01*
G03X37193Y180042I-390J90D01*
G02X38426Y182439I-151J1593D01*
G03X39138Y182479I346J201D01*
G02X40964Y180279I1466J-641D01*
G03X40680Y179750I90J-390D01*
G02X40779Y179140I-1500J-558D01*
G03X41247Y178733I400J-13D01*
G37*
G36*
G01X333487Y174626D02*
G02X332248Y176870I-3710J-585D01*
G03X332879Y177014I263J301D01*
G02X334504Y177825I1288J-549D01*
G03X334984Y178099I96J388D01*
G02X336281Y179098I1342J-400D01*
G03X336635Y179658I-13J400D01*
G02X337963Y178817I1284J559D01*
G03X337609Y178258I13J-400D01*
G02X335989Y176340I-1284J-559D01*
G03X335510Y176066I-96J-388D01*
G02X333946Y175083I-1342J400D01*
G03X333487Y174626I-63J-395D01*
G37*
G36*
G01X264910Y171932D02*
G02X264780Y170322I950J-887D01*
G03X264144Y170359I-332J-222D01*
G02X264276Y171997I-1064J910D01*
G03X264910Y171932I342J208D01*
G37*
G36*
G01X232428Y167014D02*
G02Y168177I-1050J581D01*
G03X233128I350J194D01*
G02X235228Y168176I1050J-581D01*
G03X235928I350J194D01*
G02Y167014I1050J-581D01*
G03X235228I-350J-194D01*
G02X233128Y167014I-1050J581D01*
G03X232428I-350J-194D01*
G37*
G36*
G01X235274Y162941D02*
G02X233093Y162924I-1096J699D01*
G03X232434Y162937I-334J-220D01*
G02X232463Y164412I-1056J758D01*
G03X233122Y164399I334J220D01*
G02X235305Y164289I1056J-758D01*
G03X235981Y164260I347J199D01*
G02X235950Y162939I986J-684D01*
G03X235274Y162941I-339J-213D01*
G37*
G36*
G01X235862Y160462D02*
G02Y159128I1116J-667D01*
G03X235183Y159140I-343J-205D01*
G02X233128Y159213I-1006J655D01*
G03X232428Y159213I-350J-194D01*
G02X232428Y160376I-1050J582D01*
G03X233127Y160377I350J194D01*
G02X235183Y160450I1050J-582D01*
G03X235862Y160462I335J218D01*
G37*
G36*
G01X59898Y157134D02*
G02X58799Y156107I257J-1376D01*
G03X58338Y156601I-387J100D01*
G02X57855Y156595I-257J1376D01*
G03X57397Y156131I-65J-395D01*
G02X56244Y157267I-1379J-245D01*
G03X56703Y157732I65J395D01*
G02X56695Y158176I1379J245D01*
G03X56220Y158624I-396J57D01*
G02X57327Y159798I-279J1372D01*
G03X57802Y159349I396J-57D01*
G02X58261Y159366I279J-1372D01*
G03X58710Y159803I51J397D01*
G02X59924Y158557I1393J142D01*
G03X59474Y158119I-51J-397D01*
G02X59437Y157627I-1393J-142D01*
G03X59898Y157134I387J-100D01*
G37*
G36*
G01X295914Y126312D02*
G02X294464Y126637I-985J-996D01*
G03X294613Y127298I-133J377D01*
G02X296062Y126973I985J996D01*
G03X295914Y126312I133J-377D01*
G37*
G36*
G01X72614Y85230D02*
G02X71260Y84992I-465J-1321D01*
G03X71140Y85679I-254J309D01*
G02X72493Y85917I465J1321D01*
G03X72614Y85230I254J-309D01*
G37*
G36*
G01X47901Y77365D02*
G02X45514Y78826I-1220J688D01*
G03X45192Y79446I-334J221D01*
G02X44745Y82158I42J1400D01*
G03X44952Y82732I-140J375D01*
G02X46654Y82119I1213J699D01*
G03X46447Y81545I140J-375D01*
G02X46501Y81442I-1213J-699D01*
G03X46863I181J85D01*
G02X48158Y82246I1267J-596D01*
G03X48525Y82820I8J400D01*
G02X51037Y82805I1260J611D01*
G03X51336Y82231I358J-179D01*
G02X51260Y79452I-206J-1385D01*
G03X50938Y78877I37J-398D01*
G02X48568Y77411I-1257J-617D01*
G03X47901Y77365I-318J-242D01*
G37*
G36*
G01X98631Y69095D02*
G02X97697Y68030I441J-1329D01*
G03X97178Y68484I-393J75D01*
G02X98112Y69550I-441J1329D01*
G03X98631Y69095I393J-75D01*
G37*
G36*
G01X114518Y57127D02*
G02X114302Y55526I1025J-954D01*
G03X113654Y55613I-355J-185D01*
G02X113871Y57214I-1025J954D01*
G03X114518Y57127I355J185D01*
G37*
G36*
G01X82532Y51456D02*
G02X80622Y51669I-1052J-763D01*
G03X80667Y52223I-264J300D01*
G02X82530Y54274I1083J888D01*
G03X83127Y54463I223J332D01*
G02X83654Y52800I1308J-500D01*
G03X83057Y52611I-223J-332D01*
G02X82610Y52007I-1308J500D01*
G03X82532Y51456I246J-316D01*
G37*
G36*
G01X89475Y47154D02*
G02X89389Y45400I1046J-930D01*
G03X88766Y45431I-324J-235D01*
G02X86701Y47322I-1046J930D01*
G03X86698Y47875I-291J275D01*
G02X88724Y47887I1007J973D01*
G03X88727Y47334I291J-275D01*
G02X88853Y47184I-1007J-973D01*
G03X89475Y47154I324J235D01*
G37*
G36*
G01X82597Y41440D02*
G02X80959Y41057I-564J-1281D01*
G03X80814Y41680I-307J257D01*
G02X82452Y42063I564J1281D01*
G03X82597Y41440I307J-257D01*
G37*
G36*
G01X135255Y236105D02*
G03X135058Y236320I-199J15D01*
G02X136475Y237688I17J1400D01*
G03X136799Y237286I400J-9D01*
G02X137039Y237215I-247J-1276D01*
G03X137551Y237416I150J371D01*
G02X138241Y235659I1177J-552D01*
G03X137729Y235458I-150J-371D01*
G02X136396Y234719I-1177J552D01*
G03X135951Y234377I-48J-397D01*
G02X135000Y235813I-1288J180D01*
G03X135252Y236006I52J193D01*
G02X135255Y236105I1300J3D01*
G37*
G36*
G01X139568Y228774D02*
G03X139096Y228554I-108J-385D01*
G02X138264Y230344I-1184J538D01*
G03X138736Y230564I108J385D01*
G02X139568Y228774I1184J-538D01*
G37*
G36*
G01X96416Y248896D02*
G03X96688I136J147D01*
G02Y247060I849J-918D01*
G03X96416I-136J-147D01*
G02Y248896I-849J918D01*
G37*
G36*
G01X97115Y244154D02*
G03X97639Y244496I126J380D01*
G02X99877Y243481I1295J-121D01*
G03X99866Y242943I290J-275D01*
G02X97715Y241522I-980J-855D01*
G03X97203Y241718I-360J-174D01*
G02X97115Y244154I-496J1202D01*
G37*
G36*
G01X94400Y236714D02*
G03X94381Y237237I-311J251D01*
G02X96347Y237306I953J885D01*
G03X96365Y236782I311J-251D01*
G02X94400Y236714I-953J-885D01*
G37*
G36*
G01X94532Y228102D02*
G03X94468Y228708I-290J276D01*
G02X96143Y228885I733J1074D01*
G03X96206Y228278I290J-276D01*
G02X94532Y228102I-733J-1074D01*
G37*
G36*
G01X82639Y224291D02*
G03X82910I136J147D01*
G02X84607I848J-918D01*
G03X84878I136J147D01*
G02X86575I848J-918D01*
G03X86847I136J147D01*
G02X88543Y224291I848J-918D01*
G03X88814I136J147D01*
G02X90511Y224291I848J-919D01*
G03X90782I136J147D01*
G02X92479I848J-918D01*
G03X92750I136J147D01*
G02X94447Y224291I848J-918D01*
G03X94718I136J147D01*
G02X96415Y224291I848J-919D01*
G03X96686I136J147D01*
G02X98383I848J-918D01*
G03X98654I136J147D01*
G02X100351I848J-918D01*
G03X100623I136J147D01*
G02Y222454I848J-918D01*
G03X100351I-136J-147D01*
G02X98654I-848J918D01*
G03X98383I-136J-147D01*
G02X96686I-848J918D01*
G03X96415I-136J-147D01*
G02X94718Y222454I-848J918D01*
G03X94447I-136J-147D01*
G02X92750Y222454I-848J919D01*
G03X92479I-136J-147D01*
G02X90782I-848J918D01*
G03X90511I-136J-147D01*
G02X88814Y222454I-848J918D01*
G03X88543I-136J-147D01*
G02X86847Y222454I-848J919D01*
G03X86575I-136J-147D01*
G02X84878I-848J918D01*
G03X84607I-136J-147D01*
G02X82910I-848J918D01*
G03X82639I-136J-147D01*
G02Y224291I-848J918D01*
G37*
G36*
G01X90527Y220347D02*
X91523Y219351D01*
Y214462D01*
X91489Y214428D01*
G03X91587Y213791I283J-283D01*
G02X89731Y212985I-602J-1152D01*
G03X89345Y213491I-386J106D01*
G01X87308D01*
X86324Y214475D01*
Y219672D01*
X87000Y220347D01*
X90527D01*
G37*
G36*
G01X67988Y176944D02*
G03X68609Y176806I363J167D01*
G02X68189Y174916I1033J-1222D01*
G03X67567Y175054I-363J-167D01*
G02X67988Y176944I-1033J1222D01*
G37*
G36*
G01X121338Y174538D02*
G03X120987Y174156I49J-397D01*
G02X119512Y175608I-1399J54D01*
G03X119888Y175965I-22J399D01*
G02X121301Y177123I1293J-137D01*
G03X121736Y177486I37J398D01*
G02X121865Y177946I1295J-116D01*
G03X121776Y178214I-179J89D01*
G02X121063Y179420I586J1160D01*
G03X120713Y179831I-400J14D01*
G02X122172Y181075I160J1290D01*
G03X122522Y180664I400J-14D01*
G02X123528Y178798I-160J-1290D01*
G03X123617Y178530I179J-89D01*
G02X122911Y176075I-586J-1160D01*
G03X122476Y175713I-37J-398D01*
G02X121338Y174538I-1295J116D01*
G37*
G36*
G01X113152Y173949D02*
G03X112679Y173663I-88J-390D01*
G02X111635Y175396I-1351J367D01*
G03X112109Y175682I88J390D01*
G02X113152Y173949I1351J-367D01*
G37*
G36*
G01X141255Y169825D02*
G03X141261Y169293I302J-262D01*
G02X139267Y169204I-960J-877D01*
G03X139226Y169735I-318J242D01*
G02X141255Y169825I971J1009D01*
G37*
G36*
G01X140514Y141125D02*
G03X140435Y141709I-308J256D01*
G02X142177Y141945I743J1067D01*
G03X142256Y141361I308J-256D01*
G02X140514Y141125I-743J-1067D01*
G37*
G36*
G01X163975Y128437D02*
G03X163383Y128415I-286J-279D01*
G02X163323Y130026I-919J772D01*
G03X163915Y130048I286J279D01*
G02X163975Y128437I919J-772D01*
G37*
G36*
G01X84172Y229750D02*
G02X84108Y228077I962J-875D01*
G03X83496Y228101I-316J-246D01*
G02X83560Y229774I-962J875D01*
G03X84172Y229750I316J246D01*
G37*
G36*
G01X73939Y201428D02*
G02X72948Y200396I287J-1268D01*
G03X72452Y200855I-393J73D01*
G02X71545Y203496I-359J1353D01*
G03X71779Y203949I-157J368D01*
G02X71957Y204982I1369J296D01*
G03X71831Y205530I-340J210D01*
G02X71538Y205779I751J1182D01*
G03X71008Y205839I-298J-266D01*
G02X68940Y207595I-810J1142D01*
G03X68670Y208160I-360J175D01*
G02X70154Y208911I291J1267D01*
G03X70449Y208359I367J-159D01*
G02X71243Y207913I-251J-1378D01*
G03X71773Y207853I298J266D01*
G02X73773Y205974I810J-1142D01*
G03X73899Y205426I340J-210D01*
G02X73697Y202957I-751J-1182D01*
G03X73462Y202504I157J-368D01*
G02X73461Y201905I-1369J-296D01*
G03X73939Y201428I390J-87D01*
G37*
G36*
G01X163675Y143679D02*
G02X163565Y145034I-1042J596D01*
G03X164222Y145087I310J253D01*
G02X166327Y145046I1042J-596D01*
G03X167020Y145018I355J185D01*
G02X166970Y143820I1014J-642D01*
G03X166278Y143849I-355J-185D01*
G02X164333Y143733I-1014J642D01*
G03X163675Y143679I-310J-253D01*
G37*
G36*
G01X171914Y136406D02*
G02Y137569I-1050J581D01*
G03X172614I350J194D01*
G02Y136406I1050J-581D01*
G03X171914I-350J-194D01*
G37*
G36*
G01X157914Y136405D02*
G02Y137568I-1050J581D01*
G03X158614I350J194D01*
G02Y136405I1050J-581D01*
G03X157914I-350J-194D01*
G37*
G36*
G01X166998Y137582D02*
G02X166993Y136378I1036J-606D01*
G03X166301Y136381I-347J-199D01*
G02X164215Y136406I-1036J606D01*
G03X163515Y136406I-350J-194D01*
G02X163515Y137569I-1050J582D01*
G03X164215Y137569I350J194D01*
G02X166306Y137584I1050J-582D01*
G03X166998Y137582I347J199D01*
G37*
G36*
G01X174688Y132460D02*
G02X172724Y132341I-1023J627D01*
G03X172117Y132363I-313J-249D01*
G02X172174Y133922I-883J813D01*
G03X172781Y133900I313J249D01*
G02X174642Y133783I883J-813D01*
G03X175310Y133806I326J232D01*
G02X175355Y132483I1023J-627D01*
G03X174688Y132460I-326J-232D01*
G37*
G36*
G01X155161Y132454D02*
G02X155155Y133706I-1027J622D01*
G03X155838Y133709I340J210D01*
G02X157914Y133669I1027J-622D01*
G03X158614I350J194D01*
G02Y132505I1049J-582D01*
G03X157914I-350J-194D01*
G02X155843Y132457I-1049J582D01*
G03X155161Y132454I-340J-210D01*
G37*
G36*
G01X203422Y131346D02*
G02X202090Y131251I-595J-1042D01*
G03X202042Y131914I-246J316D01*
G02X203375Y132009I595J1042D01*
G03X203422Y131346I246J-316D01*
G37*
G36*
G01X188507Y131330D02*
G02X187312Y131302I-573J-1054D01*
G03X187296Y131996I-207J342D01*
G02X188491Y132023I573J1054D01*
G03X188507Y131330I207J-342D01*
G37*
G36*
G01X155349Y128399D02*
G02X155342Y129961I-915J777D01*
G03X155949Y129964I302J262D01*
G02X157914Y129768I915J-777D01*
G03X158614I350J194D01*
G02Y128606I1050J-581D01*
G03X157914I-350J-194D01*
G02X155956Y128402I-1050J581D01*
G03X155349Y128399I-302J-262D01*
G37*
G36*
G01X125240Y234138D02*
G03X124628I-306J-258D01*
G02Y235814I-994J838D01*
G03X125240I306J258D01*
G02Y234138I994J-838D01*
G37*
G36*
G01X123643Y223617D02*
G03X123627Y224153I-305J259D01*
G02X125557Y224211I939J899D01*
G03X125573Y223675I305J-259D01*
G02X123643Y223617I-939J-899D01*
G37*
G36*
G01X110433Y225327D02*
G02X109698Y226447I-1299J-51D01*
G03X110272Y226823I174J360D01*
G02X111006Y225703I1299J51D01*
G03X110433Y225327I-174J-360D01*
G37*
G36*
G01X54413Y283133D02*
G03X54954I271J295D01*
G02Y281218I879J-958D01*
G03X54413I-271J-295D01*
G02Y283133I-879J958D01*
G37*
G36*
G01X119372Y276281D02*
G03Y275670I258J-306D01*
G02X117696I-838J-994D01*
G03Y276281I-258J306D01*
G02X117540Y276437I838J994D01*
G03X116975Y276484I-306J-258D01*
G02X117128Y278314I-841J991D01*
G03X117692Y278267I306J258D01*
G02X119372Y276281I842J-991D01*
G37*
G36*
G01X86464Y271592D02*
G03X86138Y271187I73J-393D01*
G02X84599Y272427I-1300J-38D01*
G03X84926Y272832I-73J393D01*
G02X86464Y271592I1300J38D01*
G37*
G36*
G01X135536Y262810D02*
G03X135820Y262333I390J-91D01*
G02X134513Y260207I-342J-1254D01*
G03X133949Y260237I-297J-268D01*
G02X131786Y261107I-867J969D01*
G03X131401Y261476I-399J-31D01*
G02X132444Y263612I48J1299D01*
G03X133108Y263689I306J257D01*
G02X135536Y262810I1162J-584D01*
G37*
G36*
G01X60703Y239916D02*
G03X60517Y240443I-363J169D01*
G02X62271Y241062I574J1166D01*
G03X62457Y240534I363J-169D01*
G02X60703Y239916I-574J-1166D01*
G37*
G36*
G01X108543Y286077D02*
G02X106904Y287156I-1369J-295D01*
G03X107218Y287633I-77J392D01*
G02X107282Y288435I1369J295D01*
G03X106938Y288979I-373J145D01*
G02X105971Y289527I95J1297D01*
G03X105349Y289566I-327J-230D01*
G02X105014Y289304I-959J878D01*
G03X104970Y288630I192J-351D01*
G02X103168Y286792I-768J-1049D01*
G03X102481Y286704I-318J-243D01*
G02X102315Y287994I-1200J501D01*
G03X103002Y288082I318J243D01*
G02X103578Y288722I1200J-501D01*
G03X103622Y289395I-192J351D01*
G02X105453Y291193I768J1049D01*
G03X106075Y291154I327J230D01*
G02X108264Y289856I959J-878D01*
G03X108631Y289327I379J-129D01*
G02X108857Y286553I-44J-1400D01*
G03X108543Y286077I77J-392D01*
G37*
G36*
G01X55818Y275247D02*
G02X54508Y275145I-568J-1170D01*
G03X54454Y275833I-229J328D01*
G02X55765Y275935I568J1170D01*
G03X55818Y275247I229J-328D01*
G37*
G36*
G01X68263Y263702D02*
G02X66195Y263659I-1050J766D01*
G03X65578Y263671I-313J-249D01*
G02X64182Y265752I-986J847D01*
G03X64448Y266211I-126J380D01*
G02X67001Y266232I1274J259D01*
G03X67351Y265762I393J-73D01*
G02X67420Y265752I-140J-1293D01*
G03X67855Y266296I64J395D01*
G02X70265Y266286I1207J483D01*
G03X70441Y265784I370J-152D01*
G02X68873Y263745I-633J-1136D01*
G03X68263Y263702I-287J-278D01*
G37*
G36*
G01X68147Y258115D02*
G02X66608Y257941I-652J-1125D01*
G03X66487Y258603I-273J292D01*
G02X68649Y260948I646J1572D01*
G03X69247Y260811I356J182D01*
G02X68996Y258992I787J-1035D01*
G03X68383Y259022I-319J-241D01*
G02X68116Y258788I-1249J1153D01*
G03X68147Y258115I231J-326D01*
G37*
G36*
G01X80249Y240733D02*
G03Y240462I147J-136D01*
G02X78412I-918J-848D01*
G03Y240733I-147J136D01*
G02Y242430I918J848D01*
G03Y242701I-147J136D01*
G02X80249I918J848D01*
G03Y242430I147J-136D01*
G02Y240733I-918J-848D01*
G37*
G36*
G01X73222Y234007D02*
G03X73496Y233809I200J-12D01*
G02X72685Y232465I482J-1208D01*
G03X72201Y232814I-398J-42D01*
G02X72210Y235353I-277J1270D01*
G03X72697Y235712I88J390D01*
G02X73494Y234413I1296J-99D01*
G03X73218Y234209I-77J-185D01*
G02X73222Y234007I-1294J-125D01*
G37*
G36*
G01X161221Y262607D02*
G03X160850Y262219I29J-399D01*
G02X159350Y263653I-1400J38D01*
G03X159721Y264042I-29J399D01*
G02X162140Y264963I1400J-38D01*
G03X162700Y264940I291J274D01*
G02X162618Y262942I938J-1039D01*
G03X162059Y262965I-291J-274D01*
G02X161221Y262607I-938J1039D01*
G37*
G36*
G01X181627Y252585D02*
G03X181228Y252174I1J-400D01*
G02X179925Y253438I-1300J-36D01*
G03X180324Y253849I-1J400D01*
G02X181627Y252585I1300J36D01*
G37*
G36*
G01X155164Y245862D02*
G03X155246Y246454I-223J332D01*
G02X157015Y246254I990J842D01*
G03X156963Y245660I239J-320D01*
G02X155164Y245862I-1019J-960D01*
G37*
G36*
G01X174325Y229793D02*
G03X174854Y229787I268J297D01*
G02X174831Y227837I849J-985D01*
G03X174302Y227843I-268J-297D01*
G02X174325Y229793I-849J985D01*
G37*
G36*
G01X158325D02*
G03X158854Y229787I268J297D01*
G02X158831Y227837I849J-985D01*
G03X158302Y227843I-268J-297D01*
G02X158325Y229793I-849J985D01*
G37*
G36*
G01X186152Y221635D02*
G03X186126Y222185I-303J261D01*
G02X188010Y222275I899J939D01*
G03X188036Y221725I303J-261D01*
G02X186152Y221635I-899J-939D01*
G37*
G36*
G01X181623Y221541D02*
G03X182152Y221535I268J297D01*
G02X182129Y219585I849J-985D01*
G03X181600Y219591I-268J-297D01*
G02X181623Y221541I-849J985D01*
G37*
G36*
G01X174222Y221421D02*
G03X174751Y221415I268J297D01*
G02X174728Y219465I849J-985D01*
G03X174199Y219471I-268J-297D01*
G02X174222Y221421I-849J985D01*
G37*
G36*
G01X166222D02*
G03X166751Y221415I268J297D01*
G02X166728Y219465I849J-985D01*
G03X166199Y219471I-268J-297D01*
G02X166222Y221421I-849J985D01*
G37*
G36*
G01X162061Y217506D02*
G03X162067Y216995I311J-252D01*
G02X159913Y216970I-1067J-907D01*
G03X159907Y217481I-311J252D01*
G02X159606Y218688I1067J907D01*
G03X159306Y219164I-391J86D01*
G02X158728Y219465I294J1266D01*
G03X158199Y219471I-268J-297D01*
G02X158222Y221421I-849J985D01*
G03X158751Y221415I268J297D01*
G02X160884Y220225I849J-985D01*
G03X161211Y219768I395J-63D01*
G02X162061Y217506I-238J-1380D01*
G37*
G36*
G01X134203Y212668D02*
G02X135984Y214559I931J908D01*
G02X137818Y212726I850J-984D01*
G02X136034Y210851I-984J-850D01*
G02X134203Y212668I-800J1025D01*
G37*
G36*
G01X107958Y211849D02*
G03X107992Y212116I-129J153D01*
G02X109899Y211868I1066J744D01*
G03X109864Y211601I129J-153D01*
G02X107958Y211849I-1066J-744D01*
G37*
G36*
G01X166318Y210746D02*
G03X165916Y211154I-400J8D01*
G02X164912Y213287I-6J1300D01*
G03X164918Y213792I-307J256D01*
G02X166935Y213767I1018J808D01*
G03X166929Y213262I307J-256D01*
G02X167210Y212428I-1018J-808D01*
G03X167612Y212020I400J-8D01*
G02X168588Y209854I6J-1300D01*
G03X168570Y209344I298J-266D01*
G02X166667I-951J-732D01*
G03X166648Y209854I-317J244D01*
G02X166318Y210746I970J866D01*
G37*
G36*
G01X188061Y209394D02*
G03X188562Y209362I270J295D01*
G02X188443Y207497I692J-981D01*
G03X187942Y207529I-270J-295D01*
G02X188061Y209394I-692J981D01*
G37*
G36*
G01X113849Y207078D02*
G03X113852Y206797I144J-139D01*
G02X112001Y206781I-918J-921D01*
G03X111998Y207062I-144J139D01*
G02X113849Y207078I918J921D01*
G37*
G36*
G01X113560Y199631D02*
G03X113042Y199596I-238J-321D01*
G02X112908Y201570I-909J930D01*
G03X113425Y201606I238J321D01*
G02X113560Y199631I909J-930D01*
G37*
G36*
G01X141784Y195732D02*
G03X141854Y195150I305J-259D01*
G02X139962Y194926I-825J-1131D01*
G03X139893Y195508I-305J259D01*
G02X141784Y195732I825J1131D01*
G37*
G36*
G01X192476Y193922D02*
G03X192444Y193343I259J-305D01*
G02X190793Y193434I-873J-823D01*
G03X190825Y194013I-259J305D01*
G02X192476Y193922I873J823D01*
G37*
G36*
G01X111722Y190172D02*
G03X112005Y190162I147J136D01*
G02X111939Y188329I888J-950D01*
G03X111655Y188339I-147J-136D01*
G02X111722Y190172I-888J950D01*
G37*
G36*
G01X204204Y180849D02*
G03X204229Y180274I290J-275D01*
G02X202563Y180202I-795J-899D01*
G03X202538Y180777I-290J275D01*
G02X204204Y180849I795J899D01*
G37*
G36*
G01X158325Y160847D02*
G03X158902Y160773I324J235D01*
G02X158693Y159140I761J-928D01*
G03X158115Y159214I-324J-235D01*
G02X158325Y160847I-761J928D01*
G37*
G36*
G01X186972Y156026D02*
G03X187027Y155470I312J-250D01*
G02X185319Y155299I-770J-920D01*
G03X185263Y155855I-312J250D01*
G02X186972Y156026I770J920D01*
G37*
G36*
G01X169372Y151620D02*
G02Y152782I-1050J581D01*
G03X170072I350J194D01*
G02X172172I1050J-581D01*
G03X172872I350J194D01*
G02Y151620I1050J-581D01*
G03X172172I-350J-194D01*
G02X170072I-1050J581D01*
G03X169372I-350J-194D01*
G37*
G36*
G01X160618Y151563D02*
G02X160586Y153059I-954J728D01*
G03X161211Y153073I307J256D01*
G02X161243Y151576I954J-728D01*
G03X160618Y151563I-307J-256D01*
G37*
G36*
G01X171783Y159164D02*
G02Y160639I-1071J738D01*
G03X172442I329J227D01*
G02X174583I1071J-738D01*
G03X175242I329J227D01*
G02Y159164I1071J-738D01*
G03X174583I-329J-227D01*
G02X172442I-1071J738D01*
G03X171783I-329J-227D01*
G37*
G36*
G01X180653Y161704D02*
G02X179265Y161597I-619J-1028D01*
G03X179215Y162247I-256J307D01*
G02X180603Y162354I619J1028D01*
G03X180653Y161704I256J-307D01*
G37*
G36*
G01X183815Y161826D02*
G02X182653I-581J-1050D01*
G03Y162526I-194J350D01*
G02X183815I581J1050D01*
G03Y161826I194J-350D01*
G37*
G36*
G01X166654Y162793D02*
G02X166479Y164209I-1166J574D01*
G03X167143Y164291I305J259D01*
G02X169380Y164454I1166J-574D01*
G03X170038I329J227D01*
G02X172180I1071J-738D01*
G03X172838I329J227D01*
G02X174972Y164465I1071J-738D01*
G03X175612Y164445I327J230D01*
G02X175600Y162960I937J-750D01*
G03X174960Y162951I-316J-245D01*
G02X172838Y162979I-1051J766D01*
G03X172180I-329J-227D01*
G02X170038I-1071J738D01*
G03X169380I-329J-227D01*
G02X167318Y162875I-1071J738D01*
G03X166654Y162793I-305J-259D01*
G37*
G36*
G01X202498Y164399D02*
G02X201211Y164601I-800J-894D01*
G03X201304Y165275I-162J366D01*
G02X202616Y165068I830J1001D01*
G03X202498Y164399I148J-371D01*
G37*
G36*
G01X169380Y166811D02*
G02Y168286I-1071J738D01*
G03X170038I329J227D01*
G02X172180I1071J-738D01*
G03X172838I329J227D01*
G02Y166811I1071J-738D01*
G03X172180I-329J-227D01*
G02X170038I-1071J738D01*
G03X169380I-329J-227D01*
G37*
G36*
G01X157985Y166896D02*
G02X157931Y168144I-1051J580D01*
G03X158613Y168174I332J223D01*
G02X158667Y166926I1051J-580D01*
G03X157985Y166896I-332J-223D01*
G37*
G36*
G01X177462Y173591D02*
G02X176211Y173308I-402J-1131D01*
G03X176062Y173968I-283J283D01*
G02X177313Y174250I402J1131D01*
G03X177462Y173591I283J-283D01*
G37*
G36*
G01X202328Y173376D02*
G02X201115Y173600I-794J-900D01*
G03X201240Y174275I-140J375D01*
G02X202453Y174051I794J900D01*
G03X202328Y173376I140J-375D01*
G37*
G36*
G01X208758Y173855D02*
G02X207335Y173571I-524J-1080D01*
G03X207210Y174196I-300J265D01*
G02X208633Y174480I524J1080D01*
G03X208758Y173855I300J-265D01*
G37*
G36*
G01X166725Y174069D02*
G02X164636Y173943I-1091J707D01*
G03X164130Y174034I-307J-256D01*
G02X164398Y175909I-596J1042D01*
G03X164909Y175855I288J278D01*
G02X166503Y175743I725J-1079D01*
G03X167093Y175805I267J298D01*
G02X169114Y175680I970J-706D01*
G03X169814I350J194D01*
G02X171914I1050J-581D01*
G03X172614I350J194D01*
G02Y174518I1050J-581D01*
G03X171914I-350J-194D01*
G02X169814I-1050J581D01*
G03X169114I-350J-194D01*
G02X167312Y174163I-1050J581D01*
G03X166725Y174069I-251J-312D01*
G37*
G36*
G01X163514Y178417D02*
G02Y179580I-1050J581D01*
G03X164214I350J194D01*
G02X166314I1050J-581D01*
G03X167014I350J194D01*
G02X169114Y179580I1050J-581D01*
G03X169814Y179580I350J194D01*
G02X171050Y180185I1050J-581D01*
G03X171493Y180704I62J395D01*
G02X171924Y182043I1141J372D01*
G03X171949Y182668I-237J322D01*
G02X173444Y182608I785J908D01*
G03X173419Y181983I237J-322D01*
G02X173762Y180665I-785J-908D01*
G03X174019Y180146I376J-137D01*
G02X174472Y179887I-355J-1146D01*
G03X175073Y179961I269J296D01*
G02X175414Y180299I998J-666D01*
G03X175473Y180922I-219J335D01*
G02X175365Y182533I832J865D01*
G03X175358Y183038I-313J249D01*
G02X177218Y183063I920J771D01*
G03X177225Y182558I313J-249D01*
G02X176962Y180782I-920J-771D01*
G03X176904Y180159I219J-335D01*
G02X175264Y178407I-832J-865D01*
G03X174662Y178333I-269J-296D01*
G02X172614Y178418I-998J666D01*
G03X171914I-350J-194D01*
G02X169814Y178417I-1050J581D01*
G03X169114Y178417I-350J-194D01*
G02X167014Y178417I-1050J581D01*
G03X166314I-350J-194D01*
G02X164214I-1050J581D01*
G03X163514I-350J-194D01*
G37*
G36*
G01X200089Y180281D02*
G02X198658Y180191I-655J-1005D01*
G03X198618Y180832I-259J305D01*
G02X198401Y182662I655J1005D01*
G03X198391Y183221I-291J275D01*
G02X200106Y183251I843J855D01*
G03X200116Y182692I291J-275D01*
G02X200049Y180921I-843J-855D01*
G03X200089Y180281I259J-305D01*
G37*
G36*
G01X188719Y183183D02*
G02X187100Y183139I-785J-908D01*
G03X187084Y183729I-278J288D01*
G02X187288Y185687I785J908D01*
G03Y186387I-194J350D01*
G02X188450I581J1050D01*
G03Y185687I194J-350D01*
G02X188703Y183774I-581J-1050D01*
G03X188719Y183183I278J-288D01*
G37*
G36*
G01X158712Y183311D02*
G02X158627Y181855I909J-784D01*
G03X157993Y181892I-331J-224D01*
G02X158078Y183348I-909J784D01*
G03X158712Y183311I331J224D01*
G37*
G36*
G01X184649Y185626D02*
G02X183329Y185653I-681J-989D01*
G03X183342Y186320I-213J338D01*
G02X184663Y186294I681J989D01*
G03X184649Y185626I213J-338D01*
G37*
G36*
G01X158137Y185885D02*
G02X158052Y187554I-903J791D01*
G03X158640Y187600I273J293D01*
G02X160816Y187401I1024J-801D01*
G03X161519Y187390I355J185D01*
G02Y186209I1045J-590D01*
G03X160816Y186197I-348J-197D01*
G02X158726Y185898I-1152J602D01*
G03X158137Y185885I-289J-277D01*
G37*
G36*
G01X200137Y188570D02*
G02X198626Y188495I-703J-1094D01*
G03X198594Y189145I-248J314D01*
G02X198623Y191351I703J1094D01*
G03X198652Y192015I-207J342D01*
G02X198728Y194163I769J1048D01*
G03X198719Y194845I-213J338D01*
G02X200012Y194885I615J1031D01*
G03X200046Y194204I226J-330D01*
G02X200095Y191951I-624J-1141D01*
G03X200066Y191287I207J-342D01*
G02X200104Y189220I-769J-1048D01*
G03X200137Y188570I248J-314D01*
G37*
G36*
G01X173146Y188487D02*
G02X171984I-581J-1050D01*
G03Y189187I-194J350D01*
G02Y191287I581J1050D01*
G03Y191987I-194J350D01*
G02X173146I581J1050D01*
G03Y191287I194J-350D01*
G02Y189187I-581J-1050D01*
G03Y188487I194J-350D01*
G37*
G36*
G01X177309Y188290D02*
G02X175630Y188299I-845J-853D01*
G03X175633Y188871I-278J287D01*
G02X175680Y190621I845J853D01*
G03X175661Y191235I-266J299D01*
G02X175502Y192977I739J946D01*
G03X175509Y193501I-299J266D01*
G02X175558Y195103I917J774D01*
G03X175560Y195653I-289J276D01*
G02X175640Y197376I874J822D01*
G03Y197976I-265J300D01*
G02X175773Y199878I794J900D01*
G03X175731Y200570I-220J334D01*
G02X176924Y200644I533J1075D01*
G03X176967Y199951I220J-334D01*
G02X177228Y197976I-533J-1075D01*
G03Y197376I265J-300D01*
G02X177302Y195647I-794J-900D01*
G03X177300Y195097I289J-276D01*
G02X177324Y193478I-874J-822D01*
G03X177317Y192954I299J-266D01*
G02X177197Y191283I-917J-774D01*
G03X177217Y190669I266J-299D01*
G02X177312Y188861I-739J-946D01*
G03X177309Y188290I278J-287D01*
G37*
G36*
G01X155508Y189994D02*
G02Y191157I-1050J581D01*
G03X156208I350J194D01*
G02X158140Y191390I1050J-581D01*
G03X158753Y191420I294J271D01*
G02X159282Y191819I959J-722D01*
G03X159487Y192388I-143J373D01*
G02X160964Y191855I1047J587D01*
G03X160758Y191286I143J-373D01*
G02X158830Y189884I-1047J-587D01*
G03X158217Y189854I-294J-271D01*
G02X156208Y189994I-959J722D01*
G03X155508I-350J-194D01*
G37*
G36*
G01X147477Y194511D02*
G02X146214Y194428I-565J-1059D01*
G03X146169Y195106I-233J325D01*
G02X147432Y195189I565J1059D01*
G03X147477Y194511I233J-325D01*
G37*
G36*
G01X117621Y195032D02*
G02X116170Y194886I-618J-1144D01*
G03X116103Y195545I-256J307D01*
G02X115573Y196077I617J1144D01*
G03X114962Y196194I-353J-188D01*
G02X113232Y196239I-840J992D01*
G03X112954Y196236I-137J-146D01*
G02X111172Y196194I-913J925D01*
G03X110905I-134J-149D01*
G02Y198129I-868J968D01*
G03X111172I134J149D01*
G02X112931Y198109I868J-968D01*
G03X113209Y198112I137J146D01*
G02X115269Y197798I913J-925D01*
G03X115881Y197681I353J188D01*
G02X117555Y195691I840J-992D01*
G03X117621Y195032I256J-307D01*
G37*
G36*
G01X184453Y196906D02*
G02X183055Y196986I-761J-1054D01*
G03X183106Y197649I-196J349D01*
G02X183083Y199519I741J944D01*
G03X183086Y200133I-255J309D01*
G02X184700Y200084I838J994D01*
G03X184666Y199470I239J-321D01*
G02X184477Y197571I-819J-877D01*
G03X184453Y196906I210J-340D01*
G37*
G36*
G01X169383Y196799D02*
G02X168023Y196851I-718J-962D01*
G03X168049Y197510I-214J338D01*
G02X169408Y197457I718J962D01*
G03X169383Y196799I214J-338D01*
G37*
G36*
G01X203755Y196903D02*
G02X202542Y196920I-621J-1027D01*
G03X202552Y197610I-197J348D01*
G02X202592Y199687I621J1027D01*
G03Y200387I-194J350D01*
G02X203754I581J1050D01*
G03Y199687I194J-350D01*
G02X203765Y197593I-581J-1050D01*
G03X203755Y196903I197J-348D01*
G37*
G36*
G01X157555Y197147D02*
G02X156549Y196208I168J-1188D01*
G03X156102Y196687I-391J83D01*
G02X156064Y199069I-168J1188D01*
G03X156497Y199559I43J398D01*
G02X157534Y198644I1168J278D01*
G03X157102Y198154I-43J-398D01*
G02X157108Y197626I-1168J-278D01*
G03X157555Y197147I391J-83D01*
G37*
G36*
G01X192350Y199687D02*
G02X191187I-581J-1050D01*
G03Y200387I-194J350D01*
G02X192350I581J1050D01*
G03Y199687I194J-350D01*
G37*
G36*
G01X188486Y199706D02*
G02X187005Y199721I-750J-937D01*
G03X187011Y200351I-244J317D01*
G02X188493Y200336I750J937D01*
G03X188486Y199706I244J-317D01*
G37*
G36*
G01X128410Y204717D02*
G02X128126Y203435I954J-884D01*
G03X127444Y203574I-381J-123D01*
G02X127732Y204879I-1057J918D01*
G03X128410Y204717I384J110D01*
G37*
G36*
G01X147489Y205839D02*
G02X146406Y206905I-1193J-129D01*
G03X146841Y207346I37J398D01*
G02X147923Y206280I1193J129D01*
G03X147489Y205839I-37J-398D01*
G37*
G36*
G01X156873Y213060D02*
G02X155434Y212987I-660J-1235D01*
G03X155399Y213672I-223J332D01*
G02X156838Y213745I660J1235D01*
G03X156873Y213060I223J-332D01*
G37*
G36*
G01X192085Y235032D02*
G02X190214I-935J-903D01*
G03Y235588I-288J278D01*
G02X190105Y235717I935J903D01*
G03X189754Y235659I-161J-119D01*
G02X189461Y237239I-1620J517D01*
G03X190097Y237254I312J250D01*
G02X192085Y235588I1053J-763D01*
G03Y235032I288J-278D01*
G37*
G36*
G01X170637Y246325D02*
G02X169761Y247687I-1294J131D01*
G03X170289Y248043I129J379D01*
G02X172732Y248895I1398J-80D01*
G03X173284Y248852I298J266D01*
G02X174746Y249047I888J-1082D01*
G03X175271Y249241I164J365D01*
G02X177495Y249664I1266J-598D01*
G03X178055Y249675I274J292D01*
G02X178096Y247674I1000J-980D01*
G03X177536Y247663I-274J-292D01*
G02X175964Y247366I-1000J981D01*
G03X175439Y247171I-164J-365D01*
G02X173128Y246837I-1266J598D01*
G03X172576Y246880I-298J-266D01*
G02X171180Y246657I-888J1082D01*
G03X170637Y246325I-145J-373D01*
G37*
G36*
G01X151093Y250778D02*
G02X149834Y251146I-944J-894D01*
G03X150019Y251818I-97J388D01*
G02X151299Y251444I985J995D01*
G03X151093Y250778I84J-391D01*
G37*
G36*
G01X176634Y254014D02*
G02X174260Y254709I-1300J-38D01*
G03X174204Y255225I-330J226D01*
G02X174006Y255463I893J945D01*
G03X173640Y255377I-168J-109D01*
G02X173235Y256479I-1291J151D01*
G03X173881Y256630I273J293D01*
G02X176135Y256953I1216J-461D01*
G03X176649Y256844I319J241D01*
G02X177170Y257003I632J-1136D01*
G03X177532Y257450I-34J399D01*
G02X178934Y256313I1291J159D01*
G03X178572Y255866I34J-399D01*
G02X177092Y254421I-1290J-158D01*
G03X176634Y254014I-58J-396D01*
G37*
G36*
G01X153883Y268808D02*
G02X153590Y267342I1351J-1032D01*
G03X152916Y267519I-387J-102D01*
G02X151100Y267472I-932J906D01*
G03X150487Y267387I-272J-293D01*
G02X150260Y269017I-1110J677D01*
G03X150874Y269102I272J293D01*
G02X153193Y268904I1110J-677D01*
G03X153883Y268808I372J147D01*
G37*
G36*
G01X141031Y282778D02*
G02X140978Y284250I-1097J698D01*
G03X141637Y284274I321J238D01*
G02X141690Y282801I1097J-698D01*
G03X141031Y282778I-321J-238D01*
G37*
G36*
G01X139503Y273758D02*
G02X139607Y273526I1231J418D01*
G01X139550Y273626D01*
X139529D01*
X139543Y273640D01*
X139503Y273758D01*
G37*
G36*
G01X122726Y327457D02*
G03X123296Y327260I371J149D01*
G02X122846Y325436I648J-1127D01*
G03X122249Y325526I-338J-214D01*
G02X122726Y327457I-1101J1296D01*
G37*
G36*
G01X101198Y327004D02*
G03X101324Y327522I-227J329D01*
G02X103209Y327065I1147J613D01*
G03X103084Y326547I227J-329D01*
G02X101198Y327004I-1147J-613D01*
G37*
G36*
G01X150729Y326264D02*
G03X150513Y325723I147J-372D01*
G02X148856Y326385I-1179J-548D01*
G03X149071Y326925I-147J372D01*
G02X150729Y326264I1179J548D01*
G37*
G36*
G01X112356Y317442D02*
G03X111743Y317307I-253J-310D01*
G02X111218Y319005I-1169J569D01*
G03X111800Y319239I198J347D01*
G02X112356Y317442I1631J-480D01*
G37*
G36*
G01X179070Y317911D02*
G03X179599Y317888I277J288D01*
G02X179516Y315940I818J-1010D01*
G03X178987Y315963I-277J-288D01*
G02X179070Y317911I-818J1010D01*
G37*
G36*
G01X118251Y323195D02*
G02X116491Y322959I-754J-1059D01*
G03X116413Y323539I-310J253D01*
G02X116038Y323953I754J1059D01*
G03X115375Y323999I-347J-199D01*
G02X115476Y325442I-1027J797D01*
G03X116140Y325395I347J199D01*
G02X118173Y323774I1027J-797D01*
G03X118251Y323195I310J-253D01*
G37*
G36*
G01X142326Y322545D02*
G02X140613Y322868I-1035J-787D01*
G03X140723Y323451I-208J341D01*
G02X140463Y324356I1035J787D01*
G03X140138Y324784I-398J36D01*
G02X139908Y324850I241J1278D01*
G03X139639Y324624I-72J-186D01*
G02X139113Y323302I-1274J-259D01*
G03X139028Y322729I230J-327D01*
G02X136727Y321685I-1024J-801D01*
G03X136303Y322009I-393J-75D01*
G02X135648Y324482I-101J1296D01*
G03X135726Y325157I-170J362D01*
G02X137831Y326088I808J1019D01*
G03X138262Y325662I399J-27D01*
G02X138605Y325644I103J-1296D01*
G03X139079Y326043I74J393D01*
G02X141674Y325945I1300J20D01*
G03X141998Y325516I398J-36D01*
G02X142013Y325513I-238J-1278D01*
G03X142482Y325818I79J392D01*
G02X144495Y326598I1268J-285D01*
G03X145034Y326673I229J328D01*
G02X145296Y324784I1007J-823D01*
G03X144757Y324709I-229J-328D01*
G02X143495Y324258I-1007J823D01*
G03X143026Y323953I-79J-392D01*
G02X142435Y323129I-1269J285D01*
G03X142326Y322545I208J-341D01*
G37*
G36*
G01X109080Y315313D02*
G02X108646Y314149I854J-981D01*
G03X107987Y314395I-396J-56D01*
G02X108421Y315558I-854J981D01*
G03X109080Y315313I396J56D01*
G37*
G36*
G01X100676Y314059D02*
G02X99492Y314974I-1242J-384D01*
G03X99892Y315492I18J400D01*
G02X102421Y316061I1242J383D01*
G03X103054Y315796I396J57D01*
G02X102539Y314564I772J-1046D01*
G03X101906Y314829I-396J-57D01*
G02X101076Y314577I-772J1046D01*
G03X100676Y314059I-18J-400D01*
G37*
G36*
G01X122244Y148712D02*
G03X122204Y148142I259J-305D01*
G02X119832Y148307I-1270J-1130D01*
G03X119872Y148877I-259J305D01*
G02X122244Y148712I1270J1130D01*
G37*
G36*
G01X130583Y134437D02*
G03X130608Y134963I-289J277D01*
G02X132563Y134873I1017J810D01*
G03X132539Y134348I289J-277D01*
G02X130583Y134437I-1017J-810D01*
G37*
G36*
G01X120277Y133822D02*
G02X120230Y135239I-1230J668D01*
G03X120919Y135262I338J214D01*
G02X120966Y133844I1230J-668D01*
G03X120277Y133822I-338J-214D01*
G37*
G36*
G01X277200Y148132D02*
G03X276646Y148113I-267J-298D01*
G02X276521Y150037I-933J906D01*
G03X277073Y150090I249J313D01*
G02X278011Y150570I1061J-914D01*
G03X278376Y150988I-35J398D01*
G02X280540Y152020I1299J62D01*
G03X281096Y152043I266J298D01*
G02X281173Y150177I942J-896D01*
G03X280616Y150154I-266J-298D01*
G02X279865Y149764I-942J896D01*
G03X279526Y149325I59J-396D01*
G02X277200Y148132I-1392J-150D01*
G37*
G36*
G01X300772Y357203D02*
G03X301164Y356724I392J-79D01*
G02X299790Y355600I-1J-1400D01*
G03X299398Y356079I-392J79D01*
G02X300772Y357203I1J1400D01*
G37*
G36*
G01X274605Y344876D02*
G03X274117Y344661I-124J-380D01*
G02X271804Y346180I-1275J579D01*
G03Y346717I-296J269D01*
G02X274242Y347687I1037J941D01*
G03X274516Y347505I200J4D01*
G02X274656Y347553I524J-1298D01*
G03X274940Y348012I-110J385D01*
G02X277328Y349241I1376J261D01*
G03X277875Y349211I289J276D01*
G02X279379Y346877I903J-1070D01*
G03X279179Y346369I172J-361D01*
G02X276668Y345146I-1302J-514D01*
G03X276038Y345225I-345J-202D01*
G02X274605Y344876I-998J982D01*
G37*
G36*
G01X289464Y339555D02*
G03X289438Y339027I287J-279D01*
G02X287340Y339129I-1094J-874D01*
G03X287366Y339657I-287J279D01*
G02X289464Y339555I1094J874D01*
G37*
G36*
G01X266968Y335083D02*
G03X267326Y334684I400J-1D01*
G02X265889Y333314I-139J-1293D01*
G03X265507Y333690I-399J-24D01*
G02X266968Y335083I61J1399D01*
G37*
G36*
G01X250977Y333157D02*
G03X250544Y332864I-47J-397D01*
G02X249357Y334502I-1255J340D01*
G03X249770Y334823I21J399D01*
G02X250977Y333157I1373J-276D01*
G37*
G36*
G01X259582Y333089D02*
G03X259400Y332874I17J-199D01*
G02X257907Y334060I-1296J-99D01*
G03X258075Y334286I-30J198D01*
G02X259817Y335838I1386J197D01*
G03X260317Y336180I102J387D01*
G02X261352Y334669I1391J-156D01*
G03X260852Y334327I-102J-387D01*
G02X259582Y333089I-1391J156D01*
G37*
G36*
G01X270362Y324792D02*
G03X270890Y324559I376J137D01*
G02X270164Y322909I494J-1203D01*
G03X269636Y323142I-376J-137D01*
G02X270362Y324792I-494J1203D01*
G37*
G36*
G01X279992Y324460D02*
G03X280266Y324394I170J105D01*
G02X279841Y322601I679J-1109D01*
G03X279566Y322666I-170J-105D01*
G02X278230Y322652I-680J1108D01*
G03X277967Y322597I-101J-173D01*
G02X277570Y324481I-1054J762D01*
G03X277833Y324537I101J173D01*
G02X279992Y324460I1054J-762D01*
G37*
G36*
G01X288943Y322795D02*
G03X288395Y322628I-193J-350D01*
G02X287866Y324362I-1156J595D01*
G03X288415Y324529I193J350D01*
G02X288943Y322795I1156J-595D01*
G37*
G36*
G01X305906Y327701D02*
G03X306475Y327816I230J327D01*
G02X305886Y325028I3518J-2200D01*
G03X305411Y325363I-396J-57D01*
G02X305906Y327701I-255J1275D01*
G37*
G36*
G01X336658Y319142D02*
G03Y319416I-145J137D01*
G02X336920Y321559I1017J962D01*
G03X336935Y322223I-215J337D01*
G02X339337Y321466I2390J3393D01*
G03X338969Y320913I1J-400D01*
G02X338691Y319416I-1294J-534D01*
G03Y319142I145J-137D01*
G02X336658I-1017J-963D01*
G37*
G36*
G01X248671Y318281D02*
G03X248829Y317780I367J-160D01*
G02X246888Y317289I-730J-1195D01*
G03X246799Y317571I-173J101D01*
G02X246702Y317621I589J1270D01*
G03X246436Y317556I-98J-174D01*
G02X244604Y319331I-1091J707D01*
G03X244712Y319877I-228J329D01*
G02X247288Y320621I1176J760D01*
G03X247621Y320222I400J-4D01*
G02X248671Y318281I-233J-1381D01*
G37*
G36*
G01X306475Y312748D02*
G03X306200I-138J-145D01*
G02Y314781I-962J1017D01*
G03X306475I137J145D01*
G02Y312748I962J-1017D01*
G37*
G36*
G01X254154Y310717D02*
G03X254152Y310450I147J-135D01*
G02X252219Y310466I-974J-862D01*
G03X252221Y310734I-147J135D01*
G02X252229Y312466I974J862D01*
G03X252247Y312982I-297J268D01*
G02X254233Y312915I1021J805D01*
G03X254216Y312400I297J-268D01*
G02X254154Y310717I-1021J-805D01*
G37*
G36*
G01X297823Y310429D02*
G03Y310154I145J-137D01*
G02X295790I-1017J-962D01*
G03Y310429I-145J138D01*
G02X297140Y312752I1017J962D01*
G03X297626Y313058I95J389D01*
G02X298663Y311408I1370J-289D01*
G03X298176Y311102I-95J-389D01*
G02X297823Y310429I-1370J289D01*
G37*
G36*
G01X305855Y307126D02*
G03Y306851I145J-137D01*
G02X303821I-1017J-963D01*
G03Y307126I-145J137D01*
G02X305855I1017J963D01*
G37*
G36*
G01X284916Y304100D02*
G03X284641I-137J-145D01*
G02Y306133I-962J1017D01*
G03X284916I138J145D01*
G02Y304100I962J-1017D01*
G37*
G36*
G01X321063Y306270D02*
G03X321139Y305677I302J-263D01*
G02X319365Y303823I-735J-1073D01*
G03X318828Y303919I-320J-240D01*
G02X318238Y306307I-704J1093D01*
G03X318658Y306813I35J398D01*
G02X318990Y308151I1349J376D01*
G03Y308426I-145J137D01*
G02X318692Y309868I1017J963D01*
G03X318402Y310396I-376J137D01*
G02X317729Y312548I281J1269D01*
G03Y313092I-294J272D01*
G02X318994Y315238I954J883D01*
G03X319232Y315371I48J194D01*
G02X320160Y313712I1238J-396D01*
G03X319921Y313579I-48J-194D01*
G02X319637Y313092I-1238J396D01*
G03Y312548I294J-272D01*
G02X319926Y311282I-954J-883D01*
G03X320241Y310769I382J-118D01*
G02X321024Y308426I-234J-1381D01*
G03Y308151I145J-137D01*
G02X321063Y306270I-1017J-962D01*
G37*
G36*
G01X300568Y302116D02*
G03X300293I-137J-145D01*
G02Y304150I-962J1017D01*
G03X300568I138J145D01*
G02Y302116I962J-1017D01*
G37*
G36*
G01X288067Y300850D02*
G03Y300575I145J-137D01*
G02X286033I-1017J-962D01*
G03Y300850I-145J138D01*
G02X288067I1017J962D01*
G37*
G36*
G01X307967Y295375D02*
G03Y294832I294J-272D01*
G02X306059I-954J-883D01*
G03Y295375I-294J272D01*
G02X306427Y297419I954J883D01*
G03X306524Y297668I-90J179D01*
G02X308329Y296960I1219J453D01*
G03X308232Y296712I90J-179D01*
G02X307967Y295375I-1219J-453D01*
G37*
G36*
G01X319680Y289390D02*
G03X319680Y288877I307J-257D01*
G02X317686Y288877I-997J-834D01*
G03X317686Y289390I-307J257D01*
G02X319680Y289390I997J834D01*
G37*
G36*
G01X301329Y289523D02*
G03X301754Y289181I396J57D01*
G02X300577Y287622I96J-1297D01*
G03X300131Y287937I-392J-81D01*
G02X298980Y288308I-189J1387D01*
G03X298705I-137J-145D01*
G02Y290342I-963J1017D01*
G03X298980I137J145D01*
G02X301329Y289523I963J-1017D01*
G37*
G36*
G01X330563Y277293D02*
G03X330299Y277253I-109J-168D01*
G02X330006Y279169I-1003J827D01*
G03X330270Y279209I109J168D01*
G02X330563Y277293I1003J-827D01*
G37*
G36*
G01X343730Y276012D02*
G03X343634Y275480I243J-318D01*
G02X341600Y275847I-1184J-747D01*
G03X341696Y276378I-243J318D01*
G02X341622Y277740I1184J747D01*
G03X341469Y278258I-359J176D01*
G02X343448Y278844I721J1200D01*
G03X343601Y278325I359J-176D01*
G02X343730Y276012I-721J-1200D01*
G37*
G36*
G01X332107Y261799D02*
G03X332096Y261532I144J-139D01*
G02X330160Y261610I-1003J-827D01*
G03X330170Y261877I-144J139D01*
G02X332107Y261799I1003J827D01*
G37*
G36*
G01X319130Y259928D02*
G03X319186Y259650I166J-111D01*
G02X317301Y259333I-773J-1167D01*
G03X317263Y259614I-159J122D01*
G02X319130Y259928I786J1036D01*
G37*
G36*
G01X293748Y256272D02*
G03Y255997I145J-137D01*
G02X291714I-1017J-963D01*
G03Y256272I-145J137D01*
G02X291334Y257151I1017J963D01*
G03X290941Y257527I-399J-24D01*
G02X289682Y258360I22J1400D01*
G03X289155Y258564I-366J-162D01*
G02X289871Y260413I-564J1281D01*
G03X290398Y260209I366J162D01*
G02X292360Y259011I564J-1281D01*
G03X292753Y258634I399J24D01*
G02X293748Y256272I-22J-1400D01*
G37*
G36*
G01X299093Y255820D02*
G03X299389Y256365I-73J393D01*
G02X301934Y256264I1295J532D01*
G03X302126Y255719I357J-181D01*
G02X300587Y253426I-576J-1276D01*
G03X300312I-137J-145D01*
G02X299093Y255820I-963J1017D01*
G37*
G36*
G01X320362Y252060D02*
G03X319803I-280J-286D01*
G02Y254062I-979J1001D01*
G03X320362I280J286D01*
G02Y252060I979J-1001D01*
G37*
G36*
G01X331709Y250085D02*
G03Y249571I307J-257D01*
G02X329561I-1074J-899D01*
G03Y250085I-307J257D01*
G02X331709I1074J899D01*
G37*
G36*
G01X299848Y245989D02*
G03Y245714I145J-137D01*
G02X297814I-1017J-963D01*
G03Y245989I-145J137D01*
G02X299848I1017J963D01*
G37*
G36*
G01X319530Y241652D02*
G03X319458Y241085I242J-319D01*
G02X317514Y241330I-1097J-870D01*
G03X317586Y241897I-242J319D01*
G02X317609Y243666I1097J870D01*
G03Y244179I-307J257D01*
G02X319757I1074J898D01*
G03Y243666I307J-257D01*
G02X319530Y241652I-1074J-899D01*
G37*
G36*
G01X307967Y238289D02*
G03Y237745I294J-272D01*
G02X306059I-954J-883D01*
G03Y238289I-294J272D01*
G02X307967I954J883D01*
G37*
G36*
G01X342643Y234352D02*
G03Y233808I294J-272D01*
G02X340735I-954J-883D01*
G03Y234352I-294J272D01*
G02X342643I954J883D01*
G37*
G36*
G01X290789Y229405D02*
G03X291326Y229131I388J97D01*
G02X290488Y227490I520J-1300D01*
G03X289951Y227764I-388J-97D01*
G02X290789Y229405I-520J1300D01*
G37*
G36*
G01X343113Y228644D02*
G03Y228369I145J-137D01*
G02X341080I-1017J-963D01*
G03Y228644I-145J137D01*
G02X343113I1017J963D01*
G37*
G36*
G01X319769Y226317D02*
G03X319268Y226195I-178J-358D01*
G02X318763Y228277I-1129J828D01*
G03X319264Y228398I178J358D01*
G02X319376Y228533I1129J-828D01*
G03Y228808I-145J137D01*
G02X321410I1017J963D01*
G03Y228533I145J-137D01*
G02X319769Y226317I-1017J-962D01*
G37*
G36*
G01X307967Y226478D02*
G03Y225934I294J-272D01*
G02X306059I-954J-883D01*
G03Y226478I-294J272D01*
G02X307967I954J883D01*
G37*
G36*
G01X332084Y224655D02*
G03X332069Y224057I258J-305D01*
G02X330209Y224103I-956J-1023D01*
G03X330224Y224701I-258J305D01*
G02X332084Y224655I956J1023D01*
G37*
G36*
G01X320727Y221460D02*
G03X320960Y220977I384J-113D01*
G02X319089Y220075I-528J-1297D01*
G03X318856Y220559I-384J113D01*
G02X320727Y221460I528J1297D01*
G37*
G36*
G01X308087Y220557D02*
G03Y220044I307J-257D01*
G02X305939I-1074J-899D01*
G03Y220557I-307J257D01*
G02X308087I1074J899D01*
G37*
G36*
G01X294580Y202590D02*
G03X295162Y202578I297J268D01*
G02X295124Y200659I1000J-980D01*
G03X294542Y200670I-297J-268D01*
G02X294580Y202590I-1000J980D01*
G37*
G36*
G01X304737Y195222D02*
G03X304226I-256J-308D01*
G02Y197376I-894J1077D01*
G03X304737I256J308D01*
G02X306207Y197576I894J-1077D01*
G03X306732Y197767I164J365D01*
G02X307440Y195990I1172J-562D01*
G03X306928Y195768I-143J-374D01*
G02X304737Y195222I-1296J531D01*
G37*
G36*
G01X296588Y195595D02*
G03X296416Y195047I180J-357D01*
G02X294555Y195629I-1230J-668D01*
G03X294726Y196177I-180J357D01*
G02X296588Y195595I1230J668D01*
G37*
G36*
G01X259294Y359240D02*
G02X259239Y360820I-1060J754D01*
G03X259874Y360842I309J254D01*
G02X259929Y359262I1060J-754D01*
G03X259294Y359240I-309J-254D01*
G37*
G36*
G01X310130Y336034D02*
G02X308955Y336979I-1327J-446D01*
G03X309377Y337504I43J398D01*
G02X309384Y338417I1327J446D01*
G03X308927Y338942I-377J133D01*
G02X308314Y341674I-278J1372D01*
G03X308605Y342164I-96J388D01*
G02X310295Y341159I1354J355D01*
G03X310004Y340670I96J-388D01*
G02X309970Y339848I-1354J-355D01*
G03X310426Y339323I377J-133D01*
G02X310553Y336559I278J-1372D01*
G03X310130Y336034I-43J-398D01*
G37*
G36*
G01X258047Y327923D02*
G02X257653Y329368I-1223J443D01*
G03X258283Y329540I255J308D01*
G02X258678Y328095I1223J-443D01*
G03X258047Y327923I-255J-308D01*
G37*
G36*
G01X255679Y318769D02*
G02X253357Y319861I-1070J738D01*
G03X253085Y320354I-385J109D01*
G02X254361Y322529I366J1248D01*
G03X254693Y322614I140J143D01*
G02X254762Y322793I1244J-377D01*
G03X254677Y323054I-181J86D01*
G02X256479Y323637I626J1140D01*
G03X256563Y323376I181J-86D01*
G02X256717Y323277I-626J-1140D01*
G03X257345Y323501I240J320D01*
G02X259204Y324345I1262J-312D01*
G03X259709Y324463I183J355D01*
G02X261791Y324477I1046J-772D01*
G03X262350Y324399I319J242D01*
G02X263934Y324385I783J-1038D01*
G03X264209Y324411I123J158D01*
G02X264389Y322535I982J-853D01*
G03X264114Y322509I-123J-158D01*
G02X262097Y322575I-982J853D01*
G03X261538Y322653I-319J-242D01*
G02X260159Y322536I-783J1038D01*
G03X259654Y322418I-183J-355D01*
G02X257828Y322149I-1046J772D01*
G03X257199Y321925I-240J-320D01*
G02X257185Y321871I-1263J310D01*
G03X257438Y321381I384J-112D01*
G02X256224Y318879I-459J-1323D01*
G03X255679Y318769I-216J-337D01*
G37*
G36*
G01X332065Y302062D02*
G02X330180Y302070I-947J-891D01*
G03X330181Y302346I-144J138D01*
G02X329859Y303520I947J891D01*
G03X329358Y303992I-390J87D01*
G02X327953Y306299I-388J1345D01*
G03Y306574I-145J137D01*
G02X329986I1017J963D01*
G03Y306299I145J-137D01*
G02X330325Y304986I-1017J-963D01*
G03X330810Y304498I387J-100D01*
G02X332067Y302338I318J-1261D01*
G03X332065Y302062I144J-138D01*
G37*
G36*
G01X343849Y300384D02*
G02X342188Y299352I-379J-1244D01*
G03X341886Y299806I-395J65D01*
G02X341676Y302462I325J1362D01*
G03X341899Y302968I-153J370D01*
G02X341823Y303606I1315J480D01*
G03X341661Y303825I-199J22D01*
G02X341484Y306334I241J1278D01*
G03X341644Y306988I-129J379D01*
G02X341547Y308667I941J897D01*
G03X341523Y309178I-320J241D01*
G02X343521Y309273I959J878D01*
G03X343545Y308762I320J-241D01*
G02X343005Y306654I-959J-878D01*
G03X342844Y306000I129J-379D01*
G02X343202Y305046I-941J-897D01*
G03X343378Y304839I200J-9D01*
G02X343749Y302154I-164J-1391D01*
G03X343526Y301648I153J-370D01*
G02X343576Y300856I-1315J-480D01*
G03X343849Y300384I390J-89D01*
G37*
G36*
G01X343259Y286958D02*
G02X341351I-954J-883D01*
G03Y287501I-294J272D01*
G02X341176Y289030I954J883D01*
G03X341037Y289571I-347J199D01*
G02X340881Y291855I727J1197D01*
G03X340929Y292430I-252J311D01*
G02X341186Y294376I974J861D01*
G03X341163Y295058I-221J334D01*
G02X342524Y295102I644J1130D01*
G03X342547Y294421I221J-334D01*
G02X342776Y292329I-644J-1130D01*
G03X342760Y291751I269J-296D01*
G02X342936Y290002I-996J-984D01*
G03X343044Y289455I335J-219D01*
G02X343259Y287501I-739J-1070D01*
G03Y286958I294J-272D01*
G37*
G36*
G01X298752Y276793D02*
G02X296772Y278771I-963J1017D01*
G03X296770Y279049I-145J137D01*
G02X296390Y280267I1000J980D01*
G03X295871Y280715I-394J68D01*
G02X296817Y281808I-435J1331D01*
G03X297335Y281360I394J-68D01*
G02X299118Y279651I435J-1331D01*
G03X299611Y279158I385J-108D01*
G02X299773Y279193I378J-1348D01*
G03X300098Y279693I-62J395D01*
G02X302412Y281075I1352J365D01*
G03X302687I137J145D01*
G02Y279041I963J-1017D01*
G03X302412I-137J-145D01*
G02X301666Y278675I-963J1017D01*
G03X301341Y278175I62J-395D01*
G02X299027Y276793I-1352J-365D01*
G03X298752I-138J-145D01*
G37*
G36*
G01X280152Y268317D02*
G02X278642Y268831I-1086J-716D01*
G03X278836Y269443I-131J378D01*
G02X280934Y271279I1135J820D01*
G03X281209I137J145D01*
G02Y269246I963J-1017D01*
G03X280934I-137J-145D01*
G02X280371Y268921I-963J1017D01*
G03X280152Y268317I114J-383D01*
G37*
G36*
G01X320802Y268452D02*
G02X318769I-1017J-963D01*
G03Y268727I-145J137D01*
G02X318976Y270831I1017J962D01*
G03X319082Y271372I-231J326D01*
G02X318866Y272176I1183J749D01*
G03X318452Y272592I-400J16D01*
G02X317488Y275052I-50J1399D01*
G03X317569Y275561I-261J303D01*
G02X317729Y277115I1114J671D01*
G03Y277659I-294J272D01*
G02X317789Y279486I954J883D01*
G03X317736Y280109I-275J290D01*
G02X319431Y280213I779J1163D01*
G03X319455Y279588I262J-303D01*
G02X319637Y277659I-772J-1046D01*
G03Y277115I294J-272D01*
G02X319597Y275307I-954J-883D01*
G03X319550Y274793I281J-285D01*
G02X319801Y273936I-1148J-802D01*
G03X320215Y273520I400J-16D01*
G02X321075Y270978I50J-1399D01*
G03X320969Y270438I231J-326D01*
G02X320802Y268727I-1183J-749D01*
G03Y268452I145J-137D01*
G37*
G36*
G01X293021Y264759D02*
G02X293027Y266179I-1204J715D01*
G03X293709Y266164I346J201D01*
G02X293703Y264768I1094J-703D01*
G03X293021Y264759I-338J-213D01*
G37*
G36*
G01X329759Y264532D02*
G02X328881Y265668I-1390J-167D01*
G03X329425Y266088I146J372D01*
G02X330303Y264952I1390J167D01*
G03X329759Y264532I-146J-372D01*
G37*
G36*
G01X281670Y257520D02*
G02X280815Y256409I533J-1295D01*
G03X280266Y256831I-397J52D01*
G02X281121Y257942I-533J1295D01*
G03X281670Y257520I397J-52D01*
G37*
G36*
G01X342773Y243076D02*
G02X340979Y243026I-870J-966D01*
G03X340962Y243604I-284J281D01*
G02X341017Y245583I870J966D01*
G03X341003Y246217I-251J312D01*
G02X342662I829J1128D01*
G03X342648Y245583I237J-322D01*
G02X342757Y243655I-815J-1013D01*
G03X342773Y243076I284J-281D01*
G37*
G36*
G01X319844Y235687D02*
G02X319280Y237114I-1371J284D01*
G03X319900Y237345I231J327D01*
G02X320453Y235941I1262J-313D01*
G03X319844Y235687I-218J-335D01*
G37*
G36*
G01X331753Y232385D02*
G02X330201Y232230I-660J-1235D01*
G03X330135Y232891I-255J308D01*
G02X330146Y235367I660J1235D01*
G03X330236Y236011I-185J354D01*
G02X330154Y237958I964J1015D01*
G03X330143Y238236I-149J133D01*
G02X330238Y240198I898J940D01*
G03X330260Y240808I-247J314D01*
G02X331939Y240747I875J961D01*
G03X331917Y240137I247J-314D01*
G02X332068Y238377I-876J-961D01*
G03X332097Y238101I158J-123D01*
G02X331849Y235786I-898J-1075D01*
G03X331759Y235141I185J-354D01*
G02X331686Y233047I-964J-1015D01*
G03X331753Y232385I255J-308D01*
G37*
G36*
G01X271754Y202484D02*
G02X270514I-620J-1143D01*
G03Y203187I-191J352D01*
G02X271754I620J1143D01*
G03Y202484I191J-352D01*
G37*
G36*
G01X250870Y182436D02*
G02X249831Y184223I-1336J419D01*
G03X250298Y184495I85J391D01*
G02X250682Y185102I1336J-419D01*
G03X250698Y185673I-272J293D01*
G02X252871Y186975I936J902D01*
G03X253530Y186810I381J123D01*
G02X253134Y185834I904J-935D01*
G03X252761Y185928I-200J-6D01*
G02X252570Y185673I-1127J648D01*
G03X252586Y185102I288J-278D01*
G02X251337Y182707I-952J-1027D01*
G03X250870Y182436I-85J-391D01*
G37*
G36*
G01X259140Y179063D02*
G02X259003Y177652I1133J-822D01*
G03X258380Y177788I-363J-168D01*
G02X256613Y177858I-846J988D01*
G03X256025Y177834I-283J-282D01*
G02X255955Y179594I-991J842D01*
G03X256543Y179617I283J282D01*
G02X256835Y179872I991J-842D01*
G03X256977Y180388I-215J337D01*
G02X258906Y179789I1252J627D01*
G03X258731Y179283I193J-350D01*
G02X258786Y179126I-1197J-507D01*
G03X259140Y179063I193J54D01*
G37*
G54D36*
X279850Y380000D03*
G54D29*
X84943Y105146D03*
X115489Y7535D03*
X97091Y131810D03*
X118702Y35046D03*
X120901Y12833D03*
X51234Y213426D03*
X56639Y125865D03*
X84330Y132180D03*
X27934Y276176D03*
X174447Y347876D03*
X185584Y344776D03*
X174447Y352826D03*
X140785Y393731D03*
X177930Y383446D03*
X175618Y372527D03*
X173820Y383421D03*
X181887D03*
X74003Y175644D03*
X85326Y184932D03*
X74722Y185613D03*
G54D33*
X226434Y186676D03*
X226134Y167876D03*
X228578Y178999D03*
X231578D03*
X230734Y175176D03*
X225976Y208736D03*
X230191Y208742D03*
X235317Y202004D03*
X235706Y193645D03*
X235034Y178826D03*
X237834Y208876D03*
X243583Y163725D03*
X244502Y171677D03*
X237594Y200198D03*
X192467Y142672D03*
X186134Y139776D03*
X204834Y139576D03*
X195520Y139625D03*
X192534Y139676D03*
X207120Y133079D03*
X154063Y136987D03*
X183234Y136876D03*
X195567Y136376D03*
X207934Y136576D03*
X165265Y133088D03*
X172634Y130476D03*
X168065Y133088D03*
X191868Y130248D03*
Y133049D03*
X146634Y133076D03*
X162463Y133087D03*
X183134Y139876D03*
X189034Y142576D03*
X180134Y139576D03*
X189634Y136876D03*
X146802Y140699D03*
X201634Y139576D03*
X180534Y132776D03*
X195543Y132563D03*
X204784Y145595D03*
X170864Y144491D03*
X146724Y148391D03*
X159664Y144491D03*
X154063Y148391D03*
X146724Y163695D03*
Y171346D03*
X146634Y178876D03*
X147050Y155448D03*
X189334Y172376D03*
X162722Y159945D03*
X153200Y195764D03*
X155421Y193735D03*
X165709Y159889D03*
X195834Y175476D03*
X176834Y152176D03*
X192434Y166576D03*
X183334Y169476D03*
X189234Y175176D03*
X180081Y175445D03*
X207873Y163504D03*
X205134Y206976D03*
X192334Y169676D03*
X202134Y158076D03*
X168665Y193037D03*
X187518Y195918D03*
X180201Y201722D03*
X180034Y157776D03*
X180334Y154676D03*
X160508Y196729D03*
X208234Y160476D03*
X211234Y163276D03*
X214578Y159795D03*
X172634Y195976D03*
X168767Y201372D03*
X153567Y199576D03*
X154234Y182676D03*
X165559Y186657D03*
X155758Y202026D03*
X191769Y184637D03*
X191567Y187476D03*
X207073Y195837D03*
X164765Y201437D03*
X172522Y199086D03*
X165334Y192976D03*
X164765Y195836D03*
X193648Y207225D03*
X203134Y190276D03*
X153601Y187846D03*
X205134Y157976D03*
X207634Y166776D03*
X198634Y157876D03*
X203173Y187437D03*
X168665Y184637D03*
X165034Y189776D03*
X192234Y157776D03*
X180234Y172376D03*
X189034Y169176D03*
X187567Y179176D03*
X186134Y160676D03*
X192433Y163504D03*
X186257D03*
X189344Y163505D03*
X198558Y163506D03*
Y166390D03*
X183127Y172694D03*
X180029Y169474D03*
X192534Y175476D03*
X211034Y166476D03*
X207634Y169776D03*
X165217Y152292D03*
X228578Y148391D03*
X214334Y147676D03*
X222978Y148391D03*
X231378Y144491D03*
X234177Y148391D03*
X244334Y140776D03*
X236978Y148391D03*
G54D28*
X83210Y98854D03*
X30350Y215027D03*
X96066Y144454D03*
X50623Y184174D03*
X50413Y178817D03*
X38202Y257876D03*
X39234Y343476D03*
X40334Y236876D03*
X38934Y261676D03*
X142134Y344876D03*
X89213Y348127D03*
X34351Y259591D03*
X105893Y358256D03*
X102305Y368526D03*
X102834Y363176D03*
X110677Y353068D03*
X94034Y352476D03*
X98862Y358370D03*
X224034Y215476D03*
X220034D03*
X68446Y213340D03*
X49284Y250060D03*
X158634Y290054D03*
X152848Y283636D03*
X157832Y283611D03*
X23830Y325594D03*
X30234Y303776D03*
X77834Y319476D03*
X82634Y319576D03*
G54D30*
X32636Y111837D03*
X81043Y47250D03*
X73066Y134069D03*
X75547Y61705D03*
X46401Y219353D03*
X58989Y201647D03*
X35391Y164291D03*
X56034Y208576D03*
X30970Y153924D03*
X17514Y156608D03*
X105634Y153176D03*
X21368Y168142D03*
X24470Y168248D03*
X13855Y146007D03*
X9632Y147394D03*
X11318Y158357D03*
X58934Y206676D03*
X53569Y175330D03*
X44310Y170829D03*
X36040Y169162D03*
X47321Y193376D03*
X67087Y158721D03*
X59509Y306184D03*
X52898Y330378D03*
X81916Y362943D03*
X77276Y357959D03*
X83122Y349401D03*
X68834Y355476D03*
X72534Y355576D03*
X68834Y351976D03*
X72534Y352076D03*
X78134Y351976D03*
X77634Y361076D03*
X59477Y335182D03*
X96634Y342176D03*
X100134Y347976D03*
X38606Y293710D03*
X88105Y342176D03*
X44634Y316776D03*
X231934Y218676D03*
X228834Y218776D03*
X206934Y255476D03*
X212250Y259113D03*
X213739Y236860D03*
X234178Y175099D03*
X216853Y247194D03*
X223634Y226376D03*
X116861Y164834D03*
X207234Y245022D03*
X223334Y230176D03*
X208989Y308839D03*
X149110Y341468D03*
X196689Y358316D03*
X188193Y353735D03*
X139991Y350065D03*
X217529Y345616D03*
X203434Y289876D03*
X182778Y331567D03*
X189074Y336348D03*
X215334Y340376D03*
X204038Y358523D03*
X125549Y350302D03*
X118201Y350097D03*
X122363Y350046D03*
X176934Y359876D03*
X180370Y347997D03*
X130650Y349963D03*
X224286Y350370D03*
X232973Y314348D03*
X192046Y325559D03*
X214570Y329494D03*
X288924Y114620D03*
X283819Y105060D03*
X296357Y112048D03*
X260708Y161493D03*
X318281Y202740D03*
X236670Y170948D03*
X247494Y207702D03*
X247134Y202176D03*
Y198176D03*
X260400Y157652D03*
X247534Y213476D03*
X235646Y332826D03*
X235964Y268858D03*
X263116Y282065D03*
X107254Y261276D03*
X116334Y256876D03*
X71760Y218581D03*
X72474Y194053D03*
X69448Y199672D03*
X67384Y191202D03*
X140975Y177055D03*
X139664Y160907D03*
X116646Y229856D03*
X82858Y253290D03*
X67426Y252063D03*
X77391Y256121D03*
X86763Y254112D03*
X63134Y248876D03*
X79334Y262376D03*
X63734Y260376D03*
X59312Y280449D03*
X97572Y286475D03*
X95469Y283494D03*
X112834Y277476D03*
X109734D03*
X55619Y270944D03*
X75947Y271707D03*
X58848Y265010D03*
X128634Y261676D03*
X116931Y265804D03*
X131434Y266876D03*
X114152Y213651D03*
X105244Y210490D03*
X164777Y167488D03*
X129354Y198220D03*
X139753Y190528D03*
X124835Y193521D03*
X123110Y198281D03*
X189845Y212428D03*
X193054Y212312D03*
X179842Y209257D03*
X158859Y255040D03*
X141234Y210576D03*
X143184Y203026D03*
X155492Y237949D03*
X146914Y283089D03*
X145834Y266205D03*
X142056Y265854D03*
X156834Y272376D03*
X145534Y277276D03*
X143734Y274276D03*
X169834Y269075D03*
X158089Y296885D03*
X182034Y264876D03*
X149704Y278657D03*
X136934Y283376D03*
X24242Y314483D03*
X89919Y311161D03*
X94243Y306348D03*
X87750Y326876D03*
X88013Y330591D03*
X87957Y322867D03*
X84974Y324803D03*
X105734Y306726D03*
X98687Y323817D03*
X98944Y327465D03*
X103067Y331220D03*
X88043Y297280D03*
X103534Y311676D03*
X94628Y320326D03*
X107034Y311676D03*
X102334Y304976D03*
X104263Y318861D03*
X98734Y306676D03*
X148434Y317476D03*
X114991Y328732D03*
X133034Y330476D03*
X119879Y316653D03*
X170734Y309276D03*
X148150Y307527D03*
X127746Y326004D03*
X133566Y317256D03*
X130206Y317493D03*
X144387Y321576D03*
X126934Y145176D03*
X270104Y149382D03*
X307647Y262628D03*
X282155Y260974D03*
X306954Y255914D03*
X264972Y205298D03*
X305144Y208472D03*
X252531Y191626D03*
X247434Y185476D03*
X259643Y184895D03*
X260433Y206279D03*
X262776Y199916D03*
X274234Y193511D03*
X284532Y211567D03*
X296901Y260224D03*
X294635Y251772D03*
X301679Y201542D03*
X257536Y349032D03*
X262072Y348514D03*
X265227Y355485D03*
X288419Y311284D03*
X331038Y292978D03*
Y296915D03*
X342765Y313138D03*
X307442Y266148D03*
X318041Y264636D03*
X295108Y297687D03*
X327808Y314911D03*
X259370Y314569D03*
X296155Y302345D03*
X294782Y306473D03*
G54D31*
X55109Y92360D03*
X57534Y114801D03*
X70608Y102061D03*
X66380Y147208D03*
X232350Y234693D03*
X232310Y372292D03*
X236952Y372139D03*
X285205Y353586D03*
G54D27*
X111142Y6397D03*
X57773Y11639D03*
X112716Y13064D03*
X112822Y23044D03*
X105550Y17948D03*
X25457Y132563D03*
X34127Y102064D03*
X66274Y126794D03*
X49143Y129356D03*
X70890Y109645D03*
X109047Y108669D03*
X44362Y130546D03*
X73105Y79359D03*
X65654Y120624D03*
X95176Y51444D03*
X28584Y141175D03*
X9241Y141692D03*
X107012Y140420D03*
X114874Y119925D03*
X8538Y68710D03*
X5455Y54956D03*
X5352Y60043D03*
X46981Y67494D03*
X57321Y57512D03*
X114266Y59808D03*
X104349Y51484D03*
X102911Y69478D03*
X110924Y71432D03*
X110532Y66979D03*
X51650Y118680D03*
X89796Y102074D03*
X110385Y44214D03*
X95163Y62466D03*
X54597Y43048D03*
X24351Y110792D03*
X72174Y44708D03*
X92218Y39969D03*
X95092Y44662D03*
X70208Y61094D03*
X15270Y50022D03*
X5462Y65541D03*
X8493Y52078D03*
X57148Y66655D03*
X70398Y47803D03*
X88963Y141976D03*
X83963Y141789D03*
X93967Y141495D03*
X25804Y127444D03*
X15218Y54836D03*
X15167Y64875D03*
X15116Y59891D03*
X94290Y99551D03*
X104237Y137306D03*
X29944Y59282D03*
X93520Y115139D03*
X72960Y116719D03*
X30567Y258986D03*
X76658Y158654D03*
X30154Y262192D03*
X28323Y187558D03*
X38385Y239881D03*
X23172Y231126D03*
X96488Y162762D03*
X27627Y226059D03*
X108360Y165538D03*
X14252Y193236D03*
X18200Y180790D03*
X25314Y160429D03*
X111520Y164357D03*
X7572Y161235D03*
X69938Y163174D03*
X28766Y248356D03*
X47840Y170124D03*
X102797Y165538D03*
X33702Y255470D03*
X30097Y205950D03*
X18583Y172391D03*
X17928Y144974D03*
X49369Y210180D03*
X95589Y166872D03*
X88963Y153722D03*
X22437Y194000D03*
X11952Y228654D03*
X105419Y150046D03*
X83875Y164570D03*
X91272Y163635D03*
X7100Y176528D03*
X7172Y168239D03*
X70198Y147511D03*
X50443Y149982D03*
X43146Y147309D03*
X61234Y148491D03*
X94010Y153727D03*
X74429Y161732D03*
X101073Y152712D03*
X86580Y146945D03*
X9081Y193010D03*
X66038Y165418D03*
X93946Y150090D03*
X29186Y183528D03*
X14920Y174011D03*
X18725Y238186D03*
X22943Y189624D03*
X18165Y193074D03*
X7205Y189508D03*
X52448Y165249D03*
X47806Y187851D03*
X40735Y160439D03*
X63130Y151174D03*
X110197Y357632D03*
X114810Y340282D03*
X24378Y277421D03*
X12276Y269556D03*
X71300Y369010D03*
X46447Y360389D03*
X104528Y386677D03*
X113630Y392766D03*
X51266Y385299D03*
X91008Y388919D03*
X115191Y44067D03*
X115609Y51132D03*
X232994Y258160D03*
X218997Y237361D03*
X224385Y257933D03*
X207545Y372531D03*
X196063Y372532D03*
X216213Y300781D03*
X221293Y289134D03*
X208664Y299851D03*
X225312Y277951D03*
X195921Y311114D03*
X217716Y309414D03*
X222696Y267746D03*
X219764Y277796D03*
X116893Y382772D03*
X209816Y320122D03*
X204233Y314724D03*
X212578Y310238D03*
X213470Y350067D03*
X227078Y309716D03*
X190675Y330573D03*
X179614Y338461D03*
X186866Y325553D03*
X197523Y362229D03*
X124259Y382014D03*
X225423Y369072D03*
X222214Y372496D03*
X197580Y281881D03*
X225703Y329432D03*
X295109Y115319D03*
X286633Y124740D03*
X285230Y114620D03*
X319909Y90736D03*
X295174Y89275D03*
X298606Y123470D03*
X295188Y105458D03*
X317005Y72821D03*
X319882Y85051D03*
X320508Y78914D03*
X290664Y95770D03*
X295648Y97516D03*
X319632Y128848D03*
X290293Y88307D03*
X324719Y138354D03*
X324873Y128950D03*
X325338Y121088D03*
X324746Y108472D03*
X325499Y97580D03*
X326312Y91234D03*
X326928Y73197D03*
X317371Y63640D03*
X323023Y66301D03*
X297509Y81728D03*
X315389Y103265D03*
X337225Y124072D03*
X296719Y131600D03*
X299759Y133949D03*
X306620Y132611D03*
X339874Y72851D03*
X343283Y131842D03*
X290613Y128708D03*
X322319Y60442D03*
X323042Y94089D03*
X297274Y156658D03*
X337875Y174735D03*
X339828Y163227D03*
X326841Y155853D03*
X336860Y144229D03*
X307724Y152499D03*
X303574Y155904D03*
X343580Y195201D03*
X321052Y189403D03*
X308818Y164512D03*
X320640Y149657D03*
X249651Y200103D03*
X341987Y212557D03*
X341884Y207675D03*
X343057Y179960D03*
X328227Y168120D03*
X343065Y156493D03*
X342893Y172988D03*
X325336Y149094D03*
X297293Y143198D03*
X235104Y222944D03*
X235576Y214549D03*
X316511Y163725D03*
X343078Y151728D03*
X304698Y171474D03*
X319958Y213568D03*
X245534Y294836D03*
X250632Y276967D03*
X263102Y291616D03*
X238469Y337502D03*
X238948Y278088D03*
X332005Y376956D03*
X238070Y327667D03*
X259845Y282010D03*
X306515Y386539D03*
X342783Y385392D03*
X96680Y266908D03*
X106730Y265061D03*
X113570Y180320D03*
X140652Y152136D03*
X117490Y243552D03*
X49094Y256159D03*
X154930Y218073D03*
X128738Y194598D03*
X137194Y197170D03*
X130546Y207431D03*
X116740Y204599D03*
X151438Y256018D03*
X160530Y277855D03*
X127330Y129382D03*
X125355Y137076D03*
X282068Y141262D03*
X266944Y144959D03*
X269511Y184957D03*
X283607Y190938D03*
X282111Y194005D03*
X303192Y262520D03*
X299877Y218608D03*
X268840Y192568D03*
X297954Y208951D03*
X295006Y219078D03*
X275834Y187176D03*
X289495Y208888D03*
X283213Y220447D03*
X283034Y187506D03*
X295490Y191029D03*
X306851Y250981D03*
X307210Y247563D03*
X341987Y251970D03*
X342218Y258984D03*
X269533Y196473D03*
X301384Y186126D03*
X287080Y186414D03*
X294558Y210552D03*
X307380Y259022D03*
X305669Y334046D03*
X325877Y334810D03*
X319456Y322164D03*
X304316Y271337D03*
X274484Y332699D03*
X283405Y288556D03*
X300362Y333726D03*
X252002Y347844D03*
X286070Y296297D03*
X307074Y290323D03*
X307364Y286865D03*
X342244Y263737D03*
X342090Y271342D03*
X342242Y282850D03*
X318150Y295662D03*
X290999Y270034D03*
X286698Y288531D03*
X330154Y312304D03*
X270516Y335108D03*
X329319Y271033D03*
X285032Y344832D03*
X327537Y289875D03*
X331290Y288266D03*
X327830Y299733D03*
X328542Y285640D03*
X342068Y316422D03*
X273161Y312826D03*
X268575Y339558D03*
X300515Y329313D03*
X283594Y281733D03*
X305768Y319858D03*
X299868Y323769D03*
X297948Y361058D03*
G54D34*
X319541Y174041D03*
X329777Y341363D03*
X319541D03*
G54D32*
X82620Y373837D03*
X43250D03*
G54D35*
X339324Y189789D03*
X309994D03*
%LPD*%
G75*
G36*
G01X87324Y219257D02*
X87414Y219347D01*
X90112D01*
X90523Y218936D01*
Y214876D01*
X90138Y214491D01*
X87723D01*
X87324Y214890D01*
Y219257D01*
G37*
G54D10*
X26989Y236764D03*
X20141Y324165D03*
X27634Y325976D03*
X65034Y353976D03*
X99634Y352976D03*
X206434Y340876D03*
X210934D03*
X206434Y336876D03*
X219394Y336093D03*
G54D20*
G01X227225Y175258D02*
X224010D01*
X222144Y173391D01*
Y169669D01*
X221575Y169100D01*
Y168027D01*
X221816Y167786D01*
Y165656D01*
X221485Y165326D01*
Y162094D01*
X220761Y161370D01*
X219262D01*
X218072Y160181D01*
Y156303D01*
X216004Y154235D01*
X213368D01*
X208714Y149582D01*
Y142240D01*
X209748Y141206D01*
X212178D01*
X213212Y140172D01*
Y135984D01*
X212747Y135518D01*
Y128590D01*
X209231Y125074D01*
X206180D01*
X201476Y120369D01*
Y118818D01*
X199511Y116853D01*
X166538D01*
X164676Y118715D01*
G54D11*
G01X192034Y122776D02*
X189772D01*
X65216Y132232D03*
X39709Y111682D03*
X29368Y121882D03*
X38115Y105020D03*
X38092Y108256D03*
X38194Y115288D03*
X14991Y111993D03*
X30017Y127341D03*
X88805Y132161D03*
X92986Y132244D03*
X87912Y44112D03*
X69922Y58624D03*
X93005Y54045D03*
X103351Y46365D03*
X18490Y178597D03*
X15132Y169320D03*
X101224Y163714D03*
X94042Y164087D03*
X86560Y163766D03*
X82534Y145730D03*
X83046Y152670D03*
X7018Y155933D03*
X23054Y183122D03*
X59077Y167132D03*
X129687Y141076D03*
X145283Y111764D03*
X164676Y118715D03*
X217273Y312634D03*
X231730Y300836D03*
X198271Y310975D03*
X206463Y328376D03*
X221507Y309832D03*
X222329Y277874D03*
X233156Y328450D03*
X226295Y267854D03*
X116610Y391968D03*
X278339Y144741D03*
X236178Y278003D03*
X238906Y316504D03*
X293309Y349520D03*
X296387Y349608D03*
X294848Y347475D03*
X293639Y345166D03*
X291463Y346925D03*
X290781Y349564D03*
X283228Y308455D03*
X271116Y267845D03*
X305571Y328700D03*
X261619Y314414D03*
X298807Y319864D03*
X275042Y288821D03*
X274874Y323946D03*
X295194Y287858D03*
X293677Y269962D03*
X299092Y349674D03*
X250669Y308907D03*
G54D21*
G01X173992Y46074D02*
X174986D01*
X176553Y47642D01*
X206492D01*
X206942Y48092D01*
Y48728D01*
X206492Y49178D01*
X201574D01*
X200098Y50654D01*
Y53621D01*
X201900Y55424D01*
X209418D01*
X210068Y56073D01*
G01X261493Y46074D02*
X260410D01*
X259214Y47270D01*
X231214D01*
X225001Y53483D01*
X221001D01*
X217462Y57023D01*
X214274D01*
X213699Y57598D01*
X211593D01*
X210068Y56073D01*
G01D02*
G01X263118Y44549D02*
X260564D01*
X258812Y46300D01*
X230812D01*
X224599Y52513D01*
X220600D01*
X217060Y56053D01*
X213747D01*
X213727Y56073D01*
X213068D01*
G01X177142Y46074D02*
X177740Y46672D01*
X206893D01*
X207912Y47690D01*
Y49130D01*
X206893Y50148D01*
X201976D01*
X201068Y51056D01*
Y53219D01*
X202302Y54454D01*
X211449D01*
X213068Y56073D01*
G54D12*
X89834Y218476D03*
X88134D03*
Y216876D03*
Y215276D03*
X89734D03*
Y216876D03*
X92289Y261846D03*
X56563Y232083D03*
X54302Y232443D03*
X51912Y234832D03*
X51964Y232417D03*
X54199Y234858D03*
X56834Y234476D03*
X60479Y231143D03*
X62409Y227926D03*
X92374Y201850D03*
X97134Y196376D03*
X94934Y196176D03*
X92634Y196276D03*
X94934Y202076D03*
X96434Y198476D03*
X94034Y198276D03*
X92734Y199976D03*
X96734Y200976D03*
X94840Y200103D03*
X103186Y189218D03*
X101048Y189212D03*
X92366Y266525D03*
X33983Y304892D03*
X112278Y293397D03*
X76922Y279548D03*
X80186Y279677D03*
X79569Y283120D03*
X76897D03*
X73816Y283173D03*
X75768Y285075D03*
X72197Y281529D03*
X68548Y281683D03*
X70347Y279782D03*
Y283302D03*
X78233Y281321D03*
X75432Y281398D03*
X73713Y279679D03*
X216191Y9073D03*
X177142Y11424D03*
X222568Y13073D03*
X177142Y14574D03*
X222568Y21073D03*
X177142Y20874D03*
X222568Y17073D03*
X177142Y17724D03*
X122334Y141576D03*
X198334Y139276D03*
X210934Y139576D03*
X173992Y49224D03*
X161392Y39775D03*
X222568Y41073D03*
X177142Y36624D03*
X161392Y42924D03*
X177142Y49224D03*
X222568Y56073D03*
X210068D03*
X173992Y46074D03*
X192034Y122776D03*
X222568Y29073D03*
X177142Y27174D03*
X222568Y33073D03*
X177142Y30324D03*
X222568Y45073D03*
X177142Y39774D03*
Y42924D03*
X216068Y49073D03*
X222568Y37073D03*
X177142Y33474D03*
X222568Y25073D03*
X177142Y24024D03*
X213068Y56073D03*
X177142Y46074D03*
X145997Y228662D03*
X214734Y166676D03*
X120654Y153013D03*
X123306Y153169D03*
X192334Y145776D03*
X124634Y183576D03*
Y187576D03*
X131634Y158176D03*
X128934Y224976D03*
X123016Y261204D03*
X125559Y261126D03*
X120421Y261101D03*
X201726Y154181D03*
X204726Y154207D03*
X192434Y151565D03*
X192433Y154550D03*
X207934Y157876D03*
X201696Y151565D03*
X207834Y153976D03*
X204785Y151565D03*
X214613Y156326D03*
X210961Y157434D03*
X210734Y148276D03*
X227225Y175258D03*
X119484Y306526D03*
X208812Y336149D03*
Y338649D03*
X211662Y338529D03*
X194133Y347078D03*
X191494Y347076D03*
X122134Y265976D03*
X123041Y263439D03*
X125534Y263336D03*
X120472Y263310D03*
X126795Y293320D03*
X124585Y293294D03*
X122247Y293371D03*
X147054Y295928D03*
X140924Y293320D03*
X133192Y293268D03*
X137853Y294778D03*
X186870Y286199D03*
X188131Y288053D03*
X188632Y299926D03*
X187004Y281355D03*
X186520Y289891D03*
X264642Y11424D03*
Y14574D03*
Y20874D03*
Y17724D03*
X261493Y49224D03*
X279041Y41434D03*
X264642Y36624D03*
X277241Y42923D03*
X264643Y49224D03*
X261493Y46074D03*
X264642Y27174D03*
Y30324D03*
Y39774D03*
Y42924D03*
Y33474D03*
Y24024D03*
Y46074D03*
X260620Y188030D03*
X253236Y335090D03*
X245146Y340064D03*
X265723Y337744D03*
X294964Y312549D03*
X245152Y338049D03*
X255270Y334999D03*
G54D22*
G01X264642Y46074D02*
X263118Y44549D01*
G54D13*
X93600Y247978D03*
X103937Y241582D03*
X89664Y247978D03*
X85728D03*
X79331Y237646D03*
G54D23*
G01X65097Y312882D02*
X65046D01*
G54D14*
X94214Y255654D03*
G54D24*
G01X-183757Y-112707D02*
X381593D01*
G01X381743Y-73471D02*
Y-152707D01*
X-183757D01*
G01Y-73376D02*
Y-152707D01*
G01Y-132707D02*
X381743D01*
Y-132557D01*
G01X-183757Y-92707D02*
X381693D01*
G01X-183757Y-73507D02*
X381743D01*
G01X214734Y166676D02*
Y168576D01*
X219254Y173096D01*
X219434D01*
G01X309994Y185839D02*
Y189789D01*
G01D02*
Y193738D01*
G01X306044Y189789D02*
X309994D01*
G01D02*
X313944D01*
G54D15*
X339324D03*
X309994D03*
G54D25*
G01X189772Y122776D02*
X159917D01*
X148509Y111367D01*
X145680Y111367D01*
X145283Y111764D01*
G01X339324Y185839D02*
Y189789D01*
G01D02*
Y193738D01*
G01X335375Y189789D02*
X339324D01*
G01D02*
X343274D01*
G54D16*
X307849Y372653D03*
X308886Y393056D03*
G54D26*
G01X219434Y173096D02*
Y177131D01*
X217434Y179131D01*
Y180230D01*
X216634Y181030D01*
Y185340D01*
X220334Y189040D01*
Y204640D01*
X214098Y210876D01*
X210399D01*
X200053Y221222D01*
Y261148D01*
X187825Y273376D01*
X177560D01*
X172382Y278554D01*
Y290286D01*
X160292Y302376D01*
X123634D01*
X119484Y306526D01*
G54D17*
G01X-27874Y388000D02*
Y12000D01*
G01D02*
X-7874D01*
G01Y42000D02*
Y12000D01*
G01Y42000D02*
X0D01*
G01X-7874Y48700D02*
X0D01*
G01X-7874Y144800D02*
Y48700D01*
G01Y248500D02*
X0D01*
G01X-7874Y255200D02*
X0D01*
G01X-7874Y151500D02*
X0D01*
G01X-7874Y144800D02*
X0D01*
G01X-7874Y248500D02*
Y151500D01*
G01Y351300D02*
Y255200D01*
G01Y388000D02*
Y358000D01*
G01D02*
X0D01*
G01X-7874Y351300D02*
X0D01*
G01X-27874Y388000D02*
X-7874D01*
G01X12000Y0D02*
X0Y12000D01*
G01X12000Y0D02*
X338000D01*
G01X0Y42000D02*
Y12000D01*
G01Y144800D02*
Y48700D01*
G01Y351300D02*
Y255200D01*
G01Y248500D02*
Y151500D01*
G01Y388000D02*
Y358000D01*
G01Y388000D02*
X12000Y400000D01*
G01X338000D02*
X12000D01*
G01X350000Y12000D02*
X338000Y0D01*
G01X350000Y12000D02*
Y42000D01*
G01Y48700D02*
X357874D01*
G01X350000Y42000D02*
X357874D01*
G01X350000Y48700D02*
Y144800D01*
G01Y255200D02*
X357874D01*
G01X350000Y248500D02*
X357874D01*
G01X350000Y144800D02*
X357874D01*
G01X350000Y151500D02*
X357874D01*
G01X350000D02*
Y248500D01*
G01Y255200D02*
Y351300D01*
G01D02*
X357874D01*
G01X350000Y358000D02*
X357874D01*
G01X350000D02*
Y388000D01*
G01X338000Y400000D02*
X350000Y388000D01*
G01X377874Y12000D02*
Y388000D01*
G01X357874Y12000D02*
Y42000D01*
G01Y12000D02*
X377874D01*
G01X357874Y48700D02*
Y144800D01*
G01Y151500D02*
Y248500D01*
G01Y255200D02*
Y351300D01*
G01Y358000D02*
Y388000D01*
G01D02*
X377874D01*
G54D18*
G01X-172757Y-118840D02*
X-173507Y-118340D01*
X-174382Y-118007D01*
X-175382D01*
X-176507Y-118507D01*
X-177382Y-119340D01*
X-178007Y-120340D01*
X-178507Y-122007D01*
X-178632Y-123507D01*
X-178382Y-125007D01*
X-178007Y-126007D01*
X-177257Y-127007D01*
X-176382Y-127674D01*
X-175507Y-128007D01*
X-174632D01*
X-173757Y-127674D01*
X-173007Y-127174D01*
X-172382Y-126507D01*
G01X-168632Y-128007D02*
X-165507Y-118007D01*
X-162382Y-128007D01*
G01X-163507Y-124507D02*
X-167507D01*
G01X-158007Y-128007D02*
Y-118007D01*
X-154882D01*
X-153882Y-118507D01*
X-153257Y-119174D01*
X-153007Y-120507D01*
X-153257Y-121840D01*
X-154007Y-122673D01*
X-154882Y-123174D01*
X-158007D01*
G01X-154882D02*
X-153007Y-128007D01*
G01X-148257D02*
Y-118007D01*
X-145757D01*
X-144757Y-118507D01*
X-144007Y-119174D01*
X-143382Y-120173D01*
X-142882Y-121340D01*
X-142757Y-123007D01*
X-142882Y-124674D01*
X-143382Y-125840D01*
X-144007Y-126840D01*
X-144757Y-127507D01*
X-145757Y-128007D01*
X-148257D01*
G01X-128007D02*
Y-118007D01*
X-124882D01*
X-123882Y-118507D01*
X-123257Y-119174D01*
X-123007Y-120507D01*
X-123257Y-121840D01*
X-124007Y-122673D01*
X-124882Y-123174D01*
X-128007D01*
G01X-124882D02*
X-123007Y-128007D01*
G01X-113007D02*
X-118007D01*
Y-118007D01*
X-113007D01*
G01X-115007Y-122840D02*
X-118007D01*
G01X-107882Y-128007D02*
Y-118007D01*
X-103132D01*
G01X-104882Y-122840D02*
X-107882D01*
G01X-95507Y-128340D02*
X-95757Y-128173D01*
Y-127840D01*
X-95507Y-127674D01*
X-95257Y-127840D01*
Y-128173D01*
X-95507Y-128340D01*
G01Y-123840D02*
X-95757Y-123673D01*
Y-123340D01*
X-95507Y-123174D01*
X-95257Y-123340D01*
Y-123673D01*
X-95507Y-123840D01*
G01X-85507Y-118007D02*
Y-128007D01*
G01X-88382Y-118007D02*
X-82632D01*
G01X-75507Y-128007D02*
X-76257Y-127840D01*
X-77007Y-127174D01*
X-77507Y-126007D01*
X-77757Y-124674D01*
X-77507Y-123340D01*
X-77007Y-122174D01*
X-76257Y-121507D01*
X-75507Y-121340D01*
X-74757Y-121507D01*
X-74007Y-122174D01*
X-73507Y-123340D01*
X-73382Y-124674D01*
X-73507Y-126007D01*
X-74007Y-127174D01*
X-74757Y-127840D01*
X-75507Y-128007D01*
G01X-68632Y-121340D02*
X-67132Y-128007D01*
X-65507Y-121340D01*
X-63882Y-128007D01*
X-62382Y-121340D01*
G01X-57382Y-123507D02*
X-53382D01*
X-53757Y-122340D01*
X-54382Y-121674D01*
X-55257Y-121340D01*
X-56132Y-121507D01*
X-56882Y-122007D01*
X-57382Y-123174D01*
X-57632Y-124174D01*
Y-125173D01*
X-57382Y-126174D01*
X-56757Y-127174D01*
X-56007Y-127840D01*
X-55132Y-128007D01*
X-54257Y-127674D01*
X-53382Y-126674D01*
G01X-47257Y-128007D02*
Y-121340D01*
G01Y-122673D02*
X-46632Y-122007D01*
X-46007Y-121507D01*
X-45132Y-121340D01*
X-44507Y-121507D01*
X-43757Y-122007D01*
G01X-38382Y-128007D02*
Y-118007D01*
X-32632Y-128007D01*
Y-118007D01*
G01X-25507Y-128007D02*
X-26257Y-127840D01*
X-27007Y-127174D01*
X-27507Y-126007D01*
X-27757Y-124674D01*
X-27507Y-123340D01*
X-27007Y-122174D01*
X-26257Y-121507D01*
X-25507Y-121340D01*
X-24757Y-121507D01*
X-24007Y-122174D01*
X-23507Y-123340D01*
X-23382Y-124674D01*
X-23507Y-126007D01*
X-24007Y-127174D01*
X-24757Y-127840D01*
X-25507Y-128007D01*
G01X-13257Y-118007D02*
Y-128007D01*
G01Y-126507D02*
X-13757Y-127340D01*
X-14507Y-127840D01*
X-15382Y-128007D01*
X-16382Y-127674D01*
X-17132Y-126840D01*
X-17632Y-125840D01*
X-17757Y-124674D01*
X-17632Y-123507D01*
X-17132Y-122507D01*
X-16382Y-121674D01*
X-15382Y-121340D01*
X-14507Y-121507D01*
X-13882Y-121840D01*
X-13257Y-122507D01*
G01X-7382Y-123507D02*
X-3382D01*
X-3757Y-122340D01*
X-4382Y-121674D01*
X-5257Y-121340D01*
X-6132Y-121507D01*
X-6882Y-122007D01*
X-7382Y-123174D01*
X-7632Y-124174D01*
Y-125173D01*
X-7382Y-126174D01*
X-6757Y-127174D01*
X-6007Y-127840D01*
X-5132Y-128007D01*
X-4257Y-127674D01*
X-3382Y-126674D01*
G01X17243Y-118840D02*
X16493Y-118340D01*
X15618Y-118007D01*
X14618D01*
X13493Y-118507D01*
X12618Y-119340D01*
X11993Y-120340D01*
X11493Y-122007D01*
X11368Y-123507D01*
X11618Y-125007D01*
X11993Y-126007D01*
X12743Y-127007D01*
X13618Y-127674D01*
X14493Y-128007D01*
X15368D01*
X16243Y-127674D01*
X16993Y-127174D01*
X17618Y-126507D01*
G01X24493Y-128007D02*
X23493Y-127840D01*
X22618Y-127174D01*
X21868Y-126174D01*
X21368Y-125007D01*
X21118Y-123673D01*
Y-122340D01*
X21368Y-121007D01*
X21868Y-119840D01*
X22618Y-118840D01*
X23493Y-118173D01*
X24493Y-118007D01*
X25493Y-118173D01*
X26368Y-118840D01*
X27118Y-119840D01*
X27618Y-121007D01*
X27868Y-122340D01*
Y-123673D01*
X27618Y-125007D01*
X27118Y-126174D01*
X26368Y-127174D01*
X25493Y-127840D01*
X24493Y-128007D01*
G01X31243D02*
Y-118007D01*
X34493Y-126340D01*
X37743Y-118007D01*
Y-128007D01*
G01X41243D02*
Y-118007D01*
X44493Y-126340D01*
X47743Y-118007D01*
Y-128007D01*
G01X61368Y-118007D02*
X64493Y-128007D01*
X67618Y-118007D01*
G01X74493Y-128007D02*
Y-118007D01*
X72993Y-120007D01*
G01Y-128007D02*
X75993D01*
G01X91993D02*
Y-118007D01*
X95118D01*
X96118Y-118507D01*
X96743Y-119174D01*
X96993Y-120507D01*
X96743Y-121840D01*
X95993Y-122673D01*
X95118Y-123174D01*
X91993D01*
G01X95118D02*
X96993Y-128007D01*
G01X102618Y-123507D02*
X106618D01*
X106243Y-122340D01*
X105618Y-121674D01*
X104743Y-121340D01*
X103868Y-121507D01*
X103118Y-122007D01*
X102618Y-123174D01*
X102368Y-124174D01*
Y-125173D01*
X102618Y-126174D01*
X103243Y-127174D01*
X103993Y-127840D01*
X104868Y-128007D01*
X105743Y-127674D01*
X106618Y-126674D01*
G01X112243Y-121340D02*
X114493Y-128007D01*
X116743Y-121340D01*
G01X122868Y-124674D02*
X126118D01*
G01X135493Y-122673D02*
X135993Y-122174D01*
X136368Y-121340D01*
X136618Y-120173D01*
X136368Y-119174D01*
X135868Y-118507D01*
X134993Y-118007D01*
X131618D01*
Y-128007D01*
X135743D01*
X136618Y-127340D01*
X137118Y-126340D01*
X137368Y-125173D01*
X137118Y-124007D01*
X136368Y-123007D01*
X135493Y-122673D01*
X131618D01*
G01X-177882Y-146507D02*
Y-136507D01*
X-173132D01*
G01X-174882Y-141340D02*
X-177882D01*
G01X-167007Y-136507D02*
X-164007D01*
G01X-165507D02*
Y-146507D01*
G01X-167007D02*
X-164007D01*
G01X-158007Y-136507D02*
Y-146507D01*
X-153007D01*
G01X-148757D02*
Y-136507D01*
X-145507Y-144840D01*
X-142257Y-136507D01*
Y-146507D01*
G01X-128007Y-136507D02*
Y-146507D01*
X-123007D01*
G01X-118632D02*
X-115507Y-136507D01*
X-112382Y-146507D01*
G01X-113507Y-143007D02*
X-117507D01*
G01X-105507Y-146507D02*
Y-142007D01*
X-108007Y-136507D01*
G01X-103007D02*
X-105507Y-142007D01*
G01X-93007Y-146507D02*
X-98007D01*
Y-136507D01*
X-93007D01*
G01X-95007Y-141340D02*
X-98007D01*
G01X-88007Y-146507D02*
Y-136507D01*
X-84882D01*
X-83882Y-137007D01*
X-83257Y-137673D01*
X-83007Y-139007D01*
X-83257Y-140340D01*
X-84007Y-141173D01*
X-84882Y-141674D01*
X-88007D01*
G01X-84882D02*
X-83007Y-146507D01*
G01X-75507Y-146840D02*
X-75757Y-146673D01*
Y-146340D01*
X-75507Y-146174D01*
X-75257Y-146340D01*
Y-146673D01*
X-75507Y-146840D01*
G01Y-142340D02*
X-75757Y-142174D01*
Y-141840D01*
X-75507Y-141674D01*
X-75257Y-141840D01*
Y-142174D01*
X-75507Y-142340D01*
G01X-178257Y-88007D02*
Y-78007D01*
X-175757D01*
X-174757Y-78507D01*
X-174007Y-79174D01*
X-173382Y-80173D01*
X-172882Y-81340D01*
X-172757Y-83007D01*
X-172882Y-84674D01*
X-173382Y-85840D01*
X-174007Y-86840D01*
X-174757Y-87507D01*
X-175757Y-88007D01*
X-178257D01*
G01X-168632D02*
X-165507Y-78007D01*
X-162382Y-88007D01*
G01X-163507Y-84507D02*
X-167507D01*
G01X-155507Y-78007D02*
Y-88007D01*
G01X-158382Y-78007D02*
X-152632D01*
G01X-143007Y-88007D02*
X-148007D01*
Y-78007D01*
X-143007D01*
G01X-145007Y-82840D02*
X-148007D01*
G01X-135507Y-88340D02*
X-135757Y-88173D01*
Y-87840D01*
X-135507Y-87674D01*
X-135257Y-87840D01*
Y-88173D01*
X-135507Y-88340D01*
G01Y-83840D02*
X-135757Y-83674D01*
Y-83340D01*
X-135507Y-83174D01*
X-135257Y-83340D01*
Y-83674D01*
X-135507Y-83840D01*
G01X-125507Y-78007D02*
X-126507Y-78340D01*
X-127257Y-79174D01*
X-127757Y-80173D01*
X-128132Y-81507D01*
X-128257Y-83007D01*
X-128132Y-84507D01*
X-127757Y-85840D01*
X-127257Y-86840D01*
X-126507Y-87674D01*
X-125507Y-88007D01*
X-124507Y-87674D01*
X-123757Y-86840D01*
X-123257Y-85840D01*
X-122882Y-84507D01*
X-122757Y-83007D01*
X-122882Y-81507D01*
X-123257Y-80173D01*
X-123757Y-79174D01*
X-124507Y-78340D01*
X-125507Y-78007D01*
G01X-114007Y-88007D02*
Y-78007D01*
X-118632Y-85174D01*
X-112382D01*
G01X-107132Y-84674D02*
X-103882D01*
G01X-98007Y-86007D02*
X-97382Y-87007D01*
X-96632Y-87674D01*
X-95757Y-88007D01*
X-94757Y-87674D01*
X-94007Y-87007D01*
X-93257Y-86007D01*
X-93007Y-84674D01*
Y-78007D01*
G01X-88257D02*
Y-85174D01*
X-87757Y-86674D01*
X-86757Y-87674D01*
X-85507Y-88007D01*
X-84257Y-87674D01*
X-83257Y-86674D01*
X-82757Y-85174D01*
Y-78007D01*
G01X-78007D02*
Y-88007D01*
X-73007D01*
G01X-65507D02*
Y-83507D01*
X-68007Y-78007D01*
G01X-63007D02*
X-65507Y-83507D01*
G01X-57132Y-84674D02*
X-53882D01*
G01X-47882Y-79673D02*
X-47132Y-78674D01*
X-46257Y-78173D01*
X-45257Y-78007D01*
X-44007Y-78340D01*
X-43132Y-79174D01*
X-42882Y-80173D01*
X-43007Y-81174D01*
X-43507Y-82007D01*
X-46007Y-83674D01*
X-47132Y-84840D01*
X-47882Y-86507D01*
X-48132Y-88007D01*
X-42882D01*
G01X-35507Y-78007D02*
X-36507Y-78340D01*
X-37257Y-79174D01*
X-37757Y-80173D01*
X-38132Y-81507D01*
X-38257Y-83007D01*
X-38132Y-84507D01*
X-37757Y-85840D01*
X-37257Y-86840D01*
X-36507Y-87674D01*
X-35507Y-88007D01*
X-34507Y-87674D01*
X-33757Y-86840D01*
X-33257Y-85840D01*
X-32882Y-84507D01*
X-32757Y-83007D01*
X-32882Y-81507D01*
X-33257Y-80173D01*
X-33757Y-79174D01*
X-34507Y-78340D01*
X-35507Y-78007D01*
G01X-27882Y-79673D02*
X-27132Y-78674D01*
X-26257Y-78173D01*
X-25257Y-78007D01*
X-24007Y-78340D01*
X-23132Y-79174D01*
X-22882Y-80173D01*
X-23007Y-81174D01*
X-23507Y-82007D01*
X-26007Y-83674D01*
X-27132Y-84840D01*
X-27882Y-86507D01*
X-28132Y-88007D01*
X-22882D01*
G01X-15507Y-78007D02*
X-16507Y-78340D01*
X-17257Y-79174D01*
X-17757Y-80173D01*
X-18132Y-81507D01*
X-18257Y-83007D01*
X-18132Y-84507D01*
X-17757Y-85840D01*
X-17257Y-86840D01*
X-16507Y-87674D01*
X-15507Y-88007D01*
X-14507Y-87674D01*
X-13757Y-86840D01*
X-13257Y-85840D01*
X-12882Y-84507D01*
X-12757Y-83007D01*
X-12882Y-81507D01*
X-13257Y-80173D01*
X-13757Y-79174D01*
X-14507Y-78340D01*
X-15507Y-78007D01*
G01X35180Y-134488D02*
Y-144488D01*
X40180D01*
G01X47430D02*
X47680Y-142322D01*
X48055Y-140488D01*
X48555Y-138821D01*
X49180Y-136988D01*
X50180Y-134488D01*
X45180D01*
G01X16993Y-88007D02*
Y-78007D01*
X19993D01*
X20993Y-78507D01*
X21743Y-79673D01*
X21993Y-81007D01*
X21743Y-82340D01*
X21118Y-83340D01*
X19993Y-83840D01*
X16993D01*
G01X26368Y-88007D02*
X29493Y-78007D01*
X32618Y-88007D01*
G01X31493Y-84507D02*
X27493D01*
G01X36993Y-88007D02*
Y-78007D01*
X40118D01*
X41118Y-78507D01*
X41743Y-79174D01*
X41993Y-80507D01*
X41743Y-81840D01*
X40993Y-82673D01*
X40118Y-83174D01*
X36993D01*
G01X40118D02*
X41993Y-88007D01*
G01X49493Y-78007D02*
Y-88007D01*
G01X46618Y-78007D02*
X52368D01*
G01X66618Y-88007D02*
Y-78007D01*
X72368Y-88007D01*
Y-78007D01*
G01X76743D02*
Y-85174D01*
X77243Y-86674D01*
X78243Y-87674D01*
X79493Y-88007D01*
X80743Y-87674D01*
X81743Y-86674D01*
X82243Y-85174D01*
Y-78007D01*
G01X86243Y-88007D02*
Y-78007D01*
X89493Y-86340D01*
X92743Y-78007D01*
Y-88007D01*
G01X100493Y-82673D02*
X100993Y-82174D01*
X101368Y-81340D01*
X101618Y-80173D01*
X101368Y-79174D01*
X100868Y-78507D01*
X99993Y-78007D01*
X96618D01*
Y-88007D01*
X100743D01*
X101618Y-87340D01*
X102118Y-86340D01*
X102368Y-85174D01*
X102118Y-84007D01*
X101368Y-83007D01*
X100493Y-82673D01*
X96618D01*
G01X111993Y-88007D02*
X106993D01*
Y-78007D01*
X111993D01*
G01X109993Y-82840D02*
X106993D01*
G01X116993Y-88007D02*
Y-78007D01*
X120118D01*
X121118Y-78507D01*
X121743Y-79174D01*
X121993Y-80507D01*
X121743Y-81840D01*
X120993Y-82673D01*
X120118Y-83174D01*
X116993D01*
G01X120118D02*
X121993Y-88007D01*
G01X129493Y-88340D02*
X129243Y-88173D01*
Y-87840D01*
X129493Y-87674D01*
X129743Y-87840D01*
Y-88173D01*
X129493Y-88340D01*
G01Y-83840D02*
X129243Y-83674D01*
Y-83340D01*
X129493Y-83174D01*
X129743Y-83340D01*
Y-83674D01*
X129493Y-83840D01*
G01X139493Y-78007D02*
Y-88007D01*
G01X136618Y-78007D02*
X142368D01*
G01X146618Y-88007D02*
Y-78007D01*
X152368Y-88007D01*
Y-78007D01*
G01X157868Y-84674D02*
X161118D01*
G01X172243Y-78840D02*
X171493Y-78340D01*
X170618Y-78007D01*
X169618D01*
X168493Y-78507D01*
X167618Y-79340D01*
X166993Y-80340D01*
X166493Y-82007D01*
X166368Y-83507D01*
X166618Y-85007D01*
X166993Y-86007D01*
X167743Y-87007D01*
X168618Y-87674D01*
X169493Y-88007D01*
X170368D01*
X171243Y-87674D01*
X171993Y-87174D01*
X172618Y-86507D01*
G01X179493Y-88007D02*
X178493Y-87840D01*
X177618Y-87174D01*
X176868Y-86174D01*
X176368Y-85007D01*
X176118Y-83674D01*
Y-82340D01*
X176368Y-81007D01*
X176868Y-79840D01*
X177618Y-78840D01*
X178493Y-78173D01*
X179493Y-78007D01*
X180493Y-78173D01*
X181368Y-78840D01*
X182118Y-79840D01*
X182618Y-81007D01*
X182868Y-82340D01*
Y-83674D01*
X182618Y-85007D01*
X182118Y-86174D01*
X181368Y-87174D01*
X180493Y-87840D01*
X179493Y-88007D01*
G01X186243D02*
Y-78007D01*
X189493Y-86340D01*
X192743Y-78007D01*
Y-88007D01*
G01X196243D02*
Y-78007D01*
X199493Y-86340D01*
X202743Y-78007D01*
Y-88007D01*
G01X207868Y-84674D02*
X211118D01*
G01X216368Y-78007D02*
X219493Y-88007D01*
X222618Y-78007D01*
G01X229493Y-88007D02*
Y-78007D01*
X227993Y-80007D01*
G01Y-88007D02*
X230993D01*
G01X237868Y-84674D02*
X241118D01*
G01X246993Y-88007D02*
Y-78007D01*
X250118D01*
X251118Y-78507D01*
X251743Y-79174D01*
X251993Y-80507D01*
X251743Y-81840D01*
X250993Y-82673D01*
X250118Y-83174D01*
X246993D01*
G01X250118D02*
X251993Y-88007D01*
G01X261993D02*
X256993D01*
Y-78007D01*
X261993D01*
G01X259993Y-82840D02*
X256993D01*
G01X266368Y-78007D02*
X269493Y-88007D01*
X272618Y-78007D01*
G01X280493Y-82673D02*
X280993Y-82174D01*
X281368Y-81340D01*
X281618Y-80173D01*
X281368Y-79174D01*
X280868Y-78507D01*
X279993Y-78007D01*
X276618D01*
Y-88007D01*
X280743D01*
X281618Y-87340D01*
X282118Y-86340D01*
X282368Y-85174D01*
X282118Y-84007D01*
X281368Y-83007D01*
X280493Y-82673D01*
X276618D01*
G01X12000Y-2D02*
X337997D01*
G01Y399998D02*
X12000D01*
G54D19*
G01X177142Y11424D02*
X177143Y11424D01*
Y9998D01*
X178068Y9073D01*
X182568D01*
X184568Y11073D01*
X190298D01*
X191059Y10312D01*
Y9834D01*
X191820Y9073D01*
X192898D01*
X193659Y9834D01*
Y10312D01*
X194420Y11073D01*
X195498D01*
X196259Y10312D01*
Y9834D01*
X197020Y9073D01*
X198098D01*
X198859Y9834D01*
Y10312D01*
X199620Y11073D01*
X200697D01*
X201459Y10312D01*
Y9834D01*
X202220Y9073D01*
X203298D01*
X204059Y9834D01*
Y10312D01*
X204820Y11073D01*
X205897D01*
X206659Y10312D01*
Y9834D01*
X207420Y9073D01*
X208498D01*
X209259Y9834D01*
Y10312D01*
X210020Y11073D01*
X211568D01*
X213543Y9098D01*
X216166D01*
X216191Y9073D01*
G01X264642Y11424D02*
X263398Y10180D01*
X262792Y9573D01*
X226692D01*
X224453Y7334D01*
X217930D01*
X216191Y9073D01*
G01X222568Y13073D02*
X223736Y14241D01*
X224568Y15073D01*
X226568D01*
X228637Y13004D01*
X230499D01*
X232568Y15073D01*
X234568D01*
X236637Y13004D01*
X238499D01*
X240568Y15073D01*
X242568D01*
X244637Y13004D01*
X263073D01*
X263616Y13547D01*
X264642Y14574D01*
G01X177142D02*
X178644Y13073D01*
X213068D01*
X215068Y11073D01*
X217568D01*
X219568Y13073D01*
X222568D01*
G01X264642Y20874D02*
X263593Y19825D01*
X263068Y19299D01*
X260068D01*
X257294Y22073D01*
X252568D01*
X249794Y19299D01*
X247342D01*
X245568Y21073D01*
X232568D01*
X230568Y23073D01*
X224568D01*
X222568Y21073D01*
G01D02*
X222537Y21042D01*
X220202D01*
X217843Y18683D01*
X179334D01*
X178445Y19572D01*
X177142Y20874D01*
G01X222568Y25073D02*
X220951Y23456D01*
X211451D01*
X209068Y21073D01*
X193940D01*
X192568Y22445D01*
X178722D01*
X177142Y24024D01*
G01X222568Y17073D02*
X219568Y17073D01*
X217575Y15080D01*
X179786D01*
X178488Y16378D01*
X177142Y17724D01*
G01X222568Y17073D02*
X223919Y18424D01*
X224568Y19073D01*
X242068D01*
X246068Y15073D01*
X249068D01*
X252568Y18573D01*
X257139D01*
X259568Y16144D01*
X263063D01*
X264642Y17724D01*
G01X173992Y49224D02*
X172219D01*
X170568Y47573D01*
Y45573D01*
X171568Y44573D01*
Y42573D01*
X170444Y41449D01*
X163068D01*
X162733Y41114D01*
X162732D01*
X161392Y39775D01*
G01X264642Y36624D02*
X263068Y35049D01*
X260092Y35049D01*
X258568Y36573D01*
X245068D01*
X244068Y37573D01*
X242543D01*
X241543Y36573D01*
X239568D01*
X238568Y37573D01*
X236043D01*
X235043Y36573D01*
X233068D01*
X232068Y37573D01*
X230068D01*
X229068Y36573D01*
X227068D01*
X223852Y39789D01*
X223851D01*
X222568Y41073D01*
G01D02*
X220568Y39073D01*
X211568D01*
X208593Y36098D01*
X177668D01*
X177142Y36624D01*
G01X161392Y42924D02*
X162840Y44372D01*
X164229Y45760D01*
X169268Y50799D01*
X175568D01*
X177142Y49224D01*
G01X264643D02*
X263061Y50806D01*
X246561D01*
X244922Y49166D01*
X232945D01*
X226039Y56073D01*
X222568D01*
G01D02*
X220389Y58252D01*
X219068Y59573D01*
X206224D01*
X204724Y58073D01*
X198068D01*
X193931Y53936D01*
X179282D01*
X178722Y53377D01*
Y50804D01*
X177142Y49224D01*
G01X222568Y29073D02*
X223709Y27931D01*
X223710D01*
X224568Y27073D01*
X235568D01*
X236568Y26073D01*
X238568D01*
X239568Y27073D01*
X245090D01*
X246568Y25595D01*
X249590D01*
X253068Y29073D01*
X257068D01*
X260546Y25595D01*
X263064D01*
X263353Y25884D01*
Y25885D01*
X264642Y27174D01*
G01X222568Y29073D02*
X220568Y27073D01*
X211568D01*
X209568Y25073D01*
X193090D01*
X192568Y25595D01*
X178722D01*
X177142Y27174D01*
G01X264642Y30324D02*
X263063Y28744D01*
X260397Y28744D01*
X257068Y32073D01*
X253397D01*
X250068Y28744D01*
X246568D01*
X244507Y30804D01*
X231836D01*
X230068Y32573D01*
X228568D01*
X226593Y30598D01*
X225043D01*
X222568Y33073D01*
G01D02*
X220568Y31073D01*
X211568D01*
X208043Y27548D01*
X193764D01*
X192568Y28744D01*
X178722D01*
X177142Y30324D01*
G01X222568Y33073D02*
G01X264642Y39774D02*
X263063Y38194D01*
X246947Y38194D01*
X244068Y41073D01*
X242568D01*
X241068Y39573D01*
X239568D01*
X238068Y41073D01*
X236568D01*
X235068Y39573D01*
X233568D01*
X232068Y41073D01*
X231068D01*
X229568Y39573D01*
X228068D01*
X225818Y41823D01*
X222568Y45073D01*
G01D02*
X221010Y43515D01*
X220568Y43073D01*
X211568D01*
X206568Y38073D01*
X178844D01*
X178338Y38579D01*
X178337D01*
X177142Y39774D01*
G01Y42924D02*
X178292Y44073D01*
X183068D01*
X185788Y41353D01*
X192262D01*
X193034Y42124D01*
Y43002D01*
X193605Y43573D01*
X194412D01*
X194984Y43002D01*
Y42124D01*
X195555Y41553D01*
X196362D01*
X196934Y42124D01*
Y43002D01*
X197505Y43573D01*
X198312D01*
X198884Y43002D01*
Y42124D01*
X199455Y41553D01*
X200262D01*
X200834Y42124D01*
Y43002D01*
X201405Y43573D01*
X202212D01*
X202784Y43002D01*
Y42124D01*
X203555Y41353D01*
X205848D01*
X211568Y47073D01*
X214068D01*
X216068Y49073D01*
G01D02*
X217687Y47453D01*
X224688D01*
X229093Y43048D01*
X240950D01*
X242847Y44945D01*
X253644D01*
X257235Y41354D01*
X263073D01*
X264642Y42924D01*
G01Y33474D02*
X263073Y31904D01*
X260237Y31904D01*
X257612Y34529D01*
X253120D01*
X250492Y31901D01*
X247686D01*
X245331Y34256D01*
X243537D01*
X242030Y32750D01*
X232891D01*
X231068Y34573D01*
X225068D01*
X224343Y35297D01*
X222568Y37073D01*
G01D02*
X221412Y35917D01*
X220568Y35073D01*
X211568D01*
X208389Y31894D01*
X178722D01*
X177142Y33474D01*
G01X264642Y24024D02*
X263464Y22845D01*
X263068Y22449D01*
X260692D01*
X256568Y26573D01*
X253668D01*
X249545Y22450D01*
X248240D01*
X248239Y22449D01*
X246692D01*
X244068Y25073D01*
X241068D01*
X239568Y23573D01*
X235568D01*
X234068Y25073D01*
X222568D01*
G01X261493Y49224D02*
X263118Y47599D01*
X266542D01*
X268568Y45573D01*
Y43503D01*
X270722Y41349D01*
X275666D01*
X277241Y39774D01*
X278557D01*
X279033Y40250D01*
Y41425D01*
X279041Y41434D01*
G01X264643Y49224D02*
X267917D01*
X269568Y47573D01*
X277830D01*
X278918Y46485D01*
Y44600D01*
X277241Y42923D01*
M02*
