M48
INCH
T01C.008
T02C.01
T03C.012
T04C.03937
T05C.043
T06C.047244
T07C.145669
T08C.019685
;LEADER: 12 
;HEADER: 
;CODE  : ASCII 
;FILE  : COM_V1_P2-1-10.drl for  ... layers TOP and BOTTOM
;DESIGN: COM_V1_P2_21-12-2020_4.brd
;T01 Holesize 1. = 8.000000 Tolerance = +3.000000/-3.000000 PLATED MILS Quantity = 2348
;T02 Holesize 2. = 10.000000 Tolerance = +3.000000/-3.000000 PLATED MILS Quantity = 75
;T03 Holesize 3. = 12.000000 Tolerance = +3.000000/-3.000000 PLATED MILS Quantity = 99
;T04 Holesize 4. = 39.370000 Tolerance = +3.000000/-3.000000 PLATED MILS Quantity = 4
;T05 Holesize 5. = 43.000000 Tolerance = +3.000000/-3.000000 PLATED MILS Quantity = 2
;T06 Holesize 6. = 47.244000 Tolerance = +3.000000/-3.000000 PLATED MILS Quantity = 4
;T07 Holesize 7. = 145.669000 Tolerance = +3.000000/-3.000000 PLATED MILS Quantity = 6
;T08 Holesize 8. = 19.685000 Tolerance = +3.000000/-3.000000 NON_PLATED MILS Quantity = 24
%
G90
T01
X0000063130Y0000151174
X0000072960Y0000116719
X0000221276Y0000175287
X0000093520Y0000115139
X0000067087Y0000158721
X0000214570Y0000329494
X0000225703Y0000329432
X0000159621Y0000182528
X0000197580Y0000281881
X0000227227Y0000357681
X0000263080Y0000171270
X0000301679Y0000201542
X0000222214Y0000372496
X0000223330Y0000336615
X0000323042Y0000094089
X0000029944Y0000059282
X0000040735Y0000160439
X0000047806Y0000187851
X0000052448Y0000165249
X0000307380Y0000259022
X0000321162Y0000237032
X0000319958Y0000213568
X0000226142Y0000338207
X0000229354Y0000357105
X0000225423Y0000369072
X0000024402Y0000172944
X0000326476Y0000205391
X0000124259Y0000382014
X0000007205Y0000189508
X0000018165Y0000193074
X0000047321Y0000193376
X0000227225Y0000175258
X0000164676Y0000118715
X0000008020Y0000183944
X0000022943Y0000189624
X0000036040Y0000169162
X0000044310Y0000170829
X0000054562Y0000188660
X0000018300Y0000185292
X0000294558Y0000210552
X0000294635Y0000251772
X0000296901Y0000260224
X0000091008Y0000388919
X0000297948Y0000361058
X0000299868Y0000323769
X0000294803Y0000265461
X0000295437Y0000282046
X0000018725Y0000238186
X0000014920Y0000174011
X0000022110Y0000174335
X0000331119Y0000301171
X0000053569Y0000175330
X0000029186Y0000183528
X0000252880Y0000294872
X0000248425Y0000268058
X0000191149Y0000236492
X0000253042Y0000297278
X0000246425Y0000268058
X0000197879Y0000236492
X0000301530Y0000303133
X0000307437Y0000313764
X0000299330Y0000303133
X0000305237Y0000313764
X0000296806Y0000311392
X0000320393Y0000227570
X0000342096Y0000227406
X0000296806Y0000309192
X0000320393Y0000229770
X0000342096Y0000229606
X0000283678Y0000305116
X0000307013Y0000221456
X0000285878Y0000305116
X0000307013Y0000219145
X0000287050Y0000301813
X0000292731Y0000255034
X0000292731Y0000257234
X0000287050Y0000299613
X0000007641Y0000181835
X0000341903Y0000305103
X0000197523Y0000362229
X0000183195Y0000338193
X0000191705Y0000310328
X0000185540Y0000371576
X0000186866Y0000325553
X0000184880Y0000322776
X0000178528Y0000326479
X0000179614Y0000338461
X0000006810Y0000291040
X0000093946Y0000150090
X0000066038Y0000165418
X0000025638Y0000174773
X0000009081Y0000193010
X0000241367Y0000288245
X0000251642Y0000288924
X0000192624Y0000319986
X0000214731Y0000319279
X0000215276Y0000324182
X0000192046Y0000325559
X0000215108Y0000321877
X0000015158Y0000165462
X0000016344Y0000163486
X0000253266Y0000299778
X0000258607Y0000323189
X0000280946Y0000323286
X0000294782Y0000306473
X0000331113Y0000223034
X0000330795Y0000234126
X0000296155Y0000302345
X0000271384Y0000323356
X0000305768Y0000319858
X0000287239Y0000323223
X0000253272Y0000290207
X0000242944Y0000286373
X0000041240Y0000268110
X0000156366Y0000305170
X0000190675Y0000330573
X0000106730Y0000265061
X0000049094Y0000256159
X0000154247Y0000159711
X0000086580Y0000146945
X0000073783Y0000222743
X0000265800Y0000275755
X0000253238Y0000292577
X0000253268Y0000313786
X0000265190Y0000323559
X0000283594Y0000281733
X0000260755Y0000323691
X0000259370Y0000314569
X0000300515Y0000329313
X0000327808Y0000314911
X0000259845Y0000282010
X0000253195Y0000311595
X0000268575Y0000339558
X0000259506Y0000329097
X0000289571Y0000323934
X0000254608Y0000319507
X0000269142Y0000324344
X0000276914Y0000323359
X0000267207Y0000281846
X0000295108Y0000297687
X0000155492Y0000237949
X0000227078Y0000309716
X0000228876Y0000300775
X0000318041Y0000264636
X0000104237Y0000137306
X0000101073Y0000152712
X0000074429Y0000161732
X0000105244Y0000210490
X0000251258Y0000298660
X0000190617Y0000284945
X0000151438Y0000256018
X0000117490Y0000243552
X0000232973Y0000314348
X0000273161Y0000312826
X0000069126Y0000168230
X0000094290Y0000099551
X0000094010Y0000153727
X0000307442Y0000266148
X0000213470Y0000350067
X0000212578Y0000310238
X0000051266Y0000385299
X0000046447Y0000360389
X0000033028Y0000237799
X0000263133Y0000323361
X0000253178Y0000309588
X0000278887Y0000323775
X0000263116Y0000282065
X0000322319Y0000060442
X0000312894Y0000052704
X0000317056Y0000052807
X0000314949Y0000054246
X0000307832Y0000052653
X0000345141Y0000052266
X0000342263Y0000052266
X0000343754Y0000054116
X0000335892Y0000052163
X0000332860Y0000052215
X0000334350Y0000053910
X0000342211Y0000301168
X0000313938Y0000176165
X0000304698Y0000171474
X0000280569Y0000172312
X0000325970Y0000199690
X0000328369Y0000264365
X0000284532Y0000211567
X0000290962Y0000258927
X0000220266Y0000167502
X0000253256Y0000170973
X0000220086Y0000163445
X0000253744Y0000168995
X0000015116Y0000059891
X0000015167Y0000064875
X0000015218Y0000054836
X0000039404Y0000168880
X0000049604Y0000135479
X0000047086Y0000135633
X0000039507Y0000166362
X0000061234Y0000148491
X0000043146Y0000147309
X0000050443Y0000149982
X0000070198Y0000147511
X0000225546Y0000163714
X0000290613Y0000128708
X0000343283Y0000131842
X0000343214Y0000303448
X0000331128Y0000303237
X0000342068Y0000316422
X0000343078Y0000151728
X0000344792Y0000330619
X0000330635Y0000203397
X0000234134Y0000183006
X0000342450Y0000274734
X0000339874Y0000072851
X0000342765Y0000313138
X0000249534Y0000182855
X0000316511Y0000163725
X0000251278Y0000171950
X0000306620Y0000132611
X0000331038Y0000296915
X0000341807Y0000296187
X0000331038Y0000292978
X0000341903Y0000293292
X0000168064Y0000148391
X0000328542Y0000285640
X0000165217Y0000152293
X0000327830Y0000299733
X0000162165Y0000152344
X0000331290Y0000288266
X0000171052Y0000148447
X0000327537Y0000289875
X0000025804Y0000127444
X0000173922Y0000152201
X0000331273Y0000278382
X0000118908Y0000120132
X0000259461Y0000334484
X0000341833Y0000244570
X0000233434Y0000199876
X0000318683Y0000245078
X0000103937Y0000239613
X0000204734Y0000252376
X0000202034Y0000253276
X0000247534Y0000213476
X0000204233Y0000314724
X0000235034Y0000197976
X0000207634Y0000169776
X0000211034Y0000166476
X0000237594Y0000200198
X0000209816Y0000320122
X0000141746Y0000242914
X0000181624Y0000253885
X0000141436Y0000240432
X0000143944Y0000240199
X0000144384Y0000242940
X0000179928Y0000252138
X0000229934Y0000201576
X0000222234Y0000187476
X0000221675Y0000358092
X0000224286Y0000350370
X0000219999Y0000356283
X0000224866Y0000357566
X0000222917Y0000355792
X0000107618Y0000273320
X0000107592Y0000270776
X0000031995Y0000318161
X0000044634Y0000316776
X0000070822Y0000329748
X0000072734Y0000328576
X0000039334Y0000336976
X0000039334Y0000333976
X0000088105Y0000342176
X0000087074Y0000339335
X0000083631Y0000338642
X0000086390Y0000337141
X0000084216Y0000336513
X0000087934Y0000334176
X0000084334Y0000332476
X0000084434Y0000329676
X0000058848Y0000265010
X0000101134Y0000315876
X0000098734Y0000306676
X0000110574Y0000317876
X0000104263Y0000318861
X0000132357Y0000338553
X0000132762Y0000341031
X0000134683Y0000341688
X0000137234Y0000341676
X0000107174Y0000285782
X0000108587Y0000287927
X0000130650Y0000349963
X0000133673Y0000350465
X0000136634Y0000350658
X0000117900Y0000288869
X0000136934Y0000283376
X0000149704Y0000278657
X0000129364Y0000203834
X0000278339Y0000144741
X0000141877Y0000187987
X0000214578Y0000175099
X0000192534Y0000175476
X0000180029Y0000169474
X0000183127Y0000172694
X0000210734Y0000148276
X0000180034Y0000160676
X0000207734Y0000175276
X0000177059Y0000172460
X0000220178Y0000178998
X0000140202Y0000185887
X0000142194Y0000185596
X0000230191Y0000208742
X0000146734Y0000196165
X0000214134Y0000214876
X0000175334Y0000253976
X0000175097Y0000256170
X0000177281Y0000255708
X0000172348Y0000255528
X0000178823Y0000257609
X0000218477Y0000184637
X0000235576Y0000214549
X0000342305Y0000288385
X0000235219Y0000249618
X0000209757Y0000227266
X0000342305Y0000286074
X0000235322Y0000247049
X0000212146Y0000227214
X0000282577Y0000179909
X0000236978Y0000167595
X0000302565Y0000040133
X0000286142Y0000040078
X0000093967Y0000141495
X0000063434Y0000224276
X0000121982Y0000162221
X0000083963Y0000141789
X0000218477Y0000198636
X0000088963Y0000141976
X0000229934Y0000198976
X0000070034Y0000259776
X0000075947Y0000271707
X0000054054Y0000304780
X0000231634Y0000182876
X0000307013Y0000296259
X0000254005Y0000253467
X0000138728Y0000236864
X0000103937Y0000227806
X0000055619Y0000270944
X0000251460Y0000206976
X0000234130Y0000190699
X0000034934Y0000315876
X0000226334Y0000183076
X0000318683Y0000278542
X0000307013Y0000293948
X0000251705Y0000253467
X0000229034Y0000182976
X0000245156Y0000286623
X0000239772Y0000313201
X0000238070Y0000327667
X0000330635Y0000205708
X0000297770Y0000280029
X0000186034Y0000156776
X0000201697Y0000163504
X0000198558Y0000166390
X0000198558Y0000163506
X0000189344Y0000163505
X0000186257Y0000163504
X0000192433Y0000163504
X0000183234Y0000163576
X0000186134Y0000160676
X0000186257Y0000151564
X0000186257Y0000154550
X0000186257Y0000148580
X0000088776Y0000204599
X0000085817Y0000197429
X0000088161Y0000197201
X0000089053Y0000199234
X0000088905Y0000201953
X0000186520Y0000289891
X0000187004Y0000281355
X0000189197Y0000291290
X0000188632Y0000299926
X0000188131Y0000288053
X0000186870Y0000286199
X0000073713Y0000279679
X0000075432Y0000281398
X0000078233Y0000281321
X0000070347Y0000283302
X0000066365Y0000283250
X0000066262Y0000280398
X0000070347Y0000279782
X0000068548Y0000281683
X0000072197Y0000281529
X0000066467Y0000285666
X0000075768Y0000285075
X0000073816Y0000283173
X0000076897Y0000283120
X0000079569Y0000283120
X0000080186Y0000279677
X0000076922Y0000279548
X0000109059Y0000212861
X0000254434Y0000185876
X0000274234Y0000193511
X0000307743Y0000298121
X0000320404Y0000304604
X0000106834Y0000255676
X0000214934Y0000152576
X0000112134Y0000200526
X0000093599Y0000223372
X0000299759Y0000133949
X0000296719Y0000131600
X0000112278Y0000293397
X0000210961Y0000157434
X0000214613Y0000156326
X0000204785Y0000151565
X0000207834Y0000153976
X0000201696Y0000151565
X0000207934Y0000157876
X0000192433Y0000154550
X0000192434Y0000151565
X0000204726Y0000154207
X0000201726Y0000154181
X0000101048Y0000189212
X0000103186Y0000189218
X0000094840Y0000200103
X0000096734Y0000200976
X0000092734Y0000199976
X0000094034Y0000198276
X0000096434Y0000198476
X0000094934Y0000202076
X0000092634Y0000196276
X0000094934Y0000196176
X0000097134Y0000196376
X0000092374Y0000201850
X0000137853Y0000294778
X0000133192Y0000293268
X0000140924Y0000293320
X0000147054Y0000295928
X0000122247Y0000293371
X0000124585Y0000293294
X0000126795Y0000293320
X0000217567Y0000152372
X0000114334Y0000200676
X0000099503Y0000223372
X0000160534Y0000192976
X0000090984Y0000212639
X0000089663Y0000223372
X0000249288Y0000333204
X0000220434Y0000152076
X0000225984Y0000151612
X0000219984Y0000149476
X0000285032Y0000344832
X0000082534Y0000228976
X0000063734Y0000260376
X0000050018Y0000228984
X0000190934Y0000256076
X0000212934Y0000247876
X0000190734Y0000250576
X0000223334Y0000230176
X0000224385Y0000257933
X0000207234Y0000245022
X0000187137Y0000220786
X0000139920Y0000230026
X0000169343Y0000246456
X0000235104Y0000222944
X0000339392Y0000391790
X0000342783Y0000385392
X0000331633Y0000394873
X0000116893Y0000382772
X0000113630Y0000392766
X0000044099Y0000328822
X0000040560Y0000296264
X0000069062Y0000266779
X0000109734Y0000277476
X0000112834Y0000277476
X0000038606Y0000293710
X0000100134Y0000347976
X0000102334Y0000304976
X0000096634Y0000342176
X0000059477Y0000335182
X0000064814Y0000302790
X0000095469Y0000283494
X0000092340Y0000296069
X0000024242Y0000314483
X0000034513Y0000318444
X0000044734Y0000309776
X0000102534Y0000338776
X0000210578Y0000377328
X0000219764Y0000277796
X0000229992Y0000268613
X0000180370Y0000347997
X0000176934Y0000359876
X0000182034Y0000264876
X0000118534Y0000277276
X0000140734Y0000274176
X0000144387Y0000321576
X0000136534Y0000326176
X0000140379Y0000326062
X0000222696Y0000267746
X0000220284Y0000312508
X0000217716Y0000309414
X0000226224Y0000335960
X0000267760Y0000303923
X0000280260Y0000303923
X0000267760Y0000306423
X0000329319Y0000271033
X0000245070Y0000330812
X0000332005Y0000376956
X0000344762Y0000367304
X0000344710Y0000371158
X0000270516Y0000335108
X0000237595Y0000309710
X0000242084Y0000339820
X0000235617Y0000352674
X0000270260Y0000296423
X0000267760Y0000298923
X0000280260Y0000298923
X0000330154Y0000312304
X0000238948Y0000278088
X0000286698Y0000288531
X0000256979Y0000320058
X0000266006Y0000278026
X0000241780Y0000320278
X0000288419Y0000311284
X0000290999Y0000270034
X0000271530Y0000270202
X0000288460Y0000340531
X0000068960Y0000209428
X0000058934Y0000206676
X0000051470Y0000195031
X0000199334Y0000195876
X0000226346Y0000200667
X0000262776Y0000199916
X0000260433Y0000206279
X0000007154Y0000185918
X0000011318Y0000158357
X0000007172Y0000168239
X0000007100Y0000176528
X0000020680Y0000183211
X0000009632Y0000147394
X0000013855Y0000146007
X0000106510Y0000158884
X0000103761Y0000159090
X0000219801Y0000010791
X0000337225Y0000124072
X0000297293Y0000143198
X0000315389Y0000103265
X0000343777Y0000142603
X0000297509Y0000081728
X0000323023Y0000066301
X0000317371Y0000063640
X0000326928Y0000073197
X0000326312Y0000091234
X0000325499Y0000097580
X0000324746Y0000108472
X0000325338Y0000121088
X0000324873Y0000128950
X0000324719Y0000138354
X0000325336Y0000149094
X0000317878Y0000045870
X0000296357Y0000112048
X0000280582Y0000105368
X0000070398Y0000047803
X0000057148Y0000066655
X0000342893Y0000172988
X0000343065Y0000156493
X0000328227Y0000168120
X0000008493Y0000052078
X0000005462Y0000065541
X0000015270Y0000050022
X0000070208Y0000061094
X0000075547Y0000061705
X0000095092Y0000044662
X0000092218Y0000039969
X0000082033Y0000040158
X0000072174Y0000044708
X0000090522Y0000046223
X0000087720Y0000046362
X0000105550Y0000017948
X0000205169Y0000066398
X0000280431Y0000080247
X0000279818Y0000087703
X0000154994Y0000081629
X0000151525Y0000081886
X0000287080Y0000186414
X0000147050Y0000155448
X0000138962Y0000023226
X0000141152Y0000032980
X0000183438Y0000058672
X0000306106Y0000046230
X0000306439Y0000027116
X0000298929Y0000031015
X0000300253Y0000037930
X0000298761Y0000024030
X0000298990Y0000016657
X0000298990Y0000020365
X0000248893Y0000055520
X0000270942Y0000064974
X0000116861Y0000164834
X0000024351Y0000110792
X0000091272Y0000163635
X0000024470Y0000168248
X0000021368Y0000168142
X0000083875Y0000164570
X0000105634Y0000153176
X0000073066Y0000134069
X0000105419Y0000150046
X0000195543Y0000132563
X0000180534Y0000132776
X0000147434Y0000125476
X0000154134Y0000133076
X0000228578Y0000133087
X0000154234Y0000179076
X0000187567Y0000179176
X0000176549Y0000163695
X0000189034Y0000169176
X0000182934Y0000151876
X0000180234Y0000172376
X0000192734Y0000148407
X0000183234Y0000160776
X0000146634Y0000178876
X0000146724Y0000171346
X0000146724Y0000163695
X0000159664Y0000167594
X0000231378Y0000152291
X0000236978Y0000133087
X0000244334Y0000140776
X0000243934Y0000179029
X0000244502Y0000171677
X0000245700Y0000118197
X0000235668Y0000102982
X0000245374Y0000112148
X0000242715Y0000104912
X0000236934Y0000125317
X0000176278Y0000183809
X0000245198Y0000125502
X0000218257Y0000119421
X0000159201Y0000125659
X0000174091Y0000103629
X0000301384Y0000186126
X0000259643Y0000184895
X0000131522Y0000133538
X0000122550Y0000158043
X0000131625Y0000135773
X0000275713Y0000149019
X0000260400Y0000157652
X0000202637Y0000132956
X0000146953Y0000113640
X0000228671Y0000125347
X0000147206Y0000122696
X0000147172Y0000118580
X0000214972Y0000141231
X0000218482Y0000110973
X0000226351Y0000110679
X0000226168Y0000102917
X0000188452Y0000113465
X0000176692Y0000113579
X0000183814Y0000110975
X0000222832Y0000159860
X0000244142Y0000155588
X0000243583Y0000163725
X0000244146Y0000149240
X0000236967Y0000163576
X0000236978Y0000148391
X0000247434Y0000185476
X0000236978Y0000186799
X0000244318Y0000133087
X0000223334Y0000167276
X0000234177Y0000148391
X0000231378Y0000159794
X0000222978Y0000163695
X0000231378Y0000144491
X0000222978Y0000148391
X0000154234Y0000163776
X0000154063Y0000148391
X0000159664Y0000144491
X0000162464Y0000178998
X0000159664Y0000159845
X0000159664Y0000152291
X0000192234Y0000157776
X0000176434Y0000148176
X0000173664Y0000178999
X0000168064Y0000175099
X0000165034Y0000189776
X0000168665Y0000184637
X0000214534Y0000184776
X0000203173Y0000187437
X0000222034Y0000184676
X0000215634Y0000178576
X0000198634Y0000157876
X0000207634Y0000166776
X0000205134Y0000157976
X0000214334Y0000147676
X0000201534Y0000172476
X0000214734Y0000163576
X0000201807Y0000148614
X0000187869Y0000187437
X0000146921Y0000186736
X0000203434Y0000179376
X0000203334Y0000181676
X0000176465Y0000127450
X0000176465Y0000130250
X0000169134Y0000127676
X0000183970Y0000127449
X0000183934Y0000132676
X0000183970Y0000130249
X0000187869Y0000127450
X0000187869Y0000133050
X0000201634Y0000139576
X0000146802Y0000140699
X0000176333Y0000133178
X0000168034Y0000136976
X0000189634Y0000136876
X0000180134Y0000139576
X0000189034Y0000142576
X0000183134Y0000139876
X0000214577Y0000133049
X0000162463Y0000133087
X0000146634Y0000133076
X0000145134Y0000125176
X0000187934Y0000130276
X0000153601Y0000187846
X0000146724Y0000148391
X0000162564Y0000186799
X0000156209Y0000114306
X0000004809Y0000086502
X0000004152Y0000128777
X0000004152Y0000122819
X0000004502Y0000116248
X0000110768Y0000189289
X0000112893Y0000189212
X0000116477Y0000189394
X0000116952Y0000185923
X0000248893Y0000033472
X0000277242Y0000052374
X0000277242Y0000068124
X0000252042Y0000042921
X0000248893Y0000020874
X0000277242Y0000020875
X0000277932Y0000035074
X0000301670Y0000023205
X0000248893Y0000058669
X0000274093Y0000042922
X0000274089Y0000058672
X0000277242Y0000027174
X0000189744Y0000027174
X0000189742Y0000052371
X0000161392Y0000020874
X0000189742Y0000020875
X0000160611Y0000035087
X0000189598Y0000034596
X0000161392Y0000055520
X0000161392Y0000058669
X0000164541Y0000058672
X0000189741Y0000068122
X0000183442Y0000064969
X0000161391Y0000068121
X0000164542Y0000042921
X0000161392Y0000027173
X0000261269Y0000011367
X0000248893Y0000068118
X0000243772Y0000029089
X0000112822Y0000023044
X0000112716Y0000013064
X0000337919Y0000180217
X0000343057Y0000179960
X0000336326Y0000177699
X0000334168Y0000176466
X0000281682Y0000137365
X0000058081Y0000157977
X0000060103Y0000159945
X0000060154Y0000155757
X0000056018Y0000155886
X0000055941Y0000159996
X0000203485Y0000101759
X0000283819Y0000105060
X0000299014Y0000053903
X0000298809Y0000051334
X0000301430Y0000054006
X0000301018Y0000051334
X0000287004Y0000085070
X0000290293Y0000088307
X0000136290Y0000023433
X0000137497Y0000025462
X0000237834Y0000208876
X0000247134Y0000198176
X0000247134Y0000202176
X0000247494Y0000207702
X0000269533Y0000196473
X0000341884Y0000207675
X0000326290Y0000207686
X0000203134Y0000190276
X0000193648Y0000207225
X0000187250Y0000208510
X0000187762Y0000201288
X0000226277Y0000193037
X0000233734Y0000195676
X0000172565Y0000193037
X0000231536Y0000190610
X0000164765Y0000195836
X0000143184Y0000203026
X0000165334Y0000192976
X0000146296Y0000205710
X0000189254Y0000208381
X0000225976Y0000208736
X0000218782Y0000209147
X0000141234Y0000210576
X0000116721Y0000196689
X0000117004Y0000193888
X0000146913Y0000193452
X0000218477Y0000201437
X0000159712Y0000190698
X0000172522Y0000199086
X0000164765Y0000201437
X0000148034Y0000207476
X0000155934Y0000197876
X0000207073Y0000195837
X0000203173Y0000198637
X0000218275Y0000192746
X0000203173Y0000201437
X0000203134Y0000195876
X0000114122Y0000197187
X0000112041Y0000197161
X0000112934Y0000205876
X0000110037Y0000197161
X0000112916Y0000207983
X0000067384Y0000191202
X0000074227Y0000200160
X0000054738Y0000194742
X0000318402Y0000273992
X0000318150Y0000295662
X0000320470Y0000314975
X0000318124Y0000305012
X0000277760Y0000298923
R03X-0000002500
X0000280260Y0000296423
R03X-0000002500
X0000267760Y0000296423
X0000341764Y0000290768
X0000342242Y0000282850
X0000342190Y0000279458
X0000342090Y0000271342
X0000342244Y0000263737
X0000318515Y0000281272
X0000307364Y0000286865
X0000307074Y0000290323
X0000236115Y0000347696
X0000260933Y0000360088
X0000258235Y0000359994
X0000265227Y0000355485
X0000245126Y0000346783
X0000248513Y0000348490
X0000235991Y0000350144
X0000235161Y0000344170
X0000280260Y0000306423
R04X-0000002500
X0000277760Y0000303923
R03X-0000002500
X0000280260Y0000301423
R05X-0000002500
X0000146041Y0000325850
X0000130206Y0000317493
X0000133566Y0000317256
X0000127746Y0000326004
X0000123944Y0000326132
X0000170368Y0000284092
X0000170119Y0000281604
X0000169551Y0000277219
X0000170451Y0000274717
X0000158089Y0000296885
X0000169870Y0000286914
X0000122363Y0000350046
X0000118201Y0000350097
X0000125549Y0000350302
X0000148150Y0000307527
X0000149377Y0000268064
X0000169834Y0000269075
X0000210432Y0000357474
X0000208203Y0000357634
X0000204039Y0000358523
X0000185832Y0000335401
X0000183583Y0000335496
X0000215334Y0000340376
X0000169457Y0000289561
X0000189449Y0000310121
X0000170734Y0000309276
X0000189074Y0000336348
X0000157367Y0000300170
X0000131434Y0000266876
X0000182778Y0000331567
X0000151984Y0000268426
X0000232008Y0000347945
X0000233626Y0000350517
X0000233211Y0000352882
X0000234124Y0000346161
X0000232879Y0000343672
X0000143751Y0000325532
X0000136202Y0000323305
X0000138004Y0000321928
X0000141291Y0000321758
X0000141757Y0000324239
X0000138365Y0000324366
X0000143734Y0000274276
X0000137738Y0000273767
X0000145534Y0000277276
X0000135528Y0000276979
X0000135413Y0000274649
X0000116134Y0000277476
X0000118534Y0000274676
X0000198845Y0000269213
X0000196052Y0000269213
X0000148150Y0000304427
X0000203434Y0000289876
X0000221856Y0000345487
X0000217529Y0000345616
X0000119879Y0000316653
X0000178169Y0000316973
X0000180417Y0000316878
X0000077634Y0000361076
X0000078134Y0000351976
X0000107134Y0000315376
X0000107034Y0000311676
X0000103826Y0000314750
X0000094628Y0000320326
X0000103534Y0000311676
X0000016834Y0000310976
X0000019834Y0000306676
X0000042856Y0000320468
X0000044482Y0000303664
X0000042503Y0000302302
X0000065722Y0000266470
X0000067212Y0000264469
X0000064592Y0000264518
X0000069808Y0000264649
X0000042709Y0000305282
X0000040833Y0000307082
X0000040919Y0000303895
X0000044430Y0000306902
X0000040688Y0000300786
X0000044439Y0000300709
X0000042634Y0000323976
X0000042534Y0000326976
X0000040754Y0000325468
X0000044534Y0000325276
X0000041334Y0000322176
X0000044534Y0000322376
X0000044311Y0000298474
X0000040740Y0000298550
X0000043386Y0000296264
X0000040947Y0000328884
X0000071300Y0000369010
X0000012276Y0000269556
X0000096680Y0000266908
X0000088043Y0000297280
X0000100234Y0000338776
X0000072534Y0000352076
X0000084838Y0000271149
X0000086225Y0000272870
X0000068834Y0000351976
X0000072534Y0000355576
X0000068834Y0000355476
X0000066005Y0000270402
X0000066750Y0000276234
X0000065183Y0000274666
X0000065003Y0000272431
X0000055834Y0000282176
X0000053534Y0000282176
X0000098815Y0000298201
X0000096040Y0000296043
X0000099277Y0000295940
X0000094267Y0000297353
X0000096580Y0000298432
X0000106142Y0000330272
X0000103067Y0000331220
X0000101937Y0000325935
X0000106329Y0000332554
X0000102470Y0000328135
X0000099458Y0000333272
X0000095964Y0000333169
X0000098944Y0000327465
X0000098687Y0000323817
X0000083122Y0000349401
X0000077276Y0000357959
X0000105734Y0000306726
X0000081916Y0000362943
X0000109934Y0000314332
X0000320432Y0000219680
X0000319384Y0000221856
X0000342218Y0000258984
X0000341987Y0000251970
X0000341833Y0000247345
X0000331200Y0000237026
X0000331093Y0000231150
X0000331179Y0000225724
X0000342101Y0000218273
X0000341987Y0000212557
X0000318139Y0000227023
X0000318472Y0000235971
X0000318361Y0000240215
X0000307210Y0000247563
X0000306851Y0000250981
X0000223634Y0000226376
X0000123634Y0000234976
X0000126234Y0000234976
X0000124566Y0000225052
X0000158859Y0000255040
X0000124634Y0000222776
X0000216853Y0000247194
X0000187025Y0000223124
X0000087984Y0000242133
X0000056216Y0000226341
X0000098886Y0000242088
X0000088017Y0000244554
X0000095473Y0000227205
X0000085134Y0000228876
X0000108798Y0000210857
X0000079334Y0000262376
X0000063134Y0000248876
X0000011952Y0000228654
X0000095334Y0000238122
X0000095202Y0000229782
X0000095412Y0000235898
X0000090310Y0000244187
X0000090219Y0000241861
X0000096706Y0000242920
X0000098934Y0000244376
X0000179842Y0000209257
X0000334301Y0000381710
X0000331301Y0000381710
X0000251634Y0000184076
X0000295490Y0000191029
X0000117497Y0000322136
X0000104528Y0000386677
X0000270104Y0000149382
X0000291975Y0000143475
X0000057773Y0000011639
X0000054597Y0000043048
X0000319632Y0000128848
X0000022437Y0000194000
X0000101471Y0000223372
X0000290148Y0000145421
X0000295648Y0000097516
X0000218997Y0000237361
X0000230734Y0000175176
X0000212734Y0000208976
X0000251634Y0000186576
X0000283034Y0000187506
X0000139991Y0000350065
X0000288344Y0000338153
X0000262072Y0000348514
X0000299399Y0000357480
X0000249651Y0000200103
X0000298996Y0000312768
X0000116334Y0000256876
X0000096330Y0000210983
X0000229101Y0000264249
X0000255034Y0000178676
X0000293542Y0000201650
X0000242156Y0000266062
X0000195921Y0000311114
X0000147217Y0000242282
X0000156237Y0000247296
X0000279733Y0000258126
X0000294062Y0000160280
X0000228134Y0000159676
X0000291846Y0000227831
X0000288591Y0000259846
X0000220358Y0000259376
X0000103937Y0000229774
X0000072837Y0000249924
X0000083758Y0000248368
X0000266944Y0000144959
X0000228270Y0000163509
X0000096737Y0000069813
X0000165488Y0000163368
X0000115805Y0000069666
X0000252531Y0000191626
X0000323674Y0000199104
X0000324148Y0000049364
X0000081119Y0000168821
X0000320640Y0000149657
X0000305144Y0000208472
X0000264972Y0000205298
X0000095163Y0000062466
X0000271400Y0000161804
X0000295186Y0000194379
X0000126386Y0000204492
X0000283213Y0000220447
X0000241301Y0000318328
X0000212414Y0000318131
X0000171109Y0000163716
X0000115609Y0000051132
X0000252434Y0000194776
X0000119588Y0000174210
X0000157084Y0000182676
X0000115543Y0000056173
X0000168309Y0000167549
X0000081043Y0000047250
X0000173909Y0000163716
X0000115191Y0000044067
X0000081480Y0000050693
X0000170712Y0000159901
X0000110385Y0000044214
X0000017514Y0000156608
X0000089796Y0000102074
X0000088963Y0000153722
X0000051650Y0000118680
X0000225442Y0000159941
X0000270739Y0000139017
X0000148483Y0000099202
X0000173512Y0000159901
X0000099072Y0000067766
X0000110532Y0000066979
X0000112629Y0000056567
X0000171109Y0000167549
X0000110924Y0000071432
X0000110476Y0000048193
X0000199273Y0000181837
X0000208234Y0000216376
X0000150393Y0000102191
X0000176312Y0000159901
X0000102911Y0000069478
X0000104349Y0000051484
X0000168309Y0000163716
X0000112637Y0000046884
X0000095589Y0000166872
X0000195135Y0000305298
X0000218183Y0000267771
X0000248183Y0000264743
X0000235964Y0000268858
X0000231534Y0000266845
X0000118770Y0000170173
X0000163534Y0000175076
X0000173909Y0000167549
X0000114266Y0000059808
X0000199234Y0000184076
X0000214024Y0000217171
X0000049369Y0000210180
X0000234178Y0000175099
X0000072582Y0000206711
X0000232832Y0000310444
X0000191567Y0000187476
X0000240544Y0000222585
X0000280196Y0000126525
X0000265861Y0000171044
X0000234178Y0000167595
X0000189314Y0000016792
X0000228578Y0000148391
X0000295597Y0000128294
X0000257068Y0000110073
X0000225312Y0000277951
X0000219028Y0000261527
X0000257068Y0000123073
X0000191769Y0000184637
X0000240492Y0000225000
X0000058526Y0000212878
X0000199102Y0000125017
X0000017928Y0000144974
X0000018583Y0000172391
X0000030097Y0000205950
X0000170842Y0000052374
X0000214624Y0000124679
X0000257068Y0000116073
X0000229091Y0000261823
X0000240203Y0000264264
X0000257534Y0000178776
X0000296162Y0000201599
X0000264642Y0000017724
X0000177142Y0000017724
X0000222568Y0000017073
X0000070198Y0000206981
X0000278134Y0000149176
X0000308818Y0000164512
X0000236978Y0000159795
X0000310669Y0000180426
X0000135075Y0000237720
X0000248098Y0000316585
X0000305156Y0000326638
X0000286070Y0000296297
X0000235646Y0000332826
X0000238469Y0000337502
X0000301163Y0000355324
X0000257536Y0000349032
X0000252002Y0000347844
X0000237572Y0000323095
X0000300362Y0000333726
X0000289431Y0000229064
X0000289495Y0000208888
X0000231378Y0000167595
X0000295957Y0000196845
X0000103937Y0000225837
X0000155758Y0000202026
X0000225825Y0000125316
X0000261492Y0000055524
X0000173992Y0000064974
X0000202827Y0000130304
X0000274375Y0000161646
X0000343470Y0000299140
X0000283405Y0000288556
X0000267411Y0000292185
X0000029283Y0000240826
X0000033702Y0000255470
X0000186546Y0000039730
X0000237641Y0000116346
X0000214996Y0000065064
X0000242990Y0000051535
X0000255174Y0000039755
X0000250234Y0000153976
X0000220134Y0000159676
X0000173992Y0000042924
X0000222424Y0000121879
X0000216068Y0000045073
X0000261492Y0000042924
X0000180568Y0000092073
X0000116931Y0000265804
X0000264642Y0000046074
X0000177142Y0000046074
X0000222424Y0000113479
X0000213068Y0000056073
X0000248804Y0000192638
X0000264642Y0000024024
X0000177142Y0000024024
X0000222424Y0000127479
X0000222568Y0000025073
X0000210487Y0000379730
X0000223424Y0000133117
X0000258342Y0000052374
X0000269600Y0000159486
X0000116740Y0000204599
X0000310704Y0000337951
X0000274484Y0000332699
X0000116334Y0000250076
X0000234224Y0000133117
X0000261492Y0000063399
X0000072094Y0000202208
X0000231378Y0000163695
X0000237024Y0000129216
X0000267792Y0000055524
X0000250669Y0000308907
X0000113762Y0000245612
X0000211785Y0000245409
X0000155944Y0000244699
X0000188193Y0000353735
X0000255270Y0000334999
X0000245152Y0000338049
X0000299092Y0000349674
X0000293677Y0000269962
X0000295194Y0000287858
X0000274874Y0000323946
X0000294964Y0000312549
X0000263102Y0000291616
X0000275042Y0000288821
X0000298807Y0000319864
X0000261619Y0000314414
X0000305571Y0000328700
X0000271116Y0000267845
X0000283228Y0000308455
X0000242372Y0000290164
X0000102797Y0000165538
X0000057321Y0000057512
X0000046981Y0000067494
X0000005352Y0000060043
X0000005455Y0000054956
X0000008538Y0000068710
X0000260620Y0000188030
X0000217377Y0000175099
X0000290781Y0000349564
X0000291463Y0000346925
X0000293639Y0000345166
X0000294848Y0000347475
X0000296387Y0000349608
X0000293309Y0000349520
X0000245217Y0000342644
X0000265723Y0000337744
X0000245146Y0000340064
X0000253236Y0000335090
X0000161120Y0000264004
X0000163638Y0000263901
X0000010322Y0000282968
X0000006109Y0000281530
X0000008986Y0000277624
X0000012275Y0000281427
X0000011042Y0000279063
X0000007856Y0000283585
X0000008986Y0000280604
X0000006314Y0000278549
X0000159450Y0000262257
X0000135478Y0000261079
X0000133082Y0000261206
X0000134269Y0000263105
X0000131449Y0000262775
X0000114654Y0000247624
X0000103937Y0000237646
X0000306515Y0000386539
X0000305651Y0000368426
X0000217277Y0000164181
X0000177142Y0000033474
X0000222424Y0000124679
X0000222568Y0000037073
X0000264642Y0000033474
X0000183442Y0000055524
X0000214623Y0000119079
X0000303332Y0000196299
X0000341689Y0000235235
X0000231578Y0000178999
X0000275834Y0000187176
X0000261492Y0000030324
X0000173992Y0000030324
X0000216068Y0000029073
X0000226324Y0000121879
X0000256050Y0000150915
X0000236670Y0000170948
X0000234224Y0000137017
X0000264642Y0000063399
X0000234177Y0000159795
X0000296554Y0000161590
X0000199320Y0000110680
X0000167692Y0000055524
X0000191568Y0000099073
X0000176072Y0000179294
X0000216068Y0000049073
X0000264642Y0000042924
X0000177142Y0000042924
X0000225825Y0000133117
X0000258342Y0000055524
X0000128434Y0000168576
X0000176464Y0000175099
X0000186591Y0000033475
X0000194072Y0000039677
X0000191568Y0000102073
X0000168767Y0000198472
X0000167600Y0000220430
X0000237366Y0000241713
X0000318683Y0000207334
X0000159703Y0000228802
X0000122433Y0000167880
X0000156934Y0000167476
X0000239666Y0000241713
X0000318683Y0000209644
X0000157453Y0000228828
X0000114874Y0000119925
X0000261708Y0000336024
X0000331136Y0000241770
X0000191868Y0000133049
X0000165559Y0000186657
X0000306954Y0000255914
X0000291818Y0000265474
X0000179054Y0000248695
X0000122150Y0000134593
X0000255303Y0000324193
X0000329296Y0000278080
X0000341903Y0000242111
X0000255937Y0000322237
X0000107012Y0000140420
X0000331042Y0000239176
X0000183907Y0000118932
X0000199088Y0000121967
X0000261492Y0000017724
X0000173992Y0000017724
X0000216068Y0000013073
X0000119046Y0000134490
X0000047840Y0000170124
X0000199138Y0000132896
X0000337674Y0000320379
X0000156213Y0000211824
X0000156634Y0000179176
X0000301850Y0000287884
X0000174173Y0000247770
X0000261492Y0000024024
X0000173992Y0000024024
X0000216068Y0000021073
X0000140301Y0000168416
X0000165634Y0000174776
X0000304316Y0000271337
X0000154234Y0000182676
X0000320266Y0000272120
X0000171687Y0000247962
X0000258230Y0000181015
X0000290664Y0000095770
X0000321052Y0000189403
X0000125355Y0000137076
X0000159654Y0000013844
X0000203568Y0000099073
X0000153567Y0000199576
X0000318281Y0000202740
X0000250942Y0000267901
X0000250632Y0000276967
X0000211806Y0000262890
X0000183568Y0000092073
X0000157664Y0000199837
X0000282203Y0000256226
X0000300684Y0000256897
X0000157234Y0000186676
X0000307904Y0000197205
X0000295006Y0000219078
X0000282155Y0000260974
X0000279066Y0000267602
X0000176537Y0000248643
X0000254068Y0000126573
X0000191868Y0000130248
X0000245534Y0000294836
X0000140652Y0000152136
X0000226356Y0000299451
X0000307647Y0000262628
X0000218323Y0000130279
X0000192313Y0000016792
X0000275787Y0000016768
X0000255462Y0000014959
X0000330635Y0000250983
X0000170864Y0000175099
X0000054844Y0000049870
X0000308649Y0000340314
X0000243509Y0000291990
X0000139664Y0000160907
X0000225632Y0000297280
X0000318049Y0000260650
X0000337674Y0000318179
X0000156059Y0000214908
X0000153025Y0000051677
X0000151299Y0000049346
X0000159732Y0000037725
X0000188068Y0000099073
X0000087696Y0000247978
X0000257068Y0000119073
X0000009241Y0000141692
X0000028584Y0000141175
X0000260708Y0000161493
X0000130546Y0000207431
X0000079331Y0000225833
X0000343580Y0000195201
X0000234534Y0000186676
X0000320508Y0000078914
X0000297954Y0000208951
X0000225825Y0000137024
X0000270942Y0000055524
X0000269010Y0000162724
X0000268840Y0000192568
X0000157723Y0000195959
X0000257068Y0000113073
X0000127774Y0000111979
X0000162464Y0000148391
X0000099850Y0000109150
X0000251568Y0000126573
X0000079331Y0000237646
X0000085728Y0000247978
X0000062409Y0000227926
X0000060479Y0000231143
X0000167722Y0000039703
X0000264642Y0000020874
X0000177142Y0000020874
X0000222568Y0000021073
X0000028766Y0000248356
X0000061882Y0000239368
X0000058719Y0000215546
X0000024378Y0000277421
X0000256824Y0000328365
X0000278778Y0000348141
X0000069938Y0000163174
X0000095176Y0000051444
X0000007572Y0000161235
X0000113570Y0000180320
X0000111520Y0000164357
X0000125085Y0000061818
X0000072715Y0000053890
X0000072876Y0000056494
X0000073423Y0000051517
X0000081750Y0000053111
X0000087646Y0000054040
X0000087705Y0000048848
X0000090182Y0000053915
X0000081378Y0000042962
X0000071605Y0000087000
X0000072148Y0000083910
X0000065654Y0000120624
X0000025314Y0000160429
X0000131432Y0000188276
X0000126934Y0000145176
X0000282068Y0000141262
X0000303574Y0000155904
X0000176830Y0000145490
X0000211034Y0000133576
X0000073105Y0000079359
X0000130550Y0000063702
X0000131827Y0000052770
X0000130021Y0000050217
X0000307724Y0000152499
X0000336860Y0000144229
X0000326841Y0000155853
X0000339828Y0000163227
X0000337875Y0000174735
X0000018200Y0000180790
X0000014252Y0000193236
X0000056456Y0000192450
X0000277876Y0000345855
X0000272842Y0000345239
X0000272842Y0000347658
X0000276315Y0000348273
X0000275040Y0000346207
X0000342586Y0000307885
X0000342482Y0000310055
X0000319456Y0000322164
X0000183488Y0000328014
X0000189840Y0000320294
X0000208664Y0000299851
X0000221293Y0000289134
X0000232994Y0000258160
X0000227339Y0000259313
X0000191437Y0000297435
X0000111571Y0000226874
X0000254068Y0000123073
X0000176434Y0000196476
X0000175600Y0000220430
X0000109134Y0000225276
X0000325877Y0000334810
X0000342880Y0000277125
X0000114152Y0000213651
X0000133034Y0000330476
X0000149334Y0000325176
X0000170864Y0000178999
X0000330635Y0000248673
X0000084974Y0000324803
X0000097572Y0000286475
X0000177142Y0000055524
X0000214623Y0000116279
X0000087957Y0000322867
X0000177142Y0000039774
X0000226323Y0000113479
X0000222568Y0000045073
X0000264642Y0000039774
X0000128334Y0000172076
X0000173664Y0000175099
X0000117167Y0000324598
X0000203219Y0000110679
X0000167692Y0000058673
X0000168767Y0000201372
X0000165350Y0000220456
X0000114991Y0000328732
X0000030970Y0000153924
X0000109734Y0000248176
X0000101281Y0000287205
X0000107034Y0000290276
X0000104390Y0000290444
X0000104202Y0000287581
X0000199138Y0000130096
X0000126766Y0000155487
X0000099434Y0000313676
X0000114348Y0000324796
X0000199320Y0000113579
X0000186592Y0000052374
X0000172634Y0000195976
X0000173350Y0000220456
X0000123530Y0000171584
X0000223694Y0000310096
X0000114810Y0000340282
X0000213739Y0000236860
X0000116646Y0000229856
X0000134664Y0000234557
X0000228625Y0000129217
X0000255192Y0000055524
X0000165264Y0000148391
X0000099799Y0000106800
X0000110197Y0000357632
X0000196689Y0000358316
X0000111934Y0000247276
X0000192892Y0000049224
X0000214623Y0000110679
X0000088013Y0000330591
X0000264642Y0000030324
X0000177142Y0000030324
X0000222568Y0000033073
X0000226323Y0000119079
X0000087750Y0000326876
X0000089664Y0000247978
X0000153549Y0000012603
X0000151170Y0000012396
X0000289690Y0000020365
X0000289690Y0000016657
X0000241097Y0000017143
X0000247129Y0000016819
X0000241895Y0000023110
X0000154134Y0000121476
X0000173664Y0000133087
X0000245361Y0000115191
X0000236755Y0000121521
X0000171234Y0000133176
X0000168065Y0000133088
X0000172634Y0000130476
X0000164834Y0000129276
X0000165265Y0000133088
X0000173664Y0000136988
X0000170864Y0000136988
X0000207934Y0000136576
X0000195567Y0000136376
X0000183234Y0000136876
X0000172565Y0000127448
X0000162465Y0000136988
X0000165265Y0000136987
X0000154434Y0000129176
X0000156864Y0000129187
X0000159664Y0000136987
X0000159664Y0000129187
X0000162464Y0000129187
X0000159663Y0000133087
X0000156865Y0000133087
X0000156864Y0000136987
X0000154063Y0000136987
X0000232434Y0000102184
X0000155761Y0000110229
X0000218493Y0000126521
X0000230109Y0000118625
X0000157015Y0000125184
X0000160861Y0000120151
X0000160819Y0000116406
X0000146836Y0000116409
X0000252042Y0000068118
X0000242549Y0000065843
X0000242649Y0000061568
X0000242748Y0000059113
X0000240868Y0000055187
X0000183442Y0000052374
X0000164541Y0000068121
X0000150650Y0000067123
X0000150650Y0000063658
X0000150650Y0000060038
X0000150650Y0000046389
X0000150650Y0000056573
X0000150650Y0000042898
X0000150650Y0000039408
X0000150650Y0000035698
X0000150650Y0000070588
X0000161392Y0000052370
X0000151368Y0000029015
X0000161391Y0000071271
X0000164541Y0000061822
X0000186592Y0000068119
X0000190391Y0000063398
X0000161391Y0000064972
X0000161392Y0000030323
X0000186592Y0000042926
X0000161392Y0000049220
X0000164542Y0000039772
X0000167694Y0000052374
X0000186589Y0000058669
X0000196194Y0000051613
X0000196451Y0000064941
X0000196425Y0000062537
X0000196425Y0000060287
X0000189741Y0000058674
X0000195840Y0000029659
X0000196150Y0000023220
X0000189742Y0000030324
X0000186589Y0000024024
X0000161392Y0000024024
X0000248892Y0000049224
X0000270939Y0000058670
X0000277242Y0000055524
X0000287684Y0000051886
X0000287623Y0000054908
X0000287623Y0000058333
X0000287623Y0000061681
X0000289690Y0000038017
X0000289163Y0000041855
X0000289690Y0000034563
X0000289690Y0000031054
X0000289690Y0000027532
X0000289690Y0000024010
X0000274093Y0000046072
X0000277242Y0000046072
X0000248892Y0000064972
X0000248893Y0000052370
X0000277242Y0000058670
X0000274092Y0000068124
X0000277242Y0000024024
X0000277242Y0000030324
X0000252042Y0000058669
X0000277895Y0000063395
X0000252042Y0000039772
X0000255195Y0000052371
X0000270943Y0000052373
X0000270870Y0000045985
X0000288536Y0000066830
X0000286182Y0000068020
X0000286182Y0000065434
X0000288354Y0000064193
X0000288509Y0000069520
X0000248893Y0000030323
X0000248893Y0000024024
X0000056834Y0000234476
X0000054199Y0000234858
X0000051964Y0000232417
X0000051912Y0000234832
X0000054302Y0000232443
X0000056563Y0000232083
X0000120421Y0000261101
X0000125559Y0000261126
X0000123016Y0000261204
X0000120472Y0000263310
X0000125534Y0000263336
X0000123041Y0000263439
X0000122134Y0000265976
X0000127330Y0000129382
X0000165263Y0000144491
X0000103937Y0000241582
X0000128934Y0000224976
X0000056034Y0000208576
X0000069448Y0000199672
X0000108360Y0000165538
X0000313634Y0000173517
X0000319882Y0000085051
X0000317005Y0000072821
X0000345887Y0000112164
X0000344313Y0000122158
X0000295188Y0000105458
X0000298606Y0000123470
X0000309348Y0000046692
X0000338564Y0000045869
X0000334144Y0000045689
X0000214578Y0000159795
X0000211234Y0000163276
X0000208234Y0000160476
X0000202034Y0000175176
X0000035391Y0000164291
X0000291030Y0000160897
X0000279459Y0000138355
X0000279674Y0000151050
X0000282038Y0000151147
X0000046165Y0000083432
X0000049785Y0000083432
X0000049682Y0000078260
X0000046682Y0000078053
X0000051130Y0000080846
X0000048130Y0000080846
X0000045234Y0000080846
X0000287745Y0000077622
X0000279664Y0000174457
X0000335763Y0000043042
X0000339103Y0000042966
X0000342572Y0000043017
X0000341107Y0000045792
X0000344216Y0000045175
X0000311866Y0000046589
X0000310530Y0000044534
X0000309400Y0000042170
X0000312123Y0000042324
X0000285304Y0000079498
X0000058989Y0000201646
X0000072474Y0000194053
X0000150149Y0000249885
X0000217378Y0000167594
X0000234178Y0000163641
X0000073148Y0000204245
X0000305669Y0000334046
X0000308803Y0000335587
X0000295174Y0000089275
X0000235034Y0000178826
X0000176305Y0000181787
X0000319909Y0000090736
X0000231734Y0000186676
X0000192031Y0000124973
X0000155675Y0000091641
X0000197568Y0000099073
X0000264642Y0000027174
X0000177142Y0000027174
X0000222568Y0000029073
X0000230224Y0000110023
X0000141028Y0000194019
X0000160508Y0000196729
X0000251143Y0000334548
X0000245888Y0000320637
X0000249068Y0000126573
X0000079331Y0000235678
X0000079331Y0000233709
X0000103937Y0000235678
X0000103937Y0000233709
X0000097535Y0000223372
X0000095566Y0000223372
X0000087695Y0000223372
X0000085727Y0000223372
X0000091631Y0000223372
X0000073438Y0000225096
X0000027627Y0000226059
X0000086763Y0000254112
X0000055022Y0000277002
X0000055250Y0000274078
X0000033983Y0000304892
X0000119857Y0000283302
X0000094243Y0000306348
X0000142734Y0000283576
X0000149110Y0000341468
X0000224034Y0000343976
X0000184023Y0000187309
X0000113548Y0000131244
X0000162634Y0000144276
X0000225778Y0000178999
X0000270406Y0000178187
X0000318824Y0000253061
X0000220225Y0000137024
X0000280392Y0000055524
X0000222978Y0000178998
X0000270406Y0000175887
X0000321342Y0000253061
X0000203220Y0000116279
X0000180292Y0000055524
X0000199434Y0000179276
X0000210945Y0000216444
X0000199088Y0000119167
X0000285230Y0000114620
X0000247934Y0000154376
X0000330815Y0000266255
X0000173992Y0000039774
X0000214624Y0000121694
X0000216068Y0000041073
X0000261492Y0000039774
X0000217467Y0000148472
X0000288924Y0000114620
X0000234225Y0000129217
X0000267792Y0000052374
X0000167618Y0000208613
X0000318683Y0000288043
X0000176426Y0000194275
X0000307013Y0000239172
X0000230224Y0000112823
X0000173992Y0000014574
X0000222571Y0000009077
X0000261492Y0000014574
X0000176400Y0000192180
X0000307013Y0000236862
X0000145283Y0000111764
X0000192034Y0000122776
X0000234244Y0000125317
X0000248892Y0000061824
X0000207120Y0000119079
X0000173992Y0000061824
X0000244262Y0000152247
X0000294929Y0000125316
X0000170842Y0000055524
X0000214624Y0000127478
X0000183968Y0000184637
X0000261492Y0000027174
X0000173992Y0000027174
X0000216068Y0000025073
X0000230224Y0000115623
X0000286633Y0000124740
X0000246884Y0000152326
X0000344403Y0000267746
X0000207120Y0000116279
X0000177142Y0000052374
X0000222978Y0000152291
X0000280058Y0000115293
X0000141514Y0000140294
X0000168034Y0000144376
X0000239928Y0000259367
X0000307013Y0000227361
X0000175703Y0000228802
X0000173992Y0000052374
X0000261492Y0000052374
X0000222424Y0000119079
X0000216068Y0000053073
X0000187934Y0000182276
X0000141178Y0000142776
X0000170864Y0000144491
X0000237628Y0000259367
X0000307013Y0000225051
X0000173453Y0000228828
X0000222424Y0000110680
X0000173992Y0000046074
X0000210068Y0000056073
X0000261492Y0000046074
X0000116610Y0000391968
X0000226294Y0000267854
X0000233156Y0000328450
X0000222329Y0000277874
X0000221507Y0000309832
X0000206463Y0000328376
X0000188956Y0000317922
X0000198271Y0000310975
X0000231730Y0000300836
X0000217273Y0000312634
X0000247388Y0000318842
X0000238906Y0000316504
X0000236178Y0000278003
X0000059077Y0000167132
X0000023054Y0000183122
X0000007018Y0000155933
X0000103351Y0000046365
X0000093005Y0000054045
X0000069922Y0000058624
X0000087912Y0000044112
X0000083046Y0000152670
X0000082534Y0000145730
X0000086560Y0000163766
X0000094042Y0000164087
X0000101224Y0000163714
X0000092986Y0000132244
X0000088805Y0000132161
X0000015132Y0000169320
X0000030017Y0000127341
X0000014991Y0000111993
X0000038194Y0000115288
X0000038092Y0000108256
X0000038115Y0000105020
X0000029368Y0000121882
X0000039709Y0000111682
X0000065216Y0000132232
X0000131634Y0000158176
X0000180334Y0000154676
X0000180034Y0000157776
X0000179834Y0000163276
X0000018490Y0000178597
X0000191494Y0000347076
X0000194133Y0000347078
X0000211662Y0000338529
X0000208812Y0000338649
X0000208812Y0000336149
X0000191898Y0000127155
X0000153460Y0000091641
X0000176434Y0000198876
X0000320007Y0000307189
X0000139934Y0000283476
X0000156834Y0000272376
X0000264642Y0000014574
X0000177142Y0000014574
X0000222568Y0000013073
X0000085034Y0000261376
X0000190307Y0000005297
X0000192582Y0000005408
X0000187851Y0000005323
X0000185162Y0000005323
X0000103937Y0000243550
X0000244263Y0000351490
X0000239719Y0000354756
X0000242109Y0000354283
X0000244287Y0000354851
X0000242701Y0000349194
X0000172565Y0000190237
X0000191149Y0000234129
X0000237024Y0000137024
X0000264642Y0000060249
X0000176264Y0000201646
X0000320007Y0000309389
X0000224001Y0000346585
X0000172565Y0000187437
X0000197879Y0000234130
X0000220624Y0000133117
X0000274092Y0000055524
X0000331093Y0000260705
X0000319786Y0000269689
X0000160973Y0000218388
X0000242567Y0000346990
X0000097537Y0000247978
X0000223124Y0000137024
X0000255192Y0000058673
X0000186592Y0000055524
X0000207120Y0000130278
X0000142056Y0000265854
X0000217425Y0000137017
X0000252042Y0000049224
X0000183001Y0000220550
X0000180201Y0000201722
X0000207120Y0000121880
X0000177142Y0000064974
X0000180751Y0000220576
X0000183924Y0000201127
X0000228624Y0000137017
X0000264642Y0000055524
X0000214624Y0000130279
X0000222568Y0000056073
X0000189741Y0000042923
X0000177142Y0000049224
X0000161393Y0000042924
X0000264643Y0000049224
X0000277241Y0000042923
X0000248892Y0000042924
X0000331174Y0000262704
X0000319786Y0000267489
X0000161000Y0000216088
X0000203219Y0000113579
X0000180292Y0000052374
X0000318683Y0000290224
X0000167618Y0000210720
X0000183568Y0000089073
X0000299943Y0000289325
X0000165911Y0000212454
X0000188568Y0000089073
X0000177142Y0000036624
X0000222568Y0000041073
X0000264642Y0000036624
X0000185568Y0000099073
X0000218434Y0000181776
X0000233334Y0000211576
X0000228578Y0000178999
X0000295109Y0000115319
X0000217425Y0000133117
X0000252042Y0000055524
X0000183692Y0000195852
X0000301549Y0000254443
X0000235685Y0000118301
X0000161393Y0000039775
X0000279041Y0000041433
X0000189741Y0000039774
X0000173992Y0000049224
X0000222568Y0000049073
X0000261493Y0000049224
X0000248892Y0000039775
X0000183847Y0000198593
X0000299349Y0000254443
X0000207120Y0000113479
X0000173992Y0000055524
X0000208229Y0000240690
X0000191699Y0000194836
X0000191571Y0000192520
X0000208229Y0000238490
X0000233444Y0000112279
X0000261492Y0000020874
X0000173992Y0000020874
X0000216068Y0000017073
X0000297274Y0000156658
X0000234836Y0000156073
X0000299877Y0000218608
X0000303192Y0000262520
X0000318413Y0000258482
X0000342305Y0000223424
X0000187518Y0000195918
X0000330635Y0000211613
X0000226990Y0000249160
X0000231425Y0000129217
X0000274092Y0000052374
X0000342305Y0000221114
X0000330635Y0000209303
X0000224352Y0000249212
X0000187736Y0000198770
X0000203219Y0000119079
X0000161393Y0000061824
X0000191769Y0000201437
X0000318683Y0000313975
X0000221580Y0000240745
X0000164542Y0000055524
X0000207120Y0000133079
X0000250333Y0000264484
X0000096488Y0000162762
X0000192164Y0000305680
X0000216084Y0000267849
X0000191769Y0000198637
X0000318683Y0000311665
X0000223914Y0000240600
X0000187869Y0000184637
X0000176478Y0000189724
X0000330635Y0000217519
X0000231424Y0000137024
X0000261492Y0000060249
X0000304838Y0000308088
X0000172734Y0000183576
X0000232496Y0000290976
X0000176465Y0000187437
X0000330635Y0000215208
X0000164542Y0000049224
X0000214623Y0000113479
X0000297743Y0000289325
X0000165937Y0000214600
X0000304838Y0000305888
X0000172634Y0000181076
X0000232496Y0000293406
X0000199334Y0000127676
X0000044362Y0000130546
X0000109047Y0000108669
X0000046401Y0000219353
X0000079331Y0000229774
X0000231425Y0000125316
X0000270942Y0000049224
X0000193054Y0000212312
X0000154458Y0000190576
X0000225825Y0000129217
X0000252042Y0000052374
X0000055154Y0000047591
X0000309960Y0000342519
X0000168665Y0000195837
X0000159600Y0000220430
X0000300416Y0000027532
X0000274093Y0000033473
X0000189845Y0000212428
X0000157258Y0000190576
X0000164542Y0000052374
X0000203220Y0000127204
X0000168665Y0000193037
X0000157350Y0000220456
X0000191809Y0000118829
X0000093600Y0000247978
X0000092034Y0000270676
X0000124634Y0000187576
X0000124634Y0000183576
X0000192334Y0000145776
X0000202134Y0000158076
X0000192334Y0000169676
X0000210934Y0000139576
X0000198334Y0000139276
X0000123110Y0000198281
X0000124835Y0000193521
X0000264148Y0000295535
X0000299990Y0000277810
X0000298831Y0000244751
X0000235328Y0000110090
X0000264642Y0000011424
X0000177142Y0000011424
X0000216191Y0000009073
X0000297790Y0000277810
X0000261948Y0000295535
X0000298831Y0000246951
X0000231424Y0000133117
X0000264642Y0000052374
X0000077391Y0000256121
X0000087459Y0000261538
X0000208234Y0000172776
X0000205134Y0000206976
X0000251568Y0000123073
X0000212250Y0000259113
X0000206934Y0000255476
X0000207034Y0000260676
X0000209734Y0000260776
X0000202743Y0000260166
X0000203634Y0000257376
X0000205734Y0000258376
X0000113460Y0000175315
X0000123306Y0000153169
X0000120654Y0000153013
X0000122334Y0000141576
X0000129687Y0000141076
X0000207873Y0000163504
X0000180081Y0000175445
X0000189234Y0000175176
X0000183334Y0000169476
X0000192434Y0000166576
X0000176834Y0000152176
X0000180081Y0000151564
X0000192534Y0000139676
X0000195520Y0000139625
X0000204834Y0000139576
X0000186134Y0000139776
X0000111327Y0000174030
X0000139753Y0000190528
X0000137194Y0000197170
X0000267187Y0000333391
X0000261492Y0000036624
X0000173992Y0000036624
X0000216068Y0000037073
X0000226323Y0000116279
X0000129354Y0000198220
X0000253450Y0000321601
X0000265568Y0000335088
X0000258104Y0000332775
X0000094734Y0000272776
X0000214734Y0000166676
X0000282111Y0000194005
X0000283607Y0000190938
X0000119484Y0000306526
X0000023172Y0000231126
X0000091632Y0000247978
X0000195834Y0000175476
X0000165709Y0000159889
X0000024970Y0000116482
X0000027358Y0000115809
X0000070890Y0000109645
X0000155421Y0000193735
X0000257068Y0000107073
X0000182929Y0000148376
X0000095568Y0000247978
X0000029907Y0000116304
X0000168322Y0000152201
X0000032000Y0000117188
X0000031330Y0000114598
X0000153200Y0000195764
X0000261492Y0000033474
X0000173992Y0000033474
X0000216068Y0000033073
X0000233365Y0000116157
X0000162722Y0000159945
X0000026843Y0000101712
X0000026843Y0000104195
X0000032636Y0000111837
X0000049143Y0000129356
X0000065589Y0000113014
X0000203220Y0000124679
X0000183442Y0000049224
X0000092289Y0000261846
X0000092366Y0000266525
X0000189334Y0000172376
X0000145997Y0000228662
X0000177142Y0000061824
X0000207120Y0000127478
X0000103937Y0000231741
X0000204784Y0000145595
X0000201484Y0000145861
X0000211034Y0000142676
X0000192467Y0000142672
X0000135134Y0000213576
X0000136834Y0000213576
X0000136834Y0000211876
X0000135234Y0000211876
X0000029376Y0000106661
X0000171122Y0000152201
X0000031663Y0000106661
X0000194568Y0000099073
X0000260274Y0000178241
X0000269511Y0000184957
X0000120872Y0000181121
X0000235094Y0000311037
X0000038385Y0000239881
X0000107254Y0000261276
X0000140718Y0000196640
X0000162158Y0000163679
X0000066274Y0000126794
X0000236930Y0000190699
X0000251257Y0000203150
X0000157354Y0000160142
X0000034127Y0000102064
X0000025457Y0000132563
X0000065744Y0000115651
X0000121181Y0000175828
X0000216213Y0000300781
X0000154134Y0000175176
X0000125753Y0000164560
X0000084434Y0000053963
X0000235547Y0000322036
X0000249231Y0000170291
X0000282546Y0000177607
X0000159664Y0000186799
X0000140198Y0000170743
X0000164777Y0000167488
X0000222428Y0000195456
X0000123822Y0000166084
X0000208989Y0000308839
X0000028323Y0000187558
X0000111142Y0000006397
X0000128738Y0000194598
X0000235706Y0000193645
X0000079331Y0000231741
X0000226134Y0000167876
X0000301449Y0000280058
X0000165264Y0000178998
X0000282171Y0000270262
X0000228834Y0000218776
X0000328970Y0000305337
X0000218478Y0000195837
X0000083759Y0000223372
X0000303649Y0000280058
X0000168064Y0000178998
X0000279971Y0000270262
X0000231934Y0000218676
X0000328970Y0000307537
X0000226434Y0000186676
X0000318683Y0000276232
X0000089734Y0000216876
X0000089734Y0000215276
X0000088134Y0000215276
R02Y0000001600
X0000089834Y0000218476
X0000305632Y0000196299
X0000341689Y0000232925
X0000075768Y0000276134
X0000054351Y0000307759
X0000052898Y0000330378
X0000079331Y0000241582
X0000123134Y0000280876
X0000085134Y0000291476
X0000073172Y0000239519
X0000140975Y0000177055
X0000245345Y0000318263
X0000145834Y0000266205
X0000242659Y0000342650
X0000067495Y0000256990
X0000009985Y0000299791
X0000196063Y0000372532
X0000075920Y0000250721
X0000030154Y0000262192
X0000271134Y0000204330
X0000226330Y0000197935
X0000245556Y0000042793
X0000279843Y0000037658
X0000124232Y0000162687
X0000061092Y0000241610
X0000271134Y0000201341
X0000226177Y0000195437
X0000071924Y0000234085
X0000073994Y0000235613
X0000073978Y0000232602
X0000081791Y0000223372
X0000076658Y0000158654
X0000051989Y0000197474
X0000067426Y0000252063
X0000207545Y0000372531
X0000007020Y0000299582
X0000030567Y0000258986
X0000137912Y0000229093
X0000128953Y0000184150
X0000154930Y0000218073
X0000151004Y0000252813
X0000242607Y0000330878
X0000160530Y0000277855
X0000136552Y0000236010
X0000034334Y0000330396
X0000059312Y0000280449
X0000059509Y0000306184
X0000073534Y0000241676
X0000071760Y0000218581
X0000079331Y0000227806
X0000235316Y0000202004
X0000318683Y0000242767
X0000088769Y0000291190
X0000148434Y0000317476
X0000079331Y0000243550
X0000122363Y0000179374
X0000237580Y0000311934
X0000128634Y0000261676
X0000100839Y0000256158
X0000079331Y0000239613
X0000096433Y0000216418
X0000094445Y0000218528
X0000096526Y0000218476
X0000094162Y0000216395
X0000096269Y0000214262
X0000094060Y0000214262
X0000123031Y0000177370
X0000222913Y0000312715
X0000223428Y0000339247
X0000082858Y0000253290
X0000146914Y0000283089
X0000089919Y0000311161
X0000150250Y0000327473
X0000073834Y0000244176
X0000157034Y0000163948
X0000159834Y0000163676
X0000222334Y0000190276
X0000222334Y0000193076
X0000199422Y0000193063
X0000199297Y0000190239
X0000199434Y0000187476
X0000233567Y0000209376
X0000195334Y0000148900
X0000202134Y0000166276
T02
X0000182760Y0000372836
X0000181887Y0000383421
X0000173820Y0000383421
X0000175618Y0000372527
X0000179318Y0000372424
X0000177930Y0000383446
X0000084330Y0000132180
X0000056639Y0000125865
X0000120901Y0000012833
X0000119189Y0000040352
X0000123953Y0000029291
X0000119579Y0000043412
X0000118702Y0000035046
X0000097091Y0000131810
X0000115489Y0000007535
X0000084943Y0000105146
X0000074722Y0000185613
X0000085326Y0000184932
X0000074003Y0000175644
X0000069643Y0000175584
X0000066534Y0000176276
X0000141114Y0000035698
X0000141114Y0000039408
X0000141114Y0000060038
X0000141114Y0000056573
X0000141114Y0000042898
X0000141114Y0000046389
X0000141114Y0000063658
X0000149887Y0000391869
X0000149784Y0000395489
X0000146784Y0000393627
X0000143888Y0000391662
X0000143888Y0000395592
X0000140785Y0000393731
X0000199544Y0000378809
X0000199519Y0000375319
X0000199425Y0000386185
X0000199632Y0000382565
X0000174447Y0000352826
X0000201769Y0000377051
X0000204070Y0000375293
X0000203954Y0000378848
X0000204028Y0000386160
X0000201701Y0000384531
X0000203873Y0000382720
X0000201804Y0000380704
X0000185584Y0000344776
X0000174447Y0000347876
X0000027934Y0000276176
X0000029784Y0000229626
X0000026788Y0000230259
X0000137988Y0000038050
X0000135712Y0000036162
X0000137988Y0000034223
X0000135764Y0000032387
X0000041521Y0000177156
X0000036737Y0000177259
X0000039180Y0000179192
X0000040604Y0000181838
X0000037042Y0000181635
X0000094214Y0000255654
X0000188464Y0000373277
X0000191748Y0000373277
X0000191722Y0000376147
X0000188413Y0000376121
X0000134106Y0000004846
X0000137933Y0000004846
X0000135967Y0000007742
X0000137984Y0000010276
X0000133950Y0000010484
X0000135916Y0000012707
X0000138139Y0000014672
X0000133589Y0000014879
X0000135864Y0000016741
X0000051234Y0000213426
T03
X0000027634Y0000293476
X0000027634Y0000290176
X0000030234Y0000303776
X0000220034Y0000215476
X0000224034Y0000215476
X0000023830Y0000325594
X0000011915Y0000326372
X0000050413Y0000178817
X0000050623Y0000184174
X0000034351Y0000259591
X0000285205Y0000353586
X0000066380Y0000147208
X0000141088Y0000067063
X0000096066Y0000144454
X0000070608Y0000102061
X0000057534Y0000114801
X0000055109Y0000092360
X0000123355Y0000120592
X0000281588Y0000133925
X0000307435Y0000156723
X0000308635Y0000160062
X0000083210Y0000098854
X0000057159Y0000189200
X0000098862Y0000358370
X0000094034Y0000352476
X0000232350Y0000234693
X0000205085Y0000227376
X0000113431Y0000318759
X0000089213Y0000348127
X0000157832Y0000283611
X0000142134Y0000344876
X0000131008Y0000281092
X0000155234Y0000267776
X0000152848Y0000283636
X0000158634Y0000290054
X0000082634Y0000319576
X0000035334Y0000343276
X0000031634Y0000343476
X0000015600Y0000299887
R02Y-0000003150
X0000011434Y0000331876
X0000027630Y0000341101
X0000018610Y0000343572
X0000049284Y0000250060
X0000038934Y0000261676
X0000077834Y0000319476
X0000041620Y0000252926
X0000040334Y0000236876
X0000035856Y0000215084
X0000030350Y0000215027
X0000033489Y0000217246
X0000110677Y0000353068
X0000188134Y0000236176
X0000023934Y0000337376
X0000068446Y0000213340
X0000132538Y0000154938
X0000129434Y0000154676
X0000260708Y0000150869
X0000020034Y0000303776
X0000007434Y0000323376
X0000250045Y0000377991
X0000246545Y0000377991
X0000236952Y0000372139
X0000253545Y0000370991
R02X-0000003500
X0000246545Y0000374491
R02X0000003500
X0000253545Y0000377991
X0000232310Y0000372292
X0000253545Y0000381491
X0000253545Y0000384991
X0000121148Y0000326822
X0000027634Y0000325976
X0000020141Y0000324165
X0000102834Y0000363176
X0000102305Y0000368526
X0000102322Y0000377068
X0000102361Y0000373385
X0000105893Y0000358256
X0000308886Y0000393056
X0000099634Y0000352976
X0000307849Y0000372653
X0000219394Y0000336092
X0000206434Y0000336876
X0000210934Y0000340876
X0000206434Y0000340876
X0000026989Y0000236764
X0000065034Y0000353976
X0000039234Y0000343476
X0000023800Y0000343726
X0000274913Y0000137657
X0000067134Y0000260176
X0000121142Y0000150007
X0000120934Y0000147012
X0000038202Y0000257876
X0000029841Y0000238084
T04
X0000319541Y0000341363
X0000319541Y0000174041
X0000329777Y0000341363
X0000329777Y0000174041
T05
X0000043250Y0000373837
X0000082620Y0000373837
T06
X0000309994Y0000325615
X0000309994Y0000189789
X0000339324Y0000325615
X0000339324Y0000189789
T07
X0000020000Y0000020000
X0000020000Y0000380000
X0000279850Y0000380000
X0000129724Y0000087175
X0000261404Y0000224970
X0000330000Y0000020000
T08
X0000000000Y0000045350
X0000000000Y0000042000
X0000000000Y0000048700
X0000000000Y0000148150
X0000000000Y0000144800
X0000000000Y0000248500
X0000000000Y0000151500
X0000000000Y0000251850
X0000000000Y0000255200
X0000000000Y0000358000
X0000000000Y0000354650
X0000000000Y0000351300
X0000350000Y0000045350
X0000350000Y0000042000
X0000350000Y0000148150
X0000350000Y0000144800
X0000350000Y0000048700
X0000350000Y0000248500
X0000350000Y0000151500
X0000350000Y0000251850
X0000350000Y0000255200
X0000350000Y0000351300
X0000350000Y0000354650
X0000350000Y0000358000
M30
