G04 ================== begin FILE IDENTIFICATION RECORD ==================*
G04 Layout Name:  E:/CAD/CAD/FACEBOOK/COM V1/WORK/22-12-20/COM_V1_P2_21-12-2020_4.brd*
G04 Film Name:    COM_V1_P2-L8.gbr*
G04 File Format:  Gerber RS274X*
G04 File Origin:  Cadence Allegro 16.6-2015-S108*
G04 Origin Date:  Fri Dec 25 11:50:53 2020*
G04 *
G04 Layer:  DRAWING FORMAT/FILM_LABEL_OUTLINE*
G04 Layer:  VIA CLASS/L8_SIG*
G04 Layer:  PIN/L8_SIG*
G04 Layer:  ETCH/L8_SIG*
G04 Layer:  BOARD GEOMETRY/OUTLINE*
G04 Layer:  BOARD GEOMETRY/TOOLING_CORNERS*
G04 *
G04 Offset:    (0.000 0.000)*
G04 Mirror:    No*
G04 Mode:      Positive*
G04 Rotation:  0*
G04 FullContactRelief:  No*
G04 UndefLineWidth:     6.000*
G04 ================== end FILE IDENTIFICATION RECORD ====================*
%FSLAX55Y55*MOIN*%
%IR0*IPPOS*OFA0.00000B0.00000*MIA0B0*SFA1.00000B1.00000*%
%ADD10C,.022*%
%ADD14C,.015*%
%ADD11C,.024*%
%ADD13C,.016*%
%ADD12C,.018*%
%ADD15C,.004*%
%ADD16C,.005*%
%ADD17C,.0042*%
%ADD18C,.006*%
%ADD19C,.007*%
%ADD20C,.0035*%
%ADD21C,.0062*%
%ADD22C,.0045*%
%ADD23C,.003402*%
%ADD24C,.0047*%
%ADD25C,.004701*%
%ADD26C,.003449*%
%ADD27C,.01*%
%ADD28C,.02*%
%ADD29C,.012*%
%ADD30C,.013*%
%ADD33C,.032004*%
%ADD35C,.024004*%
%ADD32C,.034004*%
%ADD34C,.026004*%
%ADD31C,.028004*%
G75*
%LPD*%
G75*
G36*
G01X20429Y133148D02*
X21472Y134190D01*
X26214D01*
X26954Y133450D01*
Y131163D01*
X22851Y127060D01*
Y102709D01*
X25407Y100152D01*
X29645D01*
X32874Y103381D01*
X34018D01*
X35161Y102238D01*
Y98605D01*
X33580Y97024D01*
X21640D01*
X20429Y98235D01*
Y133148D01*
G37*
G36*
G01X7107Y34659D02*
X3407Y38359D01*
Y85006D01*
G02X4030Y85339I400J0D01*
G03Y87665I779J1163D01*
G02X3407Y87998I-223J332D01*
G01Y114587D01*
G02X3962Y114956I400J0D01*
G03Y117539I541J1292D01*
G02X3407Y117908I-155J369D01*
G01Y121052D01*
G02X3884Y121445I400J0D01*
G03Y124193I268J1374D01*
G02X3407Y124586I-77J393D01*
G01Y127010D01*
G02X3884Y127403I400J0D01*
G03Y130151I268J1374D01*
G02X3407Y130544I-77J393D01*
G01Y285302D01*
X4670Y286565D01*
Y288832D01*
X5847Y290009D01*
X5985Y289908D01*
G03X8035Y291718I824J1132D01*
G01X8010Y291763D01*
Y292172D01*
X14088Y298250D01*
Y298513D01*
G02X14426Y298658I200J0D01*
G03X14475Y298612I1174J1230D01*
G02Y298013I-265J-300D01*
G03Y295463I1125J-1275D01*
G02Y294863I-265J-300D01*
G03X16724I1125J-1275D01*
G02Y295463I265J300D01*
G03Y298013I-1125J1275D01*
G02Y298612I265J300D01*
G03X14699Y301330I-1125J1275D01*
G02X14088Y301669I-212J339D01*
G01Y313048D01*
X19637Y318598D01*
Y322067D01*
G02X20057Y322467I400J0D01*
G03Y325863I84J1698D01*
G02X19637Y326262I-20J400D01*
G01Y338513D01*
X21770Y340645D01*
Y342401D01*
G02X22480Y342654I400J0D01*
G03X22162Y344184I1319J1072D01*
G01X22122Y344038D01*
X21770D01*
Y344779D01*
X22926Y345935D01*
X40602D01*
X41630Y344907D01*
Y331136D01*
X40644Y330150D01*
X40594Y330136D01*
G03X39695Y329237I353J-1251D01*
G01X39681Y329187D01*
X37108Y326614D01*
Y279610D01*
X16489Y258991D01*
Y249112D01*
X16767Y248834D01*
Y193338D01*
X16783Y193322D01*
X16773Y193226D01*
G03X18318Y191682I1392J-153D01*
G01X18413Y191692D01*
X21700Y188405D01*
Y184901D01*
G02X21163Y184526I-400J0D01*
G03X20195Y184525I-483J-1314D01*
G02X19666Y184987I-138J375D01*
G03X18784Y183978I-1367J305D01*
G02X19313Y183516I138J-375D01*
G03X21163Y181897I1367J-305D01*
G02X21700Y181521I138J-376D01*
G01Y175680D01*
X21577Y175629D01*
G03X20910Y173614I534J-1294D01*
G01Y172825D01*
X20616Y172530D01*
G02X19944Y172719I-283J283D01*
G03X18255Y171030I-1361J-329D01*
G02X18444Y170358I-94J-389D01*
G01X17608Y169522D01*
Y164950D01*
G02X17004Y164605I-400J0D01*
G03X16783Y164709I-661J-1120D01*
G02X16528Y165169I135J376D01*
G03X14772Y164116I-1369J293D01*
G02X15057Y163674I-110J-384D01*
G03X17640Y163583I1286J-188D01*
G02X18322Y163896I399J30D01*
G01X19207Y163011D01*
Y157712D01*
G02X18502Y157452I-400J0D01*
G03Y155764I-989J-844D01*
G02X19207Y155504I304J-260D01*
G01Y146545D01*
G02X18611Y146196I-400J0D01*
G03Y143753I-684J-1222D01*
G02X19207Y143403I195J-349D01*
G01Y143056D01*
X16383Y140232D01*
Y113495D01*
G02X15763Y113161I-400J0D01*
G03Y110825I-772J-1168D01*
G02X16383Y110491I221J-334D01*
G01Y95101D01*
X25618Y85866D01*
X48071D01*
X48875Y85062D01*
G02X48857Y84480I-283J-283D01*
G03X48525Y82820I928J-1048D01*
G02X48158Y82246I-360J-175D01*
G03X46863Y81442I-28J-1400D01*
G02X46501I-181J85D01*
G03X46447Y81545I-1267J-596D01*
G02X46654Y82119I347J200D01*
G03X44952Y82732I-489J1312D01*
G02X44745Y82158I-347J-200D01*
G03X45192Y79446I489J-1312D01*
G02X45514Y78826I-12J-400D01*
G03X47901Y77365I1168J-773D01*
G02X48568Y77411I348J-197D01*
G03X50938Y78877I1114J849D01*
G02X51260Y79452I359J176D01*
G03X52500Y80561I-131J1394D01*
G02X53175Y80762I392J-81D01*
G01X58554Y75383D01*
Y68148D01*
G02X57931Y67816I-400J0D01*
G03Y65493I-782J-1161D01*
G02X58554Y65162I223J-332D01*
G01Y37742D01*
X55471Y34659D01*
X7107D01*
G37*
G36*
G01X87324Y214890D02*
Y218137D01*
X88057Y218869D01*
X90523D01*
Y214876D01*
X90138Y214491D01*
X87723D01*
X87324Y214890D01*
G37*
G36*
G01X111634Y152176D02*
X109497Y154313D01*
Y156313D01*
X107691Y158118D01*
X107757Y158248D01*
G03X105671Y160005I-1247J636D01*
G01X104698Y160978D01*
Y167306D01*
X103623Y168381D01*
Y175357D01*
X103768Y175502D01*
X103781D01*
X104622Y176343D01*
X113999D01*
X114639Y175703D01*
Y168776D01*
X116534Y166881D01*
Y166099D01*
X116404Y166051D01*
G03X116516Y163580I457J-1217D01*
G01X116567Y163566D01*
X121247Y158886D01*
Y156019D01*
X122690Y154576D01*
X123112D01*
X123242Y154446D01*
Y153892D01*
X124053Y153081D01*
Y152767D01*
X123461Y152176D01*
X111634D01*
G37*
G36*
G01X113823Y248667D02*
X116171D01*
G02X116454Y247984I0J-400D01*
G01X116289Y247820D01*
Y244273D01*
G03X118089Y242286I1200J-721D01*
G01X118129Y242305D01*
X118374D01*
Y241875D01*
X111159Y234660D01*
X106542D01*
X105121Y236081D01*
X105106Y236121D01*
G03X104050Y236923I-1169J-443D01*
G02X103687Y237321I36J398D01*
G01Y237970D01*
G02X104050Y238368I400J0D01*
G03X104368Y238440I-114J1245D01*
G01X104402Y238452D01*
X104721D01*
X112294Y246025D01*
X112339Y246040D01*
G03X113178Y247654I-405J1236D01*
G01X113169Y247682D01*
Y248013D01*
X113823Y248667D01*
G37*
G36*
G01X193303Y141673D02*
X193549D01*
X193999Y142123D01*
X194346Y141775D01*
X205213D01*
X205834Y141154D01*
Y140845D01*
G02X205527Y140676I-200J0D01*
G03X205293Y138359I-693J-1100D01*
G02X205834Y137985I141J-374D01*
G01Y136728D01*
X205581Y136476D01*
X197087D01*
X196827Y136735D01*
X196765Y136882D01*
G03X194369I-1198J-505D01*
G01X194304Y136728D01*
X190946D01*
X190931Y136962D01*
G03X188336I-1297J-86D01*
G01X188321Y136728D01*
X185404D01*
Y141673D01*
X188097D01*
G03X189970I936J902D01*
G01X191634D01*
G03X193250Y141633I833J998D01*
G01X193303Y141673D01*
G37*
G36*
G01X175616Y146631D02*
G02X176121Y147017I400J0D01*
G03X176518Y149373I313J1159D01*
G01X176443Y149378D01*
X176249Y149572D01*
X176523Y149846D01*
X180800D01*
X180906Y149741D01*
X181653D01*
G02X181972Y149099I0J-400D01*
G03X183494Y149434I957J-724D01*
G02X183400Y150070I188J353D01*
G01X184285Y150955D01*
Y154019D01*
X184724Y154457D01*
X185013Y154167D01*
X185028Y154124D01*
G03X185086Y153983I1229J426D01*
G01X185107Y153942D01*
Y152173D01*
X185086Y152132D01*
G03Y150997I1170J-567D01*
G01X185107Y150956D01*
Y149189D01*
X185086Y149148D01*
G03X187427Y149147I1170J-567D01*
G01X187407Y149189D01*
Y150956D01*
X187427Y150997D01*
G03Y152132I-1170J567D01*
G01X187407Y152173D01*
Y153942D01*
X187427Y153983D01*
G03X187553Y154446I-1170J567D01*
G01X187571Y154676D01*
X191118D01*
X191137Y154446D01*
G03X191706Y153472I1296J104D01*
G02Y152642I-280J-415D01*
G03X193160Y152643I728J-1078D01*
G02Y153472I280J415D01*
G03X193729Y154446I-728J1078D01*
G01X193747Y154676D01*
X194534D01*
X196034Y153176D01*
X199434D01*
X199634Y153376D01*
X200780D01*
G03X200891Y153199I1153J601D01*
G02X200824Y152530I-401J-298D01*
G03X202812Y150896I872J-965D01*
G02X203670I429J-257D01*
G03X205605Y152574I1115J668D01*
G02X205508Y153243I316J388D01*
G03X205577Y153356I-1076J731D01*
G03X205596Y153376I-850J852D01*
G01X206680D01*
G03X208687Y152994I1154J600D01*
G01X208862Y153147D01*
X213402Y148607D01*
X213278Y148435D01*
G03X214189Y146384I1056J-759D01*
G02X214634Y145886I-56J-497D01*
G01Y142390D01*
X214511Y142339D01*
G03Y140123I462J-1108D01*
G01X214634Y140072D01*
Y139476D01*
X213134Y137976D01*
Y133376D01*
X212234Y132476D01*
X209734D01*
X208837Y133372D01*
X208831Y133465D01*
Y133466D01*
G03X207995Y134591I-1297J-90D01*
G01X207834Y134652D01*
Y135033D01*
G02X208059Y135282I250J0D01*
G03Y137870I-126J1294D01*
G02X207834Y138118I24J249D01*
G01Y140326D01*
X207334Y140826D01*
Y141776D01*
X205834Y143276D01*
X194968D01*
X194434Y143810D01*
X193564D01*
X193530Y143776D01*
X193157D01*
X193100Y143807D01*
G03X191834Y143807I-633J-1136D01*
G01X191777Y143776D01*
X189537D01*
X189494Y143792D01*
G03X188574Y143792I-460J-1216D01*
G01X188531Y143776D01*
X184934D01*
X184332Y143174D01*
X183904D01*
Y142676D01*
X176434D01*
X176205Y142905D01*
Y144950D01*
X175616Y145538D01*
Y146631D01*
G37*
G36*
G01X224074Y180872D02*
Y180666D01*
X223496Y180088D01*
X223377Y180130D01*
G03X222079Y179793I-399J-1132D01*
G01X221077D01*
G03X219279I-899J-795D01*
G01X213540D01*
Y180692D01*
X214028Y181180D01*
Y181258D01*
X216366Y183596D01*
X217810D01*
X217857Y183569D01*
G03X219097I620J1068D01*
G01X219143Y183596D01*
X221351D01*
X224074Y180872D01*
G37*
G36*
G01X178636Y152803D02*
X177104Y154335D01*
Y158870D01*
G03Y160932I-792J1031D01*
G01Y162631D01*
G03X177709Y164001I-555J1064D01*
G02X178096Y164503I387J102D01*
G01X181723D01*
G02X182101Y163971I0J-400D01*
G03X182437Y162678I1133J-396D01*
G01Y161673D01*
G03Y159878I797J-897D01*
G01Y153860D01*
X181380Y152803D01*
X178636D01*
G37*
G36*
G01X206194Y158538D02*
G03X205160Y159176I-1060J-563D01*
G02X204768Y159575I9J400D01*
G01Y160841D01*
X204734Y160876D01*
Y166976D01*
X199834Y171876D01*
Y174678D01*
X200507Y175352D01*
X200831Y175675D01*
X206134D01*
G02X206534Y175276I0J-400D01*
G03X207210Y174196I1200J0D01*
G02X207335Y173571I-175J-360D01*
G03X208758Y173855I899J-795D01*
G02X208633Y174480I175J360D01*
G03X208906Y175532I-899J795D01*
G02X209297Y176017I391J85D01*
G01X210989D01*
Y173628D01*
X213777Y170840D01*
X213711Y170710D01*
G03X213584Y170185I1023J-525D01*
G01Y167020D01*
X213577Y166994D01*
G03X215891I1157J-318D01*
G01X215884Y167020D01*
Y170185D01*
G03X215634Y170901I-1150J0D01*
G01Y171529D01*
X212789Y174374D01*
Y176017D01*
X213314D01*
X213568Y175762D01*
X213504Y175634D01*
G03X215628Y174517I1074J-535D01*
G02X216328I350J-194D01*
G03X218482Y174631I1050J582D01*
G02X219134Y174758I368J-156D01*
G01X219734Y174158D01*
Y172267D01*
X217569Y170102D01*
Y167686D01*
X217578Y167677D01*
Y167512D01*
X217569Y167503D01*
Y165778D01*
G02X217196Y165379I-400J0D01*
G03X216163Y164628I81J-1197D01*
G02X215527Y164476I-371J149D01*
G03X215848Y163129I-793J-901D01*
G02X216484Y163281I371J-149D01*
G03X216697Y163131I793J900D01*
G02X216786Y162498I-194J-350D01*
G01X215081Y160793D01*
Y158538D01*
X211434D01*
X211398Y158552D01*
G03X210524I-437J-1118D01*
G01X210488Y158538D01*
X208935D01*
G03X206933I-1001J-663D01*
G01X206194D01*
G37*
G36*
G01X226353Y257414D02*
X226132Y257635D01*
Y259114D01*
X221216Y264031D01*
Y266306D01*
G02X221856Y266626I400J0D01*
G03Y268866I840J1120D01*
G02X221216Y269186I-240J320D01*
G01Y272157D01*
X225102Y276043D01*
X228665D01*
X228684Y275999D01*
X236009D01*
X235947Y270169D01*
X235777Y270144D01*
G03X235750Y267575I187J-1287D01*
G01X235919Y267547D01*
X235875Y263443D01*
X235199D01*
X233438Y261682D01*
Y257511D01*
X233341Y257414D01*
X226353D01*
G37*
G36*
G01X178713Y168276D02*
X175893Y171095D01*
Y172872D01*
X177104Y174083D01*
G03X177334Y174272I-639J1016D01*
G01X178272D01*
X178632Y174632D01*
G02X179206Y174623I283J-283D01*
G03X181213Y175843I875J822D01*
G02X181590Y176376I377J133D01*
G01X183686D01*
X184386Y175675D01*
X184834D01*
X185034Y175476D01*
Y169576D01*
X184732Y169274D01*
X184536Y169469D01*
X184532Y169545D01*
G03X182294Y168876I-1198J-69D01*
G02X181948Y168276I-346J-200D01*
G01X178713D01*
G37*
G36*
G01X304256Y141657D02*
X302817Y143096D01*
Y158717D01*
X305283Y161184D01*
X306556D01*
G02X306934Y160653I0J-400D01*
G03X307142Y159056I1701J-590D01*
G02X306924Y158449I-332J-224D01*
G03X308928Y157729I511J-1726D01*
G02X309146Y158336I332J224D01*
G03X310336Y160653I-511J1726D01*
G02X310714Y161184I378J131D01*
G01X325427D01*
X328510Y158100D01*
Y143096D01*
X327071Y141657D01*
X304256D01*
G37*
%LPC*%
G75*
G36*
G01X18959Y305093D02*
G03X18972Y305702I-253J310D01*
G02X20822Y305830I862J973D01*
G03X20918Y305228I304J-260D01*
G02X18959Y305093I-884J-1453D01*
G37*
G36*
G01X28686Y292140D02*
G03Y291511I247J-314D01*
G02X26582I-1052J-1336D01*
G03Y292140I-247J314D01*
G02X28686I1052J1336D01*
G37*
G36*
G01X6786Y184355D02*
G03X6666Y184606I-190J63D01*
G02X8450Y185388I488J1312D01*
G03X8553Y185130I185J-76D01*
G02X8821Y182920I-533J-1186D01*
G03X8782Y182647I123J-157D01*
G02X6854Y182993I-1141J-812D01*
G03X6912Y183263I-112J165D01*
G02X6786Y184355I1108J681D01*
G37*
G36*
G01X17360Y179424D02*
G03X17323Y179698I-161J118D01*
G02X19330Y179964I876J1092D01*
G03X19366Y179689I161J-118D01*
G02X17360Y179424I-876J-1092D01*
G37*
G36*
G01X56032Y49129D02*
G03X56101Y48622I339J-212D01*
G02X53966Y48332I-947J-1032D01*
G03X53897Y48838I-339J212D01*
G02X56032Y49129I947J1032D01*
G37*
G36*
G01X33880Y344156D02*
G02X33793Y342557I1454J-881D01*
G03X33088Y342595I-363J-169D01*
G02X33175Y344194I-1454J881D01*
G03X33880Y344156I363J169D01*
G37*
G36*
G01X39946Y335123D02*
G02X38722I-612J-1147D01*
G03Y335828I-188J353D01*
G02X39946I612J1147D01*
G03Y335123I188J-353D01*
G37*
G36*
G01X35599Y316993D02*
G02X33947Y316722I-665J-1117D01*
G03X33848Y317326I-304J260D01*
G02X33647Y317474I665J1117D01*
G03X33055Y317407I-266J-298D01*
G02X32861Y319131I-1060J753D01*
G03X33454Y319197I266J298D01*
G02X35500Y317597I1060J-753D01*
G03X35599Y316993I304J-260D01*
G37*
G36*
G01X202201Y146823D02*
G02X201009Y146963I-717J-963D01*
G03X201090Y147651I-158J367D01*
G02X202282Y147511I717J963D01*
G03X202201Y146823I158J-367D01*
G37*
G36*
G01X193143Y146662D02*
G02X191825Y146863I-809J-887D01*
G03X191925Y147520I-170J362D01*
G02X193525Y149309I809J887D01*
G03X194153Y149443I264J301D01*
G02X194433Y147962I1181J-543D01*
G03X193801Y147857I-277J-289D01*
G02X193243Y147320I-1067J550D01*
G03X193143Y146662I170J-362D01*
G37*
G36*
G01X231393Y268624D02*
G03X231735Y268231I400J3D01*
G02X230134Y266834I-201J-1386D01*
G03X229791Y267227I-400J-3D01*
G02X231393Y268624I201J1386D01*
G37*
G36*
G01X230132Y263302D02*
G03X230130Y262763I294J-271D01*
G02X228060Y262771I-1038J-939D01*
G03X228062Y263310I-294J271D01*
G02X230132Y263302I1038J939D01*
G37*
G54D33*
X27934Y276176D03*
G54D35*
X198334Y139276D03*
X201634Y139576D03*
X211034Y142676D03*
X210934Y139576D03*
X204784Y145595D03*
X210734Y148276D03*
X218434Y181776D03*
X180034Y160676D03*
X207873Y163504D03*
X201534Y172476D03*
X207634Y166776D03*
X211034Y166476D03*
X207634Y169776D03*
X180234Y172376D03*
G54D32*
X39234Y343476D03*
X27634Y325976D03*
X27630Y341101D03*
X23830Y325594D03*
X30234Y303776D03*
G54D34*
X13855Y146007D03*
X9632Y147394D03*
X11318Y158357D03*
X34334Y330396D03*
X33983Y304892D03*
X16834Y310976D03*
X24242Y314483D03*
G54D31*
X9241Y141692D03*
X54597Y43048D03*
X15270Y50022D03*
X5462Y65541D03*
X8493Y52078D03*
X15218Y54836D03*
X15167Y64875D03*
X15116Y59891D03*
X29944Y59282D03*
X15132Y169320D03*
X7018Y155933D03*
X14252Y193236D03*
X7572Y161235D03*
X11952Y228654D03*
X7100Y176528D03*
X7172Y168239D03*
X9081Y193010D03*
X14920Y174011D03*
X7205Y189508D03*
X24378Y277421D03*
X12276Y269556D03*
X108360Y165538D03*
X111520Y164357D03*
X226295Y267854D03*
X320640Y149657D03*
X325336Y149094D03*
%LPD*%
G75*
G54D10*
X51234Y213426D03*
G54D20*
G01X226177Y195437D02*
Y195718D01*
X226934Y196476D01*
X228586D01*
X228903Y196158D01*
Y189562D01*
X230139Y188326D01*
X239940D01*
X241328Y189714D01*
G01X226330Y197935D02*
Y197726D01*
X226680Y197376D01*
X228747D01*
X229653Y196470D01*
Y189872D01*
X230450Y189076D01*
X239629D01*
X240798Y190244D01*
G54D11*
X68446Y213340D03*
X23934Y337376D03*
X110677Y353068D03*
G54D30*
G01X85479Y221742D02*
X85727Y221990D01*
Y223372D01*
G54D21*
G01X177142Y20874D02*
X175492Y22524D01*
G01X171470D02*
X167722Y26273D01*
Y39703D01*
G01X227673Y108679D02*
Y103547D01*
X227678Y103543D01*
Y102292D01*
X227673Y102287D01*
Y100892D01*
X228244Y100321D01*
X228997D01*
X229568Y99750D01*
Y98942D01*
X228997Y98371D01*
X228139D01*
X227568Y97800D01*
Y96992D01*
X228139Y96421D01*
X228997D01*
X229568Y95850D01*
Y95042D01*
X228997Y94471D01*
X228139D01*
X227568Y93900D01*
Y93092D01*
X228139Y92521D01*
X228997D01*
X229568Y91950D01*
Y91142D01*
X228997Y90571D01*
X228139D01*
X227568Y90000D01*
Y89192D01*
X228139Y88621D01*
X228997D01*
X229568Y88050D01*
Y87242D01*
X228997Y86671D01*
X228139D01*
X227568Y86100D01*
Y85292D01*
X228139Y84721D01*
X228997D01*
X229568Y84150D01*
Y83342D01*
X228997Y82771D01*
X228139D01*
X227568Y82200D01*
Y81392D01*
X228139Y80821D01*
X228997D01*
X229568Y80250D01*
Y79442D01*
X228997Y78871D01*
X228139D01*
X227568Y78300D01*
Y77492D01*
X228139Y76921D01*
X231997D01*
X232568Y76350D01*
Y75542D01*
X231997Y74971D01*
X228139D01*
X227568Y74400D01*
Y73592D01*
X228139Y73021D01*
X231997D01*
X232568Y72450D01*
Y71642D01*
X231997Y71071D01*
X228139D01*
X227568Y70500D01*
Y69692D01*
X228139Y69121D01*
X228997D01*
X229568Y68550D01*
Y67742D01*
X228997Y67171D01*
X228139D01*
X227568Y66600D01*
Y65573D01*
X228068Y65073D01*
X229068D01*
X229568Y64573D01*
Y62723D01*
X226918Y60073D01*
X221568D01*
X219493Y57998D01*
Y40298D01*
X216268Y37073D01*
G01X222568Y49073D02*
Y47223D01*
X223218Y46573D01*
X224589D01*
X225239Y47223D01*
Y51002D01*
X225810Y51573D01*
X226618D01*
X227189Y51002D01*
Y47144D01*
X227760Y46573D01*
X228568D01*
X229139Y47144D01*
Y51002D01*
X229710Y51573D01*
X230518D01*
X231089Y51002D01*
Y47693D01*
X231709Y47073D01*
X232568D01*
X233068Y47573D01*
Y49073D01*
X233568Y49573D01*
X234568D01*
X235068Y49073D01*
Y46173D01*
X235568Y45673D01*
X236418D01*
X237377Y46632D01*
Y107882D01*
X239088Y109593D01*
Y112109D01*
X235685Y115512D01*
Y118301D01*
G01X222568Y56073D02*
X222568Y54573D01*
X223543Y53598D01*
X224668D01*
X225239Y54169D01*
Y55502D01*
X225810Y56073D01*
X226618D01*
X227189Y55502D01*
Y54169D01*
X227760Y53598D01*
X228568D01*
X229139Y54169D01*
Y55502D01*
X229710Y56073D01*
X230518D01*
X231089Y55502D01*
Y54144D01*
X231660Y53573D01*
X233068D01*
X235568Y56073D01*
Y99573D01*
X234068Y101073D01*
Y108573D01*
X231891Y110750D01*
Y119750D01*
X228068Y123573D01*
X225568D01*
G01X216068Y53073D02*
Y53135D01*
X216914Y53981D01*
Y59646D01*
X219945Y62678D01*
Y68851D01*
X219374Y69422D01*
X213139D01*
X212568Y69994D01*
Y70801D01*
X213139Y71372D01*
X219374D01*
X219945Y71944D01*
Y72751D01*
X219374Y73322D01*
X213139D01*
X212568Y73894D01*
Y74701D01*
X213139Y75272D01*
X219374D01*
X219945Y75844D01*
Y76651D01*
X219374Y77222D01*
X215639D01*
X215068Y77794D01*
Y78573D01*
X215568Y79073D01*
X216568D01*
X223064Y85569D01*
Y108569D01*
X223068Y108573D01*
G01X214624Y121694D02*
X216161Y120158D01*
X216568Y119750D01*
Y89573D01*
X203068Y76073D01*
Y27693D01*
X203688Y27073D01*
X206695D01*
X207315Y27693D01*
Y30528D01*
X207860Y31073D01*
X209631D01*
X210175Y30528D01*
Y27618D01*
X210720Y27073D01*
X213448D01*
X214068Y27693D01*
Y40073D01*
X215068Y41073D01*
X216068D01*
G01X222568Y37073D02*
X220943Y38698D01*
Y56948D01*
X222568Y58573D01*
X228068D01*
X231568Y62073D01*
Y67573D01*
X234068Y70073D01*
Y78624D01*
X233497Y79195D01*
X231639D01*
X231068Y79766D01*
Y80574D01*
X231639Y81145D01*
X233497D01*
X234068Y81716D01*
Y82524D01*
X233497Y83095D01*
X231639D01*
X231068Y83666D01*
Y84474D01*
X231639Y85045D01*
X233497D01*
X234068Y85616D01*
Y86424D01*
X233497Y86995D01*
X231639D01*
X231068Y87566D01*
Y88374D01*
X231639Y88945D01*
X233497D01*
X234068Y89516D01*
Y90324D01*
X233497Y90895D01*
X231639D01*
X231068Y91466D01*
Y92274D01*
X231639Y92845D01*
X233497D01*
X234068Y93416D01*
Y94224D01*
X233497Y94795D01*
X231639D01*
X231068Y95366D01*
Y96174D01*
X231639Y96745D01*
X233446D01*
X234017Y97316D01*
Y98124D01*
X230568Y101573D01*
Y107573D01*
X228818Y109322D01*
G01X216068Y45073D02*
X218043Y47048D01*
Y59048D01*
X220818Y61823D01*
X225318D01*
X226068Y62573D01*
Y63573D01*
X225568Y64073D01*
X222068D01*
X221568Y64573D01*
X221514D01*
Y65228D01*
X222085Y65800D01*
X225497D01*
X226068Y66371D01*
Y67178D01*
X225497Y67750D01*
X222085D01*
X221514Y68321D01*
Y69128D01*
X222085Y69700D01*
X225497D01*
X226068Y70271D01*
Y71078D01*
X225497Y71650D01*
X222085D01*
X221514Y72221D01*
Y73028D01*
X222085Y73600D01*
X225497D01*
X226068Y74171D01*
Y74978D01*
X225497Y75550D01*
X222085D01*
X221514Y76121D01*
Y76928D01*
X222085Y77500D01*
X225497D01*
X226068Y78071D01*
Y78878D01*
X225497Y79450D01*
X223085D01*
X222514Y80021D01*
Y80828D01*
X223085Y81400D01*
X225497D01*
X226068Y81971D01*
Y83778D01*
X225497Y84350D01*
X225085D01*
X224514Y84921D01*
Y85728D01*
X225085Y86300D01*
X225497D01*
X226068Y86871D01*
Y87678D01*
X225497Y88250D01*
X225085D01*
X224514Y88821D01*
Y89628D01*
X225085Y90200D01*
X225497D01*
X226068Y90771D01*
Y91578D01*
X225497Y92150D01*
X225085D01*
X224514Y92721D01*
Y93528D01*
X225085Y94100D01*
X225497D01*
X226068Y94671D01*
Y95478D01*
X225497Y96050D01*
X225085D01*
X224514Y96621D01*
Y97428D01*
X225085Y98000D01*
X225497D01*
X226068Y98571D01*
Y99378D01*
X224514Y100932D01*
Y108019D01*
X224923Y108429D01*
G01X242990Y51535D02*
Y38741D01*
X244710Y37020D01*
X252438D01*
X255174Y39756D01*
G54D12*
G01X27627Y226059D02*
Y213593D01*
X37592Y203628D01*
X52440D01*
X58709Y197359D01*
X74790D01*
X76590Y199159D01*
Y204605D01*
X76590Y216887D01*
X76590Y216888D01*
Y217837D01*
X79802Y221048D01*
X84784D01*
X85479Y221742D01*
G01X62409Y227926D02*
X62409Y228971D01*
X60479Y230901D01*
Y231143D01*
G01X68446Y213340D02*
Y214702D01*
X66034Y217114D01*
Y225726D01*
X63834Y227926D01*
X62409D01*
G01X94243Y306348D02*
X95869Y304722D01*
Y304640D01*
X100717Y299792D01*
X110890D01*
X121484Y289199D01*
Y284928D01*
X119857Y283302D01*
G01X282111Y194005D02*
Y192434D01*
G01D02*
X283607Y190938D01*
X111142Y6397D03*
X84434Y53963D03*
X65744Y115651D03*
X25457Y132563D03*
X34127Y102064D03*
X49143Y129356D03*
X107012Y140420D03*
X114874Y119925D03*
X8538Y68710D03*
X5455Y54956D03*
X5352Y60043D03*
X46981Y67494D03*
X57321Y57512D03*
X114266Y59808D03*
X112637Y46884D03*
X104349Y51484D03*
X102911Y69478D03*
X110476Y48193D03*
X110924Y71432D03*
X112629Y56567D03*
X110532Y66979D03*
X89796Y102074D03*
X110385Y44214D03*
X94290Y99551D03*
X72960Y116719D03*
X51989Y197474D03*
X76658Y158654D03*
X28323Y187558D03*
X111327Y174030D03*
X113460Y175315D03*
X96488Y162762D03*
X27627Y226059D03*
X73148Y204245D03*
X72094Y202208D03*
X70198Y206981D03*
X72582Y206711D03*
X49369Y210180D03*
X95589Y166872D03*
X88963Y153722D03*
X81119Y168821D03*
X22437Y194000D03*
X33028Y237799D03*
X94010Y153727D03*
X101073Y152712D03*
X22110Y174335D03*
X52448Y165249D03*
X40735Y160439D03*
X63130Y151174D03*
X7020Y299582D03*
X9985Y299791D03*
X110197Y357632D03*
X6314Y278549D03*
X8986Y280604D03*
X7856Y283585D03*
X11042Y279063D03*
X12275Y281427D03*
X8986Y277624D03*
X6109Y281530D03*
X10322Y282968D03*
X46447Y360389D03*
X6810Y291040D03*
X159654Y13844D03*
X125355Y137076D03*
X122150Y134593D03*
X150393Y102191D03*
X148483Y99202D03*
X115191Y44067D03*
X115543Y56173D03*
X115609Y51132D03*
X115805Y69666D03*
X118908Y120132D03*
X154930Y218073D03*
X125753Y164560D03*
X137194Y197170D03*
X224352Y249212D03*
X226990Y249160D03*
X208229Y238490D03*
Y240690D03*
X161000Y216088D03*
X160973Y218388D03*
X210945Y216444D03*
X141028Y194019D03*
X234178Y163641D03*
X232994Y258160D03*
X176830Y145490D03*
X231378Y163695D03*
X135075Y237720D03*
X219028Y261527D03*
X234178Y175099D03*
X214024Y217171D03*
X173909Y167549D03*
X168309Y163716D03*
X176312Y159901D03*
X208234Y216376D03*
X171109Y167549D03*
X173512Y159901D03*
X170712D03*
X173909Y163716D03*
X168309Y167549D03*
X171109Y163716D03*
X126386Y204492D03*
X165488Y163368D03*
X228134Y159676D03*
X212734Y208976D03*
X218997Y237361D03*
X212146Y227214D03*
X209757Y227266D03*
X117490Y243552D03*
X151438Y256018D03*
X223428Y339247D03*
X222913Y312715D03*
X207545Y372531D03*
X196063Y372532D03*
X216213Y300781D03*
X232496Y293406D03*
Y290976D03*
X225312Y277951D03*
X195135Y305298D03*
X195921Y311114D03*
X190617Y284945D03*
X227078Y309716D03*
X185540Y371576D03*
X124259Y382014D03*
X225423Y369072D03*
X295109Y115319D03*
X286633Y124740D03*
X285230Y114620D03*
X295174Y89275D03*
X242990Y51535D03*
X324148Y49364D03*
X296719Y131600D03*
X299759Y133949D03*
X318683Y242767D03*
X282546Y177607D03*
X249231Y170291D03*
X283607Y190938D03*
X282111Y194005D03*
X298831Y246951D03*
Y244751D03*
X303192Y262520D03*
X299877Y218608D03*
X297274Y156658D03*
X237628Y259367D03*
X239928D03*
X321342Y253061D03*
X270406Y175887D03*
X318824Y253061D03*
X270406Y178187D03*
X326841Y155853D03*
X307724Y152499D03*
X303574Y155904D03*
X295006Y219078D03*
X300684Y256897D03*
X269600Y159486D03*
X289431Y229064D03*
X310669Y180426D03*
X308818Y164512D03*
X278134Y149176D03*
X240492Y225000D03*
X240544Y222585D03*
X283213Y220447D03*
X288591Y259846D03*
X291846Y227831D03*
X294062Y160280D03*
X249651Y200103D03*
X283034Y187506D03*
X295490Y191029D03*
X251634Y184076D03*
X251705Y253467D03*
X254005D03*
X282577Y179909D03*
X235322Y247049D03*
X235219Y249618D03*
X235576Y214549D03*
X318683Y245078D03*
X316511Y163725D03*
X249534Y182855D03*
X290962Y258927D03*
X304698Y171474D03*
X313938Y176165D03*
X292731Y257234D03*
Y255034D03*
X307013Y219145D03*
Y221456D03*
X320393Y229770D03*
Y227570D03*
X294558Y210552D03*
X237580Y311934D03*
X279971Y270262D03*
X282171D03*
X235547Y322036D03*
X235094Y311037D03*
X265568Y335088D03*
X297790Y277810D03*
X299990D03*
X304838Y305888D03*
X297743Y289325D03*
X304838Y308088D03*
X250333Y264484D03*
X299943Y289325D03*
X319786Y267489D03*
Y269689D03*
X330815Y266255D03*
X308803Y335587D03*
X305669Y334046D03*
X261708Y336024D03*
X305651Y368426D03*
X274484Y332699D03*
X310704Y337951D03*
X252002Y347844D03*
X301163Y355324D03*
X238469Y337502D03*
X286070Y296297D03*
X298996Y312768D03*
X288344Y338153D03*
X259461Y334484D03*
X327537Y289875D03*
X331290Y288266D03*
X327830Y299733D03*
X328542Y285640D03*
X273161Y312826D03*
X287050Y299613D03*
Y301813D03*
X285878Y305116D03*
X283678D03*
X296806Y309192D03*
Y311392D03*
X253042Y297278D03*
X252880Y294872D03*
X306515Y386539D03*
G54D22*
G01X180292Y52374D02*
X180293Y52374D01*
Y53298D01*
X181818Y54823D01*
Y59351D01*
X183090Y60623D01*
X185961D01*
X187018Y61680D01*
Y64680D01*
X187911Y65573D01*
X191411D01*
X192518Y66680D01*
Y69712D01*
X191434Y70796D01*
X185045D01*
X184518Y71323D01*
Y72069D01*
X185045Y72596D01*
X191434D01*
X192518Y73680D01*
Y75212D01*
X191434Y76296D01*
X185045D01*
X184518Y76823D01*
Y77569D01*
X185045Y78096D01*
X191434D01*
X192518Y79180D01*
Y80712D01*
X191434Y81796D01*
X185045D01*
X184518Y82323D01*
Y83069D01*
X185045Y83596D01*
X191434D01*
X201458Y93620D01*
Y93648D01*
X201669Y93859D01*
Y104331D01*
X202461Y105123D01*
X204461D01*
X205594Y106256D01*
Y112047D01*
X204063Y113579D01*
X203219D01*
G01X210068Y56073D02*
X209668Y55673D01*
Y54923D01*
X210118Y54473D01*
X210795D01*
X211113Y54791D01*
X211750D01*
X212118Y54423D01*
Y42466D01*
X210699Y41048D01*
Y36304D01*
X209768Y35374D01*
X208311D01*
X207396Y36288D01*
Y41451D01*
X210068Y44123D01*
Y50916D01*
X207624Y53360D01*
Y75780D01*
X209968Y78123D01*
X211961D01*
X213068Y79230D01*
Y80673D01*
X214018Y81623D01*
X215461D01*
X217068Y83230D01*
Y84730D01*
X217612Y85274D01*
X219112D01*
X221018Y87180D01*
Y90466D01*
X220018Y91466D01*
Y92679D01*
X221018Y93680D01*
Y95623D01*
X220058Y96583D01*
Y97219D01*
X221018Y98180D01*
Y100123D01*
X220018Y101123D01*
Y101949D01*
X221018Y102949D01*
Y104675D01*
X220018Y105675D01*
Y106523D01*
X220873Y107379D01*
Y111579D01*
X221348Y112054D01*
X222136D01*
X222424Y111766D01*
Y110680D01*
G01X180292Y55524D02*
X180293D01*
X180888Y56119D01*
Y59736D01*
X182704Y61553D01*
X183511D01*
X183531Y61573D01*
X185568D01*
X186068Y62073D01*
Y65073D01*
X187518Y66523D01*
X191018D01*
X191568Y67073D01*
Y69319D01*
X191041Y69846D01*
X184652D01*
X183568Y70930D01*
Y72462D01*
X184652Y73546D01*
X191041D01*
X191568Y74073D01*
Y74819D01*
X191041Y75346D01*
X184652D01*
X183568Y76430D01*
Y77962D01*
X184652Y79046D01*
X191041D01*
X191568Y79573D01*
Y80319D01*
X191041Y80846D01*
X184652D01*
X183568Y81930D01*
Y83462D01*
X184652Y84546D01*
X191041D01*
X200739Y94244D01*
Y104744D01*
X202068Y106073D01*
X204068D01*
X204644Y106650D01*
Y111654D01*
X204194Y112104D01*
X202579D01*
X201794Y112889D01*
Y114854D01*
X202136Y115195D01*
Y115196D01*
X203220Y116279D01*
G01X213068Y56073D02*
Y54468D01*
X213048Y54448D01*
Y42081D01*
X211629Y40662D01*
Y35919D01*
X210154Y34444D01*
X207925D01*
X206466Y35903D01*
Y41837D01*
X209138Y44508D01*
Y50531D01*
X206694Y52975D01*
Y76165D01*
X209582Y79053D01*
X211576D01*
X212118Y79595D01*
Y81066D01*
X213624Y82573D01*
X215068D01*
X216118Y83623D01*
Y85123D01*
X217218Y86224D01*
X218718D01*
X220068Y87573D01*
Y90073D01*
X219068Y91073D01*
Y93073D01*
X220068Y94073D01*
Y95230D01*
X219108Y96190D01*
Y97613D01*
X220068Y98573D01*
Y99730D01*
X219068Y100730D01*
Y102343D01*
X220068Y103343D01*
Y104282D01*
X219068Y105282D01*
Y106916D01*
X219923Y107772D01*
Y112429D01*
X220974Y113479D01*
X222424D01*
G01X267792Y52374D02*
X266168Y53999D01*
Y56156D01*
X265274Y57049D01*
X265191D01*
X265117Y57123D01*
X260703D01*
X258618Y59208D01*
Y73047D01*
X254568Y77097D01*
Y78629D01*
X255652Y79713D01*
X258091D01*
X258618Y80240D01*
Y80986D01*
X258091Y81513D01*
X255652D01*
X254568Y82597D01*
Y84129D01*
X255652Y85213D01*
X258091D01*
X258618Y85740D01*
Y86486D01*
X258091Y87013D01*
X255652D01*
X254568Y88097D01*
Y89629D01*
X255652Y90713D01*
X258091D01*
X258618Y91240D01*
Y91986D01*
X258091Y92513D01*
X255652D01*
X254568Y93597D01*
Y95129D01*
X255652Y96213D01*
X258091D01*
X258618Y96740D01*
Y97486D01*
X258091Y98013D01*
X255652D01*
X254568Y99097D01*
Y100629D01*
X255652Y101713D01*
X258091D01*
X258618Y102240D01*
Y103523D01*
X258068Y104073D01*
X255752D01*
X254502Y105323D01*
Y112295D01*
X239006Y127791D01*
X235651D01*
X235147Y128295D01*
X234225Y129217D01*
G01X267792Y55524D02*
X268850D01*
X269300Y55974D01*
Y57123D01*
X268850Y57573D01*
X266066D01*
X265660Y57979D01*
X265576D01*
X265482Y58073D01*
X265423D01*
X265403Y58053D01*
X261088D01*
X259568Y59573D01*
Y73440D01*
X255518Y77490D01*
Y78236D01*
X256045Y78763D01*
X258484D01*
X259568Y79847D01*
Y81379D01*
X258484Y82463D01*
X256045D01*
X255518Y82990D01*
Y83736D01*
X256045Y84263D01*
X258484D01*
X259568Y85347D01*
Y86879D01*
X258484Y87963D01*
X256045D01*
X255518Y88490D01*
Y89236D01*
X256045Y89763D01*
X258484D01*
X259568Y90847D01*
Y92379D01*
X258484Y93463D01*
X256045D01*
X255518Y93990D01*
Y94736D01*
X256045Y95263D01*
X258484D01*
X259568Y96347D01*
Y97879D01*
X258484Y98963D01*
X256045D01*
X255518Y99490D01*
Y100236D01*
X256045Y100763D01*
X258484D01*
X259568Y101847D01*
Y104073D01*
X258568Y105073D01*
X256068D01*
X255432Y105708D01*
Y112680D01*
X255248Y112865D01*
Y112893D01*
X238924Y129216D01*
X237024Y129216D01*
G54D13*
X32636Y111837D03*
X73834Y244176D03*
X82858Y253290D03*
X100839Y256158D03*
X71760Y218581D03*
X73534Y241676D03*
X73172Y239519D03*
X89834Y218476D03*
X88134D03*
Y216876D03*
Y215276D03*
X89734D03*
Y216876D03*
X46401Y219353D03*
X111934Y247276D03*
X109734Y248176D03*
X30970Y153924D03*
X60479Y231143D03*
X62409Y227926D03*
X114654Y247624D03*
X113762Y245612D03*
X114334Y200676D03*
X112134Y200526D03*
X106834Y255676D03*
X105244Y210490D03*
X44310Y170829D03*
X36040Y169162D03*
X89919Y311161D03*
X88769Y291190D03*
X59509Y306184D03*
X59312Y280449D03*
X85134Y291476D03*
X52898Y330378D03*
X54351Y307759D03*
X75768Y276134D03*
X94243Y306348D03*
X177142Y20874D03*
X183442Y49224D03*
X203220Y124679D03*
X226323Y116279D03*
X216068Y37073D03*
X186134Y139776D03*
X204834Y139576D03*
X195520Y139625D03*
X192534Y139676D03*
X231424Y133117D03*
X231425Y125317D03*
X231424Y137024D03*
X161392Y61824D03*
X203219Y119079D03*
X231425Y129217D03*
X173992Y55524D03*
X207120Y113479D03*
X222568Y49073D03*
X180292Y52374D03*
X203219Y113579D03*
X222568Y56073D03*
X214624Y130279D03*
X177142Y64974D03*
X207120Y121880D03*
X210068Y56073D03*
X222424Y110680D03*
X216068Y53073D03*
X222424Y119079D03*
X177142Y52374D03*
X207120Y116279D03*
X173992Y61824D03*
X207120Y119079D03*
X234244Y125317D03*
X234225Y129217D03*
X216068Y41073D03*
X214624Y121694D03*
X180292Y55524D03*
X203220Y116279D03*
X228625Y129217D03*
X186592Y52374D03*
X199320Y113579D03*
X167692Y58673D03*
X203219Y110679D03*
X211034Y133576D03*
X167722Y39703D03*
X167692Y55524D03*
X199320Y110680D03*
X234224Y137017D03*
X222568Y37073D03*
X222424Y124679D03*
X234224Y133117D03*
X213068Y56073D03*
X222424Y113479D03*
X216068Y45073D03*
X222424Y121879D03*
X123031Y177370D03*
X128634Y261676D03*
X122363Y179374D03*
X128953Y184150D03*
X226177Y195437D03*
X226330Y197935D03*
X140975Y177055D03*
X231934Y218676D03*
X168064Y178998D03*
X228834Y218776D03*
X165264Y178998D03*
X123822Y166084D03*
X121181Y175828D03*
X120872Y181121D03*
X214734Y166676D03*
X129354Y198220D03*
X139753Y190528D03*
X120654Y153013D03*
X123306Y153169D03*
X157258Y190576D03*
X189845Y212428D03*
X154458Y190576D03*
X193054Y212312D03*
X165937Y214600D03*
X187736Y198770D03*
X187518Y195918D03*
X234836Y156073D03*
X191571Y192520D03*
X191699Y194836D03*
X228578Y178999D03*
X165911Y212454D03*
X197879Y234130D03*
X172565Y187437D03*
X191150Y234129D03*
X172565Y190237D03*
X179834Y163276D03*
X180034Y157776D03*
X180334Y154676D03*
X173453Y228828D03*
X175703Y228802D03*
X222978Y152291D03*
X217467Y148472D03*
X199434Y179276D03*
X160508Y196729D03*
X217378Y167594D03*
X150149Y249885D03*
X202034Y175176D03*
X208234Y160476D03*
X211234Y163276D03*
X214578Y159795D03*
X128934Y224976D03*
X134664Y234557D03*
X116646Y229856D03*
X123530Y171584D03*
X173664Y175099D03*
X128334Y172076D03*
X227339Y259313D03*
X176464Y175099D03*
X128434Y168576D03*
X116334Y250076D03*
X191769Y184637D03*
X191567Y187476D03*
X199234Y184076D03*
X199273Y181837D03*
X156237Y247296D03*
X147217Y242282D03*
X116334Y256876D03*
X217567Y152372D03*
X214934Y152576D03*
X186257Y148580D03*
Y154550D03*
Y151564D03*
X186034Y156776D03*
X229034Y182976D03*
X138728Y236864D03*
X231634Y182876D03*
X218477Y184637D03*
X177059Y172460D03*
X183127Y172694D03*
X180029Y169474D03*
X233434Y199876D03*
X171052Y148447D03*
X162165Y152344D03*
X165217Y152292D03*
X168064Y148391D03*
X146914Y283089D03*
X145834Y266205D03*
X208989Y308839D03*
X216084Y267849D03*
X192164Y305680D03*
X119857Y283302D03*
X223694Y310096D03*
X218183Y267771D03*
X139991Y350065D03*
X117497Y322136D03*
X264642Y52374D03*
X270943Y49224D03*
X261493Y60249D03*
X274092Y52374D03*
X235685Y118301D03*
X264642Y60249D03*
X237024Y137024D03*
X280058Y115293D03*
X248892Y61824D03*
X267792Y52374D03*
X288924Y114620D03*
X255193Y55524D03*
X264642Y63399D03*
X267792Y55524D03*
X237024Y129216D03*
X261493Y63399D03*
X255174Y39756D03*
X235317Y202004D03*
X271134Y201341D03*
Y204330D03*
X246884Y152326D03*
X247934Y154376D03*
X235034Y178826D03*
X251634Y186576D03*
X274234Y193511D03*
X236978Y167595D03*
X284532Y211567D03*
X296901Y260224D03*
X294635Y251772D03*
X242659Y342650D03*
X245345Y318263D03*
X258104Y332775D03*
X253450Y321601D03*
X255937Y322237D03*
X255303Y324193D03*
X257536Y349032D03*
X248183Y264743D03*
X262072Y348514D03*
X320404Y304604D03*
X307743Y298121D03*
X307442Y266148D03*
X246425Y268058D03*
X248425D03*
X331119Y301171D03*
X294803Y265461D03*
G54D23*
G01X144751Y210595D02*
Y210594D01*
X144627Y210470D01*
G01X171052Y148447D02*
X175034Y144465D01*
Y136420D01*
X173282Y134668D01*
X153789D01*
X152664Y133543D01*
Y111043D01*
X161919Y101788D01*
G01X158184D02*
X150443Y109529D01*
Y136895D01*
X150796Y137247D01*
Y140479D01*
X158266Y147950D01*
Y148445D01*
X162165Y152344D01*
G01X159457Y101788D02*
X151183Y110062D01*
Y136588D01*
X151536Y136940D01*
Y139400D01*
X162579Y150444D01*
X163368D01*
X165217Y152292D01*
G01X168064Y148391D02*
X169608Y146847D01*
X170446D01*
X172234Y145058D01*
Y143923D01*
X166833Y138522D01*
X153662D01*
X152276Y137137D01*
Y136634D01*
X151924Y136281D01*
Y110510D01*
X160646Y101788D01*
G01X241328Y189714D02*
X241548Y189934D01*
Y189941D01*
X241600Y189992D01*
Y189999D01*
X241714Y190113D01*
Y193571D01*
X243082Y194940D01*
X245607D01*
X245736Y194810D01*
X245779D01*
G01X240798Y190244D02*
X240973Y190420D01*
Y193878D01*
X242775Y195680D01*
X245607D01*
X245736Y195810D01*
X245779D01*
G01X145651Y210595D02*
Y210221D01*
X144627Y209197D01*
G01X223121Y210595D02*
X222377Y209850D01*
Y208181D01*
X222197Y208001D01*
G01X179576Y178768D02*
X179521D01*
X179491Y178738D01*
X179258D01*
X179228Y178708D01*
X178496D01*
X177076Y177288D01*
X167715D01*
X167374Y177628D01*
Y178309D01*
X168064Y178998D01*
G01X224086Y210145D02*
X223117Y209176D01*
Y207789D01*
G01X179576Y177968D02*
X178802D01*
X177382Y176548D01*
X167408D01*
X166634Y177322D01*
Y177628D01*
X165264Y178998D01*
G01X144627Y207924D02*
X146551Y209849D01*
Y210595D01*
G01X190917D02*
Y210510D01*
X191022Y210405D01*
Y207632D01*
X189948Y206557D01*
X182170D01*
X180494Y204882D01*
X172478D01*
X170195Y202599D01*
Y189187D01*
X166313Y185305D01*
X166145D01*
X166126Y185287D01*
X164991D01*
X164973Y185305D01*
X156666D01*
X155864Y186108D01*
Y187243D01*
X156228Y187608D01*
Y189546D01*
X157258Y190576D01*
G01X191867Y210595D02*
Y210510D01*
X191762Y210405D01*
Y207325D01*
X190254Y205817D01*
X182476D01*
X180801Y204142D01*
X172785D01*
X170935Y202292D01*
Y188880D01*
X166619Y184565D01*
X166452D01*
X166433Y184547D01*
X164684D01*
X164666Y184565D01*
X156360D01*
X155123Y185801D01*
Y187550D01*
X155488Y187914D01*
Y189546D01*
X154458Y190576D01*
G01X187736Y198770D02*
X188712Y197794D01*
X189650D01*
X190299Y197145D01*
X192684D01*
X193373Y197834D01*
Y201049D01*
X199550Y207226D01*
Y210174D01*
X199456Y210259D01*
X199445Y210509D01*
X199414Y210540D01*
Y210595D01*
G01X187518Y195918D02*
X188653Y197053D01*
X189343D01*
X189992Y196405D01*
X192990D01*
X194113Y197528D01*
Y200742D01*
X200291Y206919D01*
Y210209D01*
X200376Y210302D01*
X200364Y210552D01*
Y210595D01*
G01X202999D02*
Y210510D01*
X202894Y210405D01*
Y206742D01*
X195895Y199743D01*
Y194737D01*
X194466Y193309D01*
X192359D01*
X191571Y192520D01*
G01X202049Y210595D02*
Y210510D01*
X202154Y210405D01*
Y207049D01*
X195155Y200050D01*
Y195044D01*
X194160Y194049D01*
X192486D01*
X191699Y194836D01*
G01X197209Y210595D02*
Y210510D01*
X197104Y210405D01*
Y206898D01*
X193914Y203707D01*
X184036D01*
X182312Y201983D01*
Y199374D01*
X180481Y197544D01*
Y186921D01*
X178761Y185201D01*
X175716D01*
X174354Y186563D01*
Y188126D01*
X174014Y188466D01*
X173595D01*
X172565Y187437D01*
G01X196259Y210595D02*
Y210510D01*
X196364Y210405D01*
Y207204D01*
X193607Y204448D01*
X183729D01*
X181571Y202290D01*
Y199681D01*
X179741Y197850D01*
Y187228D01*
X178454Y185941D01*
X176023D01*
X175094Y186869D01*
Y188433D01*
X174321Y189207D01*
X173595D01*
X172565Y190237D01*
G01X199434Y179276D02*
X201232Y181074D01*
Y182476D01*
X202869Y184113D01*
X204443D01*
X206487Y186157D01*
Y191565D01*
X209258Y194337D01*
Y203122D01*
X210945Y204809D01*
Y210595D01*
G01X148760Y199115D02*
Y192809D01*
X147116Y191165D01*
X144627D01*
G01Y169354D02*
X148198D01*
X152150Y173305D01*
X171870D01*
X173664Y175099D01*
G01X144627Y168081D02*
X144985Y168439D01*
X148402D01*
X152527Y172565D01*
X172177D01*
X172196Y172584D01*
X173950D01*
X176464Y175099D01*
G01X207434Y209512D02*
X206351Y210595D01*
G01X206534Y209089D02*
X205029Y210595D01*
G01X208545Y205524D02*
Y210595D01*
G01X199273Y181837D02*
X199325D01*
X202341Y184853D01*
X204136D01*
X205747Y186463D01*
Y191872D01*
X208444Y194569D01*
Y204285D01*
X209522Y205363D01*
Y210595D01*
G01X235395D02*
X235372Y210571D01*
Y208152D01*
X234523Y207303D01*
X229322D01*
X223923Y201905D01*
Y191241D01*
X227603Y187562D01*
X228685D01*
X229623Y186624D01*
Y183565D01*
X229034Y182976D01*
G01X236395Y210595D02*
Y210552D01*
X236136Y210293D01*
Y207870D01*
X234830Y206563D01*
X229629D01*
X224664Y201598D01*
Y191548D01*
X227910Y188302D01*
X228992D01*
X230364Y186931D01*
Y185602D01*
X230897Y185068D01*
X233040D01*
X233281Y184828D01*
Y184523D01*
X231634Y182876D01*
G01X245779Y144626D02*
X242776Y147628D01*
Y152699D01*
X244132Y154055D01*
X245458D01*
X245779Y154376D01*
G54D14*
G01X238112Y180932D02*
X246373Y189193D01*
X255321D01*
X256546Y190418D01*
X280095D01*
X282111Y192434D01*
G01X214734Y170185D02*
Y166676D01*
G01X186257Y151564D02*
Y154550D01*
G01Y148580D02*
Y151564D01*
G01Y154550D02*
X186034Y154773D01*
Y156776D01*
G01X305651Y368426D02*
X308063D01*
X310816Y371179D01*
Y382238D01*
X306515Y386539D01*
X79331Y243550D03*
Y227805D03*
Y229774D03*
X97537Y247978D03*
X85727Y223372D03*
X103937Y237646D03*
Y225837D03*
Y229774D03*
X101471Y223372D03*
X103937Y227805D03*
G54D24*
G01X279971Y270262D02*
X280601Y269633D01*
Y263264D01*
X274893Y257556D01*
Y257533D01*
X274423Y257063D01*
X249261D01*
X243161Y250964D01*
Y220436D01*
X242641Y219916D01*
X237132D01*
X233514Y216298D01*
X231866D01*
X230999Y217165D01*
Y217741D01*
X231934Y218676D01*
G01D02*
X230884Y219726D01*
Y221659D01*
X229990Y222552D01*
X226637D01*
X224980Y220896D01*
Y218427D01*
X226033Y217374D01*
Y213507D01*
X223121Y210595D01*
G01X282171Y270262D02*
X281551Y269642D01*
Y262800D01*
X275867Y257116D01*
X275819D01*
X274816Y256113D01*
X249654D01*
X244111Y250570D01*
Y220042D01*
X242985Y218916D01*
X237476D01*
X233908Y215348D01*
X231472D01*
X229884Y216936D01*
Y217726D01*
X228834Y218776D01*
G01D02*
X229884Y219826D01*
Y221244D01*
X229526Y221602D01*
X227101D01*
X226118Y220619D01*
Y218704D01*
X226983Y217839D01*
Y213042D01*
X224535Y210595D01*
G01X189845Y212428D02*
X190934Y211257D01*
X190917Y210788D01*
Y210595D01*
G01X193054Y212312D02*
X191884Y211223D01*
X191867Y210771D01*
Y210595D01*
G01X199414D02*
Y238635D01*
X204160Y243381D01*
X215472D01*
X218332Y246241D01*
X224441D01*
X225141Y246942D01*
Y248423D01*
X224352Y249212D01*
G01X200364Y210595D02*
Y238171D01*
X204574Y242381D01*
X215886D01*
X218747Y245241D01*
X224855D01*
X226141Y246527D01*
Y246606D01*
X226142Y246606D01*
Y248312D01*
X226990Y249160D01*
G01X208229Y238490D02*
X207695Y239024D01*
X205063D01*
X202999Y236960D01*
Y210595D01*
G01X208229Y240690D02*
X207615Y240076D01*
X204772D01*
X202049Y237353D01*
Y210595D01*
G01X197879Y234130D02*
X195459D01*
X194989Y233660D01*
Y226022D01*
X197209Y223802D01*
Y210595D01*
G01X191150Y234129D02*
X193569D01*
X194039Y233659D01*
Y225628D01*
X196259Y223408D01*
Y210595D01*
G01X237628Y259367D02*
X238278Y258717D01*
Y255418D01*
X236894Y254035D01*
X209635D01*
X205824Y250224D01*
X195866D01*
X179266Y233623D01*
X176759D01*
X174027Y230891D01*
Y229402D01*
X173453Y228828D01*
G01X239928Y259367D02*
X239278Y258717D01*
Y255004D01*
X237309Y253035D01*
X210049D01*
X206238Y249224D01*
X196210D01*
X179609Y232623D01*
X177173D01*
X175027Y230477D01*
Y229478D01*
X175703Y228802D01*
G01X212146Y227214D02*
X211427Y227934D01*
Y237324D01*
X213482Y239379D01*
X216144D01*
X219437Y242673D01*
X227092D01*
X232253Y247834D01*
X234537D01*
X235322Y247049D01*
G01X209757Y227266D02*
X210477Y227986D01*
Y237718D01*
X213088Y240329D01*
X215693D01*
X219037Y243673D01*
X226480D01*
X231591Y248784D01*
X234384D01*
X235219Y249618D01*
G01X304838Y305888D02*
X305438Y306488D01*
X308087D01*
X309544Y307946D01*
Y310328D01*
X307867Y312006D01*
X304350D01*
X300177Y316179D01*
X266520D01*
X257294Y306953D01*
X249442D01*
X235055Y292566D01*
X233336D01*
X232496Y293406D01*
G01X304838Y308088D02*
X305438Y307488D01*
X307744D01*
X308594Y308339D01*
Y309935D01*
X307474Y311056D01*
X303957D01*
X299834Y315179D01*
X266934D01*
X266324Y314568D01*
Y313738D01*
X265113Y312527D01*
X264283D01*
X263651Y311896D01*
Y311242D01*
X262948Y310539D01*
X262294D01*
X261465Y309709D01*
Y309005D01*
X260811Y308352D01*
X260108D01*
X260107Y308352D01*
X257708Y305953D01*
X249857D01*
X248730Y304826D01*
Y303995D01*
X248032Y303297D01*
X247201D01*
X246250Y302346D01*
Y301381D01*
X245451Y300582D01*
X244486D01*
X243687Y299783D01*
Y298700D01*
X242846Y297859D01*
X241763D01*
X240812Y296908D01*
Y295735D01*
X239957Y294881D01*
X238785D01*
X237806Y293902D01*
Y292920D01*
X237261Y292375D01*
X236279D01*
X235470Y291566D01*
X233086D01*
X232496Y290976D01*
G01X297790Y277810D02*
X298486Y277113D01*
Y258598D01*
X296705Y256817D01*
Y252078D01*
X299704Y249080D01*
X301638D01*
X302108Y248610D01*
Y247146D01*
X301313Y246351D01*
X299431D01*
X298831Y246951D01*
G01X299990Y277810D02*
X299486Y277306D01*
Y258184D01*
X297655Y256352D01*
Y252543D01*
X300118Y250080D01*
X302052D01*
X303108Y249024D01*
Y246732D01*
X301727Y245351D01*
X299431D01*
X298831Y244751D01*
G01X246425Y268058D02*
X246970Y268603D01*
Y279248D01*
X248446Y280724D01*
Y294652D01*
X250318Y296524D01*
X252288D01*
X253042Y297278D01*
G01X248425Y268058D02*
X247920Y268564D01*
Y278854D01*
X249396Y280330D01*
Y294258D01*
X250712Y295574D01*
X252178D01*
X252880Y294872D01*
G54D15*
G01X28323Y187558D02*
Y187212D01*
X27538Y186428D01*
Y142588D01*
X18790Y133840D01*
Y97999D01*
X25811Y90978D01*
X46777D01*
X61586Y76169D01*
Y50570D01*
X87967Y24188D01*
X93352D01*
X102661Y14879D01*
X111142Y6397D01*
G01X81119Y168821D02*
X81068D01*
X80265Y168018D01*
Y152628D01*
X78440Y150804D01*
Y122479D01*
X78441Y122479D01*
X78440Y121913D01*
Y114924D01*
X80945Y112419D01*
Y77566D01*
X66005Y62625D01*
Y47929D01*
X82558Y31376D01*
X102040D01*
X113789Y19627D01*
X139604D01*
X142798Y16433D01*
Y5676D01*
X144802Y3672D01*
X303972D01*
X312010Y11709D01*
Y27639D01*
X324148Y39776D01*
Y49364D01*
G01X22110Y174335D02*
Y172328D01*
X18808Y169025D01*
Y165107D01*
X20407Y163508D01*
Y142558D01*
X17584Y139735D01*
Y95598D01*
X26116Y87066D01*
X48568D01*
X60370Y75264D01*
X60370Y50104D01*
X87824Y22651D01*
X91161D01*
X111061Y2751D01*
X304783D01*
X305372Y3340D01*
Y3348D01*
X313232Y11208D01*
Y27424D01*
X325834Y40025D01*
Y54802D01*
X342689Y71657D01*
Y111956D01*
X345088Y114355D01*
X346462D01*
X346862Y114755D01*
Y293399D01*
X343600Y296661D01*
X341393Y298868D01*
X338866D01*
X336563Y301171D01*
X331119D01*
G01X125753Y164560D02*
Y159795D01*
X124442Y158484D01*
Y154389D01*
X125253Y153578D01*
Y150495D01*
X124071Y149314D01*
Y139396D01*
X123403Y138728D01*
Y136056D01*
X124354Y135105D01*
Y132176D01*
X122967Y130789D01*
Y127140D01*
X125870Y124237D01*
Y119818D01*
X122221Y116169D01*
X105469D01*
X101461Y112161D01*
Y85544D01*
X86765Y70847D01*
Y56293D01*
X84434Y53963D01*
G01X25457Y132563D02*
X21094Y128200D01*
Y102737D01*
X24921Y98909D01*
X30972D01*
X34127Y102064D01*
G01D02*
X35827D01*
X35982Y101909D01*
X49375D01*
X63117Y115651D01*
X65744D01*
G01X32636Y111837D02*
X36008Y115209D01*
Y117875D01*
X47489Y129356D01*
X49143D01*
G01X159654Y13844D02*
X154068Y19430D01*
X144035D01*
X142038Y21427D01*
X117104D01*
X106284Y32247D01*
Y58475D01*
X104843Y59916D01*
Y76289D01*
X103464Y77669D01*
Y77771D01*
X103464Y79082D01*
X103464Y111057D01*
X107419Y115012D01*
X107692D01*
X107744Y115064D01*
X122527D01*
X127025Y119562D01*
Y125715D01*
X124830Y127910D01*
Y127949D01*
X124567Y128212D01*
Y130283D01*
X126557Y132272D01*
Y135874D01*
X125355Y137076D01*
G01X255937Y322237D02*
X255090D01*
X254122Y323204D01*
X246344D01*
X244600Y324948D01*
X232006D01*
X231576Y325378D01*
Y325388D01*
X231064Y325900D01*
X213097D01*
X212049Y324852D01*
Y324810D01*
X203123Y315884D01*
X197795D01*
X193839Y311928D01*
X188851D01*
X174134Y297212D01*
Y273936D01*
X171989Y271791D01*
X168996D01*
X166491Y269286D01*
Y263141D01*
X162100Y258750D01*
X158599D01*
X155938Y256089D01*
Y249120D01*
X154196Y247378D01*
Y238907D01*
X149131Y233842D01*
Y229632D01*
X140875Y221376D01*
X133857D01*
X131620Y221376D01*
X131093Y220849D01*
X128687Y218443D01*
X108507D01*
X96998Y206934D01*
X84061D01*
X82690Y205563D01*
Y182089D01*
X89418Y175361D01*
Y161358D01*
X91152Y159624D01*
X94812D01*
X95044Y159392D01*
X99030Y155406D01*
Y148401D01*
X107012Y140420D01*
G01X122150Y134593D02*
X120184Y136559D01*
X108610D01*
X98130Y147038D01*
Y154291D01*
X98130Y155034D01*
X94439Y158724D01*
X90780D01*
X88518Y160985D01*
Y174988D01*
X81790Y181716D01*
Y205936D01*
X83743Y207888D01*
X96680D01*
X107607Y218816D01*
X108134Y219343D01*
X128314D01*
X130193Y221221D01*
Y221222D01*
X131247Y222276D01*
X134229D01*
X134230Y222276D01*
X140502D01*
X143095Y224868D01*
Y229269D01*
X153264Y239438D01*
Y247718D01*
X155038Y249492D01*
Y256524D01*
X158164Y259650D01*
X161650D01*
X165591Y263591D01*
Y269659D01*
X168623Y272691D01*
X171418D01*
X173234Y274508D01*
Y297584D01*
X188478Y312828D01*
X193466D01*
X197422Y316784D01*
X197567D01*
X197567Y316785D01*
X202515D01*
X212552Y326822D01*
X231830D01*
X232645Y326006D01*
X244882D01*
X246744Y324143D01*
X255253D01*
X255303Y324193D01*
G01X114874Y119925D02*
X96330Y138469D01*
Y141492D01*
X94166Y143656D01*
Y147614D01*
X95767Y149216D01*
Y154536D01*
X93633Y156670D01*
X84226D01*
X82160Y158736D01*
X81375Y159521D01*
Y166122D01*
X83688Y168436D01*
Y177272D01*
X80518Y180443D01*
X80517D01*
X79990Y180970D01*
Y206681D01*
X83210Y209901D01*
X92988D01*
X95602Y212514D01*
X98160D01*
X106788Y221143D01*
X127569D01*
X128393Y221967D01*
X130502Y224076D01*
X130905Y224479D01*
X135686D01*
X136086Y224879D01*
Y229430D01*
X138535Y231879D01*
X142696D01*
X151295Y240478D01*
Y248294D01*
X153109Y250108D01*
Y257453D01*
X156764Y261108D01*
Y265168D01*
X165087Y273491D01*
Y291084D01*
X171434Y297432D01*
Y298330D01*
X188022Y314918D01*
X193010D01*
X196677Y318584D01*
X196821D01*
X196822Y318585D01*
X201392D01*
X213974Y331167D01*
X228964D01*
X232204Y334407D01*
X247436D01*
X249846Y336817D01*
X260926D01*
X261708Y336036D01*
Y336024D01*
G01X173909Y167549D02*
X171404Y170054D01*
X155564D01*
X147719Y162209D01*
X144716D01*
X144323Y162602D01*
X138350D01*
X135493Y159745D01*
Y153701D01*
X132022Y150230D01*
Y140013D01*
X129992Y137983D01*
Y132809D01*
X132088Y130713D01*
Y120234D01*
X122469Y110615D01*
X120340D01*
X119940Y111015D01*
Y111860D01*
X119540Y112260D01*
X118740D01*
X118340Y111860D01*
Y111015D01*
X117940Y110615D01*
X117140D01*
X116740Y111015D01*
Y111860D01*
X116340Y112260D01*
X115540D01*
X115140Y111860D01*
Y111015D01*
X114740Y110615D01*
X113940D01*
X113540Y111015D01*
Y111860D01*
X113140Y112260D01*
X112340D01*
X111940Y111860D01*
Y111015D01*
X111540Y110615D01*
X108148D01*
X107266Y109733D01*
Y78736D01*
X108270Y77733D01*
Y61827D01*
X110289Y59808D01*
X114266D01*
G01X168309Y163716D02*
X166918Y165108D01*
X164497D01*
X163731Y164342D01*
Y163100D01*
X162737Y162106D01*
X153791D01*
X149339Y157654D01*
Y155723D01*
X145513Y151898D01*
X142652D01*
X142252Y151498D01*
Y151474D01*
X141315Y150536D01*
X140598D01*
X136868Y146807D01*
Y105826D01*
X134670Y103627D01*
X115856D01*
X113413Y101184D01*
Y69413D01*
X115641Y67185D01*
X127068D01*
X127932Y66321D01*
Y64163D01*
X127264Y63495D01*
X121252D01*
X120378Y62621D01*
Y54249D01*
X118940Y52810D01*
X115024D01*
X114009Y51795D01*
Y49616D01*
X114026Y49599D01*
Y48273D01*
X112637Y46884D01*
G01X102911Y69478D02*
Y52922D01*
X104349Y51484D01*
G01X171109Y167549D02*
X169907Y166347D01*
X169734D01*
X169344Y165956D01*
X154287D01*
X148130Y159800D01*
X143108D01*
X139053Y155745D01*
Y152800D01*
X139052Y152799D01*
Y152086D01*
X135755Y148789D01*
Y110945D01*
X130492Y105682D01*
X112054D01*
X110942Y104571D01*
Y88211D01*
X111342Y87811D01*
X112113D01*
X112513Y87411D01*
Y86611D01*
X112113Y86211D01*
X111342D01*
X110942Y85811D01*
Y85011D01*
X111342Y84611D01*
X112113D01*
X112513Y84211D01*
Y83411D01*
X112113Y83011D01*
X111342D01*
X110942Y82611D01*
Y81811D01*
X111342Y81411D01*
X112113D01*
X112513Y81011D01*
Y80211D01*
X112113Y79811D01*
X111342D01*
X110942Y79411D01*
Y73150D01*
X110924Y73132D01*
Y71432D01*
G01X110476Y48193D02*
X112426Y50144D01*
Y50636D01*
X112431Y50641D01*
Y52111D01*
X114200Y53880D01*
X117573D01*
X119112Y55420D01*
Y62441D01*
X112513Y69040D01*
Y69844D01*
X110924Y71432D01*
G01X110532Y66979D02*
X111734Y65777D01*
Y65747D01*
X116248Y61233D01*
Y59498D01*
X114332Y57582D01*
X113644D01*
X112629Y56567D01*
G01X89796Y102074D02*
Y119141D01*
X91038Y120383D01*
Y143365D01*
X88963Y145441D01*
Y153722D01*
G01X110385Y44214D02*
X110462Y44137D01*
Y41580D01*
X114675Y37366D01*
X121561D01*
X138621Y54426D01*
Y71098D01*
X146038Y78515D01*
Y80249D01*
X151840Y86051D01*
Y87788D01*
X151839Y87789D01*
Y91263D01*
X142834Y100268D01*
Y133452D01*
X148425Y139011D01*
Y142253D01*
X151096Y144924D01*
Y151858D01*
X154844Y155606D01*
X169166D01*
X170712Y157152D01*
Y159901D01*
G01X115543Y56173D02*
X117148Y57777D01*
Y63133D01*
X111468Y68812D01*
X110138D01*
X109324Y69626D01*
Y82335D01*
X108924Y82735D01*
X108566D01*
X108166Y83135D01*
Y83935D01*
X108566Y84335D01*
X108924D01*
X109324Y84735D01*
Y85535D01*
X108924Y85935D01*
X108566D01*
X108166Y86335D01*
Y87135D01*
X108566Y87535D01*
X108924D01*
X109324Y87935D01*
Y88735D01*
X108924Y89135D01*
X108566D01*
X108166Y89535D01*
Y90335D01*
X108566Y90735D01*
X108924D01*
X109324Y91135D01*
Y91935D01*
X108924Y92335D01*
X108566D01*
X108166Y92735D01*
Y93535D01*
X108566Y93935D01*
X108924D01*
X109324Y94335D01*
Y95135D01*
X108924Y95535D01*
X108566D01*
X108166Y95935D01*
Y96735D01*
X108566Y97135D01*
X108924D01*
X109324Y97535D01*
Y98335D01*
X108924Y98735D01*
X108566D01*
X108166Y99135D01*
Y99935D01*
X108566Y100335D01*
X108924D01*
X109324Y100735D01*
Y101535D01*
X108924Y101935D01*
X108566D01*
X108166Y102335D01*
Y103135D01*
X108566Y103535D01*
X108924D01*
X109324Y103935D01*
Y106036D01*
X110718Y107430D01*
X112876D01*
X113276Y107830D01*
Y108366D01*
X113676Y108766D01*
X114476D01*
X114876Y108366D01*
Y107830D01*
X115276Y107430D01*
X116076D01*
X116476Y107830D01*
Y108366D01*
X116876Y108766D01*
X117676D01*
X118076Y108366D01*
Y107830D01*
X118476Y107430D01*
X119276D01*
X119676Y107830D01*
Y108366D01*
X120076Y108766D01*
X120876D01*
X121276Y108366D01*
Y107830D01*
X121676Y107430D01*
X122476D01*
X122876Y107830D01*
Y108366D01*
X123276Y108766D01*
X124076D01*
X124476Y108366D01*
Y107830D01*
X124876Y107430D01*
X125898D01*
X133987Y115519D01*
Y149313D01*
X137032Y152358D01*
Y155064D01*
X142683Y160714D01*
X147690D01*
X155970Y168994D01*
X166863D01*
X168309Y167549D01*
G01X259461Y334484D02*
X257068D01*
X251382Y328798D01*
X242167D01*
X240562Y330402D01*
X231605D01*
X228994Y327792D01*
X212018D01*
X201912Y317685D01*
X197194D01*
X197194Y317684D01*
X197050D01*
X193177Y313812D01*
X188189D01*
X172334Y297957D01*
Y297059D01*
X165987Y290711D01*
Y273118D01*
X157664Y264796D01*
Y260650D01*
X154138Y257124D01*
Y249865D01*
X152331Y248058D01*
Y240141D01*
X142055Y229865D01*
Y225102D01*
X140129Y223176D01*
X134602D01*
X130874Y223176D01*
X129293Y221594D01*
X127942Y220243D01*
X107761D01*
X106707Y219189D01*
X96394Y208876D01*
X83458D01*
X80890Y206308D01*
Y181343D01*
X84588Y177645D01*
Y168000D01*
X82275Y165686D01*
Y159894D01*
X84599Y157570D01*
X94006D01*
X97230Y154346D01*
Y146665D01*
X97230Y146502D01*
X99509Y144222D01*
Y139530D01*
X118908Y120132D01*
G01X94010Y153727D02*
X92160Y151876D01*
Y138234D01*
X94767Y135627D01*
Y131073D01*
X95802Y130038D01*
Y129997D01*
X96920Y128880D01*
Y102429D01*
X94290Y99800D01*
Y99551D01*
G01X72960Y116719D02*
Y116726D01*
X70366Y119320D01*
Y132038D01*
X63130Y139273D01*
Y151174D01*
G01X123031Y177370D02*
X120781D01*
X118046Y180106D01*
Y181314D01*
X115013Y184346D01*
X113588D01*
X109029Y188906D01*
Y192515D01*
X106480Y195064D01*
Y199664D01*
X106486Y199670D01*
Y199963D01*
X110498Y203976D01*
X113409D01*
X121576Y212143D01*
X131297D01*
X134230Y215076D01*
X143484D01*
X154865Y226456D01*
X154873D01*
X154890Y226473D01*
X155257D01*
X155284Y226500D01*
X160966D01*
X163044Y228577D01*
Y235286D01*
X165048Y237291D01*
Y250361D01*
X192359Y277672D01*
X197837D01*
X220343Y300178D01*
Y302890D01*
X225364Y307912D01*
Y311664D01*
X224312Y312715D01*
X222913D01*
G01X122363Y179374D02*
X120050D01*
X118946Y180478D01*
Y181686D01*
X114565Y186067D01*
Y192770D01*
X112829Y194506D01*
X110043D01*
X109298Y194506D01*
X107511Y196293D01*
Y199716D01*
X110871Y203076D01*
X115328D01*
X115855Y202549D01*
X118674D01*
X126322Y210197D01*
X138734D01*
X140612Y212076D01*
X141707D01*
X141792Y212111D01*
X155237Y225556D01*
X155246D01*
X155263Y225573D01*
X161798D01*
X163944Y227718D01*
Y234671D01*
X165948Y236675D01*
Y248075D01*
X170242Y252370D01*
X176338D01*
X184305Y260337D01*
Y264804D01*
X196112Y276610D01*
X198048D01*
X221243Y299805D01*
Y301338D01*
X228742Y308837D01*
Y309948D01*
X231508Y312714D01*
X236801D01*
X237580Y311934D01*
G01X76658Y158654D02*
Y165559D01*
X71144Y171072D01*
X49606D01*
X45574Y175104D01*
Y195175D01*
X47874Y197474D01*
X51989D01*
G01X208989Y308839D02*
X208912Y308761D01*
X206597D01*
X198518Y300682D01*
Y288260D01*
X162348Y252090D01*
Y238742D01*
X152731Y229125D01*
Y228141D01*
X142366Y217776D01*
X133111D01*
X130178Y214843D01*
X117528D01*
X113969Y211283D01*
X111402D01*
X109759Y209640D01*
X103780Y203661D01*
Y194218D01*
X103780Y193945D01*
X106264Y191462D01*
Y187853D01*
X111598Y182519D01*
Y179928D01*
X113005Y178521D01*
X115318D01*
X116816Y177024D01*
Y169580D01*
X120277Y166118D01*
X122188D01*
X122222Y166084D01*
X123822D01*
G01X235547Y322036D02*
X227243D01*
X221614Y316407D01*
X208570D01*
X195777Y303614D01*
X187625D01*
X182600Y298589D01*
Y273810D01*
X161448Y252658D01*
Y239138D01*
X151831Y229521D01*
Y228513D01*
X141993Y218676D01*
X132738D01*
X129806Y215743D01*
X109773D01*
X106880Y212850D01*
Y209634D01*
X102880Y205634D01*
Y194218D01*
X102881Y193572D01*
X105364Y191089D01*
Y187480D01*
X110698Y182146D01*
Y179466D01*
X112594Y177570D01*
X114702D01*
X115839Y176433D01*
Y169273D01*
X120536Y164576D01*
X124037D01*
X124053Y164560D01*
X125753D01*
G01X121181Y175828D02*
X120833D01*
X117146Y179516D01*
Y180941D01*
X114768Y183319D01*
X113343D01*
X108129Y188533D01*
Y192142D01*
X105580Y194691D01*
Y200037D01*
X105586Y200042D01*
Y202921D01*
X112148Y209483D01*
X115283D01*
X118843Y213043D01*
X130924D01*
X133857Y215976D01*
X143112D01*
X154531Y227395D01*
Y228283D01*
X164148Y237900D01*
Y250745D01*
X198236Y284834D01*
X201194D01*
X216213Y299853D01*
Y300781D01*
G01X235094Y311037D02*
Y310161D01*
X233305Y308372D01*
X229673D01*
X222143Y300842D01*
Y299432D01*
X197961Y275251D01*
X196025D01*
X185205Y264431D01*
Y259964D01*
X176710Y251470D01*
X170615D01*
X166848Y247702D01*
Y236207D01*
X164844Y234203D01*
Y227345D01*
X162171Y224673D01*
X155636D01*
X144751Y213788D01*
Y210595D01*
G01X144627Y210470D02*
X143226Y209068D01*
X126588D01*
X119130Y201611D01*
X115520D01*
X114956Y202176D01*
X111655D01*
X108537Y199058D01*
Y196540D01*
X109670Y195406D01*
X113364D01*
X119494Y189277D01*
Y182500D01*
X120872Y181121D01*
G01X96488Y162762D02*
X97618Y163892D01*
Y189608D01*
X100834Y192824D01*
Y208201D01*
X109275Y216643D01*
X129433D01*
X132366Y219576D01*
X133111D01*
X141620Y219576D01*
X150931Y228886D01*
Y229968D01*
X160548Y239585D01*
Y253031D01*
X181396Y273879D01*
Y298889D01*
X188187Y305680D01*
X192164D01*
G01X97537Y247978D02*
Y246428D01*
X90593Y239485D01*
Y228294D01*
X88640Y226341D01*
X82474D01*
X72582Y216449D01*
Y212955D01*
X71036Y211408D01*
X66164D01*
X59813Y217759D01*
X55567D01*
X51234Y213426D01*
G01X305669Y334046D02*
Y361555D01*
X300738Y366486D01*
X169211D01*
X163419Y372278D01*
X162674D01*
X162673Y372278D01*
X122508D01*
X112400Y382386D01*
X67672D01*
X49157Y363871D01*
Y294042D01*
X44678Y289563D01*
Y234178D01*
X41904Y231403D01*
Y208718D01*
X44000Y206622D01*
X55638D01*
X58015Y204245D01*
X60455D01*
X61021Y204245D01*
X73148D01*
G01X123530Y171584D02*
X119748D01*
X117912Y173419D01*
Y177288D01*
X115965Y179234D01*
Y180659D01*
X114359Y182265D01*
X113124D01*
X107164Y188226D01*
Y191835D01*
X104680Y194318D01*
Y200410D01*
X104686Y200415D01*
Y203294D01*
X110659Y209268D01*
X111775Y210383D01*
X114378D01*
X117937Y213943D01*
X130551D01*
X133484Y216876D01*
X142739D01*
X153631Y227768D01*
Y228678D01*
X163248Y238296D01*
Y251717D01*
X199814Y288282D01*
Y300631D01*
X206380Y307197D01*
X222560D01*
X223730Y308367D01*
Y310061D01*
X223694Y310096D01*
G01X30970Y153924D02*
X74192D01*
X79090Y158823D01*
Y205830D01*
X79090Y205831D01*
Y215852D01*
X81786Y218548D01*
X86038D01*
X87560Y220069D01*
X100300D01*
X102921Y222690D01*
Y224367D01*
X102487Y224801D01*
Y244150D01*
X106512Y248176D01*
X109734D01*
G01X284419Y169006D02*
X287748Y172334D01*
X297909D01*
X301808Y176233D01*
X310253D01*
X318248Y184228D01*
Y197526D01*
X324405Y203684D01*
Y213663D01*
X332823Y222081D01*
Y253092D01*
X323808Y262107D01*
Y323590D01*
X314394Y333005D01*
X309123D01*
X306751Y335377D01*
Y361746D01*
X301111Y367386D01*
X169584D01*
X163792Y373178D01*
X122880D01*
X112504Y383554D01*
X66406D01*
X48157Y365305D01*
Y294315D01*
X43778Y289936D01*
Y234550D01*
X41004Y231776D01*
Y208346D01*
X43627Y205722D01*
X54996D01*
X57450Y203268D01*
X71034D01*
X72094Y202208D01*
G01X70198Y206981D02*
X69737Y206520D01*
X62915D01*
X58100Y211336D01*
X50603D01*
X49536Y212403D01*
X46850D01*
X43704Y215550D01*
Y230657D01*
X46478Y233432D01*
Y288818D01*
X51085Y293424D01*
Y300747D01*
X51085Y300748D01*
Y363253D01*
X68244Y380413D01*
X109862D01*
X119796Y370478D01*
X162570D01*
X168362Y364686D01*
X299943D01*
X302798Y361831D01*
Y333381D01*
X305512Y330666D01*
X313507D01*
X321986Y322186D01*
Y260939D01*
X327803Y255122D01*
Y237305D01*
X327141Y236643D01*
Y219528D01*
X321570Y213957D01*
Y203394D01*
X314687Y196511D01*
Y184445D01*
X310669Y180426D01*
G01X49369Y210180D02*
X46466D01*
X42804Y213843D01*
Y231030D01*
X45578Y233805D01*
Y289190D01*
X50185Y293797D01*
Y363626D01*
X67922Y381363D01*
X110951D01*
X120935Y371378D01*
X163046D01*
X168838Y365586D01*
X300317D01*
X303894Y362008D01*
Y333557D01*
X305885Y331566D01*
X313880D01*
X322908Y322538D01*
Y261469D01*
X328978Y255399D01*
Y236738D01*
X328081Y235841D01*
Y218919D01*
X323393Y214231D01*
Y203944D01*
X316023Y196574D01*
Y183401D01*
X310213Y177591D01*
X301162D01*
X296882Y173310D01*
X286805D01*
X283470Y169976D01*
X267764D01*
X265139Y167351D01*
X246906D01*
X245715Y166160D01*
X230784D01*
X229943Y167001D01*
Y168885D01*
X234178Y173120D01*
Y175099D01*
G01X72582Y206711D02*
X71092Y205221D01*
X62942D01*
X57986Y210177D01*
X49373D01*
X49369Y210180D01*
G01X195135Y305298D02*
Y305868D01*
X193784Y307219D01*
X188453D01*
X180496Y299262D01*
Y274555D01*
X159648Y253707D01*
Y239980D01*
X150031Y230363D01*
Y229259D01*
X141248Y220476D01*
X133484D01*
X131993Y220476D01*
X129060Y217543D01*
X108880D01*
X99498Y208161D01*
Y192906D01*
X95589Y188997D01*
Y166872D01*
G01X147217Y242282D02*
X144159Y245340D01*
G01X22437Y194000D02*
X24713D01*
X31518Y200804D01*
X52412D01*
X57457Y195759D01*
X75453D01*
X78190Y198496D01*
Y205458D01*
X78190Y216225D01*
X81414Y219448D01*
X85512D01*
X87266Y221202D01*
X99383D01*
X101471Y223290D01*
Y223372D01*
G01X109879Y256000D02*
X109555Y255676D01*
X108469D01*
G01X46447Y360389D02*
X47069Y359767D01*
Y294500D01*
X42846Y290277D01*
Y257747D01*
X41966Y256866D01*
X41914D01*
X33028Y247980D01*
Y237799D01*
G01X101073Y152712D02*
Y155778D01*
X99214Y157637D01*
Y189657D01*
X101132Y191574D01*
X101144D01*
X101766Y192196D01*
Y207013D01*
X105244Y210490D01*
G01X44310Y170829D02*
X38708D01*
X37041Y169162D01*
X36040D01*
G01X40735Y160439D02*
X42964Y162667D01*
X49866D01*
X52448Y165249D01*
G01X207545Y372531D02*
X199333D01*
X197100Y374764D01*
Y381198D01*
X190268Y388030D01*
X112949D01*
X108764Y392215D01*
X69022D01*
X39451Y362644D01*
X25088D01*
X15322Y352878D01*
Y322742D01*
X7020Y314440D01*
Y299582D01*
G01X9985Y299791D02*
Y314684D01*
X16298Y320998D01*
Y352581D01*
X25461Y361744D01*
X40156D01*
X69601Y391189D01*
X108176D01*
X112286Y387080D01*
X189667D01*
X196063Y380683D01*
Y372532D01*
G01X6810Y291040D02*
Y292818D01*
X11649Y297657D01*
Y313524D01*
X17259Y319134D01*
Y337832D01*
X20570Y341142D01*
Y354135D01*
X26896Y360462D01*
X41090D01*
X65441Y384814D01*
X168450D01*
X172183Y381081D01*
X181994D01*
X185540Y377535D01*
Y371576D01*
G01X175492Y22524D02*
X171470D01*
G01X161919Y101788D02*
Y80227D01*
X158132Y76440D01*
Y22013D01*
X170221Y9924D01*
X204573D01*
X206924Y7573D01*
X302783D01*
X308410Y13200D01*
Y29130D01*
X320004Y40724D01*
Y46298D01*
X318770Y47531D01*
Y53056D01*
X331337Y65623D01*
Y160169D01*
X325119Y166386D01*
Y191848D01*
X336799Y203528D01*
Y278928D01*
X333159Y282568D01*
X327818D01*
X326907Y283480D01*
Y289245D01*
X327537Y289875D01*
G01X331290Y288266D02*
X331357Y288333D01*
X333268D01*
X340129Y281472D01*
Y200705D01*
X334702Y195278D01*
Y187904D01*
X340766Y181840D01*
Y167658D01*
X334266Y161158D01*
Y64734D01*
X321470Y51938D01*
Y48649D01*
X322704Y47416D01*
Y39605D01*
X311110Y28012D01*
Y12082D01*
X303787Y4759D01*
X205919D01*
X203535Y7143D01*
X169183D01*
X155432Y20895D01*
Y77850D01*
X158184Y80603D01*
Y101788D01*
G01X327830Y299733D02*
Y293784D01*
X329526Y292088D01*
Y287220D01*
X330681Y286064D01*
X334098D01*
X339115Y281048D01*
Y200964D01*
X333802Y195651D01*
Y187531D01*
X339866Y181468D01*
Y168031D01*
X333366Y161531D01*
Y65106D01*
X320570Y52311D01*
Y48276D01*
X321804Y47043D01*
Y39978D01*
X310210Y28384D01*
Y12455D01*
X303528Y5773D01*
X206178D01*
X203827Y8124D01*
X169475D01*
X156332Y21268D01*
Y77477D01*
X159457Y80603D01*
Y101788D01*
G01X160646D02*
Y80495D01*
X157232Y77081D01*
Y21640D01*
X169848Y9024D01*
X204200D01*
X206551Y6673D01*
X303156D01*
X309310Y12828D01*
Y28757D01*
X320904Y40351D01*
Y46670D01*
X319670Y47904D01*
Y52684D01*
X332237Y65250D01*
Y160542D01*
X326019Y166759D01*
Y191143D01*
X337934Y203058D01*
Y280276D01*
X333046Y285164D01*
X329018D01*
X328542Y285640D01*
G01X203220Y124679D02*
X204570Y126029D01*
X208112Y126029D01*
X212568Y121573D01*
Y110573D01*
X214068Y109073D01*
Y90073D01*
X201068Y77073D01*
Y56073D01*
X199568Y54573D01*
Y42073D01*
X198568Y41073D01*
X195068D01*
X194068Y42073D01*
Y43573D01*
X193068Y44573D01*
X184568D01*
X183443Y45698D01*
Y47624D01*
X183442Y47624D01*
Y49224D01*
G01X226323Y116279D02*
X227222Y115380D01*
X227223D01*
X227673Y114929D01*
Y108679D01*
G01X216268Y37073D02*
X216068Y37073D01*
G01X264642Y52374D02*
X263511Y53505D01*
Y53506D01*
X263143Y53874D01*
X257793D01*
X256993Y54674D01*
Y54752D01*
X256843Y54903D01*
Y70335D01*
X251068Y76110D01*
Y76773D01*
X251536Y77241D01*
X252099D01*
X252568Y77710D01*
Y78373D01*
X252099Y78841D01*
X251536D01*
X251068Y79310D01*
Y79973D01*
X251536Y80441D01*
X252099D01*
X252568Y80910D01*
Y81573D01*
X252099Y82041D01*
X251536D01*
X251068Y82510D01*
Y83173D01*
X251536Y83641D01*
X252099D01*
X252568Y84110D01*
Y84773D01*
X252099Y85241D01*
X251536D01*
X251068Y85710D01*
Y86373D01*
X251536Y86841D01*
X252099D01*
X252568Y87310D01*
Y87973D01*
X252099Y88441D01*
X251536D01*
X251068Y88910D01*
Y89573D01*
X251536Y90041D01*
X252099D01*
X252568Y90510D01*
Y91173D01*
X252099Y91641D01*
X251536D01*
X251068Y92110D01*
Y92773D01*
X251536Y93241D01*
X252099D01*
X252568Y93710D01*
Y94373D01*
X252099Y94841D01*
X251536D01*
X251068Y95310D01*
Y95973D01*
X251536Y96441D01*
X252099D01*
X252568Y96910D01*
Y97573D01*
X252099Y98041D01*
X251536D01*
X251068Y98510D01*
Y99173D01*
X251536Y99641D01*
X252099D01*
X252568Y100110D01*
Y100773D01*
X252099Y101241D01*
X251536D01*
X251068Y101710D01*
Y102373D01*
X251536Y102841D01*
X252099D01*
X252568Y103310D01*
Y103973D01*
X252099Y104441D01*
X251536D01*
X251068Y104910D01*
Y105573D01*
X251536Y106041D01*
X252099D01*
X252568Y106510D01*
Y107173D01*
X252099Y107641D01*
X251536D01*
X251068Y108110D01*
Y108773D01*
X251536Y109241D01*
X252099D01*
X252568Y109710D01*
Y110573D01*
X246344Y116797D01*
X245120D01*
X244068Y117849D01*
Y120573D01*
X237923Y126717D01*
X234423D01*
X232825Y128316D01*
Y131716D01*
X231424Y133117D01*
G01X270943Y49224D02*
X269443Y50724D01*
X251421D01*
X248417Y50724D01*
X240568Y58573D01*
Y72718D01*
X241036Y73186D01*
X241599D01*
X242068Y73655D01*
Y74318D01*
X241599Y74786D01*
X241036D01*
X240568Y75255D01*
Y75918D01*
X241036Y76386D01*
X241599D01*
X242068Y76855D01*
Y77518D01*
X241599Y77986D01*
X241036D01*
X240568Y78455D01*
Y79118D01*
X241036Y79586D01*
X241599D01*
X242068Y80055D01*
Y80718D01*
X241599Y81186D01*
X241036D01*
X240568Y81655D01*
Y82318D01*
X241036Y82787D01*
X241599D01*
X242068Y83255D01*
Y83918D01*
X241599Y84386D01*
X241036D01*
X240568Y84855D01*
Y85518D01*
X241036Y85986D01*
X241599D01*
X242068Y86455D01*
Y87118D01*
X241599Y87587D01*
X241036D01*
X240568Y88055D01*
Y88718D01*
X241036Y89187D01*
X241599D01*
X242068Y89655D01*
Y90318D01*
X241599Y90787D01*
X241036D01*
X240568Y91255D01*
Y91918D01*
X241036Y92387D01*
X241599D01*
X242068Y92855D01*
Y93518D01*
X241599Y93987D01*
X241036D01*
X240568Y94455D01*
Y95118D01*
X241036Y95587D01*
X241599D01*
X242068Y96055D01*
Y96718D01*
X241599Y97187D01*
X241036D01*
X240568Y97655D01*
Y98318D01*
X241036Y98787D01*
X241599D01*
X242068Y99255D01*
Y99918D01*
X241599Y100387D01*
X241036D01*
X240568Y100855D01*
Y101518D01*
X241036Y101987D01*
X241599D01*
X242068Y102455D01*
Y103118D01*
X241599Y103587D01*
X241036D01*
X240568Y104055D01*
Y117073D01*
X237574Y120067D01*
X235074D01*
X231425Y123716D01*
Y125317D01*
G01X231424Y137024D02*
X232618Y135829D01*
Y134980D01*
X233018Y134580D01*
X240846D01*
X247568Y127857D01*
Y125951D01*
X248446Y125073D01*
X254568D01*
X255568Y124073D01*
Y122073D01*
X256568Y121073D01*
X259068D01*
X264568Y115573D01*
Y86602D01*
X264968Y86202D01*
X266197D01*
X266568Y85832D01*
Y85169D01*
X266099Y84701D01*
X265036D01*
X264568Y84232D01*
Y83569D01*
X265036Y83101D01*
X266099D01*
X266568Y82632D01*
Y81969D01*
X266099Y81501D01*
X265036D01*
X264568Y81032D01*
Y80369D01*
X265036Y79901D01*
X266099D01*
X266568Y79432D01*
Y78769D01*
X266099Y78301D01*
X265036D01*
X264568Y77832D01*
Y77169D01*
X265036Y76701D01*
X266099D01*
X266568Y76232D01*
Y75569D01*
X266099Y75101D01*
X265036D01*
X264568Y74632D01*
Y73969D01*
X265036Y73501D01*
X266099D01*
X266568Y73032D01*
Y72369D01*
X266099Y71901D01*
X265036D01*
X264568Y71432D01*
Y70769D01*
X265036Y70301D01*
X266099D01*
X266568Y69832D01*
Y68073D01*
X263068Y64573D01*
Y61824D01*
X262429Y61185D01*
X261493Y60249D01*
G01X203219Y119079D02*
X201574Y119079D01*
X200223Y117729D01*
X196723D01*
X194568Y115573D01*
X187044D01*
X186068Y114597D01*
Y109755D01*
X185599Y109287D01*
X185036D01*
X184568Y108818D01*
Y108155D01*
X185036Y107687D01*
X185599D01*
X186068Y107218D01*
Y106555D01*
X185599Y106087D01*
X185036D01*
X184568Y105618D01*
Y104955D01*
X185168Y104355D01*
Y102455D01*
X178068Y95355D01*
Y68073D01*
X179068Y67073D01*
Y64573D01*
X177892Y63397D01*
X176488D01*
X175568Y62476D01*
Y61073D01*
X174726Y60231D01*
X162986D01*
X161392Y61824D01*
G01X231425Y129217D02*
X229974Y130668D01*
Y137980D01*
X230568Y138573D01*
X248280D01*
X272568Y114285D01*
Y53899D01*
X274092Y52374D01*
G01X173992Y55524D02*
X175492Y54024D01*
X177617D01*
X178386Y53255D01*
Y53252D01*
X178642Y52995D01*
Y51902D01*
X179671Y50874D01*
X180914D01*
X181792Y51753D01*
Y51798D01*
X181942Y51948D01*
Y52996D01*
X182068Y53121D01*
Y53358D01*
X182734Y54024D01*
X184064D01*
X184942Y54903D01*
Y55114D01*
X185068Y55240D01*
Y56307D01*
X185834Y57073D01*
X194068D01*
X194568Y57573D01*
Y58614D01*
X194099Y59083D01*
X193536D01*
X193068Y59552D01*
Y60214D01*
X193536Y60683D01*
X194099D01*
X194568Y61152D01*
Y61814D01*
X194099Y62283D01*
X193536D01*
X193068Y62752D01*
Y63414D01*
X193536Y63883D01*
X194099D01*
X194568Y64352D01*
Y67573D01*
X194968Y67973D01*
X196122D01*
X196522Y68373D01*
Y69319D01*
X196122Y69719D01*
X195036D01*
X194568Y70188D01*
Y70850D01*
X195036Y71319D01*
X196099D01*
X196568Y71788D01*
Y72450D01*
X196099Y72919D01*
X195036D01*
X194568Y73388D01*
Y74050D01*
X195036Y74519D01*
X196099D01*
X196568Y74988D01*
Y75650D01*
X196099Y76119D01*
X195036D01*
X194568Y76588D01*
Y77250D01*
X195036Y77719D01*
X196099D01*
X196568Y78188D01*
Y78850D01*
X196099Y79319D01*
X195036D01*
X194568Y79788D01*
Y80450D01*
X195036Y80919D01*
X196099D01*
X196568Y81388D01*
Y82050D01*
X196099Y82519D01*
X194968D01*
X194568Y82919D01*
Y83573D01*
X207120Y96125D01*
Y98104D01*
X206651Y98572D01*
X206036D01*
X205568Y99041D01*
Y99704D01*
X206036Y100172D01*
X206651D01*
X207120Y100641D01*
Y101304D01*
X206651Y101772D01*
X206036D01*
X205568Y102241D01*
Y102904D01*
X206036Y103372D01*
X206651D01*
X207125Y103846D01*
Y111604D01*
X207120Y111610D01*
Y113479D01*
G01X225568Y123573D02*
X223062Y126079D01*
X221844D01*
X219094Y128829D01*
X216074D01*
X214624Y130279D01*
G01X177142Y64974D02*
X175972Y66145D01*
X174568Y67549D01*
Y71873D01*
X175036Y72342D01*
X176099D01*
X176568Y72810D01*
Y73473D01*
X176099Y73942D01*
X175036D01*
X174568Y74410D01*
Y75073D01*
X175036Y75542D01*
X176099D01*
X176568Y76010D01*
Y76673D01*
X176099Y77142D01*
X175036D01*
X174568Y77610D01*
Y78273D01*
X175036Y78742D01*
X176099D01*
X176568Y79210D01*
Y79873D01*
X176099Y80342D01*
X175036D01*
X174568Y80810D01*
Y81473D01*
X175036Y81942D01*
X176099D01*
X176568Y82410D01*
Y83073D01*
X176099Y83542D01*
X175036D01*
X174568Y84010D01*
Y84673D01*
X175036Y85142D01*
X176099D01*
X176568Y85610D01*
Y86273D01*
X176099Y86742D01*
X175036D01*
X174568Y87210D01*
Y87873D01*
X175036Y88342D01*
X176099D01*
X176568Y88810D01*
Y89473D01*
X176099Y89942D01*
X175036D01*
X174568Y90410D01*
Y91073D01*
X175036Y91542D01*
X176099D01*
X176568Y92010D01*
Y92673D01*
X176099Y93142D01*
X175036D01*
X174568Y93610D01*
Y94273D01*
X175036Y94742D01*
X176099D01*
X176568Y95210D01*
Y95873D01*
X176099Y96342D01*
X175036D01*
X174568Y96810D01*
Y97473D01*
X175036Y97942D01*
X176099D01*
X176568Y98410D01*
Y99073D01*
X176099Y99542D01*
X175036D01*
X174568Y100010D01*
Y100673D01*
X175036Y101142D01*
X176099D01*
X176568Y101610D01*
Y106573D01*
X178138Y108143D01*
X178704D01*
X179317Y107531D01*
X180370D01*
X180577Y107738D01*
Y108533D01*
X180037Y109073D01*
Y110666D01*
X186444Y117073D01*
X193068D01*
X196523Y120529D01*
X205769D01*
X206110Y120869D01*
Y120870D01*
X207120Y121880D01*
G01X223068Y108573D02*
X223824Y109330D01*
Y117678D01*
X222424Y119079D01*
G01X207120Y116279D02*
X208362Y116279D01*
X209568Y115073D01*
Y108073D01*
X208568Y107073D01*
Y89573D01*
X207931Y88937D01*
X207269D01*
X205431Y90774D01*
X204769D01*
X204300Y90305D01*
Y89642D01*
X206137Y87805D01*
Y87142D01*
X205669Y86674D01*
X205006D01*
X203169Y88511D01*
X202506D01*
X202037Y88042D01*
Y87380D01*
X203874Y85542D01*
Y84880D01*
X203406Y84411D01*
X202743D01*
X200906Y86248D01*
X200243D01*
X199774Y85780D01*
Y85117D01*
X201612Y83280D01*
Y82617D01*
X201143Y82148D01*
X200480D01*
X199034Y83595D01*
X198468D01*
X198068Y83195D01*
Y57073D01*
X195019Y54024D01*
X185817D01*
X185068Y53275D01*
Y51573D01*
X184219Y50724D01*
X182719D01*
X181568Y49573D01*
X178915D01*
X177764Y50724D01*
X177646D01*
X177143Y51228D01*
Y52374D01*
X177142Y52374D01*
G01X173992Y61824D02*
X172582Y63234D01*
Y63235D01*
X171068Y64749D01*
Y65349D01*
X171536Y65818D01*
X172099D01*
X172568Y66286D01*
Y66949D01*
X172099Y67418D01*
X171536D01*
X171068Y67886D01*
Y68549D01*
X171536Y69018D01*
X172099D01*
X172568Y69486D01*
Y70149D01*
X172099Y70618D01*
X171536D01*
X171068Y71086D01*
Y71749D01*
X171536Y72218D01*
X172099D01*
X172568Y72686D01*
Y73349D01*
X172099Y73818D01*
X171536D01*
X171068Y74286D01*
Y74949D01*
X171536Y75418D01*
X172099D01*
X172568Y75886D01*
Y76549D01*
X172099Y77018D01*
X171536D01*
X171068Y77486D01*
Y78149D01*
X171536Y78618D01*
X172099D01*
X172568Y79086D01*
Y79749D01*
X172099Y80218D01*
X171536D01*
X171068Y80686D01*
Y81349D01*
X171536Y81818D01*
X172099D01*
X172568Y82286D01*
Y82949D01*
X172099Y83418D01*
X171536D01*
X171068Y83886D01*
Y84549D01*
X171536Y85018D01*
X172099D01*
X172568Y85486D01*
Y86149D01*
X172099Y86618D01*
X171536D01*
X171068Y87086D01*
Y87749D01*
X171536Y88218D01*
X172099D01*
X172568Y88686D01*
Y89349D01*
X172099Y89818D01*
X171536D01*
X171068Y90286D01*
Y90949D01*
X171536Y91418D01*
X172099D01*
X172568Y91886D01*
Y92549D01*
X172099Y93018D01*
X171536D01*
X171068Y93486D01*
Y94149D01*
X171536Y94618D01*
X172099D01*
X172568Y95086D01*
Y95749D01*
X172099Y96218D01*
X171536D01*
X171068Y96686D01*
Y97349D01*
X171536Y97818D01*
X172099D01*
X172568Y98286D01*
Y104573D01*
X188524Y120529D01*
X193524D01*
X196552Y123558D01*
X202361D01*
X202640Y123279D01*
X203800D01*
X203801Y123279D01*
X206540D01*
X206540Y123280D01*
X207700D01*
X207700Y123279D01*
X207862D01*
X208568Y122573D01*
Y120527D01*
X207120Y119079D01*
G01X228625Y129217D02*
X229816Y128026D01*
X231125Y126717D01*
X232005D01*
X232818Y125904D01*
X232825Y125896D01*
Y124736D01*
X232818Y124729D01*
Y124323D01*
X234226Y122915D01*
X236169D01*
X236175Y122921D01*
X237335D01*
X237340Y122915D01*
X237726D01*
X242068Y118573D01*
Y113073D01*
X245568Y109573D01*
Y104339D01*
X245099Y103871D01*
X244036D01*
X243568Y103402D01*
Y102739D01*
X244036Y102271D01*
X245099D01*
X245568Y101802D01*
Y101139D01*
X245099Y100671D01*
X244036D01*
X243568Y100202D01*
Y99539D01*
X244036Y99071D01*
X245099D01*
X245568Y98602D01*
Y97939D01*
X245099Y97471D01*
X244036D01*
X243568Y97002D01*
Y96339D01*
X244036Y95871D01*
X245099D01*
X245568Y95402D01*
Y94739D01*
X245099Y94271D01*
X244036D01*
X243568Y93802D01*
Y93139D01*
X244036Y92671D01*
X245099D01*
X245568Y92202D01*
Y91539D01*
X245099Y91071D01*
X244036D01*
X243568Y90602D01*
Y89939D01*
X244036Y89471D01*
X245099D01*
X245568Y89002D01*
Y88339D01*
X245099Y87871D01*
X244036D01*
X243568Y87402D01*
Y86739D01*
X244036Y86271D01*
X245099D01*
X245568Y85802D01*
Y85139D01*
X245099Y84671D01*
X244036D01*
X243568Y84202D01*
Y83539D01*
X244036Y83071D01*
X245099D01*
X245568Y82602D01*
Y81939D01*
X245099Y81471D01*
X244036D01*
X243568Y81002D01*
Y80339D01*
X244036Y79871D01*
X245099D01*
X245568Y79402D01*
Y78739D01*
X245099Y78271D01*
X244036D01*
X243568Y77802D01*
Y77139D01*
X244036Y76671D01*
X245099D01*
X245568Y76202D01*
Y75539D01*
X245099Y75071D01*
X244036D01*
X243568Y74602D01*
Y73939D01*
X244036Y73471D01*
X245099D01*
X245568Y73002D01*
Y72339D01*
X245099Y71871D01*
X244036D01*
X243568Y71402D01*
Y70739D01*
X244036Y70271D01*
X245099D01*
X245568Y69802D01*
Y69139D01*
X245099Y68671D01*
X244036D01*
X243568Y68202D01*
Y67553D01*
X244050Y67071D01*
X245099D01*
X245568Y66602D01*
Y59573D01*
X248068Y57073D01*
X253644D01*
X255193Y55524D01*
G01X186592Y52374D02*
X186593Y52374D01*
Y51024D01*
X186993Y50624D01*
X191349D01*
X191818Y51093D01*
Y52404D01*
X192286Y52873D01*
X193580D01*
X194048Y52404D01*
Y50593D01*
X195068Y49573D01*
X197068D01*
X198068Y50573D01*
Y55073D01*
X199568Y56573D01*
Y78073D01*
X212501Y91006D01*
Y92072D01*
X212099Y92474D01*
X210536D01*
X210068Y92943D01*
Y93605D01*
X210536Y94074D01*
X212099D01*
X212568Y94543D01*
Y95205D01*
X212099Y95674D01*
X210536D01*
X210068Y96143D01*
Y96805D01*
X210536Y97274D01*
X212099D01*
X212568Y97743D01*
Y98405D01*
X212099Y98874D01*
X210536D01*
X210068Y99343D01*
Y100005D01*
X210536Y100474D01*
X212099D01*
X212568Y100943D01*
Y103057D01*
X212099Y103526D01*
X210536D01*
X210068Y103995D01*
Y104657D01*
X210536Y105126D01*
X212099D01*
X212568Y105595D01*
Y108573D01*
X211068Y110073D01*
Y116573D01*
X209962Y117679D01*
X207700D01*
X202640Y117679D01*
X202630Y117679D01*
X199320Y114370D01*
Y113579D01*
G01X203219Y110679D02*
X201962Y110679D01*
X200561Y112080D01*
X190058D01*
X189568Y111589D01*
Y110927D01*
X190036Y110458D01*
X193599D01*
X194068Y109989D01*
Y109327D01*
X193599Y108858D01*
X190036D01*
X189568Y108389D01*
Y107727D01*
X190036Y107258D01*
X193599D01*
X194068Y106789D01*
Y106127D01*
X193599Y105658D01*
X190036D01*
X189568Y105189D01*
Y104527D01*
X190036Y104058D01*
X192599D01*
X193068Y103589D01*
Y97073D01*
X192537Y96543D01*
X191875D01*
X190037Y98380D01*
X189496D01*
X188906Y97790D01*
Y97248D01*
X190743Y95411D01*
Y94748D01*
X190275Y94280D01*
X189612D01*
X187775Y96117D01*
X187112D01*
X186643Y95648D01*
Y94986D01*
X188481Y93148D01*
Y92486D01*
X188012Y92017D01*
X187349D01*
X186463Y92903D01*
X185898D01*
X185332Y92337D01*
Y91772D01*
X186065Y91039D01*
Y90473D01*
X185665Y90073D01*
X185068D01*
X184568Y90573D01*
X181568D01*
X179568Y88573D01*
Y69073D01*
X180568Y68073D01*
Y64073D01*
X178648Y62154D01*
Y60654D01*
X176568Y58573D01*
X167792D01*
X167692Y58673D01*
G01Y55524D02*
X168880Y56711D01*
X169242Y57073D01*
X177068D01*
X179568Y59573D01*
Y61073D01*
X181880Y63386D01*
Y69260D01*
X181068Y70073D01*
Y86073D01*
X182068Y87073D01*
X191068D01*
X191704Y87709D01*
Y88372D01*
X189617Y90459D01*
Y91122D01*
X190086Y91591D01*
X190748D01*
X192836Y89504D01*
X193498D01*
X193967Y89972D01*
Y90635D01*
X191880Y92722D01*
Y93385D01*
X192348Y93854D01*
X193011D01*
X195098Y91766D01*
X195761D01*
X196230Y92235D01*
Y92898D01*
X194142Y94985D01*
Y95648D01*
X194611Y96116D01*
X195274D01*
X197361Y94029D01*
X198024D01*
X199068Y95073D01*
Y97097D01*
X198599Y97565D01*
X196386D01*
X196068Y97884D01*
Y100305D01*
X196386Y100624D01*
X198599D01*
X199068Y101093D01*
Y101755D01*
X198599Y102224D01*
X196386D01*
X195918Y102693D01*
Y103355D01*
X196386Y103824D01*
X198599D01*
X199068Y104293D01*
Y104955D01*
X198599Y105424D01*
X196386D01*
X195918Y105893D01*
Y106555D01*
X196386Y107024D01*
X198599D01*
X199068Y107493D01*
Y108155D01*
X198599Y108624D01*
X196386D01*
X195918Y109093D01*
Y110280D01*
X196318Y110680D01*
X197720D01*
X199320Y110680D01*
G01X228818Y109322D02*
X228568Y109573D01*
Y119073D01*
X227112Y120529D01*
X225612D01*
X224568Y121573D01*
Y122535D01*
X223701Y123402D01*
X222424Y124679D01*
G01X224923Y108429D02*
Y119379D01*
X223926Y120376D01*
X222424Y121879D01*
G01X176312Y159901D02*
X170416Y154006D01*
X159356D01*
X156809Y151458D01*
Y147793D01*
X150025Y141009D01*
Y137807D01*
X148834Y136616D01*
Y108418D01*
X155089Y102163D01*
X155218D01*
X156014Y101366D01*
Y94995D01*
X154935Y93916D01*
X151852D01*
X150593Y95174D01*
Y97348D01*
X150993Y97748D01*
X152377D01*
X152777Y98148D01*
Y98948D01*
X152377Y99348D01*
X150993D01*
X150593Y99748D01*
Y101991D01*
X150393Y102191D01*
G01X148483Y99202D02*
X146129D01*
X143734Y101597D01*
Y104554D01*
X144134Y104954D01*
X146442D01*
X146842Y105354D01*
Y106154D01*
X146442Y106554D01*
X144134D01*
X143734Y106954D01*
Y107754D01*
X144134Y108154D01*
X146442D01*
X146842Y108554D01*
Y109354D01*
X146442Y109754D01*
X144134D01*
X143734Y110154D01*
Y133057D01*
X144627Y133950D01*
X149225Y138548D01*
Y141897D01*
X149258D01*
X151896Y144535D01*
Y148517D01*
X153344Y149965D01*
X154082D01*
X158923Y154806D01*
X170080D01*
X173512Y158238D01*
Y159901D01*
G01X173909Y163716D02*
X171690Y161498D01*
X170187D01*
X168766Y160076D01*
Y158424D01*
X166747Y156406D01*
X154513D01*
X150296Y152189D01*
Y146984D01*
X145138Y141825D01*
Y138443D01*
X143005Y136311D01*
X142897D01*
X140934Y134347D01*
Y97569D01*
X144138Y94365D01*
Y79302D01*
X136436Y71600D01*
Y60746D01*
X122312Y46622D01*
X117746D01*
X115191Y44067D01*
G01X115609Y51132D02*
X119237D01*
X119637Y50732D01*
Y49034D01*
X120037Y48634D01*
X120837D01*
X121237Y49034D01*
Y50732D01*
X121637Y51132D01*
X124135D01*
X126049Y53045D01*
Y53611D01*
X123436Y56224D01*
Y56789D01*
X124002Y57355D01*
X124568D01*
X127181Y54742D01*
X127746D01*
X128312Y55308D01*
Y55874D01*
X125699Y58487D01*
Y59052D01*
X126265Y59618D01*
X126831D01*
X129443Y57005D01*
X130009D01*
X130575Y57571D01*
Y58137D01*
X127962Y60749D01*
Y61315D01*
X128528Y61881D01*
X129093D01*
X131706Y59268D01*
X132272D01*
X133662Y60658D01*
Y74556D01*
X141813Y82707D01*
Y92384D01*
X139034Y95163D01*
Y135135D01*
X142110Y138211D01*
X142218D01*
X142482Y138474D01*
X144338Y140330D01*
Y142157D01*
X144465Y142284D01*
Y142367D01*
X149378Y147280D01*
Y152486D01*
X154098Y157206D01*
X166415D01*
X167541Y158331D01*
Y160334D01*
X168724Y161518D01*
X168764D01*
X170962Y163716D01*
X171109D01*
G01X165488Y163368D02*
X164285Y162166D01*
Y158593D01*
X163698Y158006D01*
X152803D01*
X137786Y142988D01*
Y103403D01*
X135235Y100852D01*
X131786D01*
X131386Y100452D01*
Y97758D01*
X130986Y97358D01*
X130186D01*
X129786Y97758D01*
Y100452D01*
X129386Y100852D01*
X128586D01*
X128186Y100452D01*
Y97758D01*
X127786Y97358D01*
X126986D01*
X126586Y97758D01*
Y100452D01*
X126186Y100852D01*
X125386D01*
X124986Y100452D01*
Y97758D01*
X124586Y97358D01*
X123786D01*
X123386Y97758D01*
Y100452D01*
X122986Y100852D01*
X122186D01*
X121786Y100452D01*
Y97758D01*
X121386Y97358D01*
X120586D01*
X120186Y97758D01*
Y100452D01*
X119786Y100852D01*
X118734D01*
X115805Y97923D01*
Y93966D01*
X116205Y93566D01*
X118642D01*
X119042Y93166D01*
Y92366D01*
X118642Y91966D01*
X116205D01*
X115805Y91566D01*
Y90766D01*
X116205Y90366D01*
X118642D01*
X119042Y89966D01*
Y89166D01*
X118642Y88766D01*
X116205D01*
X115805Y88366D01*
Y87566D01*
X116205Y87166D01*
X118642D01*
X119042Y86766D01*
Y85966D01*
X118642Y85566D01*
X116205D01*
X115805Y85166D01*
Y69666D01*
G01X245014Y209300D02*
X241406Y205691D01*
Y205663D01*
X241166Y205423D01*
G01X233293Y204669D02*
X232500Y203876D01*
Y203139D01*
X233001Y202638D01*
X233030D01*
X233664Y202004D01*
X235317D01*
G01X128953Y184150D02*
X132258D01*
X134470Y186362D01*
Y198529D01*
X135733Y199792D01*
X146749D01*
X153874Y206917D01*
Y217018D01*
X154930Y218073D01*
G01X245345Y318263D02*
Y314268D01*
X235969Y304892D01*
X227590D01*
X223326Y300628D01*
Y299343D01*
X198334Y274351D01*
X196484D01*
X186180Y264047D01*
Y255400D01*
X181221Y250442D01*
X170860D01*
X167748Y247330D01*
Y235834D01*
X165744Y233830D01*
Y226727D01*
X162790Y223773D01*
X156008D01*
X145651Y213416D01*
Y210595D01*
G01X144627Y209197D02*
X140898Y205468D01*
X128478D01*
X127562Y206384D01*
X125734D01*
X124786Y205437D01*
Y196827D01*
X122934Y194975D01*
Y192456D01*
X126326Y189064D01*
Y183135D01*
X128167Y181294D01*
X136736D01*
X140975Y177055D01*
G01X222197Y208001D02*
X221526Y207330D01*
X220856Y206659D01*
X218063D01*
X211415Y200012D01*
Y183169D01*
X205922Y177676D01*
X185214D01*
X184122Y178768D01*
X179576D01*
G01X223117Y207789D02*
X221187Y205859D01*
X218394D01*
X212215Y199680D01*
Y182838D01*
X206253Y176876D01*
X184883D01*
X183791Y177968D01*
X179576D01*
G01X129354Y198220D02*
X134799Y203666D01*
X140368D01*
X144627Y207924D01*
G01X146551Y210595D02*
Y213043D01*
X156381Y222873D01*
X163162D01*
X166644Y226354D01*
Y233457D01*
X187155Y253968D01*
Y263720D01*
X196885Y273451D01*
X198707D01*
X224226Y298970D01*
Y300132D01*
X227999Y303905D01*
X237790D01*
X252304Y318420D01*
Y320455D01*
X253450Y321601D01*
G01X139753Y190528D02*
X138174D01*
X137194Y191508D01*
Y197170D01*
G01X216084Y267849D02*
Y259930D01*
X220775Y255239D01*
X234474D01*
X235772Y256537D01*
Y260701D01*
X236271Y261200D01*
X248179D01*
X249678Y262700D01*
Y263829D01*
X250333Y264484D01*
G01X228578Y178999D02*
X222091Y172512D01*
X221677D01*
X218769Y169605D01*
Y168183D01*
X218778Y168174D01*
Y167014D01*
X218769Y167006D01*
Y164108D01*
X218686Y164025D01*
Y162701D01*
X216282Y160296D01*
Y156775D01*
X219083Y153974D01*
X226446D01*
X230270Y150150D01*
X235132D01*
X237786Y152805D01*
X237890D01*
X237914Y152829D01*
X238172D01*
X242582Y157240D01*
X252136D01*
X255372Y154004D01*
X257392D01*
X257393Y154002D01*
X271090D01*
X272693Y152400D01*
Y148644D01*
X274719Y146619D01*
X283894D01*
X287213Y143300D01*
Y127163D01*
X295109Y119267D01*
Y115319D01*
G01X280058Y115293D02*
X277248Y118104D01*
Y122294D01*
X256521Y143020D01*
X230869D01*
X222978Y150911D01*
Y152291D01*
G01X288924Y114620D02*
X286621Y112317D01*
X278666D01*
X276226Y114757D01*
Y122042D01*
X256379Y141889D01*
X245200D01*
X244914Y142176D01*
X223763D01*
X217467Y148472D01*
G01X210945Y210595D02*
Y216444D01*
G01X160508Y196729D02*
Y200233D01*
X157061Y203680D01*
X153324D01*
X148760Y199115D01*
G01X144627Y191165D02*
X143699D01*
X141028Y193836D01*
Y194019D01*
G01X295174Y89275D02*
X299645Y93746D01*
Y116139D01*
X288113Y127672D01*
Y143672D01*
X284266Y147519D01*
X275092D01*
X273593Y149017D01*
Y153226D01*
X271917Y154902D01*
X257766D01*
X257764Y154904D01*
X255745D01*
X252458Y158191D01*
X242402D01*
X237840Y153629D01*
X237582D01*
X237558Y153605D01*
X233345D01*
X233321Y153629D01*
X232804D01*
X231637Y154796D01*
X219443D01*
X217104Y157135D01*
Y159962D01*
X219070Y161928D01*
X219071D01*
X219089Y161946D01*
X220988D01*
X221486Y162445D01*
Y164777D01*
X222181Y165472D01*
X226586D01*
X228186Y167071D01*
Y174064D01*
X229152Y175031D01*
Y176293D01*
X230396Y177536D01*
X231409D01*
X231434Y177512D01*
X232120D01*
X233434Y178826D01*
X235034D01*
G01X128334Y172076D02*
X133969Y166440D01*
X141714D01*
X144627Y169354D01*
G01X128434Y168576D02*
X131469Y165540D01*
X141341D01*
X142086Y165540D01*
X144627Y168081D01*
G01X172632Y331473D02*
X175261Y334102D01*
X182772D01*
X184466Y332408D01*
X227998D01*
X230898Y335309D01*
X246397D01*
X250660Y339572D01*
X266112D01*
X268976Y336708D01*
X271179D01*
X274484Y333402D01*
Y332699D01*
G01X191769Y184637D02*
X197797Y190665D01*
Y190860D01*
X197922Y190985D01*
Y198807D01*
X203693Y204578D01*
X205848D01*
X207434Y206164D01*
Y209512D01*
G01X206351Y210595D02*
X205089Y211856D01*
Y219181D01*
X207814Y221905D01*
X215092D01*
X217397Y224210D01*
Y238024D01*
X218334Y238961D01*
X219667D01*
X231485Y227144D01*
X238348D01*
X240492Y225000D01*
G01X225312Y277951D02*
X220016Y272654D01*
Y262514D01*
X219028Y261527D01*
G01X191567Y187476D02*
X197097Y193007D01*
Y199114D01*
X201488Y203505D01*
X203362Y205378D01*
X205517D01*
X206534Y206396D01*
Y209089D01*
G01X205029Y210595D02*
X204189Y211434D01*
Y219554D01*
X207441Y222805D01*
X214719D01*
X216497Y224583D01*
Y238397D01*
X217961Y239861D01*
X220200D01*
X232018Y228044D01*
X239711D01*
X242092Y225662D01*
Y224134D01*
X240544Y222585D01*
G01X208545Y210595D02*
X206090Y213049D01*
Y218435D01*
X207357Y219702D01*
X212532D01*
X214024Y218210D01*
Y217171D01*
G01X218183Y267771D02*
X217413Y267001D01*
Y260001D01*
X220314Y257100D01*
Y257081D01*
X221181Y256214D01*
X233838D01*
X234638Y257014D01*
Y261185D01*
X235696Y262242D01*
X247814D01*
X248718Y263146D01*
Y264209D01*
X248183Y264743D01*
G01X209522Y210595D02*
Y215087D01*
X208234Y216376D01*
G01X283213Y220447D02*
Y220524D01*
X283914Y221224D01*
Y272539D01*
X282808Y273645D01*
X274585D01*
X273214Y272274D01*
Y263786D01*
X267937Y258508D01*
X248425D01*
X241117Y251200D01*
X235900D01*
X235882Y251218D01*
X234556D01*
X234538Y251200D01*
X211574D01*
X208663Y248289D01*
X197175D01*
X185452Y236566D01*
Y218877D01*
X176270Y209694D01*
X172465Y205890D01*
X163973D01*
X162424Y204341D01*
Y196174D01*
X160666Y194415D01*
X157149D01*
X153942Y197622D01*
X151977D01*
X150322Y195967D01*
Y192778D01*
X144840Y187296D01*
Y184900D01*
X142215Y182275D01*
X128568D01*
X127257Y183586D01*
Y189735D01*
X126774Y190218D01*
Y204105D01*
X126386Y204492D01*
G01X195921Y311114D02*
X192982Y308176D01*
X188136D01*
X179596Y299634D01*
Y274972D01*
X162473Y257850D01*
X158972D01*
X157215Y256093D01*
Y248274D01*
X156237Y247296D01*
G01X244434Y209880D02*
X244371Y209816D01*
Y209802D01*
X244204Y209635D01*
Y209621D01*
X240586Y206002D01*
G01X233164Y205783D02*
X231700Y204320D01*
Y202808D01*
X232670Y201838D01*
X232698D01*
X233434Y201103D01*
Y199876D01*
G01X236196Y176625D02*
X233522D01*
X232448Y175552D01*
Y173781D01*
X229066Y170399D01*
G01X151438Y256018D02*
X143142Y247722D01*
X117890D01*
X117490Y247322D01*
Y243552D01*
G01X227078Y309716D02*
Y313184D01*
X224917Y315345D01*
X209062D01*
X196251Y302535D01*
X188777D01*
X183751Y297509D01*
Y285101D01*
X184451Y284401D01*
X190073D01*
X190617Y284945D01*
G01X225423Y369072D02*
X225230D01*
X224680Y368522D01*
X170703D01*
X165554Y373671D01*
X165450D01*
X164518Y374604D01*
X125969D01*
X124259Y376314D01*
Y382014D01*
G01X237024Y137024D02*
X240538D01*
X240541Y137021D01*
X247624Y137016D01*
X270568Y114073D01*
Y112923D01*
X269568Y111923D01*
Y110323D01*
X270568Y109323D01*
Y107723D01*
X269568Y106723D01*
Y105123D01*
X270568Y104123D01*
Y102523D01*
X269568Y101523D01*
Y99923D01*
X270568Y98923D01*
Y97323D01*
X269568Y96323D01*
Y94723D01*
X270568Y93723D01*
Y92123D01*
X269568Y91123D01*
Y89523D01*
X270568Y88523D01*
Y86923D01*
X269568Y85923D01*
Y84323D01*
X270568Y83323D01*
Y81723D01*
X269568Y80723D01*
Y79123D01*
X270568Y78123D01*
Y76523D01*
X269568Y75523D01*
Y73923D01*
X270568Y72923D01*
Y71073D01*
X269442Y69947D01*
Y61947D01*
X267744Y60249D01*
X264643D01*
X264642Y60249D01*
G01X286633Y124740D02*
X278835D01*
X274004Y129570D01*
X261466Y142108D01*
G01X234244Y125317D02*
X235645Y123917D01*
X238724D01*
X243068Y119573D01*
Y115073D01*
X244418Y113723D01*
X246418D01*
X249568Y110573D01*
Y109517D01*
X249099Y109049D01*
X248036D01*
X247568Y108580D01*
Y107917D01*
X248036Y107449D01*
X249099D01*
X249568Y106980D01*
Y106317D01*
X249099Y105849D01*
X248036D01*
X247568Y105380D01*
Y104717D01*
X248036Y104249D01*
X249099D01*
X249568Y103780D01*
Y103117D01*
X249099Y102649D01*
X248036D01*
X247568Y102180D01*
Y101517D01*
X248036Y101049D01*
X249099D01*
X249568Y100580D01*
Y99917D01*
X249099Y99449D01*
X248036D01*
X247568Y98980D01*
Y98317D01*
X248036Y97849D01*
X249099D01*
X249568Y97380D01*
Y96717D01*
X249099Y96249D01*
X248036D01*
X247568Y95780D01*
Y95117D01*
X248036Y94649D01*
X249099D01*
X249568Y94180D01*
Y93517D01*
X249099Y93049D01*
X248036D01*
X247568Y92580D01*
Y91917D01*
X248036Y91449D01*
X249099D01*
X249568Y90980D01*
Y90317D01*
X249099Y89849D01*
X248036D01*
X247568Y89380D01*
Y88717D01*
X248036Y88249D01*
X249099D01*
X249568Y87780D01*
Y87117D01*
X249099Y86649D01*
X248036D01*
X247568Y86180D01*
Y85517D01*
X248036Y85049D01*
X249099D01*
X249568Y84580D01*
Y83917D01*
X249099Y83449D01*
X248036D01*
X247568Y82980D01*
Y82317D01*
X248036Y81849D01*
X249099D01*
X249568Y81380D01*
Y80717D01*
X249099Y80249D01*
X248036D01*
X247568Y79780D01*
Y77073D01*
X250543Y74098D01*
Y63474D01*
X248892Y61824D01*
G01X285230Y114620D02*
Y116570D01*
X257174Y144626D01*
X245779D01*
G01Y154376D02*
X247934D01*
G01X285230Y114620D02*
X287065Y116454D01*
X289689D01*
X290538Y115606D01*
Y104379D01*
X288430Y102272D01*
Y92996D01*
X295598Y85828D01*
X305024D01*
X330437Y111241D01*
Y159796D01*
X324219Y166014D01*
Y192220D01*
X335899Y203900D01*
Y260832D01*
X330815Y265916D01*
Y266255D01*
G01X234224Y137017D02*
X235199Y136043D01*
X235669Y135573D01*
X247369D01*
X268068Y114874D01*
Y112794D01*
X267599Y112326D01*
X266536D01*
X266068Y111857D01*
Y111194D01*
X266536Y110726D01*
X267599D01*
X268068Y110257D01*
Y109594D01*
X267599Y109126D01*
X266536D01*
X266068Y108657D01*
Y107994D01*
X266536Y107526D01*
X267599D01*
X268068Y107057D01*
Y106394D01*
X267599Y105926D01*
X266536D01*
X266068Y105457D01*
Y104794D01*
X266536Y104326D01*
X267599D01*
X268068Y103857D01*
Y103194D01*
X267599Y102726D01*
X266536D01*
X266068Y102257D01*
Y101595D01*
X266536Y101126D01*
X267599D01*
X268068Y100657D01*
Y99995D01*
X267599Y99526D01*
X266536D01*
X266068Y99057D01*
Y98394D01*
X266536Y97926D01*
X267599D01*
X268068Y97457D01*
Y96794D01*
X267599Y96326D01*
X266536D01*
X266068Y95857D01*
Y95194D01*
X266536Y94726D01*
X267599D01*
X268068Y94257D01*
Y93594D01*
X267599Y93126D01*
X266536D01*
X266068Y92657D01*
Y91995D01*
X266536Y91526D01*
X267599D01*
X268068Y91057D01*
Y90395D01*
X267599Y89926D01*
X266536D01*
X266068Y89457D01*
Y88795D01*
X266536Y88326D01*
X267668D01*
X268068Y87926D01*
Y66824D01*
X265512Y64269D01*
X264642Y63399D01*
G01X261493D02*
X261493Y66485D01*
X261961Y66954D01*
X262599D01*
X263068Y67423D01*
Y68085D01*
X262599Y68554D01*
X261961D01*
X261493Y69023D01*
Y69685D01*
X261961Y70154D01*
X262599D01*
X263068Y70623D01*
Y71285D01*
X262599Y71754D01*
X261961D01*
X261493Y72223D01*
Y72885D01*
X261961Y73354D01*
X262599D01*
X263068Y73823D01*
Y74485D01*
X262599Y74954D01*
X261961D01*
X261493Y75423D01*
Y76085D01*
X261961Y76554D01*
X262599D01*
X263068Y77023D01*
Y77685D01*
X262599Y78154D01*
X261961D01*
X261493Y78623D01*
Y79285D01*
X261961Y79754D01*
X262599D01*
X263068Y80223D01*
Y80885D01*
X262599Y81354D01*
X261961D01*
X261493Y81823D01*
Y82485D01*
X261961Y82954D01*
X262599D01*
X263068Y83423D01*
Y84085D01*
X262599Y84554D01*
X261961D01*
X261493Y85023D01*
Y85685D01*
X261961Y86154D01*
X262599D01*
X263068Y86623D01*
Y87285D01*
X262599Y87754D01*
X261961D01*
X261493Y88223D01*
Y88885D01*
X261961Y89354D01*
X262599D01*
X263068Y89823D01*
Y90485D01*
X262599Y90954D01*
X261961D01*
X261493Y91423D01*
Y92085D01*
X261961Y92554D01*
X262599D01*
X263068Y93023D01*
Y93685D01*
X262599Y94154D01*
X261961D01*
X261493Y94623D01*
Y95285D01*
X261961Y95754D01*
X262599D01*
X263068Y96223D01*
Y96885D01*
X262599Y97354D01*
X261961D01*
X261493Y97823D01*
Y98485D01*
X261961Y98954D01*
X262599D01*
X263068Y99423D01*
Y100085D01*
X262599Y100554D01*
X261961D01*
X261493Y101023D01*
Y101685D01*
X261961Y102154D01*
X262599D01*
X263068Y102623D01*
Y103285D01*
X262599Y103754D01*
X261961D01*
X261493Y104223D01*
Y104885D01*
X261961Y105354D01*
X262599D01*
X263068Y105823D01*
Y106485D01*
X262599Y106954D01*
X261961D01*
X261493Y107423D01*
Y108085D01*
X261961Y108554D01*
X262599D01*
X263068Y109023D01*
Y109685D01*
X262599Y110154D01*
X261961D01*
X261493Y110623D01*
Y111285D01*
X261961Y111754D01*
X262599D01*
X263068Y112223D01*
Y114073D01*
X259568Y117573D01*
X253068D01*
X246668Y123973D01*
Y126473D01*
X241568Y131573D01*
X235768D01*
X235311Y132030D01*
X234224Y133117D01*
G01X299759Y133949D02*
X297411Y131600D01*
X296719D01*
G01X299877Y218608D02*
Y224145D01*
X305092Y229360D01*
Y260620D01*
X303192Y262520D01*
G01X234178Y163641D02*
X235677Y162141D01*
X245477D01*
X248310Y164974D01*
X265506D01*
X268568Y168035D01*
X285054D01*
X288242Y171223D01*
X298741D01*
X302528Y175009D01*
X310403D01*
X319173Y183779D01*
Y197178D01*
X323595Y201600D01*
X330985D01*
X333934Y204549D01*
Y253797D01*
X324763Y262968D01*
Y325204D01*
X314380Y335587D01*
X308803D01*
G01X300684Y256897D02*
X301308Y257520D01*
X302522D01*
X304192Y255851D01*
Y229795D01*
X295006Y220609D01*
Y219078D01*
G01X269600Y159486D02*
X271300D01*
X275974Y154812D01*
X297704D01*
X298578Y155685D01*
Y155699D01*
X298874Y155995D01*
Y166258D01*
X302040Y169425D01*
X319813D01*
X322997Y172609D01*
Y192077D01*
G01X323319Y192593D02*
X334960Y204234D01*
Y254395D01*
X325720Y263634D01*
Y325891D01*
X313661Y337951D01*
X310704D01*
G01X289431Y229064D02*
X286961Y231534D01*
Y281532D01*
X283318Y285175D01*
X282146D01*
X281746Y285575D01*
Y291130D01*
X286070Y295454D01*
Y296297D01*
G01X308818Y164512D02*
X306864D01*
G01X288591Y259846D02*
X288115Y259370D01*
Y233597D01*
X291139Y230573D01*
Y228538D01*
X291846Y227831D01*
G01X298996Y312768D02*
X297581Y314184D01*
X293742D01*
X293184Y313626D01*
Y305163D01*
X294058Y304289D01*
X296397D01*
X297661Y303024D01*
Y297448D01*
X305237Y289872D01*
Y283002D01*
X307508Y280732D01*
Y268575D01*
X309687Y266396D01*
Y252718D01*
X315162Y247242D01*
X319633D01*
X320570Y246306D01*
Y239882D01*
X319268Y238580D01*
X315903D01*
X313374Y236050D01*
Y204273D01*
X308741Y199640D01*
X283801D01*
X275559Y207882D01*
X257304D01*
X254220Y204798D01*
Y203336D01*
X250988Y200103D01*
X249651D01*
G01X251634Y186576D02*
X252765Y187707D01*
X258024D01*
X259265Y186466D01*
G01X274234Y193511D02*
X276677D01*
X281871Y198705D01*
X309482D01*
X314400Y203622D01*
Y235754D01*
X316291Y237645D01*
X317116Y237644D01*
X319605D01*
X321470Y239509D01*
Y246678D01*
X320006Y248142D01*
X319261D01*
X319260Y248142D01*
X315585D01*
X311140Y252587D01*
Y267230D01*
X309345Y269024D01*
Y296519D01*
X307743Y298121D01*
G01X290962Y258927D02*
Y232694D01*
X293468Y230189D01*
Y226386D01*
X290896Y223814D01*
Y217931D01*
X284532Y211567D01*
G01X304698Y171474D02*
X306876Y173652D01*
X310730D01*
X313243Y176165D01*
X313938D01*
G01X296901Y260224D02*
Y263363D01*
X294803Y265461D01*
G01X294558Y210552D02*
Y213071D01*
X292292Y215338D01*
Y219849D01*
X294902Y222459D01*
Y251537D01*
X294667Y251772D01*
X294635D01*
G01X265568Y335088D02*
X265542Y335062D01*
Y333534D01*
X264364Y332356D01*
X258523D01*
X258104Y332775D01*
G01X257536Y349032D02*
X259373Y350870D01*
X287375D01*
X291829Y355324D01*
X301163D01*
G01X238469Y337502D02*
X239467Y336504D01*
X246230D01*
X247096Y337370D01*
Y344442D01*
X250498Y347844D01*
X252002D01*
G01X273161Y312826D02*
X273886Y313552D01*
X290766D01*
X292202Y312116D01*
Y304344D01*
X294404Y302143D01*
Y300915D01*
X296703Y298616D01*
Y296838D01*
X304252Y289289D01*
Y282216D01*
X305364Y281103D01*
Y277280D01*
X302645Y274560D01*
Y269802D01*
X305884Y266563D01*
X307027D01*
X307442Y266148D01*
G54D25*
G01X71760Y218581D02*
X72485D01*
X75798Y221894D01*
Y226661D01*
X76943Y227805D01*
X79331D01*
G01X46401Y219353D02*
X53930D01*
X58499Y223922D01*
Y229711D01*
X58486Y229724D01*
Y232053D01*
X59916Y233483D01*
X62526D01*
X66236Y229774D01*
X79331D01*
G01X111934Y247276D02*
Y248576D01*
X110534Y249976D01*
X82215D01*
X80751Y251440D01*
Y254858D01*
X85144Y259251D01*
X88204D01*
X90362Y261409D01*
Y276288D01*
X90362Y304191D01*
X91821Y305649D01*
Y332762D01*
X104134Y345076D01*
Y351569D01*
X110197Y357632D01*
G01X231378Y163695D02*
X232875Y165192D01*
X246388D01*
X247415Y166219D01*
X265379D01*
X268166Y169006D01*
X284419D01*
G01X135075Y237720D02*
Y237872D01*
X133172Y239776D01*
X121113D01*
X107175Y225837D01*
X103937D01*
G01X144159Y245340D02*
X123587D01*
X108020Y229774D01*
X103937D01*
G01X214934Y152576D02*
X211803D01*
X208835Y155544D01*
X205418D01*
X205321Y155642D01*
X199660D01*
X199589Y155570D01*
X197679D01*
X193928Y159321D01*
X190998Y162251D01*
Y163991D01*
X189250Y165739D01*
X178272D01*
X173121Y170890D01*
X155218D01*
X150972Y166644D01*
X146369D01*
X143262Y163537D01*
X129114D01*
X125526Y167125D01*
Y178845D01*
X120429Y183943D01*
Y196270D01*
X117558Y199140D01*
X113519D01*
X112134Y200526D01*
G01X320404Y304604D02*
X319958Y304157D01*
Y304076D01*
X318547Y302665D01*
X316682D01*
X316350Y302998D01*
Y315537D01*
X310377Y321510D01*
X273688D01*
X273218Y321980D01*
Y325806D01*
X276264Y328852D01*
Y334544D01*
X268952Y341856D01*
X260346D01*
X241964Y360239D01*
X221228D01*
X216530Y355541D01*
X133233D01*
X127856Y350164D01*
Y346618D01*
X119127Y337889D01*
Y322199D01*
X123734Y317592D01*
Y304444D01*
X128589Y299590D01*
Y283658D01*
X125252Y280320D01*
Y274608D01*
X120397Y269754D01*
X115138D01*
X112913Y267529D01*
Y259034D01*
X109879Y256000D01*
G01X108469Y255676D02*
X106834D01*
G01X138728Y236864D02*
X138123Y237470D01*
Y238342D01*
X134919Y241546D01*
X121164D01*
X107424Y227805D01*
X103937D01*
G01X117497Y322136D02*
X111074D01*
X109634Y323576D01*
Y351878D01*
X110677Y352921D01*
Y353068D01*
G01X134664Y234557D02*
X129963Y229856D01*
X116646D01*
G01X116334Y250076D02*
X140307D01*
X163893Y273662D01*
Y322735D01*
X172632Y331473D01*
G01X199234Y184076D02*
X201127Y185968D01*
Y193513D01*
X201972Y194358D01*
X204084D01*
X205259Y195533D01*
Y202239D01*
X208545Y205524D01*
G01X294062Y160280D02*
X291779Y157998D01*
X285046D01*
X276526Y166518D01*
X268424D01*
X265908Y164002D01*
X264413D01*
X264412Y164003D01*
X248711D01*
X245832Y161124D01*
X240864D01*
X238000Y158260D01*
X229550D01*
X228134Y159676D01*
G01X139991Y350065D02*
X138405D01*
X125803Y337463D01*
Y305107D01*
X129904Y301006D01*
Y283123D01*
X126971Y280190D01*
Y274508D01*
X120700Y268237D01*
X115846D01*
X114329Y266720D01*
Y258881D01*
X116334Y256876D01*
G01X212734Y208976D02*
Y210876D01*
X217061Y215202D01*
Y218102D01*
X218997Y220038D01*
Y237361D01*
G01X217567Y152372D02*
X215863Y154076D01*
X211534D01*
X209243Y156366D01*
X209195Y156414D01*
X205779D01*
X205681Y156512D01*
X199300D01*
X199228Y156440D01*
X198039D01*
X196694Y157786D01*
Y163575D01*
X195215Y165054D01*
X191308D01*
X189847Y166515D01*
X189705D01*
X189610Y166609D01*
X178632D01*
X173462Y171779D01*
X172530D01*
X172510Y171760D01*
X154858D01*
X150612Y167514D01*
X145867D01*
X142952Y164599D01*
X129424D01*
X126496Y167527D01*
Y179247D01*
X121399Y184344D01*
Y197220D01*
X117943Y200676D01*
X114334D01*
G01X218477Y184637D02*
X220134Y186294D01*
Y199638D01*
X227717Y207222D01*
Y208716D01*
X233061Y214060D01*
X235087D01*
X235576Y214549D01*
G01X249534Y182855D02*
X242426D01*
X236196Y176625D01*
G01X229066Y170399D02*
Y166305D01*
X229735Y165637D01*
Y161941D01*
X229170Y161376D01*
X226584D01*
X226565Y161395D01*
X222070D01*
X221786Y161111D01*
X219435D01*
X218742Y160418D01*
Y160314D01*
X218699Y160270D01*
Y157442D01*
X220233Y155908D01*
X232223D01*
X233691Y154440D01*
X237212D01*
X241955Y159183D01*
X252789D01*
X256133Y155839D01*
X273090D01*
X275053Y153877D01*
X298092D01*
X299513Y155298D01*
Y155311D01*
X299809Y155607D01*
Y158912D01*
X301087Y160190D01*
Y162152D01*
X306871Y167936D01*
X315104D01*
X316511Y166528D01*
Y163725D01*
G01X261466Y142108D02*
X254199Y149376D01*
X249834D01*
X246884Y152326D01*
G01X282546Y177607D02*
X281868Y176928D01*
X278965D01*
X274739Y172702D01*
X268945D01*
X267116Y174532D01*
X251086D01*
X249231Y172677D01*
Y170291D01*
G01X297274Y156658D02*
X284688D01*
X276300Y165046D01*
X268324D01*
X266310Y163032D01*
X249113D01*
X246234Y160153D01*
X241435D01*
X237355Y156073D01*
X234836D01*
G01X306864Y164512D02*
X301378Y159025D01*
Y153784D01*
X296770Y149176D01*
X278134D01*
G01X259265Y186466D02*
X266642D01*
X269108Y188933D01*
X281557D01*
X281757Y188733D01*
X281807D01*
X283034Y187506D01*
G01X295490Y191029D02*
X292998Y188537D01*
X286622D01*
X282505Y184420D01*
X275391D01*
X273819Y182848D01*
X252861D01*
X251634Y184076D01*
G01X282577Y179909D02*
X280374D01*
X274666Y174200D01*
X269041D01*
X267681Y175560D01*
X249030D01*
X247430Y173959D01*
X243343D01*
X236978Y167595D01*
G01X288344Y338153D02*
X286129Y335937D01*
X279489D01*
X266912Y348514D01*
X262072D01*
G54D16*
G01X-27874Y388000D02*
Y12000D01*
G01D02*
X-7874D01*
G01Y42000D02*
Y12000D01*
G01Y42000D02*
X0D01*
G01X-7874Y48700D02*
X0D01*
G01X-7874Y144800D02*
Y48700D01*
G01Y248500D02*
X0D01*
G01X-7874Y255200D02*
X0D01*
G01X-7874Y151500D02*
X0D01*
G01X-7874Y144800D02*
X0D01*
G01X-7874Y248500D02*
Y151500D01*
G01Y351300D02*
Y255200D01*
G01Y388000D02*
Y358000D01*
G01D02*
X0D01*
G01X-7874Y351300D02*
X0D01*
G01X-27874Y388000D02*
X-7874D01*
G01X12000Y0D02*
X0Y12000D01*
G01X12000Y0D02*
X338000D01*
G01X0Y42000D02*
Y12000D01*
G01Y144800D02*
Y48700D01*
G01Y351300D02*
Y255200D01*
G01Y248500D02*
Y151500D01*
G01Y388000D02*
Y358000D01*
G01Y388000D02*
X12000Y400000D01*
G01X338000D02*
X12000D01*
G01X350000Y12000D02*
X338000Y0D01*
G01X350000Y12000D02*
Y42000D01*
G01Y48700D02*
X357874D01*
G01X350000Y42000D02*
X357874D01*
G01X350000Y48700D02*
Y144800D01*
G01Y255200D02*
X357874D01*
G01X350000Y248500D02*
X357874D01*
G01X350000Y144800D02*
X357874D01*
G01X350000Y151500D02*
X357874D01*
G01X350000D02*
Y248500D01*
G01Y255200D02*
Y351300D01*
G01D02*
X357874D01*
G01X350000Y358000D02*
X357874D01*
G01X350000D02*
Y388000D01*
G01X338000Y400000D02*
X350000Y388000D01*
G01X377874Y12000D02*
Y388000D01*
G01X357874Y12000D02*
Y42000D01*
G01Y12000D02*
X377874D01*
G01X357874Y48700D02*
Y144800D01*
G01Y151500D02*
Y248500D01*
G01Y255200D02*
Y351300D01*
G01Y358000D02*
Y388000D01*
G01D02*
X377874D01*
G54D26*
G01X224535Y210595D02*
X224086Y210145D01*
G01X165937Y214600D02*
X166498Y214039D01*
X173421D01*
X177545Y218163D01*
Y224123D01*
X176122Y225546D01*
X172525D01*
X170757Y227314D01*
Y230788D01*
X188091Y248122D01*
X190472D01*
X194869Y252518D01*
Y256908D01*
X220122Y282161D01*
X229201D01*
X251760Y304720D01*
X258492D01*
X264826Y311054D01*
X286430D01*
X290534Y306950D01*
Y304264D01*
X293420Y301378D01*
Y285444D01*
X294084Y284780D01*
X297998D01*
X298343Y285124D01*
Y288725D01*
X297743Y289325D01*
G01X299943D02*
X299343Y288725D01*
Y284710D01*
X298412Y283780D01*
X293670D01*
X292420Y285030D01*
Y300964D01*
X289534Y303849D01*
Y306536D01*
X286016Y310054D01*
X265241D01*
X258906Y303720D01*
X252175D01*
X229616Y281161D01*
X220536D01*
X195869Y256494D01*
Y252104D01*
X190800Y247036D01*
X188420D01*
X171757Y230373D01*
Y227728D01*
X172939Y226546D01*
X176536D01*
X178545Y224537D01*
Y217748D01*
X177960Y217163D01*
X177959D01*
X173836Y213039D01*
X166496D01*
X165911Y212454D01*
G01X161000Y216088D02*
Y214832D01*
X161308Y214524D01*
X162466D01*
X162912Y214970D01*
Y216231D01*
X163335Y216654D01*
X168507D01*
X170791Y218938D01*
Y223757D01*
X169702Y224846D01*
Y233510D01*
X189261Y253070D01*
Y257196D01*
X194732Y262666D01*
X198021D01*
X219933Y284578D01*
X221124D01*
X252130Y315584D01*
X257800D01*
X259499Y317283D01*
X308571D01*
X314304Y311549D01*
Y305507D01*
X313944Y305147D01*
Y304127D01*
X314304Y303767D01*
Y302748D01*
X314046Y302489D01*
Y301266D01*
X314304Y301008D01*
Y299988D01*
X313944Y299628D01*
Y298609D01*
X314304Y298249D01*
Y297229D01*
X313944Y296869D01*
Y295850D01*
X314304Y295490D01*
Y294545D01*
X313841Y294082D01*
Y293165D01*
X314304Y292702D01*
Y291786D01*
X313841Y291322D01*
Y290406D01*
X314304Y289943D01*
Y288682D01*
X313893Y288270D01*
Y287302D01*
X314304Y286891D01*
Y284152D01*
X313920Y283767D01*
Y282772D01*
X314304Y282388D01*
Y281393D01*
X313920Y281008D01*
Y280013D01*
X314304Y279628D01*
Y278634D01*
X313920Y278249D01*
Y277254D01*
X314304Y276869D01*
Y275874D01*
X313920Y275490D01*
Y274495D01*
X314304Y274110D01*
Y272057D01*
X315384Y270977D01*
Y270440D01*
X316092Y269733D01*
X316628D01*
X318239Y268122D01*
X319153D01*
X319786Y267489D01*
G01X160973Y218388D02*
X161703Y217659D01*
X162916D01*
X162920Y217654D01*
X168093D01*
X169791Y219353D01*
Y223342D01*
X168702Y224432D01*
Y233861D01*
X188261Y253421D01*
Y257610D01*
X194318Y263666D01*
X197607D01*
X219518Y285578D01*
X220709D01*
X251715Y316584D01*
X257386D01*
X259085Y318283D01*
X308985D01*
X315304Y311964D01*
Y272471D01*
X318646Y269130D01*
X319226D01*
X319786Y269689D01*
G01X292731Y257234D02*
X293099Y256867D01*
X294405D01*
Y259238D01*
X292746Y260897D01*
X289801D01*
X288126Y262571D01*
Y274512D01*
X290348Y276734D01*
Y280263D01*
X289973Y280638D01*
Y281642D01*
X290348Y282017D01*
Y283022D01*
X289973Y283397D01*
Y284401D01*
X290348Y284777D01*
Y285781D01*
X289973Y286156D01*
Y287161D01*
X290348Y287536D01*
Y288540D01*
X289973Y288915D01*
Y289920D01*
X290348Y290295D01*
Y291299D01*
X289973Y291675D01*
Y292679D01*
X290348Y293054D01*
Y294059D01*
X289973Y294434D01*
Y295438D01*
X290348Y295813D01*
Y299600D01*
X289735Y300213D01*
X287419D01*
X287050Y299844D01*
Y299613D01*
G01X292731Y255034D02*
X293521Y255824D01*
X294802D01*
X295405Y256428D01*
Y259653D01*
X293161Y261897D01*
X290215D01*
X289126Y262986D01*
Y274097D01*
X291348Y276319D01*
Y300014D01*
X290150Y301213D01*
X287395D01*
X287050Y301558D01*
Y301813D01*
G01X307013Y219145D02*
X307668Y219800D01*
X308483D01*
X308828Y219455D01*
Y218086D01*
X308469Y217727D01*
Y216706D01*
X308828Y216348D01*
Y215326D01*
X308469Y214968D01*
Y213947D01*
X308828Y213589D01*
Y212567D01*
X308469Y212209D01*
Y211188D01*
X308828Y210829D01*
Y209412D01*
X307714Y208298D01*
X307673D01*
X307185Y208298D01*
X306474Y207587D01*
Y207546D01*
X306474Y207058D01*
X305850Y206434D01*
X304603D01*
X304242Y206795D01*
X303223D01*
X302818Y206390D01*
X302419D01*
X302049Y206759D01*
X301039D01*
X300670Y206390D01*
X299725D01*
X299364Y206751D01*
X298345D01*
X297984Y206390D01*
X296966D01*
X296604Y206751D01*
X295586D01*
X295225Y206390D01*
X294206D01*
X293845Y206751D01*
X292827D01*
X292466Y206390D01*
X291447D01*
X291086Y206751D01*
X290068D01*
X289706Y206390D01*
X288688D01*
X288327Y206751D01*
X287308D01*
X286947Y206390D01*
X285086D01*
X284391Y207084D01*
Y207725D01*
X283671Y208445D01*
X283030D01*
X282821Y208654D01*
Y214744D01*
X283651Y215575D01*
X284160D01*
X284965Y216380D01*
Y216889D01*
X285999Y217922D01*
Y220770D01*
X286394Y221165D01*
Y222149D01*
X285999Y222544D01*
Y223529D01*
X286394Y223924D01*
Y224908D01*
X285999Y225304D01*
Y226288D01*
X286394Y226683D01*
Y227668D01*
X285999Y228063D01*
Y274768D01*
X285068Y275698D01*
X282109D01*
X281708Y276099D01*
X280729D01*
X280328Y275698D01*
X279378D01*
X278498Y276578D01*
Y280150D01*
X279022Y280673D01*
Y281529D01*
X278498Y282053D01*
Y282909D01*
X279022Y283432D01*
Y284289D01*
X278498Y284812D01*
Y287148D01*
X278848Y287497D01*
Y288527D01*
X278498Y288877D01*
Y289969D01*
X279474Y290945D01*
X279994D01*
X280709Y291660D01*
Y292180D01*
X281425Y292896D01*
X281945D01*
X282661Y293611D01*
Y294131D01*
X283924Y295395D01*
Y297959D01*
X285312Y299347D01*
Y304550D01*
X285878Y305116D01*
G01X283678D02*
X284312Y304482D01*
Y299761D01*
X282924Y298373D01*
Y295809D01*
X277498Y290384D01*
Y276164D01*
X278964Y274698D01*
X284654D01*
X284999Y274354D01*
Y218337D01*
X281821Y215159D01*
Y208240D01*
X284671Y205390D01*
X306220D01*
X309828Y208997D01*
Y219962D01*
X308939Y220851D01*
X307618D01*
X307013Y221456D01*
G01X320393Y229770D02*
X320993Y229170D01*
X323492D01*
X324920Y230598D01*
Y253480D01*
X322634Y255766D01*
X315989D01*
X313960Y257795D01*
Y266076D01*
X311140Y268896D01*
Y301437D01*
X310499Y302078D01*
X304966D01*
X301423Y305621D01*
Y307870D01*
X299509Y309784D01*
X297399D01*
X296806Y309192D01*
G01X320393Y227570D02*
X320993Y228170D01*
X323907D01*
X325920Y230184D01*
Y253894D01*
X323049Y256766D01*
X316404D01*
X314960Y258209D01*
Y266490D01*
X312140Y269310D01*
Y301851D01*
X310914Y303078D01*
X305381D01*
X302423Y306035D01*
Y308285D01*
X299924Y310784D01*
X297414D01*
X296806Y311392D01*
G54D17*
G01X318683Y242767D02*
X317881Y241966D01*
X316477D01*
X316129Y242314D01*
Y242903D01*
X315610Y243422D01*
X312683D01*
X312263Y243002D01*
Y208269D01*
X307352Y203358D01*
X282998D01*
X276586Y209771D01*
X245485D01*
X245014Y209300D01*
G01X241166Y205423D02*
X240649Y204906D01*
X233530D01*
X233293Y204669D01*
G01X245779Y194810D02*
X250180D01*
X257864Y202494D01*
X260369D01*
X260419Y202444D01*
X270031D01*
X271134Y201341D01*
G01X245779Y195810D02*
X249766D01*
X257450Y203494D01*
X260369D01*
X260419Y203544D01*
X270348D01*
X271134Y204330D01*
G01X251705Y253467D02*
X252330Y252842D01*
Y249920D01*
X245640Y243230D01*
Y218155D01*
X240309Y212824D01*
X236493D01*
X235395Y211726D01*
Y210595D01*
G01X254005Y253467D02*
X253330Y252792D01*
Y249506D01*
X246640Y242816D01*
Y217740D01*
X240724Y211824D01*
X236908D01*
X236395Y211312D01*
Y210595D01*
G01X318683Y245078D02*
X318028Y244422D01*
X315219D01*
X315218Y244423D01*
X314390D01*
X314390Y244422D01*
X312269D01*
X311263Y243417D01*
Y208684D01*
X306938Y204358D01*
X283412D01*
X277000Y210771D01*
X245326D01*
X244434Y209880D01*
G01X240586Y206002D02*
X240366Y205783D01*
X233164D01*
G01X321342Y253061D02*
X320543Y252262D01*
Y251045D01*
X323962Y247626D01*
Y247297D01*
X323962Y236082D01*
X316451Y228571D01*
Y201769D01*
X308163Y193480D01*
X304216D01*
X298759Y188023D01*
X292716Y181980D01*
X279440D01*
X273982Y176522D01*
X271042D01*
X270406Y175887D01*
G01X318824Y253061D02*
X317362D01*
X317065Y252764D01*
Y251268D01*
X317396Y250937D01*
X319236D01*
X322962Y247211D01*
Y246883D01*
X322962Y236496D01*
X315451Y228985D01*
Y202183D01*
X307748Y194480D01*
X303802D01*
X292301Y182980D01*
X279026D01*
X273568Y177522D01*
X271071D01*
X270406Y178187D01*
G01X322997Y192077D02*
Y192271D01*
X323319Y192593D01*
G54D27*
G01X-183757Y-112707D02*
X381593D01*
G01X381743Y-73471D02*
Y-152707D01*
X-183757D01*
G01Y-73376D02*
Y-152707D01*
G01Y-132707D02*
X381743D01*
Y-132557D01*
G01X-183757Y-92707D02*
X381693D01*
G01X-183757Y-73507D02*
X381743D01*
G01X204834Y139576D02*
X202702Y141708D01*
G01D02*
X197604D01*
X195520Y139625D01*
G01X216492Y180673D02*
X214268D01*
G01X219945Y180932D02*
X238112D01*
G01X214268Y180673D02*
X211889Y178294D01*
Y174001D01*
X214734Y171156D01*
Y170185D01*
G54D18*
G01X-172757Y-118840D02*
X-173507Y-118340D01*
X-174382Y-118007D01*
X-175382D01*
X-176507Y-118507D01*
X-177382Y-119340D01*
X-178007Y-120340D01*
X-178507Y-122007D01*
X-178632Y-123507D01*
X-178382Y-125007D01*
X-178007Y-126007D01*
X-177257Y-127007D01*
X-176382Y-127674D01*
X-175507Y-128007D01*
X-174632D01*
X-173757Y-127674D01*
X-173007Y-127174D01*
X-172382Y-126507D01*
G01X-168632Y-128007D02*
X-165507Y-118007D01*
X-162382Y-128007D01*
G01X-163507Y-124507D02*
X-167507D01*
G01X-158007Y-128007D02*
Y-118007D01*
X-154882D01*
X-153882Y-118507D01*
X-153257Y-119174D01*
X-153007Y-120507D01*
X-153257Y-121840D01*
X-154007Y-122673D01*
X-154882Y-123174D01*
X-158007D01*
G01X-154882D02*
X-153007Y-128007D01*
G01X-148257D02*
Y-118007D01*
X-145757D01*
X-144757Y-118507D01*
X-144007Y-119174D01*
X-143382Y-120173D01*
X-142882Y-121340D01*
X-142757Y-123007D01*
X-142882Y-124674D01*
X-143382Y-125840D01*
X-144007Y-126840D01*
X-144757Y-127507D01*
X-145757Y-128007D01*
X-148257D01*
G01X-128007D02*
Y-118007D01*
X-124882D01*
X-123882Y-118507D01*
X-123257Y-119174D01*
X-123007Y-120507D01*
X-123257Y-121840D01*
X-124007Y-122673D01*
X-124882Y-123174D01*
X-128007D01*
G01X-124882D02*
X-123007Y-128007D01*
G01X-113007D02*
X-118007D01*
Y-118007D01*
X-113007D01*
G01X-115007Y-122840D02*
X-118007D01*
G01X-107882Y-128007D02*
Y-118007D01*
X-103132D01*
G01X-104882Y-122840D02*
X-107882D01*
G01X-95507Y-128340D02*
X-95757Y-128173D01*
Y-127840D01*
X-95507Y-127674D01*
X-95257Y-127840D01*
Y-128173D01*
X-95507Y-128340D01*
G01Y-123840D02*
X-95757Y-123673D01*
Y-123340D01*
X-95507Y-123174D01*
X-95257Y-123340D01*
Y-123673D01*
X-95507Y-123840D01*
G01X-85507Y-118007D02*
Y-128007D01*
G01X-88382Y-118007D02*
X-82632D01*
G01X-75507Y-128007D02*
X-76257Y-127840D01*
X-77007Y-127174D01*
X-77507Y-126007D01*
X-77757Y-124674D01*
X-77507Y-123340D01*
X-77007Y-122174D01*
X-76257Y-121507D01*
X-75507Y-121340D01*
X-74757Y-121507D01*
X-74007Y-122174D01*
X-73507Y-123340D01*
X-73382Y-124674D01*
X-73507Y-126007D01*
X-74007Y-127174D01*
X-74757Y-127840D01*
X-75507Y-128007D01*
G01X-68632Y-121340D02*
X-67132Y-128007D01*
X-65507Y-121340D01*
X-63882Y-128007D01*
X-62382Y-121340D01*
G01X-57382Y-123507D02*
X-53382D01*
X-53757Y-122340D01*
X-54382Y-121674D01*
X-55257Y-121340D01*
X-56132Y-121507D01*
X-56882Y-122007D01*
X-57382Y-123174D01*
X-57632Y-124174D01*
Y-125173D01*
X-57382Y-126174D01*
X-56757Y-127174D01*
X-56007Y-127840D01*
X-55132Y-128007D01*
X-54257Y-127674D01*
X-53382Y-126674D01*
G01X-47257Y-128007D02*
Y-121340D01*
G01Y-122673D02*
X-46632Y-122007D01*
X-46007Y-121507D01*
X-45132Y-121340D01*
X-44507Y-121507D01*
X-43757Y-122007D01*
G01X-38382Y-128007D02*
Y-118007D01*
X-32632Y-128007D01*
Y-118007D01*
G01X-25507Y-128007D02*
X-26257Y-127840D01*
X-27007Y-127174D01*
X-27507Y-126007D01*
X-27757Y-124674D01*
X-27507Y-123340D01*
X-27007Y-122174D01*
X-26257Y-121507D01*
X-25507Y-121340D01*
X-24757Y-121507D01*
X-24007Y-122174D01*
X-23507Y-123340D01*
X-23382Y-124674D01*
X-23507Y-126007D01*
X-24007Y-127174D01*
X-24757Y-127840D01*
X-25507Y-128007D01*
G01X-13257Y-118007D02*
Y-128007D01*
G01Y-126507D02*
X-13757Y-127340D01*
X-14507Y-127840D01*
X-15382Y-128007D01*
X-16382Y-127674D01*
X-17132Y-126840D01*
X-17632Y-125840D01*
X-17757Y-124674D01*
X-17632Y-123507D01*
X-17132Y-122507D01*
X-16382Y-121674D01*
X-15382Y-121340D01*
X-14507Y-121507D01*
X-13882Y-121840D01*
X-13257Y-122507D01*
G01X-7382Y-123507D02*
X-3382D01*
X-3757Y-122340D01*
X-4382Y-121674D01*
X-5257Y-121340D01*
X-6132Y-121507D01*
X-6882Y-122007D01*
X-7382Y-123174D01*
X-7632Y-124174D01*
Y-125173D01*
X-7382Y-126174D01*
X-6757Y-127174D01*
X-6007Y-127840D01*
X-5132Y-128007D01*
X-4257Y-127674D01*
X-3382Y-126674D01*
G01X17243Y-118840D02*
X16493Y-118340D01*
X15618Y-118007D01*
X14618D01*
X13493Y-118507D01*
X12618Y-119340D01*
X11993Y-120340D01*
X11493Y-122007D01*
X11368Y-123507D01*
X11618Y-125007D01*
X11993Y-126007D01*
X12743Y-127007D01*
X13618Y-127674D01*
X14493Y-128007D01*
X15368D01*
X16243Y-127674D01*
X16993Y-127174D01*
X17618Y-126507D01*
G01X24493Y-128007D02*
X23493Y-127840D01*
X22618Y-127174D01*
X21868Y-126174D01*
X21368Y-125007D01*
X21118Y-123673D01*
Y-122340D01*
X21368Y-121007D01*
X21868Y-119840D01*
X22618Y-118840D01*
X23493Y-118173D01*
X24493Y-118007D01*
X25493Y-118173D01*
X26368Y-118840D01*
X27118Y-119840D01*
X27618Y-121007D01*
X27868Y-122340D01*
Y-123673D01*
X27618Y-125007D01*
X27118Y-126174D01*
X26368Y-127174D01*
X25493Y-127840D01*
X24493Y-128007D01*
G01X31243D02*
Y-118007D01*
X34493Y-126340D01*
X37743Y-118007D01*
Y-128007D01*
G01X41243D02*
Y-118007D01*
X44493Y-126340D01*
X47743Y-118007D01*
Y-128007D01*
G01X61368Y-118007D02*
X64493Y-128007D01*
X67618Y-118007D01*
G01X74493Y-128007D02*
Y-118007D01*
X72993Y-120007D01*
G01Y-128007D02*
X75993D01*
G01X91993D02*
Y-118007D01*
X95118D01*
X96118Y-118507D01*
X96743Y-119174D01*
X96993Y-120507D01*
X96743Y-121840D01*
X95993Y-122673D01*
X95118Y-123174D01*
X91993D01*
G01X95118D02*
X96993Y-128007D01*
G01X102618Y-123507D02*
X106618D01*
X106243Y-122340D01*
X105618Y-121674D01*
X104743Y-121340D01*
X103868Y-121507D01*
X103118Y-122007D01*
X102618Y-123174D01*
X102368Y-124174D01*
Y-125173D01*
X102618Y-126174D01*
X103243Y-127174D01*
X103993Y-127840D01*
X104868Y-128007D01*
X105743Y-127674D01*
X106618Y-126674D01*
G01X112243Y-121340D02*
X114493Y-128007D01*
X116743Y-121340D01*
G01X122868Y-124674D02*
X126118D01*
G01X135493Y-122673D02*
X135993Y-122174D01*
X136368Y-121340D01*
X136618Y-120173D01*
X136368Y-119174D01*
X135868Y-118507D01*
X134993Y-118007D01*
X131618D01*
Y-128007D01*
X135743D01*
X136618Y-127340D01*
X137118Y-126340D01*
X137368Y-125173D01*
X137118Y-124007D01*
X136368Y-123007D01*
X135493Y-122673D01*
X131618D01*
G01X-177882Y-146507D02*
Y-136507D01*
X-173132D01*
G01X-174882Y-141340D02*
X-177882D01*
G01X-167007Y-136507D02*
X-164007D01*
G01X-165507D02*
Y-146507D01*
G01X-167007D02*
X-164007D01*
G01X-158007Y-136507D02*
Y-146507D01*
X-153007D01*
G01X-148757D02*
Y-136507D01*
X-145507Y-144840D01*
X-142257Y-136507D01*
Y-146507D01*
G01X-128007Y-136507D02*
Y-146507D01*
X-123007D01*
G01X-118632D02*
X-115507Y-136507D01*
X-112382Y-146507D01*
G01X-113507Y-143007D02*
X-117507D01*
G01X-105507Y-146507D02*
Y-142007D01*
X-108007Y-136507D01*
G01X-103007D02*
X-105507Y-142007D01*
G01X-93007Y-146507D02*
X-98007D01*
Y-136507D01*
X-93007D01*
G01X-95007Y-141340D02*
X-98007D01*
G01X-88007Y-146507D02*
Y-136507D01*
X-84882D01*
X-83882Y-137007D01*
X-83257Y-137673D01*
X-83007Y-139007D01*
X-83257Y-140340D01*
X-84007Y-141173D01*
X-84882Y-141674D01*
X-88007D01*
G01X-84882D02*
X-83007Y-146507D01*
G01X-75507Y-146840D02*
X-75757Y-146673D01*
Y-146340D01*
X-75507Y-146174D01*
X-75257Y-146340D01*
Y-146673D01*
X-75507Y-146840D01*
G01Y-142340D02*
X-75757Y-142174D01*
Y-141840D01*
X-75507Y-141674D01*
X-75257Y-141840D01*
Y-142174D01*
X-75507Y-142340D01*
G01X-178257Y-88007D02*
Y-78007D01*
X-175757D01*
X-174757Y-78507D01*
X-174007Y-79174D01*
X-173382Y-80173D01*
X-172882Y-81340D01*
X-172757Y-83007D01*
X-172882Y-84674D01*
X-173382Y-85840D01*
X-174007Y-86840D01*
X-174757Y-87507D01*
X-175757Y-88007D01*
X-178257D01*
G01X-168632D02*
X-165507Y-78007D01*
X-162382Y-88007D01*
G01X-163507Y-84507D02*
X-167507D01*
G01X-155507Y-78007D02*
Y-88007D01*
G01X-158382Y-78007D02*
X-152632D01*
G01X-143007Y-88007D02*
X-148007D01*
Y-78007D01*
X-143007D01*
G01X-145007Y-82840D02*
X-148007D01*
G01X-135507Y-88340D02*
X-135757Y-88173D01*
Y-87840D01*
X-135507Y-87674D01*
X-135257Y-87840D01*
Y-88173D01*
X-135507Y-88340D01*
G01Y-83840D02*
X-135757Y-83674D01*
Y-83340D01*
X-135507Y-83174D01*
X-135257Y-83340D01*
Y-83674D01*
X-135507Y-83840D01*
G01X-125507Y-78007D02*
X-126507Y-78340D01*
X-127257Y-79174D01*
X-127757Y-80173D01*
X-128132Y-81507D01*
X-128257Y-83007D01*
X-128132Y-84507D01*
X-127757Y-85840D01*
X-127257Y-86840D01*
X-126507Y-87674D01*
X-125507Y-88007D01*
X-124507Y-87674D01*
X-123757Y-86840D01*
X-123257Y-85840D01*
X-122882Y-84507D01*
X-122757Y-83007D01*
X-122882Y-81507D01*
X-123257Y-80173D01*
X-123757Y-79174D01*
X-124507Y-78340D01*
X-125507Y-78007D01*
G01X-114007Y-88007D02*
Y-78007D01*
X-118632Y-85174D01*
X-112382D01*
G01X-107132Y-84674D02*
X-103882D01*
G01X-98007Y-86007D02*
X-97382Y-87007D01*
X-96632Y-87674D01*
X-95757Y-88007D01*
X-94757Y-87674D01*
X-94007Y-87007D01*
X-93257Y-86007D01*
X-93007Y-84674D01*
Y-78007D01*
G01X-88257D02*
Y-85174D01*
X-87757Y-86674D01*
X-86757Y-87674D01*
X-85507Y-88007D01*
X-84257Y-87674D01*
X-83257Y-86674D01*
X-82757Y-85174D01*
Y-78007D01*
G01X-78007D02*
Y-88007D01*
X-73007D01*
G01X-65507D02*
Y-83507D01*
X-68007Y-78007D01*
G01X-63007D02*
X-65507Y-83507D01*
G01X-57132Y-84674D02*
X-53882D01*
G01X-47882Y-79673D02*
X-47132Y-78674D01*
X-46257Y-78173D01*
X-45257Y-78007D01*
X-44007Y-78340D01*
X-43132Y-79174D01*
X-42882Y-80173D01*
X-43007Y-81174D01*
X-43507Y-82007D01*
X-46007Y-83674D01*
X-47132Y-84840D01*
X-47882Y-86507D01*
X-48132Y-88007D01*
X-42882D01*
G01X-35507Y-78007D02*
X-36507Y-78340D01*
X-37257Y-79174D01*
X-37757Y-80173D01*
X-38132Y-81507D01*
X-38257Y-83007D01*
X-38132Y-84507D01*
X-37757Y-85840D01*
X-37257Y-86840D01*
X-36507Y-87674D01*
X-35507Y-88007D01*
X-34507Y-87674D01*
X-33757Y-86840D01*
X-33257Y-85840D01*
X-32882Y-84507D01*
X-32757Y-83007D01*
X-32882Y-81507D01*
X-33257Y-80173D01*
X-33757Y-79174D01*
X-34507Y-78340D01*
X-35507Y-78007D01*
G01X-27882Y-79673D02*
X-27132Y-78674D01*
X-26257Y-78173D01*
X-25257Y-78007D01*
X-24007Y-78340D01*
X-23132Y-79174D01*
X-22882Y-80173D01*
X-23007Y-81174D01*
X-23507Y-82007D01*
X-26007Y-83674D01*
X-27132Y-84840D01*
X-27882Y-86507D01*
X-28132Y-88007D01*
X-22882D01*
G01X-15507Y-78007D02*
X-16507Y-78340D01*
X-17257Y-79174D01*
X-17757Y-80173D01*
X-18132Y-81507D01*
X-18257Y-83007D01*
X-18132Y-84507D01*
X-17757Y-85840D01*
X-17257Y-86840D01*
X-16507Y-87674D01*
X-15507Y-88007D01*
X-14507Y-87674D01*
X-13757Y-86840D01*
X-13257Y-85840D01*
X-12882Y-84507D01*
X-12757Y-83007D01*
X-12882Y-81507D01*
X-13257Y-80173D01*
X-13757Y-79174D01*
X-14507Y-78340D01*
X-15507Y-78007D01*
G01X-15794Y-135310D02*
Y-145310D01*
X-10794D01*
G01X-3294D02*
X-2420Y-145144D01*
X-1420Y-144644D01*
X-794Y-143811D01*
X-544Y-142644D01*
X-794Y-141477D01*
X-1544Y-140477D01*
X-2669Y-139977D01*
X-3919D01*
X-4669Y-139644D01*
X-5294Y-138811D01*
X-5544Y-137644D01*
X-5169Y-136477D01*
X-4294Y-135644D01*
X-3294Y-135310D01*
X-2294Y-135644D01*
X-1420Y-136477D01*
X-1044Y-137644D01*
X-1294Y-138811D01*
X-1919Y-139644D01*
X-2669Y-139977D01*
X-3919D01*
X-5044Y-140477D01*
X-5794Y-141477D01*
X-6044Y-142644D01*
X-5794Y-143811D01*
X-5169Y-144644D01*
X-4169Y-145144D01*
X-3294Y-145310D01*
G01X16993Y-88007D02*
Y-78007D01*
X19993D01*
X20993Y-78507D01*
X21743Y-79673D01*
X21993Y-81007D01*
X21743Y-82340D01*
X21118Y-83340D01*
X19993Y-83840D01*
X16993D01*
G01X26368Y-88007D02*
X29493Y-78007D01*
X32618Y-88007D01*
G01X31493Y-84507D02*
X27493D01*
G01X36993Y-88007D02*
Y-78007D01*
X40118D01*
X41118Y-78507D01*
X41743Y-79174D01*
X41993Y-80507D01*
X41743Y-81840D01*
X40993Y-82673D01*
X40118Y-83174D01*
X36993D01*
G01X40118D02*
X41993Y-88007D01*
G01X49493Y-78007D02*
Y-88007D01*
G01X46618Y-78007D02*
X52368D01*
G01X66618Y-88007D02*
Y-78007D01*
X72368Y-88007D01*
Y-78007D01*
G01X76743D02*
Y-85174D01*
X77243Y-86674D01*
X78243Y-87674D01*
X79493Y-88007D01*
X80743Y-87674D01*
X81743Y-86674D01*
X82243Y-85174D01*
Y-78007D01*
G01X86243Y-88007D02*
Y-78007D01*
X89493Y-86340D01*
X92743Y-78007D01*
Y-88007D01*
G01X100493Y-82673D02*
X100993Y-82174D01*
X101368Y-81340D01*
X101618Y-80173D01*
X101368Y-79174D01*
X100868Y-78507D01*
X99993Y-78007D01*
X96618D01*
Y-88007D01*
X100743D01*
X101618Y-87340D01*
X102118Y-86340D01*
X102368Y-85174D01*
X102118Y-84007D01*
X101368Y-83007D01*
X100493Y-82673D01*
X96618D01*
G01X111993Y-88007D02*
X106993D01*
Y-78007D01*
X111993D01*
G01X109993Y-82840D02*
X106993D01*
G01X116993Y-88007D02*
Y-78007D01*
X120118D01*
X121118Y-78507D01*
X121743Y-79174D01*
X121993Y-80507D01*
X121743Y-81840D01*
X120993Y-82673D01*
X120118Y-83174D01*
X116993D01*
G01X120118D02*
X121993Y-88007D01*
G01X129493Y-88340D02*
X129243Y-88173D01*
Y-87840D01*
X129493Y-87674D01*
X129743Y-87840D01*
Y-88173D01*
X129493Y-88340D01*
G01Y-83840D02*
X129243Y-83674D01*
Y-83340D01*
X129493Y-83174D01*
X129743Y-83340D01*
Y-83674D01*
X129493Y-83840D01*
G01X139493Y-78007D02*
Y-88007D01*
G01X136618Y-78007D02*
X142368D01*
G01X146618Y-88007D02*
Y-78007D01*
X152368Y-88007D01*
Y-78007D01*
G01X157868Y-84674D02*
X161118D01*
G01X172243Y-78840D02*
X171493Y-78340D01*
X170618Y-78007D01*
X169618D01*
X168493Y-78507D01*
X167618Y-79340D01*
X166993Y-80340D01*
X166493Y-82007D01*
X166368Y-83507D01*
X166618Y-85007D01*
X166993Y-86007D01*
X167743Y-87007D01*
X168618Y-87674D01*
X169493Y-88007D01*
X170368D01*
X171243Y-87674D01*
X171993Y-87174D01*
X172618Y-86507D01*
G01X179493Y-88007D02*
X178493Y-87840D01*
X177618Y-87174D01*
X176868Y-86174D01*
X176368Y-85007D01*
X176118Y-83674D01*
Y-82340D01*
X176368Y-81007D01*
X176868Y-79840D01*
X177618Y-78840D01*
X178493Y-78173D01*
X179493Y-78007D01*
X180493Y-78173D01*
X181368Y-78840D01*
X182118Y-79840D01*
X182618Y-81007D01*
X182868Y-82340D01*
Y-83674D01*
X182618Y-85007D01*
X182118Y-86174D01*
X181368Y-87174D01*
X180493Y-87840D01*
X179493Y-88007D01*
G01X186243D02*
Y-78007D01*
X189493Y-86340D01*
X192743Y-78007D01*
Y-88007D01*
G01X196243D02*
Y-78007D01*
X199493Y-86340D01*
X202743Y-78007D01*
Y-88007D01*
G01X207868Y-84674D02*
X211118D01*
G01X216368Y-78007D02*
X219493Y-88007D01*
X222618Y-78007D01*
G01X229493Y-88007D02*
Y-78007D01*
X227993Y-80007D01*
G01Y-88007D02*
X230993D01*
G01X237868Y-84674D02*
X241118D01*
G01X246993Y-88007D02*
Y-78007D01*
X250118D01*
X251118Y-78507D01*
X251743Y-79174D01*
X251993Y-80507D01*
X251743Y-81840D01*
X250993Y-82673D01*
X250118Y-83174D01*
X246993D01*
G01X250118D02*
X251993Y-88007D01*
G01X261993D02*
X256993D01*
Y-78007D01*
X261993D01*
G01X259993Y-82840D02*
X256993D01*
G01X266368Y-78007D02*
X269493Y-88007D01*
X272618Y-78007D01*
G01X280493Y-82673D02*
X280993Y-82174D01*
X281368Y-81340D01*
X281618Y-80173D01*
X281368Y-79174D01*
X280868Y-78507D01*
X279993Y-78007D01*
X276618D01*
Y-88007D01*
X280743D01*
X281618Y-87340D01*
X282118Y-86340D01*
X282368Y-85174D01*
X282118Y-84007D01*
X281368Y-83007D01*
X280493Y-82673D01*
X276618D01*
G01X12000Y-2D02*
X337997D01*
G01Y399998D02*
X12000D01*
G54D28*
G01X128934Y224976D02*
X137791Y233833D01*
X142126D01*
X149578Y241285D01*
Y249314D01*
X150149Y249885D01*
G54D19*
G01X89919Y311161D02*
X86944D01*
X84349Y308566D01*
Y294760D01*
X86934Y292176D01*
Y276868D01*
X74893Y264827D01*
Y254399D01*
X77670Y251623D01*
Y248011D01*
X73834Y244176D01*
G01X82858Y253290D02*
X84011Y252136D01*
X136394D01*
X147681Y263422D01*
Y269732D01*
X152388Y274440D01*
Y279878D01*
X150658Y281609D01*
X148393D01*
X146914Y283089D01*
G01X128634Y261676D02*
X120849Y253890D01*
X103107D01*
X100839Y256158D01*
G01X79331Y243550D02*
Y259398D01*
X88769Y268837D01*
Y291190D01*
G01X73534Y241676D02*
X75666Y239544D01*
Y238266D01*
X74966Y237566D01*
X70056D01*
X56805Y250818D01*
Y264004D01*
X51970Y268839D01*
Y277780D01*
X54639Y280449D01*
X59312D01*
G01X73172Y239519D02*
X70556D01*
X69808Y240267D01*
Y254963D01*
X73506Y258661D01*
Y265341D01*
X85134Y276969D01*
Y291476D01*
G01X59312Y280449D02*
Y305987D01*
X59509Y306184D01*
G01X54351Y307759D02*
Y328925D01*
X52898Y330378D01*
G01X75768Y276134D02*
X73610D01*
X71838Y277906D01*
X62711D01*
X61216Y279401D01*
Y307920D01*
X60140Y308996D01*
X55588D01*
X54351Y307759D01*
G01X223428Y339247D02*
X217276D01*
X212468Y334440D01*
X198770D01*
X192203Y341007D01*
X157829D01*
X153337Y336515D01*
Y296650D01*
X146914Y290227D01*
Y283089D01*
G01X242659Y342650D02*
X238408D01*
X237420Y341662D01*
X217908D01*
X208794Y350776D01*
X152980D01*
X137358Y335154D01*
Y331430D01*
X134380Y328451D01*
Y319066D01*
X144510Y308936D01*
Y282600D01*
X147184Y279926D01*
Y273426D01*
X145834Y272076D01*
Y266205D01*
G54D29*
G01X113762Y245612D02*
X112026Y243876D01*
X111434D01*
X105204Y237646D01*
X103937D01*
M02*
