M48
INCH
T01C.01
T02C.03937
T03C.0394
T04C.04291
T05C.0472
T06C.05512
T07C.06299
T08C.1457
T09C.02
T10C.043
T11C.044
T12C.064
;LEADER: 12 
;HEADER: 
;CODE  : ASCII 
;FILE  : mask-C2-RevC-1-4.drl for  ... layers TOP and BOTTOM
;T01 Holesize 1. = 10.000000 Tolerance = +3.000000/-3.000000 PLATED MILS Quantity = 551
;T02 Holesize 2. = 39.370000 Tolerance = +3.000000/-3.000000 PLATED MILS Quantity = 2
;T03 Holesize 3. = 39.400000 Tolerance = +3.000000/-3.000000 PLATED MILS Quantity = 4
;T04 Holesize 4. = 42.910000 Tolerance = +0.000000/-0.000000 PLATED MILS Quantity = 5
;T05 Holesize 5. = 47.200000 Tolerance = +3.000000/-3.000000 PLATED MILS Quantity = 4
;T06 Holesize 6. = 55.120000 Tolerance = +3.000000/-3.000000 PLATED MILS Quantity = 4
;T07 Holesize 7. = 62.990000 Tolerance = +3.000000/-3.000000 PLATED MILS Quantity = 4
;T08 Holesize 8. = 145.700000 Tolerance = +3.000000/-3.000000 PLATED MILS Quantity = 3
;T09 Holesize 9. = 20.000000 Tolerance = +3.000000/-3.000000 NON_PLATED MILS Quantity = 8
;T10 Holesize 10. = 43.000000 Tolerance = +3.000000/-3.000000 NON_PLATED MILS Quantity = 8
;T11 Holesize 11. = 44.000000 Tolerance = +3.150000/-3.150000 NON_PLATED MILS Quantity = 4
;T12 Holesize 12. = 64.000000 Tolerance = +1.970000/-1.970000 NON_PLATED MILS Quantity = 4
%
G90
T01
X0000405000Y0000274000
X0000405000Y0000277000
X0000405000Y0000268000
X0000405000Y0000271000
X0000401000Y0000274000
X0000401000Y0000277000
X0000401000Y0000271000
X0000401000Y0000268000
X0000397000Y0000277000
X0000397000Y0000274000
X0000227167Y0000085830
X0000238782Y0000085841
X0000227473Y0000098493
X0000268710Y0000140670
X0000341920Y0000230720
R02X0000005000
X0000351920Y0000225720
R02X-0000005000
X0000275462Y0000098162
X0000289937Y0000144663
X0000300431Y0000098793
X0000304431Y0000098793
X0000300431Y0000094793
X0000304431Y0000094793
X0000300431Y0000090793
X0000304431Y0000090793
X0000300431Y0000086793
X0000110420Y0000187278
X0000113520Y0000187278
X0000110260Y0000190048
X0000113460Y0000189948
X0000110100Y0000043600
X0000113200Y0000043600
X0000110200Y0000031000
X0000113400Y0000030900
X0000142820Y0000028890
X0000142695Y0000053975
X0000142100Y0000101200
X0000146930Y0000171010
X0000142790Y0000196110
X0000141900Y0000245900
X0000109980Y0000177460
X0000113070Y0000177290
X0000113090Y0000174690
X0000109980Y0000174810
X0000414700Y0000184330
X0000190580Y0000185750
X0000237510Y0000223980
X0000402350Y0000196680
X0000421280Y0000062000
X0000181500Y0000110300
X0000193400Y0000101400
X0000178900Y0000106600
X0000104380Y0000014310
X0000057100Y0000040900
X0000057100Y0000036900
X0000057100Y0000044900
X0000057100Y0000048900
X0000053100Y0000044900
R02Y-0000004000
X0000053100Y0000048900
X0000049100Y0000044900
R02Y-0000004000
X0000049100Y0000048900
X0000141970Y0000016175
X0000141900Y0000060230
X0000142000Y0000107520
X0000410730Y0000041670
X0000080700Y0000027190
X0000179160Y0000066590
X0000142207Y0000211243
X0000192900Y0000091500
X0000148630Y0000211890
X0000232100Y0000141300
X0000135100Y0000261940
X0000408063Y0000068393
X0000142000Y0000252188
X0000143130Y0000160830
X0000141870Y0000204943
X0000101040Y0000111920
X0000110860Y0000250380
X0000111170Y0000114120
X0000195600Y0000077600
X0000420940Y0000034000
X0000209400Y0000080000
X0000121310Y0000244553
X0000409060Y0000018510
X0000221100Y0000079000
X0000276800Y0000130400
X0000216400Y0000078700
X0000272400Y0000129100
X0000128890Y0000075050
X0000045800Y0000192800
X0000050300Y0000192700
X0000130627Y0000208093
X0000308440Y0000073720
X0000333760Y0000085520
X0000244300Y0000230000
X0000244780Y0000188500
X0000402220Y0000027210
X0000121815Y0000079585
X0000183400Y0000135800
X0000218260Y0000065950
X0000124340Y0000211130
X0000240340Y0000027850
X0000247930Y0000037630
X0000234390Y0000063430
X0000191940Y0000116120
X0000230410Y0000023450
X0000409030Y0000053090
X0000207410Y0000009290
X0000421470Y0000048000
X0000021585Y0000216951
X0000017885Y0000216951
X0000027995Y0000245283
X0000027995Y0000241583
X0000376560Y0000254960
R03X0000005000
X0000386560Y0000249960
X0000391560Y0000249960
X0000010580Y0000262010
X0000013700Y0000261960
X0000253020Y0000080360
X0000372029Y0000210023
X0000372029Y0000214023
X0000376029Y0000210023
X0000376029Y0000214023
X0000257020Y0000080360
X0000257020Y0000076860
X0000253020Y0000076860
X0000316500Y0000077800
R02Y-0000004000
X0000357200Y0000084800
X0000363400Y0000127100
X0000363400Y0000131100
X0000367400Y0000131100
X0000371400Y0000131100
X0000367400Y0000127100
X0000371400Y0000127100
X0000357200Y0000088800
R02Y0000004000
X0000361200Y0000092800
R02Y-0000004000
X0000361200Y0000096800
X0000358400Y0000131100
X0000308360Y0000237860
R02X0000005000
X0000318360Y0000232860
R02X-0000005000
X0000308360Y0000227860
R02X0000005000
X0000006730Y0000269850
X0000261690Y0000163770
X0000311000Y0000055430
X0000182900Y0000088300
X0000200270Y0000087171
X0000202480Y0000102960
X0000115640Y0000120790
X0000133410Y0000138760
X0000224160Y0000078080
X0000098430Y0000250700
X0000178460Y0000099680
X0000402300Y0000048660
X0000371300Y0000057410
X0000371300Y0000060410
X0000368500Y0000057510
X0000368500Y0000060510
X0000371300Y0000054410
X0000368500Y0000054510
X0000182900Y0000099300
X0000182900Y0000103300
X0000210200Y0000109600
X0000214400Y0000108300
X0000238146Y0000108146
X0000215250Y0000119000
X0000238147Y0000122157
X0000238068Y0000115159
X0000203000Y0000162500
X0000221109Y0000166709
X0000244400Y0000234200
X0000234300Y0000249000
R02X-0000004000
X0000230400Y0000097100
X0000400199Y0000108508
X0000404199Y0000108508
X0000404199Y0000112508
X0000400199Y0000112508
X0000085890Y0000213800
X0000089890Y0000213800
X0000089890Y0000209800
X0000093890Y0000213800
X0000093890Y0000209800
X0000247030Y0000121890
R03Y-0000004000
X0000133410Y0000134760
X0000129410Y0000134760
X0000129410Y0000138760
X0000137410Y0000134760
X0000137410Y0000138760
X0000141410Y0000134760
X0000141410Y0000138760
X0000145410Y0000134760
X0000145410Y0000138760
X0000269114Y0000163886
X0000282500Y0000163900
X0000006760Y0000272610
X0000350029Y0000078759
X0000334900Y0000074410
X0000332210Y0000099010
X0000324820Y0000097780
X0000305720Y0000086690
X0000311620Y0000078260
X0000023100Y0000191100
X0000006200Y0000226800
X0000074910Y0000255970
X0000307790Y0000078390
X0000206242Y0000139142
X0000226900Y0000213560
X0000141190Y0000261760
X0000296740Y0000084280
X0000299010Y0000204380
X0000296810Y0000200540
X0000294610Y0000197650
X0000301530Y0000209150
X0000293600Y0000180120
X0000292790Y0000184830
X0000028050Y0000221200
X0000043800Y0000223963
X0000056663Y0000229161
X0000295180Y0000187410
X0000043800Y0000227663
X0000048966Y0000220300
X0000395780Y0000136100
X0000047990Y0000209833
X0000047990Y0000206133
X0000075300Y0000036200
X0000067000Y0000212000
X0000119930Y0000189500
X0000409190Y0000006720
X0000142520Y0000034160
X0000142745Y0000044525
X0000146930Y0000054280
X0000110550Y0000065000
X0000096480Y0000054250
X0000110800Y0000055550
X0000301695Y0000070705
X0000328210Y0000098860
X0000148870Y0000063350
X0000154000Y0000080780
X0000130045Y0000019325
X0000153270Y0000016180
X0000085300Y0000202300
X0000130000Y0000164000
X0000141873Y0000189193
X0000141880Y0000202160
X0000148870Y0000207770
X0000388638Y0000102048
X0000401059Y0000123645
X0000401093Y0000116030
X0000227249Y0000122171
X0000227558Y0000115106
X0000236700Y0000100779
X0000237537Y0000089884
X0000087090Y0000017800
X0000074080Y0000012660
X0000041600Y0000022800
X0000351816Y0000193205
X0000311300Y0000098210
X0000119600Y0000033700
X0000130765Y0000249100
X0000012000Y0000249400
X0000278100Y0000063400
X0000278100Y0000053400
X0000282100Y0000053400
X0000274100Y0000053400
X0000274100Y0000058400
X0000282100Y0000058400
X0000278100Y0000058400
X0000274100Y0000063400
X0000282100Y0000063400
X0000214225Y0000067975
X0000196530Y0000087270
X0000215725Y0000098300
X0000219725Y0000098300
X0000211725Y0000098300
X0000215725Y0000090300
X0000219725Y0000090300
X0000211725Y0000090300
X0000211725Y0000094300
X0000219725Y0000094300
X0000215725Y0000094300
X0000276168Y0000091032
X0000096840Y0000085450
X0000222783Y0000111916
X0000234100Y0000097000
X0000257900Y0000094800
X0000263400Y0000101900
X0000271781Y0000104832
X0000129900Y0000103070
X0000148870Y0000104402
X0000148870Y0000110702
X0000219750Y0000119000
X0000210251Y0000141849
X0000214040Y0000145640
X0000277200Y0000147800
X0000293677Y0000144663
X0000221109Y0000170449
X0000097700Y0000187618
X0000109940Y0000200300
X0000241600Y0000250400
X0000202333Y0000226500
X0000202333Y0000220500
X0000208333Y0000226500
X0000208333Y0000220500
X0000214333Y0000220500
X0000222333Y0000220500
X0000218333Y0000220500
X0000218333Y0000226500
X0000222333Y0000226500
X0000214333Y0000226500
X0000214333Y0000248500
X0000222333Y0000248500
X0000218333Y0000248500
X0000218333Y0000232500
X0000222333Y0000232500
X0000214333Y0000232500
X0000214333Y0000242500
X0000214333Y0000237500
X0000222333Y0000237500
X0000222333Y0000242500
X0000218333Y0000242500
X0000218333Y0000237500
X0000148870Y0000249070
X0000148870Y0000255370
X0000006730Y0000234330
X0000031300Y0000246400
X0000030800Y0000240400
X0000030100Y0000231800
X0000029668Y0000228732
X0000030559Y0000222758
X0000030580Y0000218200
X0000030580Y0000210900
X0000029200Y0000199100
X0000030628Y0000193208
X0000008700Y0000186500
X0000011900Y0000186600
X0000015000Y0000186600
X0000295251Y0000024870
X0000295251Y0000035130
X0000301846Y0000042990
X0000022000Y0000142200
X0000018000Y0000142200
X0000018000Y0000136200
X0000022000Y0000136200
X0000014000Y0000142200
X0000018000Y0000148200
X0000022000Y0000148200
X0000014000Y0000148200
X0000284700Y0000212200
X0000280700Y0000212200
X0000280700Y0000206200
X0000284700Y0000206200
X0000276700Y0000212200
X0000276700Y0000206200
X0000280700Y0000218200
X0000284700Y0000218200
X0000276700Y0000218200
X0000322300Y0000140400
R02X-0000004000
X0000318300Y0000144400
X0000322300Y0000144400
X0000318300Y0000148400
X0000322300Y0000148400
X0000314300Y0000144400
X0000314300Y0000148400
X0000116500Y0000043600
X0000119600Y0000043600
X0000116290Y0000030990
X0000173325Y0000091500
X0000177325Y0000091500
X0000169325Y0000091500
X0000169325Y0000095500
X0000177325Y0000095500
X0000173325Y0000095500
X0000162800Y0000225100
X0000158200Y0000225600
X0000351904Y0000189308
X0000347128Y0000181417
X0000350640Y0000168430
X0000352403Y0000163695
X0000365410Y0000140120
X0000348400Y0000137900
X0000352091Y0000135910
X0000376000Y0000193228
X0000342900Y0000063010
X0000342900Y0000066010
X0000339900Y0000063010
X0000339900Y0000066010
X0000028500Y0000205100
X0000041600Y0000017800
X0000046600Y0000017800
X0000046600Y0000022800
X0000051600Y0000017800
X0000056600Y0000017800
X0000380900Y0000025200
X0000384900Y0000025200
X0000380900Y0000030200
X0000384900Y0000030200
X0000376900Y0000025200
X0000376900Y0000030200
X0000376900Y0000040200
X0000376900Y0000035200
X0000384900Y0000040200
X0000380900Y0000040200
X0000384900Y0000035200
X0000380900Y0000035200
X0000376900Y0000050200
X0000376900Y0000045200
X0000384900Y0000050200
X0000380900Y0000050200
X0000384900Y0000045200
X0000380900Y0000045200
X0000323200Y0000052400
X0000323200Y0000057400
X0000319200Y0000052400
X0000319200Y0000057400
X0000327200Y0000052400
X0000327200Y0000057400
X0000006400Y0000205000
X0000006300Y0000222700
X0000006400Y0000216900
X0000006300Y0000210900
X0000390200Y0000036400
X0000394200Y0000036400
X0000390200Y0000040400
X0000394200Y0000040400
X0000390200Y0000044400
X0000394200Y0000044400
X0000394200Y0000048400
X0000390200Y0000048400
X0000394200Y0000052400
X0000390200Y0000052400
X0000236357Y0000081265
X0000226851Y0000104409
X0000376000Y0000187323
X0000376000Y0000181417
X0000376000Y0000175512
X0000376000Y0000169606
X0000376000Y0000163701
X0000376000Y0000157795
X0000376000Y0000151890
X0000376000Y0000145984
X0000376000Y0000140079
X0000352403Y0000157789
X0000352403Y0000151884
X0000295251Y0000169538
X0000257937Y0000153323
X0000227757Y0000126679
X0000214601Y0000126634
X0000210964Y0000122638
X0000202613Y0000125333
X0000192061Y0000124121
X0000221134Y0000122777
X0000205668Y0000218602
X0000225730Y0000218820
X0000328211Y0000237040
X0000109640Y0000231740
X0000352750Y0000088260
X0000153300Y0000225600
X0000141873Y0000179743
X0000097700Y0000209668
X0000129984Y0000214393
X0000097950Y0000096550
X0000158843Y0000080780
X0000163500Y0000080780
X0000305290Y0000066260
X0000097370Y0000042950
X0000119880Y0000185500
X0000119880Y0000181370
X0000120230Y0000176600
X0000046600Y0000013800
X0000041600Y0000013800
X0000056600Y0000013800
X0000051600Y0000013800
X0000295251Y0000020870
X0000295251Y0000016870
X0000291251Y0000016870
X0000291251Y0000020870
X0000293570Y0000262070
X0000285570Y0000262070
X0000289570Y0000262070
X0000293570Y0000258070
X0000285570Y0000258070
X0000289570Y0000258070
X0000194945Y0000053080
X0000202945Y0000053080
X0000198945Y0000053080
X0000198945Y0000057080
X0000202945Y0000057080
X0000194945Y0000057080
X0000171325Y0000052280
X0000179325Y0000052280
X0000175325Y0000052280
X0000175325Y0000056280
X0000179325Y0000056280
X0000171325Y0000056280
X0000237245Y0000044940
X0000245245Y0000044940
X0000241245Y0000044940
X0000241245Y0000048940
X0000245245Y0000048940
X0000237245Y0000048940
X0000060270Y0000183710
X0000056270Y0000183710
X0000060270Y0000187710
X0000056270Y0000187710
X0000064270Y0000183710
X0000064270Y0000187710
X0000064270Y0000179710
X0000056270Y0000179710
X0000060270Y0000179710
X0000111510Y0000241970
X0000339590Y0000248850
X0000403740Y0000137990
X0000293670Y0000192690
X0000045266Y0000220300
X0000054046Y0000226544
X0000043780Y0000200223
X0000097910Y0000028560
X0000249680Y0000140750
X0000276700Y0000142300
X0000043780Y0000203923
X0000024350Y0000221200
X0000095470Y0000025440
X0000247688Y0000136664
T02
X0000403930Y0000261276
X0000413772Y0000261276
T03
X0000364782Y0000110551
X0000364782Y0000218819
X0000375018Y0000110551
X0000375018Y0000218819
T04
X0000079311Y0000263340
X0000059311Y0000263340
X0000059311Y0000243340
R02X0000010000
T05
X0000355235Y0000126299
X0000355235Y0000203071
X0000384565Y0000126299
X0000384565Y0000203071
T06
X0000029650Y0000268419
X0000029650Y0000167237
X0000019290Y0000268419
X0000019290Y0000167237
T07
X0000012400Y0000256288
X0000012400Y0000179368
X0000036540Y0000256288
X0000036540Y0000179368
T08
X0000045320Y0000140450
X0000405319Y0000231535
X0000405319Y0000090300
T09
X0000000000Y0000052472
X0000000000Y0000047472
X0000000000Y0000252472
X0000000000Y0000247472
X0000430315Y0000247472
X0000430315Y0000252472
X0000430315Y0000047472
X0000430315Y0000052472
T10
X0000000000Y0000057472
X0000000000Y0000042472
X0000000000Y0000257472
X0000000000Y0000242472
X0000430315Y0000242472
X0000430315Y0000257472
X0000430315Y0000042472
X0000430315Y0000057472
T11
X0000120173Y0000158087
X0000318598Y0000159662
X0000120173Y0000013419
X0000318598Y0000014994
T12
X0000120173Y0000256519
X0000318598Y0000254944
X0000120173Y0000111851
X0000318598Y0000110276
M30
