G04 ================== begin FILE IDENTIFICATION RECORD ==================*
G04 Layout Name:  toweNode-eNB-07042023.brd*
G04 Film Name:    toweNode-eNB-v1.0-RevC_PMB.gbr*
G04 File Format:  Gerber RS274X*
G04 File Origin:  Cadence Allegro -unreleased*
G04 Origin Date:  Fri Apr  7 20:57:59 2023*
G04 *
G04 Layer:  BOARD GEOMETRY/TITLE_BLOCK*
G04 Layer:  BOARD GEOMETRY/OUTLINE*
G04 Layer:  DRAWING FORMAT/OUTLINE_DATA*
G04 Layer:  PACKAGE GEOMETRY/PASTEMASK_BOTTOM*
G04 Layer:  PIN/PASTEMASK_BOTTOM*
G04 *
G04 Offset:    (0.000 0.000)*
G04 Mirror:    No*
G04 Mode:      Positive*
G04 Rotation:  0*
G04 FullContactRelief:  No*
G04 UndefLineWidth:     6.000*
G04 ================== end FILE IDENTIFICATION RECORD ====================*
%FSLAX25Y25*MOIN*%
%IR0*IPPOS*OFA0.00000B0.00000*MIA0B0*SFA1.00000B1.00000*%
%ADD56R,.029921X.066929*%
%AMMACRO31*
4,1,21,.006,-.014,
.006,.02,
-.006,.02,
-.006,-.014,
-.005909,-.015042,
-.005638,-.016052,
-.005196,-.017,
-.004596,-.017857,
-.003857,-.018596,
-.003,-.019196,
-.002052,-.019638,
-.001042,-.019909,
0.0,-.02,
.001042,-.019909,
.002052,-.019638,
.003,-.019196,
.003857,-.018596,
.004596,-.017857,
.005196,-.017,
.005638,-.016052,
.005909,-.015042,
.006,-.014,
0.0*
%
%ADD31MACRO31*%
%ADD61R,.025598X.011799*%
%ADD40O,.068988X.021748*%
%ADD37R,.1X.036*%
%ADD13R,.08898X.085039*%
%AMMACRO88*
4,1,22,.008199,.0055,
-.013801,.0055,
-.013801,-.0055,
.008199,-.0055,
.009156,-.005434,
.010086,-.005203,
.010962,-.004813,
.011758,-.004278,
.012448,-.003612,
.013012,-.002837,
.013433,-.001975,
.013698,-.001054,
.013799,-.0001,
.013733,.000857,
.013502,.001787,
.013112,.002663,
.012577,.003459,
.011911,.004149,
.011136,.004713,
.010274,.005134,
.009353,.005399,
.008399,.0055,
.008199,.0055,
0.0*
%
%ADD88MACRO88*%
%AMMACRO90*
4,1,22,.0055,-.008199,
.0055,.013801,
-.0055,.013801,
-.0055,-.008199,
-.005434,-.009156,
-.005203,-.010086,
-.004813,-.010962,
-.004278,-.011758,
-.003612,-.012448,
-.002837,-.013012,
-.001975,-.013433,
-.001054,-.013698,
-.0001,-.013799,
.000857,-.013733,
.001787,-.013502,
.002663,-.013112,
.003459,-.012577,
.004149,-.011911,
.004713,-.011136,
.005134,-.010274,
.005399,-.009353,
.0055,-.008399,
.0055,-.008199,
0.0*
%
%ADD90MACRO90*%
%ADD42R,.11X.055*%
%ADD84R,.023598X.059799*%
%ADD41R,.08X.108*%
%ADD70R,.008X.024*%
%ADD19C,.320961*%
%ADD85R,.140902X.055902*%
%ADD44R,.093701X.354331*%
%ADD97R,.070902X.007902*%
%ADD77R,.007902X.007902*%
%ADD18O,.159539X.061118*%
%ADD29R,.129921X.098421*%
%ADD12R,.098421X.129921*%
%AMMACRO10*
4,1,44,.009252,-.025638,
.009252,.025638,
.009217,.02604,
.009114,.026429,
.008944,.026794,
.008713,.027125,
.008428,.02741,
.008098,.027642,
.007733,.027813,
.007344,.027917,
.006943,.027953,
.006937,.027953,
-.006937,.027953,
-.007339,.027918,
-.007728,.027815,
-.008093,.027645,
-.008424,.027414,
-.008709,.027129,
-.008941,.026799,
-.009112,.026434,
-.009216,.026045,
-.009252,.025644,
-.009252,.025638,
-.009252,-.025638,
-.009217,-.02604,
-.009114,-.026429,
-.008944,-.026794,
-.008713,-.027125,
-.008428,-.02741,
-.008098,-.027642,
-.007733,-.027813,
-.007344,-.027917,
-.006943,-.027953,
-.006937,-.027953,
.006937,-.027953,
.007339,-.027918,
.007728,-.027815,
.008093,-.027645,
.008424,-.027414,
.008709,-.027129,
.008941,-.026799,
.009112,-.026434,
.009216,-.026045,
.009252,-.025644,
.009252,-.025638,
0.0*
%
%ADD10MACRO10*%
%AMMACRO34*
4,1,21,-.014,-.006,
.02,-.006,
.02,.006,
-.014,.006,
-.015042,.005909,
-.016052,.005638,
-.017,.005196,
-.017857,.004596,
-.018596,.003857,
-.019196,.003,
-.019638,.002052,
-.019909,.001042,
-.02,0.0,
-.019909,-.001042,
-.019638,-.002052,
-.019196,-.003,
-.018596,-.003857,
-.017857,-.004596,
-.017,-.005196,
-.016052,-.005638,
-.015042,-.005909,
-.014,-.006,
0.0*
%
%ADD34MACRO34*%
%AMMACRO30*
4,1,21,-.006,.014,
-.006,-.02,
.006,-.02,
.006,.014,
.005909,.015042,
.005638,.016052,
.005196,.017,
.004596,.017857,
.003857,.018596,
.003,.019196,
.002052,.019638,
.001042,.019909,
0.0,.02,
-.001042,.019909,
-.002052,.019638,
-.003,.019196,
-.003857,.018596,
-.004596,.017857,
-.005196,.017,
-.005638,.016052,
-.005909,.015042,
-.006,.014,
0.0*
%
%ADD30MACRO30*%
%AMMACRO95*
4,1,22,-.008199,-.0055,
.013801,-.0055,
.013801,.0055,
-.008199,.0055,
-.009156,.005434,
-.010086,.005203,
-.010962,.004813,
-.011758,.004278,
-.012448,.003612,
-.013012,.002837,
-.013433,.001975,
-.013698,.001054,
-.013799,.0001,
-.013733,-.000857,
-.013502,-.001787,
-.013112,-.002663,
-.012577,-.003459,
-.011911,-.004149,
-.011136,-.004713,
-.010274,-.005134,
-.009353,-.005399,
-.008399,-.0055,
-.008199,-.0055,
0.0*
%
%ADD95MACRO95*%
%AMMACRO89*
4,1,22,-.0055,.008199,
-.0055,-.013801,
.0055,-.013801,
.0055,.008199,
.005434,.009156,
.005203,.010086,
.004813,.010962,
.004278,.011758,
.003612,.012448,
.002837,.013012,
.001975,.013433,
.001054,.013698,
.0001,.013799,
-.000857,.013733,
-.001787,.013502,
-.002663,.013112,
-.003459,.012577,
-.004149,.011911,
-.004713,.011136,
-.005134,.010274,
-.005399,.009353,
-.0055,.008399,
-.0055,.008199,
0.0*
%
%ADD89MACRO89*%
%ADD93R,.04X.014*%
%ADD49R,.03X.024*%
%ADD92R,.014X.04*%
%ADD46R,.024X.03*%
%ADD33R,.06X.04*%
%ADD50R,.05X.024*%
%ADD45R,.024X.05*%
%ADD57R,.07X.06*%
%ADD86R,.094X.04*%
%ADD68R,.045X.043*%
%ADD38R,.06X.056*%
%ADD22R,.045X.035*%
%ADD15R,.032X.038*%
%ADD81R,.028X.043*%
%ADD69R,.047X.016*%
%ADD52R,.04X.094*%
%ADD36R,.044X.04222*%
%ADD20R,.056X.06*%
%ADD14R,.035X.045*%
%ADD54R,.034X.065*%
%ADD39R,.037X.036*%
%ADD27R,.04222X.044*%
%ADD78R,.082X.082*%
%ADD65R,.059X.051*%
%ADD58R,.036X.037*%
%ADD59R,.082X.082*%
%ADD51R,.066X.063*%
%ADD91R,.075X.055*%
%ADD76C,.011024*%
%ADD71R,.055X.039*%
%ADD66C,.026*%
%ADD28R,.063X.066*%
%ADD96R,.083X.083*%
%ADD60R,.02X.02*%
%ADD11R,.021X.021*%
%ADD21R,.032X.032*%
%ADD43R,.0001X.0001*%
%ADD24R,.068X.058*%
%ADD55R,.026X.026*%
%ADD26R,.08661X.0315*%
%ADD53R,.046X.046*%
%ADD48R,.0315X.08661*%
%ADD16R,.028X.028*%
%ADD25C,.04537*%
%ADD87R,.049201X.070902*%
%ADD35R,.0375X.0375*%
%ADD75C,.014567*%
%ADD83R,.01772X.01772*%
%ADD73R,.041339X.01378*%
%ADD79R,.011811X.059059*%
%ADD67R,.03937X.033461*%
%ADD64R,.074803X.047244*%
%ADD17O,.072929X.049311*%
%ADD82R,.129921X.106299*%
%ADD94R,.01978X.039461*%
%ADD74R,.045276X.045276*%
%ADD98R,.062988X.04724*%
%ADD47R,.03937X.027559*%
%ADD32R,.027559X.03937*%
%ADD62R,.049598X.080701*%
%ADD72R,.041339X.019689*%
%ADD80R,.018098X.011799*%
%ADD63R,.015799X.070098*%
%AMMACRO23*
4,1,21,.014,.006,
-.02,.006,
-.02,-.006,
.014,-.006,
.015042,-.005909,
.016052,-.005638,
.017,-.005196,
.017857,-.004596,
.018596,-.003857,
.019196,-.003,
.019638,-.002052,
.019909,-.001042,
.02,0.0,
.019909,.001042,
.019638,.002052,
.019196,.003,
.018596,.003857,
.017857,.004596,
.017,.005196,
.016052,.005638,
.015042,.005909,
.014,.006,
0.0*
%
%ADD23MACRO23*%
%ADD99C,.019689*%
%ADD100C,.005*%
%ADD101C,.00787*%
%ADD102C,.01*%
%ADD103C,.006*%
G75*
%LPD*%
G75*
G36*
G01X-34895Y557200D02*
X-41795D01*
Y550300D01*
X-34895D01*
Y557200D01*
G37*
G36*
G01X-26395D02*
X-33295D01*
Y550300D01*
X-26395D01*
Y557200D01*
G37*
G36*
G01Y565700D02*
X-33295D01*
Y558800D01*
X-26395D01*
Y565700D01*
G37*
G36*
G01X-34895D02*
X-41795D01*
Y558800D01*
X-34895D01*
Y565700D01*
G37*
G36*
G01X53605Y539400D02*
Y544900D01*
X59105D01*
Y539400D01*
X53605D01*
G37*
G36*
G01X46805D02*
Y544900D01*
X52305D01*
Y539400D01*
X46805D01*
G37*
G36*
G01X53605Y532400D02*
Y537900D01*
X59105D01*
Y532400D01*
X53605D01*
G37*
G36*
G01X46805D02*
Y537900D01*
X52305D01*
Y532400D01*
X46805D01*
G37*
G36*
G01X76705Y345200D02*
X82205D01*
Y339700D01*
X76705D01*
Y345200D01*
G37*
G36*
G01X69705D02*
X75205D01*
Y339700D01*
X69705D01*
Y345200D01*
G37*
G36*
G01X76705Y352000D02*
X82205D01*
Y346500D01*
X76705D01*
Y352000D01*
G37*
G36*
G01X69705D02*
X75205D01*
Y346500D01*
X69705D01*
Y352000D01*
G37*
G36*
G01X76705Y372700D02*
X82205D01*
Y367200D01*
X76705D01*
Y372700D01*
G37*
G36*
G01X69705D02*
X75205D01*
Y367200D01*
X69705D01*
Y372700D01*
G37*
G36*
G01X76705Y379500D02*
X82205D01*
Y374000D01*
X76705D01*
Y379500D01*
G37*
G36*
G01X69705D02*
X75205D01*
Y374000D01*
X69705D01*
Y379500D01*
G37*
G36*
G01X183854Y347817D02*
Y343290D01*
X179326D01*
Y347817D01*
X183854D01*
G37*
G36*
G01X189641D02*
Y343290D01*
X185113D01*
Y347817D01*
X189641D01*
G37*
G36*
G01Y359392D02*
Y354864D01*
X185113D01*
Y359392D01*
X189641D01*
G37*
G36*
G01X183854D02*
Y354864D01*
X179326D01*
Y359392D01*
X183854D01*
G37*
G36*
G01Y353605D02*
Y349077D01*
X179326D01*
Y353605D01*
X183854D01*
G37*
G36*
G01X195428Y347817D02*
Y343290D01*
X190901D01*
Y347817D01*
X195428D01*
G37*
G36*
G01Y353605D02*
Y349077D01*
X190901D01*
Y353605D01*
X195428D01*
G37*
G36*
G01Y359392D02*
Y354864D01*
X190901D01*
Y359392D01*
X195428D01*
G37*
G36*
G01X211359Y411888D02*
G03Y404112I4445J-3888D01*
G01X208155Y400906D01*
G02Y415094I7650J7094D01*
G01X211359Y411888D01*
G37*
G36*
G01X211917Y403555D02*
G03X219693I3888J4445D01*
G01X222899Y400350D01*
G02X208711I-7094J7650D01*
G01X211917Y403555D01*
G37*
G36*
G01X219693Y412445D02*
G03X211917I-3888J-4445D01*
G01X208711Y415650D01*
G02X222899I7094J-7650D01*
G01X219693Y412445D01*
G37*
G36*
G01X220250Y404112D02*
G03Y411888I-4445J3888D01*
G01X223455Y415094D01*
G02Y400906I-7650J-7094D01*
G01X220250Y404112D01*
G37*
G36*
G01X306605Y518100D02*
X300005D01*
Y529700D01*
X306605D01*
Y518100D01*
G37*
G36*
G01X314805D02*
X308205D01*
Y529700D01*
X314805D01*
Y518100D01*
G37*
G36*
G01X306605Y534300D02*
X300005D01*
Y540900D01*
X306605D01*
Y534300D01*
G37*
G36*
G01X314805D02*
X308205D01*
Y540900D01*
X314805D01*
Y534300D01*
G37*
G54D100*
G01X-84940Y490344D02*
Y623190D01*
X-104940D01*
Y-31500D01*
X-84940D01*
Y123000D01*
G01Y133000D02*
Y123000D01*
G01Y133000D02*
G02X-78740I3100J0D01*
G01X-84940Y153000D02*
Y163000D01*
G01X-78740Y153000D02*
G02X-84940I-3100J0D01*
G01Y296672D02*
Y163000D01*
G01Y296672D02*
G02X-78740I3100J0D01*
G01X-84940Y460344D02*
Y326672D01*
G01X-78740Y316672D02*
G02X-84940I-3100J0D01*
G01D02*
Y326672D01*
G01Y460344D02*
G02X-78740I3100J0D01*
G01X-84940Y480344D02*
Y490344D01*
G01X-78740Y480344D02*
G02X-84940I-3100J0D01*
G01X-78740Y1965D02*
Y-19689D01*
X-66929Y-31500D01*
X20275D01*
Y-3973D01*
G02X22275Y-1973I2000J0D01*
G01X67488D01*
G02X69488Y-3973I0J-2000D01*
G01Y-31500D01*
X124607D01*
X124606Y-3973D01*
G02X126606Y-1973I2000J0D01*
G01X165913D01*
G02X167913Y-3973I0J-2000D01*
G01X167914Y-31500D01*
X223032D01*
X223031Y-3973D01*
G02X225031Y-1973I2000J0D01*
G01X270244D01*
G02X272244Y-3973I0J-2000D01*
G01Y-31500D01*
X359448D01*
X371260Y-19689D01*
Y112173D01*
G01X-78740Y123000D02*
Y1965D01*
G01Y133000D02*
Y123000D01*
G01Y153000D02*
Y163000D01*
G01Y286672D02*
Y163000D01*
G01Y296672D02*
Y286672D01*
G01Y316672D02*
Y326672D01*
G01Y450344D02*
Y326672D01*
G01Y460344D02*
Y450344D01*
G01Y480344D02*
Y490344D01*
G01X371260Y479517D02*
Y611379D01*
X359449Y623190D01*
X-66929D01*
X-78740Y611379D01*
Y490344D01*
G01X371260Y122173D02*
Y112173D01*
G01Y122173D02*
G02X377460I3100J0D01*
G01X371260Y142173D02*
Y152173D01*
G01X377460Y142173D02*
G02X371260I-3100J0D01*
G01Y152173D02*
Y275845D01*
G01Y285845D02*
Y275845D01*
G01Y285845D02*
G02X377460I3100J0D01*
G01Y305845D02*
G02X371260I-3100J0D01*
G01D02*
Y315845D01*
G01D02*
Y439517D01*
G01Y449517D02*
G02X377460I3100J0D01*
G01X371260D02*
Y439517D01*
G01X377460Y469517D02*
G02X371260I-3100J0D01*
G01D02*
Y479517D01*
G01X377460D02*
Y623190D01*
X397460D01*
Y-31500D01*
X377460D01*
Y112173D01*
G01Y122173D02*
Y112173D01*
G01Y142173D02*
Y275845D01*
G01Y285845D02*
Y275845D01*
G01Y449517D02*
Y305845D01*
G01Y469517D02*
Y479517D01*
G54D101*
G01X-596541Y-138498D02*
X-576856D01*
G01X-596541Y61502D02*
X-576856D01*
G01X-596541Y461502D02*
X-576856D01*
G01X-596541Y661502D02*
X-576856D01*
G01Y-303459D02*
X1037317D01*
G01X-576856D02*
Y826462D01*
G01X-579845Y261502D02*
G03X-573867I2989J0D01*
G03X-579845I-2989J0D01*
G01X-576856Y826462D02*
X1037317D01*
G01X-369769Y-323144D02*
Y-303459D01*
G01Y846147D02*
Y826462D01*
G01X-169769Y-323144D02*
Y-303459D01*
G01Y846147D02*
Y826462D01*
G01X30231Y-323144D02*
Y-303459D01*
G01Y846147D02*
Y826462D01*
G01X227241D02*
G03X233220I2989J0D01*
G03X227241I-2989J0D01*
G01X430231Y846147D02*
Y826462D01*
G01X630231Y-323144D02*
Y-303459D01*
G01Y846147D02*
Y826462D01*
G01X830231Y-323144D02*
Y-303459D01*
G01Y846147D02*
Y826462D01*
G01X1034328Y261502D02*
G03X1040307I2989J0D01*
G03X1034328I-2989J0D01*
G01X1037317Y-303459D02*
Y826462D01*
G01X1057002Y-138498D02*
X1037317D01*
G01X1057002Y61502D02*
X1037317D01*
G01X1057002Y461502D02*
X1037317D01*
G01X1057002Y661502D02*
X1037317D01*
G54D102*
G01X-105955Y-177076D02*
Y-256276D01*
G01D02*
X321945D01*
G01X-105955Y-236276D02*
X396645D01*
G01X-105955Y-216276D02*
X396645D01*
G01X-105955Y-196276D02*
X396645D01*
G01Y-177076D02*
X-105955D01*
G01X321945Y-256276D02*
X396645D01*
G01D02*
Y-177076D01*
G54D103*
G01X-596541Y-323144D02*
X1057002D01*
G01X-596541D02*
Y846147D01*
G01D02*
X1057002D01*
G01X-97280Y-246009D02*
X-100280D01*
G01Y-241176D02*
X-95530D01*
G01X-100280Y-251176D02*
Y-241176D01*
G01X-97055Y-225777D02*
X-100930D01*
G01X-96180Y-226110D02*
X-97055Y-225777D01*
G01X-95430Y-227110D02*
X-96180Y-226110D01*
G01X-95180Y-228277D02*
X-95430Y-227110D01*
G01Y-229443D02*
X-95180Y-228277D01*
G01X-95930Y-230443D02*
X-95430Y-229443D01*
G01X-96805Y-231110D02*
X-95930Y-230443D01*
G01X-100930Y-231110D02*
X-96805D01*
G01X-100930Y-221110D02*
Y-231110D01*
G01X-96180Y-222277D02*
X-96680Y-221610D01*
G01X-95930Y-223277D02*
X-96180Y-222277D01*
G01Y-224444D02*
X-95930Y-223277D01*
G01X-96555Y-225277D02*
X-96180Y-224444D01*
G01X-97055Y-225777D02*
X-96555Y-225277D01*
G01X-97955Y-211576D02*
X-100455D01*
G01X-96955Y-211076D02*
X-97955Y-211576D01*
G01X-96205Y-210410D02*
X-96955Y-211076D01*
G01X-95580Y-209409D02*
X-96205Y-210410D01*
G01X-95080Y-208243D02*
X-95580Y-209409D01*
G01X-94955Y-206576D02*
X-95080Y-208243D01*
G01X-100455Y-211576D02*
Y-201576D01*
G01X-97555Y-221110D02*
X-100930D01*
G01X-96680Y-221610D02*
X-97555Y-221110D01*
G01X-97755Y-192376D02*
X-100255D01*
G01X-96755Y-191876D02*
X-97755Y-192376D01*
G01X-96005Y-191210D02*
X-96755Y-191876D01*
G01X-95380Y-190209D02*
X-96005Y-191210D01*
G01X-100255Y-192376D02*
Y-182376D01*
G01X-97955Y-201576D02*
X-96955Y-202076D01*
G01X-100455Y-201576D02*
X-97955D01*
G01X-95080Y-204910D02*
X-94955Y-206576D01*
G01X-95580Y-203743D02*
X-95080Y-204910D01*
G01X-96205Y-202743D02*
X-95580Y-203743D01*
G01X-96955Y-202076D02*
X-96205Y-202743D01*
G01X-95380Y-184543D02*
X-94880Y-185710D01*
G01X-96005Y-183543D02*
X-95380Y-184543D01*
G01X-96755Y-182876D02*
X-96005Y-183543D01*
G01X-97755Y-182376D02*
X-96755Y-182876D01*
G01X-100255Y-182376D02*
X-97755D01*
G01X-94880Y-189043D02*
X-95380Y-190209D01*
G01X-89405Y-241176D02*
X-86405D01*
G01X-80405Y-251176D02*
X-75405D01*
G01X-80405Y-241176D02*
Y-251176D01*
G01X-89405D02*
X-86405D01*
G01X-87905Y-241176D02*
Y-251176D01*
G01X-76055Y-227610D02*
X-80055D01*
G01X-81180Y-231110D02*
X-78055Y-221110D01*
G01X-87055Y-230943D02*
X-88055Y-231110D01*
G01X-86180Y-230277D02*
X-87055Y-230943D01*
G01X-85430Y-229277D02*
X-86180Y-230277D01*
G01X-84930Y-228110D02*
X-85430Y-229277D01*
G01X-84680Y-226777D02*
X-84930Y-228110D01*
G01X-84680Y-225443D02*
Y-226777D01*
G01X-84930Y-224110D02*
X-84680Y-225443D01*
G01X-85430Y-222943D02*
X-84930Y-224110D01*
G01X-86180Y-221943D02*
X-85430Y-222943D01*
G01X-90680D02*
X-89930Y-221943D01*
G01X-91180Y-224110D02*
X-90680Y-222943D01*
G01X-91430Y-225443D02*
X-91180Y-224110D01*
G01X-91430Y-226777D02*
Y-225443D01*
G01X-91180Y-228110D02*
X-91430Y-226777D01*
G01X-90680Y-229277D02*
X-91180Y-228110D01*
G01X-89930Y-230277D02*
X-90680Y-229277D01*
G01X-89055Y-230943D02*
X-89930Y-230277D01*
G01X-88055Y-231110D02*
X-89055Y-230943D01*
G01X-79330Y-211076D02*
X-78205Y-211576D01*
G01X-80330Y-210243D02*
X-79330Y-211076D01*
G01X-90205Y-211576D02*
Y-201576D01*
G01X-85205Y-211576D02*
X-90205D01*
G01X-87055Y-221277D02*
X-86180Y-221943D01*
G01X-88055Y-221110D02*
X-87055Y-221277D01*
G01X-89055D02*
X-88055Y-221110D01*
G01X-89930Y-221943D02*
X-89055Y-221277D01*
G01X-87505Y-182376D02*
X-84380Y-192376D01*
G01X-90630D02*
X-87505Y-182376D01*
G01X-90205Y-201576D02*
X-85205D01*
G01X-79580Y-202909D02*
X-78955Y-202076D01*
G01X-79830Y-204076D02*
X-79580Y-202909D01*
G01X-79455Y-205243D02*
X-79830Y-204076D01*
G01X-78580Y-205909D02*
X-79455Y-205243D01*
G01X-87205Y-206409D02*
X-90205D01*
G01X-80380Y-182376D02*
X-74630D01*
G01X-85505Y-188876D02*
X-89505D01*
G01X-94880Y-185710D02*
X-94755Y-187376D01*
G01D02*
X-94880Y-189043D01*
G01X-67905Y-249509D02*
X-64655Y-241176D01*
G01X-71155D02*
X-67905Y-249509D01*
G01X-64655Y-241176D02*
Y-251176D01*
G01X-71155D02*
Y-241176D01*
G01X-67430Y-226277D02*
X-65555Y-231110D01*
G01X-67430Y-226277D02*
X-70555D01*
G01X-66555Y-225777D02*
X-67430Y-226277D01*
G01X-65805Y-224943D02*
X-66555Y-225777D01*
G01X-65555Y-223610D02*
X-65805Y-224943D01*
G01Y-222277D02*
X-65555Y-223610D01*
G01X-66430Y-221610D02*
X-65805Y-222277D01*
G01X-70555Y-231110D02*
Y-221110D01*
G01X-78055D02*
X-74930Y-231110D01*
G01X-69205Y-211576D02*
X-66205D01*
G01X-67705Y-201576D02*
Y-211576D01*
G01X-75955Y-206909D02*
X-77080Y-206243D01*
G01X-75330Y-207910D02*
X-75955Y-206909D01*
G01X-75080Y-209076D02*
X-75330Y-207910D01*
G01X-75455Y-210243D02*
X-75080Y-209076D01*
G01X-76205Y-211076D02*
X-75455Y-210243D01*
G01X-77205Y-211576D02*
X-76205Y-211076D01*
G01X-78205Y-211576D02*
X-77205D01*
G01X-67430Y-221110D02*
X-66430Y-221610D01*
G01X-70555Y-221110D02*
X-67430D01*
G01X-70005Y-192376D02*
Y-182376D01*
G01X-65005Y-192376D02*
X-70005D01*
G01X-77505Y-182376D02*
Y-192376D01*
G01X-69205Y-201576D02*
X-66205D01*
G01X-77205D02*
X-76330Y-201909D01*
G01X-78080Y-201576D02*
X-77205D01*
G01X-76330Y-201909D02*
X-75580Y-202743D01*
G01X-77080Y-206243D02*
X-78580Y-205909D01*
G01X-78955Y-202076D02*
X-78080Y-201576D01*
G01X-70005Y-182376D02*
X-65005D01*
G01X-67005Y-187209D02*
X-70005D01*
G01X-50405Y-251176D02*
X-45405D01*
G01X-50405Y-241176D02*
Y-251176D01*
G01X-58305Y-231110D02*
X-60805D01*
G01X-57305Y-230610D02*
X-58305Y-231110D01*
G01X-56555Y-229944D02*
X-57305Y-230610D01*
G01X-55930Y-228943D02*
X-56555Y-229944D01*
G01X-55430Y-227777D02*
X-55930Y-228943D01*
G01X-55305Y-226110D02*
X-55430Y-227777D01*
G01Y-224444D02*
X-55305Y-226110D01*
G01X-55930Y-223277D02*
X-55430Y-224444D01*
G01X-56555Y-222277D02*
X-55930Y-223277D01*
G01X-57305Y-221610D02*
X-56555Y-222277D01*
G01X-60805Y-231110D02*
Y-221110D01*
G01X-50580Y-211576D02*
Y-201576D01*
G01X-60955Y-207076D02*
Y-205909D01*
G01X-60705Y-208409D02*
X-60955Y-207076D01*
G01X-60205Y-209576D02*
X-60705Y-208409D01*
G01X-59455Y-210576D02*
X-60205Y-209576D01*
G01X-58580Y-211243D02*
X-59455Y-210576D01*
G01X-57330Y-211576D02*
X-58580Y-211243D01*
G01X-56080D02*
X-57330Y-211576D01*
G01X-55205Y-210576D02*
X-56080Y-211243D01*
G01X-54455Y-209576D02*
X-55205Y-210576D01*
G01X-54455Y-206576D02*
Y-209576D01*
G01X-56955Y-206576D02*
X-54455D01*
G01X-58305Y-221110D02*
X-57305Y-221610D01*
G01X-60805Y-221110D02*
X-58305D01*
G01X-46669Y-184379D02*
X-47469Y-184645D01*
X-48069Y-185312D01*
X-48469Y-186112D01*
X-48769Y-187179D01*
X-48869Y-188379D01*
X-48769Y-189579D01*
X-48469Y-190645D01*
X-48069Y-191446D01*
X-47469Y-192112D01*
X-46669Y-192379D01*
X-45869Y-192112D01*
X-45269Y-191446D01*
X-44869Y-190645D01*
X-44569Y-189579D01*
X-44469Y-188379D01*
X-44569Y-187179D01*
X-44869Y-186112D01*
X-45269Y-185312D01*
X-45869Y-184645D01*
X-46669Y-184379D01*
G01X-37469Y-192379D02*
Y-184379D01*
X-41169Y-190112D01*
X-36169D01*
G01X-32669Y-190779D02*
X-32169Y-191579D01*
X-31569Y-192112D01*
X-30869Y-192379D01*
X-30069Y-192112D01*
X-29469Y-191579D01*
X-28869Y-190779D01*
X-28669Y-189712D01*
Y-184379D01*
G01X-24869D02*
Y-190112D01*
X-24469Y-191312D01*
X-23669Y-192112D01*
X-22669Y-192379D01*
X-21669Y-192112D01*
X-20869Y-191312D01*
X-20469Y-190112D01*
Y-184379D01*
G01X-16669D02*
Y-192379D01*
X-12669D01*
G01X-6669D02*
Y-188779D01*
X-8669Y-184379D01*
G01X-4669D02*
X-6669Y-188779D01*
G01X-569Y-185712D02*
X31Y-184912D01*
X731Y-184512D01*
X1531Y-184379D01*
X2531Y-184645D01*
X3231Y-185312D01*
X3431Y-186112D01*
X3331Y-186912D01*
X2931Y-187579D01*
X931Y-188912D01*
X31Y-189845D01*
X-569Y-191179D01*
X-769Y-192379D01*
X3431D01*
G01X9331Y-184379D02*
X8531Y-184645D01*
X7931Y-185312D01*
X7531Y-186112D01*
X7231Y-187179D01*
X7131Y-188379D01*
X7231Y-189579D01*
X7531Y-190645D01*
X7931Y-191446D01*
X8531Y-192112D01*
X9331Y-192379D01*
X10131Y-192112D01*
X10731Y-191446D01*
X11131Y-190645D01*
X11431Y-189579D01*
X11531Y-188379D01*
X11431Y-187179D01*
X11131Y-186112D01*
X10731Y-185312D01*
X10131Y-184645D01*
X9331Y-184379D01*
G01X-57255Y-192543D02*
X-57505Y-192709D01*
G01X-57255Y-192209D02*
Y-192543D01*
G01X-57505Y-192043D02*
X-57255Y-192209D01*
G01X-57755D02*
X-57505Y-192043D01*
G01X-57755Y-192543D02*
Y-192209D01*
G01X-57505Y-192709D02*
X-57755Y-192543D01*
G01X-56830Y-201576D02*
X-55830Y-201909D01*
G01X-57705Y-201576D02*
X-56830D01*
G01X-58705Y-202076D02*
X-57705Y-201576D01*
G01X-50580D02*
X-44830Y-211576D01*
G01X-55830Y-201909D02*
X-55080Y-202576D01*
G01X-59455Y-202743D02*
X-58705Y-202076D01*
G01X-60205Y-203743D02*
X-59455Y-202743D01*
G01X-60705Y-204910D02*
X-60205Y-203743D01*
G01X-60955Y-205909D02*
X-60705Y-204910D01*
G01X-57255Y-188043D02*
X-57505Y-188210D01*
G01X-57255Y-187709D02*
Y-188043D01*
G01X-57505Y-187543D02*
X-57255Y-187709D01*
G01X-57755D02*
X-57505Y-187543D01*
G01X-57755Y-188043D02*
Y-187709D01*
G01X-57505Y-188210D02*
X-57755Y-188043D01*
G01X-35905Y-247676D02*
X-39905D01*
G01X-37905Y-241176D02*
X-34780Y-251176D01*
G01X-41030D02*
X-37905Y-241176D01*
G01X-35180Y-231110D02*
Y-221110D01*
G01X-40930D02*
X-35180Y-231110D01*
G01X-40930D02*
Y-221110D01*
G01X-40205Y-211576D02*
Y-201576D01*
G01X-35205Y-211576D02*
X-40205D01*
G01X-44830D02*
Y-201576D01*
G01X-40205D02*
X-35205D01*
G01X-37205Y-206409D02*
X-40205D01*
G01X-17405Y-246009D02*
X-20405D01*
G01Y-241176D02*
X-15405D01*
G01X-25405D02*
X-27905Y-246676D01*
G01D02*
X-30405Y-241176D01*
G01X-20405Y-251176D02*
Y-241176D01*
G01X-15405Y-251176D02*
X-20405D01*
G01X-27905D02*
Y-246676D01*
G01X-18055Y-229443D02*
X-14805Y-221110D01*
G01X-21305D02*
X-18055Y-229443D01*
G01X-21305Y-231110D02*
Y-221110D01*
G01X-26055Y-227610D02*
X-30055D01*
G01X-28055Y-221110D02*
X-24930Y-231110D01*
G01X-31180D02*
X-28055Y-221110D01*
G01X-26955Y-211076D02*
X-27955Y-211576D01*
G01X-26205Y-210410D02*
X-26955Y-211076D01*
G01X-25580Y-209409D02*
X-26205Y-210410D01*
G01X-25080Y-208243D02*
X-25580Y-209409D01*
G01X-24955Y-206576D02*
X-25080Y-208243D01*
G01Y-204910D02*
X-24955Y-206576D01*
G01X-27955Y-211576D02*
X-30455D01*
G01D02*
Y-201576D01*
G01X-27955D02*
X-26955Y-202076D01*
G01X-25580Y-203743D02*
X-25080Y-204910D01*
G01X-26205Y-202743D02*
X-25580Y-203743D01*
G01X-26955Y-202076D02*
X-26205Y-202743D01*
G01X-30455Y-201576D02*
X-27955D01*
G01X-7280Y-246343D02*
X-10405D01*
G01X-6405Y-245843D02*
X-7280Y-246343D01*
G01X-5655Y-245009D02*
X-6405Y-245843D01*
G01X-5405Y-243676D02*
X-5655Y-245009D01*
G01Y-242343D02*
X-5405Y-243676D01*
G01X-6280Y-241676D02*
X-5655Y-242343D01*
G01X-7280Y-241176D02*
X-6280Y-241676D01*
G01X-10405Y-241176D02*
X-7280D01*
G01Y-246343D02*
X-5405Y-251176D01*
G01X-10405D02*
Y-241176D01*
G01X-7555Y-225943D02*
X-10555D01*
G01Y-231110D02*
Y-221110D01*
G01X-5555Y-231110D02*
X-10555D01*
G01X-14805Y-221110D02*
Y-231110D01*
G01X-5705Y-208076D02*
X-9705D01*
G01X-7705Y-201576D02*
X-4580Y-211576D01*
G01X-10830D02*
X-7705Y-201576D01*
G01X-10555Y-221110D02*
X-5555D01*
G01X2345Y-246843D02*
X2095Y-247010D01*
G01X2345Y-246509D02*
Y-246843D01*
G01X2095Y-246343D02*
X2345Y-246509D01*
G01X1845D02*
X2095Y-246343D01*
G01X1845Y-246843D02*
Y-246509D01*
G01X2095Y-247010D02*
X1845Y-246843D01*
G01X2345Y-251343D02*
X2095Y-251509D01*
G01X2345Y-251009D02*
Y-251343D01*
G01X2095Y-250843D02*
X2345Y-251009D01*
G01X1845D02*
X2095Y-250843D01*
G01X1845Y-251343D02*
Y-251009D01*
G01X2095Y-251509D02*
X1845Y-251343D01*
G01X2195Y-226777D02*
X1945Y-226944D01*
G01X2195Y-226443D02*
Y-226777D01*
G01X1945Y-226277D02*
X2195Y-226443D01*
G01Y-231277D02*
X1945Y-231443D01*
G01X2195Y-230943D02*
Y-231277D01*
G01X1945Y-230777D02*
X2195Y-230943D01*
G01X1695Y-226443D02*
X1945Y-226277D01*
G01X1695Y-226777D02*
Y-226443D01*
G01X1945Y-226944D02*
X1695Y-226777D01*
G01Y-230943D02*
X1945Y-230777D01*
G01X1695Y-231277D02*
Y-230943D01*
G01X1945Y-231443D02*
X1695Y-231277D01*
G01X12545Y-207243D02*
X12295Y-207410D01*
G01X12545Y-206909D02*
Y-207243D01*
G01X12295Y-206743D02*
X12545Y-206909D01*
G01X12045D02*
X12295Y-206743D01*
G01X12045Y-207243D02*
Y-206909D01*
G01X12295Y-207410D02*
X12045Y-207243D01*
G01X12545Y-211743D02*
X12295Y-211909D01*
G01X12545Y-211409D02*
Y-211743D01*
G01X12295Y-211243D02*
X12545Y-211409D01*
G01X12045D02*
X12295Y-211243D01*
G01X12045Y-211743D02*
Y-211409D01*
G01X12295Y-211909D02*
X12045Y-211743D01*
G01X2295Y-201576D02*
Y-211576D01*
G01X-580Y-201576D02*
X5170D01*
G01X45945Y-177497D02*
Y-255656D01*
G01X115435Y-251475D02*
Y-241475D01*
X118435D01*
X119435Y-241975D01*
X120185Y-243141D01*
X120435Y-244475D01*
X120185Y-245808D01*
X119560Y-246808D01*
X118435Y-247308D01*
X115435D01*
G01X124810Y-251475D02*
X127935Y-241475D01*
X131060Y-251475D01*
G01X129935Y-247975D02*
X125935D01*
G01X135310Y-250142D02*
X136310Y-250975D01*
X137435Y-251475D01*
X138435D01*
X139435Y-250975D01*
X140185Y-250142D01*
X140560Y-248975D01*
X140310Y-247808D01*
X139685Y-246808D01*
X138560Y-246141D01*
X137060Y-245808D01*
X136185Y-245142D01*
X135810Y-243975D01*
X136060Y-242808D01*
X136685Y-241975D01*
X137560Y-241475D01*
X138435D01*
X139310Y-241808D01*
X140060Y-242642D01*
G01X147935Y-241475D02*
Y-251475D01*
G01X145060Y-241475D02*
X150810D01*
G01X160435Y-251475D02*
X155435D01*
Y-241475D01*
X160435D01*
G01X158435Y-246308D02*
X155435D01*
G01X164685Y-251475D02*
Y-241475D01*
X167935Y-249808D01*
X171185Y-241475D01*
Y-251475D01*
G01X174810D02*
X177935Y-241475D01*
X181060Y-251475D01*
G01X179935Y-247975D02*
X175935D01*
G01X185310Y-250142D02*
X186310Y-250975D01*
X187435Y-251475D01*
X188435D01*
X189435Y-250975D01*
X190185Y-250142D01*
X190560Y-248975D01*
X190310Y-247808D01*
X189685Y-246808D01*
X188560Y-246141D01*
X187060Y-245808D01*
X186185Y-245142D01*
X185810Y-243975D01*
X186060Y-242808D01*
X186685Y-241975D01*
X187560Y-241475D01*
X188435D01*
X189310Y-241808D01*
X190060Y-242642D01*
G01X195185Y-251475D02*
Y-241475D01*
G01X199935D02*
X195185Y-247642D01*
G01X200685Y-251475D02*
X197310Y-244808D01*
G01X204185Y-254808D02*
X211685D01*
G01X218935Y-246141D02*
X219435Y-245641D01*
X219810Y-244808D01*
X220060Y-243641D01*
X219810Y-242642D01*
X219310Y-241975D01*
X218435Y-241475D01*
X215060D01*
Y-251475D01*
X219185D01*
X220060Y-250808D01*
X220560Y-249808D01*
X220810Y-248642D01*
X220560Y-247475D01*
X219810Y-246475D01*
X218935Y-246141D01*
X215060D01*
G01X227935Y-251475D02*
X226935Y-251308D01*
X226060Y-250642D01*
X225310Y-249642D01*
X224810Y-248475D01*
X224560Y-247142D01*
Y-245808D01*
X224810Y-244475D01*
X225310Y-243308D01*
X226060Y-242308D01*
X226935Y-241641D01*
X227935Y-241475D01*
X228935Y-241641D01*
X229810Y-242308D01*
X230560Y-243308D01*
X231060Y-244475D01*
X231310Y-245808D01*
Y-247142D01*
X231060Y-248475D01*
X230560Y-249642D01*
X229810Y-250642D01*
X228935Y-251308D01*
X227935Y-251475D01*
G01X237935Y-241475D02*
Y-251475D01*
G01X235060Y-241475D02*
X240810D01*
G01X247935D02*
Y-251475D01*
G01X245060Y-241475D02*
X250810D01*
G01X257935Y-251475D02*
X256935Y-251308D01*
X256060Y-250642D01*
X255310Y-249642D01*
X254810Y-248475D01*
X254560Y-247142D01*
Y-245808D01*
X254810Y-244475D01*
X255310Y-243308D01*
X256060Y-242308D01*
X256935Y-241641D01*
X257935Y-241475D01*
X258935Y-241641D01*
X259810Y-242308D01*
X260560Y-243308D01*
X261060Y-244475D01*
X261310Y-245808D01*
Y-247142D01*
X261060Y-248475D01*
X260560Y-249642D01*
X259810Y-250642D01*
X258935Y-251308D01*
X257935Y-251475D01*
G01X264685D02*
Y-241475D01*
X267935Y-249808D01*
X271185Y-241475D01*
Y-251475D01*
G01X115805Y-220833D02*
Y-230833D01*
G01X114055Y-224167D02*
X117555D01*
G01X125805Y-230833D02*
X125055Y-230667D01*
X124305Y-230000D01*
X123805Y-228834D01*
X123555Y-227500D01*
X123805Y-226167D01*
X124305Y-225000D01*
X125055Y-224334D01*
X125805Y-224167D01*
X126555Y-224334D01*
X127305Y-225000D01*
X127805Y-226167D01*
X127930Y-227500D01*
X127805Y-228834D01*
X127305Y-230000D01*
X126555Y-230667D01*
X125805Y-230833D01*
G01X132680Y-224167D02*
X134180Y-230833D01*
X135805Y-224167D01*
X137430Y-230833D01*
X138930Y-224167D01*
G01X143930Y-226333D02*
X147930D01*
X147555Y-225167D01*
X146930Y-224500D01*
X146055Y-224167D01*
X145180Y-224334D01*
X144430Y-224834D01*
X143930Y-226000D01*
X143680Y-227000D01*
Y-228000D01*
X143930Y-229000D01*
X144555Y-230000D01*
X145305Y-230667D01*
X146180Y-230833D01*
X147055Y-230500D01*
X147930Y-229500D01*
G01X154055Y-230833D02*
Y-224167D01*
G01Y-225500D02*
X154680Y-224834D01*
X155305Y-224334D01*
X156180Y-224167D01*
X156805Y-224334D01*
X157555Y-224834D01*
G01X162930Y-230833D02*
Y-220833D01*
X168680Y-230833D01*
Y-220833D01*
G01X175805Y-230833D02*
X175055Y-230667D01*
X174305Y-230000D01*
X173805Y-228834D01*
X173555Y-227500D01*
X173805Y-226167D01*
X174305Y-225000D01*
X175055Y-224334D01*
X175805Y-224167D01*
X176555Y-224334D01*
X177305Y-225000D01*
X177805Y-226167D01*
X177930Y-227500D01*
X177805Y-228834D01*
X177305Y-230000D01*
X176555Y-230667D01*
X175805Y-230833D01*
G01X188055Y-220833D02*
Y-230833D01*
G01Y-229334D02*
X187555Y-230167D01*
X186805Y-230667D01*
X185930Y-230833D01*
X184930Y-230500D01*
X184180Y-229667D01*
X183680Y-228667D01*
X183555Y-227500D01*
X183680Y-226333D01*
X184180Y-225333D01*
X184930Y-224500D01*
X185930Y-224167D01*
X186805Y-224334D01*
X187430Y-224667D01*
X188055Y-225333D01*
G01X193930Y-226333D02*
X197930D01*
X197555Y-225167D01*
X196930Y-224500D01*
X196055Y-224167D01*
X195180Y-224334D01*
X194430Y-224834D01*
X193930Y-226000D01*
X193680Y-227000D01*
Y-228000D01*
X193930Y-229000D01*
X194555Y-230000D01*
X195305Y-230667D01*
X196180Y-230833D01*
X197055Y-230500D01*
X197930Y-229500D01*
G01X204180Y-227500D02*
X207430D01*
G01X213930Y-226333D02*
X217930D01*
X217555Y-225167D01*
X216930Y-224500D01*
X216055Y-224167D01*
X215180Y-224334D01*
X214430Y-224834D01*
X213930Y-226000D01*
X213680Y-227000D01*
Y-228000D01*
X213930Y-229000D01*
X214555Y-230000D01*
X215305Y-230667D01*
X216180Y-230833D01*
X217055Y-230500D01*
X217930Y-229500D01*
G01X222930Y-230833D02*
Y-220833D01*
X228680Y-230833D01*
Y-220833D01*
G01X236805Y-225500D02*
X237305Y-225000D01*
X237680Y-224167D01*
X237930Y-223000D01*
X237680Y-222000D01*
X237180Y-221334D01*
X236305Y-220833D01*
X232930D01*
Y-230833D01*
X237055D01*
X237930Y-230167D01*
X238430Y-229167D01*
X238680Y-228000D01*
X238430Y-226834D01*
X237680Y-225834D01*
X236805Y-225500D01*
X232930D01*
G01X244180Y-227500D02*
X247430D01*
G01X253555Y-224167D02*
X255805Y-230833D01*
X258055Y-224167D01*
G01X263430Y-222500D02*
X264180Y-221500D01*
X265055Y-221000D01*
X266055Y-220833D01*
X267305Y-221167D01*
X268180Y-222000D01*
X268430Y-223000D01*
X268305Y-224000D01*
X267805Y-224834D01*
X265305Y-226500D01*
X264180Y-227667D01*
X263430Y-229334D01*
X263180Y-230833D01*
X268430D01*
G01X275805Y-231167D02*
X275555Y-231000D01*
Y-230667D01*
X275805Y-230500D01*
X276055Y-230667D01*
Y-231000D01*
X275805Y-231167D01*
G01X285805Y-220833D02*
X284805Y-221167D01*
X284055Y-222000D01*
X283555Y-223000D01*
X283180Y-224334D01*
X283055Y-225834D01*
X283180Y-227334D01*
X283555Y-228667D01*
X284055Y-229667D01*
X284805Y-230500D01*
X285805Y-230833D01*
X286805Y-230500D01*
X287555Y-229667D01*
X288055Y-228667D01*
X288430Y-227334D01*
X288555Y-225834D01*
X288430Y-224334D01*
X288055Y-223000D01*
X287555Y-222000D01*
X286805Y-221167D01*
X285805Y-220833D01*
G01X294180Y-227500D02*
X297430D01*
G01X303305Y-230833D02*
Y-220833D01*
X306430D01*
X307430Y-221334D01*
X308055Y-222000D01*
X308305Y-223334D01*
X308055Y-224667D01*
X307305Y-225500D01*
X306430Y-226000D01*
X303305D01*
G01X306430D02*
X308305Y-230833D01*
G01X313930Y-226333D02*
X317930D01*
X317555Y-225167D01*
X316930Y-224500D01*
X316055Y-224167D01*
X315180Y-224334D01*
X314430Y-224834D01*
X313930Y-226000D01*
X313680Y-227000D01*
Y-228000D01*
X313930Y-229000D01*
X314555Y-230000D01*
X315305Y-230667D01*
X316180Y-230833D01*
X317055Y-230500D01*
X317930Y-229500D01*
G01X323555Y-224167D02*
X325805Y-230833D01*
X328055Y-224167D01*
G01X332680Y-230833D02*
X335805Y-220833D01*
X338930Y-230833D01*
G01X337805Y-227334D02*
X333805D01*
G01X114555Y-202500D02*
Y-209667D01*
X115055Y-211167D01*
X116055Y-212167D01*
X117305Y-212500D01*
X118555Y-212167D01*
X119555Y-211167D01*
X120055Y-209667D01*
Y-202500D01*
G01X125180Y-212500D02*
Y-202500D01*
G01X129180Y-205834D02*
X125180Y-209667D01*
G01X126805Y-208167D02*
X129430Y-212500D01*
G01X139555D02*
Y-205834D01*
G01Y-207000D02*
X139055Y-206333D01*
X138305Y-206000D01*
X137430Y-205834D01*
X136555Y-206167D01*
X135805Y-206833D01*
X135305Y-207833D01*
X135055Y-209167D01*
X135305Y-210500D01*
X135805Y-211500D01*
X136555Y-212167D01*
X137430Y-212500D01*
X138305Y-212333D01*
X139055Y-211834D01*
X139555Y-211167D01*
G01X143555Y-212500D02*
Y-205834D01*
G01Y-207667D02*
X143930Y-206833D01*
X144555Y-206167D01*
X145430Y-205834D01*
X146305Y-206167D01*
X146930Y-206833D01*
X147305Y-207667D01*
Y-212500D01*
G01Y-207667D02*
X147680Y-206833D01*
X148305Y-206167D01*
X149180Y-205834D01*
X150055Y-206167D01*
X150680Y-206833D01*
X151055Y-207833D01*
Y-212500D01*
G01X159555D02*
Y-205834D01*
G01Y-207000D02*
X159055Y-206333D01*
X158305Y-206000D01*
X157430Y-205834D01*
X156555Y-206167D01*
X155805Y-206833D01*
X155305Y-207833D01*
X155055Y-209167D01*
X155305Y-210500D01*
X155805Y-211500D01*
X156555Y-212167D01*
X157430Y-212500D01*
X158305Y-212333D01*
X159055Y-211834D01*
X159555Y-211167D01*
G01X124220Y-191710D02*
X127345Y-181710D01*
G01X114845Y-191710D02*
Y-181710D01*
G01X119845Y-184710D02*
X119595Y-186043D01*
G01Y-183377D02*
X119845Y-184710D01*
G01X118845Y-182210D02*
X119595Y-183377D01*
G01X117845Y-181710D02*
X118845Y-182210D01*
G01X114845Y-181710D02*
X117845D01*
G01Y-187544D02*
X114845D01*
G01X118970Y-187043D02*
X117845Y-187544D01*
G01X119595Y-186043D02*
X118970Y-187043D01*
G01X137970Y-186877D02*
X139845Y-191710D01*
G01X134845D02*
Y-181710D01*
G01X127345D02*
X130470Y-191710D01*
G01X139595Y-185543D02*
X138845Y-186377D01*
G01X139845Y-184210D02*
X139595Y-185543D01*
G01Y-182877D02*
X139845Y-184210D01*
G01X138970Y-182210D02*
X139595Y-182877D01*
G01X137970Y-181710D02*
X138970Y-182210D01*
G01X134845Y-181710D02*
X137970D01*
G01Y-186877D02*
X134845D01*
G01X138845Y-186377D02*
X137970Y-186877D01*
G01X129345Y-188210D02*
X125345D01*
G01X147345Y-181710D02*
Y-191710D01*
G01X144470Y-181710D02*
X150220D01*
G01X170220Y-191710D02*
Y-181710D01*
G01X164470D02*
X170220Y-191710D01*
G01X164470D02*
Y-181710D01*
G01X184095Y-191710D02*
Y-181710D01*
G01X178595Y-191377D02*
X179595Y-190377D01*
G01X177345Y-191710D02*
X178595Y-191377D01*
G01X176095D02*
X177345Y-191710D01*
G01X175095Y-190377D02*
X176095Y-191377D01*
G01X187345Y-190043D02*
X190595Y-181710D01*
G01X184095D02*
X187345Y-190043D01*
G01X180095Y-188877D02*
Y-181710D01*
G01X179595Y-190377D02*
X180095Y-188877D01*
G01X174595D02*
X175095Y-190377D01*
G01X174595Y-181710D02*
Y-188877D01*
G01X199470Y-191043D02*
X199970Y-190043D01*
G01X198595Y-191710D02*
X199470Y-191043D01*
G01X194470Y-191710D02*
X198595D01*
G01X194470Y-181710D02*
Y-191710D01*
G01X190595Y-181710D02*
Y-191710D01*
G01X198720Y-182210D02*
X197845Y-181710D01*
G01X199220Y-182877D02*
X198720Y-182210D01*
G01X199470Y-183877D02*
X199220Y-182877D01*
G01Y-185044D02*
X199470Y-183877D01*
G01X198845Y-185877D02*
X199220Y-185044D01*
G01X198345Y-186377D02*
X198845Y-185877D01*
G01X199220Y-186710D02*
X198345Y-186377D01*
G01X199970Y-187710D02*
X199220Y-186710D01*
G01X200220Y-188877D02*
X199970Y-187710D01*
G01Y-190043D02*
X200220Y-188877D01*
G01X198345Y-186377D02*
X194470D01*
G01X197845Y-181710D02*
X194470D01*
G01X214845Y-191710D02*
Y-181710D01*
G01X204845Y-191710D02*
Y-181710D01*
G01X209845Y-191710D02*
X204845D01*
G01X217970Y-181710D02*
X218970Y-182210D01*
G01X214845Y-181710D02*
X217970D01*
G01Y-186877D02*
X219845Y-191710D01*
G01X217970Y-186877D02*
X214845D01*
G01X218845Y-186377D02*
X217970Y-186877D01*
G01X204845Y-181710D02*
X209845D01*
G01X207845Y-186543D02*
X204845D01*
G01X227595Y-191877D02*
X227345Y-192043D01*
G01X227595Y-191543D02*
Y-191877D01*
G01X227345Y-191377D02*
X227595Y-191543D01*
G01X227095D02*
X227345Y-191377D01*
G01X227095Y-191877D02*
Y-191543D01*
G01X227345Y-192043D02*
X227095Y-191877D01*
G01X227595Y-187377D02*
X227345Y-187544D01*
G01X227595Y-187043D02*
Y-187377D01*
G01X227345Y-186877D02*
X227595Y-187043D01*
G01X219595Y-185543D02*
X218845Y-186377D01*
G01X219845Y-184210D02*
X219595Y-185543D01*
G01Y-182877D02*
X219845Y-184210D01*
G01X218970Y-182210D02*
X219595Y-182877D01*
G01X227095Y-187043D02*
X227345Y-186877D01*
G01X227095Y-187377D02*
Y-187043D01*
G01X227345Y-187544D02*
X227095Y-187377D01*
G01X249220Y-185044D02*
X245470Y-191710D01*
G01Y-185044D02*
X249220Y-191710D01*
G01X239220Y-185044D02*
X235470Y-191710D01*
G01Y-185044D02*
X239220Y-191710D01*
G01X269220Y-185044D02*
X265470Y-191710D01*
G01X259220Y-185044D02*
X255470Y-191710D01*
G01Y-185044D02*
X259220Y-191710D01*
G01X265470Y-185044D02*
X269220Y-191710D01*
G01X275470Y-185044D02*
X279220Y-191710D01*
G01Y-185044D02*
X275470Y-191710D01*
G01X526709Y-303120D02*
X1036945D01*
G01X526709Y-137766D02*
Y-303120D01*
G01X527727Y-247002D02*
X725660D01*
G01X527727Y-137946D02*
Y-247002D01*
G01X526709Y-248002D02*
X1036945D01*
G01X527727Y-231253D02*
X725660D01*
G01X527727Y-212356D02*
X725660D01*
G01X527727Y-193458D02*
X725660D01*
G01X527727Y-174561D02*
X725660D01*
G01X527727Y-155663D02*
X725660D01*
G01X527727Y-137946D02*
X725660D01*
G01X526709Y-137766D02*
X1036945D01*
G01X551152Y-137946D02*
Y-247002D01*
G01X651152Y-137946D02*
Y-247002D01*
G01X690522Y-137946D02*
Y-247002D01*
G01X725660Y-137946D02*
Y-247002D01*
G01X726709Y-137766D02*
Y-248002D01*
G01Y-165325D02*
X1036945D01*
G01X826709Y-137766D02*
Y-303120D01*
G01Y-275561D02*
X1036945D01*
G01X826709Y-220443D02*
X1036945D01*
G01X926709Y-248002D02*
Y-303120D01*
G01Y-137766D02*
Y-165325D01*
G01X1005449Y-275561D02*
Y-303120D01*
G01X1036945Y-137766D02*
Y-303120D01*
G01X1057002Y-323144D02*
Y846147D01*
G54D10*
X-63034Y289476D03*
Y306524D03*
X-60475Y289476D03*
X-57916D03*
X-55357D03*
Y306524D03*
X-57916D03*
X-60475D03*
G54D11*
X-63195Y317870D03*
Y314130D03*
X-52010Y41000D03*
X-48270D03*
X-54729Y51440D03*
Y47700D03*
X-58195Y317870D03*
Y314130D03*
X-61565Y352500D03*
X-57825D03*
X-43458Y-4405D03*
Y-8145D03*
X-43462Y-16054D03*
Y-12314D03*
X-26267Y-4647D03*
X-22527D03*
X-22886Y2677D03*
Y6417D03*
X-15495Y427270D03*
Y423530D03*
X148790Y312854D03*
X145050D03*
X147149Y342364D03*
X150889D03*
X147149Y337962D03*
X150889D03*
X160043Y325918D03*
Y329658D03*
X181475Y323342D03*
X177735D03*
X181635Y327743D03*
X185375D03*
X204013Y114368D03*
Y118768D03*
X207753Y114368D03*
Y118768D03*
X217802Y261649D03*
X217207Y275430D03*
Y271690D03*
X212226Y271670D03*
Y267930D03*
X217766Y266141D03*
X208015Y362446D03*
X211755D03*
X234173Y42212D03*
Y47212D03*
X229033Y215171D03*
X232773D03*
Y219912D03*
X229033D03*
Y224512D03*
X232773D03*
X229033Y229512D03*
X232773D03*
X232883Y238038D03*
Y234298D03*
X229383D03*
Y238038D03*
X221542Y261649D03*
X230581Y265052D03*
X226841D03*
X221771Y277530D03*
X230271Y270630D03*
Y274370D03*
X221506Y266141D03*
X221771Y281270D03*
X235601Y303700D03*
X237913Y42212D03*
Y47212D03*
X238101Y201200D03*
X241841D03*
X237383Y238038D03*
Y234298D03*
X240883D03*
Y238038D03*
X247471Y234330D03*
Y238070D03*
X243801Y303700D03*
Y299960D03*
X239341Y303700D03*
Y299960D03*
X243801Y303700D03*
X247541D03*
X239341D03*
X245882Y573154D03*
Y576894D03*
X249435Y583000D03*
Y589500D03*
X251871Y238070D03*
Y234330D03*
X256341Y303700D03*
Y299960D03*
X265341Y303700D03*
Y299960D03*
X256341Y303700D03*
X252601D03*
X265341D03*
X261601D03*
X253175Y583000D03*
Y589500D03*
X270271Y303770D03*
Y300030D03*
X295741Y101400D03*
X292001D03*
X293041Y109600D03*
X289301D03*
X293041Y114100D03*
X289301D03*
X293041Y118700D03*
X289301D03*
X293041Y123200D03*
X289301D03*
X289471Y127830D03*
Y131570D03*
X294071Y127830D03*
Y131570D03*
X293841Y144350D03*
X290101D03*
X293241Y139900D03*
X289501D03*
X300025Y105401D03*
X304525D03*
X309025D03*
X313525D03*
X304580Y123555D03*
X299401Y119000D03*
X303141D03*
X300025Y109141D03*
X304525D03*
X309025D03*
X313525D03*
X302671Y132130D03*
Y135870D03*
X304580Y127295D03*
X320141Y375700D03*
X316401D03*
X322534Y380221D03*
X318794D03*
X322691Y385052D03*
X318950D03*
X320912Y426492D03*
X324653D03*
X320912Y430692D03*
X324653D03*
X324130Y438100D03*
X320390D03*
X324130Y442600D03*
X320390D03*
X329805Y504870D03*
Y501130D03*
X340427Y519047D03*
X344167D03*
X335805Y529630D03*
X330805Y521630D03*
Y525370D03*
X331305Y529630D03*
X345386Y534248D03*
X341646D03*
X335805Y533370D03*
X331305D03*
X340289Y558184D03*
X344029D03*
X330805Y561130D03*
X336553Y576024D03*
X330805Y564870D03*
X336553Y579764D03*
X351336Y524607D03*
Y528347D03*
X346760Y562954D03*
Y566694D03*
G54D20*
X-49945Y460500D03*
X-58445D03*
X-38445Y453000D03*
X-29945D03*
X106555Y378000D03*
X115055D03*
X129055Y350500D03*
X137555D03*
G54D21*
X-53445Y484150D03*
X-47545D03*
X-53445Y489550D03*
X-47545D03*
X-51695Y517600D03*
Y523500D03*
X13305Y588600D03*
X13205Y601400D03*
X33405Y579600D03*
X33305Y592400D03*
X105905Y357100D03*
X104405Y347500D03*
X105805Y369900D03*
X117205Y347600D03*
X133305Y321100D03*
X133205Y333900D03*
G54D30*
X-42065Y546400D03*
X-40105D03*
X-38135D03*
X-36165D03*
X-34195D03*
X-32225D03*
X-30255D03*
X-28285D03*
X-26325D03*
G54D12*
X-59278Y390500D03*
X-32113D03*
G54D22*
X-51745Y508600D03*
Y502300D03*
X-51695Y532350D03*
X-59195D03*
X-51695Y538650D03*
X-59195D03*
X-41645Y467400D03*
X-31645D03*
X-41645Y473700D03*
X-31645D03*
X-36745Y508600D03*
Y502300D03*
X-44145Y502400D03*
Y508700D03*
X-36695Y523650D03*
Y517350D03*
X-44195Y532350D03*
X-36695D03*
X-44195Y517350D03*
Y523650D03*
Y538650D03*
X-36695D03*
X-29245Y508600D03*
Y502300D03*
X-21745Y532300D03*
X-29195Y532350D03*
Y523650D03*
Y517350D03*
X-21745Y538600D03*
X-29195Y538650D03*
X-14195Y588650D03*
Y582350D03*
X755Y588600D03*
Y582300D03*
X-6745Y588600D03*
Y582300D03*
X23255Y589800D03*
Y596100D03*
X41855Y573400D03*
Y579700D03*
X43355Y591900D03*
Y598200D03*
X33255Y604600D03*
Y598300D03*
X49855Y573400D03*
Y579700D03*
X110755Y338600D03*
Y332300D03*
X289755Y571600D03*
Y565300D03*
X297255Y571600D03*
Y565300D03*
X311855Y498900D03*
X304355D03*
X311855Y505200D03*
X304355D03*
X304755Y571600D03*
Y565300D03*
G54D13*
X-59295Y417554D03*
Y436846D03*
G54D40*
X11354Y33843D03*
Y44080D03*
Y38961D03*
Y36402D03*
Y41520D03*
Y51757D03*
Y46639D03*
Y49198D03*
X34188Y33843D03*
Y36402D03*
Y41520D03*
Y38961D03*
Y44080D03*
Y49198D03*
Y46639D03*
Y51757D03*
G54D31*
X-32225Y569600D03*
X-34195D03*
X-36165D03*
X-38135D03*
X-40105D03*
X-42065D03*
X-26325D03*
X-28285D03*
X-30255D03*
G54D23*
X-45795Y561940D03*
Y559970D03*
Y558000D03*
Y556030D03*
Y554060D03*
Y552090D03*
Y550130D03*
Y565870D03*
Y563910D03*
G54D32*
X-22000Y214081D03*
X-29480D03*
Y203845D03*
X-25740D03*
X-22000D03*
G54D14*
X-62395Y545550D03*
Y560550D03*
Y553050D03*
X-62295Y575450D03*
Y567950D03*
Y582950D03*
Y590950D03*
X-57395Y478050D03*
X-51095D03*
X-56095Y545550D03*
Y560550D03*
Y553050D03*
X-55995Y575450D03*
X-46795Y579450D03*
X-55995Y567950D03*
Y582950D03*
Y590950D03*
X-39795Y460450D03*
X-33495D03*
X-40495Y579450D03*
X-31295Y581950D03*
X-19895Y450550D03*
X-24995Y581950D03*
X-13595Y450550D03*
X-4595Y561050D03*
X-10895D03*
X-4595Y568550D03*
X-10895D03*
X68705Y548450D03*
X75005D03*
X97605Y338400D03*
X103905D03*
X134605Y343050D03*
X128305D03*
X274205Y570950D03*
X280505D03*
X274205Y580950D03*
X280505D03*
X310405Y554550D03*
X304105D03*
G54D50*
X67755Y338400D03*
Y353400D03*
Y365900D03*
Y380900D03*
X88855Y338400D03*
Y343400D03*
Y348400D03*
Y353400D03*
Y365900D03*
Y370900D03*
Y375900D03*
Y380900D03*
G54D41*
X13905Y395100D03*
Y515900D03*
X28705Y395100D03*
Y515900D03*
X43505Y395100D03*
Y515900D03*
X58305Y395100D03*
Y515900D03*
X73105Y395100D03*
Y515900D03*
X87905Y395100D03*
Y515900D03*
G54D24*
X-42453Y118150D03*
Y130250D03*
X-13606Y118150D03*
Y130250D03*
G54D60*
X126721Y312300D03*
X130221D03*
X266621Y294700D03*
X263121D03*
X303900Y158546D03*
Y162046D03*
X308900Y158546D03*
Y162046D03*
G54D51*
X82305Y567350D03*
Y579650D03*
G54D15*
X-46640Y35800D03*
X-52640D03*
G54D33*
X-14195Y483000D03*
Y495000D03*
X-4695Y435500D03*
Y447500D03*
G54D42*
X18305Y527398D03*
Y539602D03*
X30805Y527398D03*
Y539602D03*
G54D25*
X-32975Y175232D03*
X-36125Y183500D03*
X-32975Y191768D03*
X-33420Y280985D03*
X-42475Y284922D03*
X-45625Y293190D03*
X-42475Y301458D03*
X-33420Y305395D03*
X-42475Y594922D03*
X-33420Y590985D03*
X-45625Y603190D03*
X-42475Y611458D03*
X-33420Y615395D03*
X-23920Y171295D03*
X-14865Y175232D03*
Y191768D03*
X-23920Y195705D03*
X-24365Y284922D03*
X-21215Y293190D03*
X-24365Y301458D03*
Y594922D03*
X-21215Y603190D03*
X-24365Y611458D03*
X-9055Y-8268D03*
X0Y-12205D03*
X-9055Y8268D03*
X-12205Y0D03*
X0Y12205D03*
X-11715Y183500D03*
X9055Y-8268D03*
Y8268D03*
X12205Y0D03*
X295275Y-8268D03*
Y8268D03*
X292125Y0D03*
X298445Y175232D03*
X295295Y183500D03*
X298445Y191768D03*
X313385Y-8268D03*
X304330Y-12205D03*
X313385Y8268D03*
X304330Y12205D03*
X307500Y171295D03*
Y195705D03*
X314374Y343340D03*
Y603190D03*
X316535Y0D03*
X316555Y175232D03*
X319705Y183500D03*
X316555Y191768D03*
X317524Y335072D03*
X326579Y331135D03*
X317524Y351608D03*
X326579Y355545D03*
X317524Y594922D03*
X326579Y590985D03*
X317524Y611458D03*
X326579Y615395D03*
X335634Y335072D03*
X338784Y343340D03*
X335634Y351608D03*
Y594922D03*
X338784Y603190D03*
X335634Y611458D03*
G54D16*
X-50059Y47700D03*
Y51490D03*
X-49329Y206100D03*
X-53119D03*
X-53095Y375500D03*
X-49305D03*
X-34617Y104537D03*
Y94706D03*
X-34627Y99537D03*
X-40229Y169100D03*
X-36439D03*
X-35840Y217963D03*
X-39630D03*
X-42117Y235245D03*
Y239035D03*
X-42144Y245245D03*
Y249035D03*
X-31086Y234500D03*
X-42144Y255245D03*
Y259035D03*
Y264245D03*
Y273245D03*
Y277035D03*
Y268035D03*
X-26513Y-9844D03*
X-22723D03*
X-17969Y104537D03*
X-21760D03*
X-21759Y94706D03*
X-17969D03*
X-21768Y99537D03*
X-17978D03*
X-30827Y104537D03*
Y94706D03*
X-30837Y99537D03*
X-15900Y204181D03*
Y209181D03*
Y214081D03*
X-27295Y234500D03*
X-2629Y46200D03*
X-6419D03*
X-7429Y104500D03*
X-11219D03*
X-7929Y166800D03*
X-11719D03*
X-12110Y204181D03*
Y209181D03*
Y214081D03*
X31500Y141710D03*
X31200Y191810D03*
X31800Y241610D03*
Y291710D03*
X40171Y10600D03*
X43961D03*
X40171Y5100D03*
X43961D03*
X45590Y45310D03*
Y41520D03*
X40590Y45310D03*
Y41520D03*
X41290Y119810D03*
X37500D03*
X44390Y130010D03*
X35290Y141710D03*
X41090Y170010D03*
X37300D03*
X44390Y180210D03*
X34990Y191810D03*
X41290Y220610D03*
X37500D03*
X44390Y229610D03*
X35590Y241610D03*
X44090Y280010D03*
X44371Y270200D03*
Y266410D03*
X35590Y291710D03*
X48571Y10600D03*
X52361D03*
X61090Y41510D03*
Y45300D03*
X56090Y41510D03*
Y45300D03*
X50840Y41510D03*
Y45300D03*
X62190Y92410D03*
X48180Y130010D03*
Y180210D03*
Y229610D03*
X47880Y280010D03*
X76541Y9160D03*
Y5370D03*
X76090Y41510D03*
Y45300D03*
X71090Y41510D03*
Y45300D03*
X66090Y41510D03*
Y45300D03*
X65980Y92410D03*
X78527Y79660D03*
X74490Y92410D03*
X70700D03*
X94109Y-5064D03*
Y-8854D03*
X86441Y9160D03*
Y5370D03*
X81541Y9160D03*
Y5370D03*
X86090Y41510D03*
Y45300D03*
X91090Y41510D03*
Y45300D03*
X81090Y41510D03*
Y45300D03*
X93990Y57910D03*
X90200D03*
X90490Y70510D03*
Y74300D03*
X82317Y75053D03*
X86108D03*
X82317Y79660D03*
X89898D03*
X86108D03*
X93990Y92410D03*
X90200D03*
X93790Y97310D03*
X90000D03*
X84490Y107810D03*
X80700D03*
X93790Y102410D03*
X90000D03*
X85790Y171210D03*
X89580D03*
X85790Y176210D03*
X89580D03*
X94290Y177510D03*
Y173720D03*
X103764Y-5064D03*
X107554D03*
Y-10321D03*
Y-14111D03*
X99109Y-5064D03*
Y-8854D03*
X107554Y-14111D03*
X99109Y4467D03*
Y677D03*
X106090Y41510D03*
Y45300D03*
X101090Y41510D03*
Y45300D03*
X96090Y41510D03*
Y45300D03*
X98190Y57910D03*
X101980D03*
X109990D03*
X106200D03*
X100490Y70410D03*
X96700D03*
X103190Y80810D03*
X106980D03*
X101990Y92410D03*
X98200D03*
X109990D03*
X106200D03*
X106090Y153010D03*
X109880D03*
X109690Y159510D03*
X105899D03*
X109690Y164510D03*
X105899D03*
X109690Y169510D03*
X105899D03*
X109690Y179510D03*
X105899D03*
X109690Y174510D03*
X105899D03*
X109690Y184510D03*
X105899D03*
X109690Y194510D03*
X105899D03*
X109690Y189510D03*
X105899D03*
X109690Y199510D03*
X105899D03*
X109690Y204510D03*
X105899D03*
X109690Y209510D03*
X105899D03*
X111344Y-14111D03*
X111090Y41510D03*
Y45300D03*
X115090Y61010D03*
Y64800D03*
X115590Y86010D03*
Y89800D03*
X121840Y151310D03*
Y147520D03*
X117090Y151310D03*
Y147520D03*
X120690Y157510D03*
X116900D03*
X125890D03*
X120690Y167510D03*
X116900D03*
X125890D03*
X120690Y162510D03*
X116900D03*
X125890D03*
X120690Y177510D03*
X116900D03*
X120690Y172510D03*
X116900D03*
X125890Y177510D03*
Y172510D03*
X121080Y194510D03*
X117290D03*
X125890D03*
X121080Y189510D03*
X117290D03*
X125890D03*
X121080Y199258D03*
X117290D03*
X125890Y199510D03*
X121080Y204910D03*
X117290D03*
X125890Y204510D03*
X121080Y209510D03*
X117290D03*
X125890D03*
X116160Y219904D03*
X119950D03*
X115624Y244452D03*
Y240662D03*
X135805Y13434D03*
X132014D03*
X139595Y4800D03*
X135805D03*
Y13434D03*
Y9644D03*
X127851Y13434D03*
X135805Y22602D03*
Y26392D03*
X139595Y17902D03*
X135805D03*
X127851Y17224D03*
X135805Y39402D03*
Y35612D03*
X139595Y30902D03*
X135805D03*
X138729Y66717D03*
Y71336D03*
X137766Y121700D03*
X133976D03*
X134840Y151810D03*
Y148020D03*
X139840Y151810D03*
Y148020D03*
X129680Y157510D03*
Y167510D03*
Y162510D03*
Y177510D03*
Y172510D03*
Y194510D03*
Y189510D03*
Y199510D03*
X128490Y217710D03*
Y213920D03*
X141398Y212516D03*
X129680Y204510D03*
Y209510D03*
X136688Y231106D03*
Y227316D03*
X132371Y237800D03*
Y241590D03*
X136388Y237816D03*
Y241606D03*
X151871Y25600D03*
Y21810D03*
X156671Y21800D03*
Y25590D03*
X147233Y75126D03*
Y71336D03*
Y62927D03*
Y66717D03*
X142519Y66717D03*
Y71336D03*
X153071Y91810D03*
X152971Y84390D03*
Y80600D03*
X142271D03*
Y84390D03*
X153071Y95600D03*
X143571D03*
X147361D03*
X146840Y131310D03*
Y127520D03*
X151790Y151410D03*
Y147620D03*
X155717Y151410D03*
Y147620D03*
X144590Y151810D03*
Y148020D03*
X155690Y157510D03*
X151900D03*
X155690Y167510D03*
X151900D03*
X155690Y162510D03*
X151900D03*
X155690Y177510D03*
X151900D03*
X155690Y172510D03*
X151900D03*
X155690Y194510D03*
X151900D03*
X155690Y189510D03*
X151900D03*
X155690Y199510D03*
X151900D03*
X145188Y212516D03*
X155690Y204510D03*
X151900D03*
X155690Y209510D03*
X151900D03*
X154388Y230716D03*
Y242895D03*
Y239105D03*
Y234506D03*
X142913Y260668D03*
Y264458D03*
X147913Y260668D03*
Y264458D03*
X150919Y333760D03*
X147129D03*
X150919Y329760D03*
X147129D03*
X170071Y7700D03*
X166281D03*
X170071Y12300D03*
X166281D03*
X170071Y17000D03*
X166281D03*
X170071Y21600D03*
X166281D03*
X163475Y67300D03*
X167265D03*
X163475Y71800D03*
X167265D03*
X163475Y62800D03*
X167265D03*
X164271Y91800D03*
X170271Y83730D03*
Y79940D03*
X158071Y91810D03*
X157771Y78800D03*
Y82590D03*
X164271Y95590D03*
X158071Y95600D03*
X159790Y151410D03*
Y147620D03*
X164588Y151410D03*
Y147620D03*
X169288Y147716D03*
Y153016D03*
X160890Y157510D03*
X164680D03*
X160890Y167510D03*
X164680D03*
X160890Y162510D03*
X164680D03*
X160890Y172510D03*
X164680D03*
X160890Y177510D03*
X164680D03*
X160890Y194510D03*
X164680D03*
X160890Y189510D03*
X164680D03*
X160890Y199510D03*
X164680D03*
X171093Y189416D03*
X170945Y199410D03*
X171093Y194416D03*
X160890Y204510D03*
X164680D03*
X158590Y216210D03*
X160890Y209510D03*
X164680D03*
X170971Y204200D03*
X158590Y220000D03*
X168676Y230000D03*
X172466D03*
X158940Y239160D03*
Y242950D03*
X168271Y239104D03*
Y235314D03*
X163490Y239160D03*
Y242950D03*
X165205Y342500D03*
X161414D03*
X163272Y336841D03*
X159482D03*
X184760Y-5890D03*
Y-2100D03*
X180983Y40673D03*
Y44463D03*
X186771Y44600D03*
Y40810D03*
X175983Y40673D03*
Y44463D03*
X187071Y91000D03*
X175871D03*
X187071Y94790D03*
X175871D03*
X173078Y147716D03*
Y153016D03*
X173895Y167803D03*
X177685D03*
X173895Y162510D03*
X177685D03*
X173895Y157510D03*
X177685D03*
X173895Y172510D03*
X177685D03*
X188450Y183410D03*
X174100Y177715D03*
X177890D03*
X187090Y199310D03*
X183300D03*
X179271Y190700D03*
X183061D03*
X174883Y189416D03*
X174735Y199410D03*
X174883Y194416D03*
X182240Y207116D03*
X178450D03*
X182240Y211016D03*
X178450D03*
X182240Y214916D03*
X178450D03*
X174761Y204200D03*
X182240Y219116D03*
X178450D03*
X180988Y237516D03*
Y241306D03*
X184988Y241316D03*
Y237526D03*
X178871Y275141D03*
Y271351D03*
X178471Y288434D03*
Y284644D03*
X201760Y-2100D03*
Y-5890D03*
X196760Y-2100D03*
Y-5890D03*
X193071Y54800D03*
Y51010D03*
X195685Y89400D03*
X199475D03*
X192578Y103248D03*
Y107039D03*
X197256Y107084D03*
Y103294D03*
X200088Y180416D03*
X196298D03*
X192240Y183410D03*
X200071Y198600D03*
Y194810D03*
X194068Y327421D03*
Y331211D03*
X210425Y-7331D03*
Y-11121D03*
X206635Y-2074D03*
X210425D03*
X214215Y-11121D03*
X210425D03*
X215971Y60510D03*
X212571Y54700D03*
X208781D03*
X215971Y64300D03*
X219730Y76800D03*
X215940D03*
X216210Y86330D03*
X220000D03*
X216070Y81540D03*
X219860D03*
X211871Y92400D03*
Y96190D03*
X212983Y108863D03*
X216773D03*
X210171Y137100D03*
X213961D03*
X214064Y159868D03*
Y163658D03*
Y159868D03*
X217854D03*
X204571Y163658D03*
X208361D03*
X217771Y178800D03*
X217781Y183164D03*
X217781Y187717D03*
X217782Y193100D03*
X217766Y198500D03*
X217771Y203700D03*
X217781Y208900D03*
Y214100D03*
X217776Y229700D03*
X217766Y224500D03*
X217776Y219300D03*
X208671Y244200D03*
Y247990D03*
X217781Y245300D03*
X217776Y234900D03*
Y240100D03*
Y255700D03*
Y250500D03*
X211823Y261649D03*
Y257859D03*
X213855Y342760D03*
X217645D03*
X213855Y338939D03*
X217645D03*
X208005Y354657D03*
X211795D03*
X211805Y358509D03*
X208015D03*
X208005Y350657D03*
X211795D03*
X213855Y346698D03*
X217645D03*
X229071Y27610D03*
Y31400D03*
X230571Y64300D03*
X234361D03*
X221561Y178800D03*
X221571Y183164D03*
X221572Y187717D03*
X221572Y193100D03*
X221556Y198500D03*
X232771Y202100D03*
X228981D03*
X221561Y203700D03*
X221571Y208900D03*
Y214100D03*
X228983Y206030D03*
X232773D03*
X232783Y210800D03*
X228992D03*
X221566Y229700D03*
X221556Y224500D03*
X221566Y219300D03*
X221571Y245300D03*
X221566Y234900D03*
Y240100D03*
Y255700D03*
Y250500D03*
X223305Y442600D03*
Y446390D03*
X231305Y446900D03*
Y443110D03*
X245256Y67929D03*
X249046D03*
X245256Y72549D03*
X249046D03*
X240611Y76339D03*
Y72549D03*
X240411Y64139D03*
Y67929D03*
X244574Y85695D03*
X248364D03*
X237027Y103573D03*
Y107363D03*
X247027Y103573D03*
Y107363D03*
X242027Y103573D03*
Y107363D03*
X248702Y245826D03*
X248697Y241826D03*
X244881Y254647D03*
X248671D03*
X244906Y258634D03*
X248696D03*
X236305Y446900D03*
Y443110D03*
X253571Y7290D03*
Y3500D03*
X263393Y11100D03*
X253505Y11646D03*
X263393Y14890D03*
X259603D03*
X263393Y24602D03*
Y28392D03*
X259603Y19502D03*
X263393D03*
Y14890D03*
X253505Y15436D03*
X263393Y41402D03*
Y37612D03*
X259603Y33002D03*
X263393D03*
X262527Y103583D03*
Y107373D03*
X257527Y103573D03*
Y107363D03*
X252527Y103573D03*
Y107363D03*
X264447Y212670D03*
X264481Y208300D03*
X264447Y216870D03*
X265629Y229164D03*
X252492Y245826D03*
X252487Y241826D03*
X263616Y238037D03*
X259826D03*
X264236Y245826D03*
X260446D03*
X264236Y241826D03*
X260446D03*
X256466Y245826D03*
Y249616D03*
Y241826D03*
Y238036D03*
X256650Y254647D03*
X260440D03*
X256650Y258634D03*
X260440D03*
X252676Y254647D03*
Y250857D03*
Y258634D03*
Y262424D03*
X263324Y263138D03*
X259534D03*
X266305Y588600D03*
Y592390D03*
X272527Y103573D03*
Y107363D03*
X267527Y103573D03*
Y107363D03*
X282527Y103573D03*
Y107363D03*
X277527Y103573D03*
Y107363D03*
X279171Y202100D03*
X275381D03*
X273513Y214563D03*
Y210773D03*
X278513Y210763D03*
Y214553D03*
X268237Y212670D03*
X268271Y208300D03*
X268237Y216870D03*
X275345Y224659D03*
X271555D03*
X269420Y229164D03*
X282803Y419490D03*
Y423280D03*
X278260Y453780D03*
Y457570D03*
X272477Y457446D03*
Y453656D03*
X279805Y589100D03*
Y592890D03*
X283345Y214563D03*
Y210773D03*
X289859Y214600D03*
Y210810D03*
X282948Y453646D03*
Y457436D03*
X307981Y147044D03*
X311771D03*
X298771Y210800D03*
Y214590D03*
X304387Y215027D03*
X308177D03*
X311881Y220900D03*
X306828Y230800D03*
X310618D03*
X311071Y310931D03*
Y307141D03*
X311072Y316137D03*
X314230Y363773D03*
Y367563D03*
X327585Y50307D03*
Y46517D03*
X322285D03*
Y50307D03*
X315671Y220900D03*
X314862Y316137D03*
X323462D03*
X319672D03*
X324061Y363773D03*
Y367563D03*
X319061Y367573D03*
Y363783D03*
X321860Y389500D03*
Y393290D03*
X321760Y401700D03*
Y397910D03*
X322405Y491000D03*
X326195D03*
X333309Y50307D03*
Y46517D03*
X338871Y50200D03*
Y46410D03*
X332921Y170158D03*
X336711D03*
X335983Y178325D03*
Y182115D03*
X342605Y208200D03*
X336305Y548753D03*
X340095D03*
X345805Y-17600D03*
Y-21390D03*
X354805Y-21400D03*
Y-17610D03*
Y-7600D03*
Y-11390D03*
X350305Y-11400D03*
Y-7610D03*
X345805Y-7600D03*
Y-11390D03*
X346235Y75407D03*
Y71617D03*
X345705Y84500D03*
X349495D03*
X349861Y190900D03*
X346071D03*
X346395Y208200D03*
X350171Y341700D03*
X353961D03*
X350171Y355000D03*
X353961D03*
X350171Y350133D03*
X353961D03*
X353605Y555700D03*
Y551910D03*
G54D43*
X15805Y570500D03*
G54D52*
X102154Y-24942D03*
X112954D03*
X205025D03*
X215825D03*
X219464Y148136D03*
X208664D03*
G54D34*
X-22595Y550130D03*
Y552090D03*
Y554060D03*
Y556030D03*
Y558000D03*
Y559970D03*
Y561940D03*
Y563910D03*
Y565870D03*
G54D70*
X177809Y10150D03*
X179384D03*
X180958D03*
X182533D03*
Y15850D03*
X180958D03*
X179384D03*
X177809D03*
G54D61*
X127364Y383666D03*
Y381666D03*
X137364D03*
Y383666D03*
X127364Y389666D03*
Y387666D03*
Y385666D03*
X137364D03*
Y387666D03*
Y389666D03*
X148258D03*
Y387666D03*
Y385666D03*
Y383666D03*
Y381666D03*
X158258Y387666D03*
Y389666D03*
Y381666D03*
Y383666D03*
Y385666D03*
X167618Y383666D03*
Y381666D03*
Y389666D03*
Y387666D03*
Y385666D03*
X188171Y389666D03*
Y387666D03*
Y385666D03*
Y383666D03*
Y381666D03*
X177618D03*
Y383666D03*
Y385666D03*
Y387666D03*
Y389666D03*
X198171Y387666D03*
Y389666D03*
Y381666D03*
Y383666D03*
Y385666D03*
G54D80*
X221481Y273724D03*
X226841D03*
Y271754D03*
X221481D03*
Y269784D03*
X226841D03*
G54D62*
X132364Y385666D03*
X153258D03*
X172618D03*
X193171D03*
G54D17*
X-49104Y156674D03*
Y150375D03*
X-59340Y153524D03*
X-49104Y162973D03*
X-59340Y159823D03*
G54D35*
X-7582Y41100D03*
X-1676D03*
X266305Y598547D03*
Y604453D03*
X279805Y598547D03*
Y604453D03*
X306928Y151939D03*
X312834D03*
X310618Y225800D03*
Y235700D03*
X316524Y225800D03*
Y235700D03*
X342605Y197347D03*
Y203253D03*
X331352Y491000D03*
X337258D03*
X345705Y542847D03*
Y548753D03*
X349495Y90300D03*
X355401D03*
X353605Y547153D03*
Y541247D03*
G54D53*
X107554Y-18942D03*
X210425D03*
X214064Y154136D03*
X254974Y85695D03*
G54D26*
X-39911Y203340D03*
Y211214D03*
G54D71*
X189051Y116951D03*
X197751Y113201D03*
Y120701D03*
X219211Y44695D03*
X227911Y40945D03*
Y48445D03*
G54D44*
X20714Y359000D03*
X46896D03*
G54D63*
X138143Y400366D03*
X133143D03*
Y461466D03*
X138143D03*
X153143Y400366D03*
X143143D03*
X148143D03*
Y461466D03*
X153143D03*
X143143D03*
X168143Y400366D03*
X158143D03*
X163143D03*
Y461466D03*
X168143D03*
X158143D03*
X183143Y400366D03*
X188143D03*
X173143D03*
X178143D03*
Y461466D03*
X183143D03*
X188143D03*
X173143D03*
G54D72*
X183817Y280166D03*
X184017Y275141D03*
Y266873D03*
X183817Y288434D03*
X200943Y280166D03*
X201143Y275141D03*
Y266873D03*
X200943Y288434D03*
G54D27*
X-34640Y223463D03*
X-40840D03*
X48171Y86300D03*
X54371D03*
X89990Y107810D03*
X83990Y165110D03*
X90190D03*
X96190Y107810D03*
X123100Y183510D03*
X116900D03*
X117290Y214610D03*
X123490D03*
X139571Y116500D03*
X133371D03*
X130690Y183510D03*
X136890D03*
X134471Y221400D03*
X140671D03*
X145700Y183660D03*
X151900D03*
X158480Y183510D03*
X164680D03*
X171690D03*
X177890D03*
X186790Y230660D03*
X180590D03*
X186490Y249810D03*
X193276Y94568D03*
X199476D03*
X192690Y249810D03*
X265804Y233707D03*
X259604D03*
X330371Y84700D03*
X330571Y78500D03*
X336571Y84700D03*
X336771Y78500D03*
G54D54*
X112059Y9646D03*
X123859D03*
X235569Y11646D03*
X247369D03*
G54D36*
X-1140Y92600D03*
Y98800D03*
X-2910Y172810D03*
Y179010D03*
X-4695Y289400D03*
Y295600D03*
X-11195D03*
Y289400D03*
X58788Y20763D03*
Y26963D03*
X52976Y20763D03*
Y26963D03*
X88025Y-11264D03*
Y-5064D03*
X92887Y28621D03*
Y34821D03*
X106271Y140800D03*
Y147000D03*
X125671Y136100D03*
Y142300D03*
X141788Y201016D03*
Y207216D03*
Y233516D03*
Y227316D03*
X147871Y86800D03*
Y80600D03*
X153790Y216210D03*
X147788Y221116D03*
Y227316D03*
X153790Y222410D03*
X163871Y85000D03*
Y78800D03*
X165188Y214816D03*
X171590D03*
X165188Y221016D03*
X171590D03*
X173340Y241510D03*
Y235310D03*
X181471Y91000D03*
Y97200D03*
X190760Y-8300D03*
Y-2100D03*
X193071Y38400D03*
Y44600D03*
X196190Y243716D03*
Y237516D03*
X190088Y243716D03*
Y237516D03*
X204271Y242900D03*
Y249100D03*
X217471Y92400D03*
Y98600D03*
X223671Y25400D03*
Y31600D03*
X223071Y58100D03*
Y64300D03*
X257305Y421600D03*
Y415400D03*
X280083Y28768D03*
Y34968D03*
X280183Y42368D03*
Y48568D03*
X275805Y391900D03*
Y398100D03*
X305604Y304731D03*
Y310931D03*
X302805Y375900D03*
Y382100D03*
X352059Y76432D03*
Y70232D03*
G54D81*
X228318Y462821D03*
X222412D03*
X228318Y483541D03*
X222412D03*
X228468Y472841D03*
X222562D03*
X228468Y494041D03*
X222562D03*
G54D45*
X45405Y530450D03*
Y551550D03*
X60405Y530450D03*
Y551550D03*
X55405D03*
X50405D03*
G54D18*
X-54222Y142304D03*
Y171044D03*
G54D90*
X300515Y544670D03*
X302485D03*
X306425D03*
X308385D03*
X312325D03*
X314295D03*
G54D82*
X236242Y517958D03*
Y538430D03*
X278368Y517958D03*
Y538430D03*
G54D64*
X129353Y526882D03*
X142353D03*
X129353Y537118D03*
X142353D03*
X154305Y526882D03*
Y537118D03*
X167305Y526882D03*
Y537118D03*
X179305Y526882D03*
Y537118D03*
X192305Y526882D03*
Y537118D03*
G54D73*
X184017Y272287D03*
Y269727D03*
X183817Y285580D03*
Y283020D03*
X201143Y272287D03*
Y269727D03*
X200943Y285580D03*
Y283020D03*
G54D55*
X117959Y9646D03*
X241469Y11646D03*
G54D28*
X-29545Y319000D03*
X-41845D03*
X-29545Y329000D03*
X-41845D03*
X-37845Y481200D03*
Y490700D03*
X-25545Y481200D03*
Y490700D03*
X38655Y563000D03*
X50955D03*
X291155Y581000D03*
X303455D03*
G54D91*
X302805Y594398D03*
Y606602D03*
G54D46*
X50405Y529450D03*
X55405D03*
X335773Y516000D03*
X331837D03*
G54D19*
X-33420Y293190D03*
Y603190D03*
X-23920Y183500D03*
X0Y0D03*
X304330D03*
X307500Y183500D03*
X326579Y343340D03*
Y603190D03*
G54D37*
X-6095Y398000D03*
Y410400D03*
G54D47*
X76205Y22740D03*
Y19000D03*
Y15260D03*
X86441D03*
Y22740D03*
G54D74*
X187377Y351341D03*
G54D83*
X230846Y567788D03*
Y564442D03*
X234192D03*
Y567788D03*
X230846Y583497D03*
Y580150D03*
X234192D03*
Y583497D03*
X230846Y599206D03*
Y595859D03*
X234192D03*
Y599206D03*
X230846Y614914D03*
Y611568D03*
X234192D03*
Y614914D03*
G54D65*
X149929Y354639D03*
Y346765D03*
G54D38*
X-4195Y483750D03*
Y492250D03*
X96805Y365900D03*
Y374400D03*
X115805Y358750D03*
Y367250D03*
G54D92*
X329020Y56218D03*
Y70418D03*
X331579Y56218D03*
X336698D03*
X334138D03*
X331579Y70418D03*
X336698D03*
X334138D03*
G54D29*
X-34195Y343917D03*
Y371083D03*
G54D56*
X125805Y46817D03*
Y59415D03*
X135805Y46817D03*
X130805D03*
X135805Y59415D03*
X130805D03*
X253393Y61415D03*
X263393D03*
Y48817D03*
X258393Y61415D03*
Y48817D03*
X253393D03*
G54D75*
X172877Y336841D03*
Y365841D03*
X201877Y336841D03*
Y365841D03*
G54D48*
X76472Y32649D03*
X84346D03*
G54D66*
X169072Y126213D03*
X171171Y134100D03*
X163371Y142200D03*
X167471Y142100D03*
X180071Y54700D03*
X179611Y67176D03*
X182761D03*
X186811Y67125D03*
X181158Y122071D03*
X181546Y136218D03*
X187066Y161856D03*
X187040Y193360D03*
X182090Y194660D03*
X186871Y189300D03*
X197671Y44500D03*
X200161Y67226D03*
X197011D03*
X189961Y67125D03*
X193861Y67226D03*
X194940Y165793D03*
X190990Y193310D03*
X191090Y189410D03*
G54D39*
X755Y604300D03*
Y596700D03*
X-9145Y600500D03*
G54D57*
X121783Y276568D03*
X135783D03*
X282260Y315500D03*
X296260D03*
G54D93*
X325759Y59480D03*
Y67157D03*
Y64598D03*
Y62039D03*
X339959Y59480D03*
Y62039D03*
Y64598D03*
Y67157D03*
G54D84*
X244971Y206610D03*
X239971D03*
X249971D03*
Y228190D03*
X244971D03*
X239971D03*
X254971Y206610D03*
Y228190D03*
G54D94*
X322230Y302074D03*
X317112D03*
Y310736D03*
X322230D03*
X319671D03*
G54D67*
X165543Y324342D03*
X172235D03*
Y329658D03*
X165543D03*
G54D76*
X179503Y340672D03*
X183440D03*
X187377D03*
X174739Y342483D03*
Y340514D03*
X176550Y338703D03*
X178519D03*
X180487D03*
X182456D03*
X184424D03*
X186393D03*
X172771Y341498D03*
Y338939D03*
X174976Y336735D03*
X177535D03*
X181472D03*
X185409D03*
X176708Y357246D03*
Y353309D03*
Y351341D03*
Y347404D03*
Y343467D03*
X174739Y358231D03*
Y356262D03*
Y354294D03*
Y352325D03*
Y350357D03*
Y348388D03*
Y346420D03*
Y344451D03*
X172771Y357246D03*
Y353309D03*
Y349372D03*
Y345435D03*
X185409Y362010D03*
X183440D03*
X179503D03*
X186393Y363979D03*
X184424D03*
X182456D03*
X180487D03*
X178519D03*
X176550D03*
X174739Y362168D03*
Y360199D03*
X185409Y365947D03*
X181472D03*
X177535D03*
X174976D03*
X172771Y363743D03*
Y361183D03*
X189346Y340672D03*
X193283D03*
X197220D03*
X188362Y338703D03*
X190330D03*
X192298D03*
X194267D03*
X196236D03*
X198204D03*
X200015Y340514D03*
Y342483D03*
X189346Y336735D03*
X193283D03*
X197220D03*
X199779D03*
X201984Y338939D03*
Y341498D03*
X198046Y345435D03*
Y349372D03*
Y353309D03*
Y357246D03*
X200015Y346420D03*
Y348388D03*
Y350357D03*
Y352325D03*
Y354294D03*
Y356262D03*
Y358231D03*
Y344451D03*
X201984Y349372D03*
Y353309D03*
Y357246D03*
Y345435D03*
X195251Y362010D03*
X191314D03*
X189346D03*
X198204Y363979D03*
X196236D03*
X194267D03*
X192298D03*
X190330D03*
X188362D03*
X200015Y360199D03*
Y362168D03*
X199779Y365947D03*
X197220D03*
X193283D03*
X189346D03*
X201984Y361183D03*
Y363743D03*
G54D58*
X124505Y370450D03*
X132105D03*
X128305Y360550D03*
G54D49*
X66755Y343400D03*
Y348400D03*
Y370900D03*
Y375900D03*
G54D85*
X247305Y405760D03*
Y428240D03*
X297305Y453260D03*
Y475740D03*
X312805Y453260D03*
Y475740D03*
G54D59*
X127200Y512000D03*
X142000D03*
X153405Y498000D03*
X168205D03*
X179700Y514000D03*
X194500D03*
G54D68*
X167386Y349039D03*
X160586D03*
G54D86*
X260974Y91095D03*
Y80295D03*
G54D95*
X318625Y530510D03*
Y528540D03*
Y526570D03*
Y522640D03*
Y520670D03*
Y518700D03*
Y540350D03*
Y538380D03*
Y536420D03*
Y532480D03*
G54D77*
X184814Y372067D03*
Y374427D03*
X187173Y372067D03*
Y374427D03*
X180094Y371217D03*
Y373577D03*
X182454Y371217D03*
Y373577D03*
X194693Y371967D03*
Y374327D03*
X197053Y371967D03*
Y374327D03*
X192333Y371967D03*
Y374327D03*
X199413Y371967D03*
Y374327D03*
G54D87*
X280545Y346000D03*
X280545Y355000D03*
X293145Y346000D03*
X293145Y355000D03*
X328371Y93100D03*
X340971D03*
G54D96*
X332859Y63357D03*
G54D78*
X209305Y486100D03*
Y500900D03*
G54D69*
X180171Y13000D03*
G54D79*
X228208Y116779D03*
X230177D03*
X234114D03*
X232144D03*
X228208Y193157D03*
X230177D03*
X234114D03*
X232144D03*
X249862Y116779D03*
X243955D03*
X241988D03*
X240018D03*
X238051D03*
X236081D03*
X247892D03*
X245925D03*
X238051Y193157D03*
X236081D03*
X245925D03*
X241988D03*
X247892D03*
X249862D03*
X243955D03*
X240018D03*
X251830Y116779D03*
X257736D03*
X255766D03*
X265610D03*
X263641D03*
X253799D03*
X259704D03*
X261673D03*
X255766Y193157D03*
X265610D03*
X261673D03*
X257736D03*
X251830D03*
X263641D03*
X259704D03*
X253799D03*
X281357Y116779D03*
X279389D03*
X277421D03*
X275452D03*
X273484D03*
X271514D03*
X269547D03*
X267578D03*
X273484Y193157D03*
X269547D03*
X271514D03*
X267578D03*
X275452D03*
X279389D03*
X281357D03*
X277421D03*
G54D97*
X335618Y264337D03*
Y262369D03*
Y260400D03*
Y258432D03*
Y256463D03*
Y280085D03*
Y278117D03*
Y276148D03*
Y274180D03*
Y272211D03*
Y270243D03*
Y268274D03*
Y266306D03*
Y293865D03*
Y291896D03*
Y289928D03*
Y287959D03*
Y285991D03*
Y284022D03*
Y282054D03*
Y396112D03*
Y402017D03*
Y392175D03*
Y394143D03*
Y398080D03*
Y400049D03*
Y403986D03*
Y405954D03*
Y407923D03*
Y413828D03*
Y419734D03*
Y409891D03*
Y411860D03*
Y415797D03*
Y417765D03*
Y421702D03*
Y425639D03*
Y431545D03*
Y423671D03*
Y427608D03*
Y429576D03*
Y433513D03*
Y435482D03*
Y437450D03*
Y443356D03*
Y449261D03*
Y439419D03*
Y441387D03*
Y445324D03*
Y447293D03*
X359240Y256463D03*
Y258432D03*
Y260400D03*
Y262369D03*
Y264337D03*
Y266306D03*
Y268274D03*
Y270243D03*
Y272211D03*
Y274180D03*
Y276148D03*
Y278117D03*
Y280085D03*
Y282054D03*
Y284022D03*
Y285991D03*
Y287959D03*
Y289928D03*
Y291896D03*
Y293865D03*
Y392175D03*
Y394143D03*
Y396112D03*
Y398080D03*
Y400049D03*
Y402017D03*
Y403986D03*
Y405954D03*
Y407923D03*
Y413828D03*
Y419734D03*
Y409891D03*
Y411860D03*
Y415797D03*
Y417765D03*
Y421702D03*
Y425639D03*
Y433513D03*
Y435482D03*
Y423671D03*
Y427608D03*
Y429576D03*
Y431545D03*
Y437450D03*
Y445324D03*
Y449261D03*
Y439419D03*
Y441387D03*
Y443356D03*
Y447293D03*
G54D88*
X296185Y518750D03*
Y520720D03*
Y522680D03*
Y526620D03*
Y528590D03*
Y530560D03*
Y532530D03*
Y536460D03*
Y538430D03*
Y540400D03*
G54D98*
X354751Y488245D03*
Y507929D03*
X365775Y498087D03*
G54D89*
X312325Y514330D03*
X308385D03*
X306425D03*
X302485D03*
X300515D03*
X314295D03*
G54D99*
G01X-596541Y261502D02*
X-576856D01*
G01X230231Y846147D02*
Y826462D01*
G01X1057002Y261502D02*
X1037317D01*
M02*
