G04 ================== begin FILE IDENTIFICATION RECORD ==================*
G04 Layout Name:  toweNode-eNB-v1.0-RevB_1145am.brd*
G04 Film Name:    toweNode-eNB-v1.0-RevB_PMB.gbr*
G04 File Format:  Gerber RS274X*
G04 File Origin:  Cadence Allegro 17.2-S052*
G04 Origin Date:  Tue Mar 08 07:05:41 2022*
G04 *
G04 Layer:  BOARD GEOMETRY/TITLE_BLOCK*
G04 Layer:  BOARD GEOMETRY/OUTLINE*
G04 Layer:  DRAWING FORMAT/OUTLINE_DATA*
G04 Layer:  PACKAGE GEOMETRY/PASTEMASK_BOTTOM*
G04 Layer:  PIN/PASTEMASK_BOTTOM*
G04 *
G04 Offset:    (0.000 0.000)*
G04 Mirror:    No*
G04 Mode:      Positive*
G04 Rotation:  0*
G04 FullContactRelief:  No*
G04 UndefLineWidth:     6.000*
G04 ================== end FILE IDENTIFICATION RECORD ====================*
%FSLAX55Y55*MOIN*%
%IR0*IPPOS*OFA0.00000B0.00000*MIA0B0*SFA1.00000B1.00000*%
%ADD66R,.029921X.066929*%
%ADD86R,.011799X.028299*%
%ADD70R,.025598X.011799*%
%ADD87R,.028299X.011799*%
%ADD45O,.068988X.021748*%
%ADD38R,.08898X.085039*%
%ADD56R,.027559X.019689*%
%ADD18R,.055X.11*%
%ADD85R,.023598X.059799*%
%ADD75R,.008X.024*%
%ADD69R,.08474X.12411*%
%ADD27R,.140161X.055118*%
%ADD49R,.064961X.125*%
%ADD16C,.320961*%
%ADD63R,.2205X.090598*%
%ADD41R,.093701X.354331*%
%ADD97R,.070902X.007902*%
%ADD82R,.007902X.007902*%
%ADD47R,.106299X.04724*%
%ADD15O,.159539X.061118*%
%ADD19R,.098421X.129921*%
%ADD50R,.098421X.137799*%
%ADD93R,.04X.014*%
%ADD40R,.03X.024*%
%ADD33R,.009839X.027559*%
%ADD10R,.03X.06*%
%ADD92R,.014X.04*%
%ADD48R,.06X.03*%
%ADD42R,.024X.03*%
%ADD34R,.027559X.009839*%
%ADD67R,.07X.06*%
%ADD78R,.043X.045*%
%ADD89R,.094X.04*%
%ADD81R,.045X.043*%
%ADD73R,.02X.087*%
%ADD24R,.043X.028*%
%ADD12R,.032X.038*%
%ADD83R,.028X.043*%
%ADD74R,.047X.016*%
%ADD61R,.04X.094*%
%ADD37R,.044X.04222*%
%ADD64R,.034X.065*%
%ADD31R,.04222X.044*%
%ADD55R,.059X.051*%
%ADD21R,.051X.059*%
%ADD57R,.075X.055*%
%ADD43R,.055X.039*%
%ADD32C,.026*%
%ADD96R,.083X.083*%
%ADD68R,.02X.02*%
%ADD35R,.055X.075*%
%ADD20R,.039X.055*%
%ADD25R,.0315X.035402*%
%ADD11R,.021X.021*%
%ADD22R,.031X.031*%
%ADD28R,.068X.058*%
%ADD65R,.026X.026*%
%ADD30R,.08661X.0315*%
%ADD62R,.046X.046*%
%ADD59R,.0315X.08661*%
%ADD13R,.028X.028*%
%ADD46R,.035429X.0315*%
%ADD39R,.043311X.043311*%
%ADD29C,.04537*%
%ADD26R,.035402X.019701*%
%ADD94R,.049201X.070902*%
%ADD44R,.023228X.01772*%
%ADD17R,.0375X.0375*%
%ADD91R,.015748X.011811*%
%ADD84R,.01772X.01772*%
%ADD77R,.041339X.01378*%
%ADD52R,.025591X.04724*%
%ADD79R,.011811X.059059*%
%ADD60R,.04537X.057181*%
%ADD23R,.02402X.059839*%
%ADD14O,.072929X.049311*%
%ADD95R,.01978X.039461*%
%ADD98R,.062988X.04724*%
%ADD58R,.03937X.027559*%
%ADD53R,.066929X.093311*%
%ADD36R,.027559X.03937*%
%ADD71R,.049598X.080701*%
%ADD76R,.041339X.019689*%
%ADD54R,.027559X.016539*%
%ADD51R,.027559X.019681*%
%ADD90R,.015748X.027559*%
%ADD80R,.018098X.011799*%
%ADD88R,.084598X.084598*%
%ADD72R,.015799X.070098*%
%ADD99C,.019689*%
%ADD100C,.005*%
%ADD101C,.00787*%
%ADD102C,.01*%
%ADD103C,.006*%
G75*
%LPD*%
G75*
G36*
G01X-173670Y433313D02*
G03Y425537I4445J-3888D01*
G01X-176875Y422331D01*
G02Y436519I7650J7094D01*
G01X-173670Y433313D01*
G37*
G36*
G01X-173113Y424980D02*
G03X-165337I3888J4445D01*
G01X-162131Y421775D01*
G02X-176319I-7094J7650D01*
G01X-173113Y424980D01*
G37*
G36*
G01X-165337Y433870D02*
G03X-173113I-3888J-4445D01*
G01X-176319Y437075D01*
G02X-162131I7094J-7650D01*
G01X-165337Y433870D01*
G37*
G36*
G01X-168893Y545716D02*
Y541484D01*
X-166629D01*
Y545716D01*
X-168893D01*
G37*
G36*
G01Y551916D02*
Y547684D01*
X-166629D01*
Y551916D01*
X-168893D01*
G37*
G36*
G01X-164780Y425537D02*
G03Y433313I-4445J3888D01*
G01X-161575Y436519D01*
G02Y422331I-7650J-7094D01*
G01X-164780Y425537D01*
G37*
G36*
G01X-164661Y545716D02*
Y541484D01*
X-162397D01*
Y545716D01*
X-164661D01*
G37*
G36*
G01Y551916D02*
Y547684D01*
X-162397D01*
Y551916D01*
X-164661D01*
G37*
G36*
G01X-111229Y574632D02*
X-117529D01*
Y568727D01*
X-111229D01*
Y574632D01*
G37*
G36*
G01Y566758D02*
X-117529D01*
Y560853D01*
X-111229D01*
Y566758D01*
G37*
G36*
G01X-102961D02*
X-109261D01*
Y560853D01*
X-102961D01*
Y566758D01*
G37*
G36*
G01Y574632D02*
X-109261D01*
Y568727D01*
X-102961D01*
Y574632D01*
G37*
G36*
G01X-95839Y348953D02*
X-101744D01*
Y354858D01*
X-95839D01*
Y348953D01*
G37*
G36*
G01Y342260D02*
Y348165D01*
X-101744D01*
Y342260D01*
X-95839D01*
G37*
G36*
G01X-89146Y348953D02*
X-95051D01*
Y354858D01*
X-89146D01*
Y348953D01*
G37*
G36*
G01Y342260D02*
Y348165D01*
X-95051D01*
Y342260D01*
X-89146D01*
G37*
G36*
G01X137116Y460427D02*
X139971D01*
Y462395D01*
X137116D01*
Y460427D01*
G37*
G36*
G01X141939D02*
X144794D01*
Y462395D01*
X141939D01*
Y460427D01*
G37*
G36*
G01X137116Y464364D02*
X139971D01*
Y466332D01*
X137116D01*
Y464364D01*
G37*
G36*
G01X141939D02*
X144794D01*
Y466332D01*
X141939D01*
Y464364D01*
G37*
G36*
G01X136329Y467710D02*
X137904D01*
Y468891D01*
X136329D01*
Y467710D01*
G37*
G36*
G01X137116Y492527D02*
X139971D01*
Y494495D01*
X137116D01*
Y492527D01*
G37*
G36*
G01X141939D02*
X144794D01*
Y494495D01*
X141939D01*
Y492527D01*
G37*
G36*
G01X137116Y496464D02*
X139971D01*
Y498432D01*
X137116D01*
Y496464D01*
G37*
G36*
G01X141939D02*
X144794D01*
Y498432D01*
X141939D01*
Y496464D01*
G37*
G36*
G01X136329Y499810D02*
X137904D01*
Y500991D01*
X136329D01*
Y499810D01*
G37*
G36*
G01X144794Y526136D02*
X141939D01*
Y524168D01*
X144794D01*
Y526136D01*
G37*
G36*
G01X139971D02*
X137116D01*
Y524168D01*
X139971D01*
Y526136D01*
G37*
G36*
G01X145581Y522790D02*
X144006D01*
Y521609D01*
X145581D01*
Y522790D01*
G37*
G36*
G01X144794Y530073D02*
X141939D01*
Y528105D01*
X144794D01*
Y530073D01*
G37*
G36*
G01X139971D02*
X137116D01*
Y528105D01*
X139971D01*
Y530073D01*
G37*
G36*
G01X144794Y558036D02*
X141939D01*
Y556068D01*
X144794D01*
Y558036D01*
G37*
G36*
G01X139971D02*
X137116D01*
Y556068D01*
X139971D01*
Y558036D01*
G37*
G36*
G01X145581Y554690D02*
X144006D01*
Y553509D01*
X145581D01*
Y554690D01*
G37*
G36*
G01X144794Y561973D02*
X141939D01*
Y560005D01*
X144794D01*
Y561973D01*
G37*
G36*
G01X139971D02*
X137116D01*
Y560005D01*
X139971D01*
Y561973D01*
G37*
G36*
G01X165216Y460427D02*
X168071D01*
Y462395D01*
X165216D01*
Y460427D01*
G37*
G36*
G01X170039D02*
X172894D01*
Y462395D01*
X170039D01*
Y460427D01*
G37*
G36*
G01X165216Y464364D02*
X168071D01*
Y466332D01*
X165216D01*
Y464364D01*
G37*
G36*
G01X170039D02*
X172894D01*
Y466332D01*
X170039D01*
Y464364D01*
G37*
G36*
G01X164429Y467710D02*
X166004D01*
Y468891D01*
X164429D01*
Y467710D01*
G37*
G36*
G01X165216Y492527D02*
X168071D01*
Y494495D01*
X165216D01*
Y492527D01*
G37*
G36*
G01X170039D02*
X172894D01*
Y494495D01*
X170039D01*
Y492527D01*
G37*
G36*
G01X165216Y496464D02*
X168071D01*
Y498432D01*
X165216D01*
Y496464D01*
G37*
G36*
G01X170039D02*
X172894D01*
Y498432D01*
X170039D01*
Y496464D01*
G37*
G36*
G01X164429Y499810D02*
X166004D01*
Y500991D01*
X164429D01*
Y499810D01*
G37*
G36*
G01X172894Y526136D02*
X170039D01*
Y524168D01*
X172894D01*
Y526136D01*
G37*
G36*
G01X168071D02*
X165216D01*
Y524168D01*
X168071D01*
Y526136D01*
G37*
G36*
G01X173681Y522790D02*
X172106D01*
Y521609D01*
X173681D01*
Y522790D01*
G37*
G36*
G01X172894Y530073D02*
X170039D01*
Y528105D01*
X172894D01*
Y530073D01*
G37*
G36*
G01X168071D02*
X165216D01*
Y528105D01*
X168071D01*
Y530073D01*
G37*
G36*
G01X172894Y558036D02*
X170039D01*
Y556068D01*
X172894D01*
Y558036D01*
G37*
G36*
G01X168071D02*
X165216D01*
Y556068D01*
X168071D01*
Y558036D01*
G37*
G36*
G01X173681Y554690D02*
X172106D01*
Y553509D01*
X173681D01*
Y554690D01*
G37*
G36*
G01X172894Y561973D02*
X170039D01*
Y560005D01*
X172894D01*
Y561973D01*
G37*
G36*
G01X168071D02*
X165216D01*
Y560005D01*
X168071D01*
Y561973D01*
G37*
G54D100*
G01X-220745Y485344D02*
Y618190D01*
X-240745D01*
Y-36500D01*
X-220745D01*
Y118000D01*
G01Y128000D02*
Y118000D01*
G01Y128000D02*
G02X-214545I3100J0D01*
G01X-220745Y148000D02*
Y158000D01*
G01X-214545Y148000D02*
G02X-220745I-3100J0D01*
G01Y291672D02*
Y158000D01*
G01Y291672D02*
G02X-214545I3100J0D01*
G01X-220745Y455344D02*
Y321672D01*
G01X-214545Y311672D02*
G02X-220745I-3100J0D01*
G01D02*
Y321672D01*
G01Y455344D02*
G02X-214545I3100J0D01*
G01X-220745Y475344D02*
Y485344D01*
G01X-214545Y475344D02*
G02X-220745I-3100J0D01*
G01X-214545Y-3035D02*
Y-24689D01*
X-202734Y-36500D01*
X-115530D01*
Y-8973D01*
G02X-113530Y-6973I2000J0D01*
G01X-68317D01*
G02X-66317Y-8973I0J-2000D01*
G01Y-36500D01*
X-11198D01*
X-11199Y-8973D01*
G02X-9199Y-6973I2000J0D01*
G01X30108D01*
G02X32108Y-8973I0J-2000D01*
G01X32109Y-36500D01*
X87227D01*
X87226Y-8973D01*
G02X89226Y-6973I2000J0D01*
G01X134439D01*
G02X136439Y-8973I0J-2000D01*
G01Y-36500D01*
X223643D01*
X235455Y-24689D01*
Y107173D01*
G01X-214545Y118000D02*
Y-3035D01*
G01Y128000D02*
Y118000D01*
G01Y148000D02*
Y158000D01*
G01Y281672D02*
Y158000D01*
G01Y291672D02*
Y281672D01*
G01Y311672D02*
Y321672D01*
G01Y445344D02*
Y321672D01*
G01Y455344D02*
Y445344D01*
G01Y475344D02*
Y485344D01*
G01X235455Y474517D02*
Y606379D01*
X223644Y618190D01*
X-202734D01*
X-214545Y606379D01*
Y485344D01*
G01X235455Y117173D02*
Y107173D01*
G01Y117173D02*
G02X241655I3100J0D01*
G01X235455Y137173D02*
Y147173D01*
G01X241655Y137173D02*
G02X235455I-3100J0D01*
G01Y147173D02*
Y270845D01*
G01Y280845D02*
Y270845D01*
G01Y280845D02*
G02X241655I3100J0D01*
G01Y300845D02*
G02X235455I-3100J0D01*
G01D02*
Y310845D01*
G01D02*
Y434517D01*
G01Y444517D02*
G02X241655I3100J0D01*
G01X235455D02*
Y434517D01*
G01X241655Y464517D02*
G02X235455I-3100J0D01*
G01D02*
Y474517D01*
G01X241655D02*
Y618190D01*
X261655D01*
Y-36500D01*
X241655D01*
Y107173D01*
G01Y117173D02*
Y107173D01*
G01Y137173D02*
Y270845D01*
G01Y280845D02*
Y270845D01*
G01Y444517D02*
Y300845D01*
G01Y464517D02*
Y474517D01*
G54D101*
G01X-732346Y-143498D02*
X-712661D01*
G01X-732346Y56502D02*
X-712661D01*
G01X-732346Y456502D02*
X-712661D01*
G01X-732346Y656502D02*
X-712661D01*
G01Y-308459D02*
X901512D01*
G01X-712661D02*
Y821462D01*
G01X-715650Y256502D02*
G03X-709672I2989J0D01*
G03X-715650I-2989J0D01*
G01X-712661Y821462D02*
X901512D01*
G01X-505574Y-328144D02*
Y-308459D01*
G01Y841147D02*
Y821462D01*
G01X-305574Y-328144D02*
Y-308459D01*
G01Y841147D02*
Y821462D01*
G01X-105574Y-328144D02*
Y-308459D01*
G01Y841147D02*
Y821462D01*
G01X91436D02*
G03X97415I2989J0D01*
G03X91436I-2989J0D01*
G01X294426Y841147D02*
Y821462D01*
G01X494426Y-328144D02*
Y-308459D01*
G01Y841147D02*
Y821462D01*
G01X694426Y-328144D02*
Y-308459D01*
G01Y841147D02*
Y821462D01*
G01X898523Y256502D02*
G03X904502I2989J0D01*
G03X898523I-2989J0D01*
G01X901512Y-308459D02*
Y821462D01*
G01X921197Y-143498D02*
X901512D01*
G01X921197Y56502D02*
X901512D01*
G01X921197Y456502D02*
X901512D01*
G01X921197Y656502D02*
X901512D01*
G54D102*
G01X-241760Y-182076D02*
Y-261276D01*
G01D02*
X186140D01*
G01X-241760Y-241276D02*
X260840D01*
G01X-241760Y-221276D02*
X260840D01*
G01X-241760Y-201276D02*
X260840D01*
G01Y-182076D02*
X-241760D01*
G01X186140Y-261276D02*
X260840D01*
G01D02*
Y-182076D01*
G54D103*
G01X-732346Y-328144D02*
X921197D01*
G01X-732346D02*
Y841147D01*
G01D02*
X921197D01*
G01X-233085Y-251009D02*
X-236085D01*
G01Y-246176D02*
X-231335D01*
G01X-236085Y-256176D02*
Y-246176D01*
G01X-232860Y-230777D02*
X-236735D01*
G01X-231985Y-231110D02*
X-232860Y-230777D01*
G01X-231235Y-232110D02*
X-231985Y-231110D01*
G01X-230985Y-233277D02*
X-231235Y-232110D01*
G01Y-234443D02*
X-230985Y-233277D01*
G01X-231735Y-235443D02*
X-231235Y-234443D01*
G01X-232610Y-236110D02*
X-231735Y-235443D01*
G01X-236735Y-236110D02*
X-232610D01*
G01X-236735Y-226110D02*
Y-236110D01*
G01X-231985Y-227277D02*
X-232485Y-226610D01*
G01X-231735Y-228277D02*
X-231985Y-227277D01*
G01Y-229444D02*
X-231735Y-228277D01*
G01X-232360Y-230277D02*
X-231985Y-229444D01*
G01X-232860Y-230777D02*
X-232360Y-230277D01*
G01X-233760Y-216576D02*
X-236260D01*
G01X-232760Y-216076D02*
X-233760Y-216576D01*
G01X-232010Y-215410D02*
X-232760Y-216076D01*
G01X-231385Y-214409D02*
X-232010Y-215410D01*
G01X-230885Y-213243D02*
X-231385Y-214409D01*
G01X-230760Y-211576D02*
X-230885Y-213243D01*
G01X-236260Y-216576D02*
Y-206576D01*
G01X-233360Y-226110D02*
X-236735D01*
G01X-232485Y-226610D02*
X-233360Y-226110D01*
G01X-233560Y-197376D02*
X-236060D01*
G01X-232560Y-196876D02*
X-233560Y-197376D01*
G01X-231810Y-196210D02*
X-232560Y-196876D01*
G01X-231185Y-195209D02*
X-231810Y-196210D01*
G01X-236060Y-197376D02*
Y-187376D01*
G01X-233760Y-206576D02*
X-232760Y-207076D01*
G01X-236260Y-206576D02*
X-233760D01*
G01X-230885Y-209910D02*
X-230760Y-211576D01*
G01X-231385Y-208743D02*
X-230885Y-209910D01*
G01X-232010Y-207743D02*
X-231385Y-208743D01*
G01X-232760Y-207076D02*
X-232010Y-207743D01*
G01X-231185Y-189543D02*
X-230685Y-190710D01*
G01X-231810Y-188543D02*
X-231185Y-189543D01*
G01X-232560Y-187876D02*
X-231810Y-188543D01*
G01X-233560Y-187376D02*
X-232560Y-187876D01*
G01X-236060Y-187376D02*
X-233560D01*
G01X-230685Y-194043D02*
X-231185Y-195209D01*
G01X-225210Y-246176D02*
X-222210D01*
G01X-216210Y-256176D02*
X-211210D01*
G01X-216210Y-246176D02*
Y-256176D01*
G01X-225210D02*
X-222210D01*
G01X-223710Y-246176D02*
Y-256176D01*
G01X-211860Y-232610D02*
X-215860D01*
G01X-216985Y-236110D02*
X-213860Y-226110D01*
G01X-222860Y-235943D02*
X-223860Y-236110D01*
G01X-221985Y-235277D02*
X-222860Y-235943D01*
G01X-221235Y-234277D02*
X-221985Y-235277D01*
G01X-220735Y-233110D02*
X-221235Y-234277D01*
G01X-220485Y-231777D02*
X-220735Y-233110D01*
G01X-220485Y-230443D02*
Y-231777D01*
G01X-220735Y-229110D02*
X-220485Y-230443D01*
G01X-221235Y-227943D02*
X-220735Y-229110D01*
G01X-221985Y-226943D02*
X-221235Y-227943D01*
G01X-226485D02*
X-225735Y-226943D01*
G01X-226985Y-229110D02*
X-226485Y-227943D01*
G01X-227235Y-230443D02*
X-226985Y-229110D01*
G01X-227235Y-231777D02*
Y-230443D01*
G01X-226985Y-233110D02*
X-227235Y-231777D01*
G01X-226485Y-234277D02*
X-226985Y-233110D01*
G01X-225735Y-235277D02*
X-226485Y-234277D01*
G01X-224860Y-235943D02*
X-225735Y-235277D01*
G01X-223860Y-236110D02*
X-224860Y-235943D01*
G01X-215135Y-216076D02*
X-214010Y-216576D01*
G01X-216135Y-215243D02*
X-215135Y-216076D01*
G01X-226010Y-216576D02*
Y-206576D01*
G01X-221010Y-216576D02*
X-226010D01*
G01X-222860Y-226277D02*
X-221985Y-226943D01*
G01X-223860Y-226110D02*
X-222860Y-226277D01*
G01X-224860D02*
X-223860Y-226110D01*
G01X-225735Y-226943D02*
X-224860Y-226277D01*
G01X-223310Y-187376D02*
X-220185Y-197376D01*
G01X-226435D02*
X-223310Y-187376D01*
G01X-226010Y-206576D02*
X-221010D01*
G01X-215385Y-207909D02*
X-214760Y-207076D01*
G01X-215635Y-209076D02*
X-215385Y-207909D01*
G01X-215260Y-210243D02*
X-215635Y-209076D01*
G01X-214385Y-210909D02*
X-215260Y-210243D01*
G01X-223010Y-211409D02*
X-226010D01*
G01X-216185Y-187376D02*
X-210435D01*
G01X-221310Y-193876D02*
X-225310D01*
G01X-230685Y-190710D02*
X-230560Y-192376D01*
G01D02*
X-230685Y-194043D01*
G01X-203710Y-254509D02*
X-200460Y-246176D01*
G01X-206960D02*
X-203710Y-254509D01*
G01X-200460Y-246176D02*
Y-256176D01*
G01X-206960D02*
Y-246176D01*
G01X-203235Y-231277D02*
X-201360Y-236110D01*
G01X-203235Y-231277D02*
X-206360D01*
G01X-202360Y-230777D02*
X-203235Y-231277D01*
G01X-201610Y-229943D02*
X-202360Y-230777D01*
G01X-201360Y-228610D02*
X-201610Y-229943D01*
G01Y-227277D02*
X-201360Y-228610D01*
G01X-202235Y-226610D02*
X-201610Y-227277D01*
G01X-206360Y-236110D02*
Y-226110D01*
G01X-213860D02*
X-210735Y-236110D01*
G01X-205010Y-216576D02*
X-202010D01*
G01X-203510Y-206576D02*
Y-216576D01*
G01X-211760Y-211909D02*
X-212885Y-211243D01*
G01X-211135Y-212910D02*
X-211760Y-211909D01*
G01X-210885Y-214076D02*
X-211135Y-212910D01*
G01X-211260Y-215243D02*
X-210885Y-214076D01*
G01X-212010Y-216076D02*
X-211260Y-215243D01*
G01X-213010Y-216576D02*
X-212010Y-216076D01*
G01X-214010Y-216576D02*
X-213010D01*
G01X-203235Y-226110D02*
X-202235Y-226610D01*
G01X-206360Y-226110D02*
X-203235D01*
G01X-205810Y-197376D02*
Y-187376D01*
G01X-200810Y-197376D02*
X-205810D01*
G01X-213310Y-187376D02*
Y-197376D01*
G01X-205010Y-206576D02*
X-202010D01*
G01X-213010D02*
X-212135Y-206909D01*
G01X-213885Y-206576D02*
X-213010D01*
G01X-212135Y-206909D02*
X-211385Y-207743D01*
G01X-212885Y-211243D02*
X-214385Y-210909D01*
G01X-214760Y-207076D02*
X-213885Y-206576D01*
G01X-205810Y-187376D02*
X-200810D01*
G01X-202810Y-192209D02*
X-205810D01*
G01X-186210Y-256176D02*
X-181210D01*
G01X-186210Y-246176D02*
Y-256176D01*
G01X-194110Y-236110D02*
X-196610D01*
G01X-193110Y-235610D02*
X-194110Y-236110D01*
G01X-192360Y-234944D02*
X-193110Y-235610D01*
G01X-191735Y-233943D02*
X-192360Y-234944D01*
G01X-191235Y-232777D02*
X-191735Y-233943D01*
G01X-191110Y-231110D02*
X-191235Y-232777D01*
G01Y-229444D02*
X-191110Y-231110D01*
G01X-191735Y-228277D02*
X-191235Y-229444D01*
G01X-192360Y-227277D02*
X-191735Y-228277D01*
G01X-193110Y-226610D02*
X-192360Y-227277D01*
G01X-196610Y-236110D02*
Y-226110D01*
G01X-186385Y-216576D02*
Y-206576D01*
G01X-196760Y-212076D02*
Y-210909D01*
G01X-196510Y-213409D02*
X-196760Y-212076D01*
G01X-196010Y-214576D02*
X-196510Y-213409D01*
G01X-195260Y-215576D02*
X-196010Y-214576D01*
G01X-194385Y-216243D02*
X-195260Y-215576D01*
G01X-193135Y-216576D02*
X-194385Y-216243D01*
G01X-191885D02*
X-193135Y-216576D01*
G01X-191010Y-215576D02*
X-191885Y-216243D01*
G01X-190260Y-214576D02*
X-191010Y-215576D01*
G01X-190260Y-211576D02*
Y-214576D01*
G01X-192760Y-211576D02*
X-190260D01*
G01X-194110Y-226110D02*
X-193110Y-226610D01*
G01X-196610Y-226110D02*
X-194110D01*
G01X-182474Y-189379D02*
X-183274Y-189645D01*
X-183873Y-190312D01*
X-184274Y-191112D01*
X-184573Y-192179D01*
X-184673Y-193379D01*
X-184573Y-194579D01*
X-184274Y-195645D01*
X-183873Y-196446D01*
X-183274Y-197112D01*
X-182474Y-197379D01*
X-181674Y-197112D01*
X-181073Y-196446D01*
X-180673Y-195645D01*
X-180373Y-194579D01*
X-180273Y-193379D01*
X-180373Y-192179D01*
X-180673Y-191112D01*
X-181073Y-190312D01*
X-181674Y-189645D01*
X-182474Y-189379D01*
G01X-173273Y-197379D02*
Y-189379D01*
X-176973Y-195112D01*
X-171973D01*
G01X-168473Y-195779D02*
X-167973Y-196579D01*
X-167374Y-197112D01*
X-166673Y-197379D01*
X-165873Y-197112D01*
X-165273Y-196579D01*
X-164673Y-195779D01*
X-164473Y-194712D01*
Y-189379D01*
G01X-160673D02*
Y-195112D01*
X-160274Y-196312D01*
X-159474Y-197112D01*
X-158474Y-197379D01*
X-157473Y-197112D01*
X-156673Y-196312D01*
X-156273Y-195112D01*
Y-189379D01*
G01X-152473D02*
Y-197379D01*
X-148473D01*
G01X-142474D02*
Y-193779D01*
X-144473Y-189379D01*
G01X-140473D02*
X-142474Y-193779D01*
G01X-136374Y-190712D02*
X-135773Y-189912D01*
X-135073Y-189512D01*
X-134273Y-189379D01*
X-133273Y-189645D01*
X-132573Y-190312D01*
X-132373Y-191112D01*
X-132473Y-191912D01*
X-132874Y-192579D01*
X-134873Y-193912D01*
X-135773Y-194845D01*
X-136374Y-196179D01*
X-136573Y-197379D01*
X-132373D01*
G01X-126474Y-189379D02*
X-127274Y-189645D01*
X-127873Y-190312D01*
X-128274Y-191112D01*
X-128573Y-192179D01*
X-128673Y-193379D01*
X-128573Y-194579D01*
X-128274Y-195645D01*
X-127873Y-196446D01*
X-127274Y-197112D01*
X-126474Y-197379D01*
X-125674Y-197112D01*
X-125073Y-196446D01*
X-124673Y-195645D01*
X-124373Y-194579D01*
X-124273Y-193379D01*
X-124373Y-192179D01*
X-124673Y-191112D01*
X-125073Y-190312D01*
X-125674Y-189645D01*
X-126474Y-189379D01*
G01X-193060Y-197543D02*
X-193310Y-197709D01*
G01X-193060Y-197209D02*
Y-197543D01*
G01X-193310Y-197043D02*
X-193060Y-197209D01*
G01X-193560D02*
X-193310Y-197043D01*
G01X-193560Y-197543D02*
Y-197209D01*
G01X-193310Y-197709D02*
X-193560Y-197543D01*
G01X-192635Y-206576D02*
X-191635Y-206909D01*
G01X-193510Y-206576D02*
X-192635D01*
G01X-194510Y-207076D02*
X-193510Y-206576D01*
G01X-186385D02*
X-180635Y-216576D01*
G01X-191635Y-206909D02*
X-190885Y-207576D01*
G01X-195260Y-207743D02*
X-194510Y-207076D01*
G01X-196010Y-208743D02*
X-195260Y-207743D01*
G01X-196510Y-209910D02*
X-196010Y-208743D01*
G01X-196760Y-210909D02*
X-196510Y-209910D01*
G01X-193060Y-193043D02*
X-193310Y-193210D01*
G01X-193060Y-192709D02*
Y-193043D01*
G01X-193310Y-192543D02*
X-193060Y-192709D01*
G01X-193560D02*
X-193310Y-192543D01*
G01X-193560Y-193043D02*
Y-192709D01*
G01X-193310Y-193210D02*
X-193560Y-193043D01*
G01X-171710Y-252676D02*
X-175710D01*
G01X-173710Y-246176D02*
X-170585Y-256176D01*
G01X-176835D02*
X-173710Y-246176D01*
G01X-170985Y-236110D02*
Y-226110D01*
G01X-176735D02*
X-170985Y-236110D01*
G01X-176735D02*
Y-226110D01*
G01X-176010Y-216576D02*
Y-206576D01*
G01X-171010Y-216576D02*
X-176010D01*
G01X-180635D02*
Y-206576D01*
G01X-176010D02*
X-171010D01*
G01X-173010Y-211409D02*
X-176010D01*
G01X-153210Y-251009D02*
X-156210D01*
G01Y-246176D02*
X-151210D01*
G01X-161210D02*
X-163710Y-251676D01*
G01D02*
X-166210Y-246176D01*
G01X-156210Y-256176D02*
Y-246176D01*
G01X-151210Y-256176D02*
X-156210D01*
G01X-163710D02*
Y-251676D01*
G01X-153860Y-234443D02*
X-150610Y-226110D01*
G01X-157110D02*
X-153860Y-234443D01*
G01X-157110Y-236110D02*
Y-226110D01*
G01X-161860Y-232610D02*
X-165860D01*
G01X-163860Y-226110D02*
X-160735Y-236110D01*
G01X-166985D02*
X-163860Y-226110D01*
G01X-162760Y-216076D02*
X-163760Y-216576D01*
G01X-162010Y-215410D02*
X-162760Y-216076D01*
G01X-161385Y-214409D02*
X-162010Y-215410D01*
G01X-160885Y-213243D02*
X-161385Y-214409D01*
G01X-160760Y-211576D02*
X-160885Y-213243D01*
G01Y-209910D02*
X-160760Y-211576D01*
G01X-163760Y-216576D02*
X-166260D01*
G01D02*
Y-206576D01*
G01X-163760D02*
X-162760Y-207076D01*
G01X-161385Y-208743D02*
X-160885Y-209910D01*
G01X-162010Y-207743D02*
X-161385Y-208743D01*
G01X-162760Y-207076D02*
X-162010Y-207743D01*
G01X-166260Y-206576D02*
X-163760D01*
G01X-143085Y-251343D02*
X-146210D01*
G01X-142210Y-250843D02*
X-143085Y-251343D01*
G01X-141460Y-250009D02*
X-142210Y-250843D01*
G01X-141210Y-248676D02*
X-141460Y-250009D01*
G01Y-247343D02*
X-141210Y-248676D01*
G01X-142085Y-246676D02*
X-141460Y-247343D01*
G01X-143085Y-246176D02*
X-142085Y-246676D01*
G01X-146210Y-246176D02*
X-143085D01*
G01Y-251343D02*
X-141210Y-256176D01*
G01X-146210D02*
Y-246176D01*
G01X-143360Y-230943D02*
X-146360D01*
G01Y-236110D02*
Y-226110D01*
G01X-141360Y-236110D02*
X-146360D01*
G01X-150610Y-226110D02*
Y-236110D01*
G01X-141510Y-213076D02*
X-145510D01*
G01X-143510Y-206576D02*
X-140385Y-216576D01*
G01X-146635D02*
X-143510Y-206576D01*
G01X-146360Y-226110D02*
X-141360D01*
G01X-133460Y-251843D02*
X-133710Y-252010D01*
G01X-133460Y-251509D02*
Y-251843D01*
G01X-133710Y-251343D02*
X-133460Y-251509D01*
G01X-133960D02*
X-133710Y-251343D01*
G01X-133960Y-251843D02*
Y-251509D01*
G01X-133710Y-252010D02*
X-133960Y-251843D01*
G01X-133460Y-256343D02*
X-133710Y-256509D01*
G01X-133460Y-256009D02*
Y-256343D01*
G01X-133710Y-255843D02*
X-133460Y-256009D01*
G01X-133960D02*
X-133710Y-255843D01*
G01X-133960Y-256343D02*
Y-256009D01*
G01X-133710Y-256509D02*
X-133960Y-256343D01*
G01X-133610Y-231777D02*
X-133860Y-231944D01*
G01X-133610Y-231443D02*
Y-231777D01*
G01X-133860Y-231277D02*
X-133610Y-231443D01*
G01Y-236277D02*
X-133860Y-236443D01*
G01X-133610Y-235943D02*
Y-236277D01*
G01X-133860Y-235777D02*
X-133610Y-235943D01*
G01X-134110Y-231443D02*
X-133860Y-231277D01*
G01X-134110Y-231777D02*
Y-231443D01*
G01X-133860Y-231944D02*
X-134110Y-231777D01*
G01Y-235943D02*
X-133860Y-235777D01*
G01X-134110Y-236277D02*
Y-235943D01*
G01X-133860Y-236443D02*
X-134110Y-236277D01*
G01X-123260Y-212243D02*
X-123510Y-212410D01*
G01X-123260Y-211909D02*
Y-212243D01*
G01X-123510Y-211743D02*
X-123260Y-211909D01*
G01X-123760D02*
X-123510Y-211743D01*
G01X-123760Y-212243D02*
Y-211909D01*
G01X-123510Y-212410D02*
X-123760Y-212243D01*
G01X-123260Y-216743D02*
X-123510Y-216909D01*
G01X-123260Y-216409D02*
Y-216743D01*
G01X-123510Y-216243D02*
X-123260Y-216409D01*
G01X-123760D02*
X-123510Y-216243D01*
G01X-123760Y-216743D02*
Y-216409D01*
G01X-123510Y-216909D02*
X-123760Y-216743D01*
G01X-133510Y-206576D02*
Y-216576D01*
G01X-136385Y-206576D02*
X-130635D01*
G01X-89860Y-182497D02*
Y-260656D01*
G01X-55083Y-226200D02*
Y-236200D01*
G01X-56833Y-229534D02*
X-53333D01*
G01X-45083Y-236200D02*
X-45833Y-236033D01*
X-46583Y-235367D01*
X-47083Y-234200D01*
X-47333Y-232867D01*
X-47083Y-231533D01*
X-46583Y-230367D01*
X-45833Y-229700D01*
X-45083Y-229534D01*
X-44333Y-229700D01*
X-43583Y-230367D01*
X-43083Y-231533D01*
X-42958Y-232867D01*
X-43083Y-234200D01*
X-43583Y-235367D01*
X-44333Y-236033D01*
X-45083Y-236200D01*
G01X-38208Y-229534D02*
X-36708Y-236200D01*
X-35083Y-229534D01*
X-33458Y-236200D01*
X-31958Y-229534D01*
G01X-26958Y-231700D02*
X-22958D01*
X-23333Y-230533D01*
X-23958Y-229867D01*
X-24833Y-229534D01*
X-25708Y-229700D01*
X-26458Y-230200D01*
X-26958Y-231367D01*
X-27208Y-232367D01*
Y-233367D01*
X-26958Y-234367D01*
X-26333Y-235367D01*
X-25583Y-236033D01*
X-24708Y-236200D01*
X-23833Y-235867D01*
X-22958Y-234867D01*
G01X-16833Y-236200D02*
Y-229534D01*
G01Y-230867D02*
X-16208Y-230200D01*
X-15583Y-229700D01*
X-14708Y-229534D01*
X-14083Y-229700D01*
X-13333Y-230200D01*
G01X-7958Y-236200D02*
Y-226200D01*
X-2208Y-236200D01*
Y-226200D01*
G01X4917Y-236200D02*
X4167Y-236033D01*
X3417Y-235367D01*
X2917Y-234200D01*
X2667Y-232867D01*
X2917Y-231533D01*
X3417Y-230367D01*
X4167Y-229700D01*
X4917Y-229534D01*
X5667Y-229700D01*
X6417Y-230367D01*
X6917Y-231533D01*
X7042Y-232867D01*
X6917Y-234200D01*
X6417Y-235367D01*
X5667Y-236033D01*
X4917Y-236200D01*
G01X17167Y-226200D02*
Y-236200D01*
G01Y-234700D02*
X16667Y-235534D01*
X15917Y-236033D01*
X15042Y-236200D01*
X14042Y-235867D01*
X13292Y-235034D01*
X12792Y-234034D01*
X12667Y-232867D01*
X12792Y-231700D01*
X13292Y-230700D01*
X14042Y-229867D01*
X15042Y-229534D01*
X15917Y-229700D01*
X16542Y-230033D01*
X17167Y-230700D01*
G01X23042Y-231700D02*
X27042D01*
X26667Y-230533D01*
X26042Y-229867D01*
X25167Y-229534D01*
X24292Y-229700D01*
X23542Y-230200D01*
X23042Y-231367D01*
X22792Y-232367D01*
Y-233367D01*
X23042Y-234367D01*
X23667Y-235367D01*
X24417Y-236033D01*
X25292Y-236200D01*
X26167Y-235867D01*
X27042Y-234867D01*
G01X33292Y-232867D02*
X36542D01*
G01X43042Y-231700D02*
X47042D01*
X46667Y-230533D01*
X46042Y-229867D01*
X45167Y-229534D01*
X44292Y-229700D01*
X43542Y-230200D01*
X43042Y-231367D01*
X42792Y-232367D01*
Y-233367D01*
X43042Y-234367D01*
X43667Y-235367D01*
X44417Y-236033D01*
X45292Y-236200D01*
X46167Y-235867D01*
X47042Y-234867D01*
G01X52042Y-236200D02*
Y-226200D01*
X57792Y-236200D01*
Y-226200D01*
G01X65917Y-230867D02*
X66417Y-230367D01*
X66792Y-229534D01*
X67042Y-228366D01*
X66792Y-227367D01*
X66292Y-226700D01*
X65417Y-226200D01*
X62042D01*
Y-236200D01*
X66167D01*
X67042Y-235534D01*
X67542Y-234533D01*
X67792Y-233367D01*
X67542Y-232200D01*
X66792Y-231200D01*
X65917Y-230867D01*
X62042D01*
G01X73292Y-232867D02*
X76542D01*
G01X82667Y-229534D02*
X84917Y-236200D01*
X87167Y-229534D01*
G01X94917Y-236200D02*
Y-226200D01*
X93417Y-228200D01*
G01Y-236200D02*
X96417D01*
G01X104917Y-236533D02*
X104667Y-236367D01*
Y-236033D01*
X104917Y-235867D01*
X105167Y-236033D01*
Y-236367D01*
X104917Y-236533D01*
G01X114917Y-226200D02*
X113917Y-226533D01*
X113167Y-227367D01*
X112667Y-228366D01*
X112292Y-229700D01*
X112167Y-231200D01*
X112292Y-232700D01*
X112667Y-234034D01*
X113167Y-235034D01*
X113917Y-235867D01*
X114917Y-236200D01*
X115917Y-235867D01*
X116667Y-235034D01*
X117167Y-234034D01*
X117542Y-232700D01*
X117667Y-231200D01*
X117542Y-229700D01*
X117167Y-228366D01*
X116667Y-227367D01*
X115917Y-226533D01*
X114917Y-226200D01*
G01X123292Y-232867D02*
X126542D01*
G01X132417Y-236200D02*
Y-226200D01*
X135542D01*
X136542Y-226700D01*
X137167Y-227367D01*
X137417Y-228700D01*
X137167Y-230033D01*
X136417Y-230867D01*
X135542Y-231367D01*
X132417D01*
G01X135542D02*
X137417Y-236200D01*
G01X143042Y-231700D02*
X147042D01*
X146667Y-230533D01*
X146042Y-229867D01*
X145167Y-229534D01*
X144292Y-229700D01*
X143542Y-230200D01*
X143042Y-231367D01*
X142792Y-232367D01*
Y-233367D01*
X143042Y-234367D01*
X143667Y-235367D01*
X144417Y-236033D01*
X145292Y-236200D01*
X146167Y-235867D01*
X147042Y-234867D01*
G01X152667Y-229534D02*
X154917Y-236200D01*
X157167Y-229534D01*
G01X165917Y-230867D02*
X166417Y-230367D01*
X166792Y-229534D01*
X167042Y-228366D01*
X166792Y-227367D01*
X166292Y-226700D01*
X165417Y-226200D01*
X162042D01*
Y-236200D01*
X166167D01*
X167042Y-235534D01*
X167542Y-234533D01*
X167792Y-233367D01*
X167542Y-232200D01*
X166792Y-231200D01*
X165917Y-230867D01*
X162042D01*
G01X-20370Y-256475D02*
Y-246475D01*
X-17370D01*
X-16370Y-246975D01*
X-15620Y-248141D01*
X-15370Y-249475D01*
X-15620Y-250808D01*
X-16245Y-251808D01*
X-17370Y-252308D01*
X-20370D01*
G01X-10995Y-256475D02*
X-7870Y-246475D01*
X-4745Y-256475D01*
G01X-5870Y-252975D02*
X-9870D01*
G01X-495Y-255142D02*
X505Y-255975D01*
X1630Y-256475D01*
X2630D01*
X3630Y-255975D01*
X4380Y-255142D01*
X4755Y-253975D01*
X4505Y-252808D01*
X3880Y-251808D01*
X2755Y-251141D01*
X1255Y-250808D01*
X380Y-250142D01*
X5Y-248975D01*
X255Y-247808D01*
X880Y-246975D01*
X1755Y-246475D01*
X2630D01*
X3505Y-246808D01*
X4255Y-247641D01*
G01X12130Y-246475D02*
Y-256475D01*
G01X9255Y-246475D02*
X15005D01*
G01X24630Y-256475D02*
X19630D01*
Y-246475D01*
X24630D01*
G01X22630Y-251308D02*
X19630D01*
G01X28880Y-256475D02*
Y-246475D01*
X32130Y-254808D01*
X35380Y-246475D01*
Y-256475D01*
G01X39005D02*
X42130Y-246475D01*
X45255Y-256475D01*
G01X44130Y-252975D02*
X40130D01*
G01X49505Y-255142D02*
X50505Y-255975D01*
X51630Y-256475D01*
X52630D01*
X53630Y-255975D01*
X54380Y-255142D01*
X54755Y-253975D01*
X54505Y-252808D01*
X53880Y-251808D01*
X52755Y-251141D01*
X51255Y-250808D01*
X50380Y-250142D01*
X50005Y-248975D01*
X50255Y-247808D01*
X50880Y-246975D01*
X51755Y-246475D01*
X52630D01*
X53505Y-246808D01*
X54255Y-247641D01*
G01X59380Y-256475D02*
Y-246475D01*
G01X64130D02*
X59380Y-252642D01*
G01X64880Y-256475D02*
X61505Y-249808D01*
G01X68380Y-259808D02*
X75880D01*
G01X83130Y-251141D02*
X83630Y-250642D01*
X84005Y-249808D01*
X84255Y-248641D01*
X84005Y-247641D01*
X83505Y-246975D01*
X82630Y-246475D01*
X79255D01*
Y-256475D01*
X83380D01*
X84255Y-255808D01*
X84755Y-254808D01*
X85005Y-253642D01*
X84755Y-252475D01*
X84005Y-251475D01*
X83130Y-251141D01*
X79255D01*
G01X92130Y-256475D02*
X91130Y-256308D01*
X90255Y-255642D01*
X89505Y-254642D01*
X89005Y-253475D01*
X88755Y-252142D01*
Y-250808D01*
X89005Y-249475D01*
X89505Y-248308D01*
X90255Y-247308D01*
X91130Y-246641D01*
X92130Y-246475D01*
X93130Y-246641D01*
X94005Y-247308D01*
X94755Y-248308D01*
X95255Y-249475D01*
X95505Y-250808D01*
Y-252142D01*
X95255Y-253475D01*
X94755Y-254642D01*
X94005Y-255642D01*
X93130Y-256308D01*
X92130Y-256475D01*
G01X102130Y-246475D02*
Y-256475D01*
G01X99255Y-246475D02*
X105005D01*
G01X112130D02*
Y-256475D01*
G01X109255Y-246475D02*
X115005D01*
G01X122130Y-256475D02*
X121130Y-256308D01*
X120255Y-255642D01*
X119505Y-254642D01*
X119005Y-253475D01*
X118755Y-252142D01*
Y-250808D01*
X119005Y-249475D01*
X119505Y-248308D01*
X120255Y-247308D01*
X121130Y-246641D01*
X122130Y-246475D01*
X123130Y-246641D01*
X124005Y-247308D01*
X124755Y-248308D01*
X125255Y-249475D01*
X125505Y-250808D01*
Y-252142D01*
X125255Y-253475D01*
X124755Y-254642D01*
X124005Y-255642D01*
X123130Y-256308D01*
X122130Y-256475D01*
G01X128880D02*
Y-246475D01*
X132130Y-254808D01*
X135380Y-246475D01*
Y-256475D01*
G01X-11585Y-196710D02*
X-8460Y-186710D01*
G01X-20960Y-196710D02*
Y-186710D01*
G01X-15960Y-189710D02*
X-16210Y-191043D01*
G01Y-188377D02*
X-15960Y-189710D01*
G01X-16960Y-187210D02*
X-16210Y-188377D01*
G01X-17960Y-186710D02*
X-16960Y-187210D01*
G01X-20960Y-186710D02*
X-17960D01*
G01Y-192544D02*
X-20960D01*
G01X-16835Y-192043D02*
X-17960Y-192544D01*
G01X-16210Y-191043D02*
X-16835Y-192043D01*
G01X2165Y-191877D02*
X4040Y-196710D01*
G01X-960D02*
Y-186710D01*
G01X-8460D02*
X-5335Y-196710D01*
G01X3790Y-190543D02*
X3040Y-191377D01*
G01X4040Y-189210D02*
X3790Y-190543D01*
G01Y-187877D02*
X4040Y-189210D01*
G01X3165Y-187210D02*
X3790Y-187877D01*
G01X2165Y-186710D02*
X3165Y-187210D01*
G01X-960Y-186710D02*
X2165D01*
G01Y-191877D02*
X-960D01*
G01X3040Y-191377D02*
X2165Y-191877D01*
G01X-6460Y-193210D02*
X-10460D01*
G01X11540Y-186710D02*
Y-196710D01*
G01X8665Y-186710D02*
X14415D01*
G01X36790Y-212609D02*
X33790D01*
G01Y-217776D02*
Y-207776D01*
G01X38790Y-217776D02*
X33790D01*
G01X28540Y-211609D02*
X27790Y-212443D01*
G01X28790Y-210276D02*
X28540Y-211609D01*
G01X26915Y-212943D02*
X28790Y-217776D01*
G01X26915Y-212943D02*
X23790D01*
G01X27790Y-212443D02*
X26915Y-212943D01*
G01X23790Y-217776D02*
Y-207776D01*
G01X34415Y-196710D02*
Y-186710D01*
G01X28665D02*
X34415Y-196710D01*
G01X28665D02*
Y-186710D01*
G01X33790Y-207776D02*
X38790D01*
G01X28540Y-208943D02*
X28790Y-210276D01*
G01X27915Y-208276D02*
X28540Y-208943D01*
G01X26915Y-207776D02*
X27915Y-208276D01*
G01X23790Y-207776D02*
X26915D01*
G01X43790Y-217776D02*
X48790D01*
G01X43790Y-207776D02*
Y-217776D01*
G01X48290Y-196710D02*
Y-186710D01*
G01X42790Y-196377D02*
X43790Y-195377D01*
G01X41540Y-196710D02*
X42790Y-196377D01*
G01X40290D02*
X41540Y-196710D01*
G01X39290Y-195377D02*
X40290Y-196377D01*
G01X51540Y-195043D02*
X54790Y-186710D01*
G01X48290D02*
X51540Y-195043D01*
G01X44290Y-193877D02*
Y-186710D01*
G01X43790Y-195377D02*
X44290Y-193877D01*
G01X38790D02*
X39290Y-195377D01*
G01X38790Y-186710D02*
Y-193877D01*
G01X58790Y-207776D02*
X56290Y-213276D01*
G01D02*
X53790Y-207776D01*
G01X56290Y-217776D02*
Y-213276D01*
G01X63665Y-196043D02*
X64165Y-195043D01*
G01X62790Y-196710D02*
X63665Y-196043D01*
G01X58665Y-196710D02*
X62790D01*
G01X58665Y-186710D02*
Y-196710D01*
G01X54790Y-186710D02*
Y-196710D01*
G01X62915Y-187210D02*
X62040Y-186710D01*
G01X63415Y-187877D02*
X62915Y-187210D01*
G01X63665Y-188877D02*
X63415Y-187877D01*
G01Y-190044D02*
X63665Y-188877D01*
G01X63040Y-190877D02*
X63415Y-190044D01*
G01X62540Y-191377D02*
X63040Y-190877D01*
G01X63415Y-191710D02*
X62540Y-191377D01*
G01X64165Y-192710D02*
X63415Y-191710D01*
G01X64415Y-193877D02*
X64165Y-192710D01*
G01Y-195043D02*
X64415Y-193877D01*
G01X62540Y-191377D02*
X58665D01*
G01X62040Y-186710D02*
X58665D01*
G01X76915Y-212443D02*
X75415Y-212109D01*
G01X78040Y-213109D02*
X76915Y-212443D01*
G01X78665Y-214110D02*
X78040Y-213109D01*
G01X78915Y-215276D02*
X78665Y-214110D01*
G01X78540Y-216443D02*
X78915Y-215276D01*
G01X77790Y-217276D02*
X78540Y-216443D01*
G01X76790Y-217776D02*
X77790Y-217276D01*
G01X75790Y-217776D02*
X76790D01*
G01X75415Y-212109D02*
X74540Y-211443D01*
G01X74665Y-217276D02*
X75790Y-217776D01*
G01X73665Y-216443D02*
X74665Y-217276D01*
G01X79040Y-196710D02*
Y-186710D01*
G01X77665Y-208109D02*
X78415Y-208943D01*
G01X76790Y-207776D02*
X77665Y-208109D01*
G01X75915Y-207776D02*
X76790D01*
G01X69040Y-196710D02*
Y-186710D01*
G01X74040Y-196710D02*
X69040D01*
G01X75040Y-208276D02*
X75915Y-207776D01*
G01X74415Y-209109D02*
X75040Y-208276D01*
G01X74165Y-210276D02*
X74415Y-209109D01*
G01X74540Y-211443D02*
X74165Y-210276D01*
G01X82165Y-186710D02*
X83165Y-187210D01*
G01X79040Y-186710D02*
X82165D01*
G01Y-191877D02*
X84040Y-196710D01*
G01X82165Y-191877D02*
X79040D01*
G01X83040Y-191377D02*
X82165Y-191877D01*
G01X69040Y-186710D02*
X74040D01*
G01X72040Y-191543D02*
X69040D01*
G01X95415Y-212109D02*
X94540Y-211443D01*
G01X96915Y-212443D02*
X95415Y-212109D01*
G01X98040Y-213109D02*
X96915Y-212443D01*
G01X98665Y-214110D02*
X98040Y-213109D01*
G01X98540Y-216443D02*
X98915Y-215276D01*
G01X97790Y-217276D02*
X98540Y-216443D01*
G01X96790Y-217776D02*
X97790Y-217276D01*
G01X95790Y-217776D02*
X96790D01*
G01X94665Y-217276D02*
X95790Y-217776D01*
G01X93665Y-216443D02*
X94665Y-217276D01*
G01X88790Y-207776D02*
X86290Y-213276D01*
G01D02*
X83790Y-207776D01*
G01X86290Y-217776D02*
Y-213276D01*
G01X91790Y-196877D02*
X91540Y-197043D01*
G01X91790Y-196543D02*
Y-196877D01*
G01X91540Y-196377D02*
X91790Y-196543D01*
G01X97665Y-208109D02*
X98415Y-208943D01*
G01X96790Y-207776D02*
X97665Y-208109D01*
G01X95915Y-207776D02*
X96790D01*
G01X95040Y-208276D02*
X95915Y-207776D01*
G01X94415Y-209109D02*
X95040Y-208276D01*
G01X94165Y-210276D02*
X94415Y-209109D01*
G01X94540Y-211443D02*
X94165Y-210276D01*
G01X91290Y-196543D02*
X91540Y-196377D01*
G01X91290Y-196877D02*
Y-196543D01*
G01X91540Y-197043D02*
X91290Y-196877D01*
G01X91790Y-192377D02*
X91540Y-192544D01*
G01X91790Y-192043D02*
Y-192377D01*
G01X91540Y-191877D02*
X91790Y-192043D01*
G01X83790Y-190543D02*
X83040Y-191377D01*
G01X84040Y-189210D02*
X83790Y-190543D01*
G01Y-187877D02*
X84040Y-189210D01*
G01X83165Y-187210D02*
X83790Y-187877D01*
G01X91290Y-192043D02*
X91540Y-191877D01*
G01X91290Y-192377D02*
Y-192043D01*
G01X91540Y-192544D02*
X91290Y-192377D01*
G01X98915Y-215276D02*
X98665Y-214110D01*
G01X113415Y-190044D02*
X109665Y-196710D01*
G01Y-190044D02*
X113415Y-196710D01*
G01X103415Y-190044D02*
X99665Y-196710D01*
G01Y-190044D02*
X103415Y-196710D01*
G01X133415Y-190044D02*
X129665Y-196710D01*
G01X123415Y-190044D02*
X119665Y-196710D01*
G01Y-190044D02*
X123415Y-196710D01*
G01X129665Y-190044D02*
X133415Y-196710D01*
G01X139665Y-190044D02*
X143415Y-196710D01*
G01Y-190044D02*
X139665Y-196710D01*
G01X390904Y-308120D02*
X901140D01*
G01X390904Y-142766D02*
Y-308120D01*
G01X391922Y-252002D02*
X589855D01*
G01X391922Y-142946D02*
Y-252002D01*
G01X390904Y-253002D02*
X901140D01*
G01X391922Y-236253D02*
X589855D01*
G01X391922Y-217356D02*
X589855D01*
G01X391922Y-198458D02*
X589855D01*
G01X391922Y-179561D02*
X589855D01*
G01X391922Y-160663D02*
X589855D01*
G01X391922Y-142946D02*
X589855D01*
G01X390904Y-142766D02*
X901140D01*
G01X415347Y-142946D02*
Y-252002D01*
G01X515347Y-142946D02*
Y-252002D01*
G01X554717Y-142946D02*
Y-252002D01*
G01X589855Y-142946D02*
Y-252002D01*
G01X590904Y-142766D02*
Y-253002D01*
G01Y-170325D02*
X901140D01*
G01X690904Y-142766D02*
Y-308120D01*
G01Y-280561D02*
X901140D01*
G01X690904Y-225443D02*
X901140D01*
G01X790904Y-253002D02*
Y-308120D01*
G01Y-142766D02*
Y-170325D01*
G01X869644Y-280561D02*
Y-308120D01*
G01X901140Y-142766D02*
Y-308120D01*
G01X921197Y-328144D02*
Y841147D01*
G54D10*
X-198379Y427606D03*
X-184994D03*
X-176338Y524700D03*
X-162952D03*
G54D11*
X-187815Y36000D03*
X-184075D03*
X-190534Y46440D03*
Y42700D03*
X-179263Y-9405D03*
Y-13145D03*
X-179266Y-21054D03*
Y-17314D03*
X-170096Y314871D03*
Y311131D03*
X-176154Y311079D03*
Y314819D03*
X-180636Y319704D03*
X-175834Y320960D03*
X-180636Y323444D03*
X-168204Y324700D03*
X-175834D03*
X-170761Y457552D03*
Y453812D03*
X-176999Y456358D03*
Y460098D03*
X-162072Y-9647D03*
X-158332D03*
X-158691Y-2323D03*
Y1417D03*
X-154064Y304500D03*
X-157804D03*
X-151780Y308828D03*
Y312568D03*
X-158315Y317982D03*
X-154575D03*
X-152034Y322330D03*
X-162704Y310900D03*
X-158964D03*
X-156364Y326070D03*
X-160104D03*
X-152034D03*
X-164464Y324700D03*
X-151872Y495804D03*
X-157545Y567170D03*
Y563430D03*
X-146904Y312000D03*
X-143164D03*
X-145840Y433532D03*
X-149580D03*
X-148132Y495804D03*
X-150847Y554614D03*
Y550874D03*
X-139345Y589530D03*
Y593270D03*
X-133945Y589630D03*
Y593370D03*
X-82734Y538130D03*
Y541870D03*
X12985Y307854D03*
X9245D03*
X37041Y364678D03*
X45135Y360049D03*
X41394D03*
X40781Y364678D03*
X68208Y109368D03*
Y113768D03*
X71948Y109368D03*
Y113768D03*
X81997Y256649D03*
X81403Y270430D03*
Y266690D03*
X76422Y266670D03*
Y262930D03*
X81961Y261141D03*
X68834Y369772D03*
X72574D03*
X76314D03*
X72574D03*
X98368Y37212D03*
Y42212D03*
X93228Y210171D03*
X96968D03*
Y214912D03*
X93228D03*
Y219512D03*
X96968D03*
X93228Y224512D03*
X96968D03*
X97078Y233038D03*
Y229298D03*
X93578D03*
Y233038D03*
X85738Y256649D03*
X94777Y260052D03*
X91036D03*
X85966Y272530D03*
X94466Y265630D03*
Y269370D03*
X85702Y261141D03*
X85966Y276270D03*
X99796Y298700D03*
X87308Y362409D03*
Y358669D03*
Y354929D03*
Y358669D03*
X92626Y382416D03*
X88886D03*
X102108Y37212D03*
Y42212D03*
X102296Y196200D03*
X106036D03*
X101578Y233038D03*
Y229298D03*
X105078D03*
Y233038D03*
X111666Y229330D03*
Y233070D03*
X107996Y298700D03*
Y294960D03*
X103536Y298700D03*
Y294960D03*
X107996Y298700D03*
X111736D03*
X103536D03*
X109424Y378351D03*
Y374611D03*
X113824D03*
Y378351D03*
X110078Y571894D03*
Y568154D03*
X116066Y233070D03*
Y229330D03*
X120536Y298700D03*
Y294960D03*
X129536Y298700D03*
Y294960D03*
X120536Y298700D03*
X116796D03*
X129536D03*
X125796D03*
X119924Y377898D03*
Y374158D03*
X124858Y374225D03*
Y377965D03*
X134466Y298770D03*
Y295030D03*
X159936Y96400D03*
X156196D03*
X157236Y104600D03*
X153496D03*
X157236Y109100D03*
X153496D03*
X157236Y113700D03*
X153496D03*
X157236Y118200D03*
X153496D03*
X153666Y122830D03*
Y126570D03*
X158266Y122830D03*
Y126570D03*
X158036Y139350D03*
X154296D03*
X157436Y134900D03*
X153696D03*
X164220Y100401D03*
X168720D03*
X173220D03*
X177720D03*
X168775Y118555D03*
X163596Y114000D03*
X167336D03*
X164220Y104141D03*
X168720D03*
X173220D03*
X177720D03*
X166866Y127130D03*
Y130870D03*
X168775Y122295D03*
X184336Y370700D03*
X180596D03*
X186730Y375221D03*
X182990D03*
X186886Y380052D03*
X183146D03*
X185108Y421492D03*
X188848D03*
X185108Y425692D03*
X188848D03*
X188325Y433100D03*
X184585D03*
X188325Y437600D03*
X184585D03*
X192275Y524583D03*
X188535D03*
X204621Y505918D03*
X208362D03*
X204622Y514047D03*
X208362D03*
X209581Y529248D03*
X205841D03*
X204484Y553184D03*
X208224D03*
X200749Y571024D03*
Y574764D03*
X215531Y519607D03*
Y523347D03*
X210955Y557954D03*
Y561694D03*
G54D20*
X-194320Y447318D03*
X-186820D03*
X-190570Y456018D03*
G54D30*
X-175716Y198340D03*
Y206214D03*
G54D21*
X-185917Y437877D03*
X-193791D03*
G54D12*
X-182445Y30800D03*
X-188445D03*
G54D13*
X-185864Y42700D03*
Y46490D03*
X-185134Y201100D03*
X-188924D03*
X-170422Y99537D03*
Y89706D03*
X-170432Y94537D03*
X-176034Y164100D03*
X-172244D03*
X-171645Y212963D03*
X-175435D03*
X-177922Y230245D03*
Y234035D03*
X-177949Y240245D03*
Y244035D03*
Y250245D03*
Y254035D03*
Y259245D03*
Y268245D03*
Y272035D03*
Y263035D03*
X-162318Y-14844D03*
X-158528D03*
X-153774Y99537D03*
X-157564D03*
X-157564Y89706D03*
X-153774D03*
X-157573Y94537D03*
X-153783D03*
X-166632Y99537D03*
Y89706D03*
X-166642Y94537D03*
X-151705Y209081D03*
Y204181D03*
Y199181D03*
X-156945Y237400D03*
Y233610D03*
X-153045Y242500D03*
X-156835D03*
X-138434Y41200D03*
X-142224D03*
X-143234Y99500D03*
X-147024D03*
X-143734Y161800D03*
X-147524D03*
X-147914Y209081D03*
Y204181D03*
Y199181D03*
X-144045Y220800D03*
Y217010D03*
X-149545Y217000D03*
Y220790D03*
X-133975Y308520D03*
Y312310D03*
X-104305Y136710D03*
X-104605Y186810D03*
X-104005Y236610D03*
Y286710D03*
X-95634Y5600D03*
X-91844D03*
X-95634Y100D03*
X-91844D03*
X-90215Y40310D03*
Y36520D03*
X-95215Y40310D03*
Y36520D03*
X-94515Y114810D03*
X-98305D03*
X-91415Y125010D03*
X-100515Y136710D03*
X-94715Y165010D03*
X-98505D03*
X-91415Y175210D03*
X-100815Y186810D03*
X-94515Y215610D03*
X-98305D03*
X-91415Y224610D03*
X-100215Y236610D03*
X-91715Y275010D03*
X-91434Y265200D03*
Y261410D03*
X-100215Y286710D03*
X-87234Y5600D03*
X-83444D03*
X-74715Y36510D03*
Y40300D03*
X-79715Y36510D03*
Y40300D03*
X-84965Y36510D03*
Y40300D03*
X-73615Y87410D03*
X-87625Y125010D03*
Y175210D03*
Y224610D03*
X-87925Y275010D03*
X-59264Y4160D03*
Y370D03*
X-59715Y36510D03*
Y40300D03*
X-64715Y36510D03*
Y40300D03*
X-69715Y36510D03*
Y40300D03*
X-69825Y87410D03*
X-57278Y74660D03*
X-61315Y87410D03*
X-65105D03*
X-41696Y-10064D03*
Y-13854D03*
X-49364Y4160D03*
Y370D03*
X-54264Y4160D03*
Y370D03*
X-49715Y36510D03*
Y40300D03*
X-44715Y36510D03*
Y40300D03*
X-54715Y36510D03*
Y40300D03*
X-41815Y52910D03*
X-45605D03*
X-45315Y65510D03*
Y69300D03*
X-53487Y70053D03*
X-49697D03*
X-53487Y74660D03*
X-45907D03*
X-49697D03*
X-41815Y87410D03*
X-45605D03*
X-42015Y92310D03*
X-45805D03*
X-51315Y102810D03*
X-55105D03*
X-42015Y97410D03*
X-45805D03*
X-50015Y166210D03*
X-46225D03*
X-50015Y171210D03*
X-46225D03*
X-41515Y172510D03*
Y168720D03*
X-43522Y354678D03*
Y358468D03*
X-32041Y-10064D03*
X-28251D03*
Y-15321D03*
Y-19111D03*
X-36696Y-10064D03*
Y-13854D03*
X-28251Y-19111D03*
X-36696Y-533D03*
Y-4323D03*
X-29715Y36510D03*
Y40300D03*
X-34715Y36510D03*
Y40300D03*
X-39715Y36510D03*
Y40300D03*
X-37615Y52910D03*
X-33825D03*
X-25815D03*
X-29605D03*
X-35315Y65410D03*
X-39105D03*
X-32615Y75810D03*
X-28825D03*
X-33815Y87410D03*
X-37605D03*
X-25815D03*
X-29605D03*
X-29715Y148010D03*
X-25925D03*
X-26115Y154510D03*
X-29905D03*
X-26115Y159510D03*
X-29905D03*
X-26115Y164510D03*
X-29905D03*
X-26115Y174510D03*
X-29905D03*
X-26115Y169510D03*
X-29905D03*
X-26115Y179510D03*
X-29905D03*
X-26115Y189510D03*
X-29905D03*
X-26115Y184510D03*
X-29905D03*
X-26115Y194510D03*
X-29905D03*
X-26115Y199510D03*
X-29905D03*
X-26115Y204510D03*
X-29905D03*
X-38522Y354678D03*
Y358468D03*
X-24461Y-19111D03*
X-24715Y36510D03*
Y40300D03*
X-20715Y56010D03*
Y59800D03*
X-20215Y81010D03*
Y84800D03*
X-13965Y146310D03*
Y142520D03*
X-18715Y146310D03*
Y142520D03*
X-15115Y152510D03*
X-18905D03*
X-9915D03*
X-15115Y162510D03*
X-18905D03*
X-9915D03*
X-15115Y157510D03*
X-18905D03*
X-9915D03*
X-15115Y172510D03*
X-18905D03*
X-15115Y167510D03*
X-18905D03*
X-9915Y172510D03*
Y167510D03*
X-14725Y189510D03*
X-18515D03*
X-9915D03*
X-14725Y184510D03*
X-18515D03*
X-9915D03*
X-14725Y194258D03*
X-18515D03*
X-9915Y194510D03*
X-14725Y199910D03*
X-18515D03*
X-9915Y199510D03*
X-14725Y204510D03*
X-18515D03*
X-9915D03*
X-19645Y214904D03*
X-15855D03*
X-20181Y239452D03*
Y235662D03*
X-21328Y362268D03*
X-25118D03*
X-21327Y366868D03*
X-25117D03*
X-18634Y379410D03*
Y383200D03*
X0Y8434D03*
X-3790D03*
X3790Y-200D03*
X0D03*
Y8434D03*
Y4644D03*
X-7953Y8434D03*
X0Y17602D03*
Y21392D03*
X3790Y12902D03*
X0D03*
X-7953Y12224D03*
X0Y34402D03*
Y30612D03*
X3790Y25902D03*
X0D03*
X2924Y61717D03*
Y66336D03*
X1961Y116700D03*
X-1829D03*
X-965Y146810D03*
Y143020D03*
X4035Y146810D03*
Y143020D03*
X-6125Y152510D03*
Y162510D03*
Y157510D03*
Y172510D03*
Y167510D03*
Y189510D03*
Y184510D03*
Y194510D03*
X-7315Y212710D03*
Y208920D03*
X5593Y207516D03*
X-6125Y199510D03*
Y204510D03*
X883Y226106D03*
Y222316D03*
X-3434Y232800D03*
Y236590D03*
X583Y232816D03*
Y236606D03*
X931Y365035D03*
X4721D03*
X16066Y20600D03*
Y16810D03*
X20866Y16800D03*
Y20590D03*
X11428Y70126D03*
Y66336D03*
Y57927D03*
Y61717D03*
X6714Y61717D03*
Y66336D03*
X17266Y86810D03*
X17166Y79390D03*
Y75600D03*
X6466D03*
Y79390D03*
X17266Y90600D03*
X7766D03*
X11556D03*
X11035Y126310D03*
Y122520D03*
X15985Y146410D03*
Y142620D03*
X19912Y146410D03*
Y142620D03*
X8785Y146810D03*
Y143020D03*
X19885Y152510D03*
X16095D03*
X19885Y162510D03*
X16095D03*
X19885Y157510D03*
X16095D03*
X19885Y172510D03*
X16095D03*
X19885Y167510D03*
X16095D03*
X19885Y189510D03*
X16095D03*
X19885Y184510D03*
X16095D03*
X19885Y194510D03*
X16095D03*
X9383Y207516D03*
X19885Y199510D03*
X16095D03*
X19885Y204510D03*
X16095D03*
X18583Y225716D03*
Y237895D03*
Y234105D03*
Y229506D03*
X7108Y255668D03*
Y259458D03*
X12108Y255668D03*
Y259458D03*
X34266Y2700D03*
X30476D03*
X34266Y7300D03*
X30476D03*
X34266Y12000D03*
X30476D03*
X34266Y16600D03*
X30476D03*
X27670Y62300D03*
X31460D03*
X27670Y66800D03*
X31460D03*
X27670Y57800D03*
X31460D03*
X28466Y86800D03*
X34466Y78730D03*
Y74940D03*
X22266Y86810D03*
X21966Y73800D03*
Y77590D03*
X28466Y90590D03*
X22266Y90600D03*
X23985Y146410D03*
Y142620D03*
X28783Y146410D03*
Y142620D03*
X33483Y142716D03*
Y148016D03*
X25085Y152510D03*
X28875D03*
X25085Y162510D03*
X28875D03*
X25085Y157510D03*
X28875D03*
X25085Y167510D03*
X28875D03*
X25085Y172510D03*
X28875D03*
X25085Y189510D03*
X28875D03*
X25085Y184510D03*
X28875D03*
X25085Y194510D03*
X28875D03*
X35288Y184416D03*
X35140Y194410D03*
X35288Y189416D03*
X25085Y199510D03*
X28875D03*
X22785Y211210D03*
X25085Y204510D03*
X28875D03*
X35166Y199200D03*
X22785Y215000D03*
X32871Y225000D03*
X36661D03*
X23135Y234160D03*
Y237950D03*
X32466Y234104D03*
Y230314D03*
X27685Y234160D03*
Y237950D03*
X35386Y320895D03*
X30714Y320835D03*
X35386Y324685D03*
X30714Y324625D03*
X48955Y-10890D03*
Y-7100D03*
X45178Y35673D03*
Y39463D03*
X50966Y39600D03*
Y35810D03*
X40178Y35673D03*
Y39463D03*
X51266Y86000D03*
X40066D03*
X51266Y89790D03*
X40066D03*
X37273Y142716D03*
Y148016D03*
X38090Y162803D03*
X41880D03*
X38090Y157510D03*
X41880D03*
X38090Y152510D03*
X41880D03*
X38090Y167510D03*
X41880D03*
X52645Y178410D03*
X38295Y172715D03*
X42086D03*
X51285Y194310D03*
X47495D03*
X43466Y185700D03*
X47256D03*
X39078Y184416D03*
X38930Y194410D03*
X39078Y189416D03*
X46435Y202116D03*
X42645D03*
X46435Y206016D03*
X42645D03*
X46435Y209916D03*
X42645D03*
X38956Y199200D03*
X46435Y214116D03*
X42645D03*
X45183Y232516D03*
Y236306D03*
X49183Y236316D03*
Y232526D03*
X43066Y270141D03*
Y266351D03*
X42666Y283434D03*
Y279644D03*
X48892Y330413D03*
Y326623D03*
X43904Y330648D03*
Y326858D03*
X49026Y335123D03*
X45164Y346636D03*
X41374D03*
X41575Y351479D03*
X45365D03*
X49026Y338913D03*
X45164Y356107D03*
X41374D03*
X51788Y360494D03*
Y364284D03*
X65955Y-7100D03*
Y-10890D03*
X60955Y-7100D03*
Y-10890D03*
X57266Y49800D03*
Y46010D03*
X59880Y84400D03*
X63671D03*
X56773Y98248D03*
Y102039D03*
X61451Y102084D03*
Y98294D03*
X64283Y175416D03*
X60493D03*
X56435Y178410D03*
X64266Y193600D03*
Y189810D03*
X60176Y330354D03*
Y326564D03*
X54346Y330531D03*
Y326740D03*
X55804Y360531D03*
Y364321D03*
X66831Y360131D03*
Y363921D03*
X74620Y-12331D03*
Y-16121D03*
X70830Y-7074D03*
X74620D03*
X78410Y-16121D03*
X74620D03*
X80166Y55510D03*
X76766Y49700D03*
X72976D03*
X80166Y59300D03*
X83925Y71800D03*
X80135D03*
X80405Y81330D03*
X84195D03*
X80265Y76540D03*
X84055D03*
X76066Y87400D03*
Y91190D03*
X77178Y103863D03*
X80968D03*
X74366Y132100D03*
X78156D03*
X78259Y154868D03*
Y158658D03*
Y154868D03*
X82049D03*
X68766Y158658D03*
X72556D03*
X81966Y173800D03*
X81976Y178164D03*
X81977Y182717D03*
X81977Y188100D03*
X81961Y193500D03*
X81966Y198700D03*
X81976Y203900D03*
Y209100D03*
X81971Y224700D03*
X81961Y219500D03*
X81971Y214300D03*
X72866Y239200D03*
Y242990D03*
X81976Y240300D03*
X81971Y229900D03*
Y235100D03*
Y250700D03*
Y245500D03*
X76018Y256649D03*
Y252859D03*
X73155Y280580D03*
Y284370D03*
X78228Y337029D03*
X82018D03*
X70053Y331958D03*
Y328167D03*
X74101Y331961D03*
Y328171D03*
X77640Y353030D03*
X81430D03*
X73718Y349052D03*
X77508D03*
X78197Y341032D03*
X81987D03*
X71703Y360531D03*
Y364321D03*
X81604Y396080D03*
Y399870D03*
X81704Y387841D03*
Y391631D03*
X73011Y396378D03*
X76801D03*
X81388Y414964D03*
Y411174D03*
X93266Y22610D03*
Y26400D03*
X94766Y59300D03*
X98556D03*
X85756Y173800D03*
X85766Y178164D03*
X85767Y182717D03*
X85767Y188100D03*
X85751Y193500D03*
X96966Y197100D03*
X93176D03*
X85756Y198700D03*
X85766Y203900D03*
Y209100D03*
X93178Y201030D03*
X96968D03*
X93178Y205800D03*
X96968D03*
X85761Y224700D03*
X85751Y219500D03*
X85761Y214300D03*
X85766Y240300D03*
X85761Y229900D03*
Y235100D03*
Y250700D03*
Y245500D03*
X84443Y325635D03*
Y329425D03*
X97757Y366946D03*
X97775Y378017D03*
X97816Y370994D03*
X92748Y401052D03*
X96538D03*
X109451Y62929D03*
X113241D03*
X109451Y67549D03*
X113241D03*
X104806Y71339D03*
Y67549D03*
X104606Y59139D03*
Y62929D03*
X108769Y80695D03*
X112560D03*
X101222Y98573D03*
Y102363D03*
X111222Y98573D03*
Y102363D03*
X106222Y98573D03*
Y102363D03*
X112897Y240826D03*
X112892Y236826D03*
X109076Y249647D03*
X112866D03*
X109101Y253634D03*
X112891D03*
X101548Y366946D03*
X101565Y378017D03*
X101606Y370994D03*
X105392Y433025D03*
X101602D03*
X105646Y438253D03*
X101856D03*
X101834Y443296D03*
X105624D03*
X117766Y2290D03*
Y-1500D03*
X127588Y6100D03*
X117700Y6646D03*
X127588Y9890D03*
X123798D03*
X127588Y19602D03*
Y23392D03*
X123798Y14502D03*
X127588D03*
Y9890D03*
X117700Y10436D03*
X127588Y36402D03*
Y32612D03*
X123798Y28002D03*
X127588D03*
X126722Y98583D03*
Y102373D03*
X121722Y98573D03*
Y102363D03*
X116722Y98573D03*
Y102363D03*
X128642Y207670D03*
X128676Y203300D03*
X128642Y211870D03*
X129825Y224164D03*
X116687Y240826D03*
X116682Y236826D03*
X127811Y233037D03*
X124021D03*
X128431Y240826D03*
X124641D03*
X128431Y236826D03*
X124641D03*
X120661Y240826D03*
Y244616D03*
Y236826D03*
Y233036D03*
X120845Y249647D03*
X124636D03*
X120845Y253634D03*
X124636D03*
X116871Y249647D03*
Y245857D03*
Y253634D03*
Y257424D03*
X127519Y258138D03*
X123729D03*
X124455Y344600D03*
Y348390D03*
X127873Y352738D03*
X124083D03*
X127873Y356675D03*
X124083D03*
X127873Y363612D03*
Y367402D03*
X129455Y595400D03*
Y591610D03*
X136722Y98573D03*
Y102363D03*
X131722Y98573D03*
Y102363D03*
X146722Y98573D03*
Y102363D03*
X141722Y98573D03*
Y102363D03*
X143366Y197100D03*
X139576D03*
X137708Y209563D03*
Y205773D03*
X142708Y205763D03*
Y209553D03*
X132432Y207670D03*
X132466Y203300D03*
X132432Y211870D03*
X139540Y219659D03*
X135750D03*
X133615Y224164D03*
X147540Y209563D03*
Y205773D03*
X154054Y209600D03*
Y205810D03*
X172176Y142044D03*
X175966D03*
X162966Y205800D03*
Y209590D03*
X168582Y210027D03*
X172372D03*
X176076Y215900D03*
X171023Y225800D03*
X174813D03*
X168566Y238300D03*
X164776D03*
X175266Y305931D03*
Y302141D03*
X175267Y311137D03*
X178425Y358773D03*
Y362563D03*
X165455Y595400D03*
Y591610D03*
X191780Y45307D03*
Y41517D03*
X186480D03*
Y45307D03*
X179866Y215900D03*
X179057Y311137D03*
X187657D03*
X183867D03*
X188256Y358773D03*
Y362563D03*
X183256Y362573D03*
Y358783D03*
X186055Y384500D03*
Y388290D03*
X185955Y396700D03*
Y392910D03*
X193048Y493732D03*
X189257D03*
X197504Y45307D03*
Y41517D03*
X203066Y45200D03*
Y41410D03*
X197116Y165158D03*
X200906D03*
X200178Y173325D03*
Y177115D03*
X210430Y70407D03*
Y66617D03*
X214056Y185900D03*
X210266D03*
X214366Y336700D03*
X218156D03*
X214366Y350000D03*
X218156D03*
X214366Y345133D03*
X218156D03*
G54D22*
X-196178Y463431D03*
Y469337D03*
G54D31*
X-170445Y218463D03*
X-176645D03*
X-87634Y81300D03*
X-81434D03*
X-45815Y102810D03*
X-51815Y160110D03*
X-45615D03*
X-39615Y102810D03*
X-12705Y178510D03*
X-18905D03*
X-18515Y209610D03*
X-12315D03*
X3766Y111500D03*
X-2434D03*
X-5115Y178510D03*
X1085D03*
X-1334Y216400D03*
X4866D03*
X9895Y178660D03*
X16095D03*
X20675Y363595D03*
X14475D03*
X22675Y178510D03*
X28875D03*
X35885D03*
X42085D03*
X50985Y225660D03*
X44785D03*
X50685Y244810D03*
X57471Y89568D03*
X63671D03*
X56885Y244810D03*
X108743Y413020D03*
X102543D03*
X129999Y228707D03*
X123799D03*
X194566Y79700D03*
X194766Y73500D03*
X200766Y79700D03*
X200966Y73500D03*
G54D40*
X-165144Y453108D03*
Y457044D03*
X-152145Y563532D03*
Y567468D03*
X-164945Y562932D03*
Y566868D03*
X-145045Y555532D03*
Y559468D03*
X68186Y462972D03*
Y466908D03*
Y476098D03*
Y472162D03*
X74570Y462882D03*
Y466818D03*
X74506Y476098D03*
Y472162D03*
X84566Y422008D03*
Y425944D03*
G54D14*
X-184909Y151674D03*
Y145375D03*
X-195144Y148524D03*
X-184909Y157973D03*
X-195144Y154823D03*
G54D23*
X-187045Y467632D03*
Y489168D03*
X-182045Y467632D03*
X-177045D03*
X-172045D03*
X-182045Y489168D03*
X-177045D03*
X-172045D03*
X-153445Y467632D03*
X-158445D03*
X-153445Y489168D03*
X-158445D03*
X-143445Y467632D03*
X-148445D03*
X-143445Y489168D03*
X-148445D03*
X79550Y433545D03*
X74550D03*
X69550D03*
X79550Y455081D03*
X74550D03*
X69550D03*
X84550Y433545D03*
Y455081D03*
G54D32*
X-181340Y460021D03*
X33267Y121213D03*
X35366Y129100D03*
X27566Y137200D03*
X31666Y137100D03*
X44266Y49700D03*
X43806Y62176D03*
X46956D03*
X51006Y62125D03*
X45353Y117071D03*
X45741Y131218D03*
X51261Y156856D03*
X51235Y188360D03*
X46285Y189660D03*
X51066Y184300D03*
X61866Y39500D03*
X64356Y62226D03*
X61206D03*
X54156Y62125D03*
X58056Y62226D03*
X59135Y160793D03*
X55185Y188310D03*
X55285Y184410D03*
G54D50*
X-103545Y521905D03*
Y547495D03*
G54D41*
X-140739Y339194D03*
X-114557D03*
G54D51*
X-118119Y557900D03*
X-112867D03*
X-107619D03*
X-102371D03*
G54D60*
X-46402Y364600D03*
X-53488D03*
X-39065Y365768D03*
X-31979D03*
G54D24*
X-187045Y496847D03*
Y502753D03*
X-82234Y547047D03*
Y552953D03*
G54D42*
X-145742Y427713D03*
X-149678D03*
X-150513Y537200D03*
X-146577D03*
X-141077Y549500D03*
X-145013D03*
X-150513Y543500D03*
X-146577D03*
X-89013Y560600D03*
X-85077D03*
X95403Y511506D03*
X99339D03*
X99097Y524553D03*
X95161D03*
G54D33*
X-170566Y537251D03*
X-168598D03*
X-170566Y556149D03*
X-168598D03*
X-162692Y537251D03*
X-160724D03*
X-164661D03*
X-166629D03*
Y556149D03*
X-162692D03*
X-164661D03*
X-160724D03*
G54D15*
X-190027Y137304D03*
Y166044D03*
G54D52*
X-107745Y581522D03*
X-112745D03*
X-117745D03*
X-97945Y334878D03*
X-92945D03*
X-102945D03*
X-102745Y581522D03*
X-87945Y334878D03*
G54D25*
X-192785Y520463D03*
X-185305D03*
X-189045Y528337D03*
G54D43*
X-139048Y454092D03*
X-147748Y457842D03*
Y450342D03*
X53246Y111951D03*
X61946Y108201D03*
Y115701D03*
X83406Y39695D03*
X92106Y35945D03*
Y43445D03*
G54D61*
X-33651Y-29942D03*
X-22851D03*
X69220D03*
X80020D03*
X83659Y143136D03*
X72859D03*
G54D34*
X-173125Y539810D03*
Y541779D03*
Y553590D03*
Y551621D03*
Y549653D03*
Y547684D03*
Y543747D03*
Y545716D03*
X-158165Y541779D03*
Y539810D03*
Y547684D03*
Y553590D03*
Y543747D03*
Y551621D03*
Y549653D03*
Y545716D03*
G54D16*
X-169225Y288190D03*
Y598190D03*
X-159725Y178500D03*
X-135805Y-5000D03*
X168525D03*
X171695Y178500D03*
X190774Y338340D03*
Y598190D03*
G54D70*
X-8441Y378666D03*
Y376666D03*
X1559D03*
Y378666D03*
X-8441Y384666D03*
Y382666D03*
Y380666D03*
X1559D03*
Y382666D03*
Y384666D03*
X12453D03*
Y382666D03*
Y380666D03*
Y378666D03*
Y376666D03*
X22453Y382666D03*
Y384666D03*
Y376666D03*
Y378666D03*
Y380666D03*
X31813Y378666D03*
Y376666D03*
Y384666D03*
Y382666D03*
Y380666D03*
X52366Y384666D03*
Y382666D03*
Y380666D03*
Y378666D03*
Y376666D03*
X41813D03*
Y378666D03*
Y380666D03*
Y382666D03*
Y384666D03*
X62366Y382666D03*
Y384666D03*
Y376666D03*
Y378666D03*
Y380666D03*
G54D80*
X85677Y268724D03*
X91036D03*
Y266754D03*
X85677D03*
Y264784D03*
X91036D03*
G54D71*
X-3441Y380666D03*
X17453D03*
X36813D03*
X57366D03*
G54D53*
X-109573Y596400D03*
G54D17*
X-195607Y284204D03*
X-189701D03*
X-195675Y289379D03*
X-189769D03*
X-193920Y294482D03*
X-188014D03*
X-194472Y314960D03*
X-188566D03*
X-143387Y36100D03*
X-137481D03*
X140455Y597453D03*
Y591547D03*
X146455Y597453D03*
Y591547D03*
X152455Y597453D03*
Y591547D03*
X158455Y597453D03*
Y591547D03*
X171123Y146939D03*
X177030D03*
X174813Y220800D03*
Y230700D03*
X163413Y243300D03*
X169319D03*
X180719Y220800D03*
Y230700D03*
G54D44*
X-150513Y530200D03*
X-142205D03*
G54D26*
X-196166Y546600D03*
X-186324D03*
X99291Y518089D03*
X89449D03*
G54D62*
X-28251Y-23942D03*
X74620D03*
X78259Y149136D03*
X119169Y80695D03*
G54D35*
X-175847Y574400D03*
X-151244Y419335D03*
X-163643Y574400D03*
X-139040Y419335D03*
X-120947Y369200D03*
X-108743D03*
X-98647D03*
X-101847Y503600D03*
X-89643D03*
X-86443Y369200D03*
X-80947Y503600D03*
X-68743D03*
X16446Y474200D03*
Y494100D03*
Y484100D03*
Y504036D03*
X28650Y474200D03*
Y494100D03*
Y484100D03*
Y504036D03*
G54D72*
X2338Y395366D03*
X-2662D03*
Y456466D03*
X2338D03*
X17338Y395366D03*
X7338D03*
X12338D03*
Y456466D03*
X17338D03*
X7338D03*
X32338Y395366D03*
X22338D03*
X27338D03*
Y456466D03*
X32338D03*
X22338D03*
X47338Y395366D03*
X52338D03*
X37338D03*
X42338D03*
Y456466D03*
X47338D03*
X52338D03*
X37338D03*
G54D90*
X137116Y455899D03*
X139675D03*
X142235D03*
X144794D03*
X137116Y487999D03*
X139675D03*
X142235D03*
X144794D03*
Y534601D03*
X142235D03*
X139675D03*
X137116D03*
X144794Y566501D03*
X142235D03*
X139675D03*
X137116D03*
X165216Y455899D03*
X167775D03*
X170335D03*
X172894D03*
X165216Y487999D03*
X167775D03*
X170335D03*
X172894D03*
Y534601D03*
X170335D03*
X167775D03*
X165216D03*
X172894Y566501D03*
X170335D03*
X167775D03*
X165216D03*
G54D54*
X-116857Y597680D03*
Y595120D03*
Y592561D03*
Y600239D03*
X-105833Y592561D03*
Y595120D03*
Y597680D03*
Y600239D03*
G54D36*
X-157805Y209081D03*
X-165285D03*
Y198845D03*
X-161545D03*
X-157805D03*
X67872Y402484D03*
Y412720D03*
X75352Y402484D03*
X71612D03*
X75352Y412720D03*
G54D81*
X96334Y344802D03*
X103134D03*
G54D63*
X-19545Y514933D03*
Y544067D03*
X9455Y514933D03*
Y544067D03*
X37455Y514933D03*
Y544067D03*
X68455Y514933D03*
Y544067D03*
G54D27*
X-189945Y555052D03*
Y576548D03*
G54D18*
X-186242Y333433D03*
X-186152Y346397D03*
X-174038Y333433D03*
X-173948Y346397D03*
X-173947Y513200D03*
X-161743D03*
G54D45*
X-124451Y28843D03*
Y39080D03*
Y33961D03*
Y31402D03*
Y36520D03*
Y46757D03*
Y41639D03*
Y44198D03*
X-101617Y28843D03*
Y31402D03*
Y36520D03*
Y33961D03*
Y39080D03*
Y44198D03*
Y41639D03*
Y46757D03*
G54D91*
X144794Y468301D03*
X142235D03*
X139675D03*
X144794Y500401D03*
X142235D03*
X139675D03*
X137116Y522199D03*
X139675D03*
X142235D03*
X137116Y554099D03*
X139675D03*
X142235D03*
X172894Y468301D03*
X170335D03*
X167775D03*
X172894Y500401D03*
X170335D03*
X167775D03*
X165216Y522199D03*
X167775D03*
X170335D03*
X165216Y554099D03*
X167775D03*
X170335D03*
G54D46*
X-127623Y304130D03*
X-119749Y307870D03*
X-127623Y311610D03*
G54D28*
X-178258Y113150D03*
Y125250D03*
X-149410Y113150D03*
Y125250D03*
G54D55*
X-93145Y316963D03*
Y324837D03*
X-82545Y573163D03*
Y581037D03*
G54D64*
X-23746Y4646D03*
X-11946D03*
X99764Y6646D03*
X111564D03*
G54D37*
X-164445Y240100D03*
Y233900D03*
X-136945Y87600D03*
Y93800D03*
X-138715Y167810D03*
Y174010D03*
X-142134Y272000D03*
Y278200D03*
X-144484Y288441D03*
Y294641D03*
X-77017Y15763D03*
Y21963D03*
X-82829Y15763D03*
Y21963D03*
X-47780Y-16264D03*
Y-10064D03*
X-42918Y23621D03*
Y29821D03*
X-29534Y135800D03*
Y142000D03*
X-10134Y131100D03*
Y137300D03*
X5983Y196016D03*
Y202216D03*
Y228516D03*
Y222316D03*
X12066Y81800D03*
Y75600D03*
X17985Y211210D03*
X11983Y216116D03*
Y222316D03*
X17985Y217410D03*
X12561Y321890D03*
Y315690D03*
X18530Y318351D03*
Y324551D03*
X12850Y331228D03*
Y337428D03*
X18550Y331028D03*
Y337228D03*
X28066Y80000D03*
Y73800D03*
X29383Y209816D03*
X35785D03*
X29383Y216016D03*
X35785D03*
X37535Y236510D03*
Y230310D03*
X25024Y317588D03*
Y323788D03*
X33455Y346100D03*
Y339900D03*
X45666Y86000D03*
Y92200D03*
X54955Y-13300D03*
Y-7100D03*
X57266Y33400D03*
Y39600D03*
X60385Y238716D03*
Y232516D03*
X54283Y238716D03*
Y232516D03*
X68466Y237900D03*
Y244100D03*
X81666Y87400D03*
Y93600D03*
X76459Y385412D03*
X81890Y377227D03*
Y383427D03*
X76459Y391612D03*
X87866Y20400D03*
Y26600D03*
X87266Y53100D03*
Y59300D03*
X88396Y348903D03*
Y342703D03*
X126197Y399617D03*
Y393417D03*
X144278Y23768D03*
Y29968D03*
X144378Y37368D03*
Y43568D03*
X169799Y299731D03*
Y305931D03*
X216254Y71432D03*
Y65232D03*
G54D73*
X-7452Y480186D03*
X-2452D03*
X2548D03*
X-7452Y500686D03*
X-2452D03*
X2548D03*
X7548Y480186D03*
Y500686D03*
X38548Y480186D03*
X43548D03*
X48548D03*
X38548Y500686D03*
X43548D03*
X48548D03*
X53548Y480186D03*
Y500686D03*
G54D19*
X-182096Y368728D03*
X-154930D03*
G54D82*
X96410Y382049D03*
X98770D03*
G54D29*
X-168780Y170232D03*
X-171930Y178500D03*
X-168780Y186768D03*
X-169225Y275985D03*
X-178280Y279922D03*
X-181430Y288190D03*
X-178280Y296458D03*
X-169225Y300395D03*
X-178280Y589922D03*
X-169225Y585985D03*
X-181430Y598190D03*
X-178280Y606458D03*
X-169225Y610395D03*
X-159725Y166295D03*
X-150670Y170232D03*
Y186768D03*
X-159725Y190705D03*
X-160170Y279922D03*
X-157020Y288190D03*
X-160170Y296458D03*
Y589922D03*
X-157020Y598190D03*
X-160170Y606458D03*
X-144860Y-13268D03*
X-135805Y-17205D03*
X-144860Y3268D03*
X-148010Y-5000D03*
X-135805Y7205D03*
X-147520Y178500D03*
X-126750Y-13268D03*
Y3268D03*
X-123600Y-5000D03*
X159470Y-13268D03*
Y3268D03*
X156320Y-5000D03*
X162640Y170232D03*
X159490Y178500D03*
X162640Y186768D03*
X177580Y-13268D03*
X168525Y-17205D03*
X177580Y3268D03*
X168525Y7205D03*
X171695Y166295D03*
Y190705D03*
X178569Y338340D03*
Y598190D03*
X180730Y-5000D03*
X180750Y170232D03*
X183900Y178500D03*
X180750Y186768D03*
X181719Y330072D03*
X190774Y326135D03*
X181719Y346608D03*
X190774Y350545D03*
X181719Y589922D03*
X190774Y585985D03*
X181719Y606458D03*
X190774Y610395D03*
X199829Y330072D03*
X202979Y338340D03*
X199829Y346608D03*
Y589922D03*
X202979Y598190D03*
X199829Y606458D03*
G54D65*
X-17846Y4646D03*
X105664Y6646D03*
G54D74*
X44366Y8000D03*
G54D83*
X94107Y473321D03*
X94257Y483341D03*
X94107Y494041D03*
X94257Y504541D03*
X99931Y531564D03*
X94025D03*
X100013Y473321D03*
X100163Y483341D03*
X100013Y494041D03*
X100163Y504541D03*
G54D92*
X193215Y51218D03*
Y65418D03*
X195774Y51218D03*
X200893D03*
X198334D03*
X195774Y65418D03*
X200893D03*
X198334D03*
G54D47*
X-130045Y564039D03*
Y581361D03*
G54D56*
X-92827Y358500D03*
X-98063D03*
X-103299D03*
X-87591D03*
G54D38*
X-162775Y387269D03*
Y406561D03*
G54D84*
X95041Y562788D03*
Y559442D03*
X98387D03*
Y562788D03*
X95041Y578497D03*
Y575150D03*
X98387D03*
Y578497D03*
X95041Y594206D03*
Y590859D03*
X98387D03*
Y594206D03*
X95041Y609914D03*
Y606568D03*
X98387D03*
Y609914D03*
G54D39*
X-153116Y441447D03*
X-142092D03*
X-125745Y588788D03*
Y599812D03*
G54D57*
X-92845Y568598D03*
Y580802D03*
G54D48*
X-102645Y313007D03*
Y326393D03*
G54D93*
X189954Y54480D03*
Y62157D03*
Y59598D03*
Y57039D03*
X204154Y54480D03*
Y57039D03*
Y59598D03*
Y62157D03*
G54D75*
X42004Y5150D03*
X43579D03*
X45153D03*
X46728D03*
Y10850D03*
X45153D03*
X43579D03*
X42004D03*
G54D66*
X-10000Y41817D03*
Y54415D03*
X0Y41817D03*
X-5000D03*
X0Y54415D03*
X-5000D03*
X117588Y56415D03*
X127588D03*
Y43817D03*
X122588Y56415D03*
Y43817D03*
X117588D03*
G54D76*
X48012Y275166D03*
X48212Y270141D03*
Y261873D03*
X48012Y283434D03*
X65138Y275166D03*
X65338Y270141D03*
Y261873D03*
X65138Y283434D03*
G54D58*
X-59600Y17740D03*
Y14000D03*
Y10260D03*
X-49364D03*
Y17740D03*
G54D94*
X192566Y88100D03*
X205166D03*
G54D67*
X-14022Y271568D03*
X-22D03*
X146455Y310500D03*
X160455D03*
G54D49*
X-114073Y385250D03*
X-102262D03*
Y487750D03*
X-114073D03*
X-90451Y385250D03*
Y487750D03*
X-78639Y385250D03*
Y487750D03*
X-66828Y385250D03*
X-55017D03*
Y487750D03*
X-66828D03*
G54D85*
X109166Y201610D03*
X104166D03*
X114166D03*
Y223190D03*
X109166D03*
X104166D03*
X109663Y384439D03*
X104663D03*
X114663D03*
Y406020D03*
X109663D03*
X104663D03*
X119166Y201610D03*
Y223190D03*
X119663Y384439D03*
Y406020D03*
G54D95*
X186425Y297074D03*
X181307D03*
Y305736D03*
X186425D03*
X183866D03*
G54D77*
X48212Y267287D03*
Y264727D03*
X48012Y280580D03*
Y278020D03*
X65338Y267287D03*
Y264727D03*
X65138Y280580D03*
Y278020D03*
G54D59*
X-59333Y27649D03*
X-51459D03*
G54D68*
X-9084Y307300D03*
X-5584D03*
X130816Y289700D03*
X127316D03*
X168095Y153546D03*
Y157046D03*
X173095Y153546D03*
Y157046D03*
G54D86*
X114089Y509658D03*
X111530D03*
Y523950D03*
X114089D03*
X119208Y509658D03*
X116649D03*
X119208Y523950D03*
X116649D03*
G54D96*
X197054Y58357D03*
G54D78*
X81590Y366777D03*
Y359977D03*
G54D69*
X-5545Y320158D03*
Y339843D03*
G54D87*
X108223Y520643D03*
Y512965D03*
Y515524D03*
Y518084D03*
X122515Y512965D03*
Y520643D03*
Y515524D03*
Y518084D03*
G54D88*
X115369Y516804D03*
G54D79*
X92403Y111779D03*
X94372D03*
X98309D03*
X96340D03*
X92403Y188157D03*
X94372D03*
X98309D03*
X96340D03*
X114057Y111779D03*
X108151D03*
X106183D03*
X104214D03*
X102246D03*
X100277D03*
X112088D03*
X110120D03*
X102246Y188157D03*
X100277D03*
X110120D03*
X106183D03*
X112088D03*
X114057D03*
X108151D03*
X104214D03*
X116025Y111779D03*
X121931D03*
X119962D03*
X129805D03*
X127836D03*
X117994D03*
X123899D03*
X125868D03*
X119962Y188157D03*
X129805D03*
X125868D03*
X121931D03*
X116025D03*
X127836D03*
X123899D03*
X117994D03*
X145553Y111779D03*
X143584D03*
X141616D03*
X139647D03*
X137679D03*
X135710D03*
X133742D03*
X131773D03*
X137679Y188157D03*
X133742D03*
X135710D03*
X131773D03*
X139647D03*
X143584D03*
X145553D03*
X141616D03*
G54D97*
X199813Y259337D03*
Y257369D03*
Y255400D03*
Y253432D03*
Y251463D03*
Y275085D03*
Y273117D03*
Y271148D03*
Y269180D03*
Y267211D03*
Y265243D03*
Y263274D03*
Y261306D03*
Y288865D03*
Y286896D03*
Y284928D03*
Y282959D03*
Y280991D03*
Y279022D03*
Y277054D03*
Y391112D03*
Y397017D03*
Y387175D03*
Y389143D03*
Y393080D03*
Y395049D03*
Y398986D03*
Y400954D03*
Y402923D03*
Y408828D03*
Y414734D03*
Y404891D03*
Y406860D03*
Y410797D03*
Y412765D03*
Y416702D03*
Y420639D03*
Y426545D03*
Y418671D03*
Y422608D03*
Y424576D03*
Y428513D03*
Y430482D03*
Y432450D03*
Y438356D03*
Y444261D03*
Y434419D03*
Y436387D03*
Y440324D03*
Y442293D03*
X223435Y251463D03*
Y253432D03*
Y255400D03*
Y257369D03*
Y259337D03*
Y261306D03*
Y263274D03*
Y265243D03*
Y267211D03*
Y269180D03*
Y271148D03*
Y273117D03*
Y275085D03*
Y277054D03*
Y279022D03*
Y280991D03*
Y282959D03*
Y284928D03*
Y286896D03*
Y288865D03*
Y387175D03*
Y389143D03*
Y391112D03*
Y393080D03*
Y395049D03*
Y397017D03*
Y398986D03*
Y400954D03*
Y402923D03*
Y408828D03*
Y414734D03*
Y404891D03*
Y406860D03*
Y410797D03*
Y412765D03*
Y416702D03*
Y420639D03*
Y428513D03*
Y430482D03*
Y418671D03*
Y422608D03*
Y424576D03*
Y426545D03*
Y432450D03*
Y440324D03*
Y444261D03*
Y434419D03*
Y436387D03*
Y438356D03*
Y442293D03*
G54D98*
X218946Y483245D03*
Y502929D03*
X229970Y493087D03*
G54D89*
X125169Y86095D03*
Y75295D03*
G54D99*
G01X-732346Y256502D02*
X-712661D01*
G01X94426Y841147D02*
Y821462D01*
G01X921197Y256502D02*
X901512D01*
M02*
