G04 ================== begin FILE IDENTIFICATION RECORD ==================*
G04 Layout Name:  toweNode-eNB-07042023.brd*
G04 Film Name:    toweNode-eNB-v1.0-RevC_PMT.gbr*
G04 File Format:  Gerber RS274X*
G04 File Origin:  Cadence Allegro -unreleased*
G04 Origin Date:  Fri Apr  7 20:57:59 2023*
G04 *
G04 Layer:  BOARD GEOMETRY/TITLE_BLOCK*
G04 Layer:  BOARD GEOMETRY/OUTLINE*
G04 Layer:  DRAWING FORMAT/OUTLINE_DATA*
G04 Layer:  PACKAGE GEOMETRY/PASTEMASK_TOP*
G04 Layer:  PIN/PASTEMASK_TOP*
G04 *
G04 Offset:    (0.000 0.000)*
G04 Mirror:    No*
G04 Mode:      Positive*
G04 Rotation:  0*
G04 FullContactRelief:  No*
G04 UndefLineWidth:     6.000*
G04 ================== end FILE IDENTIFICATION RECORD ====================*
%FSLAX25Y25*MOIN*%
%IR0*IPPOS*OFA0.00000B0.00000*MIA0B0*SFA1.00000B1.00000*%
%AMMACRO90*
4,1,40,.015205,-.005315,
-.015205,-.005315,
-.015436,-.005295,
-.01566,-.005235,
-.01587,-.005136,
-.01606,-.005003,
-.016224,-.004839,
-.016357,-.004649,
-.016455,-.004439,
-.016515,-.004215,
-.016535,-.003988,
-.016535,.003988,
-.016514,.004219,
-.016454,.004443,
-.016355,.004653,
-.016221,.004842,
-.016057,.005006,
-.015867,.005139,
-.015656,.005236,
-.015432,.005295,
-.015205,.005315,
.015205,.005315,
.015436,.005295,
.01566,.005235,
.01587,.005136,
.01606,.005003,
.016224,.004839,
.016357,.004649,
.016455,.004439,
.016515,.004215,
.016535,.003988,
.016535,-.003988,
.016514,-.004219,
.016454,-.004443,
.016355,-.004653,
.016221,-.004842,
.016057,-.005006,
.015867,-.005139,
.015656,-.005236,
.015432,-.005295,
.015205,-.005315,
0.0*
%
%ADD90MACRO90*%
%ADD78R,.029921X.066929*%
%ADD93O,.068988X.021748*%
%ADD52R,.1X.036*%
%ADD50R,.036X.1*%
%ADD17R,.11X.055*%
%ADD102R,.055X.11*%
%AMMACRO61*
4,1,20,.03248,.04724,
.01476,.04724,
.01476,.066929,
.004921,.066929,
.004921,.04724,
-.004921,.04724,
-.004921,.066929,
-.01476,.066929,
-.01476,.04724,
-.03248,.04724,
-.03248,-.04724,
-.01476,-.04724,
-.01476,-.066929,
-.004921,-.066929,
-.004921,-.04724,
.004921,-.04724,
.004921,-.066929,
.01476,-.066929,
.01476,-.04724,
.03248,-.04724,
.03248,.04724,
0.0*
%
%ADD61MACRO61*%
%ADD89R,.059799X.023598*%
%ADD71R,.040201X.125201*%
%ADD31R,.072X.198*%
%ADD28R,.001X.001*%
%ADD49R,.198X.072*%
%ADD75R,.044902X.190201*%
%ADD24C,.320961*%
%ADD51R,.140902X.055902*%
%ADD40R,.055902X.140902*%
%ADD20R,.022642X.007902*%
%ADD80R,.007902X.070902*%
%ADD123R,.00787X.033461*%
%ADD124R,.033461X.00787*%
%ADD108C,.009449*%
%ADD19R,.019642X.007902*%
%ADD13R,.009402X.012598*%
%ADD23O,.159539X.061118*%
%AMMACRO121*
4,1,4,-.034494,.049016,
-.034482,-.049016,
.034494,-.049016,
.034494,.049016,
-.034494,.049016,
0.0*
%
%ADD121MACRO121*%
%ADD95R,.072831X.133858*%
%AMMACRO104*
4,1,4,.016141,-.016142,
.016141,.016141,
-.016142,.016141,
-.016142,-.016142,
.016141,-.016142,
0.0*
%
%ADD104MACRO104*%
%ADD94R,.1X.12*%
%ADD125R,.009839X.023618*%
%ADD25R,.127953X.064961*%
%ADD126R,.023618X.009839*%
%AMMACRO42*
4,1,40,-.015205,.005315,
.015205,.005315,
.015436,.005295,
.01566,.005235,
.01587,.005136,
.01606,.005003,
.016224,.004839,
.016357,.004649,
.016455,.004439,
.016515,.004215,
.016535,.003988,
.016535,-.003988,
.016514,-.004219,
.016454,-.004443,
.016355,-.004653,
.016221,-.004842,
.016057,-.005006,
.015867,-.005139,
.015656,-.005236,
.015432,-.005295,
.015205,-.005315,
-.015205,-.005315,
-.015436,-.005295,
-.01566,-.005235,
-.01587,-.005136,
-.01606,-.005003,
-.016224,-.004839,
-.016357,-.004649,
-.016455,-.004439,
-.016515,-.004215,
-.016535,-.003988,
-.016535,.003988,
-.016514,.004219,
-.016454,.004443,
-.016355,.004653,
-.016221,.004842,
-.016057,.005006,
-.015867,.005139,
-.015656,.005236,
-.015432,.005295,
-.015205,.005315,
0.0*
%
%ADD42MACRO42*%
%ADD15R,.11X.15*%
%ADD70R,.032X.02*%
%ADD37O,.08X.03*%
%ADD26R,.016X.01*%
%ADD60R,.032X.012*%
%ADD54R,.138X.1*%
%ADD27R,.01X.016*%
%ADD118R,.024X.03*%
%ADD122R,.07X.06*%
%ADD83R,.043X.045*%
%ADD43R,.07X.08*%
%ADD18R,.038X.032*%
%ADD82R,.045X.043*%
%ADD55R,.063X.035*%
%ADD32R,.06X.056*%
%ADD29R,.045X.035*%
%ADD76R,.04X.094*%
%ADD69R,.035X.045*%
%ADD48R,.044X.04222*%
%ADD44R,.056X.06*%
%ADD68R,.037X.036*%
%ADD41R,.04222X.044*%
%ADD81R,.059X.051*%
%ADD62R,.082X.082*%
%ADD30R,.036X.037*%
%ADD74R,.051X.059*%
%ADD63R,.024X.095*%
%ADD59R,.082X.082*%
%ADD53R,.066X.063*%
%ADD79C,.026*%
%ADD64R,.075X.055*%
%ADD45R,.063X.066*%
%ADD10R,.042X.087*%
%ADD58R,.02X.02*%
%ADD16R,.055X.075*%
%ADD14R,.021X.021*%
%ADD100R,.011024X.09252*%
%ADD33R,.032X.032*%
%ADD12R,.019701X.0315*%
%ADD114R,.011811X.021654*%
%ADD85C,.01772*%
%ADD77R,.046X.046*%
%ADD65C,.024902*%
%ADD21R,.028X.028*%
%ADD129R,.023622X.043307*%
%ADD73R,.023618X.011811*%
%ADD99R,.02874X.011811*%
%ADD39C,.04537*%
%ADD112R,.028543X.011811*%
%ADD35R,.055118X.035402*%
%ADD113R,.011811X.028543*%
%ADD101R,.017717X.011811*%
%ADD98R,.049201X.070902*%
%ADD96R,.095X.095*%
%ADD57R,.018902X.015701*%
%ADD11R,.027559X.042*%
%ADD128R,.023622X.041339*%
%ADD111R,.041339X.062008*%
%ADD86R,.033461X.03937*%
%ADD109R,.014961X.022835*%
%ADD88R,.011811X.059059*%
%ADD72R,.011811X.027559*%
%ADD107R,.07687X.05324*%
%ADD56C,.012799*%
%ADD115R,.047244X.08563*%
%ADD110R,.017913X.025591*%
%ADD84R,.074803X.047244*%
%ADD116R,.041339X.045276*%
%ADD91R,.035429X.023618*%
%ADD22O,.072929X.049311*%
%ADD66R,.024606X.07874*%
%ADD46R,.01978X.041429*%
%ADD38R,.041429X.01978*%
%ADD127R,.082681X.082681*%
%ADD87R,.059059X.01772*%
%ADD47R,.096551X.096551*%
%ADD120R,.035429X.015748*%
%ADD97R,.039461X.01978*%
%ADD92R,.035429X.015748*%
%ADD36R,.01978X.039461*%
%ADD119R,.027559X.03937*%
%ADD67R,.03937X.027559*%
%ADD34R,.062988X.01378*%
%ADD130C,.019689*%
%ADD131C,.005*%
%ADD132C,.00787*%
%ADD133C,.01*%
%ADD134C,.006*%
G75*
%LPD*%
G75*
G36*
G01X-44589Y354094D02*
Y360106D01*
X-50902D01*
Y354094D01*
X-44589D01*
G37*
G36*
G01Y360894D02*
Y366906D01*
X-50902D01*
Y360894D01*
X-44589D01*
G37*
G36*
G01X-37489Y354094D02*
Y360106D01*
X-43802D01*
Y354094D01*
X-37489D01*
G37*
G36*
G01Y360894D02*
Y366906D01*
X-43802D01*
Y360894D01*
X-37489D01*
G37*
G36*
G01X342358Y528036D02*
X340094D01*
Y530300D01*
X342358D01*
Y528036D01*
G37*
G36*
G01Y523804D02*
X340094D01*
Y526068D01*
X342358D01*
Y523804D01*
G37*
G36*
G01X346590Y528036D02*
X344326D01*
Y530300D01*
X346590D01*
Y528036D01*
G37*
G36*
G01Y523804D02*
X344326D01*
Y526068D01*
X346590D01*
Y523804D01*
G37*
G36*
G01X-30995Y553100D02*
Y550900D01*
X-33195D01*
Y553100D01*
X-30995D01*
G37*
G36*
G01Y557100D02*
Y554900D01*
X-33195D01*
Y557100D01*
X-30995D01*
G37*
G36*
G01Y561100D02*
Y558900D01*
X-33195D01*
Y561100D01*
X-30995D01*
G37*
G36*
G01X-34995Y553100D02*
Y550900D01*
X-37195D01*
Y553100D01*
X-34995D01*
G37*
G36*
G01Y557100D02*
Y554900D01*
X-37195D01*
Y557100D01*
X-34995D01*
G37*
G36*
G01Y561100D02*
Y558900D01*
X-37195D01*
Y561100D01*
X-34995D01*
G37*
G36*
G01X-38995Y553100D02*
Y550900D01*
X-41195D01*
Y553100D01*
X-38995D01*
G37*
G36*
G01Y557100D02*
Y554900D01*
X-41195D01*
Y557100D01*
X-38995D01*
G37*
G36*
G01Y561100D02*
Y558900D01*
X-41195D01*
Y561100D01*
X-38995D01*
G37*
G36*
G01X-30995Y565100D02*
Y562900D01*
X-33195D01*
Y565100D01*
X-30995D01*
G37*
G36*
G01X-34995D02*
Y562900D01*
X-37195D01*
Y565100D01*
X-34995D01*
G37*
G36*
G01X-38995D02*
Y562900D01*
X-41195D01*
Y565100D01*
X-38995D01*
G37*
G36*
G01X-26995Y553100D02*
Y550900D01*
X-29195D01*
Y553100D01*
X-26995D01*
G37*
G36*
G01Y557100D02*
Y554900D01*
X-29195D01*
Y557100D01*
X-26995D01*
G37*
G36*
G01Y561100D02*
Y558900D01*
X-29195D01*
Y561100D01*
X-26995D01*
G37*
G36*
G01Y565100D02*
Y562900D01*
X-29195D01*
Y565100D01*
X-26995D01*
G37*
G36*
G01X268837Y435630D02*
Y436418D01*
X272380D01*
Y435630D01*
X268837D01*
G37*
G36*
G01X273384Y433288D02*
Y436516D01*
X276612D01*
Y433288D01*
X273384D01*
G37*
G36*
G01X277793D02*
Y436516D01*
X281022D01*
Y433288D01*
X277793D01*
G37*
G36*
G01X268837Y437796D02*
Y438583D01*
X272380D01*
Y437796D01*
X268837D01*
G37*
G36*
G01X277793Y437697D02*
Y440926D01*
X281022D01*
Y437697D01*
X277793D01*
G37*
G36*
G01X282026Y435630D02*
Y436418D01*
X285569D01*
Y435630D01*
X282026D01*
G37*
G36*
G01Y437796D02*
Y438583D01*
X285569D01*
Y437796D01*
X282026D01*
G37*
G36*
G01X302005Y518300D02*
X299605D01*
Y520700D01*
X302005D01*
Y518300D01*
G37*
G36*
G01X306405D02*
X304005D01*
Y520700D01*
X306405D01*
Y518300D01*
G37*
G36*
G01X310805D02*
X308405D01*
Y520700D01*
X310805D01*
Y518300D01*
G37*
G36*
G01X315205D02*
X312805D01*
Y520700D01*
X315205D01*
Y518300D01*
G37*
G36*
G01X302005Y522700D02*
X299605D01*
Y525100D01*
X302005D01*
Y522700D01*
G37*
G36*
G01X306405D02*
X304005D01*
Y525100D01*
X306405D01*
Y522700D01*
G37*
G36*
G01X310805D02*
X308405D01*
Y525100D01*
X310805D01*
Y522700D01*
G37*
G36*
G01X315205D02*
X312805D01*
Y525100D01*
X315205D01*
Y522700D01*
G37*
G36*
G01X302005Y527100D02*
X299605D01*
Y529500D01*
X302005D01*
Y527100D01*
G37*
G36*
G01X306405D02*
X304005D01*
Y529500D01*
X306405D01*
Y527100D01*
G37*
G36*
G01X310805D02*
X308405D01*
Y529500D01*
X310805D01*
Y527100D01*
G37*
G36*
G01X315205D02*
X312805D01*
Y529500D01*
X315205D01*
Y527100D01*
G37*
G36*
G01X302005Y534200D02*
X299605D01*
Y536600D01*
X302005D01*
Y534200D01*
G37*
G36*
G01X306405D02*
X304005D01*
Y536600D01*
X306405D01*
Y534200D01*
G37*
G36*
G01X310805D02*
X308405D01*
Y536600D01*
X310805D01*
Y534200D01*
G37*
G36*
G01X315205D02*
X312805D01*
Y536600D01*
X315205D01*
Y534200D01*
G37*
G36*
G01X302005Y538600D02*
X299605D01*
Y541000D01*
X302005D01*
Y538600D01*
G37*
G36*
G01X306405D02*
X304005D01*
Y541000D01*
X306405D01*
Y538600D01*
G37*
G36*
G01X310805D02*
X308405D01*
Y541000D01*
X310805D01*
Y538600D01*
G37*
G36*
G01X315205D02*
X312805D01*
Y541000D01*
X315205D01*
Y538600D01*
G37*
G54D100*
X281819Y380014D03*
G54D110*
X287360Y375290D03*
G54D101*
X280382Y375979D03*
Y377750D03*
Y380506D03*
Y382278D03*
Y384050D03*
G54D120*
X317130Y381483D03*
Y376363D03*
X325792Y381483D03*
Y378923D03*
Y376363D03*
G54D111*
X291504Y376323D03*
G54D102*
X283150Y420804D03*
X270946D03*
X308203Y455500D03*
X320407D03*
G54D130*
G01X-596541Y261502D02*
X-576856D01*
G01X230231Y846147D02*
Y826462D01*
G01X1057002Y261502D02*
X1037317D01*
G36*
G01X280687Y428741D02*
Y431461D01*
X280691Y431485D01*
Y431508D01*
X280699Y431532D01*
X280703Y431556D01*
X280711Y431579D01*
X280718Y431599D01*
X280726Y431622D01*
X280738Y431642D01*
X280746Y431662D01*
X280762Y431686D01*
X280774Y431705D01*
X280789Y431721D01*
X280805Y431741D01*
X280837Y431772D01*
X280856Y431788D01*
X280872Y431804D01*
X280892Y431815D01*
X280915Y431831D01*
X280935Y431839D01*
X280955Y431851D01*
X280978Y431859D01*
X280998Y431867D01*
X281022Y431874D01*
X281045Y431878D01*
X281069Y431886D01*
X281092D01*
X281116Y431890D01*
X281163D01*
X281187Y431886D01*
X281211D01*
X281234Y431878D01*
X281258Y431874D01*
X281281Y431867D01*
X281301Y431859D01*
X281325Y431851D01*
X281344Y431839D01*
X281364Y431831D01*
X281388Y431815D01*
X281407Y431804D01*
X281423Y431788D01*
X281443Y431772D01*
X281474Y431741D01*
X281490Y431721D01*
X281506Y431705D01*
X281518Y431686D01*
X281533Y431662D01*
X281541Y431642D01*
X281553Y431622D01*
X281561Y431599D01*
X281569Y431579D01*
X281577Y431556D01*
X281581Y431532D01*
X281588Y431508D01*
Y431485D01*
X281592Y431461D01*
Y428741D01*
X280687D01*
G37*
G36*
G01X278718D02*
Y431461D01*
X278722Y431485D01*
Y431508D01*
X278730Y431532D01*
X278734Y431556D01*
X278742Y431579D01*
X278750Y431599D01*
X278758Y431622D01*
X278770Y431642D01*
X278778Y431662D01*
X278793Y431686D01*
X278805Y431705D01*
X278821Y431721D01*
X278837Y431741D01*
X278868Y431772D01*
X278888Y431788D01*
X278904Y431804D01*
X278923Y431815D01*
X278947Y431831D01*
X278966Y431839D01*
X278986Y431851D01*
X279010Y431859D01*
X279030Y431867D01*
X279053Y431874D01*
X279077Y431878D01*
X279100Y431886D01*
X279124D01*
X279148Y431890D01*
X279195D01*
X279218Y431886D01*
X279242D01*
X279266Y431878D01*
X279289Y431874D01*
X279313Y431867D01*
X279333Y431859D01*
X279356Y431851D01*
X279376Y431839D01*
X279396Y431831D01*
X279419Y431815D01*
X279439Y431804D01*
X279455Y431788D01*
X279474Y431772D01*
X279506Y431741D01*
X279522Y431721D01*
X279537Y431705D01*
X279549Y431686D01*
X279565Y431662D01*
X279573Y431642D01*
X279585Y431622D01*
X279592Y431599D01*
X279600Y431579D01*
X279608Y431556D01*
X279612Y431532D01*
X279620Y431508D01*
Y431485D01*
X279624Y431461D01*
Y428741D01*
X278718D01*
G37*
G36*
G01X276750D02*
Y431461D01*
X276754Y431485D01*
Y431508D01*
X276762Y431532D01*
X276766Y431556D01*
X276774Y431579D01*
X276781Y431599D01*
X276789Y431622D01*
X276801Y431642D01*
X276809Y431662D01*
X276825Y431686D01*
X276837Y431705D01*
X276852Y431721D01*
X276868Y431741D01*
X276900Y431772D01*
X276919Y431788D01*
X276935Y431804D01*
X276955Y431815D01*
X276978Y431831D01*
X276998Y431839D01*
X277018Y431851D01*
X277041Y431859D01*
X277061Y431867D01*
X277085Y431874D01*
X277108Y431878D01*
X277132Y431886D01*
X277156D01*
X277179Y431890D01*
X277226D01*
X277250Y431886D01*
X277274D01*
X277297Y431878D01*
X277321Y431874D01*
X277344Y431867D01*
X277364Y431859D01*
X277388Y431851D01*
X277407Y431839D01*
X277427Y431831D01*
X277451Y431815D01*
X277470Y431804D01*
X277486Y431788D01*
X277506Y431772D01*
X277537Y431741D01*
X277553Y431721D01*
X277569Y431705D01*
X277581Y431686D01*
X277596Y431662D01*
X277604Y431642D01*
X277616Y431622D01*
X277624Y431599D01*
X277632Y431579D01*
X277640Y431556D01*
X277644Y431532D01*
X277652Y431508D01*
Y431485D01*
X277656Y431461D01*
Y428741D01*
X276750D01*
G37*
G36*
G01X274781D02*
Y431461D01*
X274785Y431485D01*
Y431508D01*
X274793Y431532D01*
X274797Y431556D01*
X274805Y431579D01*
X274813Y431599D01*
X274821Y431622D01*
X274833Y431642D01*
X274840Y431662D01*
X274856Y431686D01*
X274868Y431705D01*
X274884Y431721D01*
X274900Y431741D01*
X274931Y431772D01*
X274951Y431788D01*
X274966Y431804D01*
X274986Y431815D01*
X275010Y431831D01*
X275030Y431839D01*
X275049Y431851D01*
X275073Y431859D01*
X275092Y431867D01*
X275116Y431874D01*
X275140Y431878D01*
X275163Y431886D01*
X275187D01*
X275211Y431890D01*
X275258D01*
X275281Y431886D01*
X275305D01*
X275329Y431878D01*
X275352Y431874D01*
X275376Y431867D01*
X275396Y431859D01*
X275419Y431851D01*
X275439Y431839D01*
X275459Y431831D01*
X275482Y431815D01*
X275502Y431804D01*
X275518Y431788D01*
X275537Y431772D01*
X275569Y431741D01*
X275585Y431721D01*
X275600Y431705D01*
X275612Y431686D01*
X275628Y431662D01*
X275636Y431642D01*
X275648Y431622D01*
X275656Y431599D01*
X275663Y431579D01*
X275671Y431556D01*
X275675Y431532D01*
X275683Y431508D01*
Y431485D01*
X275687Y431461D01*
Y428741D01*
X274781D01*
G37*
G36*
G01X272813D02*
Y431461D01*
X272817Y431485D01*
Y431508D01*
X272825Y431532D01*
X272829Y431556D01*
X272837Y431579D01*
X272844Y431599D01*
X272852Y431622D01*
X272864Y431642D01*
X272872Y431662D01*
X272888Y431686D01*
X272900Y431705D01*
X272915Y431721D01*
X272931Y431741D01*
X272963Y431772D01*
X272982Y431788D01*
X272998Y431804D01*
X273018Y431815D01*
X273041Y431831D01*
X273061Y431839D01*
X273081Y431851D01*
X273104Y431859D01*
X273124Y431867D01*
X273148Y431874D01*
X273171Y431878D01*
X273195Y431886D01*
X273219D01*
X273242Y431890D01*
X273289D01*
X273313Y431886D01*
X273337D01*
X273360Y431878D01*
X273384Y431874D01*
X273407Y431867D01*
X273427Y431859D01*
X273451Y431851D01*
X273470Y431839D01*
X273490Y431831D01*
X273514Y431815D01*
X273533Y431804D01*
X273549Y431788D01*
X273569Y431772D01*
X273600Y431741D01*
X273616Y431721D01*
X273632Y431705D01*
X273644Y431686D01*
X273659Y431662D01*
X273667Y431642D01*
X273679Y431622D01*
X273687Y431599D01*
X273695Y431579D01*
X273703Y431556D01*
X273707Y431532D01*
X273714Y431508D01*
Y431485D01*
X273718Y431461D01*
Y428741D01*
X272813D01*
G37*
G54D112*
X296179Y374207D03*
Y372435D03*
Y384050D03*
Y382278D03*
Y380506D03*
Y377750D03*
Y375979D03*
G54D10*
X-68036Y-12800D03*
X-56422D03*
G54D121*
X341804Y125500D03*
G54D131*
G01X-84940Y490344D02*
Y623190D01*
X-104940D01*
Y-31500D01*
X-84940D01*
Y123000D01*
G01Y133000D02*
Y123000D01*
G01Y133000D02*
G02X-78740I3100J0D01*
G01X-84940Y153000D02*
Y163000D01*
G01X-78740Y153000D02*
G02X-84940I-3100J0D01*
G01Y296672D02*
Y163000D01*
G01Y296672D02*
G02X-78740I3100J0D01*
G01X-84940Y460344D02*
Y326672D01*
G01X-78740Y316672D02*
G02X-84940I-3100J0D01*
G01D02*
Y326672D01*
G01Y460344D02*
G02X-78740I3100J0D01*
G01X-84940Y480344D02*
Y490344D01*
G01X-78740Y480344D02*
G02X-84940I-3100J0D01*
G01X-78740Y1965D02*
Y-19689D01*
X-66929Y-31500D01*
X20275D01*
Y-3973D01*
G02X22275Y-1973I2000J0D01*
G01X67488D01*
G02X69488Y-3973I0J-2000D01*
G01Y-31500D01*
X124607D01*
X124606Y-3973D01*
G02X126606Y-1973I2000J0D01*
G01X165913D01*
G02X167913Y-3973I0J-2000D01*
G01X167914Y-31500D01*
X223032D01*
X223031Y-3973D01*
G02X225031Y-1973I2000J0D01*
G01X270244D01*
G02X272244Y-3973I0J-2000D01*
G01Y-31500D01*
X359448D01*
X371260Y-19689D01*
Y112173D01*
G01X-78740Y123000D02*
Y1965D01*
G01Y133000D02*
Y123000D01*
G01Y153000D02*
Y163000D01*
G01Y286672D02*
Y163000D01*
G01Y296672D02*
Y286672D01*
G01Y316672D02*
Y326672D01*
G01Y450344D02*
Y326672D01*
G01Y460344D02*
Y450344D01*
G01Y480344D02*
Y490344D01*
G01X371260Y479517D02*
Y611379D01*
X359449Y623190D01*
X-66929D01*
X-78740Y611379D01*
Y490344D01*
G01X371260Y122173D02*
Y112173D01*
G01Y122173D02*
G02X377460I3100J0D01*
G01X371260Y142173D02*
Y152173D01*
G01X377460Y142173D02*
G02X371260I-3100J0D01*
G01Y152173D02*
Y275845D01*
G01Y285845D02*
Y275845D01*
G01Y285845D02*
G02X377460I3100J0D01*
G01Y305845D02*
G02X371260I-3100J0D01*
G01D02*
Y315845D01*
G01D02*
Y439517D01*
G01Y449517D02*
G02X377460I3100J0D01*
G01X371260D02*
Y439517D01*
G01X377460Y469517D02*
G02X371260I-3100J0D01*
G01D02*
Y479517D01*
G01X377460D02*
Y623190D01*
X397460D01*
Y-31500D01*
X377460D01*
Y112173D01*
G01Y122173D02*
Y112173D01*
G01Y142173D02*
Y275845D01*
G01Y285845D02*
Y275845D01*
G01Y449517D02*
Y305845D01*
G01Y469517D02*
Y479517D01*
G54D11*
X-62229Y-6797D03*
G54D113*
X293571Y370614D03*
X291799D03*
X290028D03*
X288256D03*
X286484D03*
X284713D03*
X282941D03*
G54D122*
X340383Y309568D03*
X340471Y466800D03*
X354383Y309568D03*
X354471Y466800D03*
G54D104*
X274998Y439312D03*
G54D20*
X-54902Y30700D03*
X-57756D03*
G54D132*
G01X-596541Y-138498D02*
X-576856D01*
G01X-596541Y61502D02*
X-576856D01*
G01X-596541Y461502D02*
X-576856D01*
G01X-596541Y661502D02*
X-576856D01*
G01Y-303459D02*
X1037317D01*
G01X-576856D02*
Y826462D01*
G01X-579845Y261502D02*
G03X-573867I2989J0D01*
G03X-579845I-2989J0D01*
G01X-576856Y826462D02*
X1037317D01*
G01X-369769Y-323144D02*
Y-303459D01*
G01Y846147D02*
Y826462D01*
G01X-169769Y-323144D02*
Y-303459D01*
G01Y846147D02*
Y826462D01*
G01X30231Y-323144D02*
Y-303459D01*
G01Y846147D02*
Y826462D01*
G01X227241D02*
G03X233220I2989J0D01*
G03X227241I-2989J0D01*
G01X430231Y846147D02*
Y826462D01*
G01X630231Y-323144D02*
Y-303459D01*
G01Y846147D02*
Y826462D01*
G01X830231Y-323144D02*
Y-303459D01*
G01Y846147D02*
Y826462D01*
G01X1034328Y261502D02*
G03X1040307I2989J0D01*
G03X1034328I-2989J0D01*
G01X1037317Y-303459D02*
Y826462D01*
G01X1057002Y-138498D02*
X1037317D01*
G01X1057002Y61502D02*
X1037317D01*
G01X1057002Y461502D02*
X1037317D01*
G01X1057002Y661502D02*
X1037317D01*
G54D21*
X-48529Y116800D03*
Y121800D03*
Y127300D03*
X-46817Y183368D03*
Y187158D03*
X-46740Y193368D03*
X-59195Y309400D03*
Y305610D03*
X-57795Y352500D03*
X-61586D03*
X-61595Y357500D03*
X-57805D03*
X-57795Y362500D03*
X-61586D03*
X-61595Y367500D03*
X-57805D03*
X-61595Y372500D03*
X-57805D03*
X-41094Y6425D03*
Y2635D03*
X-36457Y6425D03*
Y2635D03*
X-44739Y116800D03*
Y121800D03*
X-36383Y116800D03*
X-40173D03*
X-36383Y121800D03*
X-40173D03*
X-44739Y127300D03*
X-36383D03*
X-40173D03*
X-37322Y149573D03*
X-41112D03*
X-37322Y154568D03*
X-41112D03*
X-42950Y193368D03*
X-35840Y217963D03*
X-39630D03*
X-41195Y233610D03*
Y245900D03*
Y242110D03*
Y237400D03*
X-22748Y11435D03*
X-26538D03*
X-26778Y6400D03*
X-22988D03*
X-20695Y234100D03*
Y237890D03*
X-28095Y359484D03*
X-24305D03*
X-24295Y365500D03*
X-28086D03*
X-6229Y133300D03*
X-10019D03*
X11671Y37700D03*
Y33910D03*
X2690Y102410D03*
X6480D03*
X16090D03*
X12300D03*
X2690Y147410D03*
X6480D03*
X2690Y152210D03*
X6480D03*
X16090Y147410D03*
X12300D03*
X16090Y152210D03*
X12300D03*
X2690Y197810D03*
X6480D03*
X2690Y202610D03*
X6480D03*
X16090Y197810D03*
X12300D03*
X16090Y202610D03*
X12300D03*
X2690Y247610D03*
X6480D03*
X16090D03*
X12300D03*
X2690Y252110D03*
X6480D03*
X16090D03*
X12300D03*
X16090Y297710D03*
X12300D03*
X3690D03*
X7480D03*
X21183Y23985D03*
X24973D03*
X24983Y19061D03*
X21192D03*
X21183Y28710D03*
X24973D03*
X16471Y33900D03*
Y37690D03*
X20490Y102510D03*
Y98720D03*
X31590Y98710D03*
Y102500D03*
X20790Y152010D03*
Y148220D03*
X31590Y147910D03*
Y151700D03*
X20790Y201810D03*
Y198020D03*
X31590Y198010D03*
Y201800D03*
X21090Y247820D03*
X31590Y248110D03*
X21090Y251610D03*
X31590Y251900D03*
X34271Y37200D03*
Y33410D03*
X37790Y102410D03*
X41580D03*
X47400D03*
X41590Y147410D03*
X37800D03*
X37790Y152210D03*
X41580D03*
X47400Y147410D03*
Y152210D03*
X41590Y197810D03*
X37800D03*
X37790Y202610D03*
X41580D03*
X47400Y197810D03*
Y202610D03*
X41590Y247610D03*
X37800D03*
X47400D03*
X37790Y252110D03*
X41580D03*
X47400D03*
Y297710D03*
X41590D03*
X37800D03*
X61090Y41510D03*
Y45300D03*
X56090Y41510D03*
Y45300D03*
X50840Y41510D03*
Y45300D03*
X51190Y102410D03*
Y147410D03*
Y152210D03*
Y197810D03*
Y202610D03*
Y247610D03*
Y252110D03*
Y297710D03*
X72240Y29969D03*
X76993Y29920D03*
X72240Y33759D03*
X76993Y33710D03*
X76090Y41510D03*
Y45300D03*
X71090Y41510D03*
Y45300D03*
X66090Y41510D03*
Y45300D03*
X77990Y53710D03*
X74200D03*
X91090Y41510D03*
Y45300D03*
X86090Y41510D03*
Y45300D03*
X81090Y41510D03*
Y45300D03*
X106090Y41510D03*
Y45300D03*
X101090Y41510D03*
Y45300D03*
X96090Y41510D03*
Y45300D03*
X101805Y313600D03*
Y317390D03*
X101674Y604073D03*
Y600283D03*
X111090Y41510D03*
Y45300D03*
X118783Y260668D03*
Y264458D03*
X123783Y260668D03*
Y264458D03*
X121705Y318500D03*
X117915D03*
X121705Y323000D03*
X117915D03*
X121705Y339500D03*
X117915D03*
X117805Y331100D03*
Y334890D03*
X131983Y105073D03*
X137983D03*
X131983Y108863D03*
X137983D03*
X133783Y264468D03*
Y260678D03*
X128783Y264468D03*
Y260678D03*
X138783Y264468D03*
Y260678D03*
X146665Y20147D03*
Y16357D03*
X156473Y48991D03*
Y53731D03*
X155683Y105073D03*
X149983D03*
X144283D03*
X155683Y108863D03*
X149983D03*
X144283D03*
X143783Y264468D03*
Y260678D03*
X153783Y260668D03*
Y264458D03*
X148783Y260668D03*
Y264458D03*
X147119Y333760D03*
X150909D03*
X147119Y329760D03*
X150909D03*
X155075Y349967D03*
Y353757D03*
X142778Y599523D03*
X146568D03*
X169871Y20790D03*
Y17000D03*
X166271Y29210D03*
Y33000D03*
X163471Y58968D03*
X159681D03*
X160263Y48991D03*
Y53731D03*
X163471Y63560D03*
X159681D03*
X172805Y105073D03*
X161383D03*
X167083D03*
X172805Y108863D03*
X161383D03*
X167083D03*
X163783Y264468D03*
Y260678D03*
X158783Y264468D03*
Y260678D03*
X168783Y260668D03*
Y264458D03*
X169130Y274670D03*
X165340D03*
X159512Y342364D03*
X163302D03*
X159472Y336841D03*
X163262D03*
X169856Y358208D03*
X170739Y365958D03*
Y362168D03*
X165953Y368860D03*
Y365070D03*
X161953Y368860D03*
Y365070D03*
X177671Y29200D03*
X182729Y29002D03*
X184871Y17200D03*
Y20990D03*
X175071Y17000D03*
Y20790D03*
X179871Y17000D03*
Y20790D03*
X177671Y32990D03*
X182729Y32792D03*
X178483Y105073D03*
X184183D03*
X178483Y108863D03*
X184183D03*
X183783Y264458D03*
Y260668D03*
X178783Y264458D03*
Y260668D03*
X173783Y260668D03*
Y264458D03*
X173683Y343596D03*
X181377Y334441D03*
Y338231D03*
X177377Y334441D03*
Y338231D03*
X183190Y343412D03*
X179400D03*
X186559Y358220D03*
X182690D03*
X173683Y347386D03*
X182690Y347412D03*
X178900D03*
X173646Y358208D03*
X182690Y353309D03*
X178900D03*
X186559Y362010D03*
X182690D03*
X186565Y369838D03*
Y366048D03*
X182565Y369838D03*
Y366048D03*
X174739Y365958D03*
Y362168D03*
X190271Y21000D03*
Y17210D03*
X204096Y29341D03*
X193871Y30010D03*
X204096Y33131D03*
X193871Y33800D03*
X200983Y105063D03*
X191600Y104807D03*
X196279Y104835D03*
X200983Y108853D03*
X191600Y108597D03*
X196279Y108625D03*
X202887Y258568D03*
X193783Y260668D03*
Y264458D03*
X188783Y260668D03*
Y264458D03*
X201176Y278500D03*
X201975Y342483D03*
X193783Y340672D03*
X198613Y331322D03*
Y335112D03*
X189346Y340672D03*
X194613Y331322D03*
Y335112D03*
X191614Y358220D03*
X193783Y344462D03*
X196120Y358220D03*
X189346Y344462D03*
X193783Y349372D03*
X197573D03*
X193783Y353872D03*
X197573D03*
X201975Y346420D03*
X197750Y372571D03*
Y368781D03*
X193751Y372571D03*
Y368781D03*
X191614Y362010D03*
X196120D03*
X200405Y363500D03*
Y359710D03*
X198582Y599054D03*
Y602844D03*
X192340D03*
Y599054D03*
X209096Y29341D03*
Y33131D03*
X206983Y105073D03*
X212983D03*
X206983Y108863D03*
X212983D03*
X217776Y193100D03*
X217771Y198500D03*
X217776Y208900D03*
X217780Y214100D03*
X217776Y203700D03*
X217776Y219300D03*
Y229700D03*
X217766Y224500D03*
X217776Y234900D03*
Y245300D03*
Y240100D03*
Y250500D03*
Y255700D03*
X206677Y258568D03*
X204966Y278500D03*
X215776D03*
X219566D03*
X205765Y342483D03*
X217655Y338939D03*
X213865D03*
X217655Y342760D03*
X213865D03*
X211805Y350657D03*
X208015D03*
X211805Y358509D03*
X208015D03*
X211805Y354657D03*
X208015D03*
X217655Y346698D03*
X213865D03*
X205765Y346420D03*
X218805Y444900D03*
Y441110D03*
X222940Y53760D03*
X226730D03*
X222940Y49250D03*
X226730D03*
X230383Y84623D03*
X234173D03*
X221887D03*
X225677D03*
X221566Y193100D03*
X221561Y198500D03*
X221566Y208900D03*
X221570Y214100D03*
X221566Y203700D03*
X221566Y219300D03*
Y229700D03*
X221556Y224500D03*
X234205Y226000D03*
X230414D03*
X221566Y234900D03*
Y245300D03*
Y240100D03*
Y250500D03*
Y255700D03*
X246800Y20147D03*
Y16357D03*
X238983Y80832D03*
Y84622D03*
X238271Y155500D03*
X242061D03*
X250571D03*
X246781D03*
X251414Y226500D03*
X240305Y436400D03*
Y432610D03*
X250305Y436400D03*
Y432610D03*
X245305Y432600D03*
Y436390D03*
X244974Y575037D03*
Y571247D03*
X266381Y155500D03*
X265681Y200600D03*
X264447Y212670D03*
X264476Y208300D03*
X264447Y216870D03*
X255205Y226500D03*
X254171Y279000D03*
X257961D03*
X264826Y434154D03*
X261036D03*
X264729Y440059D03*
X260938D03*
X280183Y31178D03*
Y34968D03*
Y58758D03*
Y54968D03*
X272566Y124900D03*
X268776D03*
X272573Y129068D03*
X268783D03*
X272573Y134768D03*
X268783D03*
X272578Y138768D03*
X268788D03*
X270171Y155500D03*
X269471Y200600D03*
X268237Y212670D03*
X268266Y208300D03*
X268237Y216870D03*
X286583Y158473D03*
Y162263D03*
X290171Y244525D03*
Y248315D03*
X292076Y236620D03*
X295866D03*
X292076Y240620D03*
X295866D03*
X290171Y255915D03*
Y252125D03*
X292076Y259820D03*
X295866D03*
X292076Y263820D03*
X295866D03*
X298260Y361932D03*
Y365722D03*
X293571Y361941D03*
Y365732D03*
X288256D03*
Y361941D03*
X290590Y396838D03*
X286800D03*
X290678Y391530D03*
X286888D03*
X290405Y422500D03*
X294195D03*
X294205Y427500D03*
X290414D03*
X290405Y432500D03*
X294195D03*
X293205Y441500D03*
X289414D03*
X293205Y446500D03*
X289414D03*
X297914Y441500D03*
X304393Y215027D03*
X308183D03*
X304393Y210027D03*
X308183D03*
X304571Y293508D03*
X308361D03*
X304571Y286028D03*
X308361D03*
X302848Y365598D03*
Y361807D03*
X301756Y370998D03*
X305546D03*
X305573Y385143D03*
X301782D03*
X305556Y380465D03*
X301765D03*
X301844Y375687D03*
X305634D03*
X301705Y441500D03*
X326292Y-6949D03*
X326293Y-2609D03*
Y11391D03*
Y26501D03*
Y16391D03*
X326316Y21500D03*
X326293Y30291D03*
Y38758D03*
Y34968D03*
X325731Y145684D03*
Y141894D03*
Y170600D03*
Y166810D03*
X328771Y211342D03*
Y215132D03*
X317660Y279590D03*
Y275800D03*
X322260D03*
Y279590D03*
X319672Y310437D03*
X323462D03*
X322171Y302010D03*
Y305800D03*
X317171D03*
Y302010D03*
X330083Y-6949D03*
X330083Y-2609D03*
X330083Y6291D03*
Y2501D03*
X330083Y11391D03*
Y16391D03*
X330107Y21500D03*
X330471Y145684D03*
Y141894D03*
X335071Y145684D03*
Y141894D03*
X333211Y166893D03*
Y170683D03*
X340000Y165719D03*
Y169510D03*
X342901Y256563D03*
X361011Y147692D03*
Y151482D03*
X355011Y170684D03*
Y166894D03*
X347531Y170684D03*
Y166894D03*
X346691Y256563D03*
X349261Y263810D03*
Y267600D03*
X356740Y390550D03*
Y394340D03*
X360347Y543723D03*
X358845Y572313D03*
X364137Y543723D03*
X362635Y572313D03*
G54D114*
X284713Y386215D03*
X286484D03*
X290028D03*
X291799D03*
G54D12*
X-62229Y10300D03*
X-56710D03*
G54D30*
X-56695Y480550D03*
X-52895Y490450D03*
X-60495D03*
X-34695Y449050D03*
X-30895Y458950D03*
X-38495D03*
X296005Y566050D03*
X303605D03*
X299805Y575950D03*
G36*
G01X268837Y434607D02*
X271557D01*
X271581Y434603D01*
X271604D01*
X271628Y434595D01*
X271652Y434591D01*
X271675Y434583D01*
X271695Y434575D01*
X271718Y434567D01*
X271738Y434556D01*
X271762Y434548D01*
X271782Y434532D01*
X271801Y434520D01*
X271817Y434504D01*
X271837Y434488D01*
X271868Y434457D01*
X271884Y434437D01*
X271900Y434422D01*
X271911Y434402D01*
X271927Y434378D01*
X271935Y434359D01*
X271947Y434339D01*
X271955Y434315D01*
X271963Y434296D01*
X271970Y434272D01*
X271974Y434248D01*
X271982Y434225D01*
Y434201D01*
X271986Y434178D01*
Y434130D01*
X271982Y434107D01*
Y434083D01*
X271974Y434059D01*
X271970Y434036D01*
X271963Y434012D01*
X271955Y433992D01*
X271947Y433969D01*
X271935Y433949D01*
X271927Y433930D01*
X271911Y433906D01*
X271900Y433886D01*
X271884Y433870D01*
X271868Y433851D01*
X271837Y433819D01*
X271817Y433803D01*
X271801Y433788D01*
X271782Y433776D01*
X271762Y433760D01*
X271738Y433752D01*
X271718Y433741D01*
X271695Y433733D01*
X271675Y433725D01*
X271652Y433717D01*
X271628Y433713D01*
X271604Y433705D01*
X271581D01*
X271557Y433701D01*
X268837D01*
Y434607D01*
G37*
G36*
G01Y440512D02*
X271557D01*
X271581Y440508D01*
X271604D01*
X271628Y440500D01*
X271652Y440496D01*
X271675Y440489D01*
X271695Y440481D01*
X271718Y440473D01*
X271738Y440461D01*
X271762Y440453D01*
X271782Y440438D01*
X271801Y440426D01*
X271817Y440410D01*
X271837Y440394D01*
X271868Y440363D01*
X271884Y440343D01*
X271900Y440327D01*
X271911Y440308D01*
X271927Y440284D01*
X271935Y440264D01*
X271947Y440244D01*
X271955Y440221D01*
X271963Y440201D01*
X271970Y440178D01*
X271974Y440154D01*
X271982Y440130D01*
Y440107D01*
X271986Y440083D01*
Y440036D01*
X271982Y440012D01*
Y439989D01*
X271974Y439965D01*
X271970Y439941D01*
X271963Y439918D01*
X271955Y439898D01*
X271947Y439874D01*
X271935Y439855D01*
X271927Y439835D01*
X271911Y439812D01*
X271900Y439792D01*
X271884Y439776D01*
X271868Y439756D01*
X271837Y439725D01*
X271817Y439709D01*
X271801Y439693D01*
X271782Y439682D01*
X271762Y439666D01*
X271738Y439658D01*
X271718Y439646D01*
X271695Y439638D01*
X271675Y439630D01*
X271652Y439622D01*
X271628Y439619D01*
X271604Y439611D01*
X271581D01*
X271557Y439607D01*
X268837D01*
Y440512D01*
G37*
G54D123*
X343342Y519276D03*
X340192D03*
X338618D03*
X341767D03*
X343342Y534828D03*
X338618D03*
X340192D03*
X341767D03*
X348066Y519276D03*
X346492D03*
X344916D03*
X346492Y534828D03*
X348066D03*
X344916D03*
G54D133*
G01X-105955Y-177076D02*
Y-256276D01*
G01D02*
X321945D01*
G01X-105955Y-236276D02*
X396645D01*
G01X-105955Y-216276D02*
X396645D01*
G01X-105955Y-196276D02*
X396645D01*
G01Y-177076D02*
X-105955D01*
G01X321945Y-256276D02*
X396645D01*
G01D02*
Y-177076D01*
G36*
G01X281592Y445473D02*
Y442752D01*
X281588Y442729D01*
Y442705D01*
X281581Y442681D01*
X281577Y442658D01*
X281569Y442634D01*
X281561Y442614D01*
X281553Y442591D01*
X281541Y442571D01*
X281533Y442552D01*
X281518Y442528D01*
X281506Y442508D01*
X281490Y442492D01*
X281474Y442473D01*
X281443Y442441D01*
X281423Y442426D01*
X281407Y442410D01*
X281388Y442398D01*
X281368Y442382D01*
X281344Y442374D01*
X281325Y442363D01*
X281301Y442355D01*
X281281Y442347D01*
X281258Y442339D01*
X281234Y442335D01*
X281211Y442327D01*
X281187D01*
X281163Y442323D01*
X281116D01*
X281092Y442327D01*
X281069D01*
X281045Y442335D01*
X281022Y442339D01*
X280998Y442347D01*
X280978Y442355D01*
X280955Y442363D01*
X280935Y442374D01*
X280915Y442382D01*
X280892Y442398D01*
X280872Y442410D01*
X280856Y442426D01*
X280837Y442441D01*
X280805Y442473D01*
X280789Y442492D01*
X280774Y442508D01*
X280762Y442528D01*
X280746Y442548D01*
X280738Y442571D01*
X280726Y442591D01*
X280718Y442614D01*
X280711Y442634D01*
X280703Y442658D01*
X280699Y442681D01*
X280691Y442705D01*
Y442729D01*
X280687Y442752D01*
Y445473D01*
X281592D01*
G37*
G36*
G01X273718D02*
Y442752D01*
X273714Y442729D01*
Y442705D01*
X273707Y442681D01*
X273703Y442658D01*
X273695Y442634D01*
X273687Y442614D01*
X273679Y442591D01*
X273667Y442571D01*
X273659Y442552D01*
X273644Y442528D01*
X273632Y442508D01*
X273616Y442492D01*
X273600Y442473D01*
X273569Y442441D01*
X273549Y442426D01*
X273533Y442410D01*
X273514Y442398D01*
X273494Y442382D01*
X273470Y442374D01*
X273451Y442363D01*
X273427Y442355D01*
X273407Y442347D01*
X273384Y442339D01*
X273360Y442335D01*
X273337Y442327D01*
X273313D01*
X273289Y442323D01*
X273242D01*
X273219Y442327D01*
X273195D01*
X273171Y442335D01*
X273148Y442339D01*
X273124Y442347D01*
X273104Y442355D01*
X273081Y442363D01*
X273061Y442374D01*
X273041Y442382D01*
X273018Y442398D01*
X272998Y442410D01*
X272982Y442426D01*
X272963Y442441D01*
X272931Y442473D01*
X272915Y442492D01*
X272900Y442508D01*
X272888Y442528D01*
X272872Y442548D01*
X272864Y442571D01*
X272852Y442591D01*
X272844Y442614D01*
X272837Y442634D01*
X272829Y442658D01*
X272825Y442681D01*
X272817Y442705D01*
Y442729D01*
X272813Y442752D01*
Y445473D01*
X273718D01*
G37*
G36*
G01X275687D02*
Y442752D01*
X275683Y442729D01*
Y442705D01*
X275675Y442681D01*
X275671Y442658D01*
X275663Y442634D01*
X275656Y442614D01*
X275648Y442591D01*
X275636Y442571D01*
X275628Y442552D01*
X275612Y442528D01*
X275600Y442508D01*
X275585Y442492D01*
X275569Y442473D01*
X275537Y442441D01*
X275518Y442426D01*
X275502Y442410D01*
X275482Y442398D01*
X275462Y442382D01*
X275439Y442374D01*
X275419Y442363D01*
X275396Y442355D01*
X275376Y442347D01*
X275352Y442339D01*
X275329Y442335D01*
X275305Y442327D01*
X275281D01*
X275258Y442323D01*
X275211D01*
X275187Y442327D01*
X275163D01*
X275140Y442335D01*
X275116Y442339D01*
X275092Y442347D01*
X275073Y442355D01*
X275049Y442363D01*
X275030Y442374D01*
X275010Y442382D01*
X274986Y442398D01*
X274966Y442410D01*
X274951Y442426D01*
X274931Y442441D01*
X274900Y442473D01*
X274884Y442492D01*
X274868Y442508D01*
X274856Y442528D01*
X274840Y442548D01*
X274833Y442571D01*
X274821Y442591D01*
X274813Y442614D01*
X274805Y442634D01*
X274797Y442658D01*
X274793Y442681D01*
X274785Y442705D01*
Y442729D01*
X274781Y442752D01*
Y445473D01*
X275687D01*
G37*
G36*
G01X277656D02*
Y442752D01*
X277652Y442729D01*
Y442705D01*
X277644Y442681D01*
X277640Y442658D01*
X277632Y442634D01*
X277624Y442614D01*
X277616Y442591D01*
X277604Y442571D01*
X277596Y442552D01*
X277581Y442528D01*
X277569Y442508D01*
X277553Y442492D01*
X277537Y442473D01*
X277506Y442441D01*
X277486Y442426D01*
X277470Y442410D01*
X277451Y442398D01*
X277431Y442382D01*
X277407Y442374D01*
X277388Y442363D01*
X277364Y442355D01*
X277344Y442347D01*
X277321Y442339D01*
X277297Y442335D01*
X277274Y442327D01*
X277250D01*
X277226Y442323D01*
X277179D01*
X277156Y442327D01*
X277132D01*
X277108Y442335D01*
X277085Y442339D01*
X277061Y442347D01*
X277041Y442355D01*
X277018Y442363D01*
X276998Y442374D01*
X276978Y442382D01*
X276955Y442398D01*
X276935Y442410D01*
X276919Y442426D01*
X276900Y442441D01*
X276868Y442473D01*
X276852Y442492D01*
X276837Y442508D01*
X276825Y442528D01*
X276809Y442548D01*
X276801Y442571D01*
X276789Y442591D01*
X276781Y442614D01*
X276774Y442634D01*
X276766Y442658D01*
X276762Y442681D01*
X276754Y442705D01*
Y442729D01*
X276750Y442752D01*
Y445473D01*
X277656D01*
G37*
G36*
G01X279624D02*
Y442752D01*
X279620Y442729D01*
Y442705D01*
X279612Y442681D01*
X279608Y442658D01*
X279600Y442634D01*
X279592Y442614D01*
X279585Y442591D01*
X279573Y442571D01*
X279565Y442552D01*
X279549Y442528D01*
X279537Y442508D01*
X279522Y442492D01*
X279506Y442473D01*
X279474Y442441D01*
X279455Y442426D01*
X279439Y442410D01*
X279419Y442398D01*
X279400Y442382D01*
X279376Y442374D01*
X279356Y442363D01*
X279333Y442355D01*
X279313Y442347D01*
X279289Y442339D01*
X279266Y442335D01*
X279242Y442327D01*
X279218D01*
X279195Y442323D01*
X279148D01*
X279124Y442327D01*
X279100D01*
X279077Y442335D01*
X279053Y442339D01*
X279030Y442347D01*
X279010Y442355D01*
X278986Y442363D01*
X278966Y442374D01*
X278947Y442382D01*
X278923Y442398D01*
X278904Y442410D01*
X278888Y442426D01*
X278868Y442441D01*
X278837Y442473D01*
X278821Y442492D01*
X278805Y442508D01*
X278793Y442528D01*
X278778Y442548D01*
X278770Y442571D01*
X278758Y442591D01*
X278750Y442614D01*
X278742Y442634D01*
X278734Y442658D01*
X278730Y442681D01*
X278722Y442705D01*
Y442729D01*
X278718Y442752D01*
Y445473D01*
X279624D01*
G37*
G54D22*
X-49104Y156674D03*
Y150375D03*
X-59340Y153524D03*
X-49104Y162973D03*
X-59340Y159823D03*
G54D115*
X285894Y380851D03*
G54D13*
X-63729Y6500D03*
X-62229D03*
G54D124*
X335566Y528627D03*
Y527052D03*
Y530202D03*
Y522328D03*
Y523902D03*
Y525477D03*
Y531776D03*
X351118Y528627D03*
Y527052D03*
Y530202D03*
Y522328D03*
Y525477D03*
Y523902D03*
Y531776D03*
G54D40*
X-37717Y207407D03*
X-15237D03*
X88979Y29271D03*
X111459D03*
G54D31*
X-48495Y533500D03*
X-33895D03*
G54D134*
G01X-596541Y-323144D02*
X1057002D01*
G01X-596541D02*
Y846147D01*
G01D02*
X1057002D01*
G01X-97280Y-246009D02*
X-100280D01*
G01Y-241176D02*
X-95530D01*
G01X-100280Y-251176D02*
Y-241176D01*
G01X-97055Y-225777D02*
X-100930D01*
G01X-96180Y-226110D02*
X-97055Y-225777D01*
G01X-95430Y-227110D02*
X-96180Y-226110D01*
G01X-95180Y-228277D02*
X-95430Y-227110D01*
G01Y-229443D02*
X-95180Y-228277D01*
G01X-95930Y-230443D02*
X-95430Y-229443D01*
G01X-96805Y-231110D02*
X-95930Y-230443D01*
G01X-100930Y-231110D02*
X-96805D01*
G01X-100930Y-221110D02*
Y-231110D01*
G01X-96180Y-222277D02*
X-96680Y-221610D01*
G01X-95930Y-223277D02*
X-96180Y-222277D01*
G01Y-224444D02*
X-95930Y-223277D01*
G01X-96555Y-225277D02*
X-96180Y-224444D01*
G01X-97055Y-225777D02*
X-96555Y-225277D01*
G01X-97955Y-211576D02*
X-100455D01*
G01X-96955Y-211076D02*
X-97955Y-211576D01*
G01X-96205Y-210410D02*
X-96955Y-211076D01*
G01X-95580Y-209409D02*
X-96205Y-210410D01*
G01X-95080Y-208243D02*
X-95580Y-209409D01*
G01X-94955Y-206576D02*
X-95080Y-208243D01*
G01X-100455Y-211576D02*
Y-201576D01*
G01X-97555Y-221110D02*
X-100930D01*
G01X-96680Y-221610D02*
X-97555Y-221110D01*
G01X-97755Y-192376D02*
X-100255D01*
G01X-96755Y-191876D02*
X-97755Y-192376D01*
G01X-96005Y-191210D02*
X-96755Y-191876D01*
G01X-95380Y-190209D02*
X-96005Y-191210D01*
G01X-100255Y-192376D02*
Y-182376D01*
G01X-97955Y-201576D02*
X-96955Y-202076D01*
G01X-100455Y-201576D02*
X-97955D01*
G01X-95080Y-204910D02*
X-94955Y-206576D01*
G01X-95580Y-203743D02*
X-95080Y-204910D01*
G01X-96205Y-202743D02*
X-95580Y-203743D01*
G01X-96955Y-202076D02*
X-96205Y-202743D01*
G01X-95380Y-184543D02*
X-94880Y-185710D01*
G01X-96005Y-183543D02*
X-95380Y-184543D01*
G01X-96755Y-182876D02*
X-96005Y-183543D01*
G01X-97755Y-182376D02*
X-96755Y-182876D01*
G01X-100255Y-182376D02*
X-97755D01*
G01X-94880Y-189043D02*
X-95380Y-190209D01*
G01X-89405Y-241176D02*
X-86405D01*
G01X-80405Y-251176D02*
X-75405D01*
G01X-80405Y-241176D02*
Y-251176D01*
G01X-89405D02*
X-86405D01*
G01X-87905Y-241176D02*
Y-251176D01*
G01X-76055Y-227610D02*
X-80055D01*
G01X-81180Y-231110D02*
X-78055Y-221110D01*
G01X-87055Y-230943D02*
X-88055Y-231110D01*
G01X-86180Y-230277D02*
X-87055Y-230943D01*
G01X-85430Y-229277D02*
X-86180Y-230277D01*
G01X-84930Y-228110D02*
X-85430Y-229277D01*
G01X-84680Y-226777D02*
X-84930Y-228110D01*
G01X-84680Y-225443D02*
Y-226777D01*
G01X-84930Y-224110D02*
X-84680Y-225443D01*
G01X-85430Y-222943D02*
X-84930Y-224110D01*
G01X-86180Y-221943D02*
X-85430Y-222943D01*
G01X-90680D02*
X-89930Y-221943D01*
G01X-91180Y-224110D02*
X-90680Y-222943D01*
G01X-91430Y-225443D02*
X-91180Y-224110D01*
G01X-91430Y-226777D02*
Y-225443D01*
G01X-91180Y-228110D02*
X-91430Y-226777D01*
G01X-90680Y-229277D02*
X-91180Y-228110D01*
G01X-89930Y-230277D02*
X-90680Y-229277D01*
G01X-89055Y-230943D02*
X-89930Y-230277D01*
G01X-88055Y-231110D02*
X-89055Y-230943D01*
G01X-79330Y-211076D02*
X-78205Y-211576D01*
G01X-80330Y-210243D02*
X-79330Y-211076D01*
G01X-90205Y-211576D02*
Y-201576D01*
G01X-85205Y-211576D02*
X-90205D01*
G01X-87055Y-221277D02*
X-86180Y-221943D01*
G01X-88055Y-221110D02*
X-87055Y-221277D01*
G01X-89055D02*
X-88055Y-221110D01*
G01X-89930Y-221943D02*
X-89055Y-221277D01*
G01X-87505Y-182376D02*
X-84380Y-192376D01*
G01X-90630D02*
X-87505Y-182376D01*
G01X-90205Y-201576D02*
X-85205D01*
G01X-79580Y-202909D02*
X-78955Y-202076D01*
G01X-79830Y-204076D02*
X-79580Y-202909D01*
G01X-79455Y-205243D02*
X-79830Y-204076D01*
G01X-78580Y-205909D02*
X-79455Y-205243D01*
G01X-87205Y-206409D02*
X-90205D01*
G01X-80380Y-182376D02*
X-74630D01*
G01X-85505Y-188876D02*
X-89505D01*
G01X-94880Y-185710D02*
X-94755Y-187376D01*
G01D02*
X-94880Y-189043D01*
G01X-67905Y-249509D02*
X-64655Y-241176D01*
G01X-71155D02*
X-67905Y-249509D01*
G01X-64655Y-241176D02*
Y-251176D01*
G01X-71155D02*
Y-241176D01*
G01X-67430Y-226277D02*
X-65555Y-231110D01*
G01X-67430Y-226277D02*
X-70555D01*
G01X-66555Y-225777D02*
X-67430Y-226277D01*
G01X-65805Y-224943D02*
X-66555Y-225777D01*
G01X-65555Y-223610D02*
X-65805Y-224943D01*
G01Y-222277D02*
X-65555Y-223610D01*
G01X-66430Y-221610D02*
X-65805Y-222277D01*
G01X-70555Y-231110D02*
Y-221110D01*
G01X-78055D02*
X-74930Y-231110D01*
G01X-69205Y-211576D02*
X-66205D01*
G01X-67705Y-201576D02*
Y-211576D01*
G01X-75955Y-206909D02*
X-77080Y-206243D01*
G01X-75330Y-207910D02*
X-75955Y-206909D01*
G01X-75080Y-209076D02*
X-75330Y-207910D01*
G01X-75455Y-210243D02*
X-75080Y-209076D01*
G01X-76205Y-211076D02*
X-75455Y-210243D01*
G01X-77205Y-211576D02*
X-76205Y-211076D01*
G01X-78205Y-211576D02*
X-77205D01*
G01X-67430Y-221110D02*
X-66430Y-221610D01*
G01X-70555Y-221110D02*
X-67430D01*
G01X-70005Y-192376D02*
Y-182376D01*
G01X-65005Y-192376D02*
X-70005D01*
G01X-77505Y-182376D02*
Y-192376D01*
G01X-69205Y-201576D02*
X-66205D01*
G01X-77205D02*
X-76330Y-201909D01*
G01X-78080Y-201576D02*
X-77205D01*
G01X-76330Y-201909D02*
X-75580Y-202743D01*
G01X-77080Y-206243D02*
X-78580Y-205909D01*
G01X-78955Y-202076D02*
X-78080Y-201576D01*
G01X-70005Y-182376D02*
X-65005D01*
G01X-67005Y-187209D02*
X-70005D01*
G01X-50405Y-251176D02*
X-45405D01*
G01X-50405Y-241176D02*
Y-251176D01*
G01X-58305Y-231110D02*
X-60805D01*
G01X-57305Y-230610D02*
X-58305Y-231110D01*
G01X-56555Y-229944D02*
X-57305Y-230610D01*
G01X-55930Y-228943D02*
X-56555Y-229944D01*
G01X-55430Y-227777D02*
X-55930Y-228943D01*
G01X-55305Y-226110D02*
X-55430Y-227777D01*
G01Y-224444D02*
X-55305Y-226110D01*
G01X-55930Y-223277D02*
X-55430Y-224444D01*
G01X-56555Y-222277D02*
X-55930Y-223277D01*
G01X-57305Y-221610D02*
X-56555Y-222277D01*
G01X-60805Y-231110D02*
Y-221110D01*
G01X-50580Y-211576D02*
Y-201576D01*
G01X-60955Y-207076D02*
Y-205909D01*
G01X-60705Y-208409D02*
X-60955Y-207076D01*
G01X-60205Y-209576D02*
X-60705Y-208409D01*
G01X-59455Y-210576D02*
X-60205Y-209576D01*
G01X-58580Y-211243D02*
X-59455Y-210576D01*
G01X-57330Y-211576D02*
X-58580Y-211243D01*
G01X-56080D02*
X-57330Y-211576D01*
G01X-55205Y-210576D02*
X-56080Y-211243D01*
G01X-54455Y-209576D02*
X-55205Y-210576D01*
G01X-54455Y-206576D02*
Y-209576D01*
G01X-56955Y-206576D02*
X-54455D01*
G01X-58305Y-221110D02*
X-57305Y-221610D01*
G01X-60805Y-221110D02*
X-58305D01*
G01X-46669Y-184379D02*
X-47469Y-184645D01*
X-48069Y-185312D01*
X-48469Y-186112D01*
X-48769Y-187179D01*
X-48869Y-188379D01*
X-48769Y-189579D01*
X-48469Y-190645D01*
X-48069Y-191446D01*
X-47469Y-192112D01*
X-46669Y-192379D01*
X-45869Y-192112D01*
X-45269Y-191446D01*
X-44869Y-190645D01*
X-44569Y-189579D01*
X-44469Y-188379D01*
X-44569Y-187179D01*
X-44869Y-186112D01*
X-45269Y-185312D01*
X-45869Y-184645D01*
X-46669Y-184379D01*
G01X-37469Y-192379D02*
Y-184379D01*
X-41169Y-190112D01*
X-36169D01*
G01X-32669Y-190779D02*
X-32169Y-191579D01*
X-31569Y-192112D01*
X-30869Y-192379D01*
X-30069Y-192112D01*
X-29469Y-191579D01*
X-28869Y-190779D01*
X-28669Y-189712D01*
Y-184379D01*
G01X-24869D02*
Y-190112D01*
X-24469Y-191312D01*
X-23669Y-192112D01*
X-22669Y-192379D01*
X-21669Y-192112D01*
X-20869Y-191312D01*
X-20469Y-190112D01*
Y-184379D01*
G01X-16669D02*
Y-192379D01*
X-12669D01*
G01X-6669D02*
Y-188779D01*
X-8669Y-184379D01*
G01X-4669D02*
X-6669Y-188779D01*
G01X-569Y-185712D02*
X31Y-184912D01*
X731Y-184512D01*
X1531Y-184379D01*
X2531Y-184645D01*
X3231Y-185312D01*
X3431Y-186112D01*
X3331Y-186912D01*
X2931Y-187579D01*
X931Y-188912D01*
X31Y-189845D01*
X-569Y-191179D01*
X-769Y-192379D01*
X3431D01*
G01X9331Y-184379D02*
X8531Y-184645D01*
X7931Y-185312D01*
X7531Y-186112D01*
X7231Y-187179D01*
X7131Y-188379D01*
X7231Y-189579D01*
X7531Y-190645D01*
X7931Y-191446D01*
X8531Y-192112D01*
X9331Y-192379D01*
X10131Y-192112D01*
X10731Y-191446D01*
X11131Y-190645D01*
X11431Y-189579D01*
X11531Y-188379D01*
X11431Y-187179D01*
X11131Y-186112D01*
X10731Y-185312D01*
X10131Y-184645D01*
X9331Y-184379D01*
G01X-57255Y-192543D02*
X-57505Y-192709D01*
G01X-57255Y-192209D02*
Y-192543D01*
G01X-57505Y-192043D02*
X-57255Y-192209D01*
G01X-57755D02*
X-57505Y-192043D01*
G01X-57755Y-192543D02*
Y-192209D01*
G01X-57505Y-192709D02*
X-57755Y-192543D01*
G01X-56830Y-201576D02*
X-55830Y-201909D01*
G01X-57705Y-201576D02*
X-56830D01*
G01X-58705Y-202076D02*
X-57705Y-201576D01*
G01X-50580D02*
X-44830Y-211576D01*
G01X-55830Y-201909D02*
X-55080Y-202576D01*
G01X-59455Y-202743D02*
X-58705Y-202076D01*
G01X-60205Y-203743D02*
X-59455Y-202743D01*
G01X-60705Y-204910D02*
X-60205Y-203743D01*
G01X-60955Y-205909D02*
X-60705Y-204910D01*
G01X-57255Y-188043D02*
X-57505Y-188210D01*
G01X-57255Y-187709D02*
Y-188043D01*
G01X-57505Y-187543D02*
X-57255Y-187709D01*
G01X-57755D02*
X-57505Y-187543D01*
G01X-57755Y-188043D02*
Y-187709D01*
G01X-57505Y-188210D02*
X-57755Y-188043D01*
G01X-35905Y-247676D02*
X-39905D01*
G01X-37905Y-241176D02*
X-34780Y-251176D01*
G01X-41030D02*
X-37905Y-241176D01*
G01X-35180Y-231110D02*
Y-221110D01*
G01X-40930D02*
X-35180Y-231110D01*
G01X-40930D02*
Y-221110D01*
G01X-40205Y-211576D02*
Y-201576D01*
G01X-35205Y-211576D02*
X-40205D01*
G01X-44830D02*
Y-201576D01*
G01X-40205D02*
X-35205D01*
G01X-37205Y-206409D02*
X-40205D01*
G01X-17405Y-246009D02*
X-20405D01*
G01Y-241176D02*
X-15405D01*
G01X-25405D02*
X-27905Y-246676D01*
G01D02*
X-30405Y-241176D01*
G01X-20405Y-251176D02*
Y-241176D01*
G01X-15405Y-251176D02*
X-20405D01*
G01X-27905D02*
Y-246676D01*
G01X-18055Y-229443D02*
X-14805Y-221110D01*
G01X-21305D02*
X-18055Y-229443D01*
G01X-21305Y-231110D02*
Y-221110D01*
G01X-26055Y-227610D02*
X-30055D01*
G01X-28055Y-221110D02*
X-24930Y-231110D01*
G01X-31180D02*
X-28055Y-221110D01*
G01X-26955Y-211076D02*
X-27955Y-211576D01*
G01X-26205Y-210410D02*
X-26955Y-211076D01*
G01X-25580Y-209409D02*
X-26205Y-210410D01*
G01X-25080Y-208243D02*
X-25580Y-209409D01*
G01X-24955Y-206576D02*
X-25080Y-208243D01*
G01Y-204910D02*
X-24955Y-206576D01*
G01X-27955Y-211576D02*
X-30455D01*
G01D02*
Y-201576D01*
G01X-27955D02*
X-26955Y-202076D01*
G01X-25580Y-203743D02*
X-25080Y-204910D01*
G01X-26205Y-202743D02*
X-25580Y-203743D01*
G01X-26955Y-202076D02*
X-26205Y-202743D01*
G01X-30455Y-201576D02*
X-27955D01*
G01X-7280Y-246343D02*
X-10405D01*
G01X-6405Y-245843D02*
X-7280Y-246343D01*
G01X-5655Y-245009D02*
X-6405Y-245843D01*
G01X-5405Y-243676D02*
X-5655Y-245009D01*
G01Y-242343D02*
X-5405Y-243676D01*
G01X-6280Y-241676D02*
X-5655Y-242343D01*
G01X-7280Y-241176D02*
X-6280Y-241676D01*
G01X-10405Y-241176D02*
X-7280D01*
G01Y-246343D02*
X-5405Y-251176D01*
G01X-10405D02*
Y-241176D01*
G01X-7555Y-225943D02*
X-10555D01*
G01Y-231110D02*
Y-221110D01*
G01X-5555Y-231110D02*
X-10555D01*
G01X-14805Y-221110D02*
Y-231110D01*
G01X-5705Y-208076D02*
X-9705D01*
G01X-7705Y-201576D02*
X-4580Y-211576D01*
G01X-10830D02*
X-7705Y-201576D01*
G01X-10555Y-221110D02*
X-5555D01*
G01X2345Y-246843D02*
X2095Y-247010D01*
G01X2345Y-246509D02*
Y-246843D01*
G01X2095Y-246343D02*
X2345Y-246509D01*
G01X1845D02*
X2095Y-246343D01*
G01X1845Y-246843D02*
Y-246509D01*
G01X2095Y-247010D02*
X1845Y-246843D01*
G01X2345Y-251343D02*
X2095Y-251509D01*
G01X2345Y-251009D02*
Y-251343D01*
G01X2095Y-250843D02*
X2345Y-251009D01*
G01X1845D02*
X2095Y-250843D01*
G01X1845Y-251343D02*
Y-251009D01*
G01X2095Y-251509D02*
X1845Y-251343D01*
G01X2195Y-226777D02*
X1945Y-226944D01*
G01X2195Y-226443D02*
Y-226777D01*
G01X1945Y-226277D02*
X2195Y-226443D01*
G01Y-231277D02*
X1945Y-231443D01*
G01X2195Y-230943D02*
Y-231277D01*
G01X1945Y-230777D02*
X2195Y-230943D01*
G01X1695Y-226443D02*
X1945Y-226277D01*
G01X1695Y-226777D02*
Y-226443D01*
G01X1945Y-226944D02*
X1695Y-226777D01*
G01Y-230943D02*
X1945Y-230777D01*
G01X1695Y-231277D02*
Y-230943D01*
G01X1945Y-231443D02*
X1695Y-231277D01*
G01X12545Y-207243D02*
X12295Y-207410D01*
G01X12545Y-206909D02*
Y-207243D01*
G01X12295Y-206743D02*
X12545Y-206909D01*
G01X12045D02*
X12295Y-206743D01*
G01X12045Y-207243D02*
Y-206909D01*
G01X12295Y-207410D02*
X12045Y-207243D01*
G01X12545Y-211743D02*
X12295Y-211909D01*
G01X12545Y-211409D02*
Y-211743D01*
G01X12295Y-211243D02*
X12545Y-211409D01*
G01X12045D02*
X12295Y-211243D01*
G01X12045Y-211743D02*
Y-211409D01*
G01X12295Y-211909D02*
X12045Y-211743D01*
G01X2295Y-201576D02*
Y-211576D01*
G01X-580Y-201576D02*
X5170D01*
G01X45945Y-177497D02*
Y-255656D01*
G01X115805Y-220833D02*
Y-230833D01*
G01X114055Y-224167D02*
X117555D01*
G01X125805Y-230833D02*
X125055Y-230667D01*
X124305Y-230000D01*
X123805Y-228834D01*
X123555Y-227500D01*
X123805Y-226167D01*
X124305Y-225000D01*
X125055Y-224334D01*
X125805Y-224167D01*
X126555Y-224334D01*
X127305Y-225000D01*
X127805Y-226167D01*
X127930Y-227500D01*
X127805Y-228834D01*
X127305Y-230000D01*
X126555Y-230667D01*
X125805Y-230833D01*
G01X132680Y-224167D02*
X134180Y-230833D01*
X135805Y-224167D01*
X137430Y-230833D01*
X138930Y-224167D01*
G01X143930Y-226333D02*
X147930D01*
X147555Y-225167D01*
X146930Y-224500D01*
X146055Y-224167D01*
X145180Y-224334D01*
X144430Y-224834D01*
X143930Y-226000D01*
X143680Y-227000D01*
Y-228000D01*
X143930Y-229000D01*
X144555Y-230000D01*
X145305Y-230667D01*
X146180Y-230833D01*
X147055Y-230500D01*
X147930Y-229500D01*
G01X154055Y-230833D02*
Y-224167D01*
G01Y-225500D02*
X154680Y-224834D01*
X155305Y-224334D01*
X156180Y-224167D01*
X156805Y-224334D01*
X157555Y-224834D01*
G01X162930Y-230833D02*
Y-220833D01*
X168680Y-230833D01*
Y-220833D01*
G01X175805Y-230833D02*
X175055Y-230667D01*
X174305Y-230000D01*
X173805Y-228834D01*
X173555Y-227500D01*
X173805Y-226167D01*
X174305Y-225000D01*
X175055Y-224334D01*
X175805Y-224167D01*
X176555Y-224334D01*
X177305Y-225000D01*
X177805Y-226167D01*
X177930Y-227500D01*
X177805Y-228834D01*
X177305Y-230000D01*
X176555Y-230667D01*
X175805Y-230833D01*
G01X188055Y-220833D02*
Y-230833D01*
G01Y-229334D02*
X187555Y-230167D01*
X186805Y-230667D01*
X185930Y-230833D01*
X184930Y-230500D01*
X184180Y-229667D01*
X183680Y-228667D01*
X183555Y-227500D01*
X183680Y-226333D01*
X184180Y-225333D01*
X184930Y-224500D01*
X185930Y-224167D01*
X186805Y-224334D01*
X187430Y-224667D01*
X188055Y-225333D01*
G01X193930Y-226333D02*
X197930D01*
X197555Y-225167D01*
X196930Y-224500D01*
X196055Y-224167D01*
X195180Y-224334D01*
X194430Y-224834D01*
X193930Y-226000D01*
X193680Y-227000D01*
Y-228000D01*
X193930Y-229000D01*
X194555Y-230000D01*
X195305Y-230667D01*
X196180Y-230833D01*
X197055Y-230500D01*
X197930Y-229500D01*
G01X204180Y-227500D02*
X207430D01*
G01X213930Y-226333D02*
X217930D01*
X217555Y-225167D01*
X216930Y-224500D01*
X216055Y-224167D01*
X215180Y-224334D01*
X214430Y-224834D01*
X213930Y-226000D01*
X213680Y-227000D01*
Y-228000D01*
X213930Y-229000D01*
X214555Y-230000D01*
X215305Y-230667D01*
X216180Y-230833D01*
X217055Y-230500D01*
X217930Y-229500D01*
G01X222930Y-230833D02*
Y-220833D01*
X228680Y-230833D01*
Y-220833D01*
G01X236805Y-225500D02*
X237305Y-225000D01*
X237680Y-224167D01*
X237930Y-223000D01*
X237680Y-222000D01*
X237180Y-221334D01*
X236305Y-220833D01*
X232930D01*
Y-230833D01*
X237055D01*
X237930Y-230167D01*
X238430Y-229167D01*
X238680Y-228000D01*
X238430Y-226834D01*
X237680Y-225834D01*
X236805Y-225500D01*
X232930D01*
G01X244180Y-227500D02*
X247430D01*
G01X253555Y-224167D02*
X255805Y-230833D01*
X258055Y-224167D01*
G01X263430Y-222500D02*
X264180Y-221500D01*
X265055Y-221000D01*
X266055Y-220833D01*
X267305Y-221167D01*
X268180Y-222000D01*
X268430Y-223000D01*
X268305Y-224000D01*
X267805Y-224834D01*
X265305Y-226500D01*
X264180Y-227667D01*
X263430Y-229334D01*
X263180Y-230833D01*
X268430D01*
G01X275805Y-231167D02*
X275555Y-231000D01*
Y-230667D01*
X275805Y-230500D01*
X276055Y-230667D01*
Y-231000D01*
X275805Y-231167D01*
G01X285805Y-220833D02*
X284805Y-221167D01*
X284055Y-222000D01*
X283555Y-223000D01*
X283180Y-224334D01*
X283055Y-225834D01*
X283180Y-227334D01*
X283555Y-228667D01*
X284055Y-229667D01*
X284805Y-230500D01*
X285805Y-230833D01*
X286805Y-230500D01*
X287555Y-229667D01*
X288055Y-228667D01*
X288430Y-227334D01*
X288555Y-225834D01*
X288430Y-224334D01*
X288055Y-223000D01*
X287555Y-222000D01*
X286805Y-221167D01*
X285805Y-220833D01*
G01X294180Y-227500D02*
X297430D01*
G01X303305Y-230833D02*
Y-220833D01*
X306430D01*
X307430Y-221334D01*
X308055Y-222000D01*
X308305Y-223334D01*
X308055Y-224667D01*
X307305Y-225500D01*
X306430Y-226000D01*
X303305D01*
G01X306430D02*
X308305Y-230833D01*
G01X313930Y-226333D02*
X317930D01*
X317555Y-225167D01*
X316930Y-224500D01*
X316055Y-224167D01*
X315180Y-224334D01*
X314430Y-224834D01*
X313930Y-226000D01*
X313680Y-227000D01*
Y-228000D01*
X313930Y-229000D01*
X314555Y-230000D01*
X315305Y-230667D01*
X316180Y-230833D01*
X317055Y-230500D01*
X317930Y-229500D01*
G01X323555Y-224167D02*
X325805Y-230833D01*
X328055Y-224167D01*
G01X332680Y-230833D02*
X335805Y-220833D01*
X338930Y-230833D01*
G01X337805Y-227334D02*
X333805D01*
G01X114555Y-202500D02*
Y-209667D01*
X115055Y-211167D01*
X116055Y-212167D01*
X117305Y-212500D01*
X118555Y-212167D01*
X119555Y-211167D01*
X120055Y-209667D01*
Y-202500D01*
G01X125180Y-212500D02*
Y-202500D01*
G01X129180Y-205834D02*
X125180Y-209667D01*
G01X126805Y-208167D02*
X129430Y-212500D01*
G01X139555D02*
Y-205834D01*
G01Y-207000D02*
X139055Y-206333D01*
X138305Y-206000D01*
X137430Y-205834D01*
X136555Y-206167D01*
X135805Y-206833D01*
X135305Y-207833D01*
X135055Y-209167D01*
X135305Y-210500D01*
X135805Y-211500D01*
X136555Y-212167D01*
X137430Y-212500D01*
X138305Y-212333D01*
X139055Y-211834D01*
X139555Y-211167D01*
G01X143555Y-212500D02*
Y-205834D01*
G01Y-207667D02*
X143930Y-206833D01*
X144555Y-206167D01*
X145430Y-205834D01*
X146305Y-206167D01*
X146930Y-206833D01*
X147305Y-207667D01*
Y-212500D01*
G01Y-207667D02*
X147680Y-206833D01*
X148305Y-206167D01*
X149180Y-205834D01*
X150055Y-206167D01*
X150680Y-206833D01*
X151055Y-207833D01*
Y-212500D01*
G01X159555D02*
Y-205834D01*
G01Y-207000D02*
X159055Y-206333D01*
X158305Y-206000D01*
X157430Y-205834D01*
X156555Y-206167D01*
X155805Y-206833D01*
X155305Y-207833D01*
X155055Y-209167D01*
X155305Y-210500D01*
X155805Y-211500D01*
X156555Y-212167D01*
X157430Y-212500D01*
X158305Y-212333D01*
X159055Y-211834D01*
X159555Y-211167D01*
G01X124220Y-191710D02*
X127345Y-181710D01*
G01X114845Y-191710D02*
Y-181710D01*
G01X119845Y-184710D02*
X119595Y-186043D01*
G01Y-183377D02*
X119845Y-184710D01*
G01X118845Y-182210D02*
X119595Y-183377D01*
G01X117845Y-181710D02*
X118845Y-182210D01*
G01X114845Y-181710D02*
X117845D01*
G01Y-187544D02*
X114845D01*
G01X118970Y-187043D02*
X117845Y-187544D01*
G01X119595Y-186043D02*
X118970Y-187043D01*
G01X129035Y-250675D02*
Y-240675D01*
X132035D01*
X133035Y-241175D01*
X133785Y-242341D01*
X134035Y-243675D01*
X133785Y-245008D01*
X133160Y-246008D01*
X132035Y-246508D01*
X129035D01*
G01X138410Y-250675D02*
X141535Y-240675D01*
X144660Y-250675D01*
G01X143535Y-247175D02*
X139535D01*
G01X148910Y-249342D02*
X149910Y-250175D01*
X151035Y-250675D01*
X152035D01*
X153035Y-250175D01*
X153785Y-249342D01*
X154160Y-248175D01*
X153910Y-247008D01*
X153285Y-246008D01*
X152160Y-245341D01*
X150660Y-245008D01*
X149785Y-244342D01*
X149410Y-243175D01*
X149660Y-242008D01*
X150285Y-241175D01*
X151160Y-240675D01*
X152035D01*
X152910Y-241008D01*
X153660Y-241842D01*
G01X161535Y-240675D02*
Y-250675D01*
G01X158660Y-240675D02*
X164410D01*
G01X174035Y-250675D02*
X169035D01*
Y-240675D01*
X174035D01*
G01X172035Y-245508D02*
X169035D01*
G01X178285Y-250675D02*
Y-240675D01*
X181535Y-249008D01*
X184785Y-240675D01*
Y-250675D01*
G01X188410D02*
X191535Y-240675D01*
X194660Y-250675D01*
G01X193535Y-247175D02*
X189535D01*
G01X198910Y-249342D02*
X199910Y-250175D01*
X201035Y-250675D01*
X202035D01*
X203035Y-250175D01*
X203785Y-249342D01*
X204160Y-248175D01*
X203910Y-247008D01*
X203285Y-246008D01*
X202160Y-245341D01*
X200660Y-245008D01*
X199785Y-244342D01*
X199410Y-243175D01*
X199660Y-242008D01*
X200285Y-241175D01*
X201160Y-240675D01*
X202035D01*
X202910Y-241008D01*
X203660Y-241842D01*
G01X208785Y-250675D02*
Y-240675D01*
G01X213535D02*
X208785Y-246842D01*
G01X214285Y-250675D02*
X210910Y-244008D01*
G01X217785Y-254008D02*
X225285D01*
G01X231535Y-240675D02*
Y-250675D01*
G01X228660Y-240675D02*
X234410D01*
G01X241535Y-250675D02*
X240535Y-250508D01*
X239660Y-249842D01*
X238910Y-248842D01*
X238410Y-247675D01*
X238160Y-246342D01*
Y-245008D01*
X238410Y-243675D01*
X238910Y-242508D01*
X239660Y-241508D01*
X240535Y-240841D01*
X241535Y-240675D01*
X242535Y-240841D01*
X243410Y-241508D01*
X244160Y-242508D01*
X244660Y-243675D01*
X244910Y-245008D01*
Y-246342D01*
X244660Y-247675D01*
X244160Y-248842D01*
X243410Y-249842D01*
X242535Y-250508D01*
X241535Y-250675D01*
G01X249035D02*
Y-240675D01*
X252035D01*
X253035Y-241175D01*
X253785Y-242341D01*
X254035Y-243675D01*
X253785Y-245008D01*
X253160Y-246008D01*
X252035Y-246508D01*
X249035D01*
G01X137970Y-186877D02*
X139845Y-191710D01*
G01X134845D02*
Y-181710D01*
G01X127345D02*
X130470Y-191710D01*
G01X139595Y-185543D02*
X138845Y-186377D01*
G01X139845Y-184210D02*
X139595Y-185543D01*
G01Y-182877D02*
X139845Y-184210D01*
G01X138970Y-182210D02*
X139595Y-182877D01*
G01X137970Y-181710D02*
X138970Y-182210D01*
G01X134845Y-181710D02*
X137970D01*
G01Y-186877D02*
X134845D01*
G01X138845Y-186377D02*
X137970Y-186877D01*
G01X129345Y-188210D02*
X125345D01*
G01X147345Y-181710D02*
Y-191710D01*
G01X144470Y-181710D02*
X150220D01*
G01X170220Y-191710D02*
Y-181710D01*
G01X164470D02*
X170220Y-191710D01*
G01X164470D02*
Y-181710D01*
G01X184095Y-191710D02*
Y-181710D01*
G01X178595Y-191377D02*
X179595Y-190377D01*
G01X177345Y-191710D02*
X178595Y-191377D01*
G01X176095D02*
X177345Y-191710D01*
G01X175095Y-190377D02*
X176095Y-191377D01*
G01X187345Y-190043D02*
X190595Y-181710D01*
G01X184095D02*
X187345Y-190043D01*
G01X180095Y-188877D02*
Y-181710D01*
G01X179595Y-190377D02*
X180095Y-188877D01*
G01X174595D02*
X175095Y-190377D01*
G01X174595Y-181710D02*
Y-188877D01*
G01X199470Y-191043D02*
X199970Y-190043D01*
G01X198595Y-191710D02*
X199470Y-191043D01*
G01X194470Y-191710D02*
X198595D01*
G01X194470Y-181710D02*
Y-191710D01*
G01X190595Y-181710D02*
Y-191710D01*
G01X198720Y-182210D02*
X197845Y-181710D01*
G01X199220Y-182877D02*
X198720Y-182210D01*
G01X199470Y-183877D02*
X199220Y-182877D01*
G01Y-185044D02*
X199470Y-183877D01*
G01X198845Y-185877D02*
X199220Y-185044D01*
G01X198345Y-186377D02*
X198845Y-185877D01*
G01X199220Y-186710D02*
X198345Y-186377D01*
G01X199970Y-187710D02*
X199220Y-186710D01*
G01X200220Y-188877D02*
X199970Y-187710D01*
G01Y-190043D02*
X200220Y-188877D01*
G01X198345Y-186377D02*
X194470D01*
G01X197845Y-181710D02*
X194470D01*
G01X214845Y-191710D02*
Y-181710D01*
G01X204845Y-191710D02*
Y-181710D01*
G01X209845Y-191710D02*
X204845D01*
G01X217970Y-181710D02*
X218970Y-182210D01*
G01X214845Y-181710D02*
X217970D01*
G01Y-186877D02*
X219845Y-191710D01*
G01X217970Y-186877D02*
X214845D01*
G01X218845Y-186377D02*
X217970Y-186877D01*
G01X204845Y-181710D02*
X209845D01*
G01X207845Y-186543D02*
X204845D01*
G01X227595Y-191877D02*
X227345Y-192043D01*
G01X227595Y-191543D02*
Y-191877D01*
G01X227345Y-191377D02*
X227595Y-191543D01*
G01X227095D02*
X227345Y-191377D01*
G01X227095Y-191877D02*
Y-191543D01*
G01X227345Y-192043D02*
X227095Y-191877D01*
G01X227595Y-187377D02*
X227345Y-187544D01*
G01X227595Y-187043D02*
Y-187377D01*
G01X227345Y-186877D02*
X227595Y-187043D01*
G01X219595Y-185543D02*
X218845Y-186377D01*
G01X219845Y-184210D02*
X219595Y-185543D01*
G01Y-182877D02*
X219845Y-184210D01*
G01X218970Y-182210D02*
X219595Y-182877D01*
G01X227095Y-187043D02*
X227345Y-186877D01*
G01X227095Y-187377D02*
Y-187043D01*
G01X227345Y-187544D02*
X227095Y-187377D01*
G01X249220Y-185044D02*
X245470Y-191710D01*
G01Y-185044D02*
X249220Y-191710D01*
G01X239220Y-185044D02*
X235470Y-191710D01*
G01Y-185044D02*
X239220Y-191710D01*
G01X269220Y-185044D02*
X265470Y-191710D01*
G01X259220Y-185044D02*
X255470Y-191710D01*
G01Y-185044D02*
X259220Y-191710D01*
G01X265470Y-185044D02*
X269220Y-191710D01*
G01X275470Y-185044D02*
X279220Y-191710D01*
G01Y-185044D02*
X275470Y-191710D01*
G01X526709Y-303120D02*
X1036945D01*
G01X526709Y-137766D02*
Y-303120D01*
G01X527727Y-247002D02*
X725660D01*
G01X527727Y-137946D02*
Y-247002D01*
G01X526709Y-248002D02*
X1036945D01*
G01X527727Y-231253D02*
X725660D01*
G01X527727Y-212356D02*
X725660D01*
G01X527727Y-193458D02*
X725660D01*
G01X527727Y-174561D02*
X725660D01*
G01X527727Y-155663D02*
X725660D01*
G01X527727Y-137946D02*
X725660D01*
G01X526709Y-137766D02*
X1036945D01*
G01X551152Y-137946D02*
Y-247002D01*
G01X651152Y-137946D02*
Y-247002D01*
G01X690522Y-137946D02*
Y-247002D01*
G01X725660Y-137946D02*
Y-247002D01*
G01X726709Y-137766D02*
Y-248002D01*
G01Y-165325D02*
X1036945D01*
G01X826709Y-137766D02*
Y-303120D01*
G01Y-275561D02*
X1036945D01*
G01X826709Y-220443D02*
X1036945D01*
G01X926709Y-248002D02*
Y-303120D01*
G01Y-137766D02*
Y-165325D01*
G01X1005449Y-275561D02*
Y-303120D01*
G01X1036945Y-137766D02*
Y-303120D01*
G01X1057002Y-323144D02*
Y846147D01*
G54D116*
X291504Y382868D03*
G54D107*
X288418Y34968D03*
Y44968D03*
Y54968D03*
X317947Y34968D03*
Y44968D03*
Y54968D03*
G54D14*
X-63195Y309370D03*
Y305630D03*
X-53059Y6560D03*
Y10300D03*
X-62229Y18120D03*
Y14380D03*
Y22230D03*
Y25970D03*
X-59929Y38000D03*
Y41740D03*
X-47159Y32270D03*
X-50899D03*
X-50059Y52590D03*
X-53799D03*
Y47700D03*
X-50059D03*
X-54104Y61455D03*
X-50364D03*
X-54104Y65180D03*
X-50364D03*
X-52599Y83060D03*
X-48859D03*
Y78730D03*
X-52599D03*
X-56695Y288630D03*
Y292370D03*
X-61695Y288630D03*
Y292370D03*
X-54695Y309370D03*
Y305630D03*
X-49325Y375500D03*
X-53065D03*
X-34256Y14178D03*
X-38353Y14228D03*
X-42093D03*
X-34132Y19007D03*
X-38251Y18975D03*
X-41991D03*
X-30515Y14178D03*
X-30392Y19007D03*
X-22695Y225370D03*
Y221630D03*
X-28065Y370000D03*
X-24325D03*
X-10482Y-19927D03*
X-6741D03*
X8901Y58000D03*
X12641D03*
X8901Y53290D03*
X12641D03*
X9001Y72900D03*
X12741D03*
X9001Y63300D03*
X12741D03*
X9001Y68100D03*
X12741D03*
X9001Y78730D03*
X12741D03*
X17301Y53290D03*
X21041D03*
X17501Y58000D03*
X21241D03*
X99887Y578282D03*
X103627D03*
X103629Y563390D03*
X99888D03*
Y573218D03*
X103629D03*
X111460Y572930D03*
Y576670D03*
X138060Y390130D03*
Y393870D03*
X153376Y391807D03*
Y395547D03*
X167760Y389930D03*
Y393670D03*
X183760Y268830D03*
Y272570D03*
X185001Y395300D03*
X188741D03*
X217787Y358509D03*
X221527D03*
X229260Y558630D03*
Y562370D03*
X220298Y564443D03*
Y568184D03*
X246442Y590309D03*
X242702D03*
X246628Y594896D03*
X242888D03*
X266073Y278900D03*
X262333D03*
X325435Y124398D03*
X329175D03*
X325435Y129101D03*
X329175D03*
X325435Y133500D03*
X329175D03*
X341175Y115500D03*
X337435D03*
X345435D03*
X338290Y151482D03*
X342030D03*
X342030Y159881D03*
Y156141D03*
X344675Y440500D03*
X340935D03*
X345235Y453600D03*
X337260Y507630D03*
Y511370D03*
X342260Y507630D03*
Y511370D03*
X334585Y545675D03*
X344399D03*
X334585Y549415D03*
X344399D03*
X345248Y578491D03*
X340522Y578457D03*
X335553Y578503D03*
X345248Y582231D03*
X340522Y582197D03*
X335553Y582243D03*
X357675Y124000D03*
X353935D03*
X353934Y115645D03*
X357675D03*
Y119848D03*
X353934D03*
X349175Y115500D03*
X357675Y128500D03*
X353934D03*
X357675Y133000D03*
X353934D03*
X356723Y398917D03*
Y402658D03*
X359671Y436230D03*
X359471Y431570D03*
Y427830D03*
X359671Y439970D03*
X359805Y448370D03*
Y444630D03*
X348935Y440500D03*
X352675D03*
X348975Y453600D03*
X357241Y498874D03*
X357375Y507200D03*
X353635D03*
X357241Y502614D03*
X360390Y526500D03*
Y531500D03*
X360435Y520500D03*
X357946Y558513D03*
X357956Y563266D03*
X366559Y498813D03*
Y502553D03*
X364130Y526500D03*
Y531500D03*
X364175Y520500D03*
X361686Y558513D03*
X361696Y563266D03*
G54D41*
X-34640Y223463D03*
X-40840D03*
X-35295Y262000D03*
Y267500D03*
Y273000D03*
X-29095Y262000D03*
Y267500D03*
Y273000D03*
X70408Y20886D03*
X76608D03*
X105205Y330000D03*
X111405D03*
X157271Y82500D03*
X163471D03*
X167086Y349039D03*
X160886D03*
X292405Y403000D03*
X286205D03*
X292405Y409000D03*
X286205D03*
X299205D03*
X305405D03*
X309205Y465000D03*
Y476000D03*
Y470500D03*
X315405Y465000D03*
Y476000D03*
Y470500D03*
G54D32*
X-46695Y564700D03*
Y556200D03*
X28305Y558700D03*
Y567200D03*
G54D125*
X344418Y557919D03*
X342450D03*
X340481D03*
X338513D03*
X336544D03*
X334576D03*
Y572879D03*
X336544D03*
X338513D03*
X340481D03*
X342450D03*
X344418D03*
G54D23*
X-54222Y142304D03*
Y171044D03*
G54D50*
X-26395Y516000D03*
X-13995D03*
G36*
G01X285569Y433701D02*
X282848D01*
X282825Y433705D01*
X282801D01*
X282778Y433713D01*
X282754Y433717D01*
X282730Y433725D01*
X282710Y433733D01*
X282687Y433741D01*
X282667Y433752D01*
X282644Y433760D01*
X282624Y433776D01*
X282604Y433788D01*
X282588Y433803D01*
X282569Y433819D01*
X282537Y433851D01*
X282522Y433870D01*
X282506Y433886D01*
X282494Y433906D01*
X282478Y433930D01*
X282470Y433949D01*
X282459Y433969D01*
X282451Y433992D01*
X282443Y434012D01*
X282435Y434036D01*
X282431Y434059D01*
X282423Y434083D01*
Y434107D01*
X282419Y434130D01*
Y434178D01*
X282423Y434201D01*
Y434225D01*
X282431Y434248D01*
X282435Y434272D01*
X282443Y434296D01*
X282451Y434315D01*
X282459Y434339D01*
X282470Y434359D01*
X282478Y434378D01*
X282494Y434402D01*
X282506Y434422D01*
X282522Y434437D01*
X282537Y434457D01*
X282569Y434488D01*
X282588Y434504D01*
X282604Y434520D01*
X282624Y434532D01*
X282648Y434548D01*
X282667Y434556D01*
X282687Y434567D01*
X282710Y434575D01*
X282730Y434583D01*
X282754Y434591D01*
X282778Y434595D01*
X282801Y434603D01*
X282825D01*
X282848Y434607D01*
X285569D01*
Y433701D01*
G37*
G36*
G01Y439607D02*
X282848D01*
X282825Y439611D01*
X282801D01*
X282778Y439619D01*
X282754Y439622D01*
X282730Y439630D01*
X282710Y439638D01*
X282687Y439646D01*
X282667Y439658D01*
X282644Y439666D01*
X282624Y439682D01*
X282604Y439693D01*
X282588Y439709D01*
X282569Y439725D01*
X282537Y439756D01*
X282522Y439776D01*
X282506Y439792D01*
X282494Y439812D01*
X282478Y439835D01*
X282470Y439855D01*
X282459Y439874D01*
X282451Y439898D01*
X282443Y439918D01*
X282435Y439941D01*
X282431Y439965D01*
X282423Y439989D01*
Y440012D01*
X282419Y440036D01*
Y440083D01*
X282423Y440107D01*
Y440130D01*
X282431Y440154D01*
X282435Y440178D01*
X282443Y440201D01*
X282451Y440221D01*
X282459Y440244D01*
X282470Y440264D01*
X282478Y440284D01*
X282494Y440308D01*
X282506Y440327D01*
X282522Y440343D01*
X282537Y440363D01*
X282569Y440394D01*
X282588Y440410D01*
X282604Y440426D01*
X282624Y440438D01*
X282648Y440453D01*
X282667Y440461D01*
X282687Y440473D01*
X282710Y440481D01*
X282730Y440489D01*
X282754Y440496D01*
X282778Y440500D01*
X282801Y440508D01*
X282825D01*
X282848Y440512D01*
X285569D01*
Y439607D01*
G37*
G54D33*
X-59195Y561100D03*
X-59095Y573900D03*
X-59195Y594900D03*
X-59295Y582100D03*
X-24695Y527600D03*
X-15695D03*
X-24595Y540400D03*
X-15595D03*
G54D60*
X32333Y12868D03*
X43933D03*
Y20868D03*
Y16868D03*
Y14868D03*
X32333Y20868D03*
Y14868D03*
X43933Y18868D03*
X32333Y16868D03*
Y18868D03*
X336105Y121563D03*
Y123532D03*
Y125500D03*
Y127468D03*
Y129437D03*
X347505Y123532D03*
Y121563D03*
Y127468D03*
Y125500D03*
Y129437D03*
G54D15*
X-59213Y390447D03*
X-34213D03*
G54D42*
X-35857Y245953D03*
Y243984D03*
Y242016D03*
Y240047D03*
X-28534D03*
Y242016D03*
Y243984D03*
Y245953D03*
G54D126*
X332017Y562446D03*
Y560478D03*
Y564415D03*
Y568352D03*
Y570320D03*
Y566383D03*
X346977Y562446D03*
Y560478D03*
Y564415D03*
Y570320D03*
Y568352D03*
Y566383D03*
G54D108*
X285688Y121778D03*
X287655D03*
X289625D03*
X285688Y119810D03*
X287655D03*
X289625D03*
X291592D03*
X293562D03*
X295530D03*
X297499D03*
X285688Y117841D03*
X287655D03*
X289625D03*
X291592D03*
X293562D03*
X295530D03*
X297499D03*
X285688Y115873D03*
X287655D03*
X289625D03*
X291592D03*
X293562D03*
X295530D03*
X297499D03*
X285688Y137526D03*
X287655D03*
X289625D03*
X291592D03*
X293562D03*
X295530D03*
X297499D03*
X285688Y135558D03*
X287655D03*
X289625D03*
X291592D03*
X285688Y133589D03*
X287655D03*
X289625D03*
X293562D03*
X295530D03*
X297499D03*
X285688Y131621D03*
X287655D03*
X289625D03*
X293562D03*
X285688Y129652D03*
X287655D03*
X289625D03*
X293562D03*
X285688Y127684D03*
X287655D03*
X289625D03*
X293562D03*
X285688Y125715D03*
X287655D03*
X289625D03*
X293562D03*
X285688Y123747D03*
X287655D03*
X289625D03*
X293562D03*
X295530D03*
X297499D03*
X285688Y141463D03*
X287655D03*
X289625D03*
X291592D03*
X293562D03*
X295530D03*
X297499D03*
X285688Y139495D03*
X287655D03*
X289625D03*
X291592D03*
X293562D03*
X295530D03*
X297499D03*
X307340Y121778D03*
X309310D03*
X311278D03*
X299466Y119810D03*
X301436D03*
X303404D03*
X305373D03*
X307340D03*
X309310D03*
X311278D03*
X299466Y117841D03*
X301436D03*
X303404D03*
X305373D03*
X307340D03*
X309310D03*
X311278D03*
X299466Y115873D03*
X301436D03*
X303404D03*
X305373D03*
X307340D03*
X309310D03*
X311278D03*
X299466Y137526D03*
X301436D03*
X303404D03*
X305373D03*
X307340D03*
X309310D03*
X311278D03*
X307340Y135558D03*
X309310D03*
X311278D03*
X299466Y133589D03*
X301436D03*
X303404D03*
X307340D03*
X309310D03*
X311278D03*
X303404Y131621D03*
X307340D03*
X309310D03*
X311278D03*
X303404Y129652D03*
X307340D03*
X309310D03*
X311278D03*
X303404Y127684D03*
X307340D03*
X309310D03*
X311278D03*
X303404Y125715D03*
X307340D03*
X309310D03*
X311278D03*
X299466Y123747D03*
X301436D03*
X303404D03*
X307340D03*
X309310D03*
X311278D03*
X299466Y141463D03*
X301436D03*
X303404D03*
X305373D03*
X307340D03*
X309310D03*
X311278D03*
X299466Y139495D03*
X301436D03*
X303404D03*
X305373D03*
X307340D03*
X309310D03*
X311278D03*
G54D51*
X-8254Y274169D03*
Y296649D03*
G54D24*
X-33420Y293190D03*
Y603190D03*
X-23920Y183500D03*
X0Y0D03*
X304330D03*
X307500Y183500D03*
X326579Y343340D03*
Y603190D03*
G54D34*
X-43425Y-17368D03*
Y-19927D03*
Y-14809D03*
Y-9690D03*
Y-12250D03*
Y-7132D03*
Y-4572D03*
X-21377Y-17368D03*
Y-19927D03*
Y-4572D03*
Y-7132D03*
Y-9690D03*
Y-14809D03*
Y-12250D03*
G54D127*
X339497Y565399D03*
G54D109*
X284654Y374364D03*
G54D16*
X-69492Y471000D03*
X-57288D03*
X352121Y582739D03*
X364325D03*
G54D43*
X-41695Y471000D03*
X-31695D03*
Y505000D03*
X-41695D03*
G54D118*
X306208Y391593D03*
X302272D03*
X360292Y537500D03*
X364228D03*
G54D70*
X107763Y568249D03*
X99889D03*
G54D25*
X-46932Y330500D03*
X-26459D03*
G54D61*
X38133Y16868D03*
G54D52*
X-6095Y398000D03*
Y410400D03*
G54D119*
X329471Y152269D03*
X325731D03*
Y160931D03*
X329471D03*
X333211Y152269D03*
Y160931D03*
G54D128*
X353928Y-20099D03*
X350197D03*
X346452D03*
X346454Y-9500D03*
X350195Y-9481D03*
X353934D03*
G54D35*
X-41969Y27940D03*
Y40930D03*
Y32270D03*
Y45260D03*
Y36600D03*
Y57079D03*
Y61409D03*
Y65740D03*
Y74400D03*
Y70070D03*
Y83060D03*
Y78730D03*
X2511Y27940D03*
Y45260D03*
Y40930D03*
Y36600D03*
Y32270D03*
Y57079D03*
Y61409D03*
Y74400D03*
Y65740D03*
Y70070D03*
Y78730D03*
Y83060D03*
G54D53*
X-6195Y418450D03*
Y430750D03*
G54D62*
X78305Y355600D03*
Y370400D03*
X208305Y460100D03*
Y474900D03*
G54D44*
X-34945Y516000D03*
X-43445D03*
X-38445Y570500D03*
X-29945D03*
X273055Y581000D03*
X281555D03*
X273055Y571000D03*
X281555D03*
G54D26*
X-53038Y357547D03*
Y355579D03*
Y353610D03*
Y367390D03*
Y365421D03*
Y363453D03*
Y361484D03*
Y359516D03*
X-35353Y353610D03*
Y355579D03*
Y357547D03*
Y359516D03*
Y361484D03*
Y363453D03*
Y365421D03*
Y367390D03*
G54D80*
X154105Y286129D03*
X148199D03*
X156073D03*
X152136D03*
X150168D03*
X146231D03*
X152136Y310933D03*
X156073D03*
X154105D03*
X150168D03*
X148199D03*
X146231D03*
X171821Y286129D03*
X165916D03*
X160010D03*
X169853D03*
X167884D03*
X163947D03*
X161979D03*
X158042D03*
Y310933D03*
X169853D03*
X163947D03*
X161979D03*
X160010D03*
X171821D03*
X167884D03*
X165916D03*
X183632Y286129D03*
X177727D03*
X181664D03*
X179695D03*
X175758D03*
X173790D03*
X187569D03*
X185601D03*
X187569Y310933D03*
X181664D03*
X175758D03*
X185601D03*
X183632D03*
X179695D03*
X177727D03*
X173790D03*
X199380Y286129D03*
X193475D03*
X203317D03*
X201349D03*
X197412D03*
X195443D03*
X191506D03*
X189538D03*
X199380Y310933D03*
X193475D03*
X197412D03*
X195443D03*
X191506D03*
X189538D03*
X203317D03*
X201349D03*
X217097Y286129D03*
X211191D03*
X205286D03*
X219065D03*
X215128D03*
X213160D03*
X209223D03*
X207254D03*
X205286Y310933D03*
X219065D03*
X217097D03*
X215128D03*
X213160D03*
X211191D03*
X209223D03*
X207254D03*
X230876Y286129D03*
X224971D03*
X221034D03*
X234813D03*
X232845D03*
X228908D03*
X226939D03*
X223002D03*
X232805Y310933D03*
X226900D03*
X221034D03*
X234774D03*
X230837D03*
X228869D03*
X224931D03*
X223002D03*
X246585Y286129D03*
X236782D03*
X250522D03*
X248554D03*
X244617D03*
X242687D03*
X240719D03*
X238750D03*
X250522Y310933D03*
X238711D03*
X236743D03*
X242648D03*
X240679D03*
X248554D03*
X246585D03*
X244617D03*
X262333Y286129D03*
X260365D03*
X258396D03*
X256428D03*
X254459D03*
X252491D03*
X262333Y310933D03*
X256428D03*
X260365D03*
X258396D03*
X254459D03*
X252491D03*
G54D71*
X108533Y591794D03*
X125541D03*
X203796D03*
X220804D03*
G54D17*
X-59195Y527898D03*
Y540102D03*
X9805Y527398D03*
Y539602D03*
X34805Y527398D03*
X22305D03*
X34805Y539602D03*
X22305D03*
G54D36*
X-32058Y103368D03*
X-37176D03*
Y94706D03*
X-32058D03*
X-34617D03*
X-19200Y103368D03*
X-24318D03*
Y94706D03*
X-19200D03*
X-21759D03*
X-6658Y103368D03*
X-11776D03*
X-6658Y94706D03*
X-9217D03*
X-11776D03*
G54D72*
X103627Y583450D03*
X100871D03*
G54D129*
X355011Y150694D03*
X351271D03*
X347531D03*
Y160930D03*
X351271D03*
X355011D03*
G54D45*
X-40845Y579000D03*
X-28545D03*
G54D63*
X70305Y560150D03*
X75305D03*
Y579850D03*
X70305D03*
X80305Y560150D03*
X85305D03*
Y579850D03*
X80305D03*
G54D81*
X147877Y354778D03*
Y346904D03*
X171877Y324904D03*
Y332778D03*
X237060Y568163D03*
Y576037D03*
G54D18*
X-48129Y4300D03*
Y10300D03*
G54D27*
X-51085Y351658D03*
X-49117D03*
Y369343D03*
X-51085D03*
X-47148Y351658D03*
X-45180D03*
X-43211D03*
X-41243D03*
X-39274D03*
X-37306D03*
Y369343D03*
X-39274D03*
X-41243D03*
X-43211D03*
X-45180D03*
X-47148D03*
G54D54*
X-1745Y550850D03*
Y575450D03*
G54D90*
X224143Y435953D03*
Y433984D03*
Y432016D03*
Y430047D03*
X231466D03*
Y432016D03*
Y433984D03*
Y435953D03*
G54D46*
X-22938Y141891D03*
X-20378D03*
X-28056D03*
X-25497D03*
X-22938Y157245D03*
X-25497D03*
X-20378D03*
X-28056D03*
G54D91*
X261371Y135395D03*
Y125947D03*
X254679D03*
Y135395D03*
X261371Y150895D03*
Y141447D03*
X254679D03*
Y150895D03*
G54D73*
X108536Y606829D03*
Y604073D03*
X125541Y606827D03*
Y604071D03*
X203796Y607688D03*
Y604932D03*
X220804Y607688D03*
Y604932D03*
G54D64*
X78360Y601785D03*
Y613989D03*
G54D55*
X1205Y588150D03*
Y595450D03*
Y602750D03*
X30305Y595450D03*
Y588150D03*
Y602750D03*
G54D82*
X155777Y361341D03*
X148977D03*
X210056Y332190D03*
X216856D03*
X210056Y368862D03*
X216856D03*
G54D37*
X-28829Y121800D03*
Y116800D03*
Y111800D03*
Y126800D03*
X-6229Y116800D03*
Y121800D03*
Y111800D03*
Y126800D03*
G54D19*
X-57606Y29130D03*
X-55052D03*
X-57606Y32270D03*
X-55052D03*
G54D28*
X-44195Y360500D03*
G54D92*
X261371Y132246D03*
Y129096D03*
X254679D03*
Y132246D03*
X261371Y147746D03*
Y144596D03*
X254679D03*
Y147746D03*
G54D47*
X-24217Y149568D03*
G54D38*
X-31895Y150848D03*
Y153407D03*
Y148288D03*
Y145729D03*
X-16540D03*
Y148288D03*
Y150848D03*
Y153407D03*
G54D56*
X4868Y112312D03*
X11167D03*
X8018D03*
X14317D03*
Y115461D03*
X4868D03*
X8018D03*
X11167D03*
X4868Y118611D03*
X14317D03*
X8018D03*
X11167D03*
Y137508D03*
X4868D03*
X8018D03*
X14317D03*
X4868Y134359D03*
X8018Y131209D03*
Y134359D03*
X11167D03*
X14317D03*
X11167Y131209D03*
X4868D03*
X14317D03*
X4868Y162312D03*
X11167D03*
X8018D03*
X14317D03*
Y165461D03*
X4868D03*
X8018D03*
X11167D03*
X4868Y168611D03*
X14317D03*
X8018D03*
X11167D03*
X4868Y184359D03*
X8018Y181209D03*
Y184359D03*
X11167D03*
X14317D03*
X11167Y181209D03*
X4868D03*
X14317D03*
X11167Y187508D03*
X4868D03*
X8018D03*
X14317D03*
X4868Y212312D03*
X11167D03*
X8018D03*
X14317D03*
Y215461D03*
X4868D03*
X8018D03*
X11167D03*
X8018Y231209D03*
X11167D03*
X4868Y218611D03*
Y231209D03*
X14317Y218611D03*
X8018D03*
X11167D03*
X14317Y231209D03*
X11167Y237508D03*
X4868D03*
X8018D03*
X14317D03*
X4868Y234359D03*
X8018D03*
X11167D03*
X14317D03*
X8018Y262312D03*
X14317D03*
X4868D03*
X11167D03*
X4868Y265461D03*
Y268611D03*
X8018Y265461D03*
Y268611D03*
X11167Y265461D03*
Y268611D03*
X14317Y265461D03*
Y268611D03*
X11167Y287508D03*
X4868Y281209D03*
Y284359D03*
Y287508D03*
X8018Y281209D03*
Y284359D03*
Y287508D03*
X11167Y281209D03*
Y284359D03*
X14317Y281209D03*
Y284359D03*
Y287508D03*
X20616Y115461D03*
X17466Y112312D03*
X26915Y115461D03*
X17466D03*
X30064Y112312D03*
X23766Y115461D03*
X20616Y112312D03*
X26915D03*
X30064Y118611D03*
Y115461D03*
X23766Y112312D03*
Y118611D03*
X26915D03*
X17466D03*
X20616D03*
Y131209D03*
X17466Y137508D03*
X26915Y134359D03*
X30064Y137508D03*
Y134359D03*
X23766D03*
X26915Y131209D03*
X23766Y137508D03*
X20616D03*
X26915D03*
X30064Y131209D03*
X20616Y134359D03*
X23766Y131209D03*
X17466D03*
Y134359D03*
X20616Y165461D03*
X17466Y162312D03*
X26915Y165461D03*
X17466D03*
X30064Y162312D03*
X23766Y165461D03*
X20616Y162312D03*
X26915D03*
X30064Y168611D03*
Y165461D03*
X23766Y162312D03*
Y168611D03*
X26915D03*
X17466D03*
X20616D03*
Y181209D03*
X26915Y184359D03*
X30064D03*
X23766D03*
X26915Y181209D03*
X30064D03*
X20616Y184359D03*
X23766Y181209D03*
X17466D03*
Y184359D03*
Y187508D03*
X30064D03*
X23766D03*
X20616D03*
X26915D03*
X20616Y215461D03*
X17466Y212312D03*
X26915Y215461D03*
X17466D03*
X30064Y212312D03*
X23766Y215461D03*
X20616Y212312D03*
X26915D03*
X30064Y215461D03*
X23766Y212312D03*
X20616Y231209D03*
X26915D03*
X30064Y218611D03*
Y231209D03*
X23766Y218611D03*
X26915D03*
X23766Y231209D03*
X17466D03*
Y218611D03*
X20616D03*
X17466Y237508D03*
X26915Y234359D03*
X30064Y237508D03*
Y234359D03*
X23766D03*
Y237508D03*
X20616D03*
X26915D03*
X20616Y234359D03*
X17466D03*
X20616Y262312D03*
X17466D03*
X23766D03*
X26915D03*
X30064D03*
X17466Y265461D03*
Y268611D03*
X20616Y265461D03*
Y268611D03*
X23766Y265461D03*
Y268611D03*
X26915Y265461D03*
Y268611D03*
X30064Y265461D03*
Y268611D03*
X17466Y287508D03*
X23766D03*
X17466Y281209D03*
Y284359D03*
X20616Y281209D03*
Y284359D03*
Y287508D03*
X23766Y281209D03*
Y284359D03*
X26915Y281209D03*
Y284359D03*
Y287508D03*
X30064Y281209D03*
Y284359D03*
Y287508D03*
X33214Y112312D03*
X36364D03*
X39514Y115461D03*
X42662D03*
X33214D03*
X39514Y112312D03*
X45812D03*
X33214Y118611D03*
X42662Y112312D03*
X45812Y115461D03*
X42662Y118611D03*
X45812D03*
X36364Y115461D03*
Y118611D03*
X39514D03*
X33214Y137508D03*
X39514Y134359D03*
X42662Y137508D03*
X39514D03*
X36364D03*
X42662Y134359D03*
X45812Y137508D03*
Y134359D03*
Y131209D03*
X33214D03*
X36364D03*
X33214Y134359D03*
X36364D03*
X39514Y131209D03*
X42662D03*
X33214Y162312D03*
X36364D03*
X39514Y165461D03*
X42662D03*
X33214D03*
X39514Y162312D03*
X45812D03*
X33214Y168611D03*
X42662Y162312D03*
X45812Y165461D03*
X42662Y168611D03*
X45812D03*
X36364Y165461D03*
Y168611D03*
X39514D03*
Y184359D03*
X42662D03*
X45812D03*
Y181209D03*
X33214D03*
X36364D03*
X33214Y184359D03*
X36364D03*
X39514Y181209D03*
X42662D03*
X33214Y187508D03*
X42662D03*
X39514D03*
X36364D03*
X45812D03*
X33214Y212312D03*
X36364D03*
X39514Y215461D03*
X42662D03*
X33214D03*
X39514Y212312D03*
X45812D03*
X42662D03*
X45812Y215461D03*
X36364D03*
X33214Y218611D03*
X45812Y231209D03*
X42662Y218611D03*
X45812D03*
X33214Y231209D03*
X36364D03*
Y218611D03*
X39514Y231209D03*
X42662D03*
X39514Y218611D03*
X33214Y237508D03*
X39514Y234359D03*
X42662Y237508D03*
X39514D03*
X36364D03*
X42662Y234359D03*
X45812Y237508D03*
Y234359D03*
X33214D03*
X36364D03*
X33214Y262312D03*
X36364D03*
X39514D03*
X42662D03*
X45812D03*
X33214Y265461D03*
Y268611D03*
X36364Y265461D03*
Y268611D03*
X39514Y265461D03*
Y268611D03*
X42662Y265461D03*
Y268611D03*
X45812Y265461D03*
Y268611D03*
X33214Y281209D03*
Y284359D03*
Y287508D03*
X36364Y281209D03*
Y284359D03*
Y287508D03*
X39514Y281209D03*
Y284359D03*
Y287508D03*
X42662Y281209D03*
Y284359D03*
Y287508D03*
X45812Y281209D03*
Y284359D03*
Y287508D03*
X48962Y112312D03*
X52112D03*
Y115461D03*
X48962D03*
X52112Y118611D03*
X48962D03*
Y137508D03*
Y131209D03*
X52112Y137508D03*
X48962Y134359D03*
X52112Y131209D03*
Y134359D03*
X48962Y162312D03*
X52112D03*
Y165461D03*
X48962D03*
X52112Y168611D03*
X48962D03*
Y181209D03*
Y184359D03*
X52112Y181209D03*
Y184359D03*
X48962Y187508D03*
X52112D03*
X48962Y212312D03*
X52112D03*
Y215461D03*
X48962D03*
Y231209D03*
X52112D03*
Y218611D03*
X48962D03*
Y237508D03*
X52112D03*
X48962Y234359D03*
X52112D03*
X48962Y262312D03*
X52112D03*
X48962Y265461D03*
Y268611D03*
X52112Y265461D03*
Y268611D03*
X48962Y281209D03*
Y284359D03*
Y287508D03*
X52112Y281209D03*
Y284359D03*
Y287508D03*
X76338Y62929D03*
X63740D03*
X70039D03*
X76338Y66078D03*
X66890Y62929D03*
X73189D03*
Y66078D03*
X63740D03*
X66890D03*
X70039D03*
X76338Y69228D03*
X63740D03*
X73189D03*
X66890D03*
X70039D03*
Y88125D03*
X76338D03*
X63740D03*
X66890D03*
X73189D03*
X63740Y84976D03*
X76338Y81826D03*
Y84976D03*
X66890Y81826D03*
Y84976D03*
X70039D03*
X73189D03*
X70039Y81826D03*
X63740D03*
X73189D03*
X79488Y66078D03*
X92086Y62929D03*
X85787Y66078D03*
X92086D03*
X88937Y62929D03*
X82638Y66078D03*
X92086Y69228D03*
X79488Y62929D03*
X85787D03*
X88937Y69228D03*
Y66078D03*
X82638Y62929D03*
Y69228D03*
X85787D03*
X79488D03*
Y81826D03*
X92086Y88125D03*
X85787Y84976D03*
X88937Y88125D03*
Y84976D03*
X82638D03*
X85787Y81826D03*
X82638Y88125D03*
X79488D03*
X85787D03*
X92086Y81826D03*
Y84976D03*
X88937Y81826D03*
X79488Y84976D03*
X82638Y81826D03*
X95236Y62929D03*
X98386Y66078D03*
X101535D03*
X107834Y62929D03*
X98386D03*
X104685D03*
X101535D03*
X107834Y66078D03*
X104685D03*
X101535Y69228D03*
X107834D03*
X104685D03*
X95236Y66078D03*
Y69228D03*
X98386D03*
Y84976D03*
X101535Y88125D03*
X107834D03*
X98386D03*
X107834Y81826D03*
X95236Y88125D03*
X101535Y84976D03*
X104685Y88125D03*
X107834Y84976D03*
X104685D03*
Y81826D03*
X95236D03*
Y84976D03*
X98386Y81826D03*
X101535D03*
X110984Y62929D03*
Y66078D03*
Y69228D03*
Y88125D03*
Y81826D03*
Y84976D03*
G54D65*
X92577Y134297D03*
X88640Y130360D03*
X84703Y126423D03*
X92577Y138234D03*
X84703Y130360D03*
X88640Y126423D03*
Y138234D03*
X84703D03*
X88640Y134297D03*
X84703D03*
X92577Y126423D03*
Y130360D03*
Y146108D03*
X84703D03*
X88640D03*
X92577Y150045D03*
X84703D03*
X88640D03*
X92577Y142171D03*
X84703D03*
X88640D03*
X92577Y153982D03*
X84703D03*
X88640D03*
X92577Y157919D03*
Y165793D03*
X88640Y169730D03*
X84703Y157919D03*
X88640D03*
X92577Y161856D03*
X84703D03*
X88640D03*
X84703Y165793D03*
X92577Y169730D03*
X88640Y165793D03*
X84703Y169730D03*
X92577Y185479D03*
Y173667D03*
X88640D03*
X84703Y177604D03*
Y173667D03*
Y185479D03*
X88640D03*
X84703Y181541D03*
X88640Y177604D03*
X92577D03*
X88640Y181541D03*
X92577D03*
Y197290D03*
Y189416D03*
Y193353D03*
X84703D03*
X88640D03*
X84703Y197290D03*
X88640D03*
X84703Y189416D03*
X88640D03*
X92577Y201227D03*
X88640D03*
X84703D03*
X92577Y209101D03*
X88640Y205164D03*
X84703D03*
X92577Y216975D03*
X84703D03*
X88640D03*
Y213038D03*
X92577D03*
Y205164D03*
X84703Y213038D03*
Y209101D03*
X88640D03*
X92577Y232723D03*
Y228786D03*
Y220912D03*
X88640D03*
X84703D03*
Y228786D03*
X88640D03*
X84703Y232723D03*
X88640D03*
X92577Y224849D03*
X84703D03*
X88640D03*
Y236660D03*
X84703Y240597D03*
Y236660D03*
X88640Y240597D03*
X92577Y236660D03*
Y240597D03*
X104388Y138234D03*
X96514D03*
X104388Y134297D03*
X96514D03*
X104388Y126423D03*
Y130360D03*
X108325D03*
Y126423D03*
X96514Y130360D03*
Y126423D03*
X100451Y134297D03*
Y138234D03*
Y130360D03*
Y126423D03*
X108325Y138234D03*
Y134297D03*
Y142171D03*
X104388Y153982D03*
Y146108D03*
X100451Y150045D03*
Y142171D03*
X96514Y146108D03*
X108325D03*
X104388Y150045D03*
Y142171D03*
X100451Y153982D03*
Y146108D03*
X96514Y150045D03*
Y142171D03*
Y153982D03*
X104388Y169730D03*
Y161856D03*
X100451Y165793D03*
Y157919D03*
X96514D03*
X104388Y165793D03*
Y157919D03*
X100451Y169730D03*
Y161856D03*
X96514D03*
Y165793D03*
Y169730D03*
X104388Y185479D03*
Y177604D03*
X100451Y181541D03*
Y173667D03*
X96514Y185479D03*
Y173667D03*
X104388Y181541D03*
Y173667D03*
X100451Y185479D03*
Y177604D03*
X96514Y181541D03*
Y177604D03*
X104388Y197290D03*
Y189416D03*
X100451Y201227D03*
Y193353D03*
X96514Y197290D03*
X104388Y201227D03*
Y193353D03*
X100451Y197290D03*
Y189416D03*
X96514Y193353D03*
Y189416D03*
Y201227D03*
X104388Y213038D03*
Y205164D03*
X100451Y216975D03*
Y209101D03*
X96514D03*
X104388Y216975D03*
Y209101D03*
X100451Y213038D03*
Y205164D03*
X96514Y216975D03*
Y213038D03*
Y205164D03*
X104388Y228786D03*
Y220912D03*
X100451Y224849D03*
X96514Y228786D03*
Y220912D03*
X108325Y224849D03*
Y220912D03*
X104388Y232723D03*
Y224849D03*
X100451Y220912D03*
X96514Y232723D03*
X108325Y228786D03*
Y232723D03*
X100451Y228786D03*
Y232723D03*
X96514Y224849D03*
X104388Y240597D03*
Y236660D03*
X108325D03*
Y240597D03*
X100451Y236660D03*
Y240597D03*
X96514Y236660D03*
Y240597D03*
X116199Y138234D03*
Y134297D03*
X124073Y138234D03*
Y134297D03*
Y130360D03*
X116199Y126423D03*
Y130360D03*
X112262Y138234D03*
Y134297D03*
Y130360D03*
Y126423D03*
X120136Y138234D03*
Y134297D03*
Y130360D03*
Y126423D03*
X124073D03*
X120136Y146108D03*
X116199Y142171D03*
X112262Y146108D03*
X124073D03*
X120136Y142171D03*
X116199Y146108D03*
X112262Y142171D03*
X124073D03*
Y169730D03*
Y161856D03*
X120136Y165793D03*
Y157919D03*
X116199Y169730D03*
Y161856D03*
X120136Y169730D03*
Y161856D03*
X116199Y165793D03*
X124073D03*
Y157919D03*
X116199D03*
X124073Y177604D03*
X120136Y181541D03*
Y173667D03*
X116199Y185479D03*
Y181541D03*
Y177604D03*
X120136D03*
X116199Y173667D03*
X124073Y185479D03*
Y181541D03*
Y173667D03*
X120136Y185479D03*
X124073Y201227D03*
Y193353D03*
X120136Y197290D03*
Y189416D03*
X116199Y201227D03*
Y193353D03*
Y197290D03*
Y189416D03*
X124073Y197290D03*
Y189416D03*
X120136Y201227D03*
Y193353D03*
X124073Y209101D03*
X120136Y205164D03*
X116199Y209101D03*
Y205164D03*
X124073D03*
X120136Y209101D03*
X124073Y224849D03*
Y228786D03*
Y232723D03*
X120136Y220912D03*
X116199Y228786D03*
Y224849D03*
X112262Y220912D03*
X124073D03*
X120136Y224849D03*
X116199Y232723D03*
Y220912D03*
X112262Y224849D03*
X120136Y228786D03*
Y232723D03*
X112262Y228786D03*
Y232723D03*
X124073Y236660D03*
Y240597D03*
X116199D03*
Y236660D03*
X120136D03*
Y240597D03*
X112262Y236660D03*
Y240597D03*
X135884Y130360D03*
Y126423D03*
X128010Y138234D03*
Y134297D03*
Y130360D03*
Y126423D03*
X131947Y134297D03*
Y130360D03*
Y126423D03*
X135884Y138234D03*
Y134297D03*
X139821Y138234D03*
Y134297D03*
X131947Y138234D03*
X139821Y130360D03*
Y126423D03*
Y146108D03*
X131947D03*
X128010D03*
X135884D03*
X128010Y142171D03*
X135884D03*
X131947D03*
X139821D03*
Y169730D03*
Y161856D03*
Y157919D03*
X135884Y165793D03*
Y157919D03*
X131947Y169730D03*
Y161856D03*
X128010Y165793D03*
Y157919D03*
X139821Y165793D03*
X135884Y169730D03*
Y161856D03*
X131947Y165793D03*
Y157919D03*
X128010Y169730D03*
Y161856D03*
X139821Y185479D03*
Y177604D03*
X135884Y181541D03*
Y173667D03*
X131947Y185479D03*
Y177604D03*
X128010Y181541D03*
Y173667D03*
X139821D03*
Y181541D03*
X135884Y185479D03*
Y177604D03*
X131947Y181541D03*
Y173667D03*
X128010Y185479D03*
Y177604D03*
X139821Y193353D03*
X135884Y197290D03*
Y189416D03*
X131947Y201227D03*
Y193353D03*
X128010Y197290D03*
Y189416D03*
X139821Y201227D03*
Y197290D03*
Y189416D03*
X135884Y201227D03*
Y193353D03*
X131947Y197290D03*
Y189416D03*
X128010Y201227D03*
Y193353D03*
X139821Y209101D03*
X135884Y205164D03*
X131947Y209101D03*
X128010Y205164D03*
X139821D03*
X135884Y209101D03*
X131947Y205164D03*
X128010Y209101D03*
X135884Y224849D03*
X139821D03*
Y228786D03*
Y232723D03*
X128010Y224849D03*
X131947Y228786D03*
Y232723D03*
Y224849D03*
X139821Y220912D03*
X128010D03*
X135884D03*
X131947D03*
X128010Y228786D03*
Y232723D03*
X135884Y228786D03*
Y232723D03*
X131947Y236660D03*
Y240597D03*
X139821Y236660D03*
Y240597D03*
X128010Y236660D03*
Y240597D03*
X135884Y236660D03*
Y240597D03*
X147696Y134297D03*
Y130360D03*
X143759Y134297D03*
Y126423D03*
Y138234D03*
Y130360D03*
X155570D03*
Y126423D03*
X151633Y138234D03*
Y134297D03*
Y130360D03*
Y126423D03*
X155570Y138234D03*
Y134297D03*
X147696Y138234D03*
Y126423D03*
Y146108D03*
X155570D03*
X151633D03*
X143759D03*
X155570Y142171D03*
X143759D03*
X151633D03*
X147696D03*
X151633Y157919D03*
X147696Y169730D03*
Y161856D03*
X143759Y157919D03*
X155570Y169730D03*
Y161856D03*
X151633Y165793D03*
X155570D03*
Y157919D03*
X151633Y169730D03*
Y161856D03*
X147696Y165793D03*
Y157919D03*
X143759Y169730D03*
Y165793D03*
Y161856D03*
X147696Y185479D03*
Y177604D03*
X143759Y181541D03*
Y173667D03*
X155570Y185479D03*
Y177604D03*
X151633Y181541D03*
Y173667D03*
X155570Y181541D03*
Y173667D03*
X151633Y185479D03*
Y177604D03*
X147696Y181541D03*
Y173667D03*
X143759Y185479D03*
Y177604D03*
X147696Y201227D03*
Y193353D03*
X143759Y197290D03*
Y189416D03*
X155570Y201227D03*
Y193353D03*
X151633Y197290D03*
Y189416D03*
X155570Y197290D03*
Y189416D03*
X151633Y201227D03*
Y193353D03*
X147696Y197290D03*
Y189416D03*
X143759Y201227D03*
Y193353D03*
X147696Y209101D03*
X143759D03*
Y205164D03*
X155570Y209101D03*
X151633Y205164D03*
X155570D03*
X151633Y209101D03*
X147696Y205164D03*
X155570Y232723D03*
Y228786D03*
X151633Y224849D03*
X147696Y232723D03*
Y228786D03*
Y224849D03*
X143759D03*
X155570D03*
X151633Y220912D03*
X147696D03*
X143759D03*
X155570D03*
X151633Y228786D03*
Y232723D03*
X143759Y228786D03*
Y232723D03*
X155570Y236660D03*
X147696Y240597D03*
Y236660D03*
X155570Y240597D03*
X151633Y236660D03*
Y240597D03*
X143759Y236660D03*
Y240597D03*
X159507Y138234D03*
X171318Y130360D03*
Y138234D03*
Y126423D03*
X159507Y134297D03*
X167381D03*
X163444D03*
Y138234D03*
X171318Y134297D03*
X159507Y130360D03*
Y126423D03*
X167381D03*
X163444Y130360D03*
Y126423D03*
X167381Y138234D03*
Y130360D03*
X171318Y146108D03*
X163444D03*
X167381D03*
X159507D03*
X171318Y142171D03*
X159507D03*
X163444D03*
X167381D03*
Y165793D03*
Y157919D03*
X163444Y169730D03*
Y161856D03*
X159507Y165793D03*
Y157919D03*
X167381Y169730D03*
Y161856D03*
X163444Y165793D03*
Y157919D03*
X159507Y169730D03*
Y161856D03*
X167381Y185479D03*
Y181541D03*
Y173667D03*
X163444Y185479D03*
Y177604D03*
X159507Y173667D03*
X167381Y177604D03*
X163444Y181541D03*
Y173667D03*
X159507Y185479D03*
Y181541D03*
Y177604D03*
X167381Y197290D03*
Y189416D03*
X163444Y201227D03*
Y193353D03*
X159507Y197290D03*
Y189416D03*
X167381Y201227D03*
Y193353D03*
X163444Y197290D03*
Y189416D03*
X159507Y201227D03*
Y193353D03*
X167381Y205164D03*
X163444Y209101D03*
X159507Y205164D03*
X167381Y209101D03*
X163444Y205164D03*
X159507Y209101D03*
X171318Y232723D03*
Y228786D03*
Y224849D03*
X167381D03*
X163444Y232723D03*
Y228786D03*
Y224849D03*
X159507D03*
X171318Y220912D03*
X167381D03*
X163444D03*
X159507D03*
X167381Y228786D03*
Y232723D03*
X159507Y228786D03*
Y232723D03*
X171318Y240597D03*
Y236660D03*
X163444Y240597D03*
Y236660D03*
X167381D03*
Y240597D03*
X159507Y236660D03*
Y240597D03*
X187066Y138234D03*
X179192D03*
X183129Y134297D03*
X187066Y130360D03*
Y126423D03*
X179192Y134297D03*
X183129Y138234D03*
X187066Y134297D03*
X183129Y130360D03*
Y126423D03*
X175255Y134297D03*
X179192Y126423D03*
X175255Y130360D03*
Y126423D03*
X179192Y130360D03*
X175255Y138234D03*
X183129Y142171D03*
X179192Y153982D03*
Y146108D03*
Y150045D03*
Y142171D03*
X187066Y153982D03*
X175255Y142171D03*
X183129Y153982D03*
X187066Y150045D03*
X183129D03*
X187066Y146108D03*
X183129D03*
X187066Y142171D03*
X175255Y146108D03*
X179192Y169730D03*
Y161856D03*
Y165793D03*
Y157919D03*
X187066Y169730D03*
Y165793D03*
Y161856D03*
X183129D03*
Y165793D03*
X187066Y157919D03*
X183129D03*
Y169730D03*
X187066Y173667D03*
X179192Y177604D03*
Y185479D03*
Y181541D03*
Y173667D03*
X187066Y177604D03*
X183129Y173667D03*
X187066Y185479D03*
X183129Y181541D03*
X187066D03*
X183129Y177604D03*
Y185479D03*
Y189416D03*
X179192Y197290D03*
Y189416D03*
Y201227D03*
Y193353D03*
X187066Y189416D03*
Y197290D03*
X183129Y193353D03*
X187066D03*
X183129Y201227D03*
Y197290D03*
X187066Y201227D03*
Y209101D03*
X179192Y216975D03*
Y213038D03*
Y209101D03*
Y205164D03*
X187066Y213038D03*
X183129Y216975D03*
Y213038D03*
Y209101D03*
X187066Y216975D03*
X183129Y205164D03*
X187066D03*
Y228786D03*
X183129D03*
Y224849D03*
X179192D03*
Y220912D03*
X175255Y224849D03*
Y232723D03*
X187066D03*
X183129D03*
X175255Y220912D03*
X179192Y232723D03*
X187066Y224849D03*
X183129Y220912D03*
X187066D03*
X179192Y228786D03*
X175255D03*
X187066Y236660D03*
Y240597D03*
X183129Y236660D03*
Y240597D03*
X179192Y236660D03*
Y240597D03*
X175255D03*
Y236660D03*
X198877Y130360D03*
X194940D03*
X191003Y134297D03*
X194940D03*
X198877Y126423D03*
X194940D03*
X191003D03*
X198877Y138234D03*
X194940D03*
X198877Y134297D03*
X191003Y138234D03*
Y130360D03*
X194940Y153982D03*
X191003D03*
X198877D03*
Y150045D03*
X194940D03*
X191003D03*
X198877Y146108D03*
X194940D03*
X198877Y142171D03*
X191003Y146108D03*
X194940Y142171D03*
X191003D03*
X198877Y161856D03*
Y169730D03*
X194940D03*
X191003D03*
Y165793D03*
X194940D03*
Y161856D03*
X191003D03*
X198877Y157919D03*
X194940D03*
X191003D03*
X198877Y165793D03*
X191003Y173667D03*
X198877Y177604D03*
X194940D03*
Y173667D03*
X198877D03*
X194940Y185479D03*
X198877D03*
X194940Y181541D03*
X191003D03*
X198877D03*
X191003Y177604D03*
Y185479D03*
X194940Y197290D03*
X198877D03*
Y201227D03*
X194940D03*
Y193353D03*
X198877Y189416D03*
Y193353D03*
X194940Y189416D03*
X191003D03*
Y193353D03*
Y201227D03*
Y197290D03*
X194940Y209101D03*
X198877D03*
X194940Y213038D03*
X198877D03*
X194940Y216975D03*
X191003D03*
X198877D03*
X191003Y213038D03*
X194940Y205164D03*
X198877D03*
X191003D03*
Y209101D03*
X198877Y220912D03*
X191003Y232723D03*
X198877Y224849D03*
X191003Y220912D03*
X194940D03*
X198877Y232723D03*
X191003Y228786D03*
X194940Y232723D03*
Y228786D03*
X191003Y224849D03*
X198877Y228786D03*
X194940Y224849D03*
X198877Y240597D03*
X194940D03*
Y236660D03*
X191003D03*
X198877D03*
X191003Y240597D03*
G54D74*
X118486Y576400D03*
X126360D03*
X155814Y369341D03*
X147940D03*
X229323Y463000D03*
Y483000D03*
Y473000D03*
Y494539D03*
X237197Y463000D03*
Y483000D03*
Y473000D03*
Y494539D03*
G54D29*
X-48745Y446400D03*
Y452700D03*
X-49245Y574900D03*
Y581200D03*
X221805Y464850D03*
Y471150D03*
X286000Y525850D03*
Y532150D03*
G54D83*
X163377Y324941D03*
Y331741D03*
G54D66*
X88114Y320500D03*
X95496D03*
G54D84*
X167405Y526882D03*
Y537118D03*
X182405Y526882D03*
Y537118D03*
G54D57*
X28205Y73000D03*
X33405D03*
G54D39*
X-32975Y175232D03*
X-36125Y183500D03*
X-32975Y191768D03*
X-33420Y280985D03*
X-42475Y284922D03*
X-45625Y293190D03*
X-42475Y301458D03*
X-33420Y305395D03*
X-42475Y594922D03*
X-33420Y590985D03*
X-45625Y603190D03*
X-42475Y611458D03*
X-33420Y615395D03*
X-23920Y171295D03*
X-14865Y175232D03*
Y191768D03*
X-23920Y195705D03*
X-24365Y284922D03*
X-21215Y293190D03*
X-24365Y301458D03*
Y594922D03*
X-21215Y603190D03*
X-24365Y611458D03*
X-9055Y-8268D03*
X0Y-12205D03*
X-9055Y8268D03*
X-12205Y0D03*
X0Y12205D03*
X-11715Y183500D03*
X9055Y-8268D03*
Y8268D03*
X12205Y0D03*
X295275Y-8268D03*
Y8268D03*
X292125Y0D03*
X298445Y175232D03*
X295295Y183500D03*
X298445Y191768D03*
X313385Y-8268D03*
X304330Y-12205D03*
X313385Y8268D03*
X304330Y12205D03*
X307500Y171295D03*
Y195705D03*
X314374Y343340D03*
Y603190D03*
X316535Y0D03*
X316555Y175232D03*
X319705Y183500D03*
X316555Y191768D03*
X317524Y335072D03*
X326579Y331135D03*
X317524Y351608D03*
X326579Y355545D03*
X317524Y594922D03*
X326579Y590985D03*
X317524Y611458D03*
X326579Y615395D03*
X335634Y335072D03*
X338784Y343340D03*
X335634Y351608D03*
Y594922D03*
X338784Y603190D03*
X335634Y611458D03*
G54D48*
X-15195Y231400D03*
X-28932Y220553D03*
Y226753D03*
X-15195Y237600D03*
X-5129Y195800D03*
Y202000D03*
X26271Y6400D03*
Y12600D03*
X58871Y14400D03*
Y8200D03*
X53271Y14400D03*
Y8200D03*
X52976Y20763D03*
Y26963D03*
X58788Y20763D03*
Y26963D03*
X64471Y21000D03*
Y27200D03*
X82192Y28373D03*
Y34573D03*
X107305Y311900D03*
Y318100D03*
X112805Y311900D03*
Y318100D03*
X172383Y29132D03*
Y35332D03*
X188359Y28268D03*
Y34468D03*
X203813Y328110D03*
Y334310D03*
Y368837D03*
Y375037D03*
X213305Y440900D03*
Y447100D03*
X207805Y440900D03*
Y447100D03*
X224560Y109100D03*
Y102900D03*
X231260Y102400D03*
Y108600D03*
X226800Y265236D03*
Y271436D03*
X228805Y414900D03*
Y421100D03*
X234305Y414900D03*
Y421100D03*
X239805Y414900D03*
Y421100D03*
X280371Y40700D03*
Y46900D03*
X361771Y163800D03*
Y157600D03*
Y170100D03*
Y176300D03*
G54D75*
X117037Y591794D03*
X212300D03*
G54D93*
X254180Y234701D03*
Y244938D03*
Y242378D03*
Y247497D03*
Y237260D03*
Y239819D03*
Y252615D03*
Y250056D03*
X277014Y244938D03*
Y242378D03*
Y239819D03*
Y237260D03*
Y234701D03*
Y247497D03*
Y252615D03*
Y250056D03*
G54D67*
X88187Y338240D03*
Y334500D03*
Y330760D03*
X98423D03*
Y338240D03*
X314064Y293508D03*
Y286028D03*
Y289768D03*
X324301Y286028D03*
Y293508D03*
G54D85*
X182111Y53127D03*
X178962D03*
Y49977D03*
X188411Y56276D03*
X185261D03*
Y53127D03*
X188411D03*
X182111Y59426D03*
Y49977D03*
X185261D03*
X188411D03*
X175812Y56276D03*
Y59426D03*
Y53127D03*
Y49977D03*
X178962Y59426D03*
X188411D03*
X185261D03*
X182111Y56276D03*
X178962D03*
X182111Y75174D03*
Y72024D03*
Y68875D03*
X175812Y65725D03*
X178962Y72024D03*
Y75174D03*
X175812Y62576D03*
Y75174D03*
Y72024D03*
Y68875D03*
X185261D03*
X188411Y72024D03*
X185261D03*
X188411Y75174D03*
X185261D03*
X188411Y68875D03*
X178962Y62576D03*
Y65725D03*
Y68875D03*
X188411Y65725D03*
Y62576D03*
X185261D03*
Y65725D03*
X182111D03*
Y62576D03*
X185261Y84623D03*
X182111D03*
Y81473D03*
Y78324D03*
X178962Y84623D03*
Y78324D03*
X175812Y81473D03*
X178962D03*
X175812Y84623D03*
Y78324D03*
X188411D03*
X185261D03*
X188411Y81473D03*
X185261D03*
X188411Y84623D03*
X201009Y53127D03*
X197859Y56276D03*
Y53127D03*
X191560Y56276D03*
Y53127D03*
X201009Y56276D03*
X194709D03*
X197859Y59426D03*
X201009D03*
X194709Y53127D03*
Y49977D03*
X191560D03*
X197859D03*
X201009D03*
X194709Y59426D03*
X191560D03*
X197859Y68875D03*
X191560Y75174D03*
Y68875D03*
X197859Y65725D03*
X194709Y75174D03*
X197859D03*
Y62576D03*
X201009D03*
X194709Y72024D03*
Y68875D03*
X201009Y72024D03*
Y75174D03*
Y68875D03*
X197859Y72024D03*
X191560D03*
X194709Y62576D03*
Y65725D03*
X191560Y62576D03*
Y65725D03*
X201009D03*
X197859Y78324D03*
X194709Y84623D03*
X191560Y81473D03*
X197859Y84623D03*
X191560D03*
X201009Y78324D03*
Y81473D03*
Y84623D03*
X191560Y78324D03*
X194709D03*
Y81473D03*
X197859D03*
X207307Y56276D03*
Y53127D03*
X204159D03*
Y56276D03*
Y59426D03*
X210457Y56276D03*
Y59426D03*
X204159Y49977D03*
X207307D03*
X210457D03*
Y53127D03*
X207307Y59426D03*
X210457Y65725D03*
X207307Y75174D03*
Y72024D03*
Y68875D03*
X210457Y62576D03*
Y75174D03*
Y68875D03*
Y72024D03*
X204159Y65725D03*
X207307D03*
X204159Y62576D03*
Y68875D03*
Y72024D03*
Y75174D03*
X207307Y62576D03*
X210457Y81473D03*
Y84623D03*
X204159D03*
X207307D03*
Y81473D03*
Y78324D03*
X210457D03*
X204159D03*
Y81473D03*
G54D58*
X23055Y73000D03*
X19555D03*
G54D76*
X141265Y5206D03*
X152065D03*
X196060Y-24942D03*
X206860D03*
X241400Y5206D03*
X252200D03*
G54D94*
X258405Y341505D03*
Y367095D03*
G54D49*
X-15195Y250700D03*
Y265300D03*
X210805Y406700D03*
Y421300D03*
G54D86*
X200925Y264822D03*
Y271514D03*
X219566Y264744D03*
X214250D03*
X206240Y264822D03*
X219566Y271436D03*
X214250D03*
X206240Y271514D03*
X296413Y246754D03*
Y253446D03*
X301729Y246754D03*
Y253446D03*
G54D77*
X146665Y11206D03*
X201460Y-18942D03*
X246800Y11206D03*
G54D59*
X23105Y515000D03*
X37905D03*
X53705D03*
X68505D03*
X101105Y382300D03*
X115905D03*
X167405Y511800D03*
X182205D03*
G54D68*
X110355Y348500D03*
Y356100D03*
X100455Y352300D03*
G54D95*
X268226Y464397D03*
X290076D03*
G54D87*
X222766Y122093D03*
Y127211D03*
Y129770D03*
Y132329D03*
Y134888D03*
Y137448D03*
Y124652D03*
Y150243D03*
Y140007D03*
Y142566D03*
Y145125D03*
Y147684D03*
X245600Y122093D03*
Y124652D03*
Y127211D03*
Y129770D03*
Y132329D03*
Y134888D03*
Y137448D03*
Y147684D03*
Y150243D03*
Y140007D03*
Y142566D03*
Y145125D03*
G54D96*
X258805Y596839D03*
Y614161D03*
X272805Y596839D03*
Y614161D03*
X300805Y596839D03*
X286805D03*
X300805Y614161D03*
X286805D03*
G54D69*
X106605Y371050D03*
X100305D03*
X100605Y363150D03*
X106905D03*
X294705Y553050D03*
X301005D03*
G54D78*
X146665Y27987D03*
X151665D03*
X156665D03*
Y40585D03*
X146665D03*
X151665D03*
X201460Y6751D03*
Y19349D03*
X206460Y6751D03*
X211460D03*
Y19349D03*
X206460D03*
X246800Y27987D03*
Y40585D03*
X251800Y27987D03*
X256800D03*
Y40585D03*
X251800D03*
G54D97*
X274082Y215132D03*
Y210014D03*
X282744D03*
Y215132D03*
Y212573D03*
X298522Y210014D03*
Y215132D03*
X289860Y210014D03*
Y212573D03*
Y215132D03*
X314752Y210014D03*
Y212573D03*
Y215132D03*
X323414Y210014D03*
Y215132D03*
X325792Y363904D03*
Y369022D03*
X317130D03*
Y363904D03*
Y366463D03*
G54D88*
X232144Y163631D03*
X234114D03*
X232144Y193157D03*
X234114D03*
X243955Y163631D03*
X238051D03*
X249862D03*
X247892D03*
X245925D03*
X241988D03*
X240018D03*
X236081D03*
X243955Y193157D03*
X238051D03*
X249862D03*
X247892D03*
X245925D03*
X241988D03*
X240018D03*
X236081D03*
X265610Y163631D03*
X259704D03*
X263641D03*
X261673D03*
X257736D03*
X255766D03*
X253799D03*
X251830D03*
X265610Y193157D03*
X259704D03*
X263641D03*
X261673D03*
X257736D03*
X255766D03*
X253799D03*
X251830D03*
X271514Y163631D03*
X277421D03*
X275452D03*
X273484D03*
X269547D03*
X267578D03*
X271514Y193157D03*
X277421D03*
X275452D03*
X273484D03*
X269547D03*
X267578D03*
G54D79*
X142500Y278500D03*
X184171Y277400D03*
X187771D03*
X191371D03*
X195271D03*
X330760Y376363D03*
G54D98*
X280505Y328000D03*
Y346000D03*
Y337000D03*
Y355000D03*
X293105Y328000D03*
Y346000D03*
Y337000D03*
Y355000D03*
G54D89*
X232281Y214570D03*
Y209570D03*
Y204570D03*
Y219570D03*
X253862Y214570D03*
Y209570D03*
Y204570D03*
Y219570D03*
G54D99*
X280933Y374207D03*
M02*
