G04 ================== begin FILE IDENTIFICATION RECORD ==================*
G04 Layout Name:  HNODE-MINI-ENB-REV-B_10May22.brd*
G04 Film Name:    HNode-MINI-eNB-v7-RevB-PMT.gbr*
G04 File Format:  Gerber RS274X*
G04 File Origin:  Cadence Allegro 16.6-2015-S108*
G04 Origin Date:  Tue May 10 16:33:03 2022*
G04 *
G04 Layer:  BOARD GEOMETRY/OUTLINE*
G04 Layer:  DRAWING FORMAT/OUTLINE_DATA*
G04 Layer:  PACKAGE GEOMETRY/PASTEMASK_TOP*
G04 Layer:  PIN/PASTEMASK_TOP*
G04 *
G04 Offset:    (0.000 0.000)*
G04 Mirror:    No*
G04 Mode:      Positive*
G04 Rotation:  0*
G04 FullContactRelief:  No*
G04 UndefLineWidth:     6.000*
G04 ================== end FILE IDENTIFICATION RECORD ====================*
%FSLAX55Y55*MOIN*%
%IR0*IPPOS*OFA0.00000B0.00000*MIA0B0*SFA1.00000B1.00000*%
%ADD84R,.029921X.066929*%
%ADD35O,.021748X.068988*%
%ADD77R,.125201X.040201*%
%ADD71R,.023598X.059799*%
%ADD86R,.055118X.1*%
%ADD79R,.190201X.044902*%
%AMMACRO47*
4,1,16,-.087402,.088976,
.087402,.088976,
.087402,-.088976,
-.087402,-.088976,
-.087402,-.061024,
-.064173,-.061024,
-.064173,-.038976,
-.087402,-.038976,
-.087402,-.011024,
-.064173,-.011024,
-.064173,.011024,
-.087402,.011024,
-.087402,.038976,
-.064173,.038976,
-.064173,.061024,
-.087402,.061024,
-.087402,.088976,
0.0*
%
%ADD47MACRO47*%
%ADD72R,.140902X.055902*%
%ADD15R,.055902X.140902*%
%ADD51R,.120866X.060236*%
%ADD31O,.00787X.029531*%
%AMMACRO90*
4,1,44,.007874,.025984,
.007874,-.025984,
.007845,-.026325,
.007758,-.026656,
.007614,-.026966,
.007419,-.027247,
.007178,-.02749,
.006898,-.027687,
.006589,-.027832,
.006259,-.027922,
.005918,-.027953,
.005906,-.027953,
-.005906,-.027953,
-.006247,-.027924,
-.006578,-.027836,
-.006888,-.027693,
-.007169,-.027497,
-.007411,-.027256,
-.007608,-.026976,
-.007754,-.026667,
-.007843,-.026337,
-.007874,-.025996,
-.007874,-.025984,
-.007874,.025984,
-.007845,.026325,
-.007758,.026656,
-.007614,.026966,
-.007419,.027247,
-.007178,.02749,
-.006898,.027687,
-.006589,.027832,
-.006259,.027922,
-.005918,.027953,
-.005906,.027953,
.005906,.027953,
.006247,.027924,
.006578,.027836,
.006888,.027693,
.007169,.027497,
.007411,.027256,
.007608,.026976,
.007754,.026667,
.007843,.026337,
.007874,.025996,
.007874,.025984,
0.0*
%
%ADD90MACRO90*%
%ADD80R,.009843X.023622*%
%ADD39C,.009449*%
%ADD33O,.029531X.00787*%
%ADD13O,.159539X.061118*%
%ADD65R,.037402X.007874*%
%ADD98R,.106299X.055118*%
%ADD64R,.007874X.037402*%
%ADD26R,.145669X.04724*%
%ADD66R,.19685X.19685*%
%ADD55R,.064961X.127953*%
%ADD42R,.009839X.023618*%
%ADD81R,.029531X.009839*%
%ADD43R,.023618X.009839*%
%ADD67R,.02X.032*%
%ADD82R,.012X.032*%
%ADD97R,.06X.052*%
%AMMACRO75*
4,1,20,.04724,-.03248,
.04724,-.01476,
.066929,-.01476,
.066929,-.004921,
.04724,-.004921,
.04724,.004921,
.066929,.004921,
.066929,.01476,
.04724,.01476,
.04724,.03248,
-.04724,.03248,
-.04724,.01476,
-.066929,.01476,
-.066929,.004921,
-.04724,.004921,
-.04724,-.004921,
-.066929,-.004921,
-.066929,-.01476,
-.04724,-.01476,
-.04724,-.03248,
.04724,-.03248,
0.0*
%
%ADD75MACRO75*%
%ADD70R,.043X.045*%
%ADD101R,.094X.04*%
%ADD87R,.055X.015*%
%ADD60R,.045X.043*%
%ADD56R,.062988X.259839*%
%ADD83R,.04X.094*%
%ADD23R,.044X.04222*%
%ADD10C,.04*%
%ADD100R,.072X.064*%
%ADD96R,.034X.065*%
%ADD16R,.04222X.044*%
%ADD25R,.01102X.033461*%
%ADD24R,.033461X.01102*%
%ADD20R,.075X.055*%
%ADD14C,.026*%
%ADD41R,.039X.055*%
%ADD12R,.021X.021*%
%ADD44R,.141732X.102362*%
%ADD45R,.039402X.063*%
%ADD11R,.068X.058*%
%ADD92R,.011811X.021654*%
%ADD74R,.114169X.10039*%
%ADD32R,.06102X.06102*%
%ADD89R,.046X.046*%
%ADD76C,.01772*%
%ADD54C,.024902*%
%ADD29R,.0315X.08661*%
%ADD17R,.028X.028*%
%ADD78R,.023618X.011811*%
%ADD91R,.043307X.023622*%
%ADD73R,.070902X.049201*%
%ADD40R,.039461X.01702*%
%ADD18R,.0375X.0375*%
%ADD61R,.033461X.03937*%
%ADD94R,.057091X.01772*%
%ADD68R,.027559X.011811*%
%ADD57R,.01772X.057091*%
%ADD34R,.03937X.033461*%
%ADD19R,.059059X.011811*%
%ADD49R,.057181X.04537*%
%ADD58R,.07687X.05324*%
%ADD50C,.012799*%
%ADD48R,.04537X.057181*%
%ADD99R,.03937X.03937*%
%ADD93R,.015748X.021654*%
%ADD52R,.054016X.027953*%
%ADD37R,.023618X.035429*%
%ADD46R,.023228X.027953*%
%ADD59R,.07874X.049213*%
%ADD36R,.01772X.059059*%
%ADD63R,.082681X.082681*%
%ADD53R,.15748X.106299*%
%ADD38R,.015748X.035429*%
%ADD30R,.039461X.01978*%
%ADD85R,.027953X.090157*%
%ADD69R,.07874X.07087*%
%ADD22R,.015748X.035429*%
%ADD21R,.01978X.039461*%
%ADD28R,.03937X.027559*%
%ADD62R,.027559X.03937*%
%ADD27R,.03937X.027559*%
%AMMACRO95*
4,1,26,-.020669,-.090551,
-.020669,-.018701,
-.035429,-.003941,
-.035429,.085169,
-.035338,.086111,
-.035085,.087023,
-.034678,.087877,
-.034129,.088648,
-.033454,.089311,
-.032674,.089847,
-.031812,.09024,
-.030896,.090477,
-.03,.090551,
.029929,.090551,
.030893,.090457,
.031825,.090198,
.032699,.08978,
.033486,.089217,
.034164,.088526,
.034712,.087727,
.035112,.086846,
.035354,.085909,
.035429,.085,
.035429,-.003941,
.020669,-.018701,
.020669,-.090551,
-.020669,-.090551,
0.0*
%
%ADD95MACRO95*%
%ADD88R,.066929X.029921*%
%ADD102C,.01*%
%ADD103C,.006*%
G75*
%LPD*%
G75*
G36*
G01X120546Y31534D02*
Y26022D01*
X115428D01*
Y31534D01*
X120546D01*
G37*
G36*
G01X114247D02*
Y26022D01*
X109129D01*
Y31534D01*
X114247D01*
G37*
G36*
G01Y24447D02*
Y18936D01*
X109129D01*
Y24447D01*
X114247D01*
G37*
G36*
G01X120546D02*
Y18936D01*
X115428D01*
Y24447D01*
X120546D01*
G37*
G36*
G01Y38227D02*
Y32715D01*
X115428D01*
Y38227D01*
X120546D01*
G37*
G36*
G01X114247D02*
Y32715D01*
X109129D01*
Y38227D01*
X114247D01*
G37*
G36*
G01X371650Y81123D02*
Y84903D01*
X375508D01*
Y81123D01*
X371650D01*
G37*
G36*
G01X376248D02*
Y84903D01*
X380106D01*
Y81123D01*
X376248D01*
G37*
G36*
G01X371650Y76623D02*
Y80403D01*
X375508D01*
Y76623D01*
X371650D01*
G37*
G36*
G01X376248D02*
Y80403D01*
X380106D01*
Y76623D01*
X376248D01*
G37*
G36*
G01X371650Y71623D02*
Y75403D01*
X375508D01*
Y71623D01*
X371650D01*
G37*
G36*
G01X376248D02*
Y75403D01*
X380106D01*
Y71623D01*
X376248D01*
G37*
G36*
G01X371650Y67123D02*
Y70903D01*
X375508D01*
Y67123D01*
X371650D01*
G37*
G36*
G01X376248D02*
Y70903D01*
X380106D01*
Y67123D01*
X376248D01*
G37*
G36*
G01X53963Y192030D02*
X51207D01*
Y194786D01*
X53963D01*
Y192030D01*
G37*
G36*
G01X50420D02*
X47664D01*
Y194786D01*
X50420D01*
Y192030D01*
G37*
G36*
G01X53963Y188486D02*
X51207D01*
Y191242D01*
X53963D01*
Y188486D01*
G37*
G36*
G01X50420D02*
X47664D01*
Y191242D01*
X50420D01*
Y188486D01*
G37*
G36*
G01X318678Y51639D02*
Y54395D01*
X321434D01*
Y51639D01*
X318678D01*
G37*
G36*
G01Y48095D02*
Y50851D01*
X321434D01*
Y48095D01*
X318678D01*
G37*
G36*
G01X322222Y51639D02*
Y54395D01*
X324977D01*
Y51639D01*
X322222D01*
G37*
G36*
G01Y48095D02*
Y50851D01*
X324977D01*
Y48095D01*
X322222D01*
G37*
G54D100*
X440000Y376000D03*
Y365000D03*
G54D101*
X452424Y156313D03*
Y167113D03*
X452024Y195613D03*
Y206413D03*
X453024Y300613D03*
Y311413D03*
X452924Y334013D03*
Y344813D03*
G54D102*
G01X-22652Y-72063D02*
Y-151263D01*
G01D02*
X405248D01*
G01X-22652Y-131263D02*
X479948D01*
G01X-22652Y-91263D02*
X479948D01*
G01X-22652Y-111263D02*
X479948D01*
G01Y-72063D02*
X-22652D01*
G01X405248Y-151263D02*
X479948D01*
G01D02*
Y-72063D01*
G54D103*
G01X-6102Y-146163D02*
X-3102D01*
G01X-4602Y-136163D02*
Y-146163D01*
G01X-16977D02*
Y-136163D01*
G01X-3752Y-125930D02*
X-4752Y-126097D01*
G01X-2877Y-125264D02*
X-3752Y-125930D01*
G01X-2127Y-124264D02*
X-2877Y-125264D01*
G01X-1627Y-123097D02*
X-2127Y-124264D01*
G01X-1377Y-121764D02*
X-1627Y-123097D01*
G01X-1377Y-120430D02*
Y-121764D01*
G01X-1627Y-119097D02*
X-1377Y-120430D01*
G01X-2127Y-117930D02*
X-1627Y-119097D01*
G01X-2877Y-116930D02*
X-2127Y-117930D01*
G01X-3752Y-116264D02*
X-2877Y-116930D01*
G01X-4752Y-116097D02*
X-3752Y-116264D01*
G01X-5752D02*
X-4752Y-116097D01*
G01X-6627Y-116930D02*
X-5752Y-116264D01*
G01X-7377Y-117930D02*
X-6627Y-116930D01*
G01X-7877Y-119097D02*
X-7377Y-117930D01*
G01X-8127Y-120430D02*
X-7877Y-119097D01*
G01X-8127Y-121764D02*
Y-120430D01*
G01X-7877Y-123097D02*
X-8127Y-121764D01*
G01X-7377Y-124264D02*
X-7877Y-123097D01*
G01X-6627Y-125264D02*
X-7377Y-124264D01*
G01X-5752Y-125930D02*
X-6627Y-125264D01*
G01X-4752Y-126097D02*
X-5752Y-125930D01*
G01X-6102Y-136163D02*
X-3102D01*
G01X-13752Y-120764D02*
X-17627D01*
G01X-12877Y-121097D02*
X-13752Y-120764D01*
G01X-12127Y-122097D02*
X-12877Y-121097D01*
G01X-11877Y-123264D02*
X-12127Y-122097D01*
G01Y-124430D02*
X-11877Y-123264D01*
G01X-12627Y-125430D02*
X-12127Y-124430D01*
G01X-13502Y-126097D02*
X-12627Y-125430D01*
G01X-17627Y-126097D02*
X-13502D01*
G01X-17627Y-116097D02*
Y-126097D01*
G01X-14252Y-116097D02*
X-17627D01*
G01X-13377Y-116597D02*
X-14252Y-116097D01*
G01X-12877Y-117264D02*
X-13377Y-116597D01*
G01X-12627Y-118264D02*
X-12877Y-117264D01*
G01Y-119431D02*
X-12627Y-118264D01*
G01X-13252Y-120264D02*
X-12877Y-119431D01*
G01X-13752Y-120764D02*
X-13252Y-120264D01*
G01X-13977Y-140996D02*
X-16977D01*
G01Y-136163D02*
X-12227D01*
G01X-4202Y-77363D02*
X-1077Y-87363D01*
G01X-7327D02*
X-4202Y-77363D01*
G01X-6902Y-96563D02*
X-1902D01*
G01X-3902Y-101396D02*
X-6902D01*
G01Y-106563D02*
Y-96563D01*
G01X-1902Y-106563D02*
X-6902D01*
G01X-14452Y-87363D02*
X-16952D01*
G01X-13452Y-86863D02*
X-14452Y-87363D01*
G01X-12702Y-86197D02*
X-13452Y-86863D01*
G01X-12077Y-85196D02*
X-12702Y-86197D01*
G01X-16952Y-87363D02*
Y-77363D01*
G01X-14652Y-96563D02*
X-13652Y-97063D01*
G01X-17152Y-96563D02*
X-14652D01*
G01Y-106563D02*
X-17152D01*
G01X-13652Y-106063D02*
X-14652Y-106563D01*
G01X-12902Y-105397D02*
X-13652Y-106063D01*
G01X-12277Y-104396D02*
X-12902Y-105397D01*
G01X-11777Y-103230D02*
X-12277Y-104396D01*
G01X-11652Y-101563D02*
X-11777Y-103230D01*
G01Y-99897D02*
X-11652Y-101563D01*
G01X-12277Y-98730D02*
X-11777Y-99897D01*
G01X-12902Y-97730D02*
X-12277Y-98730D01*
G01X-13652Y-97063D02*
X-12902Y-97730D01*
G01X-17152Y-106563D02*
Y-96563D01*
G01X-2202Y-83863D02*
X-6202D01*
G01X-11577Y-80697D02*
X-11452Y-82363D01*
G01X-12077Y-79530D02*
X-11577Y-80697D01*
G01X-12702Y-78530D02*
X-12077Y-79530D01*
G01X-13452Y-77863D02*
X-12702Y-78530D01*
G01X-14452Y-77363D02*
X-13452Y-77863D01*
G01X-16952Y-77363D02*
X-14452D01*
G01X-11577Y-84030D02*
X-12077Y-85196D01*
G01X-11452Y-82363D02*
X-11577Y-84030D01*
G01X15398Y-144496D02*
X18648Y-136163D01*
G01X12148D02*
X15398Y-144496D01*
G01X18648Y-136163D02*
Y-146163D01*
G01X12148D02*
Y-136163D01*
G01X2898Y-146163D02*
X7898D01*
G01X2898Y-136163D02*
Y-146163D01*
G01X24998Y-126097D02*
X22498D01*
G01X25998Y-125597D02*
X24998Y-126097D01*
G01X26748Y-124931D02*
X25998Y-125597D01*
G01X27373Y-123930D02*
X26748Y-124931D01*
G01X27873Y-122764D02*
X27373Y-123930D01*
G01X27998Y-121097D02*
X27873Y-122764D01*
G01Y-119431D02*
X27998Y-121097D01*
G01X27373Y-118264D02*
X27873Y-119431D01*
G01X26748Y-117264D02*
X27373Y-118264D01*
G01X25998Y-116597D02*
X26748Y-117264D01*
G01X24998Y-116097D02*
X25998Y-116597D01*
G01X22498Y-116097D02*
X24998D01*
G01X22498Y-126097D02*
Y-116097D01*
G01X15873Y-121264D02*
X17748Y-126097D01*
G01X15873Y-121264D02*
X12748D01*
G01X16748Y-120764D02*
X15873Y-121264D01*
G01X17498Y-119930D02*
X16748Y-120764D01*
G01X17748Y-118597D02*
X17498Y-119930D01*
G01Y-117264D02*
X17748Y-118597D01*
G01X16873Y-116597D02*
X17498Y-117264D01*
G01X15873Y-116097D02*
X16873Y-116597D01*
G01X12748Y-116097D02*
X15873D01*
G01X12748Y-126097D02*
Y-116097D01*
G01X5248D02*
X8373Y-126097D01*
G01X7248Y-122597D02*
X3248D01*
G01X2123Y-126097D02*
X5248Y-116097D01*
G01X26048Y-87530D02*
X25798Y-87696D01*
G01X26048Y-87196D02*
Y-87530D01*
G01X25798Y-87030D02*
X26048Y-87196D01*
G01X25548D02*
X25798Y-87030D01*
G01X25548Y-87530D02*
Y-87196D01*
G01X25798Y-87696D02*
X25548Y-87530D01*
G01X26473Y-96563D02*
X27473Y-96896D01*
G01X25598Y-96563D02*
X26473D01*
G01X24598Y-97063D02*
X25598Y-96563D01*
G01X27473Y-96896D02*
X28223Y-97563D01*
G01X23848Y-97730D02*
X24598Y-97063D01*
G01X23098Y-98730D02*
X23848Y-97730D01*
G01X22598Y-99897D02*
X23098Y-98730D01*
G01X22348Y-100896D02*
X22598Y-99897D01*
G01X22348Y-102063D02*
Y-100896D01*
G01X22598Y-103396D02*
X22348Y-102063D01*
G01X23098Y-104563D02*
X22598Y-103396D01*
G01X23848Y-105563D02*
X23098Y-104563D01*
G01X24723Y-106230D02*
X23848Y-105563D01*
G01X25973Y-106563D02*
X24723Y-106230D01*
G01X27223D02*
X25973Y-106563D01*
G01X28098Y-105563D02*
X27223Y-106230D01*
G01X26348Y-101563D02*
X28848D01*
G01X13298Y-87363D02*
Y-77363D01*
G01X18298Y-87363D02*
X13298D01*
G01X5798Y-77363D02*
Y-87363D01*
G01X14098Y-96563D02*
X17098D01*
G01X6098D02*
X6973Y-96896D01*
G01X5223Y-96563D02*
X6098D01*
G01X14098Y-106563D02*
X17098D01*
G01X15598Y-96563D02*
Y-106563D01*
G01X6973Y-96896D02*
X7723Y-97730D01*
G01X6223Y-101230D02*
X4723Y-100896D01*
G01X7348Y-101896D02*
X6223Y-101230D01*
G01X7973Y-102897D02*
X7348Y-101896D01*
G01X8223Y-104063D02*
X7973Y-102897D01*
G01X7848Y-105230D02*
X8223Y-104063D01*
G01X7098Y-106063D02*
X7848Y-105230D01*
G01X6098Y-106563D02*
X7098Y-106063D01*
G01X5098Y-106563D02*
X6098D01*
G01X4348Y-97063D02*
X5223Y-96563D01*
G01X3723Y-97896D02*
X4348Y-97063D01*
G01X3473Y-99063D02*
X3723Y-97896D01*
G01X3848Y-100230D02*
X3473Y-99063D01*
G01X4723Y-100896D02*
X3848Y-100230D01*
G01X3973Y-106063D02*
X5098Y-106563D01*
G01X2973Y-105230D02*
X3973Y-106063D01*
G01X26048Y-83030D02*
X25798Y-83197D01*
G01X26048Y-82696D02*
Y-83030D01*
G01X25798Y-82530D02*
X26048Y-82696D01*
G01X25548D02*
X25798Y-82530D01*
G01X25548Y-83030D02*
Y-82696D01*
G01X25798Y-83197D02*
X25548Y-83030D01*
G01X13298Y-77363D02*
X18298D01*
G01X16298Y-82196D02*
X13298D01*
G01X2923Y-77363D02*
X8673D01*
G01X427559Y0D02*
X459055Y31496D01*
Y431496D01*
X451181Y439370D01*
X430807Y439370D01*
Y394094D01*
X369193D01*
Y439370D01*
X335827D01*
Y423622D01*
X320079D01*
Y439370D01*
X253150D01*
Y423622D01*
X237402D01*
Y439370D01*
X129921D01*
Y423622D01*
X103346D01*
Y400787D01*
X54134D01*
Y423622D01*
X27559D01*
Y439370D01*
X7874D01*
X0Y431496D01*
Y31496D01*
X31496Y0D01*
X174128D01*
X176813Y4724D01*
X185223D01*
X187908Y0D01*
X292520D01*
X294489Y4724D01*
X304331D01*
X306300Y0D01*
X427559D01*
G01X55398Y-146163D02*
Y-141663D01*
G01X45398Y-136163D02*
X48523Y-146163D01*
G01X42273D02*
X45398Y-136163D01*
G01X32898Y-146163D02*
X37898D01*
G01X32898Y-136163D02*
Y-146163D01*
G01X57248Y-122597D02*
X53248D01*
G01X55248Y-116097D02*
X58373Y-126097D01*
G01X57898Y-136163D02*
X55398Y-141663D01*
G01D02*
X52898Y-136163D01*
G01X52123Y-126097D02*
X55248Y-116097D01*
G01X48123Y-126097D02*
Y-116097D01*
G01X42373D02*
X48123Y-126097D01*
G01X42373D02*
Y-116097D01*
G01X47398Y-142663D02*
X43398D01*
G01X36635Y-79366D02*
X35835Y-79632D01*
X35235Y-80299D01*
X34835Y-81099D01*
X34535Y-82166D01*
X34435Y-83366D01*
X34535Y-84566D01*
X34835Y-85633D01*
X35235Y-86433D01*
X35835Y-87099D01*
X36635Y-87366D01*
X37435Y-87099D01*
X38035Y-86433D01*
X38435Y-85633D01*
X38735Y-84566D01*
X38835Y-83366D01*
X38735Y-82166D01*
X38435Y-81099D01*
X38035Y-80299D01*
X37435Y-79632D01*
X36635Y-79366D01*
G01X45835Y-87366D02*
Y-79366D01*
X42135Y-85099D01*
X47135D01*
G01X50635Y-85766D02*
X51135Y-86566D01*
X51735Y-87099D01*
X52435Y-87366D01*
X53235Y-87099D01*
X53835Y-86566D01*
X54435Y-85766D01*
X54635Y-84699D01*
Y-79366D01*
G01X58435D02*
Y-85099D01*
X58835Y-86299D01*
X59635Y-87099D01*
X60635Y-87366D01*
X61635Y-87099D01*
X62435Y-86299D01*
X62835Y-85099D01*
Y-79366D01*
G01X66635D02*
Y-87366D01*
X70635D01*
G01X76635D02*
Y-83766D01*
X74635Y-79366D01*
G01X78635D02*
X76635Y-83766D01*
G01X82735Y-80699D02*
X83335Y-79899D01*
X84035Y-79499D01*
X84835Y-79366D01*
X85835Y-79632D01*
X86535Y-80299D01*
X86735Y-81099D01*
X86635Y-81899D01*
X86235Y-82566D01*
X84235Y-83899D01*
X83335Y-84833D01*
X82735Y-86166D01*
X82535Y-87366D01*
X86735D01*
G01X92635Y-79366D02*
X91835Y-79632D01*
X91235Y-80299D01*
X90835Y-81099D01*
X90535Y-82166D01*
X90435Y-83366D01*
X90535Y-84566D01*
X90835Y-85633D01*
X91235Y-86433D01*
X91835Y-87099D01*
X92635Y-87366D01*
X93435Y-87099D01*
X94035Y-86433D01*
X94435Y-85633D01*
X94735Y-84566D01*
X94835Y-83366D01*
X94735Y-82166D01*
X94435Y-81099D01*
X94035Y-80299D01*
X93435Y-79632D01*
X92635Y-79366D01*
G01X55348Y-96563D02*
X56348Y-97063D01*
G01Y-106063D02*
X55348Y-106563D01*
G01X57098Y-105397D02*
X56348Y-106063D01*
G01Y-97063D02*
X57098Y-97730D01*
G01X52848Y-96563D02*
X55348D01*
G01X43098D02*
X48098D01*
G01X55348Y-106563D02*
X52848D01*
G01D02*
Y-96563D01*
G01X46098Y-101396D02*
X43098D01*
G01Y-106563D02*
Y-96563D01*
G01X48098Y-106563D02*
X43098D01*
G01X38473D02*
Y-96563D01*
G01X32723D02*
X38473Y-106563D01*
G01X32723D02*
Y-96563D01*
G01X28848Y-104563D02*
X28098Y-105563D01*
G01X28848Y-101563D02*
Y-104563D01*
G01X85648Y-146330D02*
X85398Y-146496D01*
G01X85648Y-145996D02*
Y-146330D01*
G01X85398Y-145830D02*
X85648Y-145996D01*
G01X85148D02*
X85398Y-145830D01*
G01X85148Y-146330D02*
Y-145996D01*
G01X85398Y-146496D02*
X85148Y-146330D01*
G01X76023Y-141330D02*
X77898Y-146163D01*
G01X72898D02*
Y-136163D01*
G01X62898Y-146163D02*
Y-136163D01*
G01X67898Y-146163D02*
X62898D01*
G01X85498Y-121764D02*
X85248Y-121931D01*
G01X85498Y-121430D02*
Y-121764D01*
G01X85248Y-121264D02*
X85498Y-121430D01*
G01Y-126264D02*
X85248Y-126430D01*
G01X85498Y-125930D02*
Y-126264D01*
G01X85248Y-125764D02*
X85498Y-125930D01*
G01X85648Y-141830D02*
X85398Y-141997D01*
G01X85648Y-141496D02*
Y-141830D01*
G01X85398Y-141330D02*
X85648Y-141496D01*
G01X85148D02*
X85398Y-141330D01*
G01X85148Y-141830D02*
Y-141496D01*
G01X85398Y-141997D02*
X85148Y-141830D01*
G01X84998Y-121430D02*
X85248Y-121264D01*
G01X84998Y-121764D02*
Y-121430D01*
G01X85248Y-121931D02*
X84998Y-121764D01*
G01Y-125930D02*
X85248Y-125764D01*
G01X84998Y-126264D02*
Y-125930D01*
G01X85248Y-126430D02*
X84998Y-126264D01*
G01X75748Y-120930D02*
X72748D01*
G01Y-116097D02*
X77748D01*
G01X72748Y-126097D02*
Y-116097D01*
G01X77748Y-126097D02*
X72748D01*
G01X76023Y-141330D02*
X72898D01*
G01X76898Y-140830D02*
X76023Y-141330D01*
G01X77648Y-139996D02*
X76898Y-140830D01*
G01X77898Y-138663D02*
X77648Y-139996D01*
G01Y-137330D02*
X77898Y-138663D01*
G01X77023Y-136663D02*
X77648Y-137330D01*
G01X76023Y-136163D02*
X77023Y-136663D01*
G01X72898Y-136163D02*
X76023D01*
G01X68498Y-116097D02*
Y-126097D01*
G01X65248Y-124430D02*
X68498Y-116097D01*
G01X61998D02*
X65248Y-124430D01*
G01X61998Y-126097D02*
Y-116097D01*
G01X65898Y-140996D02*
X62898D01*
G01Y-136163D02*
X67898D01*
G01X85598Y-96563D02*
Y-106563D01*
G01X82723Y-96563D02*
X88473D01*
G01X77598Y-103063D02*
X73598D01*
G01X75598Y-96563D02*
X78723Y-106563D01*
G01X72473D02*
X75598Y-96563D01*
G01X57723Y-104396D02*
X57098Y-105397D01*
G01X58223Y-103230D02*
X57723Y-104396D01*
G01X58348Y-101563D02*
X58223Y-103230D01*
G01Y-99897D02*
X58348Y-101563D01*
G01X57723Y-98730D02*
X58223Y-99897D01*
G01X57098Y-97730D02*
X57723Y-98730D01*
G01X95848Y-102230D02*
X95598Y-102397D01*
G01X95848Y-101896D02*
Y-102230D01*
G01X95598Y-101730D02*
X95848Y-101896D01*
G01X95348D02*
X95598Y-101730D01*
G01X95348Y-102230D02*
Y-101896D01*
G01X95598Y-102397D02*
X95348Y-102230D01*
G01X95848Y-106730D02*
X95598Y-106896D01*
G01X95848Y-106396D02*
Y-106730D01*
G01X95598Y-106230D02*
X95848Y-106396D01*
G01X95348D02*
X95598Y-106230D01*
G01X95348Y-106730D02*
Y-106396D01*
G01X95598Y-106896D02*
X95348Y-106730D01*
G01X129248Y-72484D02*
Y-150643D01*
G01X161900Y-126187D02*
Y-116187D01*
G01Y-121020D02*
X162525Y-120187D01*
X163150Y-119687D01*
X164150Y-119521D01*
X164900Y-119687D01*
X165775Y-120354D01*
X166150Y-121354D01*
Y-126187D01*
G01X174025D02*
X173275Y-126021D01*
X172525Y-125354D01*
X172025Y-124187D01*
X171775Y-122854D01*
X172025Y-121521D01*
X172525Y-120354D01*
X173275Y-119687D01*
X174025Y-119521D01*
X174775Y-119687D01*
X175525Y-120354D01*
X176025Y-121521D01*
X176150Y-122854D01*
X176025Y-124187D01*
X175525Y-125354D01*
X174775Y-126021D01*
X174025Y-126187D01*
G01X180275D02*
Y-119521D01*
G01Y-121354D02*
X180650Y-120520D01*
X181275Y-119854D01*
X182150Y-119521D01*
X183025Y-119854D01*
X183650Y-120520D01*
X184025Y-121354D01*
Y-126187D01*
G01Y-121354D02*
X184400Y-120520D01*
X185025Y-119854D01*
X185900Y-119521D01*
X186775Y-119854D01*
X187400Y-120520D01*
X187775Y-121521D01*
Y-126187D01*
G01X192150Y-121687D02*
X196150D01*
X195775Y-120520D01*
X195150Y-119854D01*
X194275Y-119521D01*
X193400Y-119687D01*
X192650Y-120187D01*
X192150Y-121354D01*
X191900Y-122354D01*
Y-123354D01*
X192150Y-124354D01*
X192775Y-125354D01*
X193525Y-126021D01*
X194400Y-126187D01*
X195275Y-125854D01*
X196150Y-124854D01*
G01X201150Y-126187D02*
Y-116187D01*
X206900Y-126187D01*
Y-116187D01*
G01X214025Y-126187D02*
X213275Y-126021D01*
X212525Y-125354D01*
X212025Y-124187D01*
X211775Y-122854D01*
X212025Y-121521D01*
X212525Y-120354D01*
X213275Y-119687D01*
X214025Y-119521D01*
X214775Y-119687D01*
X215525Y-120354D01*
X216025Y-121521D01*
X216150Y-122854D01*
X216025Y-124187D01*
X215525Y-125354D01*
X214775Y-126021D01*
X214025Y-126187D01*
G01X226275Y-116187D02*
Y-126187D01*
G01Y-124688D02*
X225775Y-125521D01*
X225025Y-126021D01*
X224150Y-126187D01*
X223150Y-125854D01*
X222400Y-125021D01*
X221900Y-124021D01*
X221775Y-122854D01*
X221900Y-121687D01*
X222400Y-120687D01*
X223150Y-119854D01*
X224150Y-119521D01*
X225025Y-119687D01*
X225650Y-120021D01*
X226275Y-120687D01*
G01X232150Y-121687D02*
X236150D01*
X235775Y-120520D01*
X235150Y-119854D01*
X234275Y-119521D01*
X233400Y-119687D01*
X232650Y-120187D01*
X232150Y-121354D01*
X231900Y-122354D01*
Y-123354D01*
X232150Y-124354D01*
X232775Y-125354D01*
X233525Y-126021D01*
X234400Y-126187D01*
X235275Y-125854D01*
X236150Y-124854D01*
G01X252400Y-122854D02*
X255650D01*
G01X270775Y-126187D02*
Y-116187D01*
X274025Y-124521D01*
X277275Y-116187D01*
Y-126187D01*
G01X284025Y-119521D02*
Y-126187D01*
G01Y-116854D02*
X283775Y-116687D01*
Y-116354D01*
X284025Y-116187D01*
X284275Y-116354D01*
Y-116687D01*
X284025Y-116854D01*
G01X291900Y-126187D02*
Y-119521D01*
G01Y-121187D02*
X292400Y-120354D01*
X293150Y-119687D01*
X294150Y-119521D01*
X295025Y-119687D01*
X295775Y-120354D01*
X296150Y-121521D01*
Y-126187D01*
G01X304025Y-119521D02*
Y-126187D01*
G01Y-116854D02*
X303775Y-116687D01*
Y-116354D01*
X304025Y-116187D01*
X304275Y-116354D01*
Y-116687D01*
X304025Y-116854D01*
G01X322400Y-122854D02*
X325650D01*
G01X342150Y-121687D02*
X346150D01*
X345775Y-120520D01*
X345150Y-119854D01*
X344275Y-119521D01*
X343400Y-119687D01*
X342650Y-120187D01*
X342150Y-121354D01*
X341900Y-122354D01*
Y-123354D01*
X342150Y-124354D01*
X342775Y-125354D01*
X343525Y-126021D01*
X344400Y-126187D01*
X345275Y-125854D01*
X346150Y-124854D01*
G01X351150Y-126187D02*
Y-116187D01*
X356900Y-126187D01*
Y-116187D01*
G01X365025Y-120854D02*
X365525Y-120354D01*
X365900Y-119521D01*
X366150Y-118354D01*
X365900Y-117354D01*
X365400Y-116687D01*
X364525Y-116187D01*
X361150D01*
Y-126187D01*
X365275D01*
X366150Y-125521D01*
X366650Y-124521D01*
X366900Y-123354D01*
X366650Y-122187D01*
X365900Y-121187D01*
X365025Y-120854D01*
X361150D01*
G01X372400Y-122854D02*
X375650D01*
G01X391775Y-119521D02*
X394025Y-126187D01*
X396275Y-119521D01*
G01X404025Y-126187D02*
Y-116187D01*
X402525Y-118187D01*
G01Y-126187D02*
X405525D01*
G01X421525D02*
Y-116187D01*
X424650D01*
X425650Y-116687D01*
X426275Y-117354D01*
X426525Y-118687D01*
X426275Y-120021D01*
X425525Y-120854D01*
X424650Y-121354D01*
X421525D01*
G01X424650D02*
X426525Y-126187D01*
G01X432150Y-121687D02*
X436150D01*
X435775Y-120520D01*
X435150Y-119854D01*
X434275Y-119521D01*
X433400Y-119687D01*
X432650Y-120187D01*
X432150Y-121354D01*
X431900Y-122354D01*
Y-123354D01*
X432150Y-124354D01*
X432775Y-125354D01*
X433525Y-126021D01*
X434400Y-126187D01*
X435275Y-125854D01*
X436150Y-124854D01*
G01X441775Y-119521D02*
X444025Y-126187D01*
X446275Y-119521D01*
G01X452400Y-122854D02*
X455650D01*
G01X465025Y-120854D02*
X465525Y-120354D01*
X465900Y-119521D01*
X466150Y-118354D01*
X465900Y-117354D01*
X465400Y-116687D01*
X464525Y-116187D01*
X461150D01*
Y-126187D01*
X465275D01*
X466150Y-125521D01*
X466650Y-124521D01*
X466900Y-123354D01*
X466650Y-122187D01*
X465900Y-121187D01*
X465025Y-120854D01*
X461150D01*
G01X194140Y-86478D02*
Y-76478D01*
X197140D01*
X198140Y-76978D01*
X198890Y-78145D01*
X199140Y-79478D01*
X198890Y-80811D01*
X198265Y-81811D01*
X197140Y-82312D01*
X194140D01*
G01X203515Y-86478D02*
X206640Y-76478D01*
X209766Y-86478D01*
G01X208640Y-82978D02*
X204640D01*
G01X214140Y-86478D02*
Y-76478D01*
X217265D01*
X218265Y-76978D01*
X218890Y-77645D01*
X219140Y-78978D01*
X218890Y-80311D01*
X218140Y-81145D01*
X217265Y-81645D01*
X214140D01*
G01X217265D02*
X219140Y-86478D01*
G01X226640Y-76478D02*
Y-86478D01*
G01X223765Y-76478D02*
X229515D01*
G01X243765Y-86478D02*
Y-76478D01*
X249515Y-86478D01*
Y-76478D01*
G01X253890D02*
Y-83645D01*
X254390Y-85145D01*
X255390Y-86145D01*
X256640Y-86478D01*
X257891Y-86145D01*
X258891Y-85145D01*
X259390Y-83645D01*
Y-76478D01*
G01X263390Y-86478D02*
Y-76478D01*
X266640Y-84811D01*
X269891Y-76478D01*
Y-86478D01*
G01X277640Y-81145D02*
X278140Y-80645D01*
X278515Y-79812D01*
X278766Y-78644D01*
X278515Y-77645D01*
X278015Y-76978D01*
X277140Y-76478D01*
X273765D01*
Y-86478D01*
X277891D01*
X278766Y-85812D01*
X279265Y-84811D01*
X279515Y-83645D01*
X279265Y-82478D01*
X278515Y-81478D01*
X277640Y-81145D01*
X273765D01*
G01X289140Y-86478D02*
X284140D01*
Y-76478D01*
X289140D01*
G01X287140Y-81311D02*
X284140D01*
G01X294140Y-86478D02*
Y-76478D01*
X297265D01*
X298265Y-76978D01*
X298891Y-77645D01*
X299140Y-78978D01*
X298891Y-80311D01*
X298140Y-81145D01*
X297265Y-81645D01*
X294140D01*
G01X297265D02*
X299140Y-86478D01*
G01X306640Y-86811D02*
X306390Y-86645D01*
Y-86311D01*
X306640Y-86145D01*
X306891Y-86311D01*
Y-86645D01*
X306640Y-86811D01*
G01Y-82312D02*
X306390Y-82145D01*
Y-81811D01*
X306640Y-81645D01*
X306891Y-81811D01*
Y-82145D01*
X306640Y-82312D01*
G01X316640Y-86478D02*
X315640Y-86311D01*
X314766Y-85645D01*
X314015Y-84645D01*
X313515Y-83478D01*
X313265Y-82145D01*
Y-80811D01*
X313515Y-79478D01*
X314015Y-78311D01*
X314766Y-77312D01*
X315640Y-76645D01*
X316640Y-76478D01*
X317640Y-76645D01*
X318515Y-77312D01*
X319265Y-78311D01*
X319766Y-79478D01*
X320016Y-80811D01*
Y-82145D01*
X319766Y-83478D01*
X319265Y-84645D01*
X318515Y-85645D01*
X317640Y-86311D01*
X316640Y-86478D01*
G01X317640Y-83811D02*
X319140Y-86478D01*
G01X326640D02*
Y-76478D01*
X325140Y-78478D01*
G01Y-86478D02*
X328140D01*
G01X338140D02*
Y-76478D01*
X333515Y-83645D01*
X339766D01*
G01X344515Y-85312D02*
X345390Y-86145D01*
X346390Y-86478D01*
X347390Y-86145D01*
X348265Y-85145D01*
X348891Y-83645D01*
X349140Y-82145D01*
Y-80311D01*
X348891Y-78811D01*
X348265Y-77478D01*
X347515Y-76811D01*
X346640Y-76478D01*
X345640Y-76811D01*
X344890Y-77478D01*
X344390Y-78478D01*
X344140Y-79812D01*
X344390Y-80978D01*
X345015Y-82145D01*
X345766Y-82812D01*
X346640Y-82978D01*
X347640Y-82645D01*
X348390Y-81811D01*
X349140Y-80311D01*
G01X354265Y-82312D02*
X355140Y-81145D01*
X355890Y-80478D01*
X356891Y-80145D01*
X357766Y-80478D01*
X358390Y-81145D01*
X358891Y-82145D01*
X359016Y-83311D01*
X358891Y-84312D01*
X358390Y-85312D01*
X357640Y-86145D01*
X356766Y-86478D01*
X355766Y-86145D01*
X354890Y-85145D01*
X354390Y-83645D01*
X354265Y-81978D01*
X354515Y-79812D01*
X354890Y-78644D01*
X355515Y-77478D01*
X356390Y-76645D01*
X357265Y-76478D01*
X358140Y-76811D01*
X358766Y-77645D01*
G01X366390Y-86478D02*
X366640Y-84312D01*
X367015Y-82478D01*
X367515Y-80811D01*
X368140Y-78978D01*
X369140Y-76478D01*
X364140D01*
G01X376640D02*
X375640Y-76811D01*
X374890Y-77645D01*
X374390Y-78644D01*
X374015Y-79978D01*
X373890Y-81478D01*
X374015Y-82978D01*
X374390Y-84312D01*
X374890Y-85312D01*
X375640Y-86145D01*
X376640Y-86478D01*
X377640Y-86145D01*
X378390Y-85312D01*
X378890Y-84312D01*
X379265Y-82978D01*
X379390Y-81478D01*
X379265Y-79978D01*
X378890Y-78644D01*
X378390Y-77645D01*
X377640Y-76811D01*
X376640Y-76478D01*
G01X386640Y-86478D02*
Y-76478D01*
X385140Y-78478D01*
G01Y-86478D02*
X388140D01*
G01X212339Y-145662D02*
Y-135662D01*
X215339D01*
X216339Y-136162D01*
X217089Y-137329D01*
X217339Y-138662D01*
X217089Y-139995D01*
X216464Y-140995D01*
X215339Y-141496D01*
X212339D01*
G01X221714Y-145662D02*
X224839Y-135662D01*
X227964Y-145662D01*
G01X226839Y-142162D02*
X222839D01*
G01X232214Y-144329D02*
X233214Y-145162D01*
X234339Y-145662D01*
X235339D01*
X236339Y-145162D01*
X237089Y-144329D01*
X237464Y-143162D01*
X237214Y-141996D01*
X236589Y-140995D01*
X235464Y-140329D01*
X233964Y-139995D01*
X233089Y-139329D01*
X232714Y-138162D01*
X232964Y-136995D01*
X233589Y-136162D01*
X234464Y-135662D01*
X235339D01*
X236214Y-135995D01*
X236964Y-136829D01*
G01X244839Y-135662D02*
Y-145662D01*
G01X241964Y-135662D02*
X247714D01*
G01X257339Y-145662D02*
X252339D01*
Y-135662D01*
X257339D01*
G01X255339Y-140495D02*
X252339D01*
G01X261589Y-145662D02*
Y-135662D01*
X264838Y-143995D01*
X268089Y-135662D01*
Y-145662D01*
G01X271714D02*
X274839Y-135662D01*
X277964Y-145662D01*
G01X276839Y-142162D02*
X272838D01*
G01X282214Y-144329D02*
X283214Y-145162D01*
X284339Y-145662D01*
X285339D01*
X286339Y-145162D01*
X287089Y-144329D01*
X287464Y-143162D01*
X287214Y-141996D01*
X286589Y-140995D01*
X285464Y-140329D01*
X283964Y-139995D01*
X283089Y-139329D01*
X282714Y-138162D01*
X282964Y-136995D01*
X283588Y-136162D01*
X284464Y-135662D01*
X285339D01*
X286214Y-135995D01*
X286964Y-136829D01*
G01X292089Y-145662D02*
Y-135662D01*
G01X296839D02*
X292089Y-141829D01*
G01X297589Y-145662D02*
X294214Y-138996D01*
G01X301089Y-148995D02*
X308589D01*
G01X314838Y-135662D02*
Y-145662D01*
G01X311964Y-135662D02*
X317714D01*
G01X324839Y-145662D02*
X323838Y-145495D01*
X322964Y-144829D01*
X322214Y-143829D01*
X321714Y-142662D01*
X321464Y-141329D01*
Y-139995D01*
X321714Y-138662D01*
X322214Y-137495D01*
X322964Y-136496D01*
X323838Y-135829D01*
X324839Y-135662D01*
X325838Y-135829D01*
X326714Y-136496D01*
X327464Y-137495D01*
X327964Y-138662D01*
X328214Y-139995D01*
Y-141329D01*
X327964Y-142662D01*
X327464Y-143829D01*
X326714Y-144829D01*
X325838Y-145495D01*
X324839Y-145662D01*
G01X332339D02*
Y-135662D01*
X335339D01*
X336339Y-136162D01*
X337089Y-137329D01*
X337339Y-138662D01*
X337089Y-139995D01*
X336464Y-140995D01*
X335339Y-141496D01*
X332339D01*
G01X234038Y-95925D02*
Y-100591D01*
X234538Y-101758D01*
X235288Y-102425D01*
X236163Y-102591D01*
X237038Y-102425D01*
X237788Y-101758D01*
X238289Y-100591D01*
G01Y-102591D02*
Y-95925D01*
G01X244038Y-102591D02*
Y-92591D01*
G01X248038Y-95925D02*
X244038Y-99758D01*
G01X245663Y-98258D02*
X248289Y-102591D01*
G01X258414D02*
Y-95925D01*
G01Y-97091D02*
X257913Y-96425D01*
X257163Y-96091D01*
X256288Y-95925D01*
X255413Y-96258D01*
X254663Y-96924D01*
X254163Y-97925D01*
X253913Y-99258D01*
X254163Y-100591D01*
X254663Y-101591D01*
X255413Y-102258D01*
X256288Y-102591D01*
X257163Y-102425D01*
X257913Y-101925D01*
X258414Y-101258D01*
G01X262413Y-102591D02*
Y-95925D01*
G01Y-97758D02*
X262788Y-96924D01*
X263413Y-96258D01*
X264288Y-95925D01*
X265163Y-96258D01*
X265788Y-96924D01*
X266163Y-97758D01*
Y-102591D01*
G01Y-97758D02*
X266538Y-96924D01*
X267163Y-96258D01*
X268038Y-95925D01*
X268913Y-96258D01*
X269539Y-96924D01*
X269913Y-97925D01*
Y-102591D01*
G01X278414D02*
Y-95925D01*
G01Y-97091D02*
X277913Y-96425D01*
X277163Y-96091D01*
X276288Y-95925D01*
X275413Y-96258D01*
X274663Y-96924D01*
X274163Y-97925D01*
X273913Y-99258D01*
X274163Y-100591D01*
X274663Y-101591D01*
X275413Y-102258D01*
X276288Y-102591D01*
X277163Y-102425D01*
X277913Y-101925D01*
X278414Y-101258D01*
G54D10*
X10000Y50000D03*
X430000Y30000D03*
X450000Y430000D03*
G54D11*
X31076Y104550D03*
Y92450D03*
X59924Y104550D03*
Y92450D03*
G54D20*
X20474Y335511D03*
Y347715D03*
X10174Y335411D03*
Y347615D03*
X366720Y350724D03*
Y338520D03*
G54D21*
X47532Y60691D03*
X52650D03*
X50091D03*
X35674Y60491D03*
X40792D03*
X38233D03*
X52650Y69353D03*
X47532D03*
X40792Y69153D03*
X35674D03*
X71284Y47272D03*
X76403D03*
Y55934D03*
X71284D03*
X73844D03*
X64492Y60891D03*
X61933D03*
X59374D03*
X76403Y71712D03*
X71284D03*
X76403Y63050D03*
X73844D03*
X71284D03*
X76403Y87942D03*
X73844D03*
X71284D03*
X64492Y69553D03*
X59374D03*
X76403Y96604D03*
X71284D03*
G54D30*
X80542Y113073D03*
Y107955D03*
Y110514D03*
X89204Y107955D03*
Y113073D03*
G54D12*
X24700Y142130D03*
Y145870D03*
X76874Y126143D03*
Y129883D03*
X85874Y126143D03*
Y129883D03*
X81374D03*
Y126143D03*
X84403Y156926D03*
Y160667D03*
X79903Y156926D03*
Y160667D03*
X78375Y371961D03*
X82116D03*
X82115Y376461D03*
X78375D03*
X82116Y380961D03*
X78375D03*
X104604Y70513D03*
X108344D03*
X102775Y62343D03*
Y66083D03*
X110175Y62343D03*
Y66083D03*
X90374Y126143D03*
Y129883D03*
X95874Y145383D03*
Y141643D03*
X95255Y383825D03*
X91515D03*
X91700Y394270D03*
Y390530D03*
X96300Y394170D03*
Y390430D03*
X121592Y361483D03*
X117852D03*
X119924Y370424D03*
X123664D03*
X121224Y379316D03*
X117483D03*
X166130Y323223D03*
X157374D03*
X166130Y326963D03*
X157374D03*
X259004Y32013D03*
X258937Y27570D03*
X259037Y23070D03*
Y18570D03*
X259120Y41013D03*
X259191Y36513D03*
X242774Y307043D03*
Y310783D03*
X261644Y350913D03*
X257904D03*
X258004Y355924D03*
X261744D03*
Y375924D03*
X258004D03*
X262744Y32013D03*
X262677Y27570D03*
X262777Y23070D03*
Y18570D03*
X273907Y50940D03*
Y47200D03*
X269407Y50840D03*
Y47100D03*
X262860Y41013D03*
X262931Y36513D03*
X283007Y50840D03*
Y47100D03*
X278374Y50701D03*
Y46961D03*
X287374Y50770D03*
Y47030D03*
X287474Y408583D03*
Y404843D03*
X273574Y406082D03*
Y402342D03*
X269074Y406083D03*
Y402343D03*
X296504Y29513D03*
X300244D03*
X296504Y25013D03*
X300244D03*
X296504Y20513D03*
X300244D03*
X296504Y16013D03*
X300244D03*
X296874Y33943D03*
Y37683D03*
X291874Y50883D03*
Y47143D03*
X318504Y371513D03*
X318230Y358000D03*
X309670Y386500D03*
X305930D03*
X322245Y371513D03*
X321970Y358000D03*
X424298Y261971D03*
X420558D03*
X424186Y271951D03*
X420446D03*
G54D22*
X35234Y145143D03*
X30115D03*
X35234Y136481D03*
X32675D03*
X30115D03*
G54D40*
X105093Y26809D03*
Y28778D03*
Y30747D03*
Y24841D03*
Y20904D03*
Y18935D03*
Y22872D03*
Y32715D03*
Y34684D03*
Y36652D03*
Y38621D03*
X124581Y18935D03*
Y24841D03*
Y22872D03*
Y26809D03*
Y30747D03*
Y28778D03*
Y20904D03*
Y34684D03*
Y32715D03*
Y38621D03*
Y36652D03*
G54D13*
X10121Y137528D03*
G54D31*
X86827Y138804D03*
X84859D03*
X82890D03*
X80922D03*
X84859Y150222D03*
X86827D03*
X82890D03*
X80922D03*
G54D50*
X143585Y97369D03*
Y103668D03*
Y109967D03*
X118389Y100518D03*
Y106817D03*
Y113117D03*
X143585Y94219D03*
X140436D03*
X137286D03*
X124688D03*
X121538D03*
X118389D03*
X140436Y97369D03*
X137286D03*
X124688D03*
X121538D03*
X118389D03*
X143585Y100518D03*
X140436D03*
X137286D03*
X124688D03*
X121538D03*
X140436Y103668D03*
X137286D03*
X124688D03*
X121538D03*
X118389D03*
X143585Y106817D03*
X140436D03*
X137286D03*
X124688D03*
X121538D03*
X140436Y109967D03*
X137286D03*
X124688D03*
X121538D03*
X118389D03*
X143585Y113117D03*
X140436D03*
X137286D03*
X124688D03*
X121538D03*
X143585Y116266D03*
X140436D03*
X137286D03*
X124688D03*
X121538D03*
X118389D03*
X143585Y119416D03*
X140436D03*
X137286D03*
X124688D03*
X121538D03*
X118389D03*
X143585Y122565D03*
X140436D03*
X137286D03*
X124688D03*
X121538D03*
X118389D03*
X143585Y125715D03*
X140436D03*
X137286D03*
X124688D03*
X121538D03*
X118389D03*
X143585Y128865D03*
X140436D03*
X137286D03*
X124688D03*
X121538D03*
X118389D03*
X143585Y132014D03*
X140436D03*
X137286D03*
X124688D03*
X121538D03*
X118389D03*
X143585Y135164D03*
X140436D03*
X137286D03*
X124688D03*
X121538D03*
X118389D03*
X143585Y138313D03*
X140436D03*
X137286D03*
X124688D03*
X121538D03*
X118389D03*
X143585Y141463D03*
X140436D03*
X137286D03*
X124688D03*
X121538D03*
X118389D03*
X168389Y100518D03*
Y106817D03*
X171538Y116266D03*
X168389Y94219D03*
Y97369D03*
Y103668D03*
X171538Y113117D03*
Y94219D03*
X168389Y113117D03*
Y109967D03*
Y116266D03*
X171538Y109967D03*
Y106817D03*
Y97369D03*
Y100518D03*
Y103668D03*
X168389Y122565D03*
X171538Y128865D03*
X168389Y132014D03*
Y138313D03*
Y128865D03*
Y119416D03*
X171538D03*
X168389Y125715D03*
X171538Y132014D03*
X168389Y135164D03*
Y141463D03*
X171538Y138313D03*
Y141463D03*
Y135164D03*
Y122565D03*
Y125715D03*
X190436Y109967D03*
X174688D03*
X193585Y106817D03*
X190436Y116266D03*
X193585Y94219D03*
Y100518D03*
X190436Y106817D03*
X193585Y97369D03*
Y103668D03*
X190436Y113117D03*
X174688Y116266D03*
X193585Y109967D03*
Y116266D03*
Y113117D03*
X187286D03*
Y116266D03*
X174688Y113117D03*
Y106817D03*
X190436Y103668D03*
X174688Y97369D03*
X190436Y94219D03*
Y97369D03*
Y100518D03*
X174688D03*
X187286Y106817D03*
Y94219D03*
X174688D03*
X187286Y103668D03*
Y97369D03*
Y109967D03*
Y100518D03*
X174688Y103668D03*
X193585Y122565D03*
Y125715D03*
X190436Y128865D03*
Y132014D03*
X193585Y138313D03*
X190436Y122565D03*
X174688Y138313D03*
X193585Y141463D03*
Y119416D03*
Y128865D03*
Y135164D03*
X190436Y141463D03*
X187286Y122565D03*
X193585Y132014D03*
X174688Y141463D03*
X190436Y138313D03*
X187286Y141463D03*
X190436Y135164D03*
X174688D03*
X187286Y132014D03*
Y138313D03*
Y135164D03*
X174688Y122565D03*
Y125715D03*
X187286Y119416D03*
X190436D03*
X174688D03*
X190436Y125715D03*
X187286D03*
X174688Y128865D03*
Y132014D03*
X187286Y128865D03*
X224688Y109967D03*
X218389Y100518D03*
Y106817D03*
X221538Y116266D03*
X218389Y94219D03*
Y97369D03*
Y103668D03*
X221538Y113117D03*
Y94219D03*
X224688Y116266D03*
X218389Y113117D03*
Y109967D03*
Y116266D03*
X221538Y109967D03*
X224688Y113117D03*
Y106817D03*
X221538D03*
X224688Y97369D03*
X221538D03*
Y100518D03*
Y103668D03*
X224688Y100518D03*
Y94219D03*
Y103668D03*
X218389Y122565D03*
X221538Y128865D03*
X218389Y132014D03*
Y138313D03*
Y128865D03*
X224688Y138313D03*
X218389Y119416D03*
X221538D03*
X218389Y125715D03*
X221538Y132014D03*
X218389Y135164D03*
Y141463D03*
X221538Y138313D03*
X224688Y141463D03*
X221538D03*
Y135164D03*
X224688D03*
Y122565D03*
Y125715D03*
X221538Y122565D03*
X224688Y119416D03*
X221538Y125715D03*
X224688Y128865D03*
Y132014D03*
X240436Y109967D03*
X243585Y106817D03*
X240436Y116266D03*
X243585Y94219D03*
Y100518D03*
X240436Y106817D03*
X243585Y97369D03*
Y103668D03*
X240436Y113117D03*
X243585Y109967D03*
Y116266D03*
Y113117D03*
X237286D03*
Y116266D03*
X240436Y103668D03*
Y94219D03*
Y97369D03*
Y100518D03*
X237286Y106817D03*
Y94219D03*
Y103668D03*
Y97369D03*
Y109967D03*
Y100518D03*
X243585Y122565D03*
Y125715D03*
X240436Y128865D03*
Y132014D03*
X243585Y138313D03*
X240436Y122565D03*
X243585Y141463D03*
Y119416D03*
Y128865D03*
Y135164D03*
X240436Y141463D03*
X237286Y122565D03*
X243585Y132014D03*
X240436Y138313D03*
X237286Y141463D03*
X240436Y135164D03*
X237286Y132014D03*
Y138313D03*
Y135164D03*
Y119416D03*
X240436D03*
Y125715D03*
X237286D03*
Y128865D03*
X290436Y109967D03*
X274688D03*
X268389Y100518D03*
Y106817D03*
X290436Y116266D03*
X271538D03*
X268389Y94219D03*
X290436Y106817D03*
X268389Y97369D03*
Y103668D03*
X290436Y113117D03*
X271538D03*
Y94219D03*
X274688Y116266D03*
X268389Y113117D03*
Y109967D03*
Y116266D03*
X271538Y109967D03*
X287286Y113117D03*
Y116266D03*
X274688Y113117D03*
Y106817D03*
X290436Y103668D03*
X271538Y106817D03*
X274688Y97369D03*
X290436Y94219D03*
X271538Y97369D03*
X290436D03*
X271538Y100518D03*
X290436D03*
X271538Y103668D03*
X274688Y100518D03*
X287286Y106817D03*
Y94219D03*
X274688D03*
X287286Y103668D03*
Y97369D03*
Y109967D03*
Y100518D03*
X274688Y103668D03*
X268389Y122565D03*
X290436Y128865D03*
X271538D03*
X290436Y132014D03*
X268389D03*
Y138313D03*
X290436Y122565D03*
X268389Y128865D03*
X274688Y138313D03*
X268389Y119416D03*
X271538D03*
X268389Y125715D03*
X271538Y132014D03*
X268389Y135164D03*
X290436Y141463D03*
X268389D03*
X287286Y122565D03*
X271538Y138313D03*
X274688Y141463D03*
X290436Y138313D03*
X271538Y141463D03*
X287286D03*
X271538Y135164D03*
X290436D03*
X274688D03*
X287286Y132014D03*
Y138313D03*
Y135164D03*
X274688Y122565D03*
Y125715D03*
X287286Y119416D03*
X271538Y122565D03*
X290436Y119416D03*
X274688D03*
X290436Y125715D03*
X271538D03*
X287286D03*
X274688Y128865D03*
Y132014D03*
X287286Y128865D03*
X293585Y106817D03*
Y94219D03*
Y100518D03*
Y97369D03*
Y103668D03*
Y109967D03*
Y116266D03*
Y113117D03*
Y122565D03*
Y125715D03*
Y138313D03*
Y141463D03*
Y119416D03*
Y128865D03*
Y135164D03*
Y132014D03*
X317772Y159390D03*
Y165689D03*
Y153091D03*
Y156241D03*
Y162540D03*
Y171989D03*
Y168839D03*
Y175138D03*
Y181437D03*
Y190886D03*
Y197185D03*
Y187737D03*
Y178288D03*
Y184587D03*
Y194036D03*
Y200335D03*
X339819Y168839D03*
X324071D03*
X342968Y165689D03*
X339819Y175138D03*
X320921D03*
X342968Y153091D03*
Y159390D03*
X339819Y165689D03*
X342968Y156241D03*
Y162540D03*
X339819Y171989D03*
X320921D03*
Y153091D03*
X324071Y175138D03*
X342968Y168839D03*
Y175138D03*
X320921Y168839D03*
X342968Y171989D03*
X336669D03*
Y175138D03*
X324071Y171989D03*
Y165689D03*
X339819Y162540D03*
X320921Y165689D03*
X324071Y156241D03*
X339819Y153091D03*
X320921Y156241D03*
X339819D03*
X320921Y159390D03*
X339819D03*
X320921Y162540D03*
X324071Y159390D03*
X336669Y165689D03*
Y153091D03*
X324071D03*
X336669Y162540D03*
Y156241D03*
Y168839D03*
Y159390D03*
X324071Y162540D03*
X342968Y181437D03*
Y184587D03*
X339819Y187737D03*
X320921D03*
X339819Y190886D03*
X342968Y197185D03*
X339819Y181437D03*
X324071Y197185D03*
X342968Y200335D03*
Y178288D03*
X320921D03*
X342968Y187737D03*
X320921Y190886D03*
X342968Y194036D03*
X339819Y200335D03*
X336669Y181437D03*
X342968Y190886D03*
X320921Y197185D03*
X324071Y200335D03*
X339819Y197185D03*
X320921Y200335D03*
X336669D03*
X320921Y194036D03*
X339819D03*
X324071D03*
X336669Y190886D03*
Y197185D03*
Y194036D03*
X324071Y181437D03*
Y184587D03*
X336669Y178288D03*
X320921Y181437D03*
X339819Y178288D03*
X324071D03*
X339819Y184587D03*
X320921D03*
X336669D03*
X324071Y187737D03*
Y190886D03*
X336669Y187737D03*
G54D32*
X83874Y144513D03*
G54D41*
X102724Y56168D03*
X106474Y47468D03*
X110224Y56168D03*
G54D14*
X24674Y138313D03*
X325800Y358000D03*
X391374Y59013D03*
G54D23*
X37022Y176389D03*
Y170189D03*
X37814Y207536D03*
X31314D03*
X37814Y213736D03*
X31314D03*
X65174Y229713D03*
Y223513D03*
X249362Y348470D03*
Y354670D03*
X308674Y90613D03*
X319374Y87613D03*
Y81413D03*
X308674Y96813D03*
X315374Y230913D03*
Y237113D03*
X321374D03*
Y230913D03*
X317874Y253413D03*
Y259613D03*
X305374Y322413D03*
Y328613D03*
X339833Y50730D03*
Y44530D03*
X343584Y128197D03*
Y121997D03*
X323874Y259613D03*
Y253413D03*
X436774Y167613D03*
Y173813D03*
G54D24*
X56622Y190652D03*
X45007Y188682D03*
X56622Y194589D03*
X45007Y192620D03*
Y190652D03*
X56622Y192620D03*
X45007Y194589D03*
X56622Y188682D03*
X316021Y54198D03*
Y52229D03*
Y50261D03*
Y48292D03*
X327635D03*
Y50261D03*
Y52229D03*
Y54198D03*
G54D60*
X262374Y321413D03*
X269174D03*
G54D42*
X96340Y378942D03*
X108151Y363980D03*
X98308Y378942D03*
X100277D03*
X102246D03*
X104214D03*
X106182D03*
X108151D03*
X96340Y363981D03*
X98308D03*
X100277D03*
X102246D03*
X104214D03*
X106182D03*
X285795Y23033D03*
X283828D03*
X281858D03*
X279891D03*
X277921D03*
X275954D03*
Y37993D03*
X277921D03*
X279891D03*
X281858D03*
X283828D03*
X285795D03*
G54D33*
X78165Y141561D03*
Y147466D03*
Y145498D03*
Y143529D03*
X89583D03*
Y141561D03*
Y147466D03*
Y145498D03*
G54D51*
X140354Y337045D03*
Y361533D03*
G54D15*
X28237Y157043D03*
X56134Y9013D03*
X50718Y157043D03*
X35602Y231339D03*
X58083D03*
X78615Y9013D03*
X199096Y56167D03*
X221576D03*
G54D52*
X133155Y408279D03*
Y403279D03*
Y398279D03*
Y413279D03*
G54D34*
X85331Y171707D03*
X78639D03*
Y177022D03*
X85331D03*
X141075Y290276D03*
X134383D03*
X134461Y308917D03*
X141153D03*
Y303601D03*
X134461D03*
X134383Y295592D03*
X141075D03*
G54D61*
X257216Y362578D03*
Y369270D03*
X262532D03*
Y362578D03*
G54D25*
X49831Y185829D03*
X47861D03*
X53768Y197443D03*
X47861D03*
X49831D03*
X51798D03*
X53768Y185829D03*
X51798D03*
X318875Y57052D03*
Y45438D03*
X324781Y57052D03*
X322812D03*
X320844D03*
Y45438D03*
X322812D03*
X324781D03*
G54D16*
X25114Y173099D03*
X49274Y37513D03*
X55474D03*
X49274Y43013D03*
X55474D03*
X31314Y173099D03*
X85452Y10433D03*
X91652D03*
X91774Y40013D03*
X97974D03*
X91774Y34513D03*
X97974D03*
X140661Y316151D03*
X134461D03*
X262174Y327413D03*
X257274Y337013D03*
X263474D03*
X268374Y327413D03*
X337854Y106545D03*
X344054D03*
X371570Y116157D03*
X365370D03*
X362184Y100597D03*
X355984D03*
X371807Y110474D03*
X365607D03*
X359174Y134912D03*
X365374D03*
X359274Y129413D03*
X365474D03*
X353183Y299118D03*
X359383D03*
X396691Y193213D03*
X390491D03*
G54D70*
X311374Y322613D03*
Y329413D03*
G54D43*
X111694Y375398D03*
X92797Y375398D03*
X111694Y373429D03*
X92797Y373430D03*
X111695Y371461D03*
X92797Y371461D03*
X111695Y369493D03*
X92797Y369492D03*
X111695Y367524D03*
X92797Y367524D03*
X288354Y29529D03*
Y27560D03*
Y25592D03*
X273395Y27560D03*
Y29529D03*
Y25592D03*
Y31497D03*
X288354D03*
X273395Y33466D03*
Y35434D03*
X288354D03*
Y33466D03*
G54D62*
X250560Y393858D03*
X243079D03*
Y404094D03*
X246819D03*
X250560D03*
G54D53*
X153126Y37513D03*
X184622D03*
G54D17*
X26324Y167599D03*
X15165Y294813D03*
X11374D03*
X15165Y304113D03*
X11374D03*
X15165Y299513D03*
X11374D03*
X20484Y327513D03*
X24274D03*
X54265Y19013D03*
X50474D03*
X54265Y28013D03*
X50474D03*
X45874Y27403D03*
Y23613D03*
X54265Y23513D03*
X50474D03*
X54265Y32513D03*
X50474D03*
X42231Y171871D03*
Y175661D03*
X47183D03*
Y171871D03*
X57814Y171645D03*
Y175436D03*
X52214Y175426D03*
Y171636D03*
X30114Y167599D03*
X37814Y188745D03*
Y192536D03*
X46374Y323903D03*
Y320113D03*
X34765Y333013D03*
X30974D03*
X87285Y88923D03*
X82685D03*
X71389Y81373D03*
Y77583D03*
X76389Y81373D03*
Y77583D03*
X71374Y106623D03*
Y110413D03*
X87285Y92713D03*
X82685D03*
X85484Y102513D03*
X84974Y118513D03*
X71284Y101961D03*
X75074D03*
X62314Y171645D03*
Y175436D03*
X80200Y183265D03*
X76410D03*
X84010D03*
X84911Y233223D03*
X70174Y228503D03*
Y224713D03*
X74674Y233223D03*
X79174D03*
X84911Y237013D03*
X74674D03*
X79174D03*
X65916Y271251D03*
Y267461D03*
Y275971D03*
Y279761D03*
X86648Y297973D03*
Y301763D03*
X82648Y297978D03*
Y301768D03*
X59153Y315773D03*
X62944D03*
X65916Y295571D03*
Y299361D03*
X78245Y361071D03*
Y364861D03*
X97265Y20013D03*
X93474D03*
X97265Y15513D03*
X93474D03*
X97265Y24513D03*
X93474D03*
X97265Y29013D03*
X93474D03*
X107374Y12903D03*
Y9113D03*
X115765Y9013D03*
X111974D03*
X89274Y102513D03*
X88765Y118513D03*
X108187Y101651D03*
Y105441D03*
Y96831D03*
Y93041D03*
Y136751D03*
Y140541D03*
Y127151D03*
Y130941D03*
X87800Y183265D03*
X89411Y233223D03*
Y237013D03*
X96516Y297966D03*
Y301756D03*
X92348Y297973D03*
Y301763D03*
X136765Y21013D03*
X132974D03*
X136765Y16513D03*
X132974D03*
X128665Y13813D03*
X124874D03*
X128765Y9113D03*
X124974D03*
X120374Y12903D03*
Y9113D03*
X124874Y48403D03*
Y44613D03*
X129374Y48403D03*
Y44613D03*
X141439Y208134D03*
X145229D03*
X141439Y213134D03*
X145229D03*
X145219Y223134D03*
X141429D03*
X145219Y218134D03*
X141429D03*
X145219Y228134D03*
X141429D03*
X145219Y233134D03*
X141429D03*
X141439Y243134D03*
X145229D03*
X141439Y238134D03*
X145229D03*
X145219Y253134D03*
X141429D03*
X145219Y248134D03*
X141429D03*
X141439Y258134D03*
X145229D03*
X141439Y263134D03*
X145229D03*
X127397Y290527D03*
Y294317D03*
X145229Y273134D03*
X141439D03*
X145229Y268134D03*
X141439D03*
X141439Y283134D03*
X145229D03*
X141439Y278134D03*
X145229D03*
X127397Y308917D03*
Y305127D03*
X158077Y110441D03*
X154287D03*
X158287Y95831D03*
Y92041D03*
Y101651D03*
Y105441D03*
X153787Y95831D03*
Y92041D03*
Y101651D03*
Y105441D03*
X153997Y120941D03*
X157787D03*
X158287Y127151D03*
Y130941D03*
Y136751D03*
Y140541D03*
X153787Y130931D03*
Y127141D03*
Y136751D03*
Y140541D03*
X147329Y292238D03*
X170997Y310917D03*
Y307127D03*
X160597Y310917D03*
Y307127D03*
X165797Y310917D03*
Y307127D03*
X155397Y310917D03*
Y307127D03*
X150197Y310917D03*
Y307127D03*
X147329Y296028D03*
X204087Y110141D03*
X203287Y95831D03*
Y92041D03*
Y101651D03*
Y105441D03*
X204097Y120941D03*
X203287Y130931D03*
Y127141D03*
Y136751D03*
Y140541D03*
X196997Y310917D03*
Y307127D03*
X191797Y310921D03*
Y307131D03*
X202197Y307127D03*
Y310917D03*
X186597Y310917D03*
Y307127D03*
X176197Y310917D03*
Y307127D03*
X181397Y310907D03*
Y307117D03*
X204265Y329213D03*
X200474D03*
X191984D03*
X195774D03*
X193684Y365313D03*
X197474D03*
X202074Y362223D03*
Y366013D03*
X197465Y370113D03*
X193674D03*
X202074Y370523D03*
Y374313D03*
X197465Y374713D03*
X193674D03*
X193215Y379710D03*
X202078Y379657D03*
X198287D03*
X188606Y379400D03*
X184815D03*
X197474Y360613D03*
X193684D03*
X193215Y383500D03*
X188606Y383900D03*
X184815D03*
X207877Y110141D03*
X208087Y95831D03*
Y92041D03*
Y101651D03*
Y105441D03*
X207887Y120941D03*
X208087Y127151D03*
Y130941D03*
Y136751D03*
Y140541D03*
X233474Y310803D03*
Y307013D03*
X228774Y307023D03*
Y310813D03*
X212797Y310917D03*
Y307127D03*
X207397Y310912D03*
Y307122D03*
X257677Y110141D03*
X253887D03*
X258487Y95831D03*
Y92041D03*
X253687Y95831D03*
Y92041D03*
X258487Y101651D03*
Y105441D03*
X253687Y101651D03*
Y105441D03*
X254197Y120941D03*
X257987D03*
X258487Y127151D03*
Y130941D03*
X253687Y130931D03*
Y127141D03*
X258487Y136751D03*
Y140541D03*
X253687Y136751D03*
Y140541D03*
X238174Y310803D03*
Y307013D03*
X262265Y343013D03*
X258474D03*
X249550Y340402D03*
Y336612D03*
Y360402D03*
Y364192D03*
X248891Y383787D03*
Y387577D03*
X243597Y383787D03*
Y387577D03*
X253904Y383787D03*
Y387577D03*
X274874Y323613D03*
X279374D03*
X283874D03*
X274874Y327403D03*
X279374D03*
X283874D03*
X305774Y30723D03*
Y34513D03*
X307088Y51303D03*
X310878D03*
X307082Y56837D03*
X310873D03*
X306800Y45856D03*
X310590D03*
X300194Y56315D03*
Y52525D03*
X307177Y109841D03*
X303387D03*
X303487Y95831D03*
Y92041D03*
Y101651D03*
Y105441D03*
X303397Y120941D03*
X307187D03*
X303487Y130931D03*
Y127141D03*
Y136751D03*
Y140541D03*
X300824Y221334D03*
X297034D03*
X300824Y227334D03*
X297034D03*
X300824Y262134D03*
X297034D03*
X300824Y250734D03*
X297034D03*
X297044Y290334D03*
X300834D03*
X300824Y267834D03*
X297034D03*
X300824Y273534D03*
X297034D03*
X297300Y280952D03*
X301090D03*
X301062Y285630D03*
X297272D03*
X299874Y323613D03*
X294874D03*
X299874Y327403D03*
X318484Y334513D03*
Y344113D03*
Y348713D03*
Y339513D03*
X294874Y327403D03*
X318484Y367013D03*
Y353513D03*
Y362513D03*
X296374Y383423D03*
Y387213D03*
X301374Y383423D03*
Y387213D03*
X333680Y43857D03*
Y47647D03*
X332791Y57220D03*
X336581D03*
X344582Y111616D03*
Y115406D03*
X337874Y220403D03*
Y216613D03*
X326265Y247513D03*
X322474D03*
X328165Y278813D03*
X324374D03*
X336488Y292817D03*
X340279D03*
X340274Y288028D03*
Y284238D03*
X336488Y297511D03*
X340279D03*
X322274Y334513D03*
Y344113D03*
Y348713D03*
Y339513D03*
X332374Y343123D03*
Y346913D03*
X322274Y367013D03*
Y353513D03*
Y362513D03*
X332374Y365123D03*
Y368913D03*
Y373623D03*
Y377413D03*
Y399403D03*
Y395613D03*
X355984Y58013D03*
X359774D03*
X355984Y76013D03*
X359774D03*
X359765Y62513D03*
X355974D03*
X355984Y71513D03*
X359774D03*
X355984Y67013D03*
X359774D03*
X360597Y145441D03*
X364387D03*
X360597Y140191D03*
X364387D03*
X352285Y129743D03*
Y133533D03*
X377674Y161713D03*
X360597Y150441D03*
X364387D03*
X360597Y165441D03*
X364387D03*
X360597Y160441D03*
X364387D03*
X360597Y155441D03*
X364387D03*
X352187Y163551D03*
Y167341D03*
X360597Y175441D03*
X364387D03*
X360597Y170441D03*
X364387D03*
X376444Y202913D03*
X360597Y200441D03*
X364387D03*
X360597Y180441D03*
X364387D03*
X360597Y195441D03*
X364387D03*
X360597Y190441D03*
X364387D03*
X360597Y185441D03*
X364387D03*
X357084Y221826D03*
Y218035D03*
X361384Y221826D03*
Y218035D03*
X365884Y221826D03*
Y218035D03*
X374874Y221903D03*
Y218113D03*
X352152Y220116D03*
Y216326D03*
X370284Y221826D03*
Y218035D03*
X368738Y307557D03*
Y303767D03*
X373338Y307557D03*
Y303767D03*
Y299137D03*
X377129D03*
X368738Y299118D03*
X364948D03*
X378141Y307595D03*
Y303805D03*
X376155Y339413D03*
X390874Y71403D03*
Y67613D03*
X394765Y63013D03*
X390974D03*
X395374Y67623D03*
Y71413D03*
X385374Y132623D03*
Y136413D03*
X407965Y161513D03*
X404174D03*
X390584Y161613D03*
X394374D03*
X399074Y161603D03*
Y157813D03*
X381465Y161713D03*
X386074Y161603D03*
Y157813D03*
X404174Y157723D03*
Y161513D03*
X393381Y198313D03*
X389591D03*
X408265Y203763D03*
X404474D03*
X385115Y202913D03*
X388905D03*
X380234D03*
Y193978D03*
Y197768D03*
X385115Y193978D03*
Y197768D03*
X393784Y230213D03*
X397574D03*
X393784Y220213D03*
X397574D03*
X397565Y215213D03*
X393774D03*
X408265Y208263D03*
X404474D03*
X394284Y250313D03*
X398074D03*
X394284Y260413D03*
X398074D03*
X394284Y240213D03*
X398074D03*
X398165Y265013D03*
X394374D03*
X398065Y255413D03*
X394274D03*
X394284Y245313D03*
X398074D03*
X406274Y263023D03*
X388673Y273548D03*
Y269758D03*
X394384Y269613D03*
X398174D03*
X398165Y274113D03*
X394374D03*
X406274Y266813D03*
X406765Y313273D03*
X402974D03*
X406765Y308773D03*
X402974D03*
X406275Y339413D03*
X402485D03*
X389188D03*
X392978D03*
X397641D03*
Y335623D03*
X379945Y339413D03*
X384536D03*
Y335623D03*
X402533Y335590D03*
Y339380D03*
X415684Y90913D03*
X419474D03*
X415684Y95613D03*
X419474D03*
X415684Y100213D03*
X419474D03*
X431274Y168323D03*
Y172113D03*
X436174Y161713D03*
X417593Y151825D03*
X421383D03*
X431179Y161708D03*
Y157918D03*
X437474Y201013D03*
X413974Y263113D03*
Y266903D03*
X432934Y348067D03*
X429144D03*
Y339413D03*
Y343203D03*
X434077Y339413D03*
Y335623D03*
X415851Y329790D03*
X419641D03*
X429144Y339413D03*
Y335623D03*
X448289Y71741D03*
X444499D03*
X448318Y67371D03*
X444528D03*
X448289Y75941D03*
X444499D03*
X439965Y161713D03*
X441265Y201013D03*
X441974Y306013D03*
X438184D03*
X442165Y339413D03*
X438374D03*
X445965Y357313D03*
X442174D03*
G54D44*
X102246Y371461D03*
G54D26*
X50814Y207624D03*
Y218647D03*
G54D80*
X372921Y87430D03*
X374890D03*
X376858D03*
X378828D03*
Y64596D03*
X376858D03*
X374890D03*
X372921D03*
G54D71*
X317874Y395222D03*
X307874D03*
X312874D03*
X307874Y416803D03*
X312874D03*
X317874D03*
X322874Y395222D03*
Y416803D03*
G54D35*
X83323Y192922D03*
X80763D03*
X78204D03*
X75645D03*
X73086D03*
X85882D03*
X73086Y215756D03*
X83323D03*
X80763D03*
X85882D03*
X75645D03*
X78204D03*
X91000Y192922D03*
X88441D03*
X91000Y215756D03*
X88441D03*
G54D27*
X39763Y323865D03*
Y320124D03*
X31102D03*
Y323865D03*
X39763Y327605D03*
X31102D03*
G54D63*
X280874Y30513D03*
G54D36*
X71173Y251956D03*
X86528D03*
X83968D03*
X81409D03*
X78850D03*
X76291D03*
X73732D03*
Y274790D03*
X71173D03*
X86528D03*
X83968D03*
X81409D03*
X78850D03*
X76291D03*
X99323Y251956D03*
X94205D03*
X91646D03*
X89087D03*
X96764D03*
Y274790D03*
X94205D03*
X91646D03*
X89087D03*
X99323D03*
G54D18*
X14328Y233513D03*
X8421D03*
X14328Y244513D03*
X8421D03*
X14328Y239013D03*
X8421D03*
X14328Y255513D03*
X8421D03*
X14328Y250013D03*
X8421D03*
X14328Y261013D03*
X8421D03*
X14328Y271813D03*
X8421D03*
X14328Y277313D03*
X8421D03*
X14328Y282613D03*
X8421D03*
X14328Y288013D03*
X8421D03*
X9021Y266513D03*
X14928D03*
X51374Y320060D03*
Y325966D03*
G54D54*
X165300Y174054D03*
X169237D03*
X173174D03*
Y181928D03*
X169237Y177991D03*
X173174Y205550D03*
Y193739D03*
Y185865D03*
X165300Y205550D03*
X169237D03*
X165300Y193739D03*
X169237D03*
X165300Y177991D03*
X173174Y201613D03*
X169237D03*
X165300D03*
X173174Y197676D03*
X169237D03*
X165300D03*
X173174Y189802D03*
X169237D03*
X165300D03*
X169237Y181928D03*
X165300D03*
X169237Y185865D03*
X165300D03*
X173174Y177991D03*
X169237Y221298D03*
X165300D03*
X173174Y229172D03*
X169237D03*
X165300D03*
X173174Y213424D03*
X169237D03*
X165300D03*
X173174Y221298D03*
Y209487D03*
X169237D03*
X165300D03*
X169237Y233110D03*
Y217361D03*
X165300Y233110D03*
Y217361D03*
X173174Y233110D03*
Y217361D03*
X169237Y225235D03*
X165300D03*
X173174D03*
X169237Y244921D03*
X173174D03*
X165300Y237047D03*
X169237D03*
X173174D03*
X165300Y260669D03*
X169237D03*
X173174D03*
X165300Y252795D03*
X169237D03*
X173174D03*
X165300Y244921D03*
X173174Y264606D03*
X169237Y256732D03*
Y240984D03*
X165300Y256732D03*
Y240984D03*
X173174Y256732D03*
Y240984D03*
X169237Y248858D03*
X165300D03*
X173174D03*
X165300Y264606D03*
X169237D03*
X165300Y288228D03*
Y284291D03*
X169237D03*
Y280354D03*
X173174D03*
X169237Y288228D03*
X173174Y276417D03*
Y272480D03*
X169237Y276417D03*
X165300D03*
X173174Y268543D03*
X169237Y272480D03*
X165300D03*
X169237Y268543D03*
X165300D03*
X173174Y288228D03*
X165300Y280354D03*
X173174Y284291D03*
X200733Y174054D03*
X184985D03*
X177111D03*
X181048D03*
X188922D03*
X192859D03*
X196796D03*
X177111Y205550D03*
X181048D03*
X196796D03*
X184985Y201613D03*
X177111Y193739D03*
X184985D03*
X192859D03*
X200733D03*
X181048Y189802D03*
X188922D03*
X196796D03*
X177111Y185865D03*
X184985D03*
X196796D03*
X177111Y181928D03*
X184985D03*
X196796D03*
X184985Y205550D03*
X181048Y201613D03*
Y197676D03*
X184985D03*
X181048Y193739D03*
X188922D03*
X196796D03*
X184985Y189802D03*
X192859D03*
X200733D03*
Y205550D03*
Y177991D03*
X184985D03*
X177111Y201613D03*
Y197676D03*
Y189802D03*
Y177991D03*
X181048Y181928D03*
Y185865D03*
Y177991D03*
X188922Y181928D03*
Y185865D03*
Y177991D03*
X192859Y185865D03*
Y177991D03*
Y181928D03*
X200733D03*
Y185865D03*
X196796Y177991D03*
X181048Y225235D03*
Y229172D03*
X177111D03*
X181048Y213424D03*
X177111D03*
X181048Y217361D03*
X177111Y221298D03*
X181048Y233110D03*
X196796D03*
X200733D03*
X196796Y229172D03*
X200733Y225235D03*
X196796Y221298D03*
X200733Y217361D03*
X196796Y213424D03*
X184985Y209487D03*
X200733D03*
X181048Y221298D03*
X184985Y233110D03*
Y229172D03*
Y217361D03*
Y213424D03*
X181048Y209487D03*
X184985Y225235D03*
Y221298D03*
X200733Y229172D03*
X196796Y225235D03*
X200733Y221298D03*
X196796Y217361D03*
X200733Y213424D03*
X196796Y209487D03*
X177111D03*
Y233110D03*
Y217361D03*
Y225235D03*
Y244921D03*
X181048Y240984D03*
X177111Y237047D03*
Y260669D03*
X181048D03*
Y256732D03*
X177111Y252795D03*
X181048D03*
Y248858D03*
Y237047D03*
X196796D03*
Y244921D03*
X181048Y264606D03*
X200733Y256732D03*
X196796Y252795D03*
X200733Y248858D03*
Y240984D03*
X181048Y244921D03*
X184985Y260669D03*
Y256732D03*
Y252795D03*
Y240984D03*
Y237047D03*
Y248858D03*
Y244921D03*
X196796Y256732D03*
X200733Y252795D03*
X196796Y248858D03*
X200733Y244921D03*
X196796Y240984D03*
X200733Y237047D03*
X184985Y264606D03*
X177111Y256732D03*
Y240984D03*
Y248858D03*
Y264606D03*
X184985Y288228D03*
X177111Y276417D03*
X196796D03*
X177111Y272480D03*
X181048D03*
Y268543D03*
X184985D03*
X188922D03*
X192859D03*
X196796D03*
X200733D03*
X181048Y288228D03*
X192859Y276417D03*
X196796Y284291D03*
Y288228D03*
X192859Y284291D03*
Y288228D03*
X188922Y284291D03*
X184985Y280354D03*
X188922D03*
Y288228D03*
X192859Y280354D03*
X184985Y284291D03*
X200733D03*
Y288228D03*
X177111Y280354D03*
X181048Y276417D03*
X177111Y284291D03*
X181048Y280354D03*
X188922Y272480D03*
X184985D03*
X177111Y288228D03*
X192859Y272480D03*
X184985Y276417D03*
X196796Y272480D03*
X188922Y276417D03*
X200733Y272480D03*
X177111Y268543D03*
X181048Y284291D03*
X200733Y280354D03*
X196796D03*
X200733Y276417D03*
X228293Y174054D03*
X232230D03*
X212544D03*
X208607D03*
X216481D03*
X220418D03*
X224356D03*
X204670D03*
Y205550D03*
X212544D03*
X220418D03*
X224356D03*
X228293D03*
X208607Y193739D03*
X216481D03*
X220418D03*
X228293D03*
X204670Y189802D03*
X212544D03*
X224356D03*
X232230D03*
X208607Y185865D03*
X220418D03*
X232230D03*
X208607Y181928D03*
X220418D03*
X232230D03*
X204670Y193739D03*
X212544D03*
X224356D03*
X232230D03*
X208607Y189802D03*
X216481D03*
X220418D03*
X228293D03*
X208607Y205550D03*
X216481D03*
X232230D03*
X224356Y185865D03*
X232230Y177991D03*
X216481Y181928D03*
X212544D03*
Y177991D03*
X208607D03*
X216481D03*
X220418D03*
X204670Y181928D03*
Y177991D03*
X228293D03*
Y181928D03*
X224356Y177991D03*
Y181928D03*
X228293Y185865D03*
X212544D03*
X216481D03*
X204670D03*
X208607Y233110D03*
X216481D03*
X224356D03*
X232230D03*
X212544Y229172D03*
X220418D03*
X228293D03*
X208607Y225235D03*
X216481D03*
X224356D03*
X232230D03*
X204670Y221298D03*
X212544D03*
X220418D03*
X228293D03*
X208607Y217361D03*
X216481D03*
X224356D03*
X232230D03*
X204670Y213424D03*
X212544D03*
X228293D03*
X208607Y209487D03*
X216481D03*
X224356D03*
X232230D03*
Y229172D03*
X228293Y209487D03*
X204670Y233110D03*
X212544D03*
X220418D03*
X228293D03*
X204670Y229172D03*
X208607D03*
X216481D03*
X224356D03*
X204670Y225235D03*
X212544D03*
X220418D03*
X228293D03*
X208607Y221298D03*
X216481D03*
X224356D03*
X232230D03*
X204670Y217361D03*
X212544D03*
X220418D03*
X228293D03*
X208607Y213424D03*
X216481D03*
X220418D03*
X224356D03*
X232230D03*
X204670Y209487D03*
X212544D03*
X220418D03*
X204670Y237047D03*
X212544D03*
X220418D03*
X228293D03*
X204670Y244921D03*
X212544D03*
X220418D03*
X228293D03*
X208607Y256732D03*
X216481D03*
X220418D03*
X224356D03*
X232230D03*
X204670Y252795D03*
X212544D03*
X220418D03*
X228293D03*
X208607Y248858D03*
X216481D03*
X232230D03*
X208607Y240984D03*
X216481D03*
X224356D03*
X232230D03*
X204670Y256732D03*
X212544D03*
X228293D03*
X208607Y252795D03*
X216481D03*
X224356D03*
X232230D03*
X204670Y248858D03*
X212544D03*
X220418D03*
X224356D03*
X228293D03*
X208607Y244921D03*
X216481D03*
X224356D03*
X232230D03*
X204670Y240984D03*
X212544D03*
X220418D03*
X228293D03*
X208607Y237047D03*
X216481D03*
X224356D03*
X232230D03*
X208607Y284291D03*
X232230Y276417D03*
X216481Y272480D03*
X208607Y268543D03*
X216481D03*
X228293D03*
X204670D03*
X212544D03*
X220418D03*
X224356D03*
X232230D03*
X208607Y288228D03*
X232230Y280354D03*
X216481Y276417D03*
X208607D03*
X212544Y272480D03*
X204670Y288228D03*
Y284291D03*
X228293Y276417D03*
Y288228D03*
Y284291D03*
X232230D03*
Y272480D03*
Y288228D03*
X220418Y276417D03*
X224356Y272480D03*
X220418Y284291D03*
X224356Y276417D03*
X220418Y288228D03*
X224356Y284291D03*
Y280354D03*
X228293Y272480D03*
X224356Y288228D03*
X228293Y280354D03*
X212544Y284291D03*
X216481Y288228D03*
X212544D03*
X216481Y284291D03*
Y280354D03*
X212544D03*
Y276417D03*
X220418Y280354D03*
Y272480D03*
X204670Y280354D03*
Y272480D03*
X208607D03*
X204670Y276417D03*
X208607Y280354D03*
X259789Y174054D03*
X255852D03*
X247978D03*
X244041D03*
X251915D03*
X240104D03*
X236167D03*
Y205550D03*
X244041D03*
X259789Y201613D03*
X236167Y193739D03*
X244041D03*
X251915D03*
X259789D03*
X240104Y189802D03*
X247978D03*
X255852D03*
X247978Y185865D03*
X259789D03*
Y205550D03*
Y197676D03*
X247978Y181928D03*
X240104Y193739D03*
X247978D03*
X255852D03*
X259789Y181928D03*
X236167Y189802D03*
X244041D03*
X251915D03*
X259789D03*
X240104Y205550D03*
X247978D03*
X240104Y181928D03*
X259789Y177991D03*
X255852Y185865D03*
Y181928D03*
Y177991D03*
X236167D03*
X247978D03*
X244041Y181928D03*
Y185865D03*
Y177991D03*
X251915Y185865D03*
Y181928D03*
Y177991D03*
X236167Y181928D03*
X240104Y177991D03*
Y185865D03*
X236167D03*
X247978Y233110D03*
X236167Y229172D03*
X244041D03*
X247978D03*
X259789D03*
X240104Y225235D03*
X247978D03*
X236167Y221298D03*
X244041D03*
X259789D03*
X240104Y217361D03*
X247978D03*
X259789D03*
X236167Y213424D03*
X244041D03*
X240104Y209487D03*
X247978D03*
X259789D03*
Y213424D03*
X236167Y209487D03*
X244041D03*
X236167Y233110D03*
X240104D03*
X244041D03*
X240104Y229172D03*
X236167Y225235D03*
X244041D03*
X240104Y221298D03*
X247978D03*
X236167Y217361D03*
X244041D03*
X259789Y233110D03*
Y225235D03*
X240104Y213424D03*
X247978D03*
Y240984D03*
X236167Y237047D03*
X244041D03*
X259789D03*
Y260669D03*
X236167Y244921D03*
X240104Y256732D03*
X247978D03*
X244041Y244921D03*
X236167Y252795D03*
X244041D03*
X259789D03*
X240104Y248858D03*
Y240984D03*
X247978Y248858D03*
X259789Y244921D03*
X236167Y256732D03*
X244041D03*
X240104Y252795D03*
X247978D03*
X236167Y248858D03*
X244041D03*
X240104Y244921D03*
X247978D03*
X236167Y240984D03*
X244041D03*
X240104Y237047D03*
X247978D03*
X259789Y256732D03*
Y248858D03*
Y240984D03*
Y264606D03*
X251915Y284291D03*
X236167Y268543D03*
X244041D03*
X251915D03*
X259789D03*
X240104D03*
X247978D03*
X255852D03*
X251915Y280354D03*
X244041Y288228D03*
X236167D03*
Y284291D03*
Y280354D03*
Y276417D03*
X240104D03*
Y280354D03*
Y284291D03*
X244041D03*
Y280354D03*
Y276417D03*
Y272480D03*
X240104D03*
X247978Y288228D03*
Y284291D03*
Y280354D03*
Y276417D03*
X251915Y288228D03*
X247978Y272480D03*
X255852Y288228D03*
X251915Y276417D03*
X240104Y288228D03*
X255852Y284291D03*
X251915Y272480D03*
X255852Y280354D03*
X259789Y288228D03*
X255852Y276417D03*
X259789Y284291D03*
X255852Y272480D03*
X259789Y280354D03*
Y276417D03*
Y272480D03*
X236167D03*
X279474Y174054D03*
X275537D03*
X263726D03*
X267663D03*
X271600D03*
X263726Y205550D03*
X267663D03*
X263726Y197676D03*
X267663Y193739D03*
X263726Y189802D03*
X267663Y185865D03*
X271600Y181928D03*
X275537Y177991D03*
X271600Y205550D03*
X263726Y201613D03*
Y193739D03*
X271600D03*
Y185865D03*
X267663Y181928D03*
X279474Y177991D03*
Y193739D03*
X275537D03*
X279474Y205550D03*
X275537D03*
Y197676D03*
X279474D03*
X267663Y201613D03*
X271600D03*
X275537D03*
X279474D03*
X263726Y185865D03*
Y181928D03*
Y177991D03*
X267663D03*
X271600D03*
X279474Y181928D03*
X275537D03*
Y185865D03*
X279474D03*
X271600Y189802D03*
X267663D03*
X275537D03*
X279474D03*
X267663Y197676D03*
X271600D03*
X275537Y225235D03*
X263726Y209487D03*
X279474Y225235D03*
X263726Y217361D03*
X267663D03*
X271600D03*
X275537D03*
X263726Y213424D03*
X267663D03*
X271600D03*
X275537D03*
X267663Y209487D03*
X271600D03*
X275537D03*
X279474D03*
Y217361D03*
Y213424D03*
X271600Y233110D03*
X279474D03*
X267663D03*
X263726D03*
X271600Y221298D03*
X275537D03*
X279474D03*
X263726Y225235D03*
X267663D03*
X271600D03*
X267663Y229172D03*
X271600D03*
X263726Y221298D03*
X267663D03*
X275537Y229172D03*
X279474D03*
X275537Y233110D03*
X263726Y229172D03*
X271600Y237047D03*
X267663Y248858D03*
X275537Y260669D03*
X267663D03*
X279474D03*
X271600Y248858D03*
X275537Y237047D03*
X263726Y244921D03*
Y264606D03*
X271600D03*
X275537D03*
X279474D03*
X263726Y260669D03*
X267663Y264606D03*
X271600Y256732D03*
Y252795D03*
X263726Y248858D03*
X267663Y252795D03*
X271600Y260669D03*
X275537Y248858D03*
X279474D03*
Y256732D03*
X275537Y252795D03*
X279474D03*
X263726D03*
X267663Y256732D03*
X275537D03*
X263726D03*
X275537Y244921D03*
X279474D03*
X263726Y240984D03*
X267663D03*
X271600D03*
X275537D03*
X279474D03*
X263726Y237047D03*
X267663Y244921D03*
X271600D03*
X267663Y237047D03*
X279474D03*
X275537Y288228D03*
Y284291D03*
X271600Y280354D03*
X267663Y276417D03*
X263726Y272480D03*
X271600Y284291D03*
X263726Y268543D03*
X279474Y288228D03*
Y284291D03*
X267663Y268543D03*
X271600Y272480D03*
X275537Y276417D03*
X279474Y280354D03*
Y276417D03*
X263726Y288228D03*
Y284291D03*
X267663Y288228D03*
X271600Y268543D03*
X263726Y280354D03*
X267663Y284291D03*
X263726Y276417D03*
X271600Y288228D03*
X267663Y280354D03*
Y272480D03*
X271600Y276417D03*
X275537Y280354D03*
Y272480D03*
X279474D03*
Y268543D03*
X275537D03*
G54D45*
X117638Y387513D03*
X104257D03*
G54D81*
X368689Y66170D03*
Y68139D03*
Y70107D03*
Y72076D03*
Y74044D03*
Y76013D03*
Y77981D03*
Y79950D03*
Y81918D03*
Y83887D03*
Y85855D03*
X383059D03*
Y83887D03*
Y81918D03*
Y79950D03*
Y77981D03*
Y76013D03*
Y74044D03*
Y72076D03*
Y70107D03*
Y68139D03*
Y66170D03*
G54D90*
X406336Y255481D03*
Y241544D03*
X408895Y255481D03*
X411454D03*
X414013D03*
Y241544D03*
X411454D03*
X408895D03*
G54D72*
X351338Y15040D03*
Y37520D03*
G54D28*
X84492Y29753D03*
Y22273D03*
X74256D03*
Y26013D03*
Y29753D03*
X87256Y82753D03*
Y75273D03*
X97493D03*
Y82753D03*
Y79013D03*
G54D46*
X109801Y398279D03*
Y403279D03*
Y408279D03*
G54D37*
X86021Y290561D03*
Y283869D03*
X70521Y290561D03*
X79969D03*
Y283869D03*
X70521D03*
X95469Y290561D03*
Y283869D03*
G54D19*
X28259Y261335D03*
Y263304D03*
Y273146D03*
Y267241D03*
Y279052D03*
Y288894D03*
Y292831D03*
Y290863D03*
Y286926D03*
Y284957D03*
Y282989D03*
Y281020D03*
Y277083D03*
Y275115D03*
Y271178D03*
Y269209D03*
Y265272D03*
Y294800D03*
Y300705D03*
Y306611D03*
Y304642D03*
Y302674D03*
Y298737D03*
Y296768D03*
X57785Y261335D03*
Y263304D03*
Y273146D03*
Y267241D03*
Y288894D03*
Y279052D03*
Y292831D03*
Y290863D03*
Y286926D03*
Y284957D03*
Y282989D03*
Y281020D03*
Y277083D03*
Y275115D03*
Y271178D03*
Y269209D03*
Y265272D03*
Y294800D03*
Y300705D03*
Y306611D03*
Y304642D03*
Y302674D03*
Y298737D03*
Y296768D03*
G54D73*
X347100Y44530D03*
Y57130D03*
G54D91*
X406293Y290653D03*
Y286913D03*
Y283173D03*
X396057D03*
Y286913D03*
Y290653D03*
G54D82*
X358584Y110297D03*
X354584D03*
X352584D03*
X350584D03*
X356584D03*
X350584Y121897D03*
X358584D03*
X352584D03*
X354584D03*
X356584D03*
G54D55*
X173900Y339295D03*
Y359767D03*
X156097Y391668D03*
Y412140D03*
G54D64*
X274480Y336295D03*
X288654D03*
X285504D03*
X280780D03*
X276055D03*
X290228D03*
X287079D03*
X282354D03*
X277630D03*
X283929D03*
X279205D03*
X276055Y376295D03*
X279205D03*
X283929D03*
X288654D03*
X274480D03*
X277630D03*
X282354D03*
X287079D03*
X280780D03*
X285504D03*
X290228D03*
X307551Y336295D03*
X304402D03*
X301252D03*
X296528D03*
X291803D03*
X305976D03*
X302827D03*
X298102D03*
X293378D03*
X299677D03*
X294953D03*
X305976Y376295D03*
X307551D03*
X291803D03*
X294953D03*
X299677D03*
X304402D03*
X293378D03*
X298102D03*
X302827D03*
X296528D03*
X301252D03*
G54D38*
X73671Y290561D03*
X76820D03*
Y283869D03*
X73671D03*
X89171Y290561D03*
X92320D03*
Y283869D03*
X89171D03*
G54D29*
X67311Y22513D03*
X59437D03*
G54D74*
X343874Y71960D03*
Y96566D03*
G54D92*
X400037Y351097D03*
X402006D03*
X405943D03*
X407911D03*
X384137D03*
X386106D03*
X390043D03*
X392011D03*
X400037Y354128D03*
X407911D03*
X405943D03*
X402006D03*
X384137D03*
X392011D03*
X390043D03*
X386106D03*
G54D83*
X379974Y120863D03*
X408474D03*
X390774D03*
X419274D03*
G54D56*
X204363Y33013D03*
X215386D03*
G54D65*
X271016Y350783D03*
Y349209D03*
Y347634D03*
Y346059D03*
Y344484D03*
Y341335D03*
Y339760D03*
Y342909D03*
Y364957D03*
Y366531D03*
Y363382D03*
Y358657D03*
Y371256D03*
Y369681D03*
Y372831D03*
Y352358D03*
Y353933D03*
Y357083D03*
Y355508D03*
Y361807D03*
Y360232D03*
Y368106D03*
X311016Y346059D03*
Y347634D03*
Y339760D03*
Y341335D03*
Y342909D03*
Y344484D03*
Y349209D03*
Y350783D03*
Y364957D03*
Y361807D03*
Y358657D03*
Y357083D03*
Y355508D03*
Y353933D03*
Y352358D03*
Y363382D03*
Y360232D03*
Y372831D03*
Y369681D03*
Y371256D03*
Y366531D03*
Y368106D03*
G54D47*
X117383Y405779D03*
G54D93*
X403974Y351097D03*
X388074D03*
X403974Y354128D03*
X388074D03*
G54D48*
X138918Y27013D03*
X131832D03*
G54D57*
X201713Y353874D03*
X199154D03*
X196594D03*
X194035D03*
Y336551D03*
X196594D03*
X199154D03*
X201713D03*
G54D75*
X354584Y116097D03*
G54D66*
X291016Y356295D03*
G54D39*
X83890Y320783D03*
Y316846D03*
X81921Y322752D03*
Y320783D03*
Y318815D03*
Y316846D03*
X79953Y322752D03*
Y320783D03*
Y318815D03*
Y314878D03*
Y316846D03*
X81921Y314878D03*
X83890D03*
Y318815D03*
Y322752D03*
X85858Y314878D03*
Y316846D03*
Y318815D03*
Y320783D03*
X79953Y324720D03*
X83890D03*
X81921D03*
X79953Y326689D03*
Y328657D03*
Y330626D03*
Y332594D03*
Y334563D03*
Y336531D03*
Y338500D03*
Y340468D03*
X81921Y326689D03*
Y328657D03*
Y330626D03*
Y332594D03*
Y334563D03*
Y336531D03*
Y338500D03*
Y340468D03*
X83890Y326689D03*
Y328657D03*
Y330626D03*
Y332594D03*
Y334563D03*
Y336531D03*
Y338500D03*
Y340468D03*
X85858Y336531D03*
Y338500D03*
Y340468D03*
X105543Y320783D03*
X103575Y322752D03*
Y316846D03*
X95701Y322752D03*
X91764D03*
X105543D03*
Y318815D03*
X103575Y320783D03*
X101606D03*
X89795Y322752D03*
X97669D03*
X93732D03*
X101606D03*
X87827Y314878D03*
Y316846D03*
Y318815D03*
Y322752D03*
X89795Y314878D03*
Y316846D03*
Y318815D03*
X91764Y314878D03*
Y316846D03*
Y318815D03*
X93732Y314878D03*
Y316846D03*
Y318815D03*
X95701Y314878D03*
Y316846D03*
Y318815D03*
X97669Y314878D03*
Y316846D03*
Y318815D03*
X99638Y314878D03*
Y316846D03*
Y318815D03*
X101606Y314878D03*
Y316846D03*
Y318815D03*
X103575Y314878D03*
Y318815D03*
X105543Y314878D03*
Y316846D03*
Y324720D03*
X97669Y328657D03*
X93732Y332594D03*
X87827Y326689D03*
X97669Y330626D03*
X95701Y332594D03*
X87827Y324720D03*
X101606D03*
X87827Y328657D03*
Y330626D03*
Y332594D03*
Y336531D03*
Y338500D03*
Y340468D03*
X89795Y332594D03*
Y336531D03*
Y338500D03*
Y340468D03*
X91764Y332594D03*
Y336531D03*
Y338500D03*
Y340468D03*
X93732Y336531D03*
Y338500D03*
Y340468D03*
X95701Y336531D03*
Y338500D03*
Y340468D03*
X97669Y324720D03*
Y326689D03*
Y332594D03*
Y336531D03*
Y338500D03*
Y340468D03*
X99638Y336531D03*
Y338500D03*
Y340468D03*
X101606Y326689D03*
Y328657D03*
Y330626D03*
Y332594D03*
Y334563D03*
Y336531D03*
Y338500D03*
Y340468D03*
X103575Y324720D03*
Y326689D03*
Y328657D03*
Y330626D03*
Y332594D03*
Y334563D03*
Y336531D03*
Y338500D03*
Y340468D03*
X105543Y326689D03*
Y328657D03*
Y330626D03*
Y332594D03*
Y334563D03*
Y336531D03*
Y338500D03*
Y340468D03*
G54D84*
X377675Y169514D03*
Y182112D03*
X366155Y316110D03*
X376155D03*
X371155D03*
X376155Y328708D03*
X371155D03*
X366155D03*
X382675Y169514D03*
X387675D03*
Y182112D03*
X382675D03*
G54D85*
X378000Y364646D03*
X374000D03*
X406000D03*
X402000D03*
X398000D03*
X394000D03*
X390000D03*
X386000D03*
X382000D03*
X426000D03*
X422000D03*
X418000D03*
X414000D03*
X410000D03*
G54D58*
X211786Y350402D03*
Y340402D03*
Y360402D03*
X241315Y340402D03*
Y350402D03*
Y360402D03*
G54D49*
X118374Y48470D03*
Y55556D03*
G54D94*
X412509Y71861D03*
Y69302D03*
Y76980D03*
Y74421D03*
X435738Y76980D03*
Y74421D03*
Y71861D03*
Y69302D03*
G54D76*
X346573Y259710D03*
X340274Y256561D03*
X349723Y253411D03*
X343424D03*
X340274Y247112D03*
X349723Y243962D03*
X340274D03*
X343424D03*
X346573D03*
X340274Y240813D03*
Y259710D03*
Y253411D03*
X346573Y240813D03*
X349723D03*
X343424Y237663D03*
Y240813D03*
X349723Y256561D03*
Y259710D03*
X340274Y237663D03*
X346573D03*
X349723D03*
Y262860D03*
X346573D03*
X343424D03*
X340274D03*
X349723Y250262D03*
Y247112D03*
X346573Y250262D03*
Y247112D03*
X343424Y250262D03*
Y247112D03*
X340274Y250262D03*
X346573Y253411D03*
Y256561D03*
X343424D03*
Y259710D03*
Y272309D03*
X340274D03*
Y266010D03*
X349723Y269159D03*
X340274D03*
X343424D03*
X346573D03*
X349723Y272309D03*
X346573D03*
X349723Y266010D03*
X346573D03*
X343424D03*
X356022Y259710D03*
Y253411D03*
X371770Y262860D03*
X359172Y259710D03*
X368621D03*
X371770D03*
X368621Y253411D03*
X352873Y243962D03*
X356022D03*
X371770D03*
Y240813D03*
X374920D03*
X359172Y237663D03*
X352873Y240813D03*
X368621Y250262D03*
X371770Y253411D03*
X368621Y247112D03*
Y262860D03*
X371770Y247112D03*
Y250262D03*
X368621Y256561D03*
X362321Y237663D03*
X365471Y259710D03*
X352873Y237663D03*
X356022D03*
X365471Y243962D03*
X362321Y259710D03*
X365471Y262860D03*
X362321D03*
X371770Y256561D03*
X352873D03*
X356022D03*
X374920D03*
Y243962D03*
Y247112D03*
Y250262D03*
Y253411D03*
X368621Y237663D03*
X365471D03*
X371770D03*
X374920D03*
Y259710D03*
Y262860D03*
X352873D03*
X356022D03*
X352873Y259710D03*
X356022Y247112D03*
X352873Y250262D03*
Y247112D03*
X356022Y250262D03*
X352873Y253411D03*
X365471Y240813D03*
X362321D03*
X359172D03*
X356022D03*
X362321Y256561D03*
X359172D03*
X365471D03*
Y253411D03*
X362321D03*
X359172D03*
Y250262D03*
X362321D03*
X365471D03*
Y247112D03*
X362321D03*
X359172D03*
Y243962D03*
X362321D03*
X359172Y262860D03*
X368621Y243962D03*
Y240813D03*
X359172Y272309D03*
X352873Y269159D03*
X356022D03*
X368621D03*
X371770D03*
Y266010D03*
X368621D03*
X365471D03*
X362321Y272309D03*
X356022D03*
X352873D03*
X359172Y266010D03*
Y269159D03*
X368621Y272309D03*
X365471D03*
X374920Y266010D03*
Y269159D03*
Y272309D03*
X371770D03*
X362321Y266010D03*
X365471Y269159D03*
X356022Y266010D03*
X352873D03*
X362321Y269159D03*
G54D67*
X277974Y400276D03*
Y408150D03*
G54D95*
X419474Y168092D03*
X417733Y345972D03*
G54D59*
X230539Y403678D03*
Y393639D03*
G54D68*
X282674Y405435D03*
Y408191D03*
G54D86*
X366496Y417323D03*
X433504D03*
G54D77*
X345875Y347509D03*
X345874Y378009D03*
X345875Y364516D03*
X345874Y395017D03*
G54D69*
X319464Y23719D03*
X337179D03*
G54D78*
X332374Y351135D03*
Y381635D03*
Y353891D03*
Y358135D03*
Y360891D03*
Y388635D03*
Y391391D03*
Y384391D03*
G54D96*
X413574Y161533D03*
X425374D03*
X411833Y339413D03*
X423633D03*
G54D87*
X385444Y110663D03*
X406704D03*
Y108163D03*
Y105663D03*
Y103163D03*
Y100663D03*
Y98163D03*
Y95663D03*
X385444Y93163D03*
Y95663D03*
Y98163D03*
Y100663D03*
Y103163D03*
Y105663D03*
Y108163D03*
X406704Y93163D03*
G54D88*
X401576Y145013D03*
Y135013D03*
Y140013D03*
X414173Y135013D03*
Y140013D03*
Y145013D03*
X417076Y201013D03*
X429673D03*
X417076Y206013D03*
X429673D03*
X417076Y211013D03*
X429673D03*
X417976Y316023D03*
Y306023D03*
X430573D03*
Y311023D03*
Y316023D03*
X417976Y311023D03*
G54D97*
X421683Y225033D03*
Y232513D03*
G54D79*
X345875Y356013D03*
X345874Y386513D03*
G54D89*
X385374Y126863D03*
X413874D03*
X446424Y161713D03*
X446024Y201013D03*
X447024Y306013D03*
X446924Y339413D03*
G54D98*
X434150Y222690D03*
Y287336D03*
X454347Y222690D03*
Y287336D03*
G54D99*
X431374Y232513D03*
X436374D03*
X431374Y262513D03*
Y257513D03*
Y252513D03*
Y247513D03*
Y242513D03*
Y237513D03*
X436374Y262513D03*
Y257513D03*
Y252513D03*
Y247513D03*
Y242513D03*
Y237513D03*
X431374Y277513D03*
Y272513D03*
Y267513D03*
X436374Y277513D03*
Y272513D03*
Y267513D03*
M02*
