G04 ================== begin FILE IDENTIFICATION RECORD ==================*
G04 Layout Name:  CONTROLLER_REV_B-08042023.brd*
G04 Film Name:    OC - FEMA - CNTRLR-v1-Rev-C-ASB.gbr*
G04 File Format:  Gerber RS274X*
G04 File Origin:  Cadence Allegro 17.2-061*
G04 Origin Date:  Sun Apr 09 12:44:52 2023*
G04 *
G04 Layer:  DRAWING FORMAT/TITLE_DATA1*
G04 Layer:  BOARD GEOMETRY/ASSEMBLY_BOTTOM*
G04 Layer:  REF DES/ASSEMBLY_BOTTOM*
G04 Layer:  PACKAGE GEOMETRY/ASSEMBLY_BOTTOM*
G04 Layer:  DRAWING FORMAT/ASSE*
G04 Layer:  DRAWING FORMAT/FILM_LABEL_OUTLINE*
G04 Layer:  BOARD GEOMETRY/OUTLINE*
G04 *
G04 Offset:    (0.000 0.000)*
G04 Mirror:    Yes*
G04 Mode:      Positive*
G04 Rotation:  0*
G04 FullContactRelief:  No*
G04 UndefLineWidth:     6.000*
G04 ================== end FILE IDENTIFICATION RECORD ====================*
%FSLAX55Y55*MOIN*%
%IR0*IPPOS*OFA0.00000B0.00000*MIA1B0*SFA1.00000B1.00000*%
%ADD10C,.002*%
%ADD11C,.005*%
%ADD12C,.006*%
%ADD13C,.008*%
%ADD14C,.002008*%
%ADD15C,.004016*%
%ADD16C,.00591*%
%ADD17C,.005902*%
%ADD18C,.005906*%
%ADD19C,.007874*%
%ADD20C,.019685*%
G75*
%LPD*%
G75*
G36*
G01X10500Y187500D02*
G03I-1000J0D01*
G37*
G36*
G01X13253Y57743D02*
G03I-1000J0D01*
G37*
G36*
G01X95813Y719616D02*
Y720116D01*
X93813D01*
Y722616D01*
X93313D01*
Y720116D01*
X89770Y722616D01*
Y720116D01*
X87270D01*
Y719616D01*
X89770D01*
Y717116D01*
X93313Y719616D01*
Y717116D01*
X93813D01*
Y719616D01*
X95813D01*
G37*
G36*
G01X109770Y509750D02*
Y510250D01*
X107770D01*
Y512750D01*
X107270D01*
Y510250D01*
X103730Y512750D01*
Y510250D01*
X101230D01*
Y509750D01*
X103730D01*
Y507250D01*
X107270Y509750D01*
Y507250D01*
X107770D01*
Y509750D01*
X109770D01*
G37*
G36*
G01X93810Y719112D02*
Y719612D01*
X95215Y717797D01*
Y719030D01*
X97361Y716341D01*
Y715841D01*
X95565Y718093D01*
Y716849D01*
X93810Y719112D01*
G37*
G36*
G01X129160Y719104D02*
Y719604D01*
X130569Y717790D01*
Y719018D01*
X132711Y716329D01*
Y715829D01*
X130916Y718081D01*
Y716841D01*
X129160Y719104D01*
G37*
G36*
G01X131164Y719608D02*
Y720108D01*
X129164D01*
Y722608D01*
X128664D01*
Y720108D01*
X125120Y722608D01*
Y720108D01*
X122620D01*
Y719608D01*
X125120D01*
Y717108D01*
X128664Y719608D01*
Y717108D01*
X129164D01*
Y719608D01*
X131164D01*
G37*
G36*
G01X145230Y347250D02*
Y346750D01*
X147230D01*
Y344250D01*
X147730D01*
Y346750D01*
X151270Y344250D01*
Y346750D01*
X153770D01*
Y347250D01*
X151270D01*
Y349750D01*
X147730Y347250D01*
Y349750D01*
X147230D01*
Y347250D01*
X145230D01*
G37*
G54D10*
G01X140360Y348770D02*
Y345230D01*
X135240D01*
Y348770D01*
X140360D01*
G54D20*
G01X-585779Y292297D02*
X-566094D01*
G01X240993Y-292348D02*
Y-272663D01*
G01Y876943D02*
Y857258D01*
G01X1067765Y292297D02*
X1048080D01*
G54D11*
G01X16233Y51100D02*
X16025Y50800D01*
X15775Y50600D01*
X15483Y50500D01*
X15150Y50600D01*
X14900Y50800D01*
X14650Y51100D01*
X14567Y51500D01*
Y53500D01*
G01X13333Y50500D02*
Y53500D01*
X12333D01*
X12000Y53350D01*
X11750Y53000D01*
X11667Y52600D01*
X11750Y52200D01*
X11958Y51900D01*
X12333Y51750D01*
X13333D01*
G01X10392Y53000D02*
X10142Y53300D01*
X9850Y53450D01*
X9517Y53500D01*
X9100Y53400D01*
X8808Y53150D01*
X8725Y52850D01*
X8767Y52550D01*
X8933Y52300D01*
X9767Y51800D01*
X10142Y51450D01*
X10392Y50950D01*
X10475Y50500D01*
X8725D01*
G01X5000Y66317D02*
X8000D01*
Y67358D01*
X7850Y67692D01*
X7650Y67900D01*
X7250Y67983D01*
X6850Y67900D01*
X6600Y67650D01*
X6450Y67358D01*
Y66317D01*
G01Y67358D02*
X5000Y67983D01*
G01Y70050D02*
X8000D01*
X7400Y69550D01*
G01X5000D02*
Y70550D01*
G01X5600Y72033D02*
X5250Y72283D01*
X5050Y72617D01*
X5000Y72992D01*
X5050Y73325D01*
X5300Y73658D01*
X5600Y73867D01*
X5900Y73908D01*
X6250Y73825D01*
X6500Y73533D01*
X6600Y73242D01*
Y72867D01*
G01Y73242D02*
X6750Y73492D01*
X7000Y73700D01*
X7300Y73783D01*
X7600Y73700D01*
X7850Y73492D01*
X8000Y73117D01*
X7950Y72742D01*
X7750Y72367D01*
G01X5000Y75767D02*
X5650Y75850D01*
X6200Y75975D01*
X6700Y76142D01*
X7250Y76350D01*
X8000Y76683D01*
Y75017D01*
G01X9220Y69530D02*
Y73470D01*
X11180D01*
Y69530D01*
X9220D01*
G01X20183Y65500D02*
Y68500D01*
X19142D01*
X18808Y68350D01*
X18600Y68150D01*
X18517Y67750D01*
X18600Y67350D01*
X18850Y67100D01*
X19142Y66950D01*
X20183D01*
G01X19142D02*
X18517Y65500D01*
G01X16450D02*
Y68500D01*
X16950Y67900D01*
G01Y65500D02*
X15950D01*
G01X14467Y66100D02*
X14217Y65750D01*
X13883Y65550D01*
X13508Y65500D01*
X13175Y65550D01*
X12842Y65800D01*
X12633Y66100D01*
X12592Y66400D01*
X12675Y66750D01*
X12967Y67000D01*
X13258Y67100D01*
X13633D01*
G01X13258D02*
X13008Y67250D01*
X12800Y67500D01*
X12717Y67800D01*
X12800Y68100D01*
X13008Y68350D01*
X13383Y68500D01*
X13758Y68450D01*
X14133Y68250D01*
G01X11358Y65850D02*
X11067Y65600D01*
X10733Y65500D01*
X10400Y65600D01*
X10108Y65900D01*
X9900Y66350D01*
X9817Y66800D01*
Y67350D01*
X9900Y67800D01*
X10108Y68200D01*
X10358Y68400D01*
X10650Y68500D01*
X10983Y68400D01*
X11233Y68200D01*
X11400Y67900D01*
X11483Y67500D01*
X11400Y67150D01*
X11192Y66800D01*
X10942Y66600D01*
X10650Y66550D01*
X10317Y66650D01*
X10067Y66900D01*
X9817Y67350D01*
G01X6250Y79517D02*
X6400Y79267D01*
X6500Y78975D01*
Y78642D01*
X6350Y78267D01*
X6100Y77975D01*
X5800Y77767D01*
X5300Y77600D01*
X4850Y77558D01*
X4400Y77642D01*
X4100Y77767D01*
X3800Y78017D01*
X3600Y78308D01*
X3500Y78600D01*
Y78892D01*
X3600Y79183D01*
X3750Y79433D01*
X3950Y79642D01*
G01Y80583D02*
X3700Y80833D01*
X3550Y81125D01*
X3500Y81500D01*
X3600Y81875D01*
X3800Y82167D01*
X4150Y82375D01*
X4550Y82417D01*
X4950Y82333D01*
X5200Y82125D01*
X5400Y81833D01*
X5450Y81542D01*
X5400Y81250D01*
X5200Y80875D01*
X6500Y81000D01*
Y82125D01*
G01X3950Y83483D02*
X3700Y83733D01*
X3550Y84025D01*
X3500Y84400D01*
X3600Y84775D01*
X3800Y85067D01*
X4150Y85275D01*
X4550Y85317D01*
X4950Y85233D01*
X5200Y85025D01*
X5400Y84733D01*
X5450Y84442D01*
X5400Y84150D01*
X5200Y83775D01*
X6500Y83900D01*
Y85025D01*
G01X7516Y78841D02*
Y82777D01*
X9484D01*
Y78841D01*
X7516D01*
G01X6400Y94217D02*
X9400D01*
Y95258D01*
X9250Y95592D01*
X9050Y95800D01*
X8650Y95883D01*
X8250Y95800D01*
X8000Y95550D01*
X7850Y95258D01*
Y94217D01*
G01Y95258D02*
X6400Y95883D01*
G01Y97950D02*
X9400D01*
X8800Y97450D01*
G01X6400D02*
Y98450D01*
G01X7000Y99933D02*
X6650Y100183D01*
X6450Y100517D01*
X6400Y100892D01*
X6450Y101225D01*
X6700Y101558D01*
X7000Y101767D01*
X7300Y101808D01*
X7650Y101725D01*
X7900Y101433D01*
X8000Y101142D01*
Y100767D01*
G01Y101142D02*
X8150Y101392D01*
X8400Y101600D01*
X8700Y101683D01*
X9000Y101600D01*
X9250Y101392D01*
X9400Y101017D01*
X9350Y100642D01*
X9150Y100267D01*
G01X7650Y102958D02*
X8000Y103250D01*
X8200Y103500D01*
X8300Y103833D01*
X8200Y104125D01*
X8000Y104333D01*
X7700Y104500D01*
X7350Y104542D01*
X7050Y104500D01*
X6750Y104333D01*
X6500Y104083D01*
X6400Y103792D01*
X6500Y103458D01*
X6800Y103167D01*
X7250Y103000D01*
X7750Y102958D01*
X8400Y103042D01*
X8750Y103167D01*
X9100Y103375D01*
X9350Y103667D01*
X9400Y103958D01*
X9300Y104250D01*
X9050Y104458D01*
G01X10220Y96530D02*
Y100470D01*
X12180D01*
Y96530D01*
X10220D01*
G01X20383Y101400D02*
Y104400D01*
X19342D01*
X19008Y104250D01*
X18800Y104050D01*
X18717Y103650D01*
X18800Y103250D01*
X19050Y103000D01*
X19342Y102850D01*
X20383D01*
G01X19342D02*
X18717Y101400D01*
G01X16650D02*
Y104400D01*
X17150Y103800D01*
G01Y101400D02*
X16150D01*
G01X14667Y102000D02*
X14417Y101650D01*
X14083Y101450D01*
X13708Y101400D01*
X13375Y101450D01*
X13042Y101700D01*
X12833Y102000D01*
X12792Y102300D01*
X12875Y102650D01*
X13167Y102900D01*
X13458Y103000D01*
X13833D01*
G01X13458D02*
X13208Y103150D01*
X13000Y103400D01*
X12917Y103700D01*
X13000Y104000D01*
X13208Y104250D01*
X13583Y104400D01*
X13958Y104350D01*
X14333Y104150D01*
G01X11767Y101850D02*
X11517Y101600D01*
X11225Y101450D01*
X10850Y101400D01*
X10475Y101500D01*
X10183Y101700D01*
X9975Y102050D01*
X9933Y102450D01*
X10017Y102850D01*
X10225Y103100D01*
X10517Y103300D01*
X10808Y103350D01*
X11100Y103300D01*
X11475Y103100D01*
X11350Y104400D01*
X10225D01*
G01X17900Y116600D02*
Y113600D01*
G01X18858Y116600D02*
X16942D01*
G01X15833Y113600D02*
Y116600D01*
X14833D01*
X14500Y116450D01*
X14250Y116100D01*
X14167Y115700D01*
X14250Y115300D01*
X14458Y115000D01*
X14833Y114850D01*
X15833D01*
G01X13017Y114050D02*
X12767Y113800D01*
X12475Y113650D01*
X12100Y113600D01*
X11725Y113700D01*
X11433Y113900D01*
X11225Y114250D01*
X11183Y114650D01*
X11267Y115050D01*
X11475Y115300D01*
X11767Y115500D01*
X12058Y115550D01*
X12350Y115500D01*
X12725Y115300D01*
X12600Y116600D01*
X11475D01*
G01X13937Y154285D02*
G03I-3150J0D01*
G01Y164085D02*
G03I-3150J0D01*
G01X14000Y191000D02*
X4000D01*
Y171000D01*
X14000D01*
Y184000D01*
X12000Y185600D01*
X14000Y187400D01*
Y191000D01*
G01X12733Y180100D02*
X12525Y179800D01*
X12275Y179600D01*
X11983Y179500D01*
X11650Y179600D01*
X11400Y179800D01*
X11150Y180100D01*
X11067Y180500D01*
Y182500D01*
G01X9833Y179500D02*
Y182500D01*
X8833D01*
X8500Y182350D01*
X8250Y182000D01*
X8167Y181600D01*
X8250Y181200D01*
X8458Y180900D01*
X8833Y180750D01*
X9833D01*
G01X6100Y179500D02*
Y182500D01*
X6600Y181900D01*
G01Y179500D02*
X5600D01*
G01X14148Y290145D02*
Y250145D01*
X4148D01*
Y290145D01*
X14148D01*
G01X11483Y292000D02*
X11275Y291700D01*
X11025Y291500D01*
X10733Y291400D01*
X10400Y291500D01*
X10150Y291700D01*
X9900Y292000D01*
X9817Y292400D01*
Y294400D01*
G01X7250Y291400D02*
Y294400D01*
X8792Y292250D01*
X6708D01*
G01X4185Y382580D02*
Y356989D01*
X29776D01*
Y382580D01*
X4185D01*
G01X6379Y397395D02*
G03I-1581J0D01*
G01X4797Y398895D02*
Y395895D01*
G01X3297Y397395D02*
X6297D01*
G01X12408Y409322D02*
X30124D01*
Y387668D01*
X12408D01*
X8471Y391605D01*
Y405385D01*
X12408Y409322D01*
G01X44004Y454965D02*
X10539D01*
Y421500D01*
X44004D01*
Y454965D01*
G01X9472Y438632D02*
X5472D01*
G01X9533D02*
G03I-2062J0D01*
G01X44004Y491965D02*
X10539D01*
Y458500D01*
X44004D01*
Y491965D01*
G01X9372Y474832D02*
X5372D01*
G01X9433D02*
G03I-2062J0D01*
G01X32239Y522354D02*
X8223D01*
Y502275D01*
X32239D01*
Y522354D01*
G01X32335Y548144D02*
X8320D01*
Y528065D01*
X32335D01*
Y548144D01*
G01X22500Y64817D02*
X25500D01*
Y65858D01*
X25350Y66192D01*
X25150Y66400D01*
X24750Y66483D01*
X24350Y66400D01*
X24100Y66150D01*
X23950Y65858D01*
Y64817D01*
G01Y65858D02*
X22500Y66483D01*
G01Y68550D02*
X25500D01*
X24900Y68050D01*
G01X22500D02*
Y69050D01*
G01X23100Y70533D02*
X22750Y70783D01*
X22550Y71117D01*
X22500Y71492D01*
X22550Y71825D01*
X22800Y72158D01*
X23100Y72367D01*
X23400Y72408D01*
X23750Y72325D01*
X24000Y72033D01*
X24100Y71742D01*
Y71367D01*
G01Y71742D02*
X24250Y71992D01*
X24500Y72200D01*
X24800Y72283D01*
X25100Y72200D01*
X25350Y71992D01*
X25500Y71617D01*
X25450Y71242D01*
X25250Y70867D01*
G01X22500Y74350D02*
X22550Y74642D01*
X22700Y74975D01*
X22950Y75183D01*
X23300Y75267D01*
X23650Y75183D01*
X23950Y74933D01*
X24100Y74558D01*
Y74142D01*
X24200Y73892D01*
X24450Y73683D01*
X24800Y73600D01*
X25150Y73725D01*
X25400Y74017D01*
X25500Y74350D01*
X25400Y74683D01*
X25150Y74975D01*
X24800Y75100D01*
X24450Y75017D01*
X24200Y74808D01*
X24100Y74558D01*
Y74142D01*
X23950Y73767D01*
X23650Y73517D01*
X23300Y73433D01*
X22950Y73517D01*
X22700Y73725D01*
X22550Y74058D01*
X22500Y74350D01*
G01X19216Y69532D02*
Y73468D01*
X21184D01*
Y69532D01*
X19216D01*
G01X14216D02*
Y73468D01*
X16184D01*
Y69532D01*
X14216D01*
G01X184132Y66077D02*
X26652D01*
Y215683D01*
X184132D01*
Y66077D01*
G01X21200Y93217D02*
X24200D01*
Y94258D01*
X24050Y94592D01*
X23850Y94800D01*
X23450Y94883D01*
X23050Y94800D01*
X22800Y94550D01*
X22650Y94258D01*
Y93217D01*
G01Y94258D02*
X21200Y94883D01*
G01Y96950D02*
X24200D01*
X23600Y96450D01*
G01X21200D02*
Y97450D01*
G01X21800Y98933D02*
X21450Y99183D01*
X21250Y99517D01*
X21200Y99892D01*
X21250Y100225D01*
X21500Y100558D01*
X21800Y100767D01*
X22100Y100808D01*
X22450Y100725D01*
X22700Y100433D01*
X22800Y100142D01*
Y99767D01*
G01Y100142D02*
X22950Y100392D01*
X23200Y100600D01*
X23500Y100683D01*
X23800Y100600D01*
X24050Y100392D01*
X24200Y100017D01*
X24150Y99642D01*
X23950Y99267D01*
G01X21200Y103250D02*
X24200D01*
X22050Y101708D01*
Y103792D01*
G01X19817Y85500D02*
Y83350D01*
X19650Y82900D01*
X19317Y82600D01*
X18900Y82500D01*
X18483Y82600D01*
X18150Y82900D01*
X17983Y83350D01*
Y85500D01*
G01X16000Y82500D02*
Y85500D01*
X16500Y84900D01*
G01Y82500D02*
X15500D01*
G01X13100D02*
X12808Y82550D01*
X12475Y82700D01*
X12267Y82950D01*
X12183Y83300D01*
X12267Y83650D01*
X12517Y83950D01*
X12892Y84100D01*
X13308D01*
X13558Y84200D01*
X13767Y84450D01*
X13850Y84800D01*
X13725Y85150D01*
X13433Y85400D01*
X13100Y85500D01*
X12767Y85400D01*
X12475Y85150D01*
X12350Y84800D01*
X12433Y84450D01*
X12642Y84200D01*
X12892Y84100D01*
X13308D01*
X13683Y83950D01*
X13933Y83650D01*
X14017Y83300D01*
X13933Y82950D01*
X13725Y82700D01*
X13392Y82550D01*
X13100Y82500D01*
G01X13200Y91000D02*
X12200Y92000D01*
X14200D01*
X13200Y91000D01*
G01X12066Y78398D02*
X20334D01*
Y90602D01*
X12066D01*
Y78398D01*
G01X25450Y76500D02*
X25158Y76550D01*
X24825Y76700D01*
X24617Y76950D01*
X24533Y77300D01*
X24617Y77650D01*
X24867Y77950D01*
X25242Y78100D01*
X25658D01*
X25908Y78200D01*
X26117Y78450D01*
X26200Y78800D01*
X26075Y79150D01*
X25783Y79400D01*
X25450Y79500D01*
X25117Y79400D01*
X24825Y79150D01*
X24700Y78800D01*
X24783Y78450D01*
X24992Y78200D01*
X25242Y78100D01*
X25658D01*
X26033Y77950D01*
X26283Y77650D01*
X26367Y77300D01*
X26283Y76950D01*
X26075Y76700D01*
X25742Y76550D01*
X25450Y76500D01*
G01X23258Y76850D02*
X22967Y76600D01*
X22633Y76500D01*
X22300Y76600D01*
X22008Y76900D01*
X21800Y77350D01*
X21717Y77800D01*
Y78350D01*
X21800Y78800D01*
X22008Y79200D01*
X22258Y79400D01*
X22550Y79500D01*
X22883Y79400D01*
X23133Y79200D01*
X23300Y78900D01*
X23383Y78500D01*
X23300Y78150D01*
X23092Y77800D01*
X22842Y77600D01*
X22550Y77550D01*
X22217Y77650D01*
X21967Y77900D01*
X21717Y78350D01*
G01X14220Y96530D02*
Y100470D01*
X16180D01*
Y96530D01*
X14220D01*
G01X18220D02*
Y100470D01*
X20180D01*
Y96530D01*
X18220D01*
G01X18150Y109500D02*
G03I-3150J0D01*
G01X22400Y156000D02*
Y153000D01*
G01X23358Y156000D02*
X21442D01*
G01X20333Y153000D02*
Y156000D01*
X19333D01*
X19000Y155850D01*
X18750Y155500D01*
X18667Y155100D01*
X18750Y154700D01*
X18958Y154400D01*
X19333Y154250D01*
X20333D01*
G01X16100Y153000D02*
Y156000D01*
X17642Y153850D01*
X15558D01*
G01X22400Y165500D02*
Y162500D01*
G01X23358Y165500D02*
X21442D01*
G01X20333Y162500D02*
Y165500D01*
X19333D01*
X19000Y165350D01*
X18750Y165000D01*
X18667Y164600D01*
X18750Y164200D01*
X18958Y163900D01*
X19333Y163750D01*
X20333D01*
G01X17517Y163100D02*
X17267Y162750D01*
X16933Y162550D01*
X16558Y162500D01*
X16225Y162550D01*
X15892Y162800D01*
X15683Y163100D01*
X15642Y163400D01*
X15725Y163750D01*
X16017Y164000D01*
X16308Y164100D01*
X16683D01*
G01X16308D02*
X16058Y164250D01*
X15850Y164500D01*
X15767Y164800D01*
X15850Y165100D01*
X16058Y165350D01*
X16433Y165500D01*
X16808Y165450D01*
X17183Y165250D01*
G01X25100Y204400D02*
Y207400D01*
X25600Y206800D01*
G01Y204400D02*
X24600D01*
G01X23117Y205000D02*
X22867Y204650D01*
X22533Y204450D01*
X22158Y204400D01*
X21825Y204450D01*
X21492Y204700D01*
X21283Y205000D01*
X21242Y205300D01*
X21325Y205650D01*
X21617Y205900D01*
X21908Y206000D01*
X22283D01*
G01X21908D02*
X21658Y206150D01*
X21450Y206400D01*
X21367Y206700D01*
X21450Y207000D01*
X21658Y207250D01*
X22033Y207400D01*
X22408Y207350D01*
X22783Y207150D01*
G01X19300Y207400D02*
X19633Y207300D01*
X19883Y207050D01*
X20050Y206750D01*
X20175Y206350D01*
X20217Y205900D01*
X20175Y205450D01*
X20050Y205050D01*
X19883Y204750D01*
X19633Y204500D01*
X19300Y204400D01*
X18967Y204500D01*
X18717Y204750D01*
X18550Y205050D01*
X18425Y205450D01*
X18383Y205900D01*
X18425Y206350D01*
X18550Y206750D01*
X18717Y207050D01*
X18967Y207300D01*
X19300Y207400D01*
G01X38817Y235500D02*
Y238500D01*
X37983D01*
X37650Y238350D01*
X37400Y238150D01*
X37192Y237850D01*
X37025Y237500D01*
X36983Y237000D01*
X37025Y236500D01*
X37192Y236150D01*
X37400Y235850D01*
X37650Y235650D01*
X37983Y235500D01*
X38817D01*
G01X35792Y238000D02*
X35542Y238300D01*
X35250Y238450D01*
X34917Y238500D01*
X34500Y238400D01*
X34208Y238150D01*
X34125Y237850D01*
X34167Y237550D01*
X34333Y237300D01*
X35167Y236800D01*
X35542Y236450D01*
X35792Y235950D01*
X35875Y235500D01*
X34125D01*
G01X32892Y238000D02*
X32642Y238300D01*
X32350Y238450D01*
X32017Y238500D01*
X31600Y238400D01*
X31308Y238150D01*
X31225Y237850D01*
X31267Y237550D01*
X31433Y237300D01*
X32267Y236800D01*
X32642Y236450D01*
X32892Y235950D01*
X32975Y235500D01*
X31225D01*
G01X32208Y230570D02*
Y233570D01*
X30292Y230570D01*
Y233570D01*
G01X29040Y234440D02*
Y239960D01*
X41000D01*
Y234440D01*
X29040D01*
G01X41183Y249500D02*
Y252500D01*
X40142D01*
X39808Y252350D01*
X39600Y252150D01*
X39517Y251750D01*
X39600Y251350D01*
X39850Y251100D01*
X40142Y250950D01*
X41183D01*
G01X40142D02*
X39517Y249500D01*
G01X37450D02*
Y252500D01*
X37950Y251900D01*
G01Y249500D02*
X36950D01*
G01X35342Y252000D02*
X35092Y252300D01*
X34800Y252450D01*
X34467Y252500D01*
X34050Y252400D01*
X33758Y252150D01*
X33675Y251850D01*
X33717Y251550D01*
X33883Y251300D01*
X34717Y250800D01*
X35092Y250450D01*
X35342Y249950D01*
X35425Y249500D01*
X33675D01*
G01X32358Y249850D02*
X32067Y249600D01*
X31733Y249500D01*
X31400Y249600D01*
X31108Y249900D01*
X30900Y250350D01*
X30817Y250800D01*
Y251350D01*
X30900Y251800D01*
X31108Y252200D01*
X31358Y252400D01*
X31650Y252500D01*
X31983Y252400D01*
X32233Y252200D01*
X32400Y251900D01*
X32483Y251500D01*
X32400Y251150D01*
X32192Y250800D01*
X31942Y250600D01*
X31650Y250550D01*
X31317Y250650D01*
X31067Y250900D01*
X30817Y251350D01*
G01X29199Y245501D02*
X42601D01*
Y256099D01*
X29199D01*
Y245501D01*
G01X31537Y273950D02*
X33203D01*
Y276950D01*
X31537D01*
G01X32203Y275500D02*
X33203D01*
G01X32182Y267813D02*
X32015Y267963D01*
X31890Y268212D01*
X31807Y268563D01*
X31890Y268863D01*
X32057Y269062D01*
X32349Y269213D01*
X33474D01*
Y266213D01*
X32099D01*
X31807Y266413D01*
X31640Y266713D01*
X31557Y267063D01*
X31640Y267412D01*
X31890Y267713D01*
X32182Y267813D01*
X33474D01*
G01X32983Y263250D02*
X33233Y263400D01*
X33525Y263500D01*
X33858D01*
X34233Y263350D01*
X34525Y263100D01*
X34733Y262800D01*
X34900Y262300D01*
X34942Y261850D01*
X34858Y261400D01*
X34733Y261100D01*
X34483Y260800D01*
X34192Y260600D01*
X33900Y260500D01*
X33608D01*
X33317Y260600D01*
X33067Y260750D01*
X32858Y260950D01*
G01X30500Y260500D02*
Y263500D01*
X32042Y261350D01*
X29958D01*
G01X28183Y260500D02*
X28100Y261150D01*
X27975Y261700D01*
X27808Y262200D01*
X27600Y262750D01*
X27267Y263500D01*
X28933D01*
G01X33447Y280867D02*
X32405Y283867D01*
X31364Y280867D01*
G01X31739Y281917D02*
X33072D01*
G01X33428Y288650D02*
Y291650D01*
X31512Y288650D01*
Y291650D01*
G01X14187Y284685D02*
X16187Y286685D01*
Y282685D01*
X14187Y284685D01*
G01X19683Y372000D02*
Y369000D01*
X18017D01*
G01X16742Y371500D02*
X16492Y371800D01*
X16200Y371950D01*
X15867Y372000D01*
X15450Y371900D01*
X15158Y371650D01*
X15075Y371350D01*
X15117Y371050D01*
X15283Y370800D01*
X16117Y370300D01*
X16492Y369950D01*
X16742Y369450D01*
X16825Y369000D01*
X15075D01*
G01X21583Y399550D02*
X21833Y399700D01*
X22125Y399800D01*
X22458D01*
X22833Y399650D01*
X23125Y399400D01*
X23333Y399100D01*
X23500Y398600D01*
X23542Y398150D01*
X23458Y397700D01*
X23333Y397400D01*
X23083Y397100D01*
X22792Y396900D01*
X22500Y396800D01*
X22208D01*
X21917Y396900D01*
X21667Y397050D01*
X21458Y397250D01*
G01X20517Y397400D02*
X20267Y397050D01*
X19933Y396850D01*
X19558Y396800D01*
X19225Y396850D01*
X18892Y397100D01*
X18683Y397400D01*
X18642Y397700D01*
X18725Y398050D01*
X19017Y398300D01*
X19308Y398400D01*
X19683D01*
G01X19308D02*
X19058Y398550D01*
X18850Y398800D01*
X18767Y399100D01*
X18850Y399400D01*
X19058Y399650D01*
X19433Y399800D01*
X19808Y399750D01*
X20183Y399550D01*
G01X17492Y398050D02*
X17200Y398400D01*
X16950Y398600D01*
X16617Y398700D01*
X16325Y398600D01*
X16117Y398400D01*
X15950Y398100D01*
X15908Y397750D01*
X15950Y397450D01*
X16117Y397150D01*
X16367Y396900D01*
X16658Y396800D01*
X16992Y396900D01*
X17283Y397200D01*
X17450Y397650D01*
X17492Y398150D01*
X17408Y398800D01*
X17283Y399150D01*
X17075Y399500D01*
X16783Y399750D01*
X16492Y399800D01*
X16200Y399700D01*
X15992Y399450D01*
G01X20983Y417250D02*
X21233Y417400D01*
X21525Y417500D01*
X21858D01*
X22233Y417350D01*
X22525Y417100D01*
X22733Y416800D01*
X22900Y416300D01*
X22942Y415850D01*
X22858Y415400D01*
X22733Y415100D01*
X22483Y414800D01*
X22192Y414600D01*
X21900Y414500D01*
X21608D01*
X21317Y414600D01*
X21067Y414750D01*
X20858Y414950D01*
G01X19917Y415100D02*
X19667Y414750D01*
X19333Y414550D01*
X18958Y414500D01*
X18625Y414550D01*
X18292Y414800D01*
X18083Y415100D01*
X18042Y415400D01*
X18125Y415750D01*
X18417Y416000D01*
X18708Y416100D01*
X19083D01*
G01X18708D02*
X18458Y416250D01*
X18250Y416500D01*
X18167Y416800D01*
X18250Y417100D01*
X18458Y417350D01*
X18833Y417500D01*
X19208Y417450D01*
X19583Y417250D01*
G01X15600Y414500D02*
Y417500D01*
X17142Y415350D01*
X15058D01*
G01X14769Y413346D02*
X23431D01*
Y419054D01*
X14769D01*
Y413346D01*
G01X28983Y440750D02*
X29233Y440900D01*
X29525Y441000D01*
X29858D01*
X30233Y440850D01*
X30525Y440600D01*
X30733Y440300D01*
X30900Y439800D01*
X30942Y439350D01*
X30858Y438900D01*
X30733Y438600D01*
X30483Y438300D01*
X30192Y438100D01*
X29900Y438000D01*
X29608D01*
X29317Y438100D01*
X29067Y438250D01*
X28858Y438450D01*
G01X27917Y438600D02*
X27667Y438250D01*
X27333Y438050D01*
X26958Y438000D01*
X26625Y438050D01*
X26292Y438300D01*
X26083Y438600D01*
X26042Y438900D01*
X26125Y439250D01*
X26417Y439500D01*
X26708Y439600D01*
X27083D01*
G01X26708D02*
X26458Y439750D01*
X26250Y440000D01*
X26167Y440300D01*
X26250Y440600D01*
X26458Y440850D01*
X26833Y441000D01*
X27208Y440950D01*
X27583Y440750D01*
G01X25017Y438600D02*
X24767Y438250D01*
X24433Y438050D01*
X24058Y438000D01*
X23725Y438050D01*
X23392Y438300D01*
X23183Y438600D01*
X23142Y438900D01*
X23225Y439250D01*
X23517Y439500D01*
X23808Y439600D01*
X24183D01*
G01X23808D02*
X23558Y439750D01*
X23350Y440000D01*
X23267Y440300D01*
X23350Y440600D01*
X23558Y440850D01*
X23933Y441000D01*
X24308Y440950D01*
X24683Y440750D01*
G01X27833Y477750D02*
X28083Y477900D01*
X28375Y478000D01*
X28708D01*
X29083Y477850D01*
X29375Y477600D01*
X29583Y477300D01*
X29750Y476800D01*
X29792Y476350D01*
X29708Y475900D01*
X29583Y475600D01*
X29333Y475300D01*
X29042Y475100D01*
X28750Y475000D01*
X28458D01*
X28167Y475100D01*
X27917Y475250D01*
X27708Y475450D01*
G01X26642Y477500D02*
X26392Y477800D01*
X26100Y477950D01*
X25767Y478000D01*
X25350Y477900D01*
X25058Y477650D01*
X24975Y477350D01*
X25017Y477050D01*
X25183Y476800D01*
X26017Y476300D01*
X26392Y475950D01*
X26642Y475450D01*
X26725Y475000D01*
X24975D01*
G01X23658Y475350D02*
X23367Y475100D01*
X23033Y475000D01*
X22700Y475100D01*
X22408Y475400D01*
X22200Y475850D01*
X22117Y476300D01*
Y476850D01*
X22200Y477300D01*
X22408Y477700D01*
X22658Y477900D01*
X22950Y478000D01*
X23283Y477900D01*
X23533Y477700D01*
X23700Y477400D01*
X23783Y477000D01*
X23700Y476650D01*
X23492Y476300D01*
X23242Y476100D01*
X22950Y476050D01*
X22617Y476150D01*
X22367Y476400D01*
X22117Y476850D01*
G01X23131Y511263D02*
X23464Y511313D01*
X23756Y511513D01*
X24006Y511813D01*
X24172Y512163D01*
X24256Y512563D01*
Y512963D01*
X24172Y513363D01*
X24006Y513713D01*
X23756Y514013D01*
X23464Y514213D01*
X23131Y514263D01*
X22798Y514213D01*
X22506Y514013D01*
X22256Y513713D01*
X22089Y513363D01*
X22006Y512963D01*
Y512563D01*
X22089Y512163D01*
X22256Y511813D01*
X22506Y511513D01*
X22798Y511313D01*
X23131Y511263D01*
G01X22798Y512063D02*
X22298Y511263D01*
G01X21022Y513763D02*
X20772Y514063D01*
X20481Y514213D01*
X20147Y514263D01*
X19731Y514163D01*
X19439Y513913D01*
X19356Y513613D01*
X19398Y513313D01*
X19564Y513063D01*
X20398Y512563D01*
X20772Y512213D01*
X21022Y511713D01*
X21106Y511263D01*
X19356D01*
G01X17331Y514263D02*
X17664Y514163D01*
X17914Y513913D01*
X18081Y513613D01*
X18206Y513213D01*
X18248Y512763D01*
X18206Y512313D01*
X18081Y511913D01*
X17914Y511613D01*
X17664Y511363D01*
X17331Y511263D01*
X16998Y511363D01*
X16748Y511613D01*
X16581Y511913D01*
X16456Y512313D01*
X16414Y512763D01*
X16456Y513213D01*
X16581Y513613D01*
X16748Y513913D01*
X16998Y514163D01*
X17331Y514263D01*
G01X23227Y537054D02*
X23561Y537104D01*
X23852Y537304D01*
X24102Y537604D01*
X24269Y537954D01*
X24352Y538354D01*
Y538754D01*
X24269Y539154D01*
X24102Y539504D01*
X23852Y539804D01*
X23561Y540004D01*
X23227Y540054D01*
X22894Y540004D01*
X22602Y539804D01*
X22352Y539504D01*
X22186Y539154D01*
X22102Y538754D01*
Y538354D01*
X22186Y537954D01*
X22352Y537604D01*
X22602Y537304D01*
X22894Y537104D01*
X23227Y537054D01*
G01X22894Y537854D02*
X22394Y537054D01*
G01X20327D02*
Y540054D01*
X20827Y539454D01*
G01Y537054D02*
X19828D01*
G01X17511D02*
X17427Y537704D01*
X17302Y538254D01*
X17136Y538754D01*
X16927Y539304D01*
X16594Y540054D01*
X18261D01*
G01X20983Y555750D02*
X21233Y555900D01*
X21525Y556000D01*
X21858D01*
X22233Y555850D01*
X22525Y555600D01*
X22733Y555300D01*
X22900Y554800D01*
X22942Y554350D01*
X22858Y553900D01*
X22733Y553600D01*
X22483Y553300D01*
X22192Y553100D01*
X21900Y553000D01*
X21608D01*
X21317Y553100D01*
X21067Y553250D01*
X20858Y553450D01*
G01X19792Y555500D02*
X19542Y555800D01*
X19250Y555950D01*
X18917Y556000D01*
X18500Y555900D01*
X18208Y555650D01*
X18125Y555350D01*
X18167Y555050D01*
X18333Y554800D01*
X19167Y554300D01*
X19542Y553950D01*
X19792Y553450D01*
X19875Y553000D01*
X18125D01*
G01X15600D02*
Y556000D01*
X17142Y553850D01*
X15058D01*
G01X25087Y551535D02*
X12488D01*
Y557834D01*
X25087D01*
Y551535D01*
G01X28983Y606750D02*
X29233Y606900D01*
X29525Y607000D01*
X29858D01*
X30233Y606850D01*
X30525Y606600D01*
X30733Y606300D01*
X30900Y605800D01*
X30942Y605350D01*
X30858Y604900D01*
X30733Y604600D01*
X30483Y604300D01*
X30192Y604100D01*
X29900Y604000D01*
X29608D01*
X29317Y604100D01*
X29067Y604250D01*
X28858Y604450D01*
G01X27792Y606500D02*
X27542Y606800D01*
X27250Y606950D01*
X26917Y607000D01*
X26500Y606900D01*
X26208Y606650D01*
X26125Y606350D01*
X26167Y606050D01*
X26333Y605800D01*
X27167Y605300D01*
X27542Y604950D01*
X27792Y604450D01*
X27875Y604000D01*
X26125D01*
G01X24892Y606500D02*
X24642Y606800D01*
X24350Y606950D01*
X24017Y607000D01*
X23600Y606900D01*
X23308Y606650D01*
X23225Y606350D01*
X23267Y606050D01*
X23433Y605800D01*
X24267Y605300D01*
X24642Y604950D01*
X24892Y604450D01*
X24975Y604000D01*
X23225D01*
G01X20688Y608634D02*
X33287D01*
Y602335D01*
X20688D01*
Y608634D01*
G01X14813Y618278D02*
X43159D01*
Y659026D01*
X14813D01*
Y618278D01*
G01X31825Y635400D02*
X31492Y635150D01*
X31117Y635000D01*
X30783D01*
X30450Y635150D01*
X30200Y635400D01*
X30075Y635750D01*
X30158Y636100D01*
X30367Y636400D01*
X30742Y636600D01*
X31242Y636700D01*
X31533Y636900D01*
X31658Y637250D01*
X31575Y637600D01*
X31367Y637850D01*
X31075Y638000D01*
X30783D01*
X30492Y637900D01*
X30242Y637650D01*
G01X28050Y635000D02*
Y638000D01*
X28550Y637400D01*
G01Y635000D02*
X27550D01*
G01X13486Y634526D02*
X11486Y632527D01*
Y636527D01*
X13486Y634526D01*
G01X49950Y26217D02*
X50100Y25967D01*
X50200Y25675D01*
Y25342D01*
X50050Y24967D01*
X49800Y24675D01*
X49500Y24467D01*
X49000Y24300D01*
X48550Y24258D01*
X48100Y24342D01*
X47800Y24467D01*
X47500Y24717D01*
X47300Y25008D01*
X47200Y25300D01*
Y25592D01*
X47300Y25883D01*
X47450Y26133D01*
X47650Y26342D01*
G01Y27283D02*
X47400Y27533D01*
X47250Y27825D01*
X47200Y28200D01*
X47300Y28575D01*
X47500Y28867D01*
X47850Y29075D01*
X48250Y29117D01*
X48650Y29033D01*
X48900Y28825D01*
X49100Y28533D01*
X49150Y28242D01*
X49100Y27950D01*
X48900Y27575D01*
X50200Y27700D01*
Y28825D01*
G01X47200Y31100D02*
X47250Y31392D01*
X47400Y31725D01*
X47650Y31933D01*
X48000Y32017D01*
X48350Y31933D01*
X48650Y31683D01*
X48800Y31308D01*
Y30892D01*
X48900Y30642D01*
X49150Y30433D01*
X49500Y30350D01*
X49850Y30475D01*
X50100Y30767D01*
X50200Y31100D01*
X50100Y31433D01*
X49850Y31725D01*
X49500Y31850D01*
X49150Y31767D01*
X48900Y31558D01*
X48800Y31308D01*
Y30892D01*
X48650Y30517D01*
X48350Y30267D01*
X48000Y30183D01*
X47650Y30267D01*
X47400Y30475D01*
X47250Y30808D01*
X47200Y31100D01*
G01X54350Y23217D02*
X54500Y22967D01*
X54600Y22675D01*
Y22342D01*
X54450Y21967D01*
X54200Y21675D01*
X53900Y21467D01*
X53400Y21300D01*
X52950Y21258D01*
X52500Y21342D01*
X52200Y21467D01*
X51900Y21717D01*
X51700Y22008D01*
X51600Y22300D01*
Y22592D01*
X51700Y22883D01*
X51850Y23133D01*
X52050Y23342D01*
G01X52850Y24408D02*
X53200Y24700D01*
X53400Y24950D01*
X53500Y25283D01*
X53400Y25575D01*
X53200Y25783D01*
X52900Y25950D01*
X52550Y25992D01*
X52250Y25950D01*
X51950Y25783D01*
X51700Y25533D01*
X51600Y25242D01*
X51700Y24908D01*
X52000Y24617D01*
X52450Y24450D01*
X52950Y24408D01*
X53600Y24492D01*
X53950Y24617D01*
X54300Y24825D01*
X54550Y25117D01*
X54600Y25408D01*
X54500Y25700D01*
X54250Y25908D01*
G01X52050Y27183D02*
X51800Y27433D01*
X51650Y27725D01*
X51600Y28100D01*
X51700Y28475D01*
X51900Y28767D01*
X52250Y28975D01*
X52650Y29017D01*
X53050Y28933D01*
X53300Y28725D01*
X53500Y28433D01*
X53550Y28142D01*
X53500Y27850D01*
X53300Y27475D01*
X54600Y27600D01*
Y28725D01*
G01X52750Y14017D02*
X52900Y13767D01*
X53000Y13475D01*
Y13142D01*
X52850Y12767D01*
X52600Y12475D01*
X52300Y12267D01*
X51800Y12100D01*
X51350Y12058D01*
X50900Y12142D01*
X50600Y12267D01*
X50300Y12517D01*
X50100Y12808D01*
X50000Y13100D01*
Y13392D01*
X50100Y13683D01*
X50250Y13933D01*
X50450Y14142D01*
G01X51250Y15208D02*
X51600Y15500D01*
X51800Y15750D01*
X51900Y16083D01*
X51800Y16375D01*
X51600Y16583D01*
X51300Y16750D01*
X50950Y16792D01*
X50650Y16750D01*
X50350Y16583D01*
X50100Y16333D01*
X50000Y16042D01*
X50100Y15708D01*
X50400Y15417D01*
X50850Y15250D01*
X51350Y15208D01*
X52000Y15292D01*
X52350Y15417D01*
X52700Y15625D01*
X52950Y15917D01*
X53000Y16208D01*
X52900Y16500D01*
X52650Y16708D01*
G01X50350Y18192D02*
X50100Y18483D01*
X50000Y18817D01*
X50100Y19150D01*
X50400Y19442D01*
X50850Y19650D01*
X51300Y19733D01*
X51850D01*
X52300Y19650D01*
X52700Y19442D01*
X52900Y19192D01*
X53000Y18900D01*
X52900Y18567D01*
X52700Y18317D01*
X52400Y18150D01*
X52000Y18067D01*
X51650Y18150D01*
X51300Y18358D01*
X51100Y18608D01*
X51050Y18900D01*
X51150Y19233D01*
X51400Y19483D01*
X51850Y19733D01*
G01X43250Y24017D02*
X43400Y23767D01*
X43500Y23475D01*
Y23142D01*
X43350Y22767D01*
X43100Y22475D01*
X42800Y22267D01*
X42300Y22100D01*
X41850Y22058D01*
X41400Y22142D01*
X41100Y22267D01*
X40800Y22517D01*
X40600Y22808D01*
X40500Y23100D01*
Y23392D01*
X40600Y23683D01*
X40750Y23933D01*
X40950Y24142D01*
G01X41750Y25208D02*
X42100Y25500D01*
X42300Y25750D01*
X42400Y26083D01*
X42300Y26375D01*
X42100Y26583D01*
X41800Y26750D01*
X41450Y26792D01*
X41150Y26750D01*
X40850Y26583D01*
X40600Y26333D01*
X40500Y26042D01*
X40600Y25708D01*
X40900Y25417D01*
X41350Y25250D01*
X41850Y25208D01*
X42500Y25292D01*
X42850Y25417D01*
X43200Y25625D01*
X43450Y25917D01*
X43500Y26208D01*
X43400Y26500D01*
X43150Y26708D01*
G01X43500Y28900D02*
X43400Y28567D01*
X43150Y28317D01*
X42850Y28150D01*
X42450Y28025D01*
X42000Y27983D01*
X41550Y28025D01*
X41150Y28150D01*
X40850Y28317D01*
X40600Y28567D01*
X40500Y28900D01*
X40600Y29233D01*
X40850Y29483D01*
X41150Y29650D01*
X41550Y29775D01*
X42000Y29817D01*
X42450Y29775D01*
X42850Y29650D01*
X43150Y29483D01*
X43400Y29233D01*
X43500Y28900D01*
G01X43375Y37350D02*
Y31050D01*
X40225D01*
Y37350D01*
X43375D01*
G01X48778Y33304D02*
X47597D01*
Y35666D01*
X48778D01*
Y33304D01*
G01X54858Y49000D02*
Y52000D01*
X52942Y49000D01*
Y52000D01*
G01X51833Y49000D02*
Y52000D01*
X50792D01*
X50458Y51850D01*
X50250Y51650D01*
X50167Y51250D01*
X50250Y50850D01*
X50500Y50600D01*
X50792Y50450D01*
X51833D01*
G01X50792D02*
X50167Y49000D01*
G01X48892Y51500D02*
X48642Y51800D01*
X48350Y51950D01*
X48017Y52000D01*
X47600Y51900D01*
X47308Y51650D01*
X47225Y51350D01*
X47267Y51050D01*
X47433Y50800D01*
X48267Y50300D01*
X48642Y49950D01*
X48892Y49450D01*
X48975Y49000D01*
X47225D01*
G01X36250Y61400D02*
X35958Y61450D01*
X35625Y61600D01*
X35417Y61850D01*
X35333Y62200D01*
X35417Y62550D01*
X35667Y62850D01*
X36042Y63000D01*
X36458D01*
X36708Y63100D01*
X36917Y63350D01*
X37000Y63700D01*
X36875Y64050D01*
X36583Y64300D01*
X36250Y64400D01*
X35917Y64300D01*
X35625Y64050D01*
X35500Y63700D01*
X35583Y63350D01*
X35792Y63100D01*
X36042Y63000D01*
X36458D01*
X36833Y62850D01*
X37083Y62550D01*
X37167Y62200D01*
X37083Y61850D01*
X36875Y61600D01*
X36542Y61450D01*
X36250Y61400D01*
G01X33350D02*
X33058Y61450D01*
X32725Y61600D01*
X32517Y61850D01*
X32433Y62200D01*
X32517Y62550D01*
X32767Y62850D01*
X33142Y63000D01*
X33558D01*
X33808Y63100D01*
X34017Y63350D01*
X34100Y63700D01*
X33975Y64050D01*
X33683Y64300D01*
X33350Y64400D01*
X33017Y64300D01*
X32725Y64050D01*
X32600Y63700D01*
X32683Y63350D01*
X32892Y63100D01*
X33142Y63000D01*
X33558D01*
X33933Y62850D01*
X34183Y62550D01*
X34267Y62200D01*
X34183Y61850D01*
X33975Y61600D01*
X33642Y61450D01*
X33350Y61400D01*
G01X40900Y217200D02*
Y220200D01*
X41400Y219600D01*
G01Y217200D02*
X40400D01*
G01X38917Y217800D02*
X38667Y217450D01*
X38333Y217250D01*
X37958Y217200D01*
X37625Y217250D01*
X37292Y217500D01*
X37083Y217800D01*
X37042Y218100D01*
X37125Y218450D01*
X37417Y218700D01*
X37708Y218800D01*
X38083D01*
G01X37708D02*
X37458Y218950D01*
X37250Y219200D01*
X37167Y219500D01*
X37250Y219800D01*
X37458Y220050D01*
X37833Y220200D01*
X38208Y220150D01*
X38583Y219950D01*
G01X35100Y217200D02*
Y220200D01*
X35600Y219600D01*
G01Y217200D02*
X34600D01*
G01X39842Y230600D02*
X38800Y233600D01*
X37758Y230600D01*
G01X38133Y231650D02*
X39467D01*
G01X35717Y240600D02*
Y243600D01*
G01X34133D02*
X35717Y241750D01*
G01X33883Y240600D02*
X35008Y242600D01*
G01X51760Y250970D02*
Y266710D01*
X71440D01*
Y250970D01*
X51760D01*
G01X41883Y273350D02*
X42133Y273500D01*
X42425Y273600D01*
X42758D01*
X43133Y273450D01*
X43425Y273200D01*
X43633Y272900D01*
X43800Y272400D01*
X43842Y271950D01*
X43758Y271500D01*
X43633Y271200D01*
X43383Y270900D01*
X43092Y270700D01*
X42800Y270600D01*
X42508D01*
X42217Y270700D01*
X41967Y270850D01*
X41758Y271050D01*
G01X36000Y269100D02*
X36050Y268767D01*
X36250Y268475D01*
X36550Y268225D01*
X36900Y268058D01*
X37300Y267975D01*
X37700D01*
X38100Y268058D01*
X38450Y268225D01*
X38750Y268475D01*
X38950Y268767D01*
X39000Y269100D01*
X38950Y269433D01*
X38750Y269725D01*
X38450Y269975D01*
X38100Y270142D01*
X37700Y270225D01*
X37300D01*
X36900Y270142D01*
X36550Y269975D01*
X36250Y269725D01*
X36050Y269433D01*
X36000Y269100D01*
G01X36800Y269433D02*
X36000Y269933D01*
G01X38500Y271208D02*
X38800Y271458D01*
X38950Y271750D01*
X39000Y272083D01*
X38900Y272500D01*
X38650Y272792D01*
X38350Y272875D01*
X38050Y272833D01*
X37800Y272667D01*
X37300Y271833D01*
X36950Y271458D01*
X36450Y271208D01*
X36000Y271125D01*
Y272875D01*
G01X38500Y274108D02*
X38800Y274358D01*
X38950Y274650D01*
X39000Y274983D01*
X38900Y275400D01*
X38650Y275692D01*
X38350Y275775D01*
X38050Y275733D01*
X37800Y275567D01*
X37300Y274733D01*
X36950Y274358D01*
X36450Y274108D01*
X36000Y274025D01*
Y275775D01*
G01X34840Y277960D02*
X40360D01*
Y266000D01*
X34840D01*
Y277960D01*
G01X36319Y261209D02*
Y262391D01*
X38681D01*
Y261209D01*
X36319D01*
G01X36000Y283183D02*
X39000D01*
Y284017D01*
X38850Y284350D01*
X38650Y284600D01*
X38350Y284808D01*
X38000Y284975D01*
X37500Y285017D01*
X37000Y284975D01*
X36650Y284808D01*
X36350Y284600D01*
X36150Y284350D01*
X36000Y284017D01*
Y283183D01*
G01Y287000D02*
X39000D01*
X38400Y286500D01*
G01X36000D02*
Y287500D01*
G01Y289900D02*
X36050Y290192D01*
X36200Y290525D01*
X36450Y290733D01*
X36800Y290817D01*
X37150Y290733D01*
X37450Y290483D01*
X37600Y290108D01*
Y289692D01*
X37700Y289442D01*
X37950Y289233D01*
X38300Y289150D01*
X38650Y289275D01*
X38900Y289567D01*
X39000Y289900D01*
X38900Y290233D01*
X38650Y290525D01*
X38300Y290650D01*
X37950Y290567D01*
X37700Y290358D01*
X37600Y290108D01*
Y289692D01*
X37450Y289317D01*
X37150Y289067D01*
X36800Y288983D01*
X36450Y289067D01*
X36200Y289275D01*
X36050Y289608D01*
X36000Y289900D01*
G01X43317Y284180D02*
Y287180D01*
G01X41733D02*
X43317Y285330D01*
G01X41483Y284180D02*
X42608Y286180D01*
G01X34840Y292560D02*
X40360D01*
Y280600D01*
X34840D01*
Y292560D01*
G01X52829Y358785D02*
X51788Y361785D01*
X50746Y358785D01*
G01X51121Y359835D02*
X52454D01*
G01X44986Y359025D02*
Y362025D01*
X43069Y359025D01*
Y362025D01*
G01X51317Y377500D02*
Y380500D01*
X50483D01*
X50150Y380350D01*
X49900Y380150D01*
X49692Y379850D01*
X49525Y379500D01*
X49483Y379000D01*
X49525Y378500D01*
X49692Y378150D01*
X49900Y377850D01*
X50150Y377650D01*
X50483Y377500D01*
X51317D01*
G01X47500D02*
Y380500D01*
X48000Y379900D01*
G01Y377500D02*
X47000D01*
G01X44100D02*
Y380500D01*
X45642Y378350D01*
X43558D01*
G01X51224Y371735D02*
Y374735D01*
G01X49641D02*
X51224Y372885D01*
G01X49391Y371735D02*
X50516Y373735D01*
G01X53857Y381945D02*
Y376425D01*
X41898D01*
Y381945D01*
X53857D01*
G01X51317Y364500D02*
Y367500D01*
X50483D01*
X50150Y367350D01*
X49900Y367150D01*
X49692Y366850D01*
X49525Y366500D01*
X49483Y366000D01*
X49525Y365500D01*
X49692Y365150D01*
X49900Y364850D01*
X50150Y364650D01*
X50483Y364500D01*
X51317D01*
G01X47500D02*
Y367500D01*
X48000Y366900D01*
G01Y364500D02*
X47000D01*
G01X45517Y364950D02*
X45267Y364700D01*
X44975Y364550D01*
X44600Y364500D01*
X44225Y364600D01*
X43933Y364800D01*
X43725Y365150D01*
X43683Y365550D01*
X43767Y365950D01*
X43975Y366200D01*
X44267Y366400D01*
X44558Y366450D01*
X44850Y366400D01*
X45225Y366200D01*
X45100Y367500D01*
X43975D01*
G01X45917Y371600D02*
Y374600D01*
G01X44333D02*
X45917Y372750D01*
G01X44083Y371600D02*
X45208Y373600D01*
G01X41818Y363495D02*
Y369015D01*
X53777D01*
Y363495D01*
X41818D01*
G01X44929Y383255D02*
X43887Y386255D01*
X42846Y383255D01*
G01X43221Y384305D02*
X44554D01*
G01X52606Y383015D02*
Y386015D01*
X50689Y383015D01*
Y386015D01*
G01X33797Y397395D02*
X36797D01*
G01X36879Y397395D02*
G03I-1581J0D01*
G01X49033Y439232D02*
G03I-2062J0D01*
G01X46972Y437232D02*
Y441232D01*
G01X48972Y439232D02*
X44972D01*
G01X49624Y447049D02*
X48124D01*
G01X49624Y445049D02*
Y447049D01*
X51124D01*
G01X49624Y450549D02*
Y448549D01*
X51124D01*
X49624Y447049D01*
X48124Y448549D01*
X49624D01*
G01X49133Y475632D02*
G03I-2062J0D01*
G01X47072Y473632D02*
Y477632D01*
G01X49072Y475632D02*
X45072D01*
G01X63815Y522354D02*
X39800D01*
Y502275D01*
X63815D01*
Y522354D01*
G01X32731Y519814D02*
X33731Y520814D01*
Y518814D01*
X32731Y519814D01*
G01X54707Y511263D02*
X55041Y511313D01*
X55332Y511513D01*
X55582Y511813D01*
X55749Y512163D01*
X55832Y512563D01*
Y512963D01*
X55749Y513363D01*
X55582Y513713D01*
X55332Y514013D01*
X55041Y514213D01*
X54707Y514263D01*
X54374Y514213D01*
X54082Y514013D01*
X53832Y513713D01*
X53666Y513363D01*
X53582Y512963D01*
Y512563D01*
X53666Y512163D01*
X53832Y511813D01*
X54082Y511513D01*
X54374Y511313D01*
X54707Y511263D01*
G01X54374Y512063D02*
X53874Y511263D01*
G01X51807D02*
Y514263D01*
X52307Y513663D01*
G01Y511263D02*
X51308D01*
G01X49616Y511613D02*
X49324Y511363D01*
X48991Y511263D01*
X48657Y511363D01*
X48366Y511663D01*
X48157Y512113D01*
X48074Y512563D01*
Y513113D01*
X48157Y513563D01*
X48366Y513963D01*
X48616Y514163D01*
X48907Y514263D01*
X49241Y514163D01*
X49491Y513963D01*
X49657Y513663D01*
X49741Y513263D01*
X49657Y512913D01*
X49449Y512563D01*
X49199Y512363D01*
X48907Y512313D01*
X48574Y512413D01*
X48324Y512663D01*
X48074Y513113D01*
G01X32827Y545605D02*
X33827Y546605D01*
Y544605D01*
X32827Y545605D01*
G01X43348Y587573D02*
Y563557D01*
X63427D01*
Y587573D01*
X43348D01*
G01X55900Y574400D02*
X56233Y574450D01*
X56525Y574650D01*
X56775Y574950D01*
X56942Y575300D01*
X57025Y575700D01*
Y576100D01*
X56942Y576500D01*
X56775Y576850D01*
X56525Y577150D01*
X56233Y577350D01*
X55900Y577400D01*
X55567Y577350D01*
X55275Y577150D01*
X55025Y576850D01*
X54858Y576500D01*
X54775Y576100D01*
Y575700D01*
X54858Y575300D01*
X55025Y574950D01*
X55275Y574650D01*
X55567Y574450D01*
X55900Y574400D01*
G01X55567Y575200D02*
X55067Y574400D01*
G01X53000D02*
Y577400D01*
X53500Y576800D01*
G01Y574400D02*
X52500D01*
G01X51017Y574850D02*
X50767Y574600D01*
X50475Y574450D01*
X50100Y574400D01*
X49725Y574500D01*
X49433Y574700D01*
X49225Y575050D01*
X49183Y575450D01*
X49267Y575850D01*
X49475Y576100D01*
X49767Y576300D01*
X50058Y576350D01*
X50350Y576300D01*
X50725Y576100D01*
X50600Y577400D01*
X49475D01*
G01X45887Y588065D02*
X44887Y589065D01*
X46887D01*
X45887Y588065D01*
G01X79912Y597045D02*
X170120D01*
Y669290D01*
X141479D01*
Y704329D01*
X78487D01*
Y669290D01*
X49845D01*
Y597045D01*
X79912D01*
G01X49502Y612203D02*
X47502Y610203D01*
Y614203D01*
X49502Y612203D01*
G01X59783Y10750D02*
X60033Y10900D01*
X60325Y11000D01*
X60658D01*
X61033Y10850D01*
X61325Y10600D01*
X61533Y10300D01*
X61700Y9800D01*
X61742Y9350D01*
X61658Y8900D01*
X61533Y8600D01*
X61283Y8300D01*
X60992Y8100D01*
X60700Y8000D01*
X60408D01*
X60117Y8100D01*
X59867Y8250D01*
X59658Y8450D01*
G01X57883Y8000D02*
X57800Y8650D01*
X57675Y9200D01*
X57508Y9700D01*
X57300Y10250D01*
X56967Y11000D01*
X58633D01*
G01X54900D02*
X55233Y10900D01*
X55483Y10650D01*
X55650Y10350D01*
X55775Y9950D01*
X55817Y9500D01*
X55775Y9050D01*
X55650Y8650D01*
X55483Y8350D01*
X55233Y8100D01*
X54900Y8000D01*
X54567Y8100D01*
X54317Y8350D01*
X54150Y8650D01*
X54025Y9050D01*
X53983Y9500D01*
X54025Y9950D01*
X54150Y10350D01*
X54317Y10650D01*
X54567Y10900D01*
X54900Y11000D01*
G01X69183Y10750D02*
X69433Y10900D01*
X69725Y11000D01*
X70058D01*
X70433Y10850D01*
X70725Y10600D01*
X70933Y10300D01*
X71100Y9800D01*
X71142Y9350D01*
X71058Y8900D01*
X70933Y8600D01*
X70683Y8300D01*
X70392Y8100D01*
X70100Y8000D01*
X69808D01*
X69517Y8100D01*
X69267Y8250D01*
X69058Y8450D01*
G01X67283Y8000D02*
X67200Y8650D01*
X67075Y9200D01*
X66908Y9700D01*
X66700Y10250D01*
X66367Y11000D01*
X68033D01*
G01X64300Y8000D02*
Y11000D01*
X64800Y10400D01*
G01Y8000D02*
X63800D01*
G01X63950Y22817D02*
X64100Y22567D01*
X64200Y22275D01*
Y21942D01*
X64050Y21567D01*
X63800Y21275D01*
X63500Y21067D01*
X63000Y20900D01*
X62550Y20858D01*
X62100Y20942D01*
X61800Y21067D01*
X61500Y21317D01*
X61300Y21608D01*
X61200Y21900D01*
Y22192D01*
X61300Y22483D01*
X61450Y22733D01*
X61650Y22942D01*
G01X62450Y24008D02*
X62800Y24300D01*
X63000Y24550D01*
X63100Y24883D01*
X63000Y25175D01*
X62800Y25383D01*
X62500Y25550D01*
X62150Y25592D01*
X61850Y25550D01*
X61550Y25383D01*
X61300Y25133D01*
X61200Y24842D01*
X61300Y24508D01*
X61600Y24217D01*
X62050Y24050D01*
X62550Y24008D01*
X63200Y24092D01*
X63550Y24217D01*
X63900Y24425D01*
X64150Y24717D01*
X64200Y25008D01*
X64100Y25300D01*
X63850Y25508D01*
G01X61200Y28200D02*
X64200D01*
X62050Y26658D01*
Y28742D01*
G01X58797Y25466D02*
X59978D01*
Y23104D01*
X58797D01*
Y25466D01*
G01X76183Y21550D02*
X76433Y21700D01*
X76725Y21800D01*
X77058D01*
X77433Y21650D01*
X77725Y21400D01*
X77933Y21100D01*
X78100Y20600D01*
X78142Y20150D01*
X78058Y19700D01*
X77933Y19400D01*
X77683Y19100D01*
X77392Y18900D01*
X77100Y18800D01*
X76808D01*
X76517Y18900D01*
X76267Y19050D01*
X76058Y19250D01*
G01X74992Y20050D02*
X74700Y20400D01*
X74450Y20600D01*
X74117Y20700D01*
X73825Y20600D01*
X73617Y20400D01*
X73450Y20100D01*
X73408Y19750D01*
X73450Y19450D01*
X73617Y19150D01*
X73867Y18900D01*
X74158Y18800D01*
X74492Y18900D01*
X74783Y19200D01*
X74950Y19650D01*
X74992Y20150D01*
X74908Y20800D01*
X74783Y21150D01*
X74575Y21500D01*
X74283Y21750D01*
X73992Y21800D01*
X73700Y21700D01*
X73492Y21450D01*
G01X72092Y20050D02*
X71800Y20400D01*
X71550Y20600D01*
X71217Y20700D01*
X70925Y20600D01*
X70717Y20400D01*
X70550Y20100D01*
X70508Y19750D01*
X70550Y19450D01*
X70717Y19150D01*
X70967Y18900D01*
X71258Y18800D01*
X71592Y18900D01*
X71883Y19200D01*
X72050Y19650D01*
X72092Y20150D01*
X72008Y20800D01*
X71883Y21150D01*
X71675Y21500D01*
X71383Y21750D01*
X71092Y21800D01*
X70800Y21700D01*
X70592Y21450D01*
G01X67079Y20610D02*
Y21791D01*
X69442D01*
Y20610D01*
X67079D01*
G01X71550Y31817D02*
X71700Y31567D01*
X71800Y31275D01*
Y30942D01*
X71650Y30567D01*
X71400Y30275D01*
X71100Y30067D01*
X70600Y29900D01*
X70150Y29858D01*
X69700Y29942D01*
X69400Y30067D01*
X69100Y30317D01*
X68900Y30608D01*
X68800Y30900D01*
Y31192D01*
X68900Y31483D01*
X69050Y31733D01*
X69250Y31942D01*
G01X70050Y33008D02*
X70400Y33300D01*
X70600Y33550D01*
X70700Y33883D01*
X70600Y34175D01*
X70400Y34383D01*
X70100Y34550D01*
X69750Y34592D01*
X69450Y34550D01*
X69150Y34383D01*
X68900Y34133D01*
X68800Y33842D01*
X68900Y33508D01*
X69200Y33217D01*
X69650Y33050D01*
X70150Y33008D01*
X70800Y33092D01*
X71150Y33217D01*
X71500Y33425D01*
X71750Y33717D01*
X71800Y34008D01*
X71700Y34300D01*
X71450Y34508D01*
G01X68800Y36700D02*
X71800D01*
X71200Y36200D01*
G01X68800D02*
Y37200D01*
G01X60983Y32350D02*
X61233Y32500D01*
X61525Y32600D01*
X61858D01*
X62233Y32450D01*
X62525Y32200D01*
X62733Y31900D01*
X62900Y31400D01*
X62942Y30950D01*
X62858Y30500D01*
X62733Y30200D01*
X62483Y29900D01*
X62192Y29700D01*
X61900Y29600D01*
X61608D01*
X61317Y29700D01*
X61067Y29850D01*
X60858Y30050D01*
G01X59792Y30850D02*
X59500Y31200D01*
X59250Y31400D01*
X58917Y31500D01*
X58625Y31400D01*
X58417Y31200D01*
X58250Y30900D01*
X58208Y30550D01*
X58250Y30250D01*
X58417Y29950D01*
X58667Y29700D01*
X58958Y29600D01*
X59292Y29700D01*
X59583Y30000D01*
X59750Y30450D01*
X59792Y30950D01*
X59708Y31600D01*
X59583Y31950D01*
X59375Y32300D01*
X59083Y32550D01*
X58792Y32600D01*
X58500Y32500D01*
X58292Y32250D01*
G01X56892Y32100D02*
X56642Y32400D01*
X56350Y32550D01*
X56017Y32600D01*
X55600Y32500D01*
X55308Y32250D01*
X55225Y31950D01*
X55267Y31650D01*
X55433Y31400D01*
X56267Y30900D01*
X56642Y30550D01*
X56892Y30050D01*
X56975Y29600D01*
X55225D01*
G01X58406Y28094D02*
Y29275D01*
X60768D01*
Y28094D01*
X58406D01*
G01X55397Y25466D02*
X56578D01*
Y23104D01*
X55397D01*
Y25466D01*
G01X70383Y16150D02*
X70633Y16300D01*
X70925Y16400D01*
X71258D01*
X71633Y16250D01*
X71925Y16000D01*
X72133Y15700D01*
X72300Y15200D01*
X72342Y14750D01*
X72258Y14300D01*
X72133Y14000D01*
X71883Y13700D01*
X71592Y13500D01*
X71300Y13400D01*
X71008D01*
X70717Y13500D01*
X70467Y13650D01*
X70258Y13850D01*
G01X69192Y14650D02*
X68900Y15000D01*
X68650Y15200D01*
X68317Y15300D01*
X68025Y15200D01*
X67817Y15000D01*
X67650Y14700D01*
X67608Y14350D01*
X67650Y14050D01*
X67817Y13750D01*
X68067Y13500D01*
X68358Y13400D01*
X68692Y13500D01*
X68983Y13800D01*
X69150Y14250D01*
X69192Y14750D01*
X69108Y15400D01*
X68983Y15750D01*
X68775Y16100D01*
X68483Y16350D01*
X68192Y16400D01*
X67900Y16300D01*
X67692Y16050D01*
G01X65583Y13400D02*
X65500Y14050D01*
X65375Y14600D01*
X65208Y15100D01*
X65000Y15650D01*
X64667Y16400D01*
X66333D01*
G01X67079Y17010D02*
Y18191D01*
X69442D01*
Y17010D01*
X67079D01*
G01X53397Y16066D02*
X54578D01*
Y13704D01*
X53397D01*
Y16066D01*
G01X76350Y25217D02*
X76500Y24967D01*
X76600Y24675D01*
Y24342D01*
X76450Y23967D01*
X76200Y23675D01*
X75900Y23467D01*
X75400Y23300D01*
X74950Y23258D01*
X74500Y23342D01*
X74200Y23467D01*
X73900Y23717D01*
X73700Y24008D01*
X73600Y24300D01*
Y24592D01*
X73700Y24883D01*
X73850Y25133D01*
X74050Y25342D01*
G01X74850Y26408D02*
X75200Y26700D01*
X75400Y26950D01*
X75500Y27283D01*
X75400Y27575D01*
X75200Y27783D01*
X74900Y27950D01*
X74550Y27992D01*
X74250Y27950D01*
X73950Y27783D01*
X73700Y27533D01*
X73600Y27242D01*
X73700Y26908D01*
X74000Y26617D01*
X74450Y26450D01*
X74950Y26408D01*
X75600Y26492D01*
X75950Y26617D01*
X76300Y26825D01*
X76550Y27117D01*
X76600Y27408D01*
X76500Y27700D01*
X76250Y27908D01*
G01X74200Y29183D02*
X73850Y29433D01*
X73650Y29767D01*
X73600Y30142D01*
X73650Y30475D01*
X73900Y30808D01*
X74200Y31017D01*
X74500Y31058D01*
X74850Y30975D01*
X75100Y30683D01*
X75200Y30392D01*
Y30017D01*
G01Y30392D02*
X75350Y30642D01*
X75600Y30850D01*
X75900Y30933D01*
X76200Y30850D01*
X76450Y30642D01*
X76600Y30267D01*
X76550Y29892D01*
X76350Y29517D01*
G01X71607Y26318D02*
X72788D01*
Y23956D01*
X71607D01*
Y26318D01*
G01X59600Y13349D02*
Y12168D01*
X57237D01*
Y13349D01*
X59600D01*
G01X61583Y20350D02*
X61833Y20500D01*
X62125Y20600D01*
X62458D01*
X62833Y20450D01*
X63125Y20200D01*
X63333Y19900D01*
X63500Y19400D01*
X63542Y18950D01*
X63458Y18500D01*
X63333Y18200D01*
X63083Y17900D01*
X62792Y17700D01*
X62500Y17600D01*
X62208D01*
X61917Y17700D01*
X61667Y17850D01*
X61458Y18050D01*
G01X60392Y18850D02*
X60100Y19200D01*
X59850Y19400D01*
X59517Y19500D01*
X59225Y19400D01*
X59017Y19200D01*
X58850Y18900D01*
X58808Y18550D01*
X58850Y18250D01*
X59017Y17950D01*
X59267Y17700D01*
X59558Y17600D01*
X59892Y17700D01*
X60183Y18000D01*
X60350Y18450D01*
X60392Y18950D01*
X60308Y19600D01*
X60183Y19950D01*
X59975Y20300D01*
X59683Y20550D01*
X59392Y20600D01*
X59100Y20500D01*
X58892Y20250D01*
G01X56700Y17600D02*
X56408Y17650D01*
X56075Y17800D01*
X55867Y18050D01*
X55783Y18400D01*
X55867Y18750D01*
X56117Y19050D01*
X56492Y19200D01*
X56908D01*
X57158Y19300D01*
X57367Y19550D01*
X57450Y19900D01*
X57325Y20250D01*
X57033Y20500D01*
X56700Y20600D01*
X56367Y20500D01*
X56075Y20250D01*
X55950Y19900D01*
X56033Y19550D01*
X56242Y19300D01*
X56492Y19200D01*
X56908D01*
X57283Y19050D01*
X57533Y18750D01*
X57617Y18400D01*
X57533Y18050D01*
X57325Y17800D01*
X56992Y17650D01*
X56700Y17600D01*
G01X61568Y16870D02*
Y15688D01*
X59206D01*
Y16870D01*
X61568D01*
G01X64968Y13275D02*
Y12094D01*
X62606D01*
Y13275D01*
X64968D01*
G01X62183Y38150D02*
X62433Y38300D01*
X62725Y38400D01*
X63058D01*
X63433Y38250D01*
X63725Y38000D01*
X63933Y37700D01*
X64100Y37200D01*
X64142Y36750D01*
X64058Y36300D01*
X63933Y36000D01*
X63683Y35700D01*
X63392Y35500D01*
X63100Y35400D01*
X62808D01*
X62517Y35500D01*
X62267Y35650D01*
X62058Y35850D01*
G01X61117D02*
X60867Y35600D01*
X60575Y35450D01*
X60200Y35400D01*
X59825Y35500D01*
X59533Y35700D01*
X59325Y36050D01*
X59283Y36450D01*
X59367Y36850D01*
X59575Y37100D01*
X59867Y37300D01*
X60158Y37350D01*
X60450Y37300D01*
X60825Y37100D01*
X60700Y38400D01*
X59575D01*
G01X58008Y35750D02*
X57717Y35500D01*
X57383Y35400D01*
X57050Y35500D01*
X56758Y35800D01*
X56550Y36250D01*
X56467Y36700D01*
Y37250D01*
X56550Y37700D01*
X56758Y38100D01*
X57008Y38300D01*
X57300Y38400D01*
X57633Y38300D01*
X57883Y38100D01*
X58050Y37800D01*
X58133Y37400D01*
X58050Y37050D01*
X57842Y36700D01*
X57592Y36500D01*
X57300Y36450D01*
X56967Y36550D01*
X56717Y36800D01*
X56467Y37250D01*
G01X59406Y33694D02*
Y34875D01*
X61768D01*
Y33694D01*
X59406D01*
G01X67778Y32204D02*
X66597D01*
Y34566D01*
X67778D01*
Y32204D01*
G01X60707Y52353D02*
Y48416D01*
X58738D01*
Y52353D01*
X60707D01*
G01X63583Y39800D02*
Y42800D01*
X62542D01*
X62208Y42650D01*
X62000Y42450D01*
X61917Y42050D01*
X62000Y41650D01*
X62250Y41400D01*
X62542Y41250D01*
X63583D01*
G01X62542D02*
X61917Y39800D01*
G01X59850D02*
Y42800D01*
X60350Y42200D01*
G01Y39800D02*
X59350D01*
G01X56450D02*
Y42800D01*
X57992Y40650D01*
X55908D01*
G01X54842Y42300D02*
X54592Y42600D01*
X54300Y42750D01*
X53967Y42800D01*
X53550Y42700D01*
X53258Y42450D01*
X53175Y42150D01*
X53217Y41850D01*
X53383Y41600D01*
X54217Y41100D01*
X54592Y40750D01*
X54842Y40250D01*
X54925Y39800D01*
X53175D01*
G01X59852Y44975D02*
Y43794D01*
X57490D01*
Y44975D01*
X59852D01*
G01X82983Y38200D02*
Y41200D01*
X81942D01*
X81608Y41050D01*
X81400Y40850D01*
X81317Y40450D01*
X81400Y40050D01*
X81650Y39800D01*
X81942Y39650D01*
X82983D01*
G01X81942D02*
X81317Y38200D01*
G01X79250D02*
Y41200D01*
X79750Y40600D01*
G01Y38200D02*
X78750D01*
G01X75850D02*
Y41200D01*
X77392Y39050D01*
X75308D01*
G01X74367Y38800D02*
X74117Y38450D01*
X73783Y38250D01*
X73408Y38200D01*
X73075Y38250D01*
X72742Y38500D01*
X72533Y38800D01*
X72492Y39100D01*
X72575Y39450D01*
X72867Y39700D01*
X73158Y39800D01*
X73533D01*
G01X73158D02*
X72908Y39950D01*
X72700Y40200D01*
X72617Y40500D01*
X72700Y40800D01*
X72908Y41050D01*
X73283Y41200D01*
X73658Y41150D01*
X74033Y40950D01*
G01X54987Y45585D02*
X52987D01*
X53987Y46585D01*
X54987Y45585D01*
G01X72258Y49200D02*
Y52200D01*
X70342Y49200D01*
Y52200D01*
G01X69233Y49200D02*
Y52200D01*
X68192D01*
X67858Y52050D01*
X67650Y51850D01*
X67567Y51450D01*
X67650Y51050D01*
X67900Y50800D01*
X68192Y50650D01*
X69233D01*
G01X68192D02*
X67567Y49200D01*
G01X65500D02*
Y52200D01*
X66000Y51600D01*
G01Y49200D02*
X65000D01*
G01X72387Y45585D02*
X70387D01*
X71387Y46585D01*
X72387Y45585D01*
G01X58000Y53417D02*
X61000D01*
Y54458D01*
X60850Y54792D01*
X60650Y55000D01*
X60250Y55083D01*
X59850Y55000D01*
X59600Y54750D01*
X59450Y54458D01*
Y53417D01*
G01Y54458D02*
X58000Y55083D01*
G01Y57150D02*
X61000D01*
X60400Y56650D01*
G01X58000D02*
Y57650D01*
G01Y60550D02*
X61000D01*
X58850Y59008D01*
Y61092D01*
G01X61000Y62950D02*
X60900Y62617D01*
X60650Y62367D01*
X60350Y62200D01*
X59950Y62075D01*
X59500Y62033D01*
X59050Y62075D01*
X58650Y62200D01*
X58350Y62367D01*
X58100Y62617D01*
X58000Y62950D01*
X58100Y63283D01*
X58350Y63533D01*
X58650Y63700D01*
X59050Y63825D01*
X59500Y63867D01*
X59950Y63825D01*
X60350Y63700D01*
X60650Y63533D01*
X60900Y63283D01*
X61000Y62950D01*
G01X63933Y257200D02*
Y260200D01*
X62850Y257700D01*
X61767Y260200D01*
Y257200D01*
G01X60867Y257800D02*
X60617Y257450D01*
X60283Y257250D01*
X59908Y257200D01*
X59575Y257250D01*
X59242Y257500D01*
X59033Y257800D01*
X58992Y258100D01*
X59075Y258450D01*
X59367Y258700D01*
X59658Y258800D01*
X60033D01*
G01X59658D02*
X59408Y258950D01*
X59200Y259200D01*
X59117Y259500D01*
X59200Y259800D01*
X59408Y260050D01*
X59783Y260200D01*
X60158Y260150D01*
X60533Y259950D01*
G01X69100Y250340D02*
X70600Y248840D01*
X67600D01*
X69100Y250340D01*
G01X75733Y373700D02*
Y376700D01*
X74650Y374200D01*
X73567Y376700D01*
Y373700D01*
G01X71750D02*
Y376700D01*
X72250Y376100D01*
G01Y373700D02*
X71250D01*
G01X64837Y368235D02*
X63337Y366735D01*
Y369735D01*
X64837Y368235D01*
G01X65467Y385575D02*
X81207D01*
Y365895D01*
X65467D01*
Y385575D01*
G01X79683Y392500D02*
Y395500D01*
X78642D01*
X78308Y395350D01*
X78100Y395150D01*
X78017Y394750D01*
X78100Y394350D01*
X78350Y394100D01*
X78642Y393950D01*
X79683D01*
G01X78642D02*
X78017Y392500D01*
G01X75950D02*
Y395500D01*
X76450Y394900D01*
G01Y392500D02*
X75450D01*
G01X73842Y395000D02*
X73592Y395300D01*
X73300Y395450D01*
X72967Y395500D01*
X72550Y395400D01*
X72258Y395150D01*
X72175Y394850D01*
X72217Y394550D01*
X72383Y394300D01*
X73217Y393800D01*
X73592Y393450D01*
X73842Y392950D01*
X73925Y392500D01*
X72175D01*
G01X70942Y395000D02*
X70692Y395300D01*
X70400Y395450D01*
X70067Y395500D01*
X69650Y395400D01*
X69358Y395150D01*
X69275Y394850D01*
X69317Y394550D01*
X69483Y394300D01*
X70317Y393800D01*
X70692Y393450D01*
X70942Y392950D01*
X71025Y392500D01*
X69275D01*
G01X71250Y391975D02*
X77550D01*
Y388825D01*
X71250D01*
Y391975D01*
G01X76483Y402250D02*
X76733Y402400D01*
X77025Y402500D01*
X77358D01*
X77733Y402350D01*
X78025Y402100D01*
X78233Y401800D01*
X78400Y401300D01*
X78442Y400850D01*
X78358Y400400D01*
X78233Y400100D01*
X77983Y399800D01*
X77692Y399600D01*
X77400Y399500D01*
X77108D01*
X76817Y399600D01*
X76567Y399750D01*
X76358Y399950D01*
G01X75417Y400100D02*
X75167Y399750D01*
X74833Y399550D01*
X74458Y399500D01*
X74125Y399550D01*
X73792Y399800D01*
X73583Y400100D01*
X73542Y400400D01*
X73625Y400750D01*
X73917Y401000D01*
X74208Y401100D01*
X74583D01*
G01X74208D02*
X73958Y401250D01*
X73750Y401500D01*
X73667Y401800D01*
X73750Y402100D01*
X73958Y402350D01*
X74333Y402500D01*
X74708Y402450D01*
X75083Y402250D01*
G01X71683Y399500D02*
X71600Y400150D01*
X71475Y400700D01*
X71308Y401200D01*
X71100Y401750D01*
X70767Y402500D01*
X72433D01*
G01X77587Y395800D02*
X71288D01*
Y398950D01*
X77587D01*
Y395800D01*
G01X79183Y407000D02*
Y410000D01*
X78142D01*
X77808Y409850D01*
X77600Y409650D01*
X77517Y409250D01*
X77600Y408850D01*
X77850Y408600D01*
X78142Y408450D01*
X79183D01*
G01X78142D02*
X77517Y407000D01*
G01X75450D02*
Y410000D01*
X75950Y409400D01*
G01Y407000D02*
X74950D01*
G01X72550D02*
Y410000D01*
X73050Y409400D01*
G01Y407000D02*
X72050D01*
G01X69650D02*
X69358Y407050D01*
X69025Y407200D01*
X68817Y407450D01*
X68733Y407800D01*
X68817Y408150D01*
X69067Y408450D01*
X69442Y408600D01*
X69858D01*
X70108Y408700D01*
X70317Y408950D01*
X70400Y409300D01*
X70275Y409650D01*
X69983Y409900D01*
X69650Y410000D01*
X69317Y409900D01*
X69025Y409650D01*
X68900Y409300D01*
X68983Y408950D01*
X69192Y408700D01*
X69442Y408600D01*
X69858D01*
X70233Y408450D01*
X70483Y408150D01*
X70567Y407800D01*
X70483Y407450D01*
X70275Y407200D01*
X69942Y407050D01*
X69650Y407000D01*
G01X77550Y402825D02*
X71250D01*
Y405975D01*
X77550D01*
Y402825D01*
G01X58000Y403183D02*
X61000D01*
Y404017D01*
X60850Y404350D01*
X60650Y404600D01*
X60350Y404808D01*
X60000Y404975D01*
X59500Y405017D01*
X59000Y404975D01*
X58650Y404808D01*
X58350Y404600D01*
X58150Y404350D01*
X58000Y404017D01*
Y403183D01*
G01Y407000D02*
X61000D01*
X60400Y406500D01*
G01X58000D02*
Y407500D01*
G01X58600Y408983D02*
X58250Y409233D01*
X58050Y409567D01*
X58000Y409942D01*
X58050Y410275D01*
X58300Y410608D01*
X58600Y410817D01*
X58900Y410858D01*
X59250Y410775D01*
X59500Y410483D01*
X59600Y410192D01*
Y409817D01*
G01Y410192D02*
X59750Y410442D01*
X60000Y410650D01*
X60300Y410733D01*
X60600Y410650D01*
X60850Y410442D01*
X61000Y410067D01*
X60950Y409692D01*
X60750Y409317D01*
G01X64374Y458049D02*
Y440049D01*
X52874D01*
Y458049D01*
X64374D01*
G01X57400Y445583D02*
X60400D01*
Y446417D01*
X60250Y446750D01*
X60050Y447000D01*
X59750Y447208D01*
X59400Y447375D01*
X58900Y447417D01*
X58400Y447375D01*
X58050Y447208D01*
X57750Y447000D01*
X57550Y446750D01*
X57400Y446417D01*
Y445583D01*
G01Y449400D02*
X60400D01*
X59800Y448900D01*
G01X57400D02*
Y449900D01*
G01X59900Y451508D02*
X60200Y451758D01*
X60350Y452050D01*
X60400Y452383D01*
X60300Y452800D01*
X60050Y453092D01*
X59750Y453175D01*
X59450Y453133D01*
X59200Y452967D01*
X58700Y452133D01*
X58350Y451758D01*
X57850Y451508D01*
X57400Y451425D01*
Y453175D01*
G01X74250Y449017D02*
X74400Y448767D01*
X74500Y448475D01*
Y448142D01*
X74350Y447767D01*
X74100Y447475D01*
X73800Y447267D01*
X73300Y447100D01*
X72850Y447058D01*
X72400Y447142D01*
X72100Y447267D01*
X71800Y447517D01*
X71600Y447808D01*
X71500Y448100D01*
Y448392D01*
X71600Y448683D01*
X71750Y448933D01*
X71950Y449142D01*
G01X72100Y450083D02*
X71750Y450333D01*
X71550Y450667D01*
X71500Y451042D01*
X71550Y451375D01*
X71800Y451708D01*
X72100Y451917D01*
X72400Y451958D01*
X72750Y451875D01*
X73000Y451583D01*
X73100Y451292D01*
Y450917D01*
G01Y451292D02*
X73250Y451542D01*
X73500Y451750D01*
X73800Y451833D01*
X74100Y451750D01*
X74350Y451542D01*
X74500Y451167D01*
X74450Y450792D01*
X74250Y450417D01*
G01X74000Y453108D02*
X74300Y453358D01*
X74450Y453650D01*
X74500Y453983D01*
X74400Y454400D01*
X74150Y454692D01*
X73850Y454775D01*
X73550Y454733D01*
X73300Y454567D01*
X72800Y453733D01*
X72450Y453358D01*
X71950Y453108D01*
X71500Y453025D01*
Y454775D01*
G01X70128Y454282D02*
Y447983D01*
X66979D01*
Y454282D01*
X70128D01*
G01X64307Y519814D02*
X65307Y520814D01*
Y518814D01*
X64307Y519814D01*
G01X73500Y545817D02*
X76500D01*
Y546858D01*
X76350Y547192D01*
X76150Y547400D01*
X75750Y547483D01*
X75350Y547400D01*
X75100Y547150D01*
X74950Y546858D01*
Y545817D01*
G01Y546858D02*
X73500Y547483D01*
G01Y549550D02*
X76500D01*
X75900Y549050D01*
G01X73500D02*
Y550050D01*
G01X73950Y551533D02*
X73700Y551783D01*
X73550Y552075D01*
X73500Y552450D01*
X73600Y552825D01*
X73800Y553117D01*
X74150Y553325D01*
X74550Y553367D01*
X74950Y553283D01*
X75200Y553075D01*
X75400Y552783D01*
X75450Y552492D01*
X75400Y552200D01*
X75200Y551825D01*
X76500Y551950D01*
Y553075D01*
G01X73500Y555350D02*
X73550Y555642D01*
X73700Y555975D01*
X73950Y556183D01*
X74300Y556267D01*
X74650Y556183D01*
X74950Y555933D01*
X75100Y555558D01*
Y555142D01*
X75200Y554892D01*
X75450Y554683D01*
X75800Y554600D01*
X76150Y554725D01*
X76400Y555017D01*
X76500Y555350D01*
X76400Y555683D01*
X76150Y555975D01*
X75800Y556100D01*
X75450Y556017D01*
X75200Y555808D01*
X75100Y555558D01*
Y555142D01*
X74950Y554767D01*
X74650Y554517D01*
X74300Y554433D01*
X73950Y554517D01*
X73700Y554725D01*
X73550Y555058D01*
X73500Y555350D01*
G01X72017Y554078D02*
Y557078D01*
X70975D01*
X70642Y556927D01*
X70433Y556728D01*
X70350Y556328D01*
X70433Y555928D01*
X70683Y555678D01*
X70975Y555528D01*
X72017D01*
G01X70975D02*
X70350Y554078D01*
G01X68283D02*
Y557078D01*
X68783Y556478D01*
G01Y554078D02*
X67783D01*
G01X66300Y554528D02*
X66050Y554278D01*
X65758Y554128D01*
X65383Y554078D01*
X65008Y554178D01*
X64717Y554378D01*
X64508Y554728D01*
X64467Y555128D01*
X64550Y555528D01*
X64758Y555778D01*
X65050Y555978D01*
X65342Y556028D01*
X65633Y555978D01*
X66008Y555778D01*
X65883Y557078D01*
X64758D01*
G01X62567Y554078D02*
X62483Y554728D01*
X62358Y555278D01*
X62192Y555778D01*
X61983Y556328D01*
X61650Y557078D01*
X63317D01*
G01X76583Y580550D02*
X76833Y580700D01*
X77125Y580800D01*
X77458D01*
X77833Y580650D01*
X78125Y580400D01*
X78333Y580100D01*
X78500Y579600D01*
X78542Y579150D01*
X78458Y578700D01*
X78333Y578400D01*
X78083Y578100D01*
X77792Y577900D01*
X77500Y577800D01*
X77208D01*
X76917Y577900D01*
X76667Y578050D01*
X76458Y578250D01*
G01X75392Y580300D02*
X75142Y580600D01*
X74850Y580750D01*
X74517Y580800D01*
X74100Y580700D01*
X73808Y580450D01*
X73725Y580150D01*
X73767Y579850D01*
X73933Y579600D01*
X74767Y579100D01*
X75142Y578750D01*
X75392Y578250D01*
X75475Y577800D01*
X73725D01*
G01X72617Y578400D02*
X72367Y578050D01*
X72033Y577850D01*
X71658Y577800D01*
X71325Y577850D01*
X70992Y578100D01*
X70783Y578400D01*
X70742Y578700D01*
X70825Y579050D01*
X71117Y579300D01*
X71408Y579400D01*
X71783D01*
G01X71408D02*
X71158Y579550D01*
X70950Y579800D01*
X70867Y580100D01*
X70950Y580400D01*
X71158Y580650D01*
X71533Y580800D01*
X71908Y580750D01*
X72283Y580550D01*
G01X76934Y573713D02*
X70241D01*
Y577256D01*
X76934D01*
Y573713D01*
G01X95350Y12000D02*
Y9000D01*
G01X96308Y12000D02*
X94392D01*
G01X93283Y9000D02*
Y12000D01*
X92283D01*
X91950Y11850D01*
X91700Y11500D01*
X91617Y11100D01*
X91700Y10700D01*
X91908Y10400D01*
X92283Y10250D01*
X93283D01*
G01X89550Y9000D02*
Y12000D01*
X90050Y11400D01*
G01Y9000D02*
X89050D01*
G01X86733D02*
X86650Y9650D01*
X86525Y10200D01*
X86358Y10700D01*
X86150Y11250D01*
X85817Y12000D01*
X87483D01*
G01X95350Y21500D02*
Y18500D01*
G01X96308Y21500D02*
X94392D01*
G01X93283Y18500D02*
Y21500D01*
X92283D01*
X91950Y21350D01*
X91700Y21000D01*
X91617Y20600D01*
X91700Y20200D01*
X91908Y19900D01*
X92283Y19750D01*
X93283D01*
G01X89550Y18500D02*
Y21500D01*
X90050Y20900D01*
G01Y18500D02*
X89050D01*
G01X87442Y19750D02*
X87150Y20100D01*
X86900Y20300D01*
X86567Y20400D01*
X86275Y20300D01*
X86067Y20100D01*
X85900Y19800D01*
X85858Y19450D01*
X85900Y19150D01*
X86067Y18850D01*
X86317Y18600D01*
X86608Y18500D01*
X86942Y18600D01*
X87233Y18900D01*
X87400Y19350D01*
X87442Y19850D01*
X87358Y20500D01*
X87233Y20850D01*
X87025Y21200D01*
X86733Y21450D01*
X86442Y21500D01*
X86150Y21400D01*
X85942Y21150D01*
G01X95288Y30344D02*
Y27344D01*
G01X96246Y30344D02*
X94329D01*
G01X93221Y27344D02*
Y30344D01*
X92221D01*
X91888Y30194D01*
X91638Y29844D01*
X91554Y29444D01*
X91638Y29044D01*
X91846Y28744D01*
X92221Y28594D01*
X93221D01*
G01X89488Y27344D02*
Y30344D01*
X89988Y29744D01*
G01Y27344D02*
X88988D01*
G01X86088D02*
Y30344D01*
X87629Y28194D01*
X85546D01*
G01X81500Y44317D02*
X84500D01*
Y45358D01*
X84350Y45692D01*
X84150Y45900D01*
X83750Y45983D01*
X83350Y45900D01*
X83100Y45650D01*
X82950Y45358D01*
Y44317D01*
G01Y45358D02*
X81500Y45983D01*
G01Y48050D02*
X84500D01*
X83900Y47550D01*
G01X81500D02*
Y48550D01*
G01Y51450D02*
X84500D01*
X82350Y49908D01*
Y51992D01*
G01X81500Y53850D02*
X84500D01*
X83900Y53350D01*
G01X81500D02*
Y54350D01*
G01X78403Y48216D02*
Y52153D01*
X80372D01*
Y48216D01*
X78403D01*
G01X95538Y40485D02*
Y37485D01*
G01X96496Y40485D02*
X94579D01*
G01X93471Y37485D02*
Y40485D01*
X92471D01*
X92138Y40335D01*
X91888Y39985D01*
X91804Y39585D01*
X91888Y39185D01*
X92096Y38885D01*
X92471Y38735D01*
X93471D01*
G01X89738Y37485D02*
Y40485D01*
X90238Y39885D01*
G01Y37485D02*
X89238D01*
G01X87629Y39985D02*
X87379Y40285D01*
X87088Y40435D01*
X86754Y40485D01*
X86338Y40385D01*
X86046Y40135D01*
X85962Y39835D01*
X86004Y39535D01*
X86171Y39285D01*
X87004Y38785D01*
X87379Y38435D01*
X87629Y37935D01*
X87712Y37485D01*
X85962D01*
G01X76506Y42094D02*
Y43275D01*
X78868D01*
Y42094D01*
X76506D01*
G01X92263Y233061D02*
X100137D01*
Y228139D01*
X92263D01*
Y233061D01*
G01X92850Y237030D02*
X99150D01*
Y240170D01*
X92850D01*
Y237030D01*
G01X86090Y236340D02*
Y241340D01*
X88590Y238840D01*
X86090Y236340D01*
G01X88590D02*
Y241340D01*
G01X102150Y248434D02*
Y272016D01*
X82465D01*
Y248434D01*
X102150D01*
G01X88590Y238840D02*
X91090D01*
G01X86090D02*
X83590D01*
G01X94933Y260000D02*
Y263000D01*
X93850Y260500D01*
X92767Y263000D01*
Y260000D01*
G01X91742Y262500D02*
X91492Y262800D01*
X91200Y262950D01*
X90867Y263000D01*
X90450Y262900D01*
X90158Y262650D01*
X90075Y262350D01*
X90117Y262050D01*
X90283Y261800D01*
X91117Y261300D01*
X91492Y260950D01*
X91742Y260450D01*
X91825Y260000D01*
X90075D01*
G01X79450Y323000D02*
Y320000D01*
G01X80408Y323000D02*
X78492D01*
G01X77342Y322500D02*
X77092Y322800D01*
X76800Y322950D01*
X76467Y323000D01*
X76050Y322900D01*
X75758Y322650D01*
X75675Y322350D01*
X75717Y322050D01*
X75883Y321800D01*
X76717Y321300D01*
X77092Y320950D01*
X77342Y320450D01*
X77425Y320000D01*
X75675D01*
G01X82483Y361750D02*
X82733Y361900D01*
X83025Y362000D01*
X83358D01*
X83733Y361850D01*
X84025Y361600D01*
X84233Y361300D01*
X84400Y360800D01*
X84442Y360350D01*
X84358Y359900D01*
X84233Y359600D01*
X83983Y359300D01*
X83692Y359100D01*
X83400Y359000D01*
X83108D01*
X82817Y359100D01*
X82567Y359250D01*
X82358Y359450D01*
G01X80000Y359000D02*
Y362000D01*
X81542Y359850D01*
X79458D01*
G01X78392Y361500D02*
X78142Y361800D01*
X77850Y361950D01*
X77517Y362000D01*
X77100Y361900D01*
X76808Y361650D01*
X76725Y361350D01*
X76767Y361050D01*
X76933Y360800D01*
X77767Y360300D01*
X78142Y359950D01*
X78392Y359450D01*
X78475Y359000D01*
X76725D01*
G01X73901Y363550D02*
X86499D01*
Y357250D01*
X73901D01*
Y363550D01*
G01X91443Y389765D02*
Y396064D01*
X94592D01*
Y389765D01*
X91443D01*
G01X88000Y391317D02*
X91000D01*
Y392358D01*
X90850Y392692D01*
X90650Y392900D01*
X90250Y392983D01*
X89850Y392900D01*
X89600Y392650D01*
X89450Y392358D01*
Y391317D01*
G01Y392358D02*
X88000Y392983D01*
G01Y395050D02*
X91000D01*
X90400Y394550D01*
G01X88000D02*
Y395550D01*
G01Y397950D02*
X91000D01*
X90400Y397450D01*
G01X88000D02*
Y398450D01*
G01X88350Y400142D02*
X88100Y400433D01*
X88000Y400767D01*
X88100Y401100D01*
X88400Y401392D01*
X88850Y401600D01*
X89300Y401683D01*
X89850D01*
X90300Y401600D01*
X90700Y401392D01*
X90900Y401142D01*
X91000Y400850D01*
X90900Y400517D01*
X90700Y400267D01*
X90400Y400100D01*
X90000Y400017D01*
X89650Y400100D01*
X89300Y400308D01*
X89100Y400558D01*
X89050Y400850D01*
X89150Y401183D01*
X89400Y401433D01*
X89850Y401683D01*
G01X87432Y400234D02*
Y393935D01*
X84283D01*
Y400234D01*
X87432D01*
G01X87167Y425600D02*
Y423450D01*
X87000Y423000D01*
X86667Y422700D01*
X86250Y422600D01*
X85833Y422700D01*
X85500Y423000D01*
X85333Y423450D01*
Y425600D01*
G01X83350Y422600D02*
Y425600D01*
X83850Y425000D01*
G01Y422600D02*
X82850D01*
G01X80450D02*
Y425600D01*
X80950Y425000D01*
G01Y422600D02*
X79950D01*
G01X84983Y466350D02*
X85233Y466500D01*
X85525Y466600D01*
X85858D01*
X86233Y466450D01*
X86525Y466200D01*
X86733Y465900D01*
X86900Y465400D01*
X86942Y464950D01*
X86858Y464500D01*
X86733Y464200D01*
X86483Y463900D01*
X86192Y463700D01*
X85900Y463600D01*
X85608D01*
X85317Y463700D01*
X85067Y463850D01*
X84858Y464050D01*
G01X83917Y464200D02*
X83667Y463850D01*
X83333Y463650D01*
X82958Y463600D01*
X82625Y463650D01*
X82292Y463900D01*
X82083Y464200D01*
X82042Y464500D01*
X82125Y464850D01*
X82417Y465100D01*
X82708Y465200D01*
X83083D01*
G01X82708D02*
X82458Y465350D01*
X82250Y465600D01*
X82167Y465900D01*
X82250Y466200D01*
X82458Y466450D01*
X82833Y466600D01*
X83208Y466550D01*
X83583Y466350D01*
G01X80100Y463600D02*
Y466600D01*
X80600Y466000D01*
G01Y463600D02*
X79600D01*
G01X78547Y462006D02*
X87208D01*
Y467715D01*
X78547D01*
Y462006D01*
G01X90500Y448317D02*
X93500D01*
Y449358D01*
X93350Y449692D01*
X93150Y449900D01*
X92750Y449983D01*
X92350Y449900D01*
X92100Y449650D01*
X91950Y449358D01*
Y448317D01*
G01Y449358D02*
X90500Y449983D01*
G01Y452050D02*
X93500D01*
X92900Y451550D01*
G01X90500D02*
Y452550D01*
G01Y454950D02*
X93500D01*
X92900Y454450D01*
G01X90500D02*
Y455450D01*
G01X91750Y457058D02*
X92100Y457350D01*
X92300Y457600D01*
X92400Y457933D01*
X92300Y458225D01*
X92100Y458433D01*
X91800Y458600D01*
X91450Y458642D01*
X91150Y458600D01*
X90850Y458433D01*
X90600Y458183D01*
X90500Y457892D01*
X90600Y457558D01*
X90900Y457267D01*
X91350Y457100D01*
X91850Y457058D01*
X92500Y457142D01*
X92850Y457267D01*
X93200Y457475D01*
X93450Y457767D01*
X93500Y458058D01*
X93400Y458350D01*
X93150Y458558D01*
G01X89914Y456580D02*
Y448706D01*
X84993D01*
Y456580D01*
X89914D01*
G01X81000Y446317D02*
X84000D01*
Y447358D01*
X83850Y447692D01*
X83650Y447900D01*
X83250Y447983D01*
X82850Y447900D01*
X82600Y447650D01*
X82450Y447358D01*
Y446317D01*
G01Y447358D02*
X81000Y447983D01*
G01Y450050D02*
X84000D01*
X83400Y449550D01*
G01X81000D02*
Y450550D01*
G01Y452950D02*
X84000D01*
X83400Y452450D01*
G01X81000D02*
Y453450D01*
G01Y455767D02*
X81650Y455850D01*
X82200Y455975D01*
X82700Y456142D01*
X83250Y456350D01*
X84000Y456683D01*
Y455017D01*
G01X77366Y447983D02*
Y454282D01*
X80516D01*
Y447983D01*
X77366D01*
G01X78000Y541917D02*
X81000D01*
Y542958D01*
X80850Y543292D01*
X80650Y543500D01*
X80250Y543583D01*
X79850Y543500D01*
X79600Y543250D01*
X79450Y542958D01*
Y541917D01*
G01Y542958D02*
X78000Y543583D01*
G01Y545650D02*
X81000D01*
X80400Y545150D01*
G01X78000D02*
Y546150D01*
G01X81000Y548550D02*
X80900Y548217D01*
X80650Y547967D01*
X80350Y547800D01*
X79950Y547675D01*
X79500Y547633D01*
X79050Y547675D01*
X78650Y547800D01*
X78350Y547967D01*
X78100Y548217D01*
X78000Y548550D01*
X78100Y548883D01*
X78350Y549133D01*
X78650Y549300D01*
X79050Y549425D01*
X79500Y549467D01*
X79950Y549425D01*
X80350Y549300D01*
X80650Y549133D01*
X80900Y548883D01*
X81000Y548550D01*
G01X78000Y551450D02*
X78050Y551742D01*
X78200Y552075D01*
X78450Y552283D01*
X78800Y552367D01*
X79150Y552283D01*
X79450Y552033D01*
X79600Y551658D01*
Y551242D01*
X79700Y550992D01*
X79950Y550783D01*
X80300Y550700D01*
X80650Y550825D01*
X80900Y551117D01*
X81000Y551450D01*
X80900Y551783D01*
X80650Y552075D01*
X80300Y552200D01*
X79950Y552117D01*
X79700Y551908D01*
X79600Y551658D01*
Y551242D01*
X79450Y550867D01*
X79150Y550617D01*
X78800Y550533D01*
X78450Y550617D01*
X78200Y550825D01*
X78050Y551158D01*
X78000Y551450D01*
G01X81000Y554350D02*
X80900Y554017D01*
X80650Y553767D01*
X80350Y553600D01*
X79950Y553475D01*
X79500Y553433D01*
X79050Y553475D01*
X78650Y553600D01*
X78350Y553767D01*
X78100Y554017D01*
X78000Y554350D01*
X78100Y554683D01*
X78350Y554933D01*
X78650Y555100D01*
X79050Y555225D01*
X79500Y555267D01*
X79950Y555225D01*
X80350Y555100D01*
X80650Y554933D01*
X80900Y554683D01*
X81000Y554350D01*
G01Y557250D02*
X80900Y556917D01*
X80650Y556667D01*
X80350Y556500D01*
X79950Y556375D01*
X79500Y556333D01*
X79050Y556375D01*
X78650Y556500D01*
X78350Y556667D01*
X78100Y556917D01*
X78000Y557250D01*
X78100Y557583D01*
X78350Y557833D01*
X78650Y558000D01*
X79050Y558125D01*
X79500Y558167D01*
X79950Y558125D01*
X80350Y558000D01*
X80650Y557833D01*
X80900Y557583D01*
X81000Y557250D01*
G01X97967Y538800D02*
Y536650D01*
X97800Y536200D01*
X97467Y535900D01*
X97050Y535800D01*
X96633Y535900D01*
X96300Y536200D01*
X96133Y536650D01*
Y538800D01*
G01X94150Y535800D02*
X93858Y535850D01*
X93525Y536000D01*
X93317Y536250D01*
X93233Y536600D01*
X93317Y536950D01*
X93567Y537250D01*
X93942Y537400D01*
X94358D01*
X94608Y537500D01*
X94817Y537750D01*
X94900Y538100D01*
X94775Y538450D01*
X94483Y538700D01*
X94150Y538800D01*
X93817Y538700D01*
X93525Y538450D01*
X93400Y538100D01*
X93483Y537750D01*
X93692Y537500D01*
X93942Y537400D01*
X94358D01*
X94733Y537250D01*
X94983Y536950D01*
X95067Y536600D01*
X94983Y536250D01*
X94775Y536000D01*
X94442Y535850D01*
X94150Y535800D01*
G01X87187Y532795D02*
X86187Y531795D01*
Y533795D01*
X87187Y532795D01*
G01X87616Y544866D02*
X103758D01*
Y528724D01*
X87616D01*
Y544866D01*
G01X82500Y546817D02*
X85500D01*
Y547858D01*
X85350Y548192D01*
X85150Y548400D01*
X84750Y548483D01*
X84350Y548400D01*
X84100Y548150D01*
X83950Y547858D01*
Y546817D01*
G01Y547858D02*
X82500Y548483D01*
G01Y550550D02*
X85500D01*
X84900Y550050D01*
G01X82500D02*
Y551050D01*
G01X82950Y552533D02*
X82700Y552783D01*
X82550Y553075D01*
X82500Y553450D01*
X82600Y553825D01*
X82800Y554117D01*
X83150Y554325D01*
X83550Y554367D01*
X83950Y554283D01*
X84200Y554075D01*
X84400Y553783D01*
X84450Y553492D01*
X84400Y553200D01*
X84200Y552825D01*
X85500Y552950D01*
Y554075D01*
G01X83750Y555558D02*
X84100Y555850D01*
X84300Y556100D01*
X84400Y556433D01*
X84300Y556725D01*
X84100Y556933D01*
X83800Y557100D01*
X83450Y557142D01*
X83150Y557100D01*
X82850Y556933D01*
X82600Y556683D01*
X82500Y556392D01*
X82600Y556058D01*
X82900Y555767D01*
X83350Y555600D01*
X83850Y555558D01*
X84500Y555642D01*
X84850Y555767D01*
X85200Y555975D01*
X85450Y556267D01*
X85500Y556558D01*
X85400Y556850D01*
X85150Y557058D01*
G01X77087Y575485D02*
X78087Y576485D01*
Y574485D01*
X77087Y575485D01*
G01X114837Y10585D02*
G03I-3150J0D01*
G01X103737Y10885D02*
G03I-3149J0D01*
G01X114837Y21085D02*
G03I-3149J0D01*
G01X103737Y20294D02*
G03I-3149J0D01*
G01X114837Y30085D02*
G03I-3149J0D01*
G01X103737Y29294D02*
G03I-3149J0D01*
G01X114837Y39085D02*
G03I-3150J0D01*
G01X103737D02*
G03I-3150J0D01*
G01X105483Y55750D02*
X105733Y55900D01*
X106025Y56000D01*
X106358D01*
X106733Y55850D01*
X107025Y55600D01*
X107233Y55300D01*
X107400Y54800D01*
X107442Y54350D01*
X107358Y53900D01*
X107233Y53600D01*
X106983Y53300D01*
X106692Y53100D01*
X106400Y53000D01*
X106108D01*
X105817Y53100D01*
X105567Y53250D01*
X105358Y53450D01*
G01X104417D02*
X104167Y53200D01*
X103875Y53050D01*
X103500Y53000D01*
X103125Y53100D01*
X102833Y53300D01*
X102625Y53650D01*
X102583Y54050D01*
X102667Y54450D01*
X102875Y54700D01*
X103167Y54900D01*
X103458Y54950D01*
X103750Y54900D01*
X104125Y54700D01*
X104000Y56000D01*
X102875D01*
G01X100683Y53000D02*
X100600Y53650D01*
X100475Y54200D01*
X100308Y54700D01*
X100100Y55250D01*
X99767Y56000D01*
X101433D01*
G01X106583Y62150D02*
X106833Y62300D01*
X107125Y62400D01*
X107458D01*
X107833Y62250D01*
X108125Y62000D01*
X108333Y61700D01*
X108500Y61200D01*
X108542Y60750D01*
X108458Y60300D01*
X108333Y60000D01*
X108083Y59700D01*
X107792Y59500D01*
X107500Y59400D01*
X107208D01*
X106917Y59500D01*
X106667Y59650D01*
X106458Y59850D01*
G01X105517D02*
X105267Y59600D01*
X104975Y59450D01*
X104600Y59400D01*
X104225Y59500D01*
X103933Y59700D01*
X103725Y60050D01*
X103683Y60450D01*
X103767Y60850D01*
X103975Y61100D01*
X104267Y61300D01*
X104558Y61350D01*
X104850Y61300D01*
X105225Y61100D01*
X105100Y62400D01*
X103975D01*
G01X102492Y60650D02*
X102200Y61000D01*
X101950Y61200D01*
X101617Y61300D01*
X101325Y61200D01*
X101117Y61000D01*
X100950Y60700D01*
X100908Y60350D01*
X100950Y60050D01*
X101117Y59750D01*
X101367Y59500D01*
X101658Y59400D01*
X101992Y59500D01*
X102283Y59800D01*
X102450Y60250D01*
X102492Y60750D01*
X102408Y61400D01*
X102283Y61750D01*
X102075Y62100D01*
X101783Y62350D01*
X101492Y62400D01*
X101200Y62300D01*
X100992Y62050D01*
G01X110028Y61069D02*
X113965D01*
Y59101D01*
X110028D01*
Y61069D01*
G01X109038Y55860D02*
X115337D01*
Y52710D01*
X109038D01*
Y55860D01*
G01X110217Y143400D02*
Y141250D01*
X110050Y140800D01*
X109717Y140500D01*
X109300Y140400D01*
X108883Y140500D01*
X108550Y140800D01*
X108383Y141250D01*
Y143400D01*
G01X106400Y140400D02*
Y143400D01*
X106900Y142800D01*
G01Y140400D02*
X105900D01*
G01X103583D02*
X103500Y141050D01*
X103375Y141600D01*
X103208Y142100D01*
X103000Y142650D01*
X102667Y143400D01*
X104333D01*
G01X111683Y229500D02*
Y232500D01*
X110642D01*
X110308Y232350D01*
X110100Y232150D01*
X110017Y231750D01*
X110100Y231350D01*
X110350Y231100D01*
X110642Y230950D01*
X111683D01*
G01X110642D02*
X110017Y229500D01*
G01X107950D02*
Y232500D01*
X108450Y231900D01*
G01Y229500D02*
X107450D01*
G01X105967Y230100D02*
X105717Y229750D01*
X105383Y229550D01*
X105008Y229500D01*
X104675Y229550D01*
X104342Y229800D01*
X104133Y230100D01*
X104092Y230400D01*
X104175Y230750D01*
X104467Y231000D01*
X104758Y231100D01*
X105133D01*
G01X104758D02*
X104508Y231250D01*
X104300Y231500D01*
X104217Y231800D01*
X104300Y232100D01*
X104508Y232350D01*
X104883Y232500D01*
X105258Y232450D01*
X105633Y232250D01*
G01X102942Y232000D02*
X102692Y232300D01*
X102400Y232450D01*
X102067Y232500D01*
X101650Y232400D01*
X101358Y232150D01*
X101275Y231850D01*
X101317Y231550D01*
X101483Y231300D01*
X102317Y230800D01*
X102692Y230450D01*
X102942Y229950D01*
X103025Y229500D01*
X101275D01*
G01X111183Y240500D02*
Y237500D01*
X109517D01*
G01X106617D02*
X108283D01*
Y240500D01*
X106617D01*
G01X107283Y239050D02*
X108283D01*
G01X105467Y237500D02*
Y240500D01*
X104633D01*
X104300Y240350D01*
X104050Y240150D01*
X103842Y239850D01*
X103675Y239500D01*
X103633Y239000D01*
X103675Y238500D01*
X103842Y238150D01*
X104050Y237850D01*
X104300Y237650D01*
X104633Y237500D01*
X105467D01*
G01X102567Y238100D02*
X102317Y237750D01*
X101983Y237550D01*
X101608Y237500D01*
X101275Y237550D01*
X100942Y237800D01*
X100733Y238100D01*
X100692Y238400D01*
X100775Y238750D01*
X101067Y239000D01*
X101358Y239100D01*
X101733D01*
G01X101358D02*
X101108Y239250D01*
X100900Y239500D01*
X100817Y239800D01*
X100900Y240100D01*
X101108Y240350D01*
X101483Y240500D01*
X101858Y240450D01*
X102233Y240250D01*
G01X111000Y247317D02*
X114000D01*
Y248358D01*
X113850Y248692D01*
X113650Y248900D01*
X113250Y248983D01*
X112850Y248900D01*
X112600Y248650D01*
X112450Y248358D01*
Y247317D01*
G01Y248358D02*
X111000Y248983D01*
G01Y251050D02*
X114000D01*
X113400Y250550D01*
G01X111000D02*
Y251550D01*
G01X113500Y253158D02*
X113800Y253408D01*
X113950Y253700D01*
X114000Y254033D01*
X113900Y254450D01*
X113650Y254742D01*
X113350Y254825D01*
X113050Y254783D01*
X112800Y254617D01*
X112300Y253783D01*
X111950Y253408D01*
X111450Y253158D01*
X111000Y253075D01*
Y254825D01*
G01Y256850D02*
X111050Y257142D01*
X111200Y257475D01*
X111450Y257683D01*
X111800Y257767D01*
X112150Y257683D01*
X112450Y257433D01*
X112600Y257058D01*
Y256642D01*
X112700Y256392D01*
X112950Y256183D01*
X113300Y256100D01*
X113650Y256225D01*
X113900Y256517D01*
X114000Y256850D01*
X113900Y257183D01*
X113650Y257475D01*
X113300Y257600D01*
X112950Y257517D01*
X112700Y257308D01*
X112600Y257058D01*
Y256642D01*
X112450Y256267D01*
X112150Y256017D01*
X111800Y255933D01*
X111450Y256017D01*
X111200Y256225D01*
X111050Y256558D01*
X111000Y256850D01*
G01X107418Y259276D02*
Y245874D01*
X118017D01*
Y259276D01*
X107418D01*
G01X100902Y246228D02*
X98902D01*
X99902Y247228D01*
X100902Y246228D01*
G01X119183Y269000D02*
Y272000D01*
X118142D01*
X117808Y271850D01*
X117600Y271650D01*
X117517Y271250D01*
X117600Y270850D01*
X117850Y270600D01*
X118142Y270450D01*
X119183D01*
G01X118142D02*
X117517Y269000D01*
G01X115450D02*
Y272000D01*
X115950Y271400D01*
G01Y269000D02*
X114950D01*
G01X113342Y271500D02*
X113092Y271800D01*
X112800Y271950D01*
X112467Y272000D01*
X112050Y271900D01*
X111758Y271650D01*
X111675Y271350D01*
X111717Y271050D01*
X111883Y270800D01*
X112717Y270300D01*
X113092Y269950D01*
X113342Y269450D01*
X113425Y269000D01*
X111675D01*
G01X109733D02*
X109650Y269650D01*
X109525Y270200D01*
X109358Y270700D01*
X109150Y271250D01*
X108817Y272000D01*
X110483D01*
G01X117483Y279250D02*
X117733Y279400D01*
X118025Y279500D01*
X118358D01*
X118733Y279350D01*
X119025Y279100D01*
X119233Y278800D01*
X119400Y278300D01*
X119442Y277850D01*
X119358Y277400D01*
X119233Y277100D01*
X118983Y276800D01*
X118692Y276600D01*
X118400Y276500D01*
X118108D01*
X117817Y276600D01*
X117567Y276750D01*
X117358Y276950D01*
G01X115000Y276500D02*
Y279500D01*
X116542Y277350D01*
X114458D01*
G01X113392Y277750D02*
X113100Y278100D01*
X112850Y278300D01*
X112517Y278400D01*
X112225Y278300D01*
X112017Y278100D01*
X111850Y277800D01*
X111808Y277450D01*
X111850Y277150D01*
X112017Y276850D01*
X112267Y276600D01*
X112558Y276500D01*
X112892Y276600D01*
X113183Y276900D01*
X113350Y277350D01*
X113392Y277850D01*
X113308Y278500D01*
X113183Y278850D01*
X112975Y279200D01*
X112683Y279450D01*
X112392Y279500D01*
X112100Y279400D01*
X111892Y279150D01*
G01X118983Y321950D02*
X119233Y322100D01*
X119525Y322200D01*
X119858D01*
X120233Y322050D01*
X120525Y321800D01*
X120733Y321500D01*
X120900Y321000D01*
X120942Y320550D01*
X120858Y320100D01*
X120733Y319800D01*
X120483Y319500D01*
X120192Y319300D01*
X119900Y319200D01*
X119608D01*
X119317Y319300D01*
X119067Y319450D01*
X118858Y319650D01*
G01X116500Y319200D02*
Y322200D01*
X118042Y320050D01*
X115958D01*
G01X115017Y319800D02*
X114767Y319450D01*
X114433Y319250D01*
X114058Y319200D01*
X113725Y319250D01*
X113392Y319500D01*
X113183Y319800D01*
X113142Y320100D01*
X113225Y320450D01*
X113517Y320700D01*
X113808Y320800D01*
X114183D01*
G01X113808D02*
X113558Y320950D01*
X113350Y321200D01*
X113267Y321500D01*
X113350Y321800D01*
X113558Y322050D01*
X113933Y322200D01*
X114308Y322150D01*
X114683Y321950D01*
G01X123487Y328943D02*
Y311226D01*
X110888D01*
Y328943D01*
X123487D01*
G01X94696Y360236D02*
Y372834D01*
X104499D01*
Y360236D01*
X94696D01*
G01X108017Y357795D02*
Y377475D01*
X127698D01*
Y357795D01*
X108017D01*
G01X97187Y351085D02*
X95187Y353085D01*
X99187D01*
X97187Y351085D01*
G01X100750Y364817D02*
X100900Y364567D01*
X101000Y364275D01*
Y363942D01*
X100850Y363567D01*
X100600Y363275D01*
X100300Y363067D01*
X99800Y362900D01*
X99350Y362858D01*
X98900Y362942D01*
X98600Y363067D01*
X98300Y363317D01*
X98100Y363608D01*
X98000Y363900D01*
Y364192D01*
X98100Y364483D01*
X98250Y364733D01*
X98450Y364942D01*
G01X98000Y367300D02*
X101000D01*
X98850Y365758D01*
Y367842D01*
G01X98000Y369700D02*
X101000D01*
X100400Y369200D01*
G01X98000D02*
Y370200D01*
G01X119183Y395500D02*
Y398500D01*
X118142D01*
X117808Y398350D01*
X117600Y398150D01*
X117517Y397750D01*
X117600Y397350D01*
X117850Y397100D01*
X118142Y396950D01*
X119183D01*
G01X118142D02*
X117517Y395500D01*
G01X115450D02*
Y398500D01*
X115950Y397900D01*
G01Y395500D02*
X114950D01*
G01X113342Y398000D02*
X113092Y398300D01*
X112800Y398450D01*
X112467Y398500D01*
X112050Y398400D01*
X111758Y398150D01*
X111675Y397850D01*
X111717Y397550D01*
X111883Y397300D01*
X112717Y396800D01*
X113092Y396450D01*
X113342Y395950D01*
X113425Y395500D01*
X111675D01*
G01X109650Y398500D02*
X109983Y398400D01*
X110233Y398150D01*
X110400Y397850D01*
X110525Y397450D01*
X110567Y397000D01*
X110525Y396550D01*
X110400Y396150D01*
X110233Y395850D01*
X109983Y395600D01*
X109650Y395500D01*
X109317Y395600D01*
X109067Y395850D01*
X108900Y396150D01*
X108775Y396550D01*
X108733Y397000D01*
X108775Y397450D01*
X108900Y397850D01*
X109067Y398150D01*
X109317Y398400D01*
X109650Y398500D01*
G01X107837Y395391D02*
X101538D01*
Y398541D01*
X107837D01*
Y395391D01*
G01X95500Y387817D02*
X98500D01*
Y388858D01*
X98350Y389192D01*
X98150Y389400D01*
X97750Y389483D01*
X97350Y389400D01*
X97100Y389150D01*
X96950Y388858D01*
Y387817D01*
G01Y388858D02*
X95500Y389483D01*
G01Y391550D02*
X98500D01*
X97900Y391050D01*
G01X95500D02*
Y392050D01*
G01X98000Y393658D02*
X98300Y393908D01*
X98450Y394200D01*
X98500Y394533D01*
X98400Y394950D01*
X98150Y395242D01*
X97850Y395325D01*
X97550Y395283D01*
X97300Y395117D01*
X96800Y394283D01*
X96450Y393908D01*
X95950Y393658D01*
X95500Y393575D01*
Y395325D01*
G01Y397350D02*
X98500D01*
X97900Y396850D01*
G01X95500D02*
Y397850D01*
G01X114483Y391250D02*
X114733Y391400D01*
X115025Y391500D01*
X115358D01*
X115733Y391350D01*
X116025Y391100D01*
X116233Y390800D01*
X116400Y390300D01*
X116442Y389850D01*
X116358Y389400D01*
X116233Y389100D01*
X115983Y388800D01*
X115692Y388600D01*
X115400Y388500D01*
X115108D01*
X114817Y388600D01*
X114567Y388750D01*
X114358Y388950D01*
G01X113417Y389100D02*
X113167Y388750D01*
X112833Y388550D01*
X112458Y388500D01*
X112125Y388550D01*
X111792Y388800D01*
X111583Y389100D01*
X111542Y389400D01*
X111625Y389750D01*
X111917Y390000D01*
X112208Y390100D01*
X112583D01*
G01X112208D02*
X111958Y390250D01*
X111750Y390500D01*
X111667Y390800D01*
X111750Y391100D01*
X111958Y391350D01*
X112333Y391500D01*
X112708Y391450D01*
X113083Y391250D01*
G01X109600Y388500D02*
X109308Y388550D01*
X108975Y388700D01*
X108767Y388950D01*
X108683Y389300D01*
X108767Y389650D01*
X109017Y389950D01*
X109392Y390100D01*
X109808D01*
X110058Y390200D01*
X110267Y390450D01*
X110350Y390800D01*
X110225Y391150D01*
X109933Y391400D01*
X109600Y391500D01*
X109267Y391400D01*
X108975Y391150D01*
X108850Y390800D01*
X108933Y390450D01*
X109142Y390200D01*
X109392Y390100D01*
X109808D01*
X110183Y389950D01*
X110433Y389650D01*
X110517Y389300D01*
X110433Y388950D01*
X110225Y388700D01*
X109892Y388550D01*
X109600Y388500D01*
G01X101538Y391438D02*
X107837D01*
Y388289D01*
X101538D01*
Y391438D01*
G01X106483Y405750D02*
X106733Y405900D01*
X107025Y406000D01*
X107358D01*
X107733Y405850D01*
X108025Y405600D01*
X108233Y405300D01*
X108400Y404800D01*
X108442Y404350D01*
X108358Y403900D01*
X108233Y403600D01*
X107983Y403300D01*
X107692Y403100D01*
X107400Y403000D01*
X107108D01*
X106817Y403100D01*
X106567Y403250D01*
X106358Y403450D01*
G01X105417Y403600D02*
X105167Y403250D01*
X104833Y403050D01*
X104458Y403000D01*
X104125Y403050D01*
X103792Y403300D01*
X103583Y403600D01*
X103542Y403900D01*
X103625Y404250D01*
X103917Y404500D01*
X104208Y404600D01*
X104583D01*
G01X104208D02*
X103958Y404750D01*
X103750Y405000D01*
X103667Y405300D01*
X103750Y405600D01*
X103958Y405850D01*
X104333Y406000D01*
X104708Y405950D01*
X105083Y405750D01*
G01X102517Y403450D02*
X102267Y403200D01*
X101975Y403050D01*
X101600Y403000D01*
X101225Y403100D01*
X100933Y403300D01*
X100725Y403650D01*
X100683Y404050D01*
X100767Y404450D01*
X100975Y404700D01*
X101267Y404900D01*
X101558Y404950D01*
X101850Y404900D01*
X102225Y404700D01*
X102100Y406000D01*
X100975D01*
G01X99550Y402625D02*
X93250D01*
Y405775D01*
X99550D01*
Y402625D01*
G01X96385Y411228D02*
X97885Y409728D01*
X94885D01*
X96385Y411228D01*
G01X112783Y438000D02*
Y435000D01*
X111117D01*
G01X108217D02*
X109883D01*
Y438000D01*
X108217D01*
G01X108883Y436550D02*
X109883D01*
G01X107067Y435000D02*
Y438000D01*
X106233D01*
X105900Y437850D01*
X105650Y437650D01*
X105442Y437350D01*
X105275Y437000D01*
X105233Y436500D01*
X105275Y436000D01*
X105442Y435650D01*
X105650Y435350D01*
X105900Y435150D01*
X106233Y435000D01*
X107067D01*
G01X104042Y437500D02*
X103792Y437800D01*
X103500Y437950D01*
X103167Y438000D01*
X102750Y437900D01*
X102458Y437650D01*
X102375Y437350D01*
X102417Y437050D01*
X102583Y436800D01*
X103417Y436300D01*
X103792Y435950D01*
X104042Y435450D01*
X104125Y435000D01*
X102375D01*
G01X106177Y432875D02*
Y426575D01*
X109317D01*
Y432875D01*
X106177D01*
G01X99887Y430535D02*
X104887D01*
X102387Y428035D01*
X99887Y430535D01*
G01Y428035D02*
X104887D01*
G01X102387D02*
Y425535D01*
G01Y430535D02*
Y433035D01*
G01X105500Y450817D02*
X108500D01*
Y451858D01*
X108350Y452192D01*
X108150Y452400D01*
X107750Y452483D01*
X107350Y452400D01*
X107100Y452150D01*
X106950Y451858D01*
Y450817D01*
G01Y451858D02*
X105500Y452483D01*
G01Y454550D02*
X108500D01*
X107900Y454050D01*
G01X105500D02*
Y455050D01*
G01Y457450D02*
X108500D01*
X107900Y456950D01*
G01X105500D02*
Y457950D01*
G01Y460850D02*
X108500D01*
X106350Y459308D01*
Y461392D01*
G01X105072Y458964D02*
Y452665D01*
X101923D01*
Y458964D01*
X105072D01*
G01X98500Y450817D02*
X101500D01*
Y451858D01*
X101350Y452192D01*
X101150Y452400D01*
X100750Y452483D01*
X100350Y452400D01*
X100100Y452150D01*
X99950Y451858D01*
Y450817D01*
G01Y451858D02*
X98500Y452483D01*
G01Y454550D02*
X101500D01*
X100900Y454050D01*
G01X98500D02*
Y455050D01*
G01Y457450D02*
X101500D01*
X100900Y456950D01*
G01X98500D02*
Y457950D01*
G01X98950Y459433D02*
X98700Y459683D01*
X98550Y459975D01*
X98500Y460350D01*
X98600Y460725D01*
X98800Y461017D01*
X99150Y461225D01*
X99550Y461267D01*
X99950Y461183D01*
X100200Y460975D01*
X100400Y460683D01*
X100450Y460392D01*
X100400Y460100D01*
X100200Y459725D01*
X101500Y459850D01*
Y460975D01*
G01X97400Y458792D02*
Y452493D01*
X94251D01*
Y458792D01*
X97400D01*
G01X113000Y451317D02*
X116000D01*
Y452358D01*
X115850Y452692D01*
X115650Y452900D01*
X115250Y452983D01*
X114850Y452900D01*
X114600Y452650D01*
X114450Y452358D01*
Y451317D01*
G01Y452358D02*
X113000Y452983D01*
G01Y455050D02*
X116000D01*
X115400Y454550D01*
G01X113000D02*
Y455550D01*
G01Y457950D02*
X116000D01*
X115400Y457450D01*
G01X113000D02*
Y458450D01*
G01X113600Y459933D02*
X113250Y460183D01*
X113050Y460517D01*
X113000Y460892D01*
X113050Y461225D01*
X113300Y461558D01*
X113600Y461767D01*
X113900Y461808D01*
X114250Y461725D01*
X114500Y461433D01*
X114600Y461142D01*
Y460767D01*
G01Y461142D02*
X114750Y461392D01*
X115000Y461600D01*
X115300Y461683D01*
X115600Y461600D01*
X115850Y461392D01*
X116000Y461017D01*
X115950Y460642D01*
X115750Y460267D01*
G01X112548Y459002D02*
Y452703D01*
X109399D01*
Y459002D01*
X112548D01*
G01X107183Y479350D02*
X107433Y479500D01*
X107725Y479600D01*
X108058D01*
X108433Y479450D01*
X108725Y479200D01*
X108933Y478900D01*
X109100Y478400D01*
X109142Y477950D01*
X109058Y477500D01*
X108933Y477200D01*
X108683Y476900D01*
X108392Y476700D01*
X108100Y476600D01*
X107808D01*
X107517Y476700D01*
X107267Y476850D01*
X107058Y477050D01*
G01X105992Y479100D02*
X105742Y479400D01*
X105450Y479550D01*
X105117Y479600D01*
X104700Y479500D01*
X104408Y479250D01*
X104325Y478950D01*
X104367Y478650D01*
X104533Y478400D01*
X105367Y477900D01*
X105742Y477550D01*
X105992Y477050D01*
X106075Y476600D01*
X104325D01*
G01X102300D02*
X102008Y476650D01*
X101675Y476800D01*
X101467Y477050D01*
X101383Y477400D01*
X101467Y477750D01*
X101717Y478050D01*
X102092Y478200D01*
X102508D01*
X102758Y478300D01*
X102967Y478550D01*
X103050Y478900D01*
X102925Y479250D01*
X102633Y479500D01*
X102300Y479600D01*
X101967Y479500D01*
X101675Y479250D01*
X101550Y478900D01*
X101633Y478550D01*
X101842Y478300D01*
X102092Y478200D01*
X102508D01*
X102883Y478050D01*
X103133Y477750D01*
X103217Y477400D01*
X103133Y477050D01*
X102925Y476800D01*
X102592Y476650D01*
X102300Y476600D01*
G01X101550Y480645D02*
X109424D01*
Y475724D01*
X101550D01*
Y480645D01*
G01X107583Y469750D02*
X107833Y469900D01*
X108125Y470000D01*
X108458D01*
X108833Y469850D01*
X109125Y469600D01*
X109333Y469300D01*
X109500Y468800D01*
X109542Y468350D01*
X109458Y467900D01*
X109333Y467600D01*
X109083Y467300D01*
X108792Y467100D01*
X108500Y467000D01*
X108208D01*
X107917Y467100D01*
X107667Y467250D01*
X107458Y467450D01*
G01X106517Y467600D02*
X106267Y467250D01*
X105933Y467050D01*
X105558Y467000D01*
X105225Y467050D01*
X104892Y467300D01*
X104683Y467600D01*
X104642Y467900D01*
X104725Y468250D01*
X105017Y468500D01*
X105308Y468600D01*
X105683D01*
G01X105308D02*
X105058Y468750D01*
X104850Y469000D01*
X104767Y469300D01*
X104850Y469600D01*
X105058Y469850D01*
X105433Y470000D01*
X105808Y469950D01*
X106183Y469750D01*
G01X102700Y470000D02*
X103033Y469900D01*
X103283Y469650D01*
X103450Y469350D01*
X103575Y468950D01*
X103617Y468500D01*
X103575Y468050D01*
X103450Y467650D01*
X103283Y467350D01*
X103033Y467100D01*
X102700Y467000D01*
X102367Y467100D01*
X102117Y467350D01*
X101950Y467650D01*
X101825Y468050D01*
X101783Y468500D01*
X101825Y468950D01*
X101950Y469350D01*
X102117Y469650D01*
X102367Y469900D01*
X102700Y470000D01*
G01X101750Y470845D02*
X109624D01*
Y465924D01*
X101750D01*
Y470845D01*
G01X107372Y489701D02*
X107622Y489851D01*
X107914Y489951D01*
X108247D01*
X108622Y489801D01*
X108914Y489551D01*
X109122Y489251D01*
X109289Y488751D01*
X109330Y488301D01*
X109247Y487851D01*
X109122Y487551D01*
X108872Y487251D01*
X108580Y487051D01*
X108289Y486951D01*
X107997D01*
X107705Y487051D01*
X107455Y487201D01*
X107247Y487401D01*
G01X106180Y489451D02*
X105930Y489751D01*
X105638Y489901D01*
X105305Y489951D01*
X104888Y489851D01*
X104597Y489601D01*
X104513Y489301D01*
X104555Y489001D01*
X104722Y488751D01*
X105555Y488251D01*
X105930Y487901D01*
X106180Y487401D01*
X106264Y486951D01*
X104513D01*
G01X102572D02*
X102488Y487601D01*
X102364Y488151D01*
X102197Y488651D01*
X101988Y489201D01*
X101655Y489951D01*
X103322D01*
G01X101550Y490645D02*
X109424D01*
Y485724D01*
X101550D01*
Y490645D01*
G01X107372Y499201D02*
X107622Y499351D01*
X107914Y499451D01*
X108247D01*
X108622Y499301D01*
X108914Y499051D01*
X109122Y498751D01*
X109289Y498251D01*
X109330Y497801D01*
X109247Y497351D01*
X109122Y497051D01*
X108872Y496751D01*
X108580Y496551D01*
X108289Y496451D01*
X107997D01*
X107705Y496551D01*
X107455Y496701D01*
X107247Y496901D01*
G01X106180Y498951D02*
X105930Y499251D01*
X105639Y499401D01*
X105305Y499451D01*
X104889Y499351D01*
X104597Y499101D01*
X104514Y498801D01*
X104555Y498501D01*
X104722Y498251D01*
X105555Y497751D01*
X105930Y497401D01*
X106180Y496901D01*
X106264Y496451D01*
X104514D01*
G01X103280Y497701D02*
X102989Y498051D01*
X102739Y498251D01*
X102405Y498351D01*
X102114Y498251D01*
X101905Y498051D01*
X101739Y497751D01*
X101697Y497401D01*
X101739Y497101D01*
X101905Y496801D01*
X102155Y496551D01*
X102447Y496451D01*
X102780Y496551D01*
X103072Y496851D01*
X103239Y497301D01*
X103280Y497801D01*
X103197Y498451D01*
X103072Y498801D01*
X102864Y499151D01*
X102572Y499401D01*
X102280Y499451D01*
X101989Y499351D01*
X101780Y499101D01*
G01X101550Y500145D02*
X109424D01*
Y495224D01*
X101550D01*
Y500145D01*
G01X110317Y520500D02*
Y523500D01*
X109483D01*
X109150Y523350D01*
X108900Y523150D01*
X108692Y522850D01*
X108525Y522500D01*
X108483Y522000D01*
X108525Y521500D01*
X108692Y521150D01*
X108900Y520850D01*
X109150Y520650D01*
X109483Y520500D01*
X110317D01*
G01X106500D02*
Y523500D01*
X107000Y522900D01*
G01Y520500D02*
X106000D01*
G01X103600D02*
Y523500D01*
X104100Y522900D01*
G01Y520500D02*
X103100D01*
G01X109498Y513865D02*
X102417D01*
Y519385D01*
X109498D01*
Y513865D01*
G01X108317Y519385D02*
Y513865D01*
G01X105500Y530317D02*
X108500D01*
Y531358D01*
X108350Y531692D01*
X108150Y531900D01*
X107750Y531983D01*
X107350Y531900D01*
X107100Y531650D01*
X106950Y531358D01*
Y530317D01*
G01Y531358D02*
X105500Y531983D01*
G01Y534050D02*
X108500D01*
X107900Y533550D01*
G01X105500D02*
Y534550D01*
G01X108500Y536950D02*
X108400Y536617D01*
X108150Y536367D01*
X107850Y536200D01*
X107450Y536075D01*
X107000Y536033D01*
X106550Y536075D01*
X106150Y536200D01*
X105850Y536367D01*
X105600Y536617D01*
X105500Y536950D01*
X105600Y537283D01*
X105850Y537533D01*
X106150Y537700D01*
X106550Y537825D01*
X107000Y537867D01*
X107450Y537825D01*
X107850Y537700D01*
X108150Y537533D01*
X108400Y537283D01*
X108500Y536950D01*
G01X106100Y538933D02*
X105750Y539183D01*
X105550Y539517D01*
X105500Y539892D01*
X105550Y540225D01*
X105800Y540558D01*
X106100Y540767D01*
X106400Y540808D01*
X106750Y540725D01*
X107000Y540433D01*
X107100Y540142D01*
Y539767D01*
G01Y540142D02*
X107250Y540392D01*
X107500Y540600D01*
X107800Y540683D01*
X108100Y540600D01*
X108350Y540392D01*
X108500Y540017D01*
X108450Y539642D01*
X108250Y539267D01*
G01X111587Y537535D02*
Y533595D01*
X109628D01*
Y537535D01*
X111587D01*
G01X113683Y628800D02*
X113475Y628500D01*
X113225Y628300D01*
X112933Y628200D01*
X112600Y628300D01*
X112350Y628500D01*
X112100Y628800D01*
X112017Y629200D01*
Y631200D01*
G01X110867Y628800D02*
X110617Y628450D01*
X110283Y628250D01*
X109908Y628200D01*
X109575Y628250D01*
X109242Y628500D01*
X109033Y628800D01*
X108992Y629100D01*
X109075Y629450D01*
X109367Y629700D01*
X109658Y629800D01*
X110033D01*
G01X109658D02*
X109408Y629950D01*
X109200Y630200D01*
X109117Y630500D01*
X109200Y630800D01*
X109408Y631050D01*
X109783Y631200D01*
X110158Y631150D01*
X110533Y630950D01*
G01X125338Y11385D02*
Y8385D01*
G01X126296Y11385D02*
X124379D01*
G01X123271Y8385D02*
Y11385D01*
X122271D01*
X121938Y11235D01*
X121688Y10885D01*
X121604Y10485D01*
X121688Y10085D01*
X121896Y9785D01*
X122271Y9635D01*
X123271D01*
G01X119538Y8385D02*
Y11385D01*
X120038Y10785D01*
G01Y8385D02*
X119038D01*
G01X116638D02*
X116346Y8435D01*
X116013Y8585D01*
X115804Y8835D01*
X115721Y9185D01*
X115804Y9535D01*
X116054Y9835D01*
X116429Y9985D01*
X116846D01*
X117096Y10085D01*
X117304Y10335D01*
X117388Y10685D01*
X117263Y11035D01*
X116971Y11285D01*
X116638Y11385D01*
X116304Y11285D01*
X116013Y11035D01*
X115888Y10685D01*
X115971Y10335D01*
X116179Y10085D01*
X116429Y9985D01*
X116846D01*
X117221Y9835D01*
X117471Y9535D01*
X117554Y9185D01*
X117471Y8835D01*
X117263Y8585D01*
X116929Y8435D01*
X116638Y8385D01*
G01X138183Y28500D02*
Y31500D01*
X137142D01*
X136808Y31350D01*
X136600Y31150D01*
X136517Y30750D01*
X136600Y30350D01*
X136850Y30100D01*
X137142Y29950D01*
X138183D01*
G01X137142D02*
X136517Y28500D01*
G01X134450D02*
Y31500D01*
X134950Y30900D01*
G01Y28500D02*
X133950D01*
G01X131050D02*
Y31500D01*
X132592Y29350D01*
X130508D01*
G01X129567Y28950D02*
X129317Y28700D01*
X129025Y28550D01*
X128650Y28500D01*
X128275Y28600D01*
X127983Y28800D01*
X127775Y29150D01*
X127733Y29550D01*
X127817Y29950D01*
X128025Y30200D01*
X128317Y30400D01*
X128608Y30450D01*
X128900Y30400D01*
X129275Y30200D01*
X129150Y31500D01*
X128025D01*
G01X125350Y23000D02*
Y20000D01*
G01X126308Y23000D02*
X124392D01*
G01X123283Y20000D02*
Y23000D01*
X122283D01*
X121950Y22850D01*
X121700Y22500D01*
X121617Y22100D01*
X121700Y21700D01*
X121908Y21400D01*
X122283Y21250D01*
X123283D01*
G01X119550Y20000D02*
Y23000D01*
X120050Y22400D01*
G01Y20000D02*
X119050D01*
G01X117567Y20450D02*
X117317Y20200D01*
X117025Y20050D01*
X116650Y20000D01*
X116275Y20100D01*
X115983Y20300D01*
X115775Y20650D01*
X115733Y21050D01*
X115817Y21450D01*
X116025Y21700D01*
X116317Y21900D01*
X116608Y21950D01*
X116900Y21900D01*
X117275Y21700D01*
X117150Y23000D01*
X116025D01*
G01X118500Y25150D02*
X115500D01*
G01X118500Y24192D02*
Y26108D01*
G01X115500Y27217D02*
X118500D01*
Y28217D01*
X118350Y28550D01*
X118000Y28800D01*
X117600Y28883D01*
X117200Y28800D01*
X116900Y28592D01*
X116750Y28217D01*
Y27217D01*
G01X115500Y30950D02*
X118500D01*
X117900Y30450D01*
G01X115500D02*
Y31450D01*
G01X116100Y32933D02*
X115750Y33183D01*
X115550Y33517D01*
X115500Y33892D01*
X115550Y34225D01*
X115800Y34558D01*
X116100Y34767D01*
X116400Y34808D01*
X116750Y34725D01*
X117000Y34433D01*
X117100Y34142D01*
Y33767D01*
G01Y34142D02*
X117250Y34392D01*
X117500Y34600D01*
X117800Y34683D01*
X118100Y34600D01*
X118350Y34392D01*
X118500Y34017D01*
X118450Y33642D01*
X118250Y33267D01*
G01X133917Y18000D02*
Y21000D01*
X133083D01*
X132750Y20850D01*
X132500Y20650D01*
X132292Y20350D01*
X132125Y20000D01*
X132083Y19500D01*
X132125Y19000D01*
X132292Y18650D01*
X132500Y18350D01*
X132750Y18150D01*
X133083Y18000D01*
X133917D01*
G01X125350Y39000D02*
Y36000D01*
G01X126308Y39000D02*
X124392D01*
G01X123283Y36000D02*
Y39000D01*
X122283D01*
X121950Y38850D01*
X121700Y38500D01*
X121617Y38100D01*
X121700Y37700D01*
X121908Y37400D01*
X122283Y37250D01*
X123283D01*
G01X119550Y36000D02*
Y39000D01*
X120050Y38400D01*
G01Y36000D02*
X119050D01*
G01X116650D02*
Y39000D01*
X117150Y38400D01*
G01Y36000D02*
X116150D01*
G01X129550Y44200D02*
Y41200D01*
G01X130508Y44200D02*
X128592D01*
G01X127483Y41200D02*
Y44200D01*
X126483D01*
X126150Y44050D01*
X125900Y43700D01*
X125817Y43300D01*
X125900Y42900D01*
X126108Y42600D01*
X126483Y42450D01*
X127483D01*
G01X123750Y41200D02*
Y44200D01*
X124250Y43600D01*
G01Y41200D02*
X123250D01*
G01X120850Y44200D02*
X121183Y44100D01*
X121433Y43850D01*
X121600Y43550D01*
X121725Y43150D01*
X121767Y42700D01*
X121725Y42250D01*
X121600Y41850D01*
X121433Y41550D01*
X121183Y41300D01*
X120850Y41200D01*
X120517Y41300D01*
X120267Y41550D01*
X120100Y41850D01*
X119975Y42250D01*
X119933Y42700D01*
X119975Y43150D01*
X120100Y43550D01*
X120267Y43850D01*
X120517Y44100D01*
X120850Y44200D01*
G01X128950Y48200D02*
G03I-3150J0D01*
G01X137317Y236500D02*
Y239500D01*
X136483D01*
X136150Y239350D01*
X135900Y239150D01*
X135692Y238850D01*
X135525Y238500D01*
X135483Y238000D01*
X135525Y237500D01*
X135692Y237150D01*
X135900Y236850D01*
X136150Y236650D01*
X136483Y236500D01*
X137317D01*
G01X134292Y239000D02*
X134042Y239300D01*
X133750Y239450D01*
X133417Y239500D01*
X133000Y239400D01*
X132708Y239150D01*
X132625Y238850D01*
X132667Y238550D01*
X132833Y238300D01*
X133667Y237800D01*
X134042Y237450D01*
X134292Y236950D01*
X134375Y236500D01*
X132625D01*
G01X130600D02*
Y239500D01*
X131100Y238900D01*
G01Y236500D02*
X130100D01*
G01X131096Y230525D02*
Y233525D01*
X129179Y230525D01*
Y233525D01*
G01X127728Y235195D02*
Y240715D01*
X139687D01*
Y235195D01*
X127728D01*
G01X128491Y259535D02*
X128741Y259685D01*
X129033Y259785D01*
X129366D01*
X129741Y259635D01*
X130033Y259385D01*
X130241Y259085D01*
X130408Y258585D01*
X130449Y258135D01*
X130366Y257685D01*
X130241Y257385D01*
X129991Y257085D01*
X129699Y256885D01*
X129408Y256785D01*
X129116D01*
X128824Y256885D01*
X128574Y257035D01*
X128366Y257235D01*
G01X125834Y246305D02*
X127501D01*
Y249305D01*
X125834D01*
G01X126501Y247855D02*
X127501D01*
G01X134094Y247665D02*
X133928Y247815D01*
X133802Y248065D01*
X133719Y248415D01*
X133802Y248715D01*
X133969Y248915D01*
X134261Y249065D01*
X135386D01*
Y246065D01*
X134011D01*
X133719Y246265D01*
X133552Y246565D01*
X133469Y246915D01*
X133552Y247265D01*
X133802Y247565D01*
X134094Y247665D01*
X135386D01*
G01X132428Y251655D02*
X132761Y251705D01*
X133053Y251905D01*
X133302Y252205D01*
X133469Y252555D01*
X133552Y252955D01*
Y253355D01*
X133469Y253755D01*
X133302Y254105D01*
X133053Y254405D01*
X132761Y254605D01*
X132428Y254655D01*
X132094Y254605D01*
X131803Y254405D01*
X131552Y254105D01*
X131386Y253755D01*
X131302Y253355D01*
Y252955D01*
X131386Y252555D01*
X131552Y252205D01*
X131803Y251905D01*
X132094Y251705D01*
X132428Y251655D01*
G01X132094Y252455D02*
X131594Y251655D01*
G01X130319Y254155D02*
X130069Y254455D01*
X129778Y254605D01*
X129444Y254655D01*
X129028Y254555D01*
X128736Y254305D01*
X128653Y254005D01*
X128694Y253705D01*
X128861Y253455D01*
X129694Y252955D01*
X130069Y252605D01*
X130319Y252105D01*
X130403Y251655D01*
X128653D01*
G01X127544Y252255D02*
X127294Y251905D01*
X126961Y251705D01*
X126586Y251655D01*
X126253Y251705D01*
X125919Y251955D01*
X125711Y252255D01*
X125669Y252555D01*
X125753Y252905D01*
X126044Y253155D01*
X126336Y253255D01*
X126711D01*
G01X126336D02*
X126086Y253405D01*
X125878Y253655D01*
X125794Y253955D01*
X125878Y254255D01*
X126086Y254505D01*
X126461Y254655D01*
X126836Y254605D01*
X127211Y254405D01*
G01X124058Y250575D02*
Y256095D01*
X136017D01*
Y250575D01*
X124058D01*
G01X134594Y241605D02*
Y244605D01*
G01X133011D02*
X134594Y242755D01*
G01X132761Y241605D02*
X133886Y243605D01*
G01X120568Y272240D02*
X126867D01*
Y269090D01*
X120568D01*
Y272240D01*
G01X120498Y279510D02*
X126797D01*
Y276360D01*
X120498D01*
Y279510D01*
G01X128617Y289800D02*
Y292800D01*
X127783D01*
X127450Y292650D01*
X127200Y292450D01*
X126992Y292150D01*
X126825Y291800D01*
X126783Y291300D01*
X126825Y290800D01*
X126992Y290450D01*
X127200Y290150D01*
X127450Y289950D01*
X127783Y289800D01*
X128617D01*
G01X124800D02*
Y292800D01*
X125300Y292200D01*
G01Y289800D02*
X124300D01*
G01X121983D02*
X121900Y290450D01*
X121775Y291000D01*
X121608Y291500D01*
X121400Y292050D01*
X121067Y292800D01*
X122733D01*
G01X121697Y294995D02*
X120697Y295995D01*
X122697D01*
X121697Y294995D01*
G01X131197Y294435D02*
Y287555D01*
X119197D01*
Y294435D01*
X131197D01*
G01X132937Y306095D02*
Y332075D01*
X151437D01*
Y306095D01*
X132937D01*
G01X145167Y340500D02*
Y343500D01*
X144333D01*
X144000Y343350D01*
X143750Y343150D01*
X143542Y342850D01*
X143375Y342500D01*
X143333Y342000D01*
X143375Y341500D01*
X143542Y341150D01*
X143750Y340850D01*
X144000Y340650D01*
X144333Y340500D01*
X145167D01*
G01X141350D02*
Y343500D01*
X141850Y342900D01*
G01Y340500D02*
X140850D01*
G01X138450Y343500D02*
X138783Y343400D01*
X139033Y343150D01*
X139200Y342850D01*
X139325Y342450D01*
X139367Y342000D01*
X139325Y341550D01*
X139200Y341150D01*
X139033Y340850D01*
X138783Y340600D01*
X138450Y340500D01*
X138117Y340600D01*
X137867Y340850D01*
X137700Y341150D01*
X137575Y341550D01*
X137533Y342000D01*
X137575Y342450D01*
X137700Y342850D01*
X137867Y343150D01*
X138117Y343400D01*
X138450Y343500D01*
G01X135550Y340500D02*
Y343500D01*
X136050Y342900D01*
G01Y340500D02*
X135050D01*
G01X132650D02*
Y343500D01*
X133150Y342900D01*
G01Y340500D02*
X132150D01*
G01X130458Y340850D02*
X130167Y340600D01*
X129833Y340500D01*
X129500Y340600D01*
X129208Y340900D01*
X129000Y341350D01*
X128917Y341800D01*
Y342350D01*
X129000Y342800D01*
X129208Y343200D01*
X129458Y343400D01*
X129750Y343500D01*
X130083Y343400D01*
X130333Y343200D01*
X130500Y342900D01*
X130583Y342500D01*
X130500Y342150D01*
X130292Y341800D01*
X130042Y341600D01*
X129750Y341550D01*
X129417Y341650D01*
X129167Y341900D01*
X128917Y342350D01*
G01X145583Y354500D02*
Y357500D01*
X144542D01*
X144208Y357350D01*
X144000Y357150D01*
X143917Y356750D01*
X144000Y356350D01*
X144250Y356100D01*
X144542Y355950D01*
X145583D01*
G01X144542D02*
X143917Y354500D01*
G01X141850D02*
Y357500D01*
X142350Y356900D01*
G01Y354500D02*
X141350D01*
G01X138950Y357500D02*
X139283Y357400D01*
X139533Y357150D01*
X139700Y356850D01*
X139825Y356450D01*
X139867Y356000D01*
X139825Y355550D01*
X139700Y355150D01*
X139533Y354850D01*
X139283Y354600D01*
X138950Y354500D01*
X138617Y354600D01*
X138367Y354850D01*
X138200Y355150D01*
X138075Y355550D01*
X138033Y356000D01*
X138075Y356450D01*
X138200Y356850D01*
X138367Y357150D01*
X138617Y357400D01*
X138950Y357500D01*
G01X136133Y354500D02*
X136050Y355150D01*
X135925Y355700D01*
X135758Y356200D01*
X135550Y356750D01*
X135217Y357500D01*
X136883D01*
G01X133858Y354850D02*
X133567Y354600D01*
X133233Y354500D01*
X132900Y354600D01*
X132608Y354900D01*
X132400Y355350D01*
X132317Y355800D01*
Y356350D01*
X132400Y356800D01*
X132608Y357200D01*
X132858Y357400D01*
X133150Y357500D01*
X133483Y357400D01*
X133733Y357200D01*
X133900Y356900D01*
X133983Y356500D01*
X133900Y356150D01*
X133692Y355800D01*
X133442Y355600D01*
X133150Y355550D01*
X132817Y355650D01*
X132567Y355900D01*
X132317Y356350D01*
G01X131042Y357000D02*
X130792Y357300D01*
X130500Y357450D01*
X130167Y357500D01*
X129750Y357400D01*
X129458Y357150D01*
X129375Y356850D01*
X129417Y356550D01*
X129583Y356300D01*
X130417Y355800D01*
X130792Y355450D01*
X131042Y354950D01*
X131125Y354500D01*
X129375D01*
G01X120283Y369200D02*
Y366200D01*
X118617D01*
G01X117467Y366800D02*
X117217Y366450D01*
X116883Y366250D01*
X116508Y366200D01*
X116175Y366250D01*
X115842Y366500D01*
X115633Y366800D01*
X115592Y367100D01*
X115675Y367450D01*
X115967Y367700D01*
X116258Y367800D01*
X116633D01*
G01X116258D02*
X116008Y367950D01*
X115800Y368200D01*
X115717Y368500D01*
X115800Y368800D01*
X116008Y369050D01*
X116383Y369200D01*
X116758Y369150D01*
X117133Y368950D01*
G01X132750Y386017D02*
X132900Y385767D01*
X133000Y385475D01*
Y385142D01*
X132850Y384767D01*
X132600Y384475D01*
X132300Y384267D01*
X131800Y384100D01*
X131350Y384058D01*
X130900Y384142D01*
X130600Y384267D01*
X130300Y384517D01*
X130100Y384808D01*
X130000Y385100D01*
Y385392D01*
X130100Y385683D01*
X130250Y385933D01*
X130450Y386142D01*
G01X130600Y387083D02*
X130250Y387333D01*
X130050Y387667D01*
X130000Y388042D01*
X130050Y388375D01*
X130300Y388708D01*
X130600Y388917D01*
X130900Y388958D01*
X131250Y388875D01*
X131500Y388583D01*
X131600Y388292D01*
Y387917D01*
G01Y388292D02*
X131750Y388542D01*
X132000Y388750D01*
X132300Y388833D01*
X132600Y388750D01*
X132850Y388542D01*
X133000Y388167D01*
X132950Y387792D01*
X132750Y387417D01*
G01X130350Y390192D02*
X130100Y390483D01*
X130000Y390817D01*
X130100Y391150D01*
X130400Y391442D01*
X130850Y391650D01*
X131300Y391733D01*
X131850D01*
X132300Y391650D01*
X132700Y391442D01*
X132900Y391192D01*
X133000Y390900D01*
X132900Y390567D01*
X132700Y390317D01*
X132400Y390150D01*
X132000Y390067D01*
X131650Y390150D01*
X131300Y390358D01*
X131100Y390608D01*
X131050Y390900D01*
X131150Y391233D01*
X131400Y391483D01*
X131850Y391733D01*
G01X134023Y386667D02*
Y390603D01*
X135991D01*
Y386667D01*
X134023D01*
G01X129403Y462107D02*
Y397107D01*
X202600D01*
Y462107D01*
X129403D01*
G01X120500Y450817D02*
X123500D01*
Y451858D01*
X123350Y452192D01*
X123150Y452400D01*
X122750Y452483D01*
X122350Y452400D01*
X122100Y452150D01*
X121950Y451858D01*
Y450817D01*
G01Y451858D02*
X120500Y452483D01*
G01Y454550D02*
X123500D01*
X122900Y454050D01*
G01X120500D02*
Y455050D01*
G01Y457450D02*
X123500D01*
X122900Y456950D01*
G01X120500D02*
Y457950D01*
G01X123000Y459558D02*
X123300Y459808D01*
X123450Y460100D01*
X123500Y460433D01*
X123400Y460850D01*
X123150Y461142D01*
X122850Y461225D01*
X122550Y461183D01*
X122300Y461017D01*
X121800Y460183D01*
X121450Y459808D01*
X120950Y459558D01*
X120500Y459475D01*
Y461225D01*
G01X119922Y459094D02*
Y452795D01*
X116773D01*
Y459094D01*
X119922D01*
G01X128327Y495816D02*
Y520414D01*
X149028D01*
Y495816D01*
X128327D01*
G01X117750Y526017D02*
X117900Y525767D01*
X118000Y525475D01*
Y525142D01*
X117850Y524767D01*
X117600Y524475D01*
X117300Y524267D01*
X116800Y524100D01*
X116350Y524058D01*
X115900Y524142D01*
X115600Y524267D01*
X115300Y524517D01*
X115100Y524808D01*
X115000Y525100D01*
Y525392D01*
X115100Y525683D01*
X115250Y525933D01*
X115450Y526142D01*
G01X117500Y527208D02*
X117800Y527458D01*
X117950Y527750D01*
X118000Y528083D01*
X117900Y528500D01*
X117650Y528792D01*
X117350Y528875D01*
X117050Y528833D01*
X116800Y528667D01*
X116300Y527833D01*
X115950Y527458D01*
X115450Y527208D01*
X115000Y527125D01*
Y528875D01*
G01X115450Y529983D02*
X115200Y530233D01*
X115050Y530525D01*
X115000Y530900D01*
X115100Y531275D01*
X115300Y531567D01*
X115650Y531775D01*
X116050Y531817D01*
X116450Y531733D01*
X116700Y531525D01*
X116900Y531233D01*
X116950Y530942D01*
X116900Y530650D01*
X116700Y530275D01*
X118000Y530400D01*
Y531525D01*
G01X131868Y538273D02*
X134868D01*
Y539856D01*
G01X133418Y539273D02*
Y538273D01*
G01X132318Y541048D02*
X132068Y541298D01*
X131918Y541590D01*
X131868Y541965D01*
X131968Y542340D01*
X132168Y542631D01*
X132518Y542840D01*
X132918Y542881D01*
X133318Y542798D01*
X133568Y542590D01*
X133768Y542298D01*
X133818Y542006D01*
X133768Y541715D01*
X133568Y541340D01*
X134868Y541465D01*
Y542590D01*
G01X126324Y531258D02*
Y549172D01*
X139080D01*
Y531258D01*
X126324D01*
G01X120000Y534817D02*
X123000D01*
Y535858D01*
X122850Y536192D01*
X122650Y536400D01*
X122250Y536483D01*
X121850Y536400D01*
X121600Y536150D01*
X121450Y535858D01*
Y534817D01*
G01Y535858D02*
X120000Y536483D01*
G01Y538550D02*
X123000D01*
X122400Y538050D01*
G01X120000D02*
Y539050D01*
G01X120450Y540533D02*
X120200Y540783D01*
X120050Y541075D01*
X120000Y541450D01*
X120100Y541825D01*
X120300Y542117D01*
X120650Y542325D01*
X121050Y542367D01*
X121450Y542283D01*
X121700Y542075D01*
X121900Y541783D01*
X121950Y541492D01*
X121900Y541200D01*
X121700Y540825D01*
X123000Y540950D01*
Y542075D01*
G01X120450Y543433D02*
X120200Y543683D01*
X120050Y543975D01*
X120000Y544350D01*
X120100Y544725D01*
X120300Y545017D01*
X120650Y545225D01*
X121050Y545267D01*
X121450Y545183D01*
X121700Y544975D01*
X121900Y544683D01*
X121950Y544392D01*
X121900Y544100D01*
X121700Y543725D01*
X123000Y543850D01*
Y544975D01*
G01X114863Y533145D02*
Y539444D01*
X118012D01*
Y533145D01*
X114863D01*
G01X152083Y8000D02*
Y11000D01*
X151042D01*
X150708Y10850D01*
X150500Y10650D01*
X150417Y10250D01*
X150500Y9850D01*
X150750Y9600D01*
X151042Y9450D01*
X152083D01*
G01X151042D02*
X150417Y8000D01*
G01X148350D02*
Y11000D01*
X148850Y10400D01*
G01Y8000D02*
X147850D01*
G01X145450Y11000D02*
X145783Y10900D01*
X146033Y10650D01*
X146200Y10350D01*
X146325Y9950D01*
X146367Y9500D01*
X146325Y9050D01*
X146200Y8650D01*
X146033Y8350D01*
X145783Y8100D01*
X145450Y8000D01*
X145117Y8100D01*
X144867Y8350D01*
X144700Y8650D01*
X144575Y9050D01*
X144533Y9500D01*
X144575Y9950D01*
X144700Y10350D01*
X144867Y10650D01*
X145117Y10900D01*
X145450Y11000D01*
G01X142633Y8000D02*
X142550Y8650D01*
X142425Y9200D01*
X142258Y9700D01*
X142050Y10250D01*
X141717Y11000D01*
X143383D01*
G01X140358Y8350D02*
X140067Y8100D01*
X139733Y8000D01*
X139400Y8100D01*
X139108Y8400D01*
X138900Y8850D01*
X138817Y9300D01*
Y9850D01*
X138900Y10300D01*
X139108Y10700D01*
X139358Y10900D01*
X139650Y11000D01*
X139983Y10900D01*
X140233Y10700D01*
X140400Y10400D01*
X140483Y10000D01*
X140400Y9650D01*
X140192Y9300D01*
X139942Y9100D01*
X139650Y9050D01*
X139317Y9150D01*
X139067Y9400D01*
X138817Y9850D01*
G01X137667Y8600D02*
X137417Y8250D01*
X137083Y8050D01*
X136708Y8000D01*
X136375Y8050D01*
X136042Y8300D01*
X135833Y8600D01*
X135792Y8900D01*
X135875Y9250D01*
X136167Y9500D01*
X136458Y9600D01*
X136833D01*
G01X136458D02*
X136208Y9750D01*
X136000Y10000D01*
X135917Y10300D01*
X136000Y10600D01*
X136208Y10850D01*
X136583Y11000D01*
X136958Y10950D01*
X137333Y10750D01*
G01X137000Y16600D02*
X137050Y16267D01*
X137250Y15975D01*
X137550Y15725D01*
X137900Y15558D01*
X138300Y15475D01*
X138700D01*
X139100Y15558D01*
X139450Y15725D01*
X139750Y15975D01*
X139950Y16267D01*
X140000Y16600D01*
X139950Y16933D01*
X139750Y17225D01*
X139450Y17475D01*
X139100Y17642D01*
X138700Y17725D01*
X138300D01*
X137900Y17642D01*
X137550Y17475D01*
X137250Y17225D01*
X137050Y16933D01*
X137000Y16600D01*
G01X137800Y16933D02*
X137000Y17433D01*
G01X137450Y18583D02*
X137200Y18833D01*
X137050Y19125D01*
X137000Y19500D01*
X137100Y19875D01*
X137300Y20167D01*
X137650Y20375D01*
X138050Y20417D01*
X138450Y20333D01*
X138700Y20125D01*
X138900Y19833D01*
X138950Y19542D01*
X138900Y19250D01*
X138700Y18875D01*
X140000Y19000D01*
Y20125D01*
G01X137000Y22900D02*
X140000D01*
X137850Y21358D01*
Y23442D01*
G01X143250Y23500D02*
X142417D01*
Y22600D01*
X142667Y22300D01*
X142958Y22100D01*
X143375Y22000D01*
X143792Y22100D01*
X144083Y22300D01*
X144333Y22600D01*
X144500Y22950D01*
X144583Y23350D01*
Y23700D01*
X144500Y24000D01*
X144333Y24350D01*
X144083Y24650D01*
X143833Y24850D01*
X143500Y25000D01*
X143208D01*
X142875Y24900D01*
X142625Y24700D01*
G01X143875Y14400D02*
X143542Y14150D01*
X143167Y14000D01*
X142833D01*
X142500Y14150D01*
X142250Y14400D01*
X142125Y14750D01*
X142208Y15100D01*
X142417Y15400D01*
X142792Y15600D01*
X143292Y15700D01*
X143583Y15900D01*
X143708Y16250D01*
X143625Y16600D01*
X143417Y16850D01*
X143125Y17000D01*
X142833D01*
X142542Y16900D01*
X142292Y16650D01*
G01X141950Y44200D02*
Y41200D01*
G01X142908Y44200D02*
X140992D01*
G01X139883Y41200D02*
Y44200D01*
X138883D01*
X138550Y44050D01*
X138300Y43700D01*
X138217Y43300D01*
X138300Y42900D01*
X138508Y42600D01*
X138883Y42450D01*
X139883D01*
G01X136858Y41550D02*
X136567Y41300D01*
X136233Y41200D01*
X135900Y41300D01*
X135608Y41600D01*
X135400Y42050D01*
X135317Y42500D01*
Y43050D01*
X135400Y43500D01*
X135608Y43900D01*
X135858Y44100D01*
X136150Y44200D01*
X136483Y44100D01*
X136733Y43900D01*
X136900Y43600D01*
X136983Y43200D01*
X136900Y42850D01*
X136692Y42500D01*
X136442Y42300D01*
X136150Y42250D01*
X135817Y42350D01*
X135567Y42600D01*
X135317Y43050D01*
G01X141350Y48200D02*
G03I-3150J0D01*
G01X154350Y44200D02*
Y41200D01*
G01X155308Y44200D02*
X153392D01*
G01X152283Y41200D02*
Y44200D01*
X151283D01*
X150950Y44050D01*
X150700Y43700D01*
X150617Y43300D01*
X150700Y42900D01*
X150908Y42600D01*
X151283Y42450D01*
X152283D01*
G01X148550Y41200D02*
X148258Y41250D01*
X147925Y41400D01*
X147717Y41650D01*
X147633Y42000D01*
X147717Y42350D01*
X147967Y42650D01*
X148342Y42800D01*
X148758D01*
X149008Y42900D01*
X149217Y43150D01*
X149300Y43500D01*
X149175Y43850D01*
X148883Y44100D01*
X148550Y44200D01*
X148217Y44100D01*
X147925Y43850D01*
X147800Y43500D01*
X147883Y43150D01*
X148092Y42900D01*
X148342Y42800D01*
X148758D01*
X149133Y42650D01*
X149383Y42350D01*
X149467Y42000D01*
X149383Y41650D01*
X149175Y41400D01*
X148842Y41250D01*
X148550Y41200D01*
G01X153750Y48200D02*
G03I-3150J0D01*
G01X138642Y230600D02*
X137600Y233600D01*
X136558Y230600D01*
G01X136933Y231650D02*
X138267D01*
G01X152800Y223817D02*
X155800D01*
Y224858D01*
X155650Y225192D01*
X155450Y225400D01*
X155050Y225483D01*
X154650Y225400D01*
X154400Y225150D01*
X154250Y224858D01*
Y223817D01*
G01Y224858D02*
X152800Y225483D01*
G01Y227550D02*
X155800D01*
X155200Y227050D01*
G01X152800D02*
Y228050D01*
G01X153400Y229533D02*
X153050Y229783D01*
X152850Y230117D01*
X152800Y230492D01*
X152850Y230825D01*
X153100Y231158D01*
X153400Y231367D01*
X153700Y231408D01*
X154050Y231325D01*
X154300Y231033D01*
X154400Y230742D01*
Y230367D01*
G01Y230742D02*
X154550Y230992D01*
X154800Y231200D01*
X155100Y231283D01*
X155400Y231200D01*
X155650Y230992D01*
X155800Y230617D01*
X155750Y230242D01*
X155550Y229867D01*
G01X155800Y233350D02*
X155700Y233017D01*
X155450Y232767D01*
X155150Y232600D01*
X154750Y232475D01*
X154300Y232433D01*
X153850Y232475D01*
X153450Y232600D01*
X153150Y232767D01*
X152900Y233017D01*
X152800Y233350D01*
X152900Y233683D01*
X153150Y233933D01*
X153450Y234100D01*
X153850Y234225D01*
X154300Y234267D01*
X154750Y234225D01*
X155150Y234100D01*
X155450Y233933D01*
X155700Y233683D01*
X155800Y233350D01*
G01X153453Y234686D02*
Y238623D01*
X155422D01*
Y234686D01*
X153453D01*
G01X147144Y251485D02*
Y254485D01*
X146311D01*
X145978Y254335D01*
X145728Y254135D01*
X145519Y253835D01*
X145353Y253485D01*
X145311Y252985D01*
X145353Y252485D01*
X145519Y252135D01*
X145728Y251835D01*
X145978Y251635D01*
X146311Y251485D01*
X147144D01*
G01X144119Y253985D02*
X143869Y254285D01*
X143578Y254435D01*
X143244Y254485D01*
X142828Y254385D01*
X142536Y254135D01*
X142452Y253835D01*
X142494Y253535D01*
X142661Y253285D01*
X143494Y252785D01*
X143869Y252435D01*
X144119Y251935D01*
X144202Y251485D01*
X142452D01*
G01X140428Y254485D02*
X140761Y254385D01*
X141011Y254135D01*
X141178Y253835D01*
X141303Y253435D01*
X141344Y252985D01*
X141303Y252535D01*
X141178Y252135D01*
X141011Y251835D01*
X140761Y251585D01*
X140428Y251485D01*
X140094Y251585D01*
X139844Y251835D01*
X139678Y252135D01*
X139552Y252535D01*
X139511Y252985D01*
X139552Y253435D01*
X139678Y253835D01*
X139844Y254135D01*
X140094Y254385D01*
X140428Y254485D01*
G01X149269Y245895D02*
X148228Y248895D01*
X147186Y245895D01*
G01X147561Y246945D02*
X148894D01*
G01X141426Y246135D02*
Y249135D01*
X139509Y246135D01*
Y249135D01*
G01X144124Y256615D02*
Y259615D01*
G01X142541D02*
X144124Y257765D01*
G01X142291Y256615D02*
X143416Y258615D01*
G01X137858Y250405D02*
Y255925D01*
X149817D01*
Y250405D01*
X137858D01*
G01X139083Y272750D02*
X139333Y272900D01*
X139625Y273000D01*
X139958D01*
X140333Y272850D01*
X140625Y272600D01*
X140833Y272300D01*
X141000Y271800D01*
X141042Y271350D01*
X140958Y270900D01*
X140833Y270600D01*
X140583Y270300D01*
X140292Y270100D01*
X140000Y270000D01*
X139708D01*
X139417Y270100D01*
X139167Y270250D01*
X138958Y270450D01*
G01X144317Y275000D02*
Y278000D01*
X143483D01*
X143150Y277850D01*
X142900Y277650D01*
X142692Y277350D01*
X142525Y277000D01*
X142483Y276500D01*
X142525Y276000D01*
X142692Y275650D01*
X142900Y275350D01*
X143150Y275150D01*
X143483Y275000D01*
X144317D01*
G01X140500D02*
Y278000D01*
X141000Y277400D01*
G01Y275000D02*
X140000D01*
G01X138308Y275350D02*
X138017Y275100D01*
X137683Y275000D01*
X137350Y275100D01*
X137058Y275400D01*
X136850Y275850D01*
X136767Y276300D01*
Y276850D01*
X136850Y277300D01*
X137058Y277700D01*
X137308Y277900D01*
X137600Y278000D01*
X137933Y277900D01*
X138183Y277700D01*
X138350Y277400D01*
X138433Y277000D01*
X138350Y276650D01*
X138142Y276300D01*
X137892Y276100D01*
X137600Y276050D01*
X137267Y276150D01*
X137017Y276400D01*
X136767Y276850D01*
G01X151000Y285317D02*
X154000D01*
Y286358D01*
X153850Y286692D01*
X153650Y286900D01*
X153250Y286983D01*
X152850Y286900D01*
X152600Y286650D01*
X152450Y286358D01*
Y285317D01*
G01Y286358D02*
X151000Y286983D01*
G01Y289050D02*
X154000D01*
X153400Y288550D01*
G01X151000D02*
Y289550D01*
G01X153500Y291158D02*
X153800Y291408D01*
X153950Y291700D01*
X154000Y292033D01*
X153900Y292450D01*
X153650Y292742D01*
X153350Y292825D01*
X153050Y292783D01*
X152800Y292617D01*
X152300Y291783D01*
X151950Y291408D01*
X151450Y291158D01*
X151000Y291075D01*
Y292825D01*
G01X152250Y294058D02*
X152600Y294350D01*
X152800Y294600D01*
X152900Y294933D01*
X152800Y295225D01*
X152600Y295433D01*
X152300Y295600D01*
X151950Y295642D01*
X151650Y295600D01*
X151350Y295433D01*
X151100Y295183D01*
X151000Y294892D01*
X151100Y294558D01*
X151400Y294267D01*
X151850Y294100D01*
X152350Y294058D01*
X153000Y294142D01*
X153350Y294267D01*
X153700Y294475D01*
X153950Y294767D01*
X154000Y295058D01*
X153900Y295350D01*
X153650Y295558D01*
G01X149392Y293294D02*
Y286995D01*
X146243D01*
Y293294D01*
X149392D01*
G01X145304Y280095D02*
Y283095D01*
G01X143721D02*
X145304Y281245D01*
G01X143471Y280095D02*
X144596Y282095D01*
G01X137929Y280095D02*
X136887Y283095D01*
X135846Y280095D01*
G01X136221Y281145D02*
X137554D01*
G01X146017Y320600D02*
Y318450D01*
X145850Y318000D01*
X145517Y317700D01*
X145100Y317600D01*
X144683Y317700D01*
X144350Y318000D01*
X144183Y318450D01*
Y320600D01*
G01X142200Y317600D02*
Y320600D01*
X142700Y320000D01*
G01Y317600D02*
X141700D01*
G01X138800D02*
Y320600D01*
X140342Y318450D01*
X138258D01*
G01X147187Y305585D02*
X149187Y303585D01*
X145187D01*
X147187Y305585D01*
G01X149894Y381064D02*
Y378914D01*
X149727Y378464D01*
X149394Y378164D01*
X148977Y378064D01*
X148561Y378164D01*
X148227Y378464D01*
X148061Y378914D01*
Y381064D01*
G01X146077Y378064D02*
Y381064D01*
X146577Y380464D01*
G01Y378064D02*
X145578D01*
G01X144094Y378664D02*
X143844Y378314D01*
X143511Y378114D01*
X143136Y378064D01*
X142802Y378114D01*
X142469Y378364D01*
X142261Y378664D01*
X142219Y378964D01*
X142302Y379314D01*
X142594Y379564D01*
X142886Y379664D01*
X143261D01*
G01X142886D02*
X142636Y379814D01*
X142427Y380064D01*
X142344Y380364D01*
X142427Y380664D01*
X142636Y380914D01*
X143011Y381064D01*
X143386Y381014D01*
X143761Y380814D01*
G01X151377Y384414D02*
Y373816D01*
X140778D01*
Y384414D01*
X151377D01*
G01X151577Y383115D02*
X152577Y384115D01*
Y382115D01*
X151577Y383115D01*
G01X138502Y462107D02*
X137002Y463607D01*
X140002D01*
X138502Y462107D01*
G01X165172Y484683D02*
Y487683D01*
X164131D01*
X163797Y487533D01*
X163589Y487333D01*
X163506Y486933D01*
X163589Y486533D01*
X163839Y486283D01*
X164131Y486133D01*
X165172D01*
G01X164131D02*
X163506Y484683D01*
G01X161439D02*
Y487683D01*
X161939Y487083D01*
G01Y484683D02*
X160939D01*
G01X158539D02*
Y487683D01*
X159039Y487083D01*
G01Y484683D02*
X158039D01*
G01X155639D02*
Y487683D01*
X156139Y487083D01*
G01Y484683D02*
X155139D01*
G01X166487Y483384D02*
X153888D01*
Y489786D01*
X166487D01*
Y483384D01*
G01X165172Y495683D02*
Y498683D01*
X164131D01*
X163797Y498533D01*
X163589Y498333D01*
X163506Y497933D01*
X163589Y497533D01*
X163839Y497283D01*
X164131Y497133D01*
X165172D01*
G01X164131D02*
X163506Y495683D01*
G01X161439D02*
Y498683D01*
X161939Y498083D01*
G01Y495683D02*
X160939D01*
G01X158539D02*
Y498683D01*
X159039Y498083D01*
G01Y495683D02*
X158039D01*
G01X155639Y498683D02*
X155972Y498583D01*
X156222Y498333D01*
X156389Y498033D01*
X156514Y497633D01*
X156556Y497183D01*
X156514Y496733D01*
X156389Y496333D01*
X156222Y496033D01*
X155972Y495783D01*
X155639Y495683D01*
X155306Y495783D01*
X155056Y496033D01*
X154889Y496333D01*
X154764Y496733D01*
X154722Y497183D01*
X154764Y497633D01*
X154889Y498033D01*
X155056Y498333D01*
X155306Y498583D01*
X155639Y498683D01*
G01X166487Y494384D02*
X153888D01*
Y500786D01*
X166487D01*
Y494384D01*
G01X146177Y495615D02*
X147177Y494615D01*
X145177D01*
X146177Y495615D01*
G01X164669Y508386D02*
Y511386D01*
X163628D01*
X163294Y511236D01*
X163086Y511036D01*
X163002Y510636D01*
X163086Y510236D01*
X163336Y509986D01*
X163628Y509836D01*
X164669D01*
G01X163628D02*
X163002Y508386D01*
G01X160936D02*
Y511386D01*
X161436Y510786D01*
G01Y508386D02*
X160436D01*
G01X158036Y511386D02*
X158369Y511286D01*
X158619Y511036D01*
X158786Y510736D01*
X158911Y510336D01*
X158952Y509886D01*
X158911Y509436D01*
X158786Y509036D01*
X158619Y508736D01*
X158369Y508486D01*
X158036Y508386D01*
X157702Y508486D01*
X157453Y508736D01*
X157286Y509036D01*
X157161Y509436D01*
X157119Y509886D01*
X157161Y510336D01*
X157286Y510736D01*
X157453Y511036D01*
X157702Y511286D01*
X158036Y511386D01*
G01X155136Y508386D02*
X154844Y508436D01*
X154511Y508586D01*
X154302Y508836D01*
X154219Y509186D01*
X154302Y509536D01*
X154552Y509836D01*
X154928Y509986D01*
X155344D01*
X155594Y510086D01*
X155803Y510336D01*
X155886Y510686D01*
X155761Y511036D01*
X155469Y511286D01*
X155136Y511386D01*
X154803Y511286D01*
X154511Y511036D01*
X154386Y510686D01*
X154469Y510336D01*
X154678Y510086D01*
X154928Y509986D01*
X155344D01*
X155719Y509836D01*
X155969Y509536D01*
X156053Y509186D01*
X155969Y508836D01*
X155761Y508586D01*
X155427Y508436D01*
X155136Y508386D01*
G01X153888Y512486D02*
X166487D01*
Y506084D01*
X153888D01*
Y512486D01*
G01X164669Y519386D02*
Y522386D01*
X163628D01*
X163294Y522236D01*
X163086Y522036D01*
X163002Y521636D01*
X163086Y521236D01*
X163336Y520986D01*
X163628Y520836D01*
X164669D01*
G01X163628D02*
X163002Y519386D01*
G01X160936D02*
Y522386D01*
X161436Y521786D01*
G01Y519386D02*
X160436D01*
G01X158036Y522386D02*
X158369Y522286D01*
X158619Y522036D01*
X158786Y521736D01*
X158911Y521336D01*
X158952Y520886D01*
X158911Y520436D01*
X158786Y520036D01*
X158619Y519736D01*
X158369Y519486D01*
X158036Y519386D01*
X157702Y519486D01*
X157453Y519736D01*
X157286Y520036D01*
X157161Y520436D01*
X157119Y520886D01*
X157161Y521336D01*
X157286Y521736D01*
X157453Y522036D01*
X157702Y522286D01*
X158036Y522386D01*
G01X155928Y520636D02*
X155636Y520986D01*
X155386Y521186D01*
X155052Y521286D01*
X154761Y521186D01*
X154552Y520986D01*
X154386Y520686D01*
X154344Y520336D01*
X154386Y520036D01*
X154552Y519736D01*
X154803Y519486D01*
X155094Y519386D01*
X155427Y519486D01*
X155719Y519786D01*
X155886Y520236D01*
X155928Y520736D01*
X155844Y521386D01*
X155719Y521736D01*
X155511Y522086D01*
X155219Y522336D01*
X154928Y522386D01*
X154636Y522286D01*
X154427Y522036D01*
G01X153888Y523486D02*
X166487D01*
Y517084D01*
X153888D01*
Y523486D01*
G01X142617Y509800D02*
Y507650D01*
X142450Y507200D01*
X142117Y506900D01*
X141700Y506800D01*
X141283Y506900D01*
X140950Y507200D01*
X140783Y507650D01*
Y509800D01*
G01X138800Y506800D02*
Y509800D01*
X139300Y509200D01*
G01Y506800D02*
X138300D01*
G01X135900Y509800D02*
X136233Y509700D01*
X136483Y509450D01*
X136650Y509150D01*
X136775Y508750D01*
X136817Y508300D01*
X136775Y507850D01*
X136650Y507450D01*
X136483Y507150D01*
X136233Y506900D01*
X135900Y506800D01*
X135567Y506900D01*
X135317Y507150D01*
X135150Y507450D01*
X135025Y507850D01*
X134983Y508300D01*
X135025Y508750D01*
X135150Y509150D01*
X135317Y509450D01*
X135567Y509700D01*
X135900Y509800D01*
G01X149844Y538173D02*
X152844D01*
Y539756D01*
G01X151394Y539173D02*
Y538173D01*
G01X149844Y541865D02*
X149894Y542156D01*
X150044Y542490D01*
X150294Y542698D01*
X150644Y542782D01*
X150994Y542698D01*
X151294Y542448D01*
X151444Y542073D01*
Y541656D01*
X151544Y541406D01*
X151794Y541198D01*
X152144Y541115D01*
X152494Y541240D01*
X152744Y541531D01*
X152844Y541865D01*
X152744Y542198D01*
X152494Y542490D01*
X152144Y542615D01*
X151794Y542531D01*
X151544Y542323D01*
X151444Y542073D01*
Y541656D01*
X151294Y541282D01*
X150994Y541032D01*
X150644Y540948D01*
X150294Y541032D01*
X150044Y541240D01*
X149894Y541573D01*
X149844Y541865D01*
G01X144299Y531158D02*
Y549072D01*
X157055D01*
Y531158D01*
X144299D01*
G01X179150Y44200D02*
Y41200D01*
G01X180108Y44200D02*
X178192D01*
G01X177083Y41200D02*
Y44200D01*
X176083D01*
X175750Y44050D01*
X175500Y43700D01*
X175417Y43300D01*
X175500Y42900D01*
X175708Y42600D01*
X176083Y42450D01*
X177083D01*
G01X174142D02*
X173850Y42800D01*
X173600Y43000D01*
X173267Y43100D01*
X172975Y43000D01*
X172767Y42800D01*
X172600Y42500D01*
X172558Y42150D01*
X172600Y41850D01*
X172767Y41550D01*
X173017Y41300D01*
X173308Y41200D01*
X173642Y41300D01*
X173933Y41600D01*
X174100Y42050D01*
X174142Y42550D01*
X174058Y43200D01*
X173933Y43550D01*
X173725Y43900D01*
X173433Y44150D01*
X173142Y44200D01*
X172850Y44100D01*
X172642Y43850D01*
G01X178550Y48200D02*
G03I-3150J0D01*
G01X166550Y44200D02*
Y41200D01*
G01X167508Y44200D02*
X165592D01*
G01X164483Y41200D02*
Y44200D01*
X163483D01*
X163150Y44050D01*
X162900Y43700D01*
X162817Y43300D01*
X162900Y42900D01*
X163108Y42600D01*
X163483Y42450D01*
X164483D01*
G01X160833Y41200D02*
X160750Y41850D01*
X160625Y42400D01*
X160458Y42900D01*
X160250Y43450D01*
X159917Y44200D01*
X161583D01*
G01X165950Y48200D02*
G03I-3150J0D01*
G01X174058Y57884D02*
Y60884D01*
X175600Y58734D01*
X173517D01*
G01X172575Y58484D02*
X172325Y58134D01*
X171992Y57934D01*
X171617Y57884D01*
X171283Y57934D01*
X170950Y58184D01*
X170742Y58484D01*
X170700Y58784D01*
X170783Y59134D01*
X171075Y59384D01*
X171367Y59484D01*
X171742D01*
G01X171367D02*
X171117Y59634D01*
X170908Y59884D01*
X170825Y60184D01*
X170908Y60484D01*
X171117Y60734D01*
X171492Y60884D01*
X171867Y60834D01*
X172242Y60634D01*
G01X177900Y217600D02*
Y220600D01*
X178400Y220000D01*
G01Y217600D02*
X177400D01*
G01X175083D02*
X175000Y218250D01*
X174875Y218800D01*
X174708Y219300D01*
X174500Y219850D01*
X174167Y220600D01*
X175833D01*
G01X172892Y218850D02*
X172600Y219200D01*
X172350Y219400D01*
X172017Y219500D01*
X171725Y219400D01*
X171517Y219200D01*
X171350Y218900D01*
X171308Y218550D01*
X171350Y218250D01*
X171517Y217950D01*
X171767Y217700D01*
X172058Y217600D01*
X172392Y217700D01*
X172683Y218000D01*
X172850Y218450D01*
X172892Y218950D01*
X172808Y219600D01*
X172683Y219950D01*
X172475Y220300D01*
X172183Y220550D01*
X171892Y220600D01*
X171600Y220500D01*
X171392Y220250D01*
G01X160950Y227817D02*
X161100Y227567D01*
X161200Y227275D01*
Y226942D01*
X161050Y226567D01*
X160800Y226275D01*
X160500Y226067D01*
X160000Y225900D01*
X159550Y225858D01*
X159100Y225942D01*
X158800Y226067D01*
X158500Y226317D01*
X158300Y226608D01*
X158200Y226900D01*
Y227192D01*
X158300Y227483D01*
X158450Y227733D01*
X158650Y227942D01*
G01X158200Y230300D02*
X161200D01*
X159050Y228758D01*
Y230842D01*
G01X158200Y232700D02*
X158250Y232992D01*
X158400Y233325D01*
X158650Y233533D01*
X159000Y233617D01*
X159350Y233533D01*
X159650Y233283D01*
X159800Y232908D01*
Y232492D01*
X159900Y232242D01*
X160150Y232033D01*
X160500Y231950D01*
X160850Y232075D01*
X161100Y232367D01*
X161200Y232700D01*
X161100Y233033D01*
X160850Y233325D01*
X160500Y233450D01*
X160150Y233367D01*
X159900Y233158D01*
X159800Y232908D01*
Y232492D01*
X159650Y232117D01*
X159350Y231867D01*
X159000Y231783D01*
X158650Y231867D01*
X158400Y232075D01*
X158250Y232408D01*
X158200Y232700D01*
G01X158453Y234686D02*
Y238623D01*
X160422D01*
Y234686D01*
X158453D01*
G01X178383Y223000D02*
Y226000D01*
X177342D01*
X177008Y225850D01*
X176800Y225650D01*
X176717Y225250D01*
X176800Y224850D01*
X177050Y224600D01*
X177342Y224450D01*
X178383D01*
G01X177342D02*
X176717Y223000D01*
G01X174650D02*
Y226000D01*
X175150Y225400D01*
G01Y223000D02*
X174150D01*
G01X172667Y223600D02*
X172417Y223250D01*
X172083Y223050D01*
X171708Y223000D01*
X171375Y223050D01*
X171042Y223300D01*
X170833Y223600D01*
X170792Y223900D01*
X170875Y224250D01*
X171167Y224500D01*
X171458Y224600D01*
X171833D01*
G01X171458D02*
X171208Y224750D01*
X171000Y225000D01*
X170917Y225300D01*
X171000Y225600D01*
X171208Y225850D01*
X171583Y226000D01*
X171958Y225950D01*
X172333Y225750D01*
G01X169767Y223600D02*
X169517Y223250D01*
X169183Y223050D01*
X168808Y223000D01*
X168475Y223050D01*
X168142Y223300D01*
X167933Y223600D01*
X167892Y223900D01*
X167975Y224250D01*
X168267Y224500D01*
X168558Y224600D01*
X168933D01*
G01X168558D02*
X168308Y224750D01*
X168100Y225000D01*
X168017Y225300D01*
X168100Y225600D01*
X168308Y225850D01*
X168683Y226000D01*
X169058Y225950D01*
X169433Y225750D01*
G01X171969Y228839D02*
X175906D01*
Y226871D01*
X171969D01*
Y228839D01*
G01X178921Y234355D02*
Y237355D01*
X177879D01*
X177546Y237205D01*
X177337Y237005D01*
X177254Y236605D01*
X177337Y236205D01*
X177587Y235955D01*
X177879Y235805D01*
X178921D01*
G01X177879D02*
X177254Y234355D01*
G01X175187D02*
Y237355D01*
X175687Y236755D01*
G01Y234355D02*
X174688D01*
G01X173204Y234955D02*
X172954Y234605D01*
X172621Y234405D01*
X172246Y234355D01*
X171912Y234405D01*
X171579Y234655D01*
X171371Y234955D01*
X171329Y235255D01*
X171412Y235605D01*
X171704Y235855D01*
X171996Y235955D01*
X172371D01*
G01X171996D02*
X171746Y236105D01*
X171537Y236355D01*
X171454Y236655D01*
X171537Y236955D01*
X171746Y237205D01*
X172121Y237355D01*
X172496Y237305D01*
X172871Y237105D01*
G01X169387Y234355D02*
Y237355D01*
X169887Y236755D01*
G01Y234355D02*
X168888D01*
G01X171969Y233839D02*
X175906D01*
Y231870D01*
X171969D01*
Y233839D01*
G01X164000Y223583D02*
X167000D01*
Y224417D01*
X166850Y224750D01*
X166650Y225000D01*
X166350Y225208D01*
X166000Y225375D01*
X165500Y225417D01*
X165000Y225375D01*
X164650Y225208D01*
X164350Y225000D01*
X164150Y224750D01*
X164000Y224417D01*
Y223583D01*
G01X166500Y226608D02*
X166800Y226858D01*
X166950Y227150D01*
X167000Y227483D01*
X166900Y227900D01*
X166650Y228192D01*
X166350Y228275D01*
X166050Y228233D01*
X165800Y228067D01*
X165300Y227233D01*
X164950Y226858D01*
X164450Y226608D01*
X164000Y226525D01*
Y228275D01*
G01X164600Y229383D02*
X164250Y229633D01*
X164050Y229967D01*
X164000Y230342D01*
X164050Y230675D01*
X164300Y231008D01*
X164600Y231217D01*
X164900Y231258D01*
X165250Y231175D01*
X165500Y230883D01*
X165600Y230592D01*
Y230217D01*
G01Y230592D02*
X165750Y230842D01*
X166000Y231050D01*
X166300Y231133D01*
X166600Y231050D01*
X166850Y230842D01*
X167000Y230467D01*
X166950Y230092D01*
X166750Y229717D01*
G01X167437Y233855D02*
X164437D01*
G01X167687Y232605D02*
Y238105D01*
X164187D01*
Y232605D01*
X167687D01*
G01X175525Y257400D02*
X175192Y257150D01*
X174817Y257000D01*
X174483D01*
X174150Y257150D01*
X173900Y257400D01*
X173775Y257750D01*
X173858Y258100D01*
X174067Y258400D01*
X174442Y258600D01*
X174942Y258700D01*
X175233Y258900D01*
X175358Y259250D01*
X175275Y259600D01*
X175067Y259850D01*
X174775Y260000D01*
X174483D01*
X174192Y259900D01*
X173942Y259650D01*
G01X172542Y259500D02*
X172292Y259800D01*
X172000Y259950D01*
X171667Y260000D01*
X171250Y259900D01*
X170958Y259650D01*
X170875Y259350D01*
X170917Y259050D01*
X171083Y258800D01*
X171917Y258300D01*
X172292Y257950D01*
X172542Y257450D01*
X172625Y257000D01*
X170875D01*
G01X155900Y247400D02*
Y250400D01*
X157442Y248250D01*
X155358D01*
G01X161128Y246045D02*
Y269665D01*
X184747D01*
Y246045D01*
X161128D01*
G01X156992Y267500D02*
X156742Y267800D01*
X156450Y267950D01*
X156117Y268000D01*
X155700Y267900D01*
X155408Y267650D01*
X155325Y267350D01*
X155367Y267050D01*
X155533Y266800D01*
X156367Y266300D01*
X156742Y265950D01*
X156992Y265450D01*
X157075Y265000D01*
X155325D01*
G01X167383Y289550D02*
X167633Y289700D01*
X167925Y289800D01*
X168258D01*
X168633Y289650D01*
X168925Y289400D01*
X169133Y289100D01*
X169300Y288600D01*
X169342Y288150D01*
X169258Y287700D01*
X169133Y287400D01*
X168883Y287100D01*
X168592Y286900D01*
X168300Y286800D01*
X168008D01*
X167717Y286900D01*
X167467Y287050D01*
X167258Y287250D01*
G01X164900Y286800D02*
Y289800D01*
X166442Y287650D01*
X164358D01*
G01X163417Y287250D02*
X163167Y287000D01*
X162875Y286850D01*
X162500Y286800D01*
X162125Y286900D01*
X161833Y287100D01*
X161625Y287450D01*
X161583Y287850D01*
X161667Y288250D01*
X161875Y288500D01*
X162167Y288700D01*
X162458Y288750D01*
X162750Y288700D01*
X163125Y288500D01*
X163000Y289800D01*
X161875D01*
G01X161267Y285430D02*
X169928D01*
Y291139D01*
X161267D01*
Y285430D01*
G01X160150Y297217D02*
X160300Y296967D01*
X160400Y296675D01*
Y296342D01*
X160250Y295967D01*
X160000Y295675D01*
X159700Y295467D01*
X159200Y295300D01*
X158750Y295258D01*
X158300Y295342D01*
X158000Y295467D01*
X157700Y295717D01*
X157500Y296008D01*
X157400Y296300D01*
Y296592D01*
X157500Y296883D01*
X157650Y297133D01*
X157850Y297342D01*
G01X157400Y299700D02*
X160400D01*
X158250Y298158D01*
Y300242D01*
G01X157400Y302600D02*
X160400D01*
X158250Y301058D01*
Y303142D01*
G01X163133Y300883D02*
Y296946D01*
X161164D01*
Y300883D01*
X163133D01*
G01X175849Y285432D02*
X178849D01*
Y286473D01*
X178699Y286806D01*
X178499Y287015D01*
X178099Y287098D01*
X177699Y287015D01*
X177449Y286765D01*
X177299Y286473D01*
Y285432D01*
G01Y286473D02*
X175849Y287098D01*
G01Y289165D02*
X178849D01*
X178249Y288665D01*
G01X175849D02*
Y289665D01*
G01X178349Y291273D02*
X178649Y291523D01*
X178799Y291815D01*
X178849Y292148D01*
X178749Y292565D01*
X178499Y292857D01*
X178199Y292940D01*
X177899Y292898D01*
X177649Y292731D01*
X177149Y291898D01*
X176799Y291523D01*
X176299Y291273D01*
X175849Y291190D01*
Y292940D01*
G01Y295465D02*
X178849D01*
X176699Y293923D01*
Y296006D01*
G01X170849Y285432D02*
X173849D01*
Y286473D01*
X173699Y286806D01*
X173499Y287015D01*
X173099Y287098D01*
X172699Y287015D01*
X172449Y286765D01*
X172299Y286473D01*
Y285432D01*
G01Y286473D02*
X170849Y287098D01*
G01Y289165D02*
X173849D01*
X173249Y288665D01*
G01X170849D02*
Y289665D01*
G01X173349Y291273D02*
X173649Y291523D01*
X173799Y291815D01*
X173849Y292148D01*
X173749Y292565D01*
X173499Y292857D01*
X173199Y292940D01*
X172899Y292898D01*
X172649Y292731D01*
X172149Y291898D01*
X171799Y291523D01*
X171299Y291273D01*
X170849Y291190D01*
Y292940D01*
G01X171299Y294048D02*
X171049Y294298D01*
X170899Y294590D01*
X170849Y294965D01*
X170949Y295340D01*
X171149Y295631D01*
X171499Y295840D01*
X171899Y295882D01*
X172299Y295798D01*
X172549Y295590D01*
X172749Y295298D01*
X172799Y295006D01*
X172749Y294715D01*
X172549Y294340D01*
X173849Y294465D01*
Y295590D01*
G01X173133Y300883D02*
Y296946D01*
X171164D01*
Y300883D01*
X173133D01*
G01X171767Y320600D02*
Y318450D01*
X171600Y318000D01*
X171267Y317700D01*
X170850Y317600D01*
X170433Y317700D01*
X170100Y318000D01*
X169933Y318450D01*
Y320600D01*
G01X167950Y317600D02*
Y320600D01*
X168450Y320000D01*
G01Y317600D02*
X167450D01*
G01X165967Y318050D02*
X165717Y317800D01*
X165425Y317650D01*
X165050Y317600D01*
X164675Y317700D01*
X164383Y317900D01*
X164175Y318250D01*
X164133Y318650D01*
X164217Y319050D01*
X164425Y319300D01*
X164717Y319500D01*
X165008Y319550D01*
X165300Y319500D01*
X165675Y319300D01*
X165550Y320600D01*
X164425D01*
G01X162000Y331000D02*
X161000Y332000D01*
X163000D01*
X162000Y331000D01*
G01X173750Y386617D02*
X173900Y386367D01*
X174000Y386075D01*
Y385742D01*
X173850Y385367D01*
X173600Y385075D01*
X173300Y384867D01*
X172800Y384700D01*
X172350Y384658D01*
X171900Y384742D01*
X171600Y384867D01*
X171300Y385117D01*
X171100Y385408D01*
X171000Y385700D01*
Y385992D01*
X171100Y386283D01*
X171250Y386533D01*
X171450Y386742D01*
G01X171000Y389100D02*
X174000D01*
X171850Y387558D01*
Y389642D01*
G01X174000Y391500D02*
X173900Y391167D01*
X173650Y390917D01*
X173350Y390750D01*
X172950Y390625D01*
X172500Y390583D01*
X172050Y390625D01*
X171650Y390750D01*
X171350Y390917D01*
X171100Y391167D01*
X171000Y391500D01*
X171100Y391833D01*
X171350Y392083D01*
X171650Y392250D01*
X172050Y392375D01*
X172500Y392417D01*
X172950Y392375D01*
X173350Y392250D01*
X173650Y392083D01*
X173900Y391833D01*
X174000Y391500D01*
G01X175294Y386547D02*
Y390483D01*
X177261D01*
Y386547D01*
X175294D01*
G01X169250Y432200D02*
Y429200D01*
G01X170208Y432200D02*
X168292D01*
G01X166350Y429200D02*
Y432200D01*
X166850Y431600D01*
G01Y429200D02*
X165850D01*
G01X171327Y495816D02*
Y520414D01*
X192028D01*
Y495816D01*
X171327D01*
G01X167344Y538173D02*
X170344D01*
Y539756D01*
G01X168894Y539173D02*
Y538173D01*
G01X167344Y541781D02*
X167994Y541865D01*
X168544Y541990D01*
X169044Y542156D01*
X169594Y542365D01*
X170344Y542698D01*
Y541032D01*
G01X161799Y531158D02*
Y549072D01*
X174555D01*
Y531158D01*
X161799D01*
G01X194707Y45055D02*
Y145055D01*
X214707Y145043D01*
Y45055D01*
X194707D01*
G01X197206Y155447D02*
Y151510D01*
X195238D01*
Y155447D01*
X197206D01*
G01X192672Y144495D02*
X192822Y144245D01*
X192922Y143954D01*
Y143620D01*
X192772Y143245D01*
X192522Y142954D01*
X192222Y142745D01*
X191722Y142578D01*
X191272Y142537D01*
X190822Y142620D01*
X190522Y142745D01*
X190222Y142995D01*
X190022Y143287D01*
X189922Y143578D01*
Y143870D01*
X190022Y144162D01*
X190172Y144412D01*
X190372Y144620D01*
G01Y145562D02*
X190122Y145812D01*
X189972Y146104D01*
X189922Y146478D01*
X190022Y146854D01*
X190222Y147145D01*
X190572Y147354D01*
X190972Y147395D01*
X191372Y147312D01*
X191622Y147104D01*
X191822Y146812D01*
X191872Y146520D01*
X191822Y146228D01*
X191622Y145854D01*
X192922Y145978D01*
Y147104D01*
G01X189922Y149878D02*
X192922D01*
X190772Y148337D01*
Y150420D01*
G01X192206Y155447D02*
Y151510D01*
X190238D01*
Y155447D01*
X192206D01*
G01X192750Y169417D02*
X192900Y169167D01*
X193000Y168875D01*
Y168542D01*
X192850Y168167D01*
X192600Y167875D01*
X192300Y167667D01*
X191800Y167500D01*
X191350Y167458D01*
X190900Y167542D01*
X190600Y167667D01*
X190300Y167917D01*
X190100Y168208D01*
X190000Y168500D01*
Y168792D01*
X190100Y169083D01*
X190250Y169333D01*
X190450Y169542D01*
G01Y170483D02*
X190200Y170733D01*
X190050Y171025D01*
X190000Y171400D01*
X190100Y171775D01*
X190300Y172067D01*
X190650Y172275D01*
X191050Y172317D01*
X191450Y172233D01*
X191700Y172025D01*
X191900Y171733D01*
X191950Y171442D01*
X191900Y171150D01*
X191700Y170775D01*
X193000Y170900D01*
Y172025D01*
G01X190000Y174300D02*
X193000D01*
X192400Y173800D01*
G01X190000D02*
Y174800D01*
G01X190203Y161616D02*
Y165553D01*
X192172D01*
Y161616D01*
X190203D01*
G01X197750Y158817D02*
X197900Y158567D01*
X198000Y158275D01*
Y157942D01*
X197850Y157567D01*
X197600Y157275D01*
X197300Y157067D01*
X196800Y156900D01*
X196350Y156858D01*
X195900Y156942D01*
X195600Y157067D01*
X195300Y157317D01*
X195100Y157608D01*
X195000Y157900D01*
Y158192D01*
X195100Y158483D01*
X195250Y158733D01*
X195450Y158942D01*
G01Y159883D02*
X195200Y160133D01*
X195050Y160425D01*
X195000Y160800D01*
X195100Y161175D01*
X195300Y161467D01*
X195650Y161675D01*
X196050Y161717D01*
X196450Y161633D01*
X196700Y161425D01*
X196900Y161133D01*
X196950Y160842D01*
X196900Y160550D01*
X196700Y160175D01*
X198000Y160300D01*
Y161425D01*
G01X195600Y162783D02*
X195250Y163033D01*
X195050Y163367D01*
X195000Y163742D01*
X195050Y164075D01*
X195300Y164408D01*
X195600Y164617D01*
X195900Y164658D01*
X196250Y164575D01*
X196500Y164283D01*
X196600Y163992D01*
Y163617D01*
G01Y163992D02*
X196750Y164242D01*
X197000Y164450D01*
X197300Y164533D01*
X197600Y164450D01*
X197850Y164242D01*
X198000Y163867D01*
X197950Y163492D01*
X197750Y163117D01*
G01X184892Y205380D02*
X186392Y206880D01*
Y203880D01*
X184892Y205380D01*
G01X192183Y222750D02*
X192433Y222900D01*
X192725Y223000D01*
X193058D01*
X193433Y222850D01*
X193725Y222600D01*
X193933Y222300D01*
X194100Y221800D01*
X194142Y221350D01*
X194058Y220900D01*
X193933Y220600D01*
X193683Y220300D01*
X193392Y220100D01*
X193100Y220000D01*
X192808D01*
X192517Y220100D01*
X192267Y220250D01*
X192058Y220450D01*
G01X189700Y220000D02*
Y223000D01*
X191242Y220850D01*
X189158D01*
G01X188008Y220350D02*
X187717Y220100D01*
X187383Y220000D01*
X187050Y220100D01*
X186758Y220400D01*
X186550Y220850D01*
X186467Y221300D01*
Y221850D01*
X186550Y222300D01*
X186758Y222700D01*
X187008Y222900D01*
X187300Y223000D01*
X187633Y222900D01*
X187883Y222700D01*
X188050Y222400D01*
X188133Y222000D01*
X188050Y221650D01*
X187842Y221300D01*
X187592Y221100D01*
X187300Y221050D01*
X186967Y221150D01*
X186717Y221400D01*
X186467Y221850D01*
G01X188020Y225839D02*
X191957D01*
Y223870D01*
X188020D01*
Y225839D01*
G01X188974Y231223D02*
X186824D01*
X186374Y231390D01*
X186074Y231723D01*
X185974Y232140D01*
X186074Y232556D01*
X186374Y232890D01*
X186824Y233056D01*
X188974D01*
G01X185974Y235040D02*
X188974D01*
X188374Y234540D01*
G01X185974D02*
Y235540D01*
G01X187224Y237148D02*
X187574Y237440D01*
X187774Y237690D01*
X187874Y238023D01*
X187774Y238315D01*
X187574Y238523D01*
X187274Y238690D01*
X186924Y238732D01*
X186624Y238690D01*
X186324Y238523D01*
X186074Y238273D01*
X185974Y237982D01*
X186074Y237648D01*
X186374Y237357D01*
X186824Y237190D01*
X187324Y237148D01*
X187974Y237231D01*
X188324Y237357D01*
X188674Y237565D01*
X188924Y237856D01*
X188974Y238148D01*
X188874Y238440D01*
X188624Y238648D01*
G01X182937Y230855D02*
X181937Y229855D01*
Y231855D01*
X182937Y230855D01*
G01X190382Y228752D02*
Y240957D01*
X183492D01*
Y228752D01*
X190382D01*
G01X190717Y248400D02*
X190467Y248050D01*
X190133Y247850D01*
X189758Y247800D01*
X189425Y247850D01*
X189092Y248100D01*
X188883Y248400D01*
X188842Y248700D01*
X188925Y249050D01*
X189217Y249300D01*
X189508Y249400D01*
X189883D01*
G01X189508D02*
X189258Y249550D01*
X189050Y249800D01*
X188967Y250100D01*
X189050Y250400D01*
X189258Y250650D01*
X189633Y250800D01*
X190008Y250750D01*
X190383Y250550D01*
G01X186437Y266355D02*
X187937Y264855D01*
Y267855D01*
X186437Y266355D01*
G01X178133Y300883D02*
Y296946D01*
X176164D01*
Y300883D01*
X178133D01*
G01X194617Y380200D02*
Y378050D01*
X194450Y377600D01*
X194117Y377300D01*
X193700Y377200D01*
X193283Y377300D01*
X192950Y377600D01*
X192783Y378050D01*
Y380200D01*
G01X190800Y377200D02*
Y380200D01*
X191300Y379600D01*
G01Y377200D02*
X190300D01*
G01X188692Y379700D02*
X188442Y380000D01*
X188150Y380150D01*
X187817Y380200D01*
X187400Y380100D01*
X187108Y379850D01*
X187025Y379550D01*
X187067Y379250D01*
X187233Y379000D01*
X188067Y378500D01*
X188442Y378150D01*
X188692Y377650D01*
X188775Y377200D01*
X187025D01*
G01X185502Y375115D02*
X184502Y374115D01*
Y376115D01*
X185502Y375115D01*
G01X185703Y373816D02*
Y384414D01*
X196301D01*
Y373816D01*
X185703D01*
G01X196500Y492817D02*
X199500D01*
Y493858D01*
X199350Y494192D01*
X199150Y494400D01*
X198750Y494483D01*
X198350Y494400D01*
X198100Y494150D01*
X197950Y493858D01*
Y492817D01*
G01Y493858D02*
X196500Y494483D01*
G01Y496550D02*
X199500D01*
X198900Y496050D01*
G01X196500D02*
Y497050D01*
G01X199500Y499450D02*
X199400Y499117D01*
X199150Y498867D01*
X198850Y498700D01*
X198450Y498575D01*
X198000Y498533D01*
X197550Y498575D01*
X197150Y498700D01*
X196850Y498867D01*
X196600Y499117D01*
X196500Y499450D01*
X196600Y499783D01*
X196850Y500033D01*
X197150Y500200D01*
X197550Y500325D01*
X198000Y500367D01*
X198450Y500325D01*
X198850Y500200D01*
X199150Y500033D01*
X199400Y499783D01*
X199500Y499450D01*
G01X196850Y501642D02*
X196600Y501933D01*
X196500Y502267D01*
X196600Y502600D01*
X196900Y502892D01*
X197350Y503100D01*
X197800Y503183D01*
X198350D01*
X198800Y503100D01*
X199200Y502892D01*
X199400Y502642D01*
X199500Y502350D01*
X199400Y502017D01*
X199200Y501767D01*
X198900Y501600D01*
X198500Y501517D01*
X198150Y501600D01*
X197800Y501808D01*
X197600Y502058D01*
X197550Y502350D01*
X197650Y502683D01*
X197900Y502933D01*
X198350Y503183D01*
G01X189177Y495615D02*
X190177Y494615D01*
X188177D01*
X189177Y495615D01*
G01X193000Y507817D02*
X196000D01*
Y508858D01*
X195850Y509192D01*
X195650Y509400D01*
X195250Y509483D01*
X194850Y509400D01*
X194600Y509150D01*
X194450Y508858D01*
Y507817D01*
G01Y508858D02*
X193000Y509483D01*
G01Y511550D02*
X196000D01*
X195400Y511050D01*
G01X193000D02*
Y512050D01*
G01X196000Y514450D02*
X195900Y514117D01*
X195650Y513867D01*
X195350Y513700D01*
X194950Y513575D01*
X194500Y513533D01*
X194050Y513575D01*
X193650Y513700D01*
X193350Y513867D01*
X193100Y514117D01*
X193000Y514450D01*
X193100Y514783D01*
X193350Y515033D01*
X193650Y515200D01*
X194050Y515325D01*
X194500Y515367D01*
X194950Y515325D01*
X195350Y515200D01*
X195650Y515033D01*
X195900Y514783D01*
X196000Y514450D01*
G01X193000Y517267D02*
X193650Y517350D01*
X194200Y517475D01*
X194700Y517642D01*
X195250Y517850D01*
X196000Y518183D01*
Y516517D01*
G01X193500Y523317D02*
X196500D01*
Y524358D01*
X196350Y524692D01*
X196150Y524900D01*
X195750Y524983D01*
X195350Y524900D01*
X195100Y524650D01*
X194950Y524358D01*
Y523317D01*
G01Y524358D02*
X193500Y524983D01*
G01Y527050D02*
X196500D01*
X195900Y526550D01*
G01X193500D02*
Y527550D01*
G01X196500Y529950D02*
X196400Y529617D01*
X196150Y529367D01*
X195850Y529200D01*
X195450Y529075D01*
X195000Y529033D01*
X194550Y529075D01*
X194150Y529200D01*
X193850Y529367D01*
X193600Y529617D01*
X193500Y529950D01*
X193600Y530283D01*
X193850Y530533D01*
X194150Y530700D01*
X194550Y530825D01*
X195000Y530867D01*
X195450Y530825D01*
X195850Y530700D01*
X196150Y530533D01*
X196400Y530283D01*
X196500Y529950D01*
G01X193500Y533350D02*
X196500D01*
X194350Y531808D01*
Y533892D01*
G01X184167Y510000D02*
Y507850D01*
X184000Y507400D01*
X183667Y507100D01*
X183250Y507000D01*
X182833Y507100D01*
X182500Y507400D01*
X182333Y507850D01*
Y510000D01*
G01X181058Y507350D02*
X180767Y507100D01*
X180433Y507000D01*
X180100Y507100D01*
X179808Y507400D01*
X179600Y507850D01*
X179517Y508300D01*
Y508850D01*
X179600Y509300D01*
X179808Y509700D01*
X180058Y509900D01*
X180350Y510000D01*
X180683Y509900D01*
X180933Y509700D01*
X181100Y509400D01*
X181183Y509000D01*
X181100Y508650D01*
X180892Y508300D01*
X180642Y508100D01*
X180350Y508050D01*
X180017Y508150D01*
X179767Y508400D01*
X179517Y508850D01*
G01X185844Y538173D02*
X188844D01*
Y539756D01*
G01X187394Y539173D02*
Y538173D01*
G01X187094Y541073D02*
X187444Y541365D01*
X187644Y541615D01*
X187744Y541948D01*
X187644Y542240D01*
X187444Y542448D01*
X187144Y542615D01*
X186794Y542656D01*
X186494Y542615D01*
X186194Y542448D01*
X185944Y542198D01*
X185844Y541906D01*
X185944Y541573D01*
X186244Y541282D01*
X186694Y541115D01*
X187194Y541073D01*
X187844Y541156D01*
X188194Y541282D01*
X188544Y541490D01*
X188794Y541781D01*
X188844Y542073D01*
X188744Y542365D01*
X188494Y542573D01*
G01X180299Y531158D02*
Y549072D01*
X193055D01*
Y531158D01*
X180299D01*
G01X196000Y545817D02*
X199000D01*
Y546858D01*
X198850Y547192D01*
X198650Y547400D01*
X198250Y547483D01*
X197850Y547400D01*
X197600Y547150D01*
X197450Y546858D01*
Y545817D01*
G01Y546858D02*
X196000Y547483D01*
G01Y549550D02*
X199000D01*
X198400Y549050D01*
G01X196000D02*
Y550050D01*
G01X199000Y552450D02*
X198900Y552117D01*
X198650Y551867D01*
X198350Y551700D01*
X197950Y551575D01*
X197500Y551533D01*
X197050Y551575D01*
X196650Y551700D01*
X196350Y551867D01*
X196100Y552117D01*
X196000Y552450D01*
X196100Y552783D01*
X196350Y553033D01*
X196650Y553200D01*
X197050Y553325D01*
X197500Y553367D01*
X197950Y553325D01*
X198350Y553200D01*
X198650Y553033D01*
X198900Y552783D01*
X199000Y552450D01*
G01X196000Y555350D02*
X199000D01*
X198400Y554850D01*
G01X196000D02*
Y555850D01*
G01X191000Y594817D02*
X194000D01*
Y595858D01*
X193850Y596192D01*
X193650Y596400D01*
X193250Y596483D01*
X192850Y596400D01*
X192600Y596150D01*
X192450Y595858D01*
Y594817D01*
G01Y595858D02*
X191000Y596483D01*
G01Y598550D02*
X194000D01*
X193400Y598050D01*
G01X191000D02*
Y599050D01*
G01X194000Y601450D02*
X193900Y601117D01*
X193650Y600867D01*
X193350Y600700D01*
X192950Y600575D01*
X192500Y600533D01*
X192050Y600575D01*
X191650Y600700D01*
X191350Y600867D01*
X191100Y601117D01*
X191000Y601450D01*
X191100Y601783D01*
X191350Y602033D01*
X191650Y602200D01*
X192050Y602325D01*
X192500Y602367D01*
X192950Y602325D01*
X193350Y602200D01*
X193650Y602033D01*
X193900Y601783D01*
X194000Y601450D01*
G01Y604350D02*
X193900Y604017D01*
X193650Y603767D01*
X193350Y603600D01*
X192950Y603475D01*
X192500Y603433D01*
X192050Y603475D01*
X191650Y603600D01*
X191350Y603767D01*
X191100Y604017D01*
X191000Y604350D01*
X191100Y604683D01*
X191350Y604933D01*
X191650Y605100D01*
X192050Y605225D01*
X192500Y605267D01*
X192950Y605225D01*
X193350Y605100D01*
X193650Y604933D01*
X193900Y604683D01*
X194000Y604350D01*
G01X193000Y610267D02*
X196000D01*
Y611308D01*
X195850Y611642D01*
X195650Y611850D01*
X195250Y611933D01*
X194850Y611850D01*
X194600Y611600D01*
X194450Y611308D01*
Y610267D01*
G01Y611308D02*
X193000Y611933D01*
G01X193350Y613292D02*
X193100Y613583D01*
X193000Y613917D01*
X193100Y614250D01*
X193400Y614542D01*
X193850Y614750D01*
X194300Y614833D01*
X194850D01*
X195300Y614750D01*
X195700Y614542D01*
X195900Y614292D01*
X196000Y614000D01*
X195900Y613667D01*
X195700Y613417D01*
X195400Y613250D01*
X195000Y613167D01*
X194650Y613250D01*
X194300Y613458D01*
X194100Y613708D01*
X194050Y614000D01*
X194150Y614333D01*
X194400Y614583D01*
X194850Y614833D01*
G01X193350Y616192D02*
X193100Y616483D01*
X193000Y616817D01*
X193100Y617150D01*
X193400Y617442D01*
X193850Y617650D01*
X194300Y617733D01*
X194850D01*
X195300Y617650D01*
X195700Y617442D01*
X195900Y617192D01*
X196000Y616900D01*
X195900Y616567D01*
X195700Y616317D01*
X195400Y616150D01*
X195000Y616067D01*
X194650Y616150D01*
X194300Y616358D01*
X194100Y616608D01*
X194050Y616900D01*
X194150Y617233D01*
X194400Y617483D01*
X194850Y617733D01*
G01X193000Y627267D02*
X196000D01*
Y628308D01*
X195850Y628642D01*
X195650Y628850D01*
X195250Y628933D01*
X194850Y628850D01*
X194600Y628600D01*
X194450Y628308D01*
Y627267D01*
G01Y628308D02*
X193000Y628933D01*
G01X193350Y630292D02*
X193100Y630583D01*
X193000Y630917D01*
X193100Y631250D01*
X193400Y631542D01*
X193850Y631750D01*
X194300Y631833D01*
X194850D01*
X195300Y631750D01*
X195700Y631542D01*
X195900Y631292D01*
X196000Y631000D01*
X195900Y630667D01*
X195700Y630417D01*
X195400Y630250D01*
X195000Y630167D01*
X194650Y630250D01*
X194300Y630458D01*
X194100Y630708D01*
X194050Y631000D01*
X194150Y631333D01*
X194400Y631583D01*
X194850Y631833D01*
G01X193000Y633817D02*
X193650Y633900D01*
X194200Y634025D01*
X194700Y634192D01*
X195250Y634400D01*
X196000Y634733D01*
Y633067D01*
G01X193000Y618767D02*
X196000D01*
Y619808D01*
X195850Y620142D01*
X195650Y620350D01*
X195250Y620433D01*
X194850Y620350D01*
X194600Y620100D01*
X194450Y619808D01*
Y618767D01*
G01Y619808D02*
X193000Y620433D01*
G01X193350Y621792D02*
X193100Y622083D01*
X193000Y622417D01*
X193100Y622750D01*
X193400Y623042D01*
X193850Y623250D01*
X194300Y623333D01*
X194850D01*
X195300Y623250D01*
X195700Y623042D01*
X195900Y622792D01*
X196000Y622500D01*
X195900Y622167D01*
X195700Y621917D01*
X195400Y621750D01*
X195000Y621667D01*
X194650Y621750D01*
X194300Y621958D01*
X194100Y622208D01*
X194050Y622500D01*
X194150Y622833D01*
X194400Y623083D01*
X194850Y623333D01*
G01X193000Y625400D02*
X193050Y625692D01*
X193200Y626025D01*
X193450Y626233D01*
X193800Y626317D01*
X194150Y626233D01*
X194450Y625983D01*
X194600Y625608D01*
Y625192D01*
X194700Y624942D01*
X194950Y624733D01*
X195300Y624650D01*
X195650Y624775D01*
X195900Y625067D01*
X196000Y625400D01*
X195900Y625733D01*
X195650Y626025D01*
X195300Y626150D01*
X194950Y626067D01*
X194700Y625858D01*
X194600Y625608D01*
Y625192D01*
X194450Y624817D01*
X194150Y624567D01*
X193800Y624483D01*
X193450Y624567D01*
X193200Y624775D01*
X193050Y625108D01*
X193000Y625400D01*
G01X187000Y623817D02*
X184000D01*
Y625483D01*
G01Y628383D02*
Y626717D01*
X187000D01*
Y628383D01*
G01X185550Y627717D02*
Y626717D01*
G01X184000Y629533D02*
X187000D01*
Y630367D01*
X186850Y630700D01*
X186650Y630950D01*
X186350Y631158D01*
X186000Y631325D01*
X185500Y631367D01*
X185000Y631325D01*
X184650Y631158D01*
X184350Y630950D01*
X184150Y630700D01*
X184000Y630367D01*
Y629533D01*
G01Y633350D02*
X187000D01*
X186400Y632850D01*
G01X184000D02*
Y633850D01*
G01X190500Y648267D02*
X193500D01*
Y649308D01*
X193350Y649642D01*
X193150Y649850D01*
X192750Y649933D01*
X192350Y649850D01*
X192100Y649600D01*
X191950Y649308D01*
Y648267D01*
G01Y649308D02*
X190500Y649933D01*
G01X190850Y651292D02*
X190600Y651583D01*
X190500Y651917D01*
X190600Y652250D01*
X190900Y652542D01*
X191350Y652750D01*
X191800Y652833D01*
X192350D01*
X192800Y652750D01*
X193200Y652542D01*
X193400Y652292D01*
X193500Y652000D01*
X193400Y651667D01*
X193200Y651417D01*
X192900Y651250D01*
X192500Y651167D01*
X192150Y651250D01*
X191800Y651458D01*
X191600Y651708D01*
X191550Y652000D01*
X191650Y652333D01*
X191900Y652583D01*
X192350Y652833D01*
G01X190950Y653983D02*
X190700Y654233D01*
X190550Y654525D01*
X190500Y654900D01*
X190600Y655275D01*
X190800Y655567D01*
X191150Y655775D01*
X191550Y655817D01*
X191950Y655733D01*
X192200Y655525D01*
X192400Y655233D01*
X192450Y654942D01*
X192400Y654650D01*
X192200Y654275D01*
X193500Y654400D01*
Y655525D01*
G01X193000Y635767D02*
X196000D01*
Y636808D01*
X195850Y637142D01*
X195650Y637350D01*
X195250Y637433D01*
X194850Y637350D01*
X194600Y637100D01*
X194450Y636808D01*
Y635767D01*
G01Y636808D02*
X193000Y637433D01*
G01X193350Y638792D02*
X193100Y639083D01*
X193000Y639417D01*
X193100Y639750D01*
X193400Y640042D01*
X193850Y640250D01*
X194300Y640333D01*
X194850D01*
X195300Y640250D01*
X195700Y640042D01*
X195900Y639792D01*
X196000Y639500D01*
X195900Y639167D01*
X195700Y638917D01*
X195400Y638750D01*
X195000Y638667D01*
X194650Y638750D01*
X194300Y638958D01*
X194100Y639208D01*
X194050Y639500D01*
X194150Y639833D01*
X194400Y640083D01*
X194850Y640333D01*
G01X194250Y641608D02*
X194600Y641900D01*
X194800Y642150D01*
X194900Y642483D01*
X194800Y642775D01*
X194600Y642983D01*
X194300Y643150D01*
X193950Y643192D01*
X193650Y643150D01*
X193350Y642983D01*
X193100Y642733D01*
X193000Y642442D01*
X193100Y642108D01*
X193400Y641817D01*
X193850Y641650D01*
X194350Y641608D01*
X195000Y641692D01*
X195350Y641817D01*
X195700Y642025D01*
X195950Y642317D01*
X196000Y642608D01*
X195900Y642900D01*
X195650Y643108D01*
G01X214707Y49055D02*
X216207Y47555D01*
Y50555D01*
X214707Y49055D01*
G01X207683Y100600D02*
X207475Y100300D01*
X207225Y100100D01*
X206933Y100000D01*
X206600Y100100D01*
X206350Y100300D01*
X206100Y100600D01*
X206017Y101000D01*
Y103000D01*
G01X204867Y100450D02*
X204617Y100200D01*
X204325Y100050D01*
X203950Y100000D01*
X203575Y100100D01*
X203283Y100300D01*
X203075Y100650D01*
X203033Y101050D01*
X203117Y101450D01*
X203325Y101700D01*
X203617Y101900D01*
X203908Y101950D01*
X204200Y101900D01*
X204575Y101700D01*
X204450Y103000D01*
X203325D01*
G01X207550Y151217D02*
X207700Y150967D01*
X207800Y150675D01*
Y150342D01*
X207650Y149967D01*
X207400Y149675D01*
X207100Y149467D01*
X206600Y149300D01*
X206150Y149258D01*
X205700Y149342D01*
X205400Y149467D01*
X205100Y149717D01*
X204900Y150008D01*
X204800Y150300D01*
Y150592D01*
X204900Y150883D01*
X205050Y151133D01*
X205250Y151342D01*
G01Y152283D02*
X205000Y152533D01*
X204850Y152825D01*
X204800Y153200D01*
X204900Y153575D01*
X205100Y153867D01*
X205450Y154075D01*
X205850Y154117D01*
X206250Y154033D01*
X206500Y153825D01*
X206700Y153533D01*
X206750Y153242D01*
X206700Y152950D01*
X206500Y152575D01*
X207800Y152700D01*
Y153825D01*
G01X207300Y155308D02*
X207600Y155558D01*
X207750Y155850D01*
X207800Y156183D01*
X207700Y156600D01*
X207450Y156892D01*
X207150Y156975D01*
X206850Y156933D01*
X206600Y156767D01*
X206100Y155933D01*
X205750Y155558D01*
X205250Y155308D01*
X204800Y155225D01*
Y156975D01*
G01X203797Y156628D02*
Y150329D01*
X200647D01*
Y156628D01*
X203797D01*
G01X207550Y164217D02*
X207700Y163967D01*
X207800Y163675D01*
Y163342D01*
X207650Y162967D01*
X207400Y162675D01*
X207100Y162467D01*
X206600Y162300D01*
X206150Y162258D01*
X205700Y162342D01*
X205400Y162467D01*
X205100Y162717D01*
X204900Y163008D01*
X204800Y163300D01*
Y163592D01*
X204900Y163883D01*
X205050Y164133D01*
X205250Y164342D01*
G01Y165283D02*
X205000Y165533D01*
X204850Y165825D01*
X204800Y166200D01*
X204900Y166575D01*
X205100Y166867D01*
X205450Y167075D01*
X205850Y167117D01*
X206250Y167033D01*
X206500Y166825D01*
X206700Y166533D01*
X206750Y166242D01*
X206700Y165950D01*
X206500Y165575D01*
X207800Y165700D01*
Y166825D01*
G01Y169100D02*
X207700Y168767D01*
X207450Y168517D01*
X207150Y168350D01*
X206750Y168225D01*
X206300Y168183D01*
X205850Y168225D01*
X205450Y168350D01*
X205150Y168517D01*
X204900Y168767D01*
X204800Y169100D01*
X204900Y169433D01*
X205150Y169683D01*
X205450Y169850D01*
X205850Y169975D01*
X206300Y170017D01*
X206750Y169975D01*
X207150Y169850D01*
X207450Y169683D01*
X207700Y169433D01*
X207800Y169100D01*
G01X200647Y163935D02*
Y170234D01*
X203797D01*
Y163935D01*
X200647D01*
G01X203750Y505500D02*
X202917D01*
Y504600D01*
X203167Y504300D01*
X203458Y504100D01*
X203875Y504000D01*
X204292Y504100D01*
X204583Y504300D01*
X204833Y504600D01*
X205000Y504950D01*
X205083Y505350D01*
Y505700D01*
X205000Y506000D01*
X204833Y506350D01*
X204583Y506650D01*
X204333Y506850D01*
X204000Y507000D01*
X203708D01*
X203375Y506900D01*
X203125Y506700D01*
G01X199500Y515817D02*
X202500D01*
Y516858D01*
X202350Y517192D01*
X202150Y517400D01*
X201750Y517483D01*
X201350Y517400D01*
X201100Y517150D01*
X200950Y516858D01*
Y515817D01*
G01Y516858D02*
X199500Y517483D01*
G01Y519550D02*
X202500D01*
X201900Y519050D01*
G01X199500D02*
Y520050D01*
G01X202500Y522450D02*
X202400Y522117D01*
X202150Y521867D01*
X201850Y521700D01*
X201450Y521575D01*
X201000Y521533D01*
X200550Y521575D01*
X200150Y521700D01*
X199850Y521867D01*
X199600Y522117D01*
X199500Y522450D01*
X199600Y522783D01*
X199850Y523033D01*
X200150Y523200D01*
X200550Y523325D01*
X201000Y523367D01*
X201450Y523325D01*
X201850Y523200D01*
X202150Y523033D01*
X202400Y522783D01*
X202500Y522450D01*
G01X199950Y524433D02*
X199700Y524683D01*
X199550Y524975D01*
X199500Y525350D01*
X199600Y525725D01*
X199800Y526017D01*
X200150Y526225D01*
X200550Y526267D01*
X200950Y526183D01*
X201200Y525975D01*
X201400Y525683D01*
X201450Y525392D01*
X201400Y525100D01*
X201200Y524725D01*
X202500Y524850D01*
Y525975D01*
G01X207400Y506900D02*
X207450Y506567D01*
X207650Y506275D01*
X207950Y506025D01*
X208300Y505858D01*
X208700Y505775D01*
X209100D01*
X209500Y505858D01*
X209850Y506025D01*
X210150Y506275D01*
X210350Y506567D01*
X210400Y506900D01*
X210350Y507233D01*
X210150Y507525D01*
X209850Y507775D01*
X209500Y507942D01*
X209100Y508025D01*
X208700D01*
X208300Y507942D01*
X207950Y507775D01*
X207650Y507525D01*
X207450Y507233D01*
X207400Y506900D01*
G01X208200Y507233D02*
X207400Y507733D01*
G01X209900Y509008D02*
X210200Y509258D01*
X210350Y509550D01*
X210400Y509883D01*
X210300Y510300D01*
X210050Y510592D01*
X209750Y510675D01*
X209450Y510633D01*
X209200Y510467D01*
X208700Y509633D01*
X208350Y509258D01*
X207850Y509008D01*
X207400Y508925D01*
Y510675D01*
G01Y512700D02*
X210400D01*
X209800Y512200D01*
G01X207400D02*
Y513200D01*
G01X214817Y507550D02*
Y510550D01*
X213983D01*
X213650Y510400D01*
X213400Y510200D01*
X213192Y509900D01*
X213025Y509550D01*
X212983Y509050D01*
X213025Y508550D01*
X213192Y508200D01*
X213400Y507900D01*
X213650Y507700D01*
X213983Y507550D01*
X214817D01*
G01X204775Y513950D02*
X204442Y513700D01*
X204067Y513550D01*
X203733D01*
X203400Y513700D01*
X203150Y513950D01*
X203025Y514300D01*
X203108Y514650D01*
X203317Y514950D01*
X203692Y515150D01*
X204192Y515250D01*
X204483Y515450D01*
X204608Y515800D01*
X204525Y516150D01*
X204317Y516400D01*
X204025Y516550D01*
X203733D01*
X203442Y516450D01*
X203192Y516200D01*
G01X207400Y521900D02*
X207450Y521567D01*
X207650Y521275D01*
X207950Y521025D01*
X208300Y520858D01*
X208700Y520775D01*
X209100D01*
X209500Y520858D01*
X209850Y521025D01*
X210150Y521275D01*
X210350Y521567D01*
X210400Y521900D01*
X210350Y522233D01*
X210150Y522525D01*
X209850Y522775D01*
X209500Y522942D01*
X209100Y523025D01*
X208700D01*
X208300Y522942D01*
X207950Y522775D01*
X207650Y522525D01*
X207450Y522233D01*
X207400Y521900D01*
G01X208200Y522233D02*
X207400Y522733D01*
G01Y524800D02*
X210400D01*
X209800Y524300D01*
G01X207400D02*
Y525300D01*
G01Y527700D02*
X207450Y527992D01*
X207600Y528325D01*
X207850Y528533D01*
X208200Y528617D01*
X208550Y528533D01*
X208850Y528283D01*
X209000Y527908D01*
Y527492D01*
X209100Y527242D01*
X209350Y527033D01*
X209700Y526950D01*
X210050Y527075D01*
X210300Y527367D01*
X210400Y527700D01*
X210300Y528033D01*
X210050Y528325D01*
X209700Y528450D01*
X209350Y528367D01*
X209100Y528158D01*
X209000Y527908D01*
Y527492D01*
X208850Y527117D01*
X208550Y526867D01*
X208200Y526783D01*
X207850Y526867D01*
X207600Y527075D01*
X207450Y527408D01*
X207400Y527700D01*
G01X203750Y520000D02*
X202917D01*
Y519100D01*
X203167Y518800D01*
X203458Y518600D01*
X203875Y518500D01*
X204292Y518600D01*
X204583Y518800D01*
X204833Y519100D01*
X205000Y519450D01*
X205083Y519850D01*
Y520200D01*
X205000Y520500D01*
X204833Y520850D01*
X204583Y521150D01*
X204333Y521350D01*
X204000Y521500D01*
X203708D01*
X203375Y521400D01*
X203125Y521200D01*
G01X214817Y522550D02*
Y525550D01*
X213983D01*
X213650Y525400D01*
X213400Y525200D01*
X213192Y524900D01*
X213025Y524550D01*
X212983Y524050D01*
X213025Y523550D01*
X213192Y523200D01*
X213400Y522900D01*
X213650Y522700D01*
X213983Y522550D01*
X214817D01*
G01X199500Y530317D02*
X202500D01*
Y531358D01*
X202350Y531692D01*
X202150Y531900D01*
X201750Y531983D01*
X201350Y531900D01*
X201100Y531650D01*
X200950Y531358D01*
Y530317D01*
G01Y531358D02*
X199500Y531983D01*
G01Y534050D02*
X202500D01*
X201900Y533550D01*
G01X199500D02*
Y534550D01*
G01X202500Y536950D02*
X202400Y536617D01*
X202150Y536367D01*
X201850Y536200D01*
X201450Y536075D01*
X201000Y536033D01*
X200550Y536075D01*
X200150Y536200D01*
X199850Y536367D01*
X199600Y536617D01*
X199500Y536950D01*
X199600Y537283D01*
X199850Y537533D01*
X200150Y537700D01*
X200550Y537825D01*
X201000Y537867D01*
X201450Y537825D01*
X201850Y537700D01*
X202150Y537533D01*
X202400Y537283D01*
X202500Y536950D01*
G01X202000Y539058D02*
X202300Y539308D01*
X202450Y539600D01*
X202500Y539933D01*
X202400Y540350D01*
X202150Y540642D01*
X201850Y540725D01*
X201550Y540683D01*
X201300Y540517D01*
X200800Y539683D01*
X200450Y539308D01*
X199950Y539058D01*
X199500Y538975D01*
Y540725D01*
G01X207400Y536900D02*
X207450Y536567D01*
X207650Y536275D01*
X207950Y536025D01*
X208300Y535858D01*
X208700Y535775D01*
X209100D01*
X209500Y535858D01*
X209850Y536025D01*
X210150Y536275D01*
X210350Y536567D01*
X210400Y536900D01*
X210350Y537233D01*
X210150Y537525D01*
X209850Y537775D01*
X209500Y537942D01*
X209100Y538025D01*
X208700D01*
X208300Y537942D01*
X207950Y537775D01*
X207650Y537525D01*
X207450Y537233D01*
X207400Y536900D01*
G01X208200Y537233D02*
X207400Y537733D01*
G01Y539800D02*
X210400D01*
X209800Y539300D01*
G01X207400D02*
Y540300D01*
G01X208650Y541908D02*
X209000Y542200D01*
X209200Y542450D01*
X209300Y542783D01*
X209200Y543075D01*
X209000Y543283D01*
X208700Y543450D01*
X208350Y543492D01*
X208050Y543450D01*
X207750Y543283D01*
X207500Y543033D01*
X207400Y542742D01*
X207500Y542408D01*
X207800Y542117D01*
X208250Y541950D01*
X208750Y541908D01*
X209400Y541992D01*
X209750Y542117D01*
X210100Y542325D01*
X210350Y542617D01*
X210400Y542908D01*
X210300Y543200D01*
X210050Y543408D01*
G01X203750Y535000D02*
X202917D01*
Y534100D01*
X203167Y533800D01*
X203458Y533600D01*
X203875Y533500D01*
X204292Y533600D01*
X204583Y533800D01*
X204833Y534100D01*
X205000Y534450D01*
X205083Y534850D01*
Y535200D01*
X205000Y535500D01*
X204833Y535850D01*
X204583Y536150D01*
X204333Y536350D01*
X204000Y536500D01*
X203708D01*
X203375Y536400D01*
X203125Y536200D01*
G01X214817Y537550D02*
Y540550D01*
X213983D01*
X213650Y540400D01*
X213400Y540200D01*
X213192Y539900D01*
X213025Y539550D01*
X212983Y539050D01*
X213025Y538550D01*
X213192Y538200D01*
X213400Y537900D01*
X213650Y537700D01*
X213983Y537550D01*
X214817D01*
G01X204775Y543950D02*
X204442Y543700D01*
X204067Y543550D01*
X203733D01*
X203400Y543700D01*
X203150Y543950D01*
X203025Y544300D01*
X203108Y544650D01*
X203317Y544950D01*
X203692Y545150D01*
X204192Y545250D01*
X204483Y545450D01*
X204608Y545800D01*
X204525Y546150D01*
X204317Y546400D01*
X204025Y546550D01*
X203733D01*
X203442Y546450D01*
X203192Y546200D01*
G01X204775Y528950D02*
X204442Y528700D01*
X204067Y528550D01*
X203733D01*
X203400Y528700D01*
X203150Y528950D01*
X203025Y529300D01*
X203108Y529650D01*
X203317Y529950D01*
X203692Y530150D01*
X204192Y530250D01*
X204483Y530450D01*
X204608Y530800D01*
X204525Y531150D01*
X204317Y531400D01*
X204025Y531550D01*
X203733D01*
X203442Y531450D01*
X203192Y531200D01*
G01X208904Y552615D02*
Y555615D01*
X207321D01*
G01X207904Y554165D02*
X208904D01*
G01X204879Y554215D02*
X204713Y554365D01*
X204588Y554615D01*
X204504Y554965D01*
X204588Y555265D01*
X204754Y555465D01*
X205046Y555615D01*
X206171D01*
Y552615D01*
X204796D01*
X204504Y552815D01*
X204338Y553115D01*
X204254Y553465D01*
X204338Y553815D01*
X204588Y554115D01*
X204879Y554215D01*
X206171D01*
G01X201813Y552615D02*
Y555615D01*
X203354Y553465D01*
X201271D01*
G01X212020Y557195D02*
X199420D01*
Y550895D01*
X212020D01*
Y557195D01*
G01X197250Y607500D02*
X196417D01*
Y606600D01*
X196667Y606300D01*
X196958Y606100D01*
X197375Y606000D01*
X197792Y606100D01*
X198083Y606300D01*
X198333Y606600D01*
X198500Y606950D01*
X198583Y607350D01*
Y607700D01*
X198500Y608000D01*
X198333Y608350D01*
X198083Y608650D01*
X197833Y608850D01*
X197500Y609000D01*
X197208D01*
X196875Y608900D01*
X196625Y608700D01*
G01X201400Y608900D02*
X201450Y608567D01*
X201650Y608275D01*
X201950Y608025D01*
X202300Y607858D01*
X202700Y607775D01*
X203100D01*
X203500Y607858D01*
X203850Y608025D01*
X204150Y608275D01*
X204350Y608567D01*
X204400Y608900D01*
X204350Y609233D01*
X204150Y609525D01*
X203850Y609775D01*
X203500Y609942D01*
X203100Y610025D01*
X202700D01*
X202300Y609942D01*
X201950Y609775D01*
X201650Y609525D01*
X201450Y609233D01*
X201400Y608900D01*
G01X202200Y609233D02*
X201400Y609733D01*
G01Y611800D02*
X204400D01*
X203800Y611300D01*
G01X201400D02*
Y612300D01*
G01Y615200D02*
X204400D01*
X202250Y613658D01*
Y615742D01*
G01X209317Y609550D02*
Y612550D01*
X208483D01*
X208150Y612400D01*
X207900Y612200D01*
X207692Y611900D01*
X207525Y611550D01*
X207483Y611050D01*
X207525Y610550D01*
X207692Y610200D01*
X207900Y609900D01*
X208150Y609700D01*
X208483Y609550D01*
X209317D01*
G01X198775Y615450D02*
X198442Y615200D01*
X198067Y615050D01*
X197733D01*
X197400Y615200D01*
X197150Y615450D01*
X197025Y615800D01*
X197108Y616150D01*
X197317Y616450D01*
X197692Y616650D01*
X198192Y616750D01*
X198483Y616950D01*
X198608Y617300D01*
X198525Y617650D01*
X198317Y617900D01*
X198025Y618050D01*
X197733D01*
X197442Y617950D01*
X197192Y617700D01*
G01X201400Y623900D02*
X201450Y623567D01*
X201650Y623275D01*
X201950Y623025D01*
X202300Y622858D01*
X202700Y622775D01*
X203100D01*
X203500Y622858D01*
X203850Y623025D01*
X204150Y623275D01*
X204350Y623567D01*
X204400Y623900D01*
X204350Y624233D01*
X204150Y624525D01*
X203850Y624775D01*
X203500Y624942D01*
X203100Y625025D01*
X202700D01*
X202300Y624942D01*
X201950Y624775D01*
X201650Y624525D01*
X201450Y624233D01*
X201400Y623900D01*
G01X202200Y624233D02*
X201400Y624733D01*
G01Y626800D02*
X204400D01*
X203800Y626300D01*
G01X201400D02*
Y627300D01*
G01X202000Y628783D02*
X201650Y629033D01*
X201450Y629367D01*
X201400Y629742D01*
X201450Y630075D01*
X201700Y630408D01*
X202000Y630617D01*
X202300Y630658D01*
X202650Y630575D01*
X202900Y630283D01*
X203000Y629992D01*
Y629617D01*
G01Y629992D02*
X203150Y630242D01*
X203400Y630450D01*
X203700Y630533D01*
X204000Y630450D01*
X204250Y630242D01*
X204400Y629867D01*
X204350Y629492D01*
X204150Y629117D01*
G01X197250Y622000D02*
X196417D01*
Y621100D01*
X196667Y620800D01*
X196958Y620600D01*
X197375Y620500D01*
X197792Y620600D01*
X198083Y620800D01*
X198333Y621100D01*
X198500Y621450D01*
X198583Y621850D01*
Y622200D01*
X198500Y622500D01*
X198333Y622850D01*
X198083Y623150D01*
X197833Y623350D01*
X197500Y623500D01*
X197208D01*
X196875Y623400D01*
X196625Y623200D01*
G01X209317Y624550D02*
Y627550D01*
X208483D01*
X208150Y627400D01*
X207900Y627200D01*
X207692Y626900D01*
X207525Y626550D01*
X207483Y626050D01*
X207525Y625550D01*
X207692Y625200D01*
X207900Y624900D01*
X208150Y624700D01*
X208483Y624550D01*
X209317D01*
G01X198775Y630450D02*
X198442Y630200D01*
X198067Y630050D01*
X197733D01*
X197400Y630200D01*
X197150Y630450D01*
X197025Y630800D01*
X197108Y631150D01*
X197317Y631450D01*
X197692Y631650D01*
X198192Y631750D01*
X198483Y631950D01*
X198608Y632300D01*
X198525Y632650D01*
X198317Y632900D01*
X198025Y633050D01*
X197733D01*
X197442Y632950D01*
X197192Y632700D01*
G01X201400Y638900D02*
X201450Y638567D01*
X201650Y638275D01*
X201950Y638025D01*
X202300Y637858D01*
X202700Y637775D01*
X203100D01*
X203500Y637858D01*
X203850Y638025D01*
X204150Y638275D01*
X204350Y638567D01*
X204400Y638900D01*
X204350Y639233D01*
X204150Y639525D01*
X203850Y639775D01*
X203500Y639942D01*
X203100Y640025D01*
X202700D01*
X202300Y639942D01*
X201950Y639775D01*
X201650Y639525D01*
X201450Y639233D01*
X201400Y638900D01*
G01X202200Y639233D02*
X201400Y639733D01*
G01Y641800D02*
X204400D01*
X203800Y641300D01*
G01X201400D02*
Y642300D01*
G01X203900Y643908D02*
X204200Y644158D01*
X204350Y644450D01*
X204400Y644783D01*
X204300Y645200D01*
X204050Y645492D01*
X203750Y645575D01*
X203450Y645533D01*
X203200Y645367D01*
X202700Y644533D01*
X202350Y644158D01*
X201850Y643908D01*
X201400Y643825D01*
Y645575D01*
G01X197250Y637500D02*
X196417D01*
Y636600D01*
X196667Y636300D01*
X196958Y636100D01*
X197375Y636000D01*
X197792Y636100D01*
X198083Y636300D01*
X198333Y636600D01*
X198500Y636950D01*
X198583Y637350D01*
Y637700D01*
X198500Y638000D01*
X198333Y638350D01*
X198083Y638650D01*
X197833Y638850D01*
X197500Y639000D01*
X197208D01*
X196875Y638900D01*
X196625Y638700D01*
G01X209317Y639550D02*
Y642550D01*
X208483D01*
X208150Y642400D01*
X207900Y642200D01*
X207692Y641900D01*
X207525Y641550D01*
X207483Y641050D01*
X207525Y640550D01*
X207692Y640200D01*
X207900Y639900D01*
X208150Y639700D01*
X208483Y639550D01*
X209317D01*
G01X198775Y645450D02*
X198442Y645200D01*
X198067Y645050D01*
X197733D01*
X197400Y645200D01*
X197150Y645450D01*
X197025Y645800D01*
X197108Y646150D01*
X197317Y646450D01*
X197692Y646650D01*
X198192Y646750D01*
X198483Y646950D01*
X198608Y647300D01*
X198525Y647650D01*
X198317Y647900D01*
X198025Y648050D01*
X197733D01*
X197442Y647950D01*
X197192Y647700D01*
G54D12*
G01X50647Y409675D02*
Y407175D01*
X49147D01*
X50647Y405675D01*
X52147Y407175D01*
X50647D01*
G01X49147Y405675D02*
X50647D01*
Y403675D01*
G01Y405675D02*
X52147D01*
G01X173495Y591485D02*
Y661524D01*
X188653D01*
Y591485D01*
X173495D01*
G01X178515Y606382D02*
X177334Y605202D01*
Y607563D01*
X178515Y606382D01*
G01X179105Y602489D02*
Y606426D01*
X183043D01*
Y602489D01*
X179105D01*
G01X180165Y603430D02*
Y602248D01*
X179771Y602642D01*
X180558D01*
X180165Y602248D01*
G01X181346Y604020D02*
X182133Y603233D01*
G01X179771Y605595D02*
X180558Y604807D01*
X179771Y604020D01*
X181346D01*
Y605595D01*
X180558Y604807D01*
G01X181739Y603430D02*
Y602248D01*
X181346Y602642D01*
X182133D01*
X181739Y602248D01*
G01X179015Y622091D02*
X177834Y620911D01*
Y623272D01*
X179015Y622091D01*
G01X179105Y618198D02*
Y622135D01*
X183043D01*
Y618198D01*
X179105D01*
G01X180306Y619233D02*
Y618052D01*
X179913Y618446D01*
X180700D01*
X180306Y618052D01*
G01X181881Y619233D02*
Y618052D01*
X181487Y618446D01*
X182275D01*
X181881Y618052D01*
G01X181487Y619824D02*
X182275Y619036D01*
G01X179913Y621398D02*
X180700Y620611D01*
X179913Y619824D01*
X181487D01*
Y621398D01*
X180700Y620611D01*
G01X178515Y637800D02*
X177334Y636618D01*
Y638981D01*
X178515Y637800D01*
G01X179105Y633906D02*
Y637843D01*
X183043D01*
Y633906D01*
X179105D01*
G01X180161Y634930D02*
Y633748D01*
X179767Y634142D01*
X180554D01*
X180161Y633748D01*
G01X181735Y634930D02*
Y633748D01*
X181342Y634142D01*
X182129D01*
X181735Y633748D01*
G01X179767Y637095D02*
X180554Y636307D01*
X179767Y635520D01*
X181342D01*
Y637095D01*
X180554Y636307D01*
G01X181342Y635520D02*
X182129Y634733D01*
G01X178515Y653509D02*
X177334Y652328D01*
Y654689D01*
X178515Y653509D01*
G01X179105Y649614D02*
Y653552D01*
X183043D01*
Y649614D01*
X179105D01*
G01X180409Y650430D02*
Y649248D01*
X180015Y649642D01*
X180802D01*
X180409Y649248D01*
G01X181983Y650430D02*
Y649248D01*
X181590Y649642D01*
X182377D01*
X181983Y649248D01*
G01X181590Y651020D02*
X182377Y650233D01*
G01X180015Y652595D02*
X180802Y651807D01*
X180015Y651020D01*
X181590D01*
Y652595D01*
X180802Y651807D01*
G01X184404Y661524D02*
Y666420D01*
G03X178498I-2953J1D01*
G01Y661524D01*
G01X-585779Y-292348D02*
Y876943D01*
G01Y-292348D02*
X1067765D01*
G01X-585779Y876943D02*
X1067765D01*
G01X27813Y-1D02*
X207912D01*
G03X219998Y17179I-6738J17582D01*
G01Y187984D01*
G03X217352Y194374I-7384J686D01*
G02X217353Y250227I13694J27926D01*
G03X220000Y254435I-2156J4293D01*
G01Y654499D01*
X216000Y658499D01*
X4000D01*
X0Y654499D01*
Y254414D01*
G03X2624Y250219I4819J96D01*
G02X2612Y194375I-13702J-27919D01*
G03X0Y188068I6328J-6316D01*
G01Y17158D01*
G03X27813Y-1I27470J13406D01*
G01X0Y82613D02*
Y72613D01*
G01Y102613D02*
Y112613D01*
G01Y444456D02*
Y434456D01*
G01Y464456D02*
Y474456D01*
G01X23533Y-39133D02*
X27700Y-29133D01*
X31867Y-39133D01*
G01X30367Y-35634D02*
X25033D01*
G01X35700Y-37800D02*
X37033Y-38634D01*
X38533Y-39133D01*
X39867D01*
X41200Y-38634D01*
X42200Y-37800D01*
X42700Y-36633D01*
X42367Y-35467D01*
X41533Y-34467D01*
X40033Y-33800D01*
X38033Y-33467D01*
X36867Y-32800D01*
X36366Y-31633D01*
X36700Y-30467D01*
X37533Y-29634D01*
X38700Y-29133D01*
X39867D01*
X41033Y-29467D01*
X42034Y-30300D01*
G01X47200Y-37800D02*
X48533Y-38634D01*
X50033Y-39133D01*
X51367D01*
X52700Y-38634D01*
X53700Y-37800D01*
X54200Y-36633D01*
X53867Y-35467D01*
X53033Y-34467D01*
X51533Y-33800D01*
X49533Y-33467D01*
X48367Y-32800D01*
X47866Y-31633D01*
X48200Y-30467D01*
X49033Y-29634D01*
X50200Y-29133D01*
X51367D01*
X52533Y-29467D01*
X53534Y-30300D01*
G01X65533Y-39133D02*
X58867D01*
Y-29133D01*
X65533D01*
G01X62867Y-33967D02*
X58867D01*
G01X69366Y-39133D02*
Y-29133D01*
X73700Y-37467D01*
X78034Y-29133D01*
Y-39133D01*
G01X86533Y-33800D02*
X87200Y-33300D01*
X87700Y-32467D01*
X88034Y-31300D01*
X87700Y-30300D01*
X87033Y-29634D01*
X85867Y-29133D01*
X81367D01*
Y-39133D01*
X86867D01*
X88034Y-38467D01*
X88700Y-37467D01*
X89033Y-36300D01*
X88700Y-35134D01*
X87700Y-34134D01*
X86533Y-33800D01*
X81367D01*
G01X93367Y-29133D02*
Y-39133D01*
X100033D01*
G01X108200D02*
Y-34633D01*
X104867Y-29133D01*
G01X111533D02*
X108200Y-34633D01*
G01X132533Y-33800D02*
X133200Y-33300D01*
X133700Y-32467D01*
X134034Y-31300D01*
X133700Y-30300D01*
X133033Y-29634D01*
X131867Y-29133D01*
X127367D01*
Y-39133D01*
X132867D01*
X134034Y-38467D01*
X134700Y-37467D01*
X135033Y-36300D01*
X134700Y-35134D01*
X133700Y-34134D01*
X132533Y-33800D01*
X127367D01*
G01X142700Y-39133D02*
X141366Y-38967D01*
X140200Y-38300D01*
X139200Y-37300D01*
X138533Y-36133D01*
X138200Y-34800D01*
Y-33467D01*
X138533Y-32133D01*
X139200Y-30967D01*
X140200Y-29967D01*
X141366Y-29300D01*
X142700Y-29133D01*
X144033Y-29300D01*
X145200Y-29967D01*
X146200Y-30967D01*
X146867Y-32133D01*
X147200Y-33467D01*
Y-34800D01*
X146867Y-36133D01*
X146200Y-37300D01*
X145200Y-38300D01*
X144033Y-38967D01*
X142700Y-39133D01*
G01X154200Y-29133D02*
Y-39133D01*
G01X150367Y-29133D02*
X158033D01*
G01X165700D02*
Y-39133D01*
G01X161867Y-29133D02*
X169533D01*
G01X177200Y-39133D02*
X175866Y-38967D01*
X174700Y-38300D01*
X173700Y-37300D01*
X173033Y-36133D01*
X172700Y-34800D01*
Y-33467D01*
X173033Y-32133D01*
X173700Y-30967D01*
X174700Y-29967D01*
X175866Y-29300D01*
X177200Y-29133D01*
X178533Y-29300D01*
X179700Y-29967D01*
X180700Y-30967D01*
X181367Y-32133D01*
X181700Y-33467D01*
Y-34800D01*
X181367Y-36133D01*
X180700Y-37300D01*
X179700Y-38300D01*
X178533Y-38967D01*
X177200Y-39133D01*
G01X184366D02*
Y-29133D01*
X188700Y-37467D01*
X193034Y-29133D01*
Y-39133D01*
G01X55587Y47785D02*
X46387D01*
Y53385D01*
X55587D01*
Y47785D01*
G01X72987D02*
X63787D01*
Y53385D01*
X72987D01*
Y47785D01*
G01X159098Y330699D02*
X180200D01*
Y307077D01*
X159098D01*
Y330699D01*
G01X181660Y625872D02*
X183493Y627045D01*
G01X183827Y626458D02*
X181327D01*
G01X181660Y627045D02*
X183493Y625872D01*
G01X182577Y625658D02*
Y627258D01*
G01X219998Y82581D02*
Y72581D01*
G01Y102581D02*
Y112581D01*
G01X220000Y446466D02*
Y436466D01*
G01Y466466D02*
Y476466D01*
G01X537471Y-272324D02*
X1047708D01*
G01X537471Y-106970D02*
Y-272324D01*
G01X538489Y-216206D02*
X736422D01*
G01X537471Y-217206D02*
X1047708D01*
G01X538489Y-107151D02*
Y-216206D01*
G01Y-200458D02*
X736422D01*
G01X538489Y-181560D02*
X736422D01*
G01X538489Y-162662D02*
X736422D01*
G01X538489Y-143765D02*
X736422D01*
G01X538489Y-124867D02*
X736422D01*
G01X538489Y-107151D02*
X736422D01*
G01X537471Y-106970D02*
X1047708D01*
G01X561914Y-107151D02*
Y-216206D01*
G01X661914Y-107151D02*
Y-216206D01*
G01X701284Y-107151D02*
Y-216206D01*
G01X736422Y-107151D02*
Y-216206D01*
G01X737471Y-106970D02*
Y-217206D01*
G01Y-134529D02*
X1047708D01*
G01X837471Y-106970D02*
Y-272324D01*
G01Y-244765D02*
X1047708D01*
G01X837471Y-189647D02*
X1047708D01*
G01X937471Y-217206D02*
Y-272324D01*
G01Y-106970D02*
Y-134529D01*
G01X1016212Y-244765D02*
Y-272324D01*
G01X1047708Y-106970D02*
Y-272324D01*
G01X1067765Y-292348D02*
Y876943D01*
G54D13*
G01X17450Y62500D02*
X7450D01*
Y42500D01*
X17450D01*
Y55500D01*
X15450Y57100D01*
X17450Y58900D01*
Y62500D01*
G54D14*
G01X134842Y8466D02*
X133661D01*
Y10828D01*
X134842D01*
Y8466D01*
G54D15*
G01X112742Y554410D02*
Y550473D01*
X110773D01*
Y554410D01*
X112742D01*
G01X103107Y553157D02*
X99170D01*
Y555126D01*
X103107D01*
Y553157D01*
G01X108262Y554410D02*
Y550473D01*
X106293D01*
Y554410D01*
X108262D01*
G01X126468Y29101D02*
X122532D01*
Y31069D01*
X126468D01*
Y29101D01*
G01X122381Y550496D02*
Y546559D01*
X120412D01*
Y550496D01*
X122381D01*
G01X117237Y554416D02*
Y550479D01*
X115268D01*
Y554416D01*
X117237D01*
G01X140498Y351016D02*
X136561D01*
Y352984D01*
X140498D01*
Y351016D01*
G01X191016Y606032D02*
Y609969D01*
X192984D01*
Y606032D01*
X191016D01*
G01Y613032D02*
Y616968D01*
X192984D01*
Y613032D01*
X191016D01*
G01X192984Y624968D02*
Y621032D01*
X191016D01*
Y624968D01*
X192984D01*
G01X191016Y628032D02*
Y631969D01*
X192984D01*
Y628032D01*
X191016D01*
G01Y643031D02*
Y646968D01*
X192984D01*
Y643031D01*
X191016D01*
G01Y636032D02*
Y639969D01*
X192984D01*
Y636032D01*
X191016D01*
G01X197016Y504031D02*
Y507969D01*
X198984D01*
Y504031D01*
X197016D01*
G01Y511032D02*
Y514969D01*
X198984D01*
Y511032D01*
X197016D01*
G01X198984Y522969D02*
Y519032D01*
X197016D01*
Y522969D01*
X198984D01*
G01X197016Y541032D02*
Y544968D01*
X198984D01*
Y541032D01*
X197016D01*
G01Y526031D02*
Y529968D01*
X198984D01*
Y526031D01*
X197016D01*
G01Y534032D02*
Y537968D01*
X198984D01*
Y534032D01*
X197016D01*
G54D16*
G01X141536Y25628D02*
Y13424D01*
X135630D01*
Y25628D01*
X141536D01*
G01X205447Y503698D02*
Y515902D01*
X211353D01*
Y503698D01*
X205447D01*
G01Y518698D02*
Y530902D01*
X211353D01*
Y518698D01*
X205447D01*
G01Y533698D02*
Y545902D01*
X211353D01*
Y533698D01*
X205447D01*
G01X199447Y605698D02*
Y617902D01*
X205353D01*
Y605698D01*
X199447D01*
G01Y620698D02*
Y632902D01*
X205353D01*
Y620698D01*
X199447D01*
G01Y635698D02*
Y647902D01*
X205353D01*
Y635698D01*
X199447D01*
G54D17*
G01X53657Y415735D02*
Y397615D01*
X64638D01*
Y415735D01*
X53657D01*
G01X134658Y273835D02*
X146617D01*
Y279355D01*
X134658D01*
Y273835D01*
G54D18*
G01X103684Y350290D02*
Y285880D01*
X50691D01*
Y350290D01*
X103684D01*
G01X97877Y411736D02*
Y437720D01*
X71892D01*
Y411736D01*
X97877D01*
G54D19*
G01X-585779Y-107703D02*
X-566094D01*
G01X-585779Y92297D02*
X-566094D01*
G01X-585779Y492297D02*
X-566094D01*
G01X-585779Y692297D02*
X-566094D01*
G01Y-272663D02*
Y857258D01*
G01Y-272663D02*
X1048080D01*
G01X-566094Y857258D02*
X1048080D01*
G01X-359007Y876943D02*
Y857258D01*
G01X-159007Y-292348D02*
Y-272663D01*
G01Y876943D02*
Y857258D01*
G01X40993Y-292348D02*
Y-272663D01*
G01Y876943D02*
Y857258D01*
G01X238004Y-272663D02*
G03X243982I2989J0D01*
G01D02*
G03X238004I-2989J0D01*
G01Y857258D02*
G03X243982I2989J0D01*
G01D02*
G03X238004I-2989J0D01*
G01X440993Y-292348D02*
Y-272663D01*
G01Y876943D02*
Y857258D01*
G01X640993Y-292348D02*
Y-272663D01*
G01Y876943D02*
Y857258D01*
G01X840993Y-292348D02*
Y-272663D01*
G01Y876943D02*
Y857258D01*
G01X1048080Y-272663D02*
Y857258D01*
G01X1067765Y-107703D02*
X1048080D01*
G01X1067765Y92297D02*
X1048080D01*
G01X1045090Y292297D02*
G03X1051069I2989J0D01*
G01D02*
G03X1045090I-2989J0D01*
G01X1067765Y492297D02*
X1048080D01*
G01X1067765Y692297D02*
X1048080D01*
M02*
