G04 ================== begin FILE IDENTIFICATION RECORD ==================*
G04 Layout Name:  CONTROLLER_REV_B-08042023.brd*
G04 Film Name:    OC - FEMA - CNTRLR-v1-Rev-C-AST.gbr*
G04 File Format:  Gerber RS274X*
G04 File Origin:  Cadence Allegro 17.2-061*
G04 Origin Date:  Sun Apr 09 12:44:52 2023*
G04 *
G04 Layer:  DRAWING FORMAT/TITLE_DATA1*
G04 Layer:  BOARD GEOMETRY/ASSEMBLY_TOP*
G04 Layer:  REF DES/ASSEMBLY_TOP*
G04 Layer:  PACKAGE GEOMETRY/ASSEMBLY_TOP*
G04 Layer:  DRAWING FORMAT/ASPR*
G04 Layer:  DRAWING FORMAT/FILM_LABEL_OUTLINE*
G04 Layer:  BOARD GEOMETRY/OUTLINE*
G04 *
G04 Offset:    (0.000 0.000)*
G04 Mirror:    No*
G04 Mode:      Positive*
G04 Rotation:  0*
G04 FullContactRelief:  No*
G04 UndefLineWidth:     6.000*
G04 ================== end FILE IDENTIFICATION RECORD ====================*
%FSLAX55Y55*MOIN*%
%IR0*IPPOS*OFA0.00000B0.00000*MIA0B0*SFA1.00000B1.00000*%
%ADD10C,.005*%
%ADD11C,.006*%
%ADD12C,.008*%
%ADD13C,.002008*%
%ADD14C,.004016*%
%ADD15C,.00591*%
%ADD16C,.005902*%
%ADD17C,.001969*%
%ADD18C,.007874*%
%ADD19C,.019685*%
G75*
%LPD*%
G75*
G54D10*
G01X0Y149284D02*
Y109903D01*
G01X9800Y126105D02*
X10100Y126314D01*
X10300Y126564D01*
X10400Y126855D01*
X10300Y127189D01*
X10100Y127439D01*
X9800Y127689D01*
X9400Y127772D01*
X7400D01*
G01X7900Y129047D02*
X7600Y129297D01*
X7450Y129589D01*
X7400Y129922D01*
X7500Y130339D01*
X7750Y130630D01*
X8050Y130714D01*
X8350Y130672D01*
X8600Y130505D01*
X9100Y129672D01*
X9450Y129297D01*
X9950Y129047D01*
X10400Y128964D01*
Y130714D01*
G01X-2750Y144753D02*
Y114434D01*
X19290D01*
Y144753D01*
X-2750D01*
G01X11108Y485800D02*
Y488800D01*
X12692D01*
G01X12108Y487350D02*
X11108D01*
G01X15133Y487400D02*
X15300Y487550D01*
X15425Y487800D01*
X15508Y488150D01*
X15425Y488450D01*
X15258Y488650D01*
X14967Y488800D01*
X13842D01*
Y485800D01*
X15217D01*
X15508Y486000D01*
X15675Y486300D01*
X15758Y486650D01*
X15675Y487000D01*
X15425Y487300D01*
X15133Y487400D01*
X13842D01*
G01X16908Y488300D02*
X17158Y488600D01*
X17450Y488750D01*
X17783Y488800D01*
X18200Y488700D01*
X18492Y488450D01*
X18575Y488150D01*
X18533Y487850D01*
X18367Y487600D01*
X17533Y487100D01*
X17158Y486750D01*
X16908Y486250D01*
X16825Y485800D01*
X18575D01*
G01X20867Y484195D02*
X8267D01*
Y490495D01*
X20867D01*
Y484195D01*
G01X32239Y502275D02*
X8223D01*
Y522354D01*
X32239D01*
Y502275D01*
G01X32335Y528065D02*
X8320D01*
Y548144D01*
X32335D01*
Y528065D01*
G01X2200Y614000D02*
Y611000D01*
G01X1242Y614000D02*
X3158D01*
G01X4267Y611000D02*
Y614000D01*
X5267D01*
X5600Y613850D01*
X5850Y613500D01*
X5933Y613100D01*
X5850Y612700D01*
X5642Y612400D01*
X5267Y612250D01*
X4267D01*
G01X8000Y611000D02*
Y614000D01*
X7500Y613400D01*
G01Y611000D02*
X8500D01*
G01X10900Y614000D02*
X10567Y613900D01*
X10317Y613650D01*
X10150Y613350D01*
X10025Y612950D01*
X9983Y612500D01*
X10025Y612050D01*
X10150Y611650D01*
X10317Y611350D01*
X10567Y611100D01*
X10900Y611000D01*
X11233Y611100D01*
X11483Y611350D01*
X11650Y611650D01*
X11775Y612050D01*
X11817Y612500D01*
X11775Y612950D01*
X11650Y613350D01*
X11483Y613650D01*
X11233Y613900D01*
X10900Y614000D01*
G01X13008Y612250D02*
X13300Y612600D01*
X13550Y612800D01*
X13883Y612900D01*
X14175Y612800D01*
X14383Y612600D01*
X14550Y612300D01*
X14592Y611950D01*
X14550Y611650D01*
X14383Y611350D01*
X14133Y611100D01*
X13842Y611000D01*
X13508Y611100D01*
X13217Y611400D01*
X13050Y611850D01*
X13008Y612350D01*
X13092Y613000D01*
X13217Y613350D01*
X13425Y613700D01*
X13717Y613950D01*
X14008Y614000D01*
X14300Y613900D01*
X14508Y613650D01*
G01X15017Y19348D02*
Y22348D01*
X16100Y19848D01*
X17184Y22348D01*
Y19348D01*
G01X18125D02*
Y22348D01*
G01X19875D02*
Y19348D01*
G01Y20848D02*
X18125D01*
G01X20983Y19798D02*
X21233Y19548D01*
X21525Y19398D01*
X21900Y19348D01*
X22275Y19448D01*
X22567Y19648D01*
X22775Y19998D01*
X22817Y20398D01*
X22733Y20798D01*
X22525Y21048D01*
X22233Y21248D01*
X21942Y21298D01*
X21650Y21248D01*
X21275Y21048D01*
X21400Y22348D01*
X22525D01*
G01X26917Y50000D02*
Y53000D01*
X27958D01*
X28292Y52850D01*
X28500Y52650D01*
X28583Y52250D01*
X28500Y51850D01*
X28250Y51600D01*
X27958Y51450D01*
X26917D01*
G01X27958D02*
X28583Y50000D01*
G01X30650D02*
Y53000D01*
X30150Y52400D01*
G01Y50000D02*
X31150D01*
G01X33550Y53000D02*
X33217Y52900D01*
X32967Y52650D01*
X32800Y52350D01*
X32675Y51950D01*
X32633Y51500D01*
X32675Y51050D01*
X32800Y50650D01*
X32967Y50350D01*
X33217Y50100D01*
X33550Y50000D01*
X33883Y50100D01*
X34133Y50350D01*
X34300Y50650D01*
X34425Y51050D01*
X34467Y51500D01*
X34425Y51950D01*
X34300Y52350D01*
X34133Y52650D01*
X33883Y52900D01*
X33550Y53000D01*
G01X36367Y50000D02*
X36450Y50650D01*
X36575Y51200D01*
X36742Y51700D01*
X36950Y52250D01*
X37283Y53000D01*
X35617D01*
G01X38642Y50350D02*
X38933Y50100D01*
X39267Y50000D01*
X39600Y50100D01*
X39892Y50400D01*
X40100Y50850D01*
X40183Y51300D01*
Y51850D01*
X40100Y52300D01*
X39892Y52700D01*
X39642Y52900D01*
X39350Y53000D01*
X39017Y52900D01*
X38767Y52700D01*
X38600Y52400D01*
X38517Y52000D01*
X38600Y51650D01*
X38808Y51300D01*
X39058Y51100D01*
X39350Y51050D01*
X39683Y51150D01*
X39933Y51400D01*
X40183Y51850D01*
G01X41333Y50450D02*
X41583Y50200D01*
X41875Y50050D01*
X42250Y50000D01*
X42625Y50100D01*
X42917Y50300D01*
X43125Y50650D01*
X43167Y51050D01*
X43083Y51450D01*
X42875Y51700D01*
X42583Y51900D01*
X42292Y51950D01*
X42000Y51900D01*
X41625Y51700D01*
X41750Y53000D01*
X42875D01*
G01X21600Y60000D02*
X21267Y60050D01*
X20975Y60250D01*
X20725Y60550D01*
X20558Y60900D01*
X20475Y61300D01*
Y61700D01*
X20558Y62100D01*
X20725Y62450D01*
X20975Y62750D01*
X21267Y62950D01*
X21600Y63000D01*
X21933Y62950D01*
X22225Y62750D01*
X22475Y62450D01*
X22642Y62100D01*
X22725Y61700D01*
Y61300D01*
X22642Y60900D01*
X22475Y60550D01*
X22225Y60250D01*
X21933Y60050D01*
X21600Y60000D01*
G01X21933Y60800D02*
X22433Y60000D01*
G01X23583Y60450D02*
X23833Y60200D01*
X24125Y60050D01*
X24500Y60000D01*
X24875Y60100D01*
X25167Y60300D01*
X25375Y60650D01*
X25417Y61050D01*
X25333Y61450D01*
X25125Y61700D01*
X24833Y61900D01*
X24542Y61950D01*
X24250Y61900D01*
X23875Y61700D01*
X24000Y63000D01*
X25125D01*
G01X26483Y60450D02*
X26733Y60200D01*
X27025Y60050D01*
X27400Y60000D01*
X27775Y60100D01*
X28067Y60300D01*
X28275Y60650D01*
X28317Y61050D01*
X28233Y61450D01*
X28025Y61700D01*
X27733Y61900D01*
X27442Y61950D01*
X27150Y61900D01*
X26775Y61700D01*
X26900Y63000D01*
X28025D01*
G01X20750Y56500D02*
X21583D01*
Y55600D01*
X21333Y55300D01*
X21042Y55100D01*
X20625Y55000D01*
X20208Y55100D01*
X19917Y55300D01*
X19667Y55600D01*
X19500Y55950D01*
X19417Y56350D01*
Y56700D01*
X19500Y57000D01*
X19667Y57350D01*
X19917Y57650D01*
X20167Y57850D01*
X20500Y58000D01*
X20792D01*
X21125Y57900D01*
X21375Y57700D01*
G01X23583Y66000D02*
Y69000D01*
X24417D01*
X24750Y68850D01*
X25000Y68650D01*
X25208Y68350D01*
X25375Y68000D01*
X25417Y67500D01*
X25375Y67000D01*
X25208Y66650D01*
X25000Y66350D01*
X24750Y66150D01*
X24417Y66000D01*
X23583D01*
G01X27625Y55400D02*
X27958Y55150D01*
X28333Y55000D01*
X28667D01*
X29000Y55150D01*
X29250Y55400D01*
X29375Y55750D01*
X29292Y56100D01*
X29083Y56400D01*
X28708Y56600D01*
X28208Y56700D01*
X27917Y56900D01*
X27792Y57250D01*
X27875Y57600D01*
X28083Y57850D01*
X28375Y58000D01*
X28667D01*
X28958Y57900D01*
X29208Y57650D01*
G01X17417Y75000D02*
Y78000D01*
X18458D01*
X18792Y77850D01*
X19000Y77650D01*
X19083Y77250D01*
X19000Y76850D01*
X18750Y76600D01*
X18458Y76450D01*
X17417D01*
G01X18458D02*
X19083Y75000D01*
G01X21150D02*
Y78000D01*
X20650Y77400D01*
G01Y75000D02*
X21650D01*
G01X24050Y78000D02*
X23717Y77900D01*
X23467Y77650D01*
X23300Y77350D01*
X23175Y76950D01*
X23133Y76500D01*
X23175Y76050D01*
X23300Y75650D01*
X23467Y75350D01*
X23717Y75100D01*
X24050Y75000D01*
X24383Y75100D01*
X24633Y75350D01*
X24800Y75650D01*
X24925Y76050D01*
X24967Y76500D01*
X24925Y76950D01*
X24800Y77350D01*
X24633Y77650D01*
X24383Y77900D01*
X24050Y78000D01*
G01X26867Y75000D02*
X26950Y75650D01*
X27075Y76200D01*
X27242Y76700D01*
X27450Y77250D01*
X27783Y78000D01*
X26117D01*
G01X29142Y75350D02*
X29433Y75100D01*
X29767Y75000D01*
X30100Y75100D01*
X30392Y75400D01*
X30600Y75850D01*
X30683Y76300D01*
Y76850D01*
X30600Y77300D01*
X30392Y77700D01*
X30142Y77900D01*
X29850Y78000D01*
X29517Y77900D01*
X29267Y77700D01*
X29100Y77400D01*
X29017Y77000D01*
X29100Y76650D01*
X29308Y76300D01*
X29558Y76100D01*
X29850Y76050D01*
X30183Y76150D01*
X30433Y76400D01*
X30683Y76850D01*
G01X33250Y75000D02*
Y78000D01*
X31708Y75850D01*
X33792D01*
G01X30559Y105854D02*
Y108854D01*
X31601D01*
X31934Y108704D01*
X32142Y108504D01*
X32226Y108104D01*
X32142Y107704D01*
X31892Y107454D01*
X31601Y107304D01*
X30559D01*
G01X31601D02*
X32226Y105854D01*
G01X34209D02*
X34292Y106504D01*
X34418Y107054D01*
X34584Y107554D01*
X34793Y108104D01*
X35126Y108854D01*
X33459D01*
G01X36484Y106204D02*
X36776Y105954D01*
X37109Y105854D01*
X37442Y105954D01*
X37734Y106254D01*
X37942Y106704D01*
X38026Y107154D01*
Y107704D01*
X37942Y108154D01*
X37734Y108554D01*
X37484Y108754D01*
X37192Y108854D01*
X36859Y108754D01*
X36609Y108554D01*
X36442Y108254D01*
X36359Y107854D01*
X36442Y107504D01*
X36651Y107154D01*
X36901Y106954D01*
X37192Y106904D01*
X37526Y107004D01*
X37776Y107254D01*
X38026Y107704D01*
G01X31432Y114004D02*
Y117004D01*
X32474D01*
X32807Y116854D01*
X33016Y116654D01*
X33099Y116254D01*
X33016Y115854D01*
X32766Y115604D01*
X32474Y115454D01*
X31432D01*
G01X32474D02*
X33099Y114004D01*
G01X35082D02*
X35166Y114654D01*
X35291Y115204D01*
X35457Y115704D01*
X35666Y116254D01*
X35999Y117004D01*
X34332D01*
G01X37149Y114454D02*
X37399Y114204D01*
X37691Y114054D01*
X38066Y114004D01*
X38441Y114104D01*
X38732Y114304D01*
X38941Y114654D01*
X38982Y115054D01*
X38899Y115454D01*
X38691Y115704D01*
X38399Y115904D01*
X38107Y115954D01*
X37816Y115904D01*
X37441Y115704D01*
X37566Y117004D01*
X38691D01*
G01X29267Y110000D02*
Y113000D01*
X30308D01*
X30642Y112850D01*
X30850Y112650D01*
X30933Y112250D01*
X30850Y111850D01*
X30600Y111600D01*
X30308Y111450D01*
X29267D01*
G01X30308D02*
X30933Y110000D01*
G01X32917D02*
X33000Y110650D01*
X33125Y111200D01*
X33292Y111700D01*
X33500Y112250D01*
X33833Y113000D01*
X32167D01*
G01X35900Y110000D02*
X36192Y110050D01*
X36525Y110200D01*
X36733Y110450D01*
X36817Y110800D01*
X36733Y111150D01*
X36483Y111450D01*
X36108Y111600D01*
X35692D01*
X35442Y111700D01*
X35233Y111950D01*
X35150Y112300D01*
X35275Y112650D01*
X35567Y112900D01*
X35900Y113000D01*
X36233Y112900D01*
X36525Y112650D01*
X36650Y112300D01*
X36567Y111950D01*
X36358Y111700D01*
X36108Y111600D01*
X35692D01*
X35317Y111450D01*
X35067Y111150D01*
X34983Y110800D01*
X35067Y110450D01*
X35275Y110200D01*
X35608Y110050D01*
X35900Y110000D01*
G01X19583Y122950D02*
X19833Y122700D01*
X20125Y122550D01*
X20500Y122500D01*
X20875Y122600D01*
X21167Y122800D01*
X21375Y123150D01*
X21417Y123550D01*
X21333Y123950D01*
X21125Y124200D01*
X20833Y124400D01*
X20542Y124450D01*
X20250Y124400D01*
X19875Y124200D01*
X20000Y125500D01*
X21125D01*
G01X19930Y134594D02*
X20930Y135594D01*
Y133594D01*
X19930Y134594D01*
G01X26500Y121133D02*
X28650D01*
X29100Y121300D01*
X29400Y121633D01*
X29500Y122050D01*
X29400Y122467D01*
X29100Y122800D01*
X28650Y122967D01*
X26500D01*
G01X29050Y124033D02*
X29300Y124283D01*
X29450Y124575D01*
X29500Y124950D01*
X29400Y125325D01*
X29200Y125617D01*
X28850Y125825D01*
X28450Y125867D01*
X28050Y125783D01*
X27800Y125575D01*
X27600Y125283D01*
X27550Y124992D01*
X27600Y124700D01*
X27800Y124325D01*
X26500Y124450D01*
Y125575D01*
G01X31335Y120569D02*
X32335Y119569D01*
Y121569D01*
X31335Y120569D01*
G01X25079Y117663D02*
Y129474D01*
X30591D01*
Y117663D01*
X25079D01*
G01X73456Y223998D02*
Y273210D01*
X24244D01*
Y223998D01*
X73456D01*
G01X15017Y323744D02*
Y326744D01*
X16100Y324244D01*
X17184Y326744D01*
Y323744D01*
G01X18125D02*
Y326744D01*
G01X19875D02*
Y323744D01*
G01Y325244D02*
X18125D01*
G01X20983Y324344D02*
X21233Y323993D01*
X21567Y323794D01*
X21942Y323744D01*
X22275Y323794D01*
X22608Y324043D01*
X22817Y324344D01*
X22858Y324644D01*
X22775Y324993D01*
X22483Y325244D01*
X22192Y325344D01*
X21817D01*
G01X22192D02*
X22442Y325494D01*
X22650Y325743D01*
X22733Y326044D01*
X22650Y326344D01*
X22442Y326593D01*
X22067Y326744D01*
X21692Y326694D01*
X21317Y326494D01*
G01X28284Y463466D02*
X28034Y463616D01*
X27742Y463716D01*
X27409D01*
X27034Y463566D01*
X26742Y463316D01*
X26534Y463016D01*
X26367Y462516D01*
X26326Y462066D01*
X26409Y461616D01*
X26534Y461316D01*
X26784Y461016D01*
X27076Y460816D01*
X27367Y460716D01*
X27659D01*
X27951Y460816D01*
X28201Y460966D01*
X28409Y461166D01*
G01X29559Y461066D02*
X29851Y460816D01*
X30184Y460716D01*
X30517Y460816D01*
X30809Y461116D01*
X31017Y461566D01*
X31101Y462016D01*
Y462566D01*
X31017Y463016D01*
X30809Y463416D01*
X30559Y463616D01*
X30267Y463716D01*
X29934Y463616D01*
X29684Y463416D01*
X29517Y463116D01*
X29434Y462716D01*
X29517Y462366D01*
X29726Y462016D01*
X29976Y461816D01*
X30267Y461766D01*
X30601Y461866D01*
X30851Y462116D01*
X31101Y462566D01*
G01X32948Y459610D02*
X24287D01*
Y465319D01*
X32948D01*
Y459610D01*
G01X28867Y451150D02*
X28617Y451300D01*
X28325Y451400D01*
X27992D01*
X27617Y451250D01*
X27325Y451000D01*
X27117Y450700D01*
X26950Y450200D01*
X26908Y449750D01*
X26992Y449300D01*
X27117Y449000D01*
X27367Y448700D01*
X27658Y448500D01*
X27950Y448400D01*
X28242D01*
X28533Y448500D01*
X28783Y448650D01*
X28992Y448850D01*
G01X30850Y448400D02*
Y451400D01*
X30350Y450800D01*
G01Y448400D02*
X31350D01*
G01X33750Y451400D02*
X33417Y451300D01*
X33167Y451050D01*
X33000Y450750D01*
X32875Y450350D01*
X32833Y449900D01*
X32875Y449450D01*
X33000Y449050D01*
X33167Y448750D01*
X33417Y448500D01*
X33750Y448400D01*
X34083Y448500D01*
X34333Y448750D01*
X34500Y449050D01*
X34625Y449450D01*
X34667Y449900D01*
X34625Y450350D01*
X34500Y450750D01*
X34333Y451050D01*
X34083Y451300D01*
X33750Y451400D01*
G01X35507Y454836D02*
X22908D01*
Y445033D01*
X35507D01*
Y454836D01*
G01X17781Y510765D02*
X17447Y510815D01*
X17156Y511015D01*
X16906Y511315D01*
X16739Y511665D01*
X16656Y512065D01*
Y512465D01*
X16739Y512865D01*
X16906Y513215D01*
X17156Y513515D01*
X17447Y513715D01*
X17781Y513765D01*
X18114Y513715D01*
X18406Y513515D01*
X18656Y513215D01*
X18822Y512865D01*
X18906Y512465D01*
Y512065D01*
X18822Y511665D01*
X18656Y511315D01*
X18406Y511015D01*
X18114Y510815D01*
X17781Y510765D01*
G01X18114Y511565D02*
X18614Y510765D01*
G01X19972Y511115D02*
X20264Y510865D01*
X20597Y510765D01*
X20931Y510865D01*
X21222Y511165D01*
X21431Y511615D01*
X21514Y512065D01*
Y512615D01*
X21431Y513065D01*
X21222Y513465D01*
X20972Y513665D01*
X20681Y513765D01*
X20347Y513665D01*
X20098Y513465D01*
X19931Y513165D01*
X19848Y512765D01*
X19931Y512415D01*
X20139Y512065D01*
X20389Y511865D01*
X20681Y511815D01*
X21014Y511915D01*
X21264Y512165D01*
X21514Y512615D01*
G01X17877Y536556D02*
X17544Y536606D01*
X17252Y536806D01*
X17002Y537106D01*
X16836Y537456D01*
X16752Y537856D01*
Y538256D01*
X16836Y538656D01*
X17002Y539006D01*
X17252Y539306D01*
X17544Y539506D01*
X17877Y539556D01*
X18211Y539506D01*
X18502Y539306D01*
X18752Y539006D01*
X18919Y538656D01*
X19002Y538256D01*
Y537856D01*
X18919Y537456D01*
X18752Y537106D01*
X18502Y536806D01*
X18211Y536606D01*
X17877Y536556D01*
G01X18211Y537356D02*
X18711Y536556D01*
G01X19986Y537806D02*
X20277Y538156D01*
X20527Y538356D01*
X20861Y538456D01*
X21152Y538356D01*
X21361Y538156D01*
X21527Y537856D01*
X21569Y537506D01*
X21527Y537206D01*
X21361Y536906D01*
X21111Y536656D01*
X20819Y536556D01*
X20486Y536656D01*
X20194Y536956D01*
X20027Y537406D01*
X19986Y537906D01*
X20069Y538556D01*
X20194Y538906D01*
X20402Y539256D01*
X20694Y539506D01*
X20986Y539556D01*
X21277Y539456D01*
X21486Y539206D01*
G01X15017Y579574D02*
Y582574D01*
X16100Y580074D01*
X17184Y582574D01*
Y579574D01*
G01X18125D02*
Y582574D01*
G01X19875D02*
Y579574D01*
G01Y581074D02*
X18125D01*
G01X21900Y579574D02*
Y582574D01*
X21400Y581974D01*
G01Y579574D02*
X22400D01*
G01X32200Y601000D02*
Y598000D01*
G01X31242Y601000D02*
X33158D01*
G01X34267Y598000D02*
Y601000D01*
X35267D01*
X35600Y600850D01*
X35850Y600500D01*
X35933Y600100D01*
X35850Y599700D01*
X35642Y599400D01*
X35267Y599250D01*
X34267D01*
G01X38000Y598000D02*
Y601000D01*
X37500Y600400D01*
G01Y598000D02*
X38500D01*
G01X40900D02*
Y601000D01*
X40400Y600400D01*
G01Y598000D02*
X41400D01*
G01X43008Y600500D02*
X43258Y600800D01*
X43550Y600950D01*
X43883Y601000D01*
X44300Y600900D01*
X44592Y600650D01*
X44675Y600350D01*
X44633Y600050D01*
X44467Y599800D01*
X43633Y599300D01*
X43258Y598950D01*
X43008Y598450D01*
X42925Y598000D01*
X44675D01*
G01X26250Y620497D02*
X26100Y620246D01*
X26000Y619955D01*
Y619622D01*
X26150Y619246D01*
X26400Y618955D01*
X26700Y618747D01*
X27200Y618580D01*
X27650Y618538D01*
X28100Y618622D01*
X28400Y618747D01*
X28700Y618997D01*
X28900Y619288D01*
X29000Y619580D01*
Y619872D01*
X28900Y620163D01*
X28750Y620413D01*
X28550Y620622D01*
G01X28400Y621563D02*
X28750Y621813D01*
X28950Y622146D01*
X29000Y622522D01*
X28950Y622855D01*
X28700Y623188D01*
X28400Y623397D01*
X28100Y623438D01*
X27750Y623355D01*
X27500Y623063D01*
X27400Y622772D01*
Y622397D01*
G01Y622772D02*
X27250Y623022D01*
X27000Y623230D01*
X26700Y623313D01*
X26400Y623230D01*
X26150Y623022D01*
X26000Y622647D01*
X26050Y622272D01*
X26250Y621897D01*
G01X28684Y613161D02*
Y617098D01*
X26716D01*
Y613161D01*
X28684D01*
G01X19400Y618167D02*
X16400D01*
Y619208D01*
X16550Y619542D01*
X16750Y619750D01*
X17150Y619833D01*
X17550Y619750D01*
X17800Y619500D01*
X17950Y619208D01*
Y618167D01*
G01Y619208D02*
X19400Y619833D01*
G01Y621900D02*
X16400D01*
X17000Y621400D01*
G01X19400D02*
Y622400D01*
G01X16400Y624800D02*
X16500Y624467D01*
X16750Y624217D01*
X17050Y624050D01*
X17450Y623925D01*
X17900Y623883D01*
X18350Y623925D01*
X18750Y624050D01*
X19050Y624217D01*
X19300Y624467D01*
X19400Y624800D01*
X19300Y625133D01*
X19050Y625383D01*
X18750Y625550D01*
X18350Y625675D01*
X17900Y625717D01*
X17450Y625675D01*
X17050Y625550D01*
X16750Y625383D01*
X16500Y625133D01*
X16400Y624800D01*
G01X16912Y617098D02*
Y613161D01*
X18881D01*
Y617098D01*
X16912D01*
G01X24098Y618297D02*
X21098D01*
Y619338D01*
X21248Y619672D01*
X21448Y619880D01*
X21848Y619963D01*
X22248Y619880D01*
X22498Y619630D01*
X22648Y619338D01*
Y618297D01*
G01Y619338D02*
X24098Y619963D01*
G01Y622030D02*
X21098D01*
X21698Y621530D01*
G01X24098D02*
Y622530D01*
G01Y624930D02*
X21098D01*
X21698Y624430D01*
G01X24098D02*
Y625430D01*
G01X23783Y613161D02*
Y617098D01*
X21814D01*
Y613161D01*
X23783D01*
G01X31133Y626000D02*
Y629000D01*
X31967D01*
X32300Y628850D01*
X32550Y628650D01*
X32758Y628350D01*
X32925Y628000D01*
X32967Y627500D01*
X32925Y627000D01*
X32758Y626650D01*
X32550Y626350D01*
X32300Y626150D01*
X31967Y626000D01*
X31133D01*
G01X34033Y626450D02*
X34283Y626200D01*
X34575Y626050D01*
X34950Y626000D01*
X35325Y626100D01*
X35617Y626300D01*
X35825Y626650D01*
X35867Y627050D01*
X35783Y627450D01*
X35575Y627700D01*
X35283Y627900D01*
X34992Y627950D01*
X34700Y627900D01*
X34325Y627700D01*
X34450Y629000D01*
X35575D01*
G01X30488Y620835D02*
X36394D01*
Y625165D01*
X30488D01*
Y620835D01*
G01X52500Y40700D02*
Y42100D01*
X51100Y40700D01*
X52500D01*
G01X43461Y108838D02*
X39524D01*
Y106870D01*
X43461D01*
Y108838D01*
G01X53156Y108793D02*
X49219D01*
Y106825D01*
X53156D01*
Y108793D01*
G01X41768Y112294D02*
Y113475D01*
X39406D01*
Y112294D01*
X41768D01*
G01X36867Y96800D02*
Y99800D01*
X37908D01*
X38242Y99650D01*
X38450Y99450D01*
X38533Y99050D01*
X38450Y98650D01*
X38200Y98400D01*
X37908Y98250D01*
X36867D01*
G01X37908D02*
X38533Y96800D01*
G01X40600D02*
X40892Y96850D01*
X41225Y97000D01*
X41433Y97250D01*
X41517Y97600D01*
X41433Y97950D01*
X41183Y98250D01*
X40808Y98400D01*
X40392D01*
X40142Y98500D01*
X39933Y98750D01*
X39850Y99100D01*
X39975Y99450D01*
X40267Y99700D01*
X40600Y99800D01*
X40933Y99700D01*
X41225Y99450D01*
X41350Y99100D01*
X41267Y98750D01*
X41058Y98500D01*
X40808Y98400D01*
X40392D01*
X40017Y98250D01*
X39767Y97950D01*
X39683Y97600D01*
X39767Y97250D01*
X39975Y97000D01*
X40308Y96850D01*
X40600Y96800D01*
G01X43500D02*
Y99800D01*
X43000Y99200D01*
G01Y96800D02*
X44000D01*
G01X41768Y95094D02*
Y96275D01*
X39406D01*
Y95094D01*
X41768D01*
G01X53156Y118242D02*
X49219D01*
Y116274D01*
X53156D01*
Y118242D01*
G01X44767Y132300D02*
Y135300D01*
X45808D01*
X46142Y135150D01*
X46350Y134950D01*
X46433Y134550D01*
X46350Y134150D01*
X46100Y133900D01*
X45808Y133750D01*
X44767D01*
G01X45808D02*
X46433Y132300D01*
G01X47708Y133550D02*
X48000Y133900D01*
X48250Y134100D01*
X48583Y134200D01*
X48875Y134100D01*
X49083Y133900D01*
X49250Y133600D01*
X49292Y133250D01*
X49250Y132950D01*
X49083Y132650D01*
X48833Y132400D01*
X48542Y132300D01*
X48208Y132400D01*
X47917Y132700D01*
X47750Y133150D01*
X47708Y133650D01*
X47792Y134300D01*
X47917Y134650D01*
X48125Y135000D01*
X48417Y135250D01*
X48708Y135300D01*
X49000Y135200D01*
X49208Y134950D01*
G01X50692Y132650D02*
X50983Y132400D01*
X51317Y132300D01*
X51650Y132400D01*
X51942Y132700D01*
X52150Y133150D01*
X52233Y133600D01*
Y134150D01*
X52150Y134600D01*
X51942Y135000D01*
X51692Y135200D01*
X51400Y135300D01*
X51067Y135200D01*
X50817Y135000D01*
X50650Y134700D01*
X50567Y134300D01*
X50650Y133950D01*
X50858Y133600D01*
X51108Y133400D01*
X51400Y133350D01*
X51733Y133450D01*
X51983Y133700D01*
X52233Y134150D01*
G01X39348Y131872D02*
X43285D01*
Y133841D01*
X39348D01*
Y131872D01*
G01X44251Y118246D02*
X40314D01*
Y116278D01*
X44251D01*
Y118246D01*
G01X44967Y127500D02*
Y130500D01*
X46008D01*
X46342Y130350D01*
X46550Y130150D01*
X46633Y129750D01*
X46550Y129350D01*
X46300Y129100D01*
X46008Y128950D01*
X44967D01*
G01X46008D02*
X46633Y127500D01*
G01X48617D02*
X48700Y128150D01*
X48825Y128700D01*
X48992Y129200D01*
X49200Y129750D01*
X49533Y130500D01*
X47867D01*
G01X51600D02*
X51267Y130400D01*
X51017Y130150D01*
X50850Y129850D01*
X50725Y129450D01*
X50683Y129000D01*
X50725Y128550D01*
X50850Y128150D01*
X51017Y127850D01*
X51267Y127600D01*
X51600Y127500D01*
X51933Y127600D01*
X52183Y127850D01*
X52350Y128150D01*
X52475Y128550D01*
X52517Y129000D01*
X52475Y129450D01*
X52350Y129850D01*
X52183Y130150D01*
X51933Y130400D01*
X51600Y130500D01*
G01X41568Y127294D02*
Y128475D01*
X39206D01*
Y127294D01*
X41568D01*
G01X44767Y119300D02*
Y122300D01*
X45808D01*
X46142Y122150D01*
X46350Y121950D01*
X46433Y121550D01*
X46350Y121150D01*
X46100Y120900D01*
X45808Y120750D01*
X44767D01*
G01X45808D02*
X46433Y119300D01*
G01X48417D02*
X48500Y119950D01*
X48625Y120500D01*
X48792Y121000D01*
X49000Y121550D01*
X49333Y122300D01*
X47667D01*
G01X51900Y119300D02*
Y122300D01*
X50358Y120150D01*
X52442D01*
G01X41568Y120894D02*
Y122075D01*
X39206D01*
Y120894D01*
X41568D01*
G01X45631Y123893D02*
Y126893D01*
X46673D01*
X47006Y126743D01*
X47214Y126543D01*
X47298Y126143D01*
X47214Y125743D01*
X46964Y125493D01*
X46673Y125343D01*
X45631D01*
G01X46673D02*
X47298Y123893D01*
G01X49281D02*
X49364Y124543D01*
X49489Y125093D01*
X49656Y125593D01*
X49864Y126143D01*
X50198Y126893D01*
X48531D01*
G01X51473Y126393D02*
X51723Y126693D01*
X52014Y126843D01*
X52348Y126893D01*
X52764Y126793D01*
X53056Y126543D01*
X53139Y126243D01*
X53098Y125943D01*
X52931Y125693D01*
X52098Y125193D01*
X51723Y124843D01*
X51473Y124343D01*
X51389Y123893D01*
X53139D01*
G01X42433Y124287D02*
Y125469D01*
X40071D01*
Y124287D01*
X42433D01*
G01X45667Y190700D02*
Y193700D01*
X46708D01*
X47042Y193550D01*
X47250Y193350D01*
X47333Y192950D01*
X47250Y192550D01*
X47000Y192300D01*
X46708Y192150D01*
X45667D01*
G01X46708D02*
X47333Y190700D01*
G01X49900D02*
Y193700D01*
X48358Y191550D01*
X50442D01*
G01X51508Y191950D02*
X51800Y192300D01*
X52050Y192500D01*
X52383Y192600D01*
X52675Y192500D01*
X52883Y192300D01*
X53050Y192000D01*
X53092Y191650D01*
X53050Y191350D01*
X52883Y191050D01*
X52633Y190800D01*
X52342Y190700D01*
X52008Y190800D01*
X51717Y191100D01*
X51550Y191550D01*
X51508Y192050D01*
X51592Y192700D01*
X51717Y193050D01*
X51925Y193400D01*
X52217Y193650D01*
X52508Y193700D01*
X52800Y193600D01*
X53008Y193350D01*
G01X43968Y192984D02*
X40032D01*
Y191016D01*
X43968D01*
Y192984D01*
G01X45667Y185300D02*
Y188300D01*
X46708D01*
X47042Y188150D01*
X47250Y187950D01*
X47333Y187550D01*
X47250Y187150D01*
X47000Y186900D01*
X46708Y186750D01*
X45667D01*
G01X46708D02*
X47333Y185300D01*
G01X49900D02*
Y188300D01*
X48358Y186150D01*
X50442D01*
G01X52217Y185300D02*
X52300Y185950D01*
X52425Y186500D01*
X52592Y187000D01*
X52800Y187550D01*
X53133Y188300D01*
X51467D01*
G01X43968Y187584D02*
X40032D01*
Y185616D01*
X43968D01*
Y187584D01*
G01X33700Y199000D02*
Y196000D01*
G01X32742Y199000D02*
X34658D01*
G01X35767Y196000D02*
Y199000D01*
X36767D01*
X37100Y198850D01*
X37350Y198500D01*
X37433Y198100D01*
X37350Y197700D01*
X37142Y197400D01*
X36767Y197250D01*
X35767D01*
G01X39500Y196000D02*
Y199000D01*
X39000Y198400D01*
G01Y196000D02*
X40000D01*
G01X42400Y199000D02*
X42067Y198900D01*
X41817Y198650D01*
X41650Y198350D01*
X41525Y197950D01*
X41483Y197500D01*
X41525Y197050D01*
X41650Y196650D01*
X41817Y196350D01*
X42067Y196100D01*
X42400Y196000D01*
X42733Y196100D01*
X42983Y196350D01*
X43150Y196650D01*
X43275Y197050D01*
X43317Y197500D01*
X43275Y197950D01*
X43150Y198350D01*
X42983Y198650D01*
X42733Y198900D01*
X42400Y199000D01*
G01X44592Y196350D02*
X44883Y196100D01*
X45217Y196000D01*
X45550Y196100D01*
X45842Y196400D01*
X46050Y196850D01*
X46133Y197300D01*
Y197850D01*
X46050Y198300D01*
X45842Y198700D01*
X45592Y198900D01*
X45300Y199000D01*
X44967Y198900D01*
X44717Y198700D01*
X44550Y198400D01*
X44467Y198000D01*
X44550Y197650D01*
X44758Y197300D01*
X45008Y197100D01*
X45300Y197050D01*
X45633Y197150D01*
X45883Y197400D01*
X46133Y197850D01*
G01X33700Y181000D02*
Y178000D01*
G01X32742Y181000D02*
X34658D01*
G01X35767Y178000D02*
Y181000D01*
X36767D01*
X37100Y180850D01*
X37350Y180500D01*
X37433Y180100D01*
X37350Y179700D01*
X37142Y179400D01*
X36767Y179250D01*
X35767D01*
G01X39500Y178000D02*
Y181000D01*
X39000Y180400D01*
G01Y178000D02*
X40000D01*
G01X42400D02*
Y181000D01*
X41900Y180400D01*
G01Y178000D02*
X42900D01*
G01X45300Y181000D02*
X44967Y180900D01*
X44717Y180650D01*
X44550Y180350D01*
X44425Y179950D01*
X44383Y179500D01*
X44425Y179050D01*
X44550Y178650D01*
X44717Y178350D01*
X44967Y178100D01*
X45300Y178000D01*
X45633Y178100D01*
X45883Y178350D01*
X46050Y178650D01*
X46175Y179050D01*
X46217Y179500D01*
X46175Y179950D01*
X46050Y180350D01*
X45883Y180650D01*
X45633Y180900D01*
X45300Y181000D01*
G01X52200Y200000D02*
Y197000D01*
G01X51242Y200000D02*
X53158D01*
G01X54267Y197000D02*
Y200000D01*
X55267D01*
X55600Y199850D01*
X55850Y199500D01*
X55933Y199100D01*
X55850Y198700D01*
X55642Y198400D01*
X55267Y198250D01*
X54267D01*
G01X58000Y197000D02*
Y200000D01*
X57500Y199400D01*
G01Y197000D02*
X58500D01*
G01X60900D02*
Y200000D01*
X60400Y199400D01*
G01Y197000D02*
X61400D01*
G01X62883Y197600D02*
X63133Y197250D01*
X63467Y197050D01*
X63842Y197000D01*
X64175Y197050D01*
X64508Y197300D01*
X64717Y197600D01*
X64758Y197900D01*
X64675Y198250D01*
X64383Y198500D01*
X64092Y198600D01*
X63717D01*
G01X64092D02*
X64342Y198750D01*
X64550Y199000D01*
X64633Y199300D01*
X64550Y199600D01*
X64342Y199850D01*
X63967Y200000D01*
X63592Y199950D01*
X63217Y199750D01*
G01X34767Y203000D02*
Y206000D01*
X35808D01*
X36142Y205850D01*
X36350Y205650D01*
X36433Y205250D01*
X36350Y204850D01*
X36100Y204600D01*
X35808Y204450D01*
X34767D01*
G01X35808D02*
X36433Y203000D01*
G01X39000D02*
Y206000D01*
X37458Y203850D01*
X39542D01*
G01X40608Y205500D02*
X40858Y205800D01*
X41150Y205950D01*
X41483Y206000D01*
X41900Y205900D01*
X42192Y205650D01*
X42275Y205350D01*
X42233Y205050D01*
X42067Y204800D01*
X41233Y204300D01*
X40858Y203950D01*
X40608Y203450D01*
X40525Y203000D01*
X42275D01*
G01X43802Y203447D02*
X47739D01*
Y205416D01*
X43802D01*
Y203447D01*
G01X48478Y215916D02*
Y212916D01*
G01X47519Y215916D02*
X49436D01*
G01X50544Y212916D02*
Y215916D01*
X51544D01*
X51878Y215766D01*
X52128Y215416D01*
X52211Y215016D01*
X52128Y214616D01*
X51919Y214316D01*
X51544Y214166D01*
X50544D01*
G01X54278Y212916D02*
Y215916D01*
X53778Y215316D01*
G01Y212916D02*
X54778D01*
G01X57178Y215916D02*
X56844Y215816D01*
X56594Y215566D01*
X56428Y215266D01*
X56303Y214866D01*
X56261Y214416D01*
X56303Y213966D01*
X56428Y213566D01*
X56594Y213266D01*
X56844Y213016D01*
X57178Y212916D01*
X57511Y213016D01*
X57761Y213266D01*
X57928Y213566D01*
X58053Y213966D01*
X58094Y214416D01*
X58053Y214866D01*
X57928Y215266D01*
X57761Y215566D01*
X57511Y215816D01*
X57178Y215916D01*
G01X60078Y212916D02*
X60369Y212966D01*
X60703Y213116D01*
X60911Y213366D01*
X60994Y213716D01*
X60911Y214066D01*
X60661Y214366D01*
X60286Y214516D01*
X59869D01*
X59619Y214616D01*
X59411Y214866D01*
X59328Y215216D01*
X59453Y215566D01*
X59744Y215816D01*
X60078Y215916D01*
X60411Y215816D01*
X60703Y215566D01*
X60828Y215216D01*
X60744Y214866D01*
X60536Y214616D01*
X60286Y214516D01*
X59869D01*
X59494Y214366D01*
X59244Y214066D01*
X59161Y213716D01*
X59244Y213366D01*
X59453Y213116D01*
X59786Y212966D01*
X60078Y212916D01*
G01X46517Y251400D02*
Y248400D01*
X48183D01*
G01X50250D02*
Y251400D01*
X49750Y250800D01*
G01Y248400D02*
X50750D01*
G01X38467Y504750D02*
X38217Y504900D01*
X37925Y505000D01*
X37592D01*
X37217Y504850D01*
X36925Y504600D01*
X36717Y504300D01*
X36550Y503800D01*
X36508Y503350D01*
X36592Y502900D01*
X36717Y502600D01*
X36967Y502300D01*
X37258Y502100D01*
X37550Y502000D01*
X37842D01*
X38133Y502100D01*
X38383Y502250D01*
X38592Y502450D01*
G01X40450Y502000D02*
X40742Y502050D01*
X41075Y502200D01*
X41283Y502450D01*
X41367Y502800D01*
X41283Y503150D01*
X41033Y503450D01*
X40658Y503600D01*
X40242D01*
X39992Y503700D01*
X39783Y503950D01*
X39700Y504300D01*
X39825Y504650D01*
X40117Y504900D01*
X40450Y505000D01*
X40783Y504900D01*
X41075Y504650D01*
X41200Y504300D01*
X41117Y503950D01*
X40908Y503700D01*
X40658Y503600D01*
X40242D01*
X39867Y503450D01*
X39617Y503150D01*
X39533Y502800D01*
X39617Y502450D01*
X39825Y502200D01*
X40158Y502050D01*
X40450Y502000D01*
G01X36779Y498799D02*
X40716D01*
Y500768D01*
X36779D01*
Y498799D01*
G01X32731Y504814D02*
X33731Y503814D01*
Y505814D01*
X32731Y504814D01*
G01X37133Y486500D02*
Y489500D01*
X37967D01*
X38300Y489350D01*
X38550Y489150D01*
X38758Y488850D01*
X38925Y488500D01*
X38967Y488000D01*
X38925Y487500D01*
X38758Y487150D01*
X38550Y486850D01*
X38300Y486650D01*
X37967Y486500D01*
X37133D01*
G01X40867D02*
X40950Y487150D01*
X41075Y487700D01*
X41242Y488200D01*
X41450Y488750D01*
X41783Y489500D01*
X40117D01*
G01X50150Y536800D02*
X49817Y536850D01*
X49525Y537050D01*
X49275Y537350D01*
X49108Y537700D01*
X49025Y538100D01*
Y538500D01*
X49108Y538900D01*
X49275Y539250D01*
X49525Y539550D01*
X49817Y539750D01*
X50150Y539800D01*
X50483Y539750D01*
X50775Y539550D01*
X51025Y539250D01*
X51192Y538900D01*
X51275Y538500D01*
Y538100D01*
X51192Y537700D01*
X51025Y537350D01*
X50775Y537050D01*
X50483Y536850D01*
X50150Y536800D01*
G01X50483Y537600D02*
X50983Y536800D01*
G01X52133Y537250D02*
X52383Y537000D01*
X52675Y536850D01*
X53050Y536800D01*
X53425Y536900D01*
X53717Y537100D01*
X53925Y537450D01*
X53967Y537850D01*
X53883Y538250D01*
X53675Y538500D01*
X53383Y538700D01*
X53092Y538750D01*
X52800Y538700D01*
X52425Y538500D01*
X52550Y539800D01*
X53675D01*
G01X63255Y528215D02*
X39240D01*
Y548294D01*
X63255D01*
Y528215D01*
G01X32827Y530605D02*
X33827Y529605D01*
Y531605D01*
X32827Y530605D01*
G01X36200Y562000D02*
Y559000D01*
G01X35242Y562000D02*
X37158D01*
G01X38267Y559000D02*
Y562000D01*
X39267D01*
X39600Y561850D01*
X39850Y561500D01*
X39933Y561100D01*
X39850Y560700D01*
X39642Y560400D01*
X39267Y560250D01*
X38267D01*
G01X42000Y559000D02*
Y562000D01*
X41500Y561400D01*
G01Y559000D02*
X42500D01*
G01X44900Y562000D02*
X44567Y561900D01*
X44317Y561650D01*
X44150Y561350D01*
X44025Y560950D01*
X43983Y560500D01*
X44025Y560050D01*
X44150Y559650D01*
X44317Y559350D01*
X44567Y559100D01*
X44900Y559000D01*
X45233Y559100D01*
X45483Y559350D01*
X45650Y559650D01*
X45775Y560050D01*
X45817Y560500D01*
X45775Y560950D01*
X45650Y561350D01*
X45483Y561650D01*
X45233Y561900D01*
X44900Y562000D01*
G01X46883Y559450D02*
X47133Y559200D01*
X47425Y559050D01*
X47800Y559000D01*
X48175Y559100D01*
X48467Y559300D01*
X48675Y559650D01*
X48717Y560050D01*
X48633Y560450D01*
X48425Y560700D01*
X48133Y560900D01*
X47842Y560950D01*
X47550Y560900D01*
X47175Y560700D01*
X47300Y562000D01*
X48425D01*
G01X46950Y606100D02*
X46800Y605850D01*
X46700Y605558D01*
Y605225D01*
X46850Y604850D01*
X47100Y604558D01*
X47400Y604350D01*
X47900Y604183D01*
X48350Y604141D01*
X48800Y604225D01*
X49100Y604350D01*
X49400Y604600D01*
X49600Y604892D01*
X49700Y605183D01*
Y605475D01*
X49600Y605766D01*
X49450Y606016D01*
X49250Y606225D01*
G01Y607166D02*
X49500Y607416D01*
X49650Y607708D01*
X49700Y608083D01*
X49600Y608458D01*
X49400Y608750D01*
X49050Y608958D01*
X48650Y609000D01*
X48250Y608916D01*
X48000Y608708D01*
X47800Y608416D01*
X47750Y608125D01*
X47800Y607833D01*
X48000Y607458D01*
X46700Y607583D01*
Y608708D01*
G01X45584Y604765D02*
Y608701D01*
X43616D01*
Y604765D01*
X45584D01*
G01X50436Y612737D02*
Y604863D01*
X55357D01*
Y612737D01*
X50436D01*
G01X47200Y593000D02*
Y590000D01*
G01X46242Y593000D02*
X48158D01*
G01X49267Y590000D02*
Y593000D01*
X50267D01*
X50600Y592850D01*
X50850Y592500D01*
X50933Y592100D01*
X50850Y591700D01*
X50642Y591400D01*
X50267Y591250D01*
X49267D01*
G01X53000Y590000D02*
Y593000D01*
X52500Y592400D01*
G01Y590000D02*
X53500D01*
G01X55900Y593000D02*
X55567Y592900D01*
X55317Y592650D01*
X55150Y592350D01*
X55025Y591950D01*
X54983Y591500D01*
X55025Y591050D01*
X55150Y590650D01*
X55317Y590350D01*
X55567Y590100D01*
X55900Y590000D01*
X56233Y590100D01*
X56483Y590350D01*
X56650Y590650D01*
X56775Y591050D01*
X56817Y591500D01*
X56775Y591950D01*
X56650Y592350D01*
X56483Y592650D01*
X56233Y592900D01*
X55900Y593000D01*
G01X59300Y590000D02*
Y593000D01*
X57758Y590850D01*
X59842D01*
G01X33633Y611000D02*
Y614000D01*
X34467D01*
X34800Y613850D01*
X35050Y613650D01*
X35258Y613350D01*
X35425Y613000D01*
X35467Y612500D01*
X35425Y612000D01*
X35258Y611650D01*
X35050Y611350D01*
X34800Y611150D01*
X34467Y611000D01*
X33633D01*
G01X36658Y612250D02*
X36950Y612600D01*
X37200Y612800D01*
X37533Y612900D01*
X37825Y612800D01*
X38033Y612600D01*
X38200Y612300D01*
X38242Y611950D01*
X38200Y611650D01*
X38033Y611350D01*
X37783Y611100D01*
X37492Y611000D01*
X37158Y611100D01*
X36867Y611400D01*
X36700Y611850D01*
X36658Y612350D01*
X36742Y613000D01*
X36867Y613350D01*
X37075Y613700D01*
X37367Y613950D01*
X37658Y614000D01*
X37950Y613900D01*
X38158Y613650D01*
G01X37500Y615500D02*
Y618500D01*
G01X38750Y615250D02*
X33250D01*
Y618750D01*
X38750D01*
Y615250D01*
G01X50000Y644633D02*
X47000D01*
Y645467D01*
X47150Y645800D01*
X47350Y646050D01*
X47650Y646258D01*
X48000Y646425D01*
X48500Y646467D01*
X49000Y646425D01*
X49350Y646258D01*
X49650Y646050D01*
X49850Y645800D01*
X50000Y645467D01*
Y644633D01*
G01Y648950D02*
X47000D01*
X49150Y647408D01*
Y649492D01*
G01X62433Y29200D02*
Y27050D01*
X62600Y26600D01*
X62933Y26300D01*
X63350Y26200D01*
X63767Y26300D01*
X64100Y26600D01*
X64267Y27050D01*
Y29200D01*
G01X66167Y26200D02*
X66250Y26850D01*
X66375Y27400D01*
X66542Y27900D01*
X66750Y28450D01*
X67083Y29200D01*
X65417D01*
G01X52905Y40492D02*
X79677D01*
Y13720D01*
X52905D01*
Y40492D01*
G01X55267Y106400D02*
Y109400D01*
X56308D01*
X56642Y109250D01*
X56850Y109050D01*
X56933Y108650D01*
X56850Y108250D01*
X56600Y108000D01*
X56308Y107850D01*
X55267D01*
G01X56308D02*
X56933Y106400D01*
G01X59000D02*
X59292Y106450D01*
X59625Y106600D01*
X59833Y106850D01*
X59917Y107200D01*
X59833Y107550D01*
X59583Y107850D01*
X59208Y108000D01*
X58792D01*
X58542Y108100D01*
X58333Y108350D01*
X58250Y108700D01*
X58375Y109050D01*
X58667Y109300D01*
X59000Y109400D01*
X59333Y109300D01*
X59625Y109050D01*
X59750Y108700D01*
X59667Y108350D01*
X59458Y108100D01*
X59208Y108000D01*
X58792D01*
X58417Y107850D01*
X58167Y107550D01*
X58083Y107200D01*
X58167Y106850D01*
X58375Y106600D01*
X58708Y106450D01*
X59000Y106400D01*
G01X61900Y109400D02*
X61567Y109300D01*
X61317Y109050D01*
X61150Y108750D01*
X61025Y108350D01*
X60983Y107900D01*
X61025Y107450D01*
X61150Y107050D01*
X61317Y106750D01*
X61567Y106500D01*
X61900Y106400D01*
X62233Y106500D01*
X62483Y106750D01*
X62650Y107050D01*
X62775Y107450D01*
X62817Y107900D01*
X62775Y108350D01*
X62650Y108750D01*
X62483Y109050D01*
X62233Y109300D01*
X61900Y109400D01*
G01X55067Y115600D02*
Y118600D01*
X56108D01*
X56442Y118450D01*
X56650Y118250D01*
X56733Y117850D01*
X56650Y117450D01*
X56400Y117200D01*
X56108Y117050D01*
X55067D01*
G01X56108D02*
X56733Y115600D01*
G01X58717D02*
X58800Y116250D01*
X58925Y116800D01*
X59092Y117300D01*
X59300Y117850D01*
X59633Y118600D01*
X57967D01*
G01X60908Y116850D02*
X61200Y117200D01*
X61450Y117400D01*
X61783Y117500D01*
X62075Y117400D01*
X62283Y117200D01*
X62450Y116900D01*
X62492Y116550D01*
X62450Y116250D01*
X62283Y115950D01*
X62033Y115700D01*
X61742Y115600D01*
X61408Y115700D01*
X61117Y116000D01*
X60950Y116450D01*
X60908Y116950D01*
X60992Y117600D01*
X61117Y117950D01*
X61325Y118300D01*
X61617Y118550D01*
X61908Y118600D01*
X62200Y118500D01*
X62408Y118250D01*
G01X55767Y152000D02*
Y155000D01*
X56808D01*
X57142Y154850D01*
X57350Y154650D01*
X57433Y154250D01*
X57350Y153850D01*
X57100Y153600D01*
X56808Y153450D01*
X55767D01*
G01X56808D02*
X57433Y152000D01*
G01X58708Y153250D02*
X59000Y153600D01*
X59250Y153800D01*
X59583Y153900D01*
X59875Y153800D01*
X60083Y153600D01*
X60250Y153300D01*
X60292Y152950D01*
X60250Y152650D01*
X60083Y152350D01*
X59833Y152100D01*
X59542Y152000D01*
X59208Y152100D01*
X58917Y152400D01*
X58750Y152850D01*
X58708Y153350D01*
X58792Y154000D01*
X58917Y154350D01*
X59125Y154700D01*
X59417Y154950D01*
X59708Y155000D01*
X60000Y154900D01*
X60208Y154650D01*
G01X62400Y155000D02*
X62067Y154900D01*
X61817Y154650D01*
X61650Y154350D01*
X61525Y153950D01*
X61483Y153500D01*
X61525Y153050D01*
X61650Y152650D01*
X61817Y152350D01*
X62067Y152100D01*
X62400Y152000D01*
X62733Y152100D01*
X62983Y152350D01*
X63150Y152650D01*
X63275Y153050D01*
X63317Y153500D01*
X63275Y153950D01*
X63150Y154350D01*
X62983Y154650D01*
X62733Y154900D01*
X62400Y155000D01*
G01X65121Y152019D02*
X69058D01*
Y153988D01*
X65121D01*
Y152019D01*
G01X55767Y166000D02*
Y169000D01*
X56808D01*
X57142Y168850D01*
X57350Y168650D01*
X57433Y168250D01*
X57350Y167850D01*
X57100Y167600D01*
X56808Y167450D01*
X55767D01*
G01X56808D02*
X57433Y166000D01*
G01X58583Y166450D02*
X58833Y166200D01*
X59125Y166050D01*
X59500Y166000D01*
X59875Y166100D01*
X60167Y166300D01*
X60375Y166650D01*
X60417Y167050D01*
X60333Y167450D01*
X60125Y167700D01*
X59833Y167900D01*
X59542Y167950D01*
X59250Y167900D01*
X58875Y167700D01*
X59000Y169000D01*
X60125D01*
G01X62400Y166000D02*
Y169000D01*
X61900Y168400D01*
G01Y166000D02*
X62900D01*
G01X65121Y166919D02*
X69058D01*
Y168888D01*
X65121D01*
Y166919D01*
G01X55767Y171000D02*
Y174000D01*
X56808D01*
X57142Y173850D01*
X57350Y173650D01*
X57433Y173250D01*
X57350Y172850D01*
X57100Y172600D01*
X56808Y172450D01*
X55767D01*
G01X56808D02*
X57433Y171000D01*
G01X60000D02*
Y174000D01*
X58458Y171850D01*
X60542D01*
G01X61692Y171350D02*
X61983Y171100D01*
X62317Y171000D01*
X62650Y171100D01*
X62942Y171400D01*
X63150Y171850D01*
X63233Y172300D01*
Y172850D01*
X63150Y173300D01*
X62942Y173700D01*
X62692Y173900D01*
X62400Y174000D01*
X62067Y173900D01*
X61817Y173700D01*
X61650Y173400D01*
X61567Y173000D01*
X61650Y172650D01*
X61858Y172300D01*
X62108Y172100D01*
X62400Y172050D01*
X62733Y172150D01*
X62983Y172400D01*
X63233Y172850D01*
G01X65121Y171919D02*
X69058D01*
Y173888D01*
X65121D01*
Y171919D01*
G01X55767Y161500D02*
Y164500D01*
X56808D01*
X57142Y164350D01*
X57350Y164150D01*
X57433Y163750D01*
X57350Y163350D01*
X57100Y163100D01*
X56808Y162950D01*
X55767D01*
G01X56808D02*
X57433Y161500D01*
G01X58583Y161950D02*
X58833Y161700D01*
X59125Y161550D01*
X59500Y161500D01*
X59875Y161600D01*
X60167Y161800D01*
X60375Y162150D01*
X60417Y162550D01*
X60333Y162950D01*
X60125Y163200D01*
X59833Y163400D01*
X59542Y163450D01*
X59250Y163400D01*
X58875Y163200D01*
X59000Y164500D01*
X60125D01*
G01X61483Y162100D02*
X61733Y161750D01*
X62067Y161550D01*
X62442Y161500D01*
X62775Y161550D01*
X63108Y161800D01*
X63317Y162100D01*
X63358Y162400D01*
X63275Y162750D01*
X62983Y163000D01*
X62692Y163100D01*
X62317D01*
G01X62692D02*
X62942Y163250D01*
X63150Y163500D01*
X63233Y163800D01*
X63150Y164100D01*
X62942Y164350D01*
X62567Y164500D01*
X62192Y164450D01*
X61817Y164250D01*
G01X69058Y163888D02*
X65121D01*
Y161919D01*
X69058D01*
Y163888D01*
G01X55767Y156500D02*
Y159500D01*
X56808D01*
X57142Y159350D01*
X57350Y159150D01*
X57433Y158750D01*
X57350Y158350D01*
X57100Y158100D01*
X56808Y157950D01*
X55767D01*
G01X56808D02*
X57433Y156500D01*
G01X58583Y156950D02*
X58833Y156700D01*
X59125Y156550D01*
X59500Y156500D01*
X59875Y156600D01*
X60167Y156800D01*
X60375Y157150D01*
X60417Y157550D01*
X60333Y157950D01*
X60125Y158200D01*
X59833Y158400D01*
X59542Y158450D01*
X59250Y158400D01*
X58875Y158200D01*
X59000Y159500D01*
X60125D01*
G01X62317Y156500D02*
X62400Y157150D01*
X62525Y157700D01*
X62692Y158200D01*
X62900Y158750D01*
X63233Y159500D01*
X61567D01*
G01X69058Y158988D02*
X65121D01*
Y157019D01*
X69058D01*
Y158988D01*
G01X55767Y175500D02*
Y178500D01*
X56808D01*
X57142Y178350D01*
X57350Y178150D01*
X57433Y177750D01*
X57350Y177350D01*
X57100Y177100D01*
X56808Y176950D01*
X55767D01*
G01X56808D02*
X57433Y175500D01*
G01X60000D02*
Y178500D01*
X58458Y176350D01*
X60542D01*
G01X62400Y175500D02*
X62692Y175550D01*
X63025Y175700D01*
X63233Y175950D01*
X63317Y176300D01*
X63233Y176650D01*
X62983Y176950D01*
X62608Y177100D01*
X62192D01*
X61942Y177200D01*
X61733Y177450D01*
X61650Y177800D01*
X61775Y178150D01*
X62067Y178400D01*
X62400Y178500D01*
X62733Y178400D01*
X63025Y178150D01*
X63150Y177800D01*
X63067Y177450D01*
X62858Y177200D01*
X62608Y177100D01*
X62192D01*
X61817Y176950D01*
X61567Y176650D01*
X61483Y176300D01*
X61567Y175950D01*
X61775Y175700D01*
X62108Y175550D01*
X62400Y175500D01*
G01X73017Y185750D02*
X72767Y185900D01*
X72475Y186000D01*
X72142D01*
X71767Y185850D01*
X71475Y185600D01*
X71267Y185300D01*
X71100Y184800D01*
X71058Y184350D01*
X71142Y183900D01*
X71267Y183600D01*
X71517Y183300D01*
X71808Y183100D01*
X72100Y183000D01*
X72392D01*
X72683Y183100D01*
X72933Y183250D01*
X73142Y183450D01*
G01X75000Y183000D02*
Y186000D01*
X74500Y185400D01*
G01Y183000D02*
X75500D01*
G01X76983Y183450D02*
X77233Y183200D01*
X77525Y183050D01*
X77900Y183000D01*
X78275Y183100D01*
X78567Y183300D01*
X78775Y183650D01*
X78817Y184050D01*
X78733Y184450D01*
X78525Y184700D01*
X78233Y184900D01*
X77942Y184950D01*
X77650Y184900D01*
X77275Y184700D01*
X77400Y186000D01*
X78525D01*
G01X69058Y178488D02*
X65121D01*
Y176519D01*
X69058D01*
Y178488D01*
G01X70600Y198867D02*
X67600D01*
Y199908D01*
X67750Y200242D01*
X67950Y200450D01*
X68350Y200533D01*
X68750Y200450D01*
X69000Y200200D01*
X69150Y199908D01*
Y198867D01*
G01Y199908D02*
X70600Y200533D01*
G01Y203100D02*
X67600D01*
X69750Y201558D01*
Y203642D01*
G01X70000Y204583D02*
X70350Y204833D01*
X70550Y205167D01*
X70600Y205542D01*
X70550Y205875D01*
X70300Y206208D01*
X70000Y206417D01*
X69700Y206458D01*
X69350Y206375D01*
X69100Y206083D01*
X69000Y205792D01*
Y205417D01*
G01Y205792D02*
X68850Y206042D01*
X68600Y206250D01*
X68300Y206333D01*
X68000Y206250D01*
X67750Y206042D01*
X67600Y205667D01*
X67650Y205292D01*
X67850Y204917D01*
G01X73305Y199536D02*
Y203473D01*
X71337D01*
Y199536D01*
X73305D01*
G01X63000Y357100D02*
X62950Y356767D01*
X62750Y356475D01*
X62450Y356225D01*
X62100Y356058D01*
X61700Y355975D01*
X61300D01*
X60900Y356058D01*
X60550Y356225D01*
X60250Y356475D01*
X60050Y356767D01*
X60000Y357100D01*
X60050Y357433D01*
X60250Y357725D01*
X60550Y357975D01*
X60900Y358142D01*
X61300Y358225D01*
X61700D01*
X62100Y358142D01*
X62450Y357975D01*
X62750Y357725D01*
X62950Y357433D01*
X63000Y357100D01*
G01X62200Y357433D02*
X63000Y357933D01*
G01Y360000D02*
X60000D01*
X60600Y359500D01*
G01X63000D02*
Y360500D01*
G01Y362900D02*
X60000D01*
X60600Y362400D01*
G01X63000D02*
Y363400D01*
G01X56156Y353345D02*
X56406Y353645D01*
X56697Y353795D01*
X57031Y353845D01*
X57447Y353745D01*
X57739Y353495D01*
X57822Y353195D01*
X57781Y352895D01*
X57614Y352645D01*
X56781Y352145D01*
X56406Y351795D01*
X56156Y351295D01*
X56072Y350845D01*
X57822D01*
G01X66921Y360375D02*
X67171Y360025D01*
X67504Y359825D01*
X67879Y359775D01*
X68212Y359825D01*
X68546Y360075D01*
X68754Y360375D01*
X68796Y360675D01*
X68712Y361025D01*
X68421Y361275D01*
X68129Y361375D01*
X67754D01*
G01X68129D02*
X68379Y361525D01*
X68587Y361775D01*
X68671Y362075D01*
X68587Y362375D01*
X68379Y362625D01*
X68004Y362775D01*
X67629Y362725D01*
X67254Y362525D01*
G01X64627Y366065D02*
Y354104D01*
X59108D01*
Y366065D01*
X64627D01*
G01X56997Y365165D02*
Y368165D01*
X56497Y367565D01*
G01Y365165D02*
X57497D01*
G01X64267Y373800D02*
Y376800D01*
X65308D01*
X65642Y376650D01*
X65850Y376450D01*
X65933Y376050D01*
X65850Y375650D01*
X65600Y375400D01*
X65308Y375250D01*
X64267D01*
G01X65308D02*
X65933Y373800D01*
G01X67083Y374400D02*
X67333Y374050D01*
X67667Y373850D01*
X68042Y373800D01*
X68375Y373850D01*
X68708Y374100D01*
X68917Y374400D01*
X68958Y374700D01*
X68875Y375050D01*
X68583Y375300D01*
X68292Y375400D01*
X67917D01*
G01X68292D02*
X68542Y375550D01*
X68750Y375800D01*
X68833Y376100D01*
X68750Y376400D01*
X68542Y376650D01*
X68167Y376800D01*
X67792Y376750D01*
X67417Y376550D01*
G01X70108Y375050D02*
X70400Y375400D01*
X70650Y375600D01*
X70983Y375700D01*
X71275Y375600D01*
X71483Y375400D01*
X71650Y375100D01*
X71692Y374750D01*
X71650Y374450D01*
X71483Y374150D01*
X71233Y373900D01*
X70942Y373800D01*
X70608Y373900D01*
X70317Y374200D01*
X70150Y374650D01*
X70108Y375150D01*
X70192Y375800D01*
X70317Y376150D01*
X70525Y376500D01*
X70817Y376750D01*
X71108Y376800D01*
X71400Y376700D01*
X71608Y376450D01*
G01X74397Y379065D02*
X61397D01*
Y372185D01*
X74397D01*
Y379065D01*
G01X53267Y382000D02*
Y385000D01*
X54308D01*
X54642Y384850D01*
X54850Y384650D01*
X54933Y384250D01*
X54850Y383850D01*
X54600Y383600D01*
X54308Y383450D01*
X53267D01*
G01X54308D02*
X54933Y382000D01*
G01X56083Y382600D02*
X56333Y382250D01*
X56667Y382050D01*
X57042Y382000D01*
X57375Y382050D01*
X57708Y382300D01*
X57917Y382600D01*
X57958Y382900D01*
X57875Y383250D01*
X57583Y383500D01*
X57292Y383600D01*
X56917D01*
G01X57292D02*
X57542Y383750D01*
X57750Y384000D01*
X57833Y384300D01*
X57750Y384600D01*
X57542Y384850D01*
X57167Y385000D01*
X56792Y384950D01*
X56417Y384750D01*
G01X58983Y382450D02*
X59233Y382200D01*
X59525Y382050D01*
X59900Y382000D01*
X60275Y382100D01*
X60567Y382300D01*
X60775Y382650D01*
X60817Y383050D01*
X60733Y383450D01*
X60525Y383700D01*
X60233Y383900D01*
X59942Y383950D01*
X59650Y383900D01*
X59275Y383700D01*
X59400Y385000D01*
X60525D01*
G01X71433Y393200D02*
Y396200D01*
X72267D01*
X72600Y396050D01*
X72850Y395850D01*
X73058Y395550D01*
X73225Y395200D01*
X73267Y394700D01*
X73225Y394200D01*
X73058Y393850D01*
X72850Y393550D01*
X72600Y393350D01*
X72267Y393200D01*
X71433D01*
G01X75250D02*
X75542Y393250D01*
X75875Y393400D01*
X76083Y393650D01*
X76167Y394000D01*
X76083Y394350D01*
X75833Y394650D01*
X75458Y394800D01*
X75042D01*
X74792Y394900D01*
X74583Y395150D01*
X74500Y395500D01*
X74625Y395850D01*
X74917Y396100D01*
X75250Y396200D01*
X75583Y396100D01*
X75875Y395850D01*
X76000Y395500D01*
X75917Y395150D01*
X75708Y394900D01*
X75458Y394800D01*
X75042D01*
X74667Y394650D01*
X74417Y394350D01*
X74333Y394000D01*
X74417Y393650D01*
X74625Y393400D01*
X74958Y393250D01*
X75250Y393200D01*
G01X66283Y393000D02*
Y396000D01*
G01X67867D02*
X66283Y394150D01*
G01X68117Y393000D02*
X66992Y395000D01*
G01X76197Y400335D02*
X70678D01*
Y388375D01*
X76197D01*
Y400335D01*
G01X68217Y385230D02*
X61918D01*
Y382080D01*
X68217D01*
Y385230D01*
G01X72500Y436267D02*
X69500D01*
Y437308D01*
X69650Y437642D01*
X69850Y437850D01*
X70250Y437933D01*
X70650Y437850D01*
X70900Y437600D01*
X71050Y437308D01*
Y436267D01*
G01Y437308D02*
X72500Y437933D01*
G01X71900Y439083D02*
X72250Y439333D01*
X72450Y439667D01*
X72500Y440042D01*
X72450Y440375D01*
X72200Y440708D01*
X71900Y440917D01*
X71600Y440958D01*
X71250Y440875D01*
X71000Y440583D01*
X70900Y440292D01*
Y439917D01*
G01Y440292D02*
X70750Y440542D01*
X70500Y440750D01*
X70200Y440833D01*
X69900Y440750D01*
X69650Y440542D01*
X69500Y440167D01*
X69550Y439792D01*
X69750Y439417D01*
G01X71900Y441983D02*
X72250Y442233D01*
X72450Y442567D01*
X72500Y442942D01*
X72450Y443275D01*
X72200Y443608D01*
X71900Y443817D01*
X71600Y443858D01*
X71250Y443775D01*
X71000Y443483D01*
X70900Y443192D01*
Y442817D01*
G01Y443192D02*
X70750Y443442D01*
X70500Y443650D01*
X70200Y443733D01*
X69900Y443650D01*
X69650Y443442D01*
X69500Y443067D01*
X69550Y442692D01*
X69750Y442317D01*
G01X68375Y436250D02*
Y442550D01*
X65225D01*
Y436250D01*
X68375D01*
G01X66400Y490108D02*
X63400D01*
Y491692D01*
G01X64850Y491108D02*
Y490108D01*
G01X64800Y494133D02*
X64650Y494300D01*
X64400Y494425D01*
X64050Y494508D01*
X63750Y494425D01*
X63550Y494258D01*
X63400Y493967D01*
Y492842D01*
X66400D01*
Y494217D01*
X66200Y494508D01*
X65900Y494675D01*
X65550Y494758D01*
X65200Y494675D01*
X64900Y494425D01*
X64800Y494133D01*
Y492842D01*
G01X66400Y496700D02*
X63400D01*
X64000Y496200D01*
G01X66400D02*
Y497200D01*
G01X61537Y487295D02*
Y499895D01*
X67837D01*
Y487295D01*
X61537D01*
G01X88887Y532123D02*
Y508107D01*
X68808D01*
Y532123D01*
X88887D01*
G01X63747Y530755D02*
X64747Y529755D01*
Y531755D01*
X63747Y530755D01*
G01X156932Y562947D02*
Y588931D01*
X63625D01*
Y562947D01*
X156932D01*
G01X68772Y605916D02*
Y609853D01*
X66803D01*
Y605916D01*
X68772D01*
G01X59696Y606217D02*
X56696D01*
Y607258D01*
X56846Y607592D01*
X57046Y607800D01*
X57446Y607883D01*
X57846Y607800D01*
X58096Y607550D01*
X58246Y607258D01*
Y606217D01*
G01Y607258D02*
X59696Y607883D01*
G01Y609950D02*
X56696D01*
X57296Y609450D01*
G01X59696D02*
Y610450D01*
G01X59096Y611933D02*
X59446Y612183D01*
X59646Y612517D01*
X59696Y612892D01*
X59646Y613225D01*
X59396Y613558D01*
X59096Y613767D01*
X58796Y613808D01*
X58446Y613725D01*
X58196Y613433D01*
X58096Y613142D01*
Y612767D01*
G01Y613142D02*
X57946Y613392D01*
X57696Y613600D01*
X57396Y613683D01*
X57096Y613600D01*
X56846Y613392D01*
X56696Y613017D01*
X56746Y612642D01*
X56946Y612267D01*
G01X69287Y610752D02*
X66287D01*
Y611793D01*
X66438Y612126D01*
X66637Y612335D01*
X67037Y612418D01*
X67437Y612335D01*
X67687Y612085D01*
X67837Y611793D01*
Y610752D01*
G01Y611793D02*
X69287Y612418D01*
G01Y614485D02*
X66287D01*
X66887Y613985D01*
G01X69287D02*
Y614985D01*
G01X68838Y616468D02*
X69087Y616718D01*
X69237Y617010D01*
X69287Y617385D01*
X69187Y617760D01*
X68988Y618051D01*
X68637Y618260D01*
X68237Y618302D01*
X67837Y618218D01*
X67587Y618010D01*
X67387Y617718D01*
X67338Y617426D01*
X67387Y617135D01*
X67587Y616760D01*
X66287Y616885D01*
Y618010D01*
G01X75287Y610752D02*
X72287D01*
Y611793D01*
X72438Y612126D01*
X72637Y612335D01*
X73037Y612418D01*
X73437Y612335D01*
X73687Y612085D01*
X73837Y611793D01*
Y610752D01*
G01Y611793D02*
X75287Y612418D01*
G01Y614485D02*
X72287D01*
X72887Y613985D01*
G01X75287D02*
Y614985D01*
G01X74038Y616593D02*
X73687Y616885D01*
X73487Y617135D01*
X73387Y617468D01*
X73487Y617760D01*
X73687Y617968D01*
X73987Y618135D01*
X74337Y618176D01*
X74637Y618135D01*
X74938Y617968D01*
X75187Y617718D01*
X75287Y617426D01*
X75187Y617093D01*
X74888Y616802D01*
X74437Y616635D01*
X73937Y616593D01*
X73288Y616676D01*
X72937Y616802D01*
X72587Y617010D01*
X72337Y617301D01*
X72287Y617593D01*
X72387Y617885D01*
X72637Y618093D01*
G01X60667Y636950D02*
X60417Y637100D01*
X60125Y637200D01*
X59792D01*
X59417Y637050D01*
X59125Y636800D01*
X58917Y636500D01*
X58750Y636000D01*
X58708Y635550D01*
X58792Y635100D01*
X58917Y634800D01*
X59167Y634500D01*
X59458Y634300D01*
X59750Y634200D01*
X60042D01*
X60333Y634300D01*
X60583Y634450D01*
X60792Y634650D01*
G01X62650Y634200D02*
Y637200D01*
X62150Y636600D01*
G01Y634200D02*
X63150D01*
G01X71400Y635400D02*
X72900Y633900D01*
Y636900D01*
X71400Y635400D01*
G01X70601Y642148D02*
X52199D01*
Y628652D01*
X70601D01*
Y642148D01*
G01X67759Y644633D02*
X64759D01*
Y645467D01*
X64909Y645800D01*
X65109Y646050D01*
X65409Y646258D01*
X65759Y646425D01*
X66259Y646467D01*
X66759Y646425D01*
X67109Y646258D01*
X67409Y646050D01*
X67609Y645800D01*
X67759Y645467D01*
Y644633D01*
G01Y648450D02*
X64759D01*
X65359Y647950D01*
G01X67759D02*
Y648950D01*
G01X94200Y47500D02*
Y44500D01*
G01X93242Y47500D02*
X95158D01*
G01X96267Y44500D02*
Y47500D01*
X97267D01*
X97600Y47350D01*
X97850Y47000D01*
X97933Y46600D01*
X97850Y46200D01*
X97642Y45900D01*
X97267Y45750D01*
X96267D01*
G01X100000Y44500D02*
Y47500D01*
X99500Y46900D01*
G01Y44500D02*
X100500D01*
G01X102900Y47500D02*
X102567Y47400D01*
X102317Y47150D01*
X102150Y46850D01*
X102025Y46450D01*
X101983Y46000D01*
X102025Y45550D01*
X102150Y45150D01*
X102317Y44850D01*
X102567Y44600D01*
X102900Y44500D01*
X103233Y44600D01*
X103483Y44850D01*
X103650Y45150D01*
X103775Y45550D01*
X103817Y46000D01*
X103775Y46450D01*
X103650Y46850D01*
X103483Y47150D01*
X103233Y47400D01*
X102900Y47500D01*
G01X105717Y44500D02*
X105800Y45150D01*
X105925Y45700D01*
X106092Y46200D01*
X106300Y46750D01*
X106633Y47500D01*
X104967D01*
G01X95217Y57350D02*
X94967Y57500D01*
X94675Y57600D01*
X94342D01*
X93967Y57450D01*
X93675Y57200D01*
X93467Y56900D01*
X93300Y56400D01*
X93258Y55950D01*
X93342Y55500D01*
X93467Y55200D01*
X93717Y54900D01*
X94008Y54700D01*
X94300Y54600D01*
X94592D01*
X94883Y54700D01*
X95133Y54850D01*
X95342Y55050D01*
G01X96408Y57100D02*
X96658Y57400D01*
X96950Y57550D01*
X97283Y57600D01*
X97700Y57500D01*
X97992Y57250D01*
X98075Y56950D01*
X98033Y56650D01*
X97867Y56400D01*
X97033Y55900D01*
X96658Y55550D01*
X96408Y55050D01*
X96325Y54600D01*
X98075D01*
G01X100100Y57600D02*
X99767Y57500D01*
X99517Y57250D01*
X99350Y56950D01*
X99225Y56550D01*
X99183Y56100D01*
X99225Y55650D01*
X99350Y55250D01*
X99517Y54950D01*
X99767Y54700D01*
X100100Y54600D01*
X100433Y54700D01*
X100683Y54950D01*
X100850Y55250D01*
X100975Y55650D01*
X101017Y56100D01*
X100975Y56550D01*
X100850Y56950D01*
X100683Y57250D01*
X100433Y57500D01*
X100100Y57600D01*
G01X94400Y61383D02*
X91400D01*
Y62217D01*
X91550Y62550D01*
X91750Y62800D01*
X92050Y63008D01*
X92400Y63175D01*
X92900Y63217D01*
X93400Y63175D01*
X93750Y63008D01*
X94050Y62800D01*
X94250Y62550D01*
X94400Y62217D01*
Y61383D01*
G01Y65200D02*
X91400D01*
X92000Y64700D01*
G01X94400D02*
Y65700D01*
G01X91400Y68100D02*
X91500Y67767D01*
X91750Y67517D01*
X92050Y67350D01*
X92450Y67225D01*
X92900Y67183D01*
X93350Y67225D01*
X93750Y67350D01*
X94050Y67517D01*
X94300Y67767D01*
X94400Y68100D01*
X94300Y68433D01*
X94050Y68683D01*
X93750Y68850D01*
X93350Y68975D01*
X92900Y69017D01*
X92450Y68975D01*
X92050Y68850D01*
X91750Y68683D01*
X91500Y68433D01*
X91400Y68100D01*
G01X84723Y167352D02*
Y165202D01*
X84890Y164752D01*
X85223Y164452D01*
X85640Y164352D01*
X86056Y164452D01*
X86390Y164752D01*
X86556Y165202D01*
Y167352D01*
G01X89040Y164352D02*
Y167352D01*
X87498Y165202D01*
X89581D01*
G01X79090Y172903D02*
X78090Y173903D01*
Y171903D01*
X79090Y172903D01*
G01X79216Y155561D02*
X94964D01*
Y175246D01*
X79216D01*
Y155561D01*
G01X73632Y187216D02*
X77568D01*
Y189184D01*
X73632D01*
Y187216D01*
G01X73267Y195000D02*
Y198000D01*
X74308D01*
X74642Y197850D01*
X74850Y197650D01*
X74933Y197250D01*
X74850Y196850D01*
X74600Y196600D01*
X74308Y196450D01*
X73267D01*
G01X74308D02*
X74933Y195000D01*
G01X77500D02*
Y198000D01*
X75958Y195850D01*
X78042D01*
G01X80400Y195000D02*
Y198000D01*
X78858Y195850D01*
X80942D01*
G01X77568Y193984D02*
X73632D01*
Y192016D01*
X77568D01*
Y193984D01*
G01X85633Y191000D02*
Y188850D01*
X85800Y188400D01*
X86133Y188100D01*
X86550Y188000D01*
X86967Y188100D01*
X87300Y188400D01*
X87467Y188850D01*
Y191000D01*
G01X88533Y188600D02*
X88783Y188250D01*
X89117Y188050D01*
X89492Y188000D01*
X89825Y188050D01*
X90158Y188300D01*
X90367Y188600D01*
X90408Y188900D01*
X90325Y189250D01*
X90033Y189500D01*
X89742Y189600D01*
X89367D01*
G01X89742D02*
X89992Y189750D01*
X90200Y190000D01*
X90283Y190300D01*
X90200Y190600D01*
X89992Y190850D01*
X89617Y191000D01*
X89242Y190950D01*
X88867Y190750D01*
G01X91905Y185240D02*
X92905Y184240D01*
Y186240D01*
X91905Y185240D01*
G01X91350Y195244D02*
X84460D01*
Y183236D01*
X91350D01*
Y195244D01*
G01X87879Y234745D02*
G03I-2062J0D01*
G01X85817Y233645D02*
Y236145D01*
G01X84567Y234895D02*
X87067D01*
G01X90185Y250277D02*
X123650D01*
Y216812D01*
X90185D01*
Y250277D01*
G01X80450Y242617D02*
X80300Y242367D01*
X80200Y242075D01*
Y241742D01*
X80350Y241367D01*
X80600Y241075D01*
X80900Y240867D01*
X81400Y240700D01*
X81850Y240658D01*
X82300Y240742D01*
X82600Y240867D01*
X82900Y241117D01*
X83100Y241408D01*
X83200Y241700D01*
Y241992D01*
X83100Y242283D01*
X82950Y242533D01*
X82750Y242742D01*
G01X83200Y244600D02*
X80200D01*
X80800Y244100D01*
G01X83200D02*
Y245100D01*
G01X82600Y246583D02*
X82950Y246833D01*
X83150Y247167D01*
X83200Y247542D01*
X83150Y247875D01*
X82900Y248208D01*
X82600Y248417D01*
X82300Y248458D01*
X81950Y248375D01*
X81700Y248083D01*
X81600Y247792D01*
Y247417D01*
G01Y247792D02*
X81450Y248042D01*
X81200Y248250D01*
X80900Y248333D01*
X80600Y248250D01*
X80350Y248042D01*
X80200Y247667D01*
X80250Y247292D01*
X80450Y246917D01*
G01X84750Y237701D02*
Y250299D01*
X78450D01*
Y237701D01*
X84750D01*
G01X78866Y388965D02*
X79908Y391965D01*
X80949Y388965D01*
G01X80574Y390015D02*
X79241D01*
G01X78709Y396725D02*
Y399725D01*
X80626Y396725D01*
Y399725D01*
G01X85517Y385250D02*
X85267Y385400D01*
X84975Y385500D01*
X84642D01*
X84267Y385350D01*
X83975Y385100D01*
X83767Y384800D01*
X83600Y384300D01*
X83558Y383850D01*
X83642Y383400D01*
X83767Y383100D01*
X84017Y382800D01*
X84308Y382600D01*
X84600Y382500D01*
X84892D01*
X85183Y382600D01*
X85433Y382750D01*
X85642Y382950D01*
G01X87500Y382500D02*
Y385500D01*
X87000Y384900D01*
G01Y382500D02*
X88000D01*
G01X90400D02*
Y385500D01*
X89900Y384900D01*
G01Y382500D02*
X90900D01*
G01X76008Y382160D02*
X82307D01*
Y385310D01*
X76008D01*
Y382160D01*
G01X77150Y518000D02*
X76817Y518050D01*
X76525Y518250D01*
X76275Y518550D01*
X76108Y518900D01*
X76025Y519300D01*
Y519700D01*
X76108Y520100D01*
X76275Y520450D01*
X76525Y520750D01*
X76817Y520950D01*
X77150Y521000D01*
X77483Y520950D01*
X77775Y520750D01*
X78025Y520450D01*
X78192Y520100D01*
X78275Y519700D01*
Y519300D01*
X78192Y518900D01*
X78025Y518550D01*
X77775Y518250D01*
X77483Y518050D01*
X77150Y518000D01*
G01X77483Y518800D02*
X77983Y518000D01*
G01X80050D02*
X80342Y518050D01*
X80675Y518200D01*
X80883Y518450D01*
X80967Y518800D01*
X80883Y519150D01*
X80633Y519450D01*
X80258Y519600D01*
X79842D01*
X79592Y519700D01*
X79383Y519950D01*
X79300Y520300D01*
X79425Y520650D01*
X79717Y520900D01*
X80050Y521000D01*
X80383Y520900D01*
X80675Y520650D01*
X80800Y520300D01*
X80717Y519950D01*
X80508Y519700D01*
X80258Y519600D01*
X79842D01*
X79467Y519450D01*
X79217Y519150D01*
X79133Y518800D01*
X79217Y518450D01*
X79425Y518200D01*
X79758Y518050D01*
X80050Y518000D01*
G01X86347Y532615D02*
X87347Y533615D01*
X85347D01*
X86347Y532615D01*
G01X91278Y562439D02*
X89778Y560939D01*
X92778D01*
X91278Y562439D01*
G01X80772Y605916D02*
Y609853D01*
X78803D01*
Y605916D01*
X80772D01*
G01X74772D02*
Y609853D01*
X72803D01*
Y605916D01*
X74772D01*
G01X88158Y592700D02*
X88408Y593000D01*
X88700Y593150D01*
X89033Y593200D01*
X89450Y593100D01*
X89742Y592850D01*
X89825Y592550D01*
X89783Y592250D01*
X89617Y592000D01*
X88783Y591500D01*
X88408Y591150D01*
X88158Y590650D01*
X88075Y590200D01*
X89825D01*
G01X91850D02*
Y593200D01*
X91350Y592600D01*
G01Y590200D02*
X92350D01*
G01X79667Y600150D02*
X79417Y600300D01*
X79125Y600400D01*
X78792D01*
X78417Y600250D01*
X78125Y600000D01*
X77917Y599700D01*
X77750Y599200D01*
X77708Y598750D01*
X77792Y598300D01*
X77917Y598000D01*
X78167Y597700D01*
X78458Y597500D01*
X78750Y597400D01*
X79042D01*
X79333Y597500D01*
X79583Y597650D01*
X79792Y597850D01*
G01X80858Y598650D02*
X81150Y599000D01*
X81400Y599200D01*
X81733Y599300D01*
X82025Y599200D01*
X82233Y599000D01*
X82400Y598700D01*
X82442Y598350D01*
X82400Y598050D01*
X82233Y597750D01*
X81983Y597500D01*
X81692Y597400D01*
X81358Y597500D01*
X81067Y597800D01*
X80900Y598250D01*
X80858Y598750D01*
X80942Y599400D01*
X81067Y599750D01*
X81275Y600100D01*
X81567Y600350D01*
X81858Y600400D01*
X82150Y600300D01*
X82358Y600050D01*
G01X77687Y594885D02*
X76687Y595885D01*
Y593885D01*
X77687Y594885D01*
G01X77841Y593113D02*
X84534D01*
Y596656D01*
X77841D01*
Y593113D01*
G01X81287Y610752D02*
X78287D01*
Y611793D01*
X78438Y612126D01*
X78637Y612335D01*
X79037Y612418D01*
X79437Y612335D01*
X79687Y612085D01*
X79837Y611793D01*
Y610752D01*
G01Y611793D02*
X81287Y612418D01*
G01Y614485D02*
X78287D01*
X78887Y613985D01*
G01X81287D02*
Y614985D01*
G01Y617301D02*
X80637Y617385D01*
X80088Y617510D01*
X79587Y617676D01*
X79037Y617885D01*
X78287Y618218D01*
Y616552D01*
G01X100308Y10000D02*
Y13000D01*
X101892D01*
G01X101308Y11550D02*
X100308D01*
G01X104333Y11600D02*
X104500Y11750D01*
X104625Y12000D01*
X104708Y12350D01*
X104625Y12650D01*
X104458Y12850D01*
X104167Y13000D01*
X103042D01*
Y10000D01*
X104417D01*
X104708Y10200D01*
X104875Y10500D01*
X104958Y10850D01*
X104875Y11200D01*
X104625Y11500D01*
X104333Y11600D01*
X103042D01*
G01X105983Y10600D02*
X106233Y10250D01*
X106567Y10050D01*
X106942Y10000D01*
X107275Y10050D01*
X107608Y10300D01*
X107817Y10600D01*
X107858Y10900D01*
X107775Y11250D01*
X107483Y11500D01*
X107192Y11600D01*
X106817D01*
G01X107192D02*
X107442Y11750D01*
X107650Y12000D01*
X107733Y12300D01*
X107650Y12600D01*
X107442Y12850D01*
X107067Y13000D01*
X106692Y12950D01*
X106317Y12750D01*
G01X96967Y14780D02*
X109567D01*
Y8480D01*
X96967D01*
Y14780D01*
G01X115550Y30754D02*
X110825D01*
Y39416D01*
X115550D01*
Y30754D01*
G01X102517Y26250D02*
X102267Y26400D01*
X101975Y26500D01*
X101642D01*
X101267Y26350D01*
X100975Y26100D01*
X100767Y25800D01*
X100600Y25300D01*
X100558Y24850D01*
X100642Y24400D01*
X100767Y24100D01*
X101017Y23800D01*
X101308Y23600D01*
X101600Y23500D01*
X101892D01*
X102183Y23600D01*
X102433Y23750D01*
X102642Y23950D01*
G01X103708Y26000D02*
X103958Y26300D01*
X104250Y26450D01*
X104583Y26500D01*
X105000Y26400D01*
X105292Y26150D01*
X105375Y25850D01*
X105333Y25550D01*
X105167Y25300D01*
X104333Y24800D01*
X103958Y24450D01*
X103708Y23950D01*
X103625Y23500D01*
X105375D01*
G01X107400D02*
Y26500D01*
X106900Y25900D01*
G01Y23500D02*
X107900D01*
G01X107737Y22260D02*
X101438D01*
Y19110D01*
X107737D01*
Y22260D01*
G01X112000Y32633D02*
X114150D01*
X114600Y32800D01*
X114900Y33133D01*
X115000Y33550D01*
X114900Y33967D01*
X114600Y34300D01*
X114150Y34467D01*
X112000D01*
G01X113750Y35658D02*
X113400Y35950D01*
X113200Y36200D01*
X113100Y36533D01*
X113200Y36825D01*
X113400Y37033D01*
X113700Y37200D01*
X114050Y37242D01*
X114350Y37200D01*
X114650Y37033D01*
X114900Y36783D01*
X115000Y36492D01*
X114900Y36158D01*
X114600Y35867D01*
X114150Y35700D01*
X113650Y35658D01*
X113000Y35742D01*
X112650Y35867D01*
X112300Y36075D01*
X112050Y36367D01*
X112000Y36658D01*
X112100Y36950D01*
X112350Y37158D01*
G01X96206Y59875D02*
Y58694D01*
X98568D01*
Y59875D01*
X96206D01*
G01X109000Y68667D02*
X106000D01*
Y69708D01*
X106150Y70042D01*
X106350Y70250D01*
X106750Y70333D01*
X107150Y70250D01*
X107400Y70000D01*
X107550Y69708D01*
Y68667D01*
G01Y69708D02*
X109000Y70333D01*
G01X108650Y71692D02*
X108900Y71983D01*
X109000Y72317D01*
X108900Y72650D01*
X108600Y72942D01*
X108150Y73150D01*
X107700Y73233D01*
X107150D01*
X106700Y73150D01*
X106300Y72942D01*
X106100Y72692D01*
X106000Y72400D01*
X106100Y72067D01*
X106300Y71817D01*
X106600Y71650D01*
X107000Y71567D01*
X107350Y71650D01*
X107700Y71858D01*
X107900Y72108D01*
X107950Y72400D01*
X107850Y72733D01*
X107600Y72983D01*
X107150Y73233D01*
G01X109000Y75300D02*
X106000D01*
X106600Y74800D01*
G01X109000D02*
Y75800D01*
G01X107778Y67866D02*
X106597D01*
Y65504D01*
X107778D01*
Y67866D01*
G01X105000Y71067D02*
X102000D01*
Y72108D01*
X102150Y72442D01*
X102350Y72650D01*
X102750Y72733D01*
X103150Y72650D01*
X103400Y72400D01*
X103550Y72108D01*
Y71067D01*
G01Y72108D02*
X105000Y72733D01*
G01X104650Y74092D02*
X104900Y74383D01*
X105000Y74717D01*
X104900Y75050D01*
X104600Y75342D01*
X104150Y75550D01*
X103700Y75633D01*
X103150D01*
X102700Y75550D01*
X102300Y75342D01*
X102100Y75092D01*
X102000Y74800D01*
X102100Y74467D01*
X102300Y74217D01*
X102600Y74050D01*
X103000Y73967D01*
X103350Y74050D01*
X103700Y74258D01*
X103900Y74508D01*
X103950Y74800D01*
X103850Y75133D01*
X103600Y75383D01*
X103150Y75633D01*
G01X102000Y77700D02*
X102100Y77367D01*
X102350Y77117D01*
X102650Y76950D01*
X103050Y76825D01*
X103500Y76783D01*
X103950Y76825D01*
X104350Y76950D01*
X104650Y77117D01*
X104900Y77367D01*
X105000Y77700D01*
X104900Y78033D01*
X104650Y78283D01*
X104350Y78450D01*
X103950Y78575D01*
X103500Y78617D01*
X103050Y78575D01*
X102650Y78450D01*
X102350Y78283D01*
X102100Y78033D01*
X102000Y77700D01*
G01X104378Y69968D02*
X103197D01*
Y67606D01*
X104378D01*
Y69968D01*
G01X98787Y63768D02*
X99787Y62768D01*
Y64768D01*
X98787Y63768D01*
G01X95114Y62421D02*
Y69114D01*
X98461D01*
Y62421D01*
X95114D01*
G01X111767Y156500D02*
Y159500D01*
X112808D01*
X113142Y159350D01*
X113350Y159150D01*
X113433Y158750D01*
X113350Y158350D01*
X113100Y158100D01*
X112808Y157950D01*
X111767D01*
G01X112808D02*
X113433Y156500D01*
G01X114583Y156950D02*
X114833Y156700D01*
X115125Y156550D01*
X115500Y156500D01*
X115875Y156600D01*
X116167Y156800D01*
X116375Y157150D01*
X116417Y157550D01*
X116333Y157950D01*
X116125Y158200D01*
X115833Y158400D01*
X115542Y158450D01*
X115250Y158400D01*
X114875Y158200D01*
X115000Y159500D01*
X116125D01*
G01X118400Y156500D02*
X118692Y156550D01*
X119025Y156700D01*
X119233Y156950D01*
X119317Y157300D01*
X119233Y157650D01*
X118983Y157950D01*
X118608Y158100D01*
X118192D01*
X117942Y158200D01*
X117733Y158450D01*
X117650Y158800D01*
X117775Y159150D01*
X118067Y159400D01*
X118400Y159500D01*
X118733Y159400D01*
X119025Y159150D01*
X119150Y158800D01*
X119067Y158450D01*
X118858Y158200D01*
X118608Y158100D01*
X118192D01*
X117817Y157950D01*
X117567Y157650D01*
X117483Y157300D01*
X117567Y156950D01*
X117775Y156700D01*
X118108Y156550D01*
X118400Y156500D01*
G01X106121Y156919D02*
X110058D01*
Y158888D01*
X106121D01*
Y156919D01*
G01X111767Y161500D02*
Y164500D01*
X112808D01*
X113142Y164350D01*
X113350Y164150D01*
X113433Y163750D01*
X113350Y163350D01*
X113100Y163100D01*
X112808Y162950D01*
X111767D01*
G01X112808D02*
X113433Y161500D01*
G01X114583Y161950D02*
X114833Y161700D01*
X115125Y161550D01*
X115500Y161500D01*
X115875Y161600D01*
X116167Y161800D01*
X116375Y162150D01*
X116417Y162550D01*
X116333Y162950D01*
X116125Y163200D01*
X115833Y163400D01*
X115542Y163450D01*
X115250Y163400D01*
X114875Y163200D01*
X115000Y164500D01*
X116125D01*
G01X118900Y161500D02*
Y164500D01*
X117358Y162350D01*
X119442D01*
G01X106121Y161919D02*
X110058D01*
Y163888D01*
X106121D01*
Y161919D01*
G01X111767Y166500D02*
Y169500D01*
X112808D01*
X113142Y169350D01*
X113350Y169150D01*
X113433Y168750D01*
X113350Y168350D01*
X113100Y168100D01*
X112808Y167950D01*
X111767D01*
G01X112808D02*
X113433Y166500D01*
G01X114583Y166950D02*
X114833Y166700D01*
X115125Y166550D01*
X115500Y166500D01*
X115875Y166600D01*
X116167Y166800D01*
X116375Y167150D01*
X116417Y167550D01*
X116333Y167950D01*
X116125Y168200D01*
X115833Y168400D01*
X115542Y168450D01*
X115250Y168400D01*
X114875Y168200D01*
X115000Y169500D01*
X116125D01*
G01X117608Y169000D02*
X117858Y169300D01*
X118150Y169450D01*
X118483Y169500D01*
X118900Y169400D01*
X119192Y169150D01*
X119275Y168850D01*
X119233Y168550D01*
X119067Y168300D01*
X118233Y167800D01*
X117858Y167450D01*
X117608Y166950D01*
X117525Y166500D01*
X119275D01*
G01X106121Y166919D02*
X110058D01*
Y168888D01*
X106121D01*
Y166919D01*
G01X111667Y171400D02*
Y174400D01*
X112708D01*
X113042Y174250D01*
X113250Y174050D01*
X113333Y173650D01*
X113250Y173250D01*
X113000Y173000D01*
X112708Y172850D01*
X111667D01*
G01X112708D02*
X113333Y171400D01*
G01X114483Y171850D02*
X114733Y171600D01*
X115025Y171450D01*
X115400Y171400D01*
X115775Y171500D01*
X116067Y171700D01*
X116275Y172050D01*
X116317Y172450D01*
X116233Y172850D01*
X116025Y173100D01*
X115733Y173300D01*
X115442Y173350D01*
X115150Y173300D01*
X114775Y173100D01*
X114900Y174400D01*
X116025D01*
G01X118300D02*
X117967Y174300D01*
X117717Y174050D01*
X117550Y173750D01*
X117425Y173350D01*
X117383Y172900D01*
X117425Y172450D01*
X117550Y172050D01*
X117717Y171750D01*
X117967Y171500D01*
X118300Y171400D01*
X118633Y171500D01*
X118883Y171750D01*
X119050Y172050D01*
X119175Y172450D01*
X119217Y172900D01*
X119175Y173350D01*
X119050Y173750D01*
X118883Y174050D01*
X118633Y174300D01*
X118300Y174400D01*
G01X110058Y173888D02*
X106121D01*
Y171919D01*
X110058D01*
Y173888D01*
G01X100617Y180550D02*
X100367Y180700D01*
X100075Y180800D01*
X99742D01*
X99367Y180650D01*
X99075Y180400D01*
X98867Y180100D01*
X98700Y179600D01*
X98658Y179150D01*
X98742Y178700D01*
X98867Y178400D01*
X99117Y178100D01*
X99408Y177900D01*
X99700Y177800D01*
X99992D01*
X100283Y177900D01*
X100533Y178050D01*
X100742Y178250D01*
G01X102600Y177800D02*
Y180800D01*
X102100Y180200D01*
G01Y177800D02*
X103100D01*
G01X104708Y179050D02*
X105000Y179400D01*
X105250Y179600D01*
X105583Y179700D01*
X105875Y179600D01*
X106083Y179400D01*
X106250Y179100D01*
X106292Y178750D01*
X106250Y178450D01*
X106083Y178150D01*
X105833Y177900D01*
X105542Y177800D01*
X105208Y177900D01*
X104917Y178200D01*
X104750Y178650D01*
X104708Y179150D01*
X104792Y179800D01*
X104917Y180150D01*
X105125Y180500D01*
X105417Y180750D01*
X105708Y180800D01*
X106000Y180700D01*
X106208Y180450D01*
G01X97424Y179988D02*
X93487D01*
Y178019D01*
X97424D01*
Y179988D01*
G01X104267Y191500D02*
Y194500D01*
X105308D01*
X105642Y194350D01*
X105850Y194150D01*
X105933Y193750D01*
X105850Y193350D01*
X105600Y193100D01*
X105308Y192950D01*
X104267D01*
G01X105308D02*
X105933Y191500D01*
G01X108500D02*
Y194500D01*
X106958Y192350D01*
X109042D01*
G01X109983Y191950D02*
X110233Y191700D01*
X110525Y191550D01*
X110900Y191500D01*
X111275Y191600D01*
X111567Y191800D01*
X111775Y192150D01*
X111817Y192550D01*
X111733Y192950D01*
X111525Y193200D01*
X111233Y193400D01*
X110942Y193450D01*
X110650Y193400D01*
X110275Y193200D01*
X110400Y194500D01*
X111525D01*
G01X98432Y191996D02*
X102368D01*
Y193964D01*
X98432D01*
Y191996D01*
G01X104617Y236150D02*
X104367Y236300D01*
X104075Y236400D01*
X103742D01*
X103367Y236250D01*
X103075Y236000D01*
X102867Y235700D01*
X102700Y235200D01*
X102658Y234750D01*
X102742Y234300D01*
X102867Y234000D01*
X103117Y233700D01*
X103408Y233500D01*
X103700Y233400D01*
X103992D01*
X104283Y233500D01*
X104533Y233650D01*
X104742Y233850D01*
G01X106600Y233400D02*
Y236400D01*
X106100Y235800D01*
G01Y233400D02*
X107100D01*
G01X110000D02*
Y236400D01*
X108458Y234250D01*
X110542D01*
G01X110478Y412416D02*
Y409416D01*
G01X109519Y412416D02*
X111436D01*
G01X112544Y409416D02*
Y412416D01*
X113544D01*
X113878Y412266D01*
X114128Y411916D01*
X114211Y411516D01*
X114128Y411116D01*
X113919Y410816D01*
X113544Y410666D01*
X112544D01*
G01X116278Y409416D02*
Y412416D01*
X115778Y411816D01*
G01Y409416D02*
X116778D01*
G01X119178D02*
Y412416D01*
X118678Y411816D01*
G01Y409416D02*
X119678D01*
G01X122078D02*
Y412416D01*
X121578Y411816D01*
G01Y409416D02*
X122578D01*
G01X114500Y426267D02*
X111500D01*
Y427308D01*
X111650Y427642D01*
X111850Y427850D01*
X112250Y427933D01*
X112650Y427850D01*
X112900Y427600D01*
X113050Y427308D01*
Y426267D01*
G01Y427308D02*
X114500Y427933D01*
G01X113900Y429083D02*
X114250Y429333D01*
X114450Y429667D01*
X114500Y430042D01*
X114450Y430375D01*
X114200Y430708D01*
X113900Y430917D01*
X113600Y430958D01*
X113250Y430875D01*
X113000Y430583D01*
X112900Y430292D01*
Y429917D01*
G01Y430292D02*
X112750Y430542D01*
X112500Y430750D01*
X112200Y430833D01*
X111900Y430750D01*
X111650Y430542D01*
X111500Y430167D01*
X111550Y429792D01*
X111750Y429417D01*
G01X114500Y433400D02*
X111500D01*
X113650Y431858D01*
Y433942D01*
G01X105286Y433662D02*
Y425788D01*
X110207D01*
Y433662D01*
X105286D01*
G01X101954Y471052D02*
Y474052D01*
X102996D01*
X103329Y473902D01*
X103537Y473702D01*
X103621Y473302D01*
X103537Y472902D01*
X103287Y472652D01*
X102996Y472502D01*
X101954D01*
G01X102996D02*
X103621Y471052D01*
G01X104771Y471652D02*
X105021Y471302D01*
X105354Y471102D01*
X105729Y471052D01*
X106062Y471102D01*
X106396Y471352D01*
X106604Y471652D01*
X106646Y471952D01*
X106562Y472302D01*
X106271Y472552D01*
X105979Y472652D01*
X105604D01*
G01X105979D02*
X106229Y472802D01*
X106437Y473052D01*
X106521Y473352D01*
X106437Y473652D01*
X106229Y473902D01*
X105854Y474052D01*
X105479Y474002D01*
X105104Y473802D01*
G01X107796Y473552D02*
X108046Y473852D01*
X108337Y474002D01*
X108671Y474052D01*
X109087Y473952D01*
X109379Y473702D01*
X109462Y473402D01*
X109421Y473102D01*
X109254Y472852D01*
X108421Y472352D01*
X108046Y472002D01*
X107796Y471502D01*
X107712Y471052D01*
X109462D01*
G01X108837Y470009D02*
X102538D01*
Y466761D01*
X108837D01*
Y470009D01*
G01X101754Y480852D02*
Y483852D01*
X102796D01*
X103129Y483702D01*
X103337Y483502D01*
X103421Y483102D01*
X103337Y482702D01*
X103087Y482452D01*
X102796Y482302D01*
X101754D01*
G01X102796D02*
X103421Y480852D01*
G01X104571Y481452D02*
X104821Y481102D01*
X105154Y480902D01*
X105529Y480852D01*
X105862Y480902D01*
X106196Y481152D01*
X106404Y481452D01*
X106446Y481752D01*
X106362Y482102D01*
X106071Y482352D01*
X105779Y482452D01*
X105404D01*
G01X105779D02*
X106029Y482602D01*
X106237Y482852D01*
X106321Y483152D01*
X106237Y483452D01*
X106029Y483702D01*
X105654Y483852D01*
X105279Y483802D01*
X104904Y483602D01*
G01X108387Y480852D02*
Y483852D01*
X107887Y483252D01*
G01Y480852D02*
X108887D01*
G01X108637Y479809D02*
X102338D01*
Y476561D01*
X108637D01*
Y479809D01*
G01X101754Y490852D02*
Y493852D01*
X102796D01*
X103129Y493702D01*
X103337Y493502D01*
X103421Y493102D01*
X103337Y492702D01*
X103087Y492452D01*
X102796Y492302D01*
X101754D01*
G01X102796D02*
X103421Y490852D01*
G01X104696Y493352D02*
X104946Y493652D01*
X105237Y493802D01*
X105571Y493852D01*
X105987Y493752D01*
X106279Y493502D01*
X106362Y493202D01*
X106321Y492902D01*
X106154Y492652D01*
X105321Y492152D01*
X104946Y491802D01*
X104696Y491302D01*
X104612Y490852D01*
X106362D01*
G01X107679Y491202D02*
X107971Y490952D01*
X108304Y490852D01*
X108637Y490952D01*
X108929Y491252D01*
X109137Y491702D01*
X109221Y492152D01*
Y492702D01*
X109137Y493152D01*
X108929Y493552D01*
X108679Y493752D01*
X108387Y493852D01*
X108054Y493752D01*
X107804Y493552D01*
X107637Y493252D01*
X107554Y492852D01*
X107637Y492502D01*
X107846Y492152D01*
X108096Y491952D01*
X108387Y491902D01*
X108721Y492002D01*
X108971Y492252D01*
X109221Y492702D01*
G01X108637Y489809D02*
X102338D01*
Y486561D01*
X108637D01*
Y489809D01*
G01X101754Y500352D02*
Y503352D01*
X102796D01*
X103129Y503202D01*
X103337Y503002D01*
X103421Y502602D01*
X103337Y502202D01*
X103087Y501952D01*
X102796Y501802D01*
X101754D01*
G01X102796D02*
X103421Y500352D01*
G01X104696Y502852D02*
X104946Y503152D01*
X105237Y503302D01*
X105571Y503352D01*
X105987Y503252D01*
X106279Y503002D01*
X106362Y502702D01*
X106321Y502402D01*
X106154Y502152D01*
X105321Y501652D01*
X104946Y501302D01*
X104696Y500802D01*
X104612Y500352D01*
X106362D01*
G01X108304D02*
X108387Y501002D01*
X108512Y501552D01*
X108679Y502052D01*
X108887Y502602D01*
X109221Y503352D01*
X107554D01*
G01X108637Y499309D02*
X102338D01*
Y496061D01*
X108637D01*
Y499309D01*
G01X102654Y518755D02*
Y521755D01*
X103696D01*
X104029Y521605D01*
X104237Y521405D01*
X104321Y521005D01*
X104237Y520605D01*
X103987Y520355D01*
X103696Y520205D01*
X102654D01*
G01X103696D02*
X104321Y518755D01*
G01X105596Y521255D02*
X105846Y521555D01*
X106137Y521705D01*
X106471Y521755D01*
X106887Y521655D01*
X107179Y521405D01*
X107262Y521105D01*
X107221Y520805D01*
X107054Y520555D01*
X106221Y520055D01*
X105846Y519705D01*
X105596Y519205D01*
X105512Y518755D01*
X107262D01*
G01X108371Y519355D02*
X108621Y519005D01*
X108954Y518805D01*
X109329Y518755D01*
X109662Y518805D01*
X109996Y519055D01*
X110204Y519355D01*
X110246Y519655D01*
X110162Y520005D01*
X109871Y520255D01*
X109579Y520355D01*
X109204D01*
G01X109579D02*
X109829Y520505D01*
X110037Y520755D01*
X110121Y521055D01*
X110037Y521355D01*
X109829Y521605D01*
X109454Y521755D01*
X109079Y521705D01*
X108704Y521505D01*
G01X108158Y517605D02*
X104217D01*
Y515645D01*
X108158D01*
Y517605D01*
G01X106717Y576600D02*
X106925Y576300D01*
X107175Y576100D01*
X107467Y576000D01*
X107800Y576100D01*
X108050Y576300D01*
X108300Y576600D01*
X108383Y577000D01*
Y579000D01*
G01X110450Y576000D02*
Y579000D01*
X109950Y578400D01*
G01Y576000D02*
X110950D01*
G01X107517Y622190D02*
Y625190D01*
X108558D01*
X108892Y625040D01*
X109100Y624840D01*
X109183Y624440D01*
X109100Y624040D01*
X108850Y623790D01*
X108558Y623640D01*
X107517D01*
G01X108558D02*
X109183Y622190D01*
G01X111167D02*
X111250Y622840D01*
X111375Y623390D01*
X111542Y623890D01*
X111750Y624440D01*
X112083Y625190D01*
X110417D01*
G01X107517Y632571D02*
Y635571D01*
X108558D01*
X108892Y635420D01*
X109100Y635221D01*
X109183Y634821D01*
X109100Y634421D01*
X108850Y634171D01*
X108558Y634021D01*
X107517D01*
G01X108558D02*
X109183Y632571D01*
G01X110333Y633020D02*
X110583Y632771D01*
X110875Y632621D01*
X111250Y632571D01*
X111625Y632671D01*
X111917Y632870D01*
X112125Y633221D01*
X112167Y633621D01*
X112083Y634021D01*
X111875Y634271D01*
X111583Y634471D01*
X111292Y634520D01*
X111000Y634471D01*
X110625Y634271D01*
X110750Y635571D01*
X111875D01*
G01X107517Y642951D02*
Y645951D01*
X108558D01*
X108892Y645801D01*
X109100Y645601D01*
X109183Y645201D01*
X109100Y644801D01*
X108850Y644551D01*
X108558Y644401D01*
X107517D01*
G01X108558D02*
X109183Y642951D01*
G01X110458Y645451D02*
X110708Y645751D01*
X111000Y645901D01*
X111333Y645951D01*
X111750Y645851D01*
X112042Y645601D01*
X112125Y645301D01*
X112083Y645001D01*
X111917Y644751D01*
X111083Y644251D01*
X110708Y643901D01*
X110458Y643401D01*
X110375Y642951D01*
X112125D01*
G01X120156Y66998D02*
X174656D01*
Y7498D01*
X119656D01*
Y66998D01*
X120156D01*
G01X115687Y32085D02*
X116687Y31085D01*
Y33085D01*
X115687Y32085D01*
G01X135017Y75550D02*
X134767Y75700D01*
X134475Y75800D01*
X134142D01*
X133767Y75650D01*
X133475Y75400D01*
X133267Y75100D01*
X133100Y74600D01*
X133058Y74150D01*
X133142Y73700D01*
X133267Y73400D01*
X133517Y73100D01*
X133808Y72900D01*
X134100Y72800D01*
X134392D01*
X134683Y72900D01*
X134933Y73050D01*
X135142Y73250D01*
G01X137000Y72800D02*
Y75800D01*
X136500Y75200D01*
G01Y72800D02*
X137500D01*
G01X139192Y73150D02*
X139483Y72900D01*
X139817Y72800D01*
X140150Y72900D01*
X140442Y73200D01*
X140650Y73650D01*
X140733Y74100D01*
Y74650D01*
X140650Y75100D01*
X140442Y75500D01*
X140192Y75700D01*
X139900Y75800D01*
X139567Y75700D01*
X139317Y75500D01*
X139150Y75200D01*
X139067Y74800D01*
X139150Y74450D01*
X139358Y74100D01*
X139608Y73900D01*
X139900Y73850D01*
X140233Y73950D01*
X140483Y74200D01*
X140733Y74650D01*
G01X130500Y84767D02*
X127500D01*
Y85808D01*
X127650Y86142D01*
X127850Y86350D01*
X128250Y86433D01*
X128650Y86350D01*
X128900Y86100D01*
X129050Y85808D01*
Y84767D01*
G01Y85808D02*
X130500Y86433D01*
G01Y88500D02*
X130450Y88792D01*
X130300Y89125D01*
X130050Y89333D01*
X129700Y89417D01*
X129350Y89333D01*
X129050Y89083D01*
X128900Y88708D01*
Y88292D01*
X128800Y88042D01*
X128550Y87833D01*
X128200Y87750D01*
X127850Y87875D01*
X127600Y88167D01*
X127500Y88500D01*
X127600Y88833D01*
X127850Y89125D01*
X128200Y89250D01*
X128550Y89167D01*
X128800Y88958D01*
X128900Y88708D01*
Y88292D01*
X129050Y87917D01*
X129350Y87667D01*
X129700Y87583D01*
X130050Y87667D01*
X130300Y87875D01*
X130450Y88208D01*
X130500Y88500D01*
G01X130150Y90692D02*
X130400Y90983D01*
X130500Y91317D01*
X130400Y91650D01*
X130100Y91942D01*
X129650Y92150D01*
X129200Y92233D01*
X128650D01*
X128200Y92150D01*
X127800Y91942D01*
X127600Y91692D01*
X127500Y91400D01*
X127600Y91067D01*
X127800Y90817D01*
X128100Y90650D01*
X128500Y90567D01*
X128850Y90650D01*
X129200Y90858D01*
X129400Y91108D01*
X129450Y91400D01*
X129350Y91733D01*
X129100Y91983D01*
X128650Y92233D01*
G01X127030Y83873D02*
Y79936D01*
X128998D01*
Y83873D01*
X127030D01*
G01X120000Y77267D02*
X117000D01*
Y78308D01*
X117150Y78642D01*
X117350Y78850D01*
X117750Y78933D01*
X118150Y78850D01*
X118400Y78600D01*
X118550Y78308D01*
Y77267D01*
G01Y78308D02*
X120000Y78933D01*
G01Y81000D02*
X119950Y81292D01*
X119800Y81625D01*
X119550Y81833D01*
X119200Y81917D01*
X118850Y81833D01*
X118550Y81583D01*
X118400Y81208D01*
Y80792D01*
X118300Y80542D01*
X118050Y80333D01*
X117700Y80250D01*
X117350Y80375D01*
X117100Y80667D01*
X117000Y81000D01*
X117100Y81333D01*
X117350Y81625D01*
X117700Y81750D01*
X118050Y81667D01*
X118300Y81458D01*
X118400Y81208D01*
Y80792D01*
X118550Y80417D01*
X118850Y80167D01*
X119200Y80083D01*
X119550Y80167D01*
X119800Y80375D01*
X119950Y80708D01*
X120000Y81000D01*
G01Y83900D02*
X119950Y84192D01*
X119800Y84525D01*
X119550Y84733D01*
X119200Y84817D01*
X118850Y84733D01*
X118550Y84483D01*
X118400Y84108D01*
Y83692D01*
X118300Y83442D01*
X118050Y83233D01*
X117700Y83150D01*
X117350Y83275D01*
X117100Y83567D01*
X117000Y83900D01*
X117100Y84233D01*
X117350Y84525D01*
X117700Y84650D01*
X118050Y84567D01*
X118300Y84358D01*
X118400Y84108D01*
Y83692D01*
X118550Y83317D01*
X118850Y83067D01*
X119200Y82983D01*
X119550Y83067D01*
X119800Y83275D01*
X119950Y83608D01*
X120000Y83900D01*
G01X123699Y79936D02*
Y83873D01*
X121730D01*
Y79936D01*
X123699D01*
G01X134517Y89250D02*
X134267Y89400D01*
X133975Y89500D01*
X133642D01*
X133267Y89350D01*
X132975Y89100D01*
X132767Y88800D01*
X132600Y88300D01*
X132558Y87850D01*
X132642Y87400D01*
X132767Y87100D01*
X133017Y86800D01*
X133308Y86600D01*
X133600Y86500D01*
X133892D01*
X134183Y86600D01*
X134433Y86750D01*
X134642Y86950D01*
G01X136500Y86500D02*
Y89500D01*
X136000Y88900D01*
G01Y86500D02*
X137000D01*
G01X139400D02*
X139692Y86550D01*
X140025Y86700D01*
X140233Y86950D01*
X140317Y87300D01*
X140233Y87650D01*
X139983Y87950D01*
X139608Y88100D01*
X139192D01*
X138942Y88200D01*
X138733Y88450D01*
X138650Y88800D01*
X138775Y89150D01*
X139067Y89400D01*
X139400Y89500D01*
X139733Y89400D01*
X140025Y89150D01*
X140150Y88800D01*
X140067Y88450D01*
X139858Y88200D01*
X139608Y88100D01*
X139192D01*
X138817Y87950D01*
X138567Y87650D01*
X138483Y87300D01*
X138567Y86950D01*
X138775Y86700D01*
X139108Y86550D01*
X139400Y86500D01*
G01X139975Y85660D02*
X133676D01*
Y82510D01*
X139975D01*
Y85660D01*
G01X115700Y102000D02*
Y99000D01*
G01X114742Y102000D02*
X116658D01*
G01X117767Y99000D02*
Y102000D01*
X118767D01*
X119100Y101850D01*
X119350Y101500D01*
X119433Y101100D01*
X119350Y100700D01*
X119142Y100400D01*
X118767Y100250D01*
X117767D01*
G01X121500Y99000D02*
Y102000D01*
X121000Y101400D01*
G01Y99000D02*
X122000D01*
G01X124400Y102000D02*
X124067Y101900D01*
X123817Y101650D01*
X123650Y101350D01*
X123525Y100950D01*
X123483Y100500D01*
X123525Y100050D01*
X123650Y99650D01*
X123817Y99350D01*
X124067Y99100D01*
X124400Y99000D01*
X124733Y99100D01*
X124983Y99350D01*
X125150Y99650D01*
X125275Y100050D01*
X125317Y100500D01*
X125275Y100950D01*
X125150Y101350D01*
X124983Y101650D01*
X124733Y101900D01*
X124400Y102000D01*
G01X126383Y99600D02*
X126633Y99250D01*
X126967Y99050D01*
X127342Y99000D01*
X127675Y99050D01*
X128008Y99300D01*
X128217Y99600D01*
X128258Y99900D01*
X128175Y100250D01*
X127883Y100500D01*
X127592Y100600D01*
X127217D01*
G01X127592D02*
X127842Y100750D01*
X128050Y101000D01*
X128133Y101300D01*
X128050Y101600D01*
X127842Y101850D01*
X127467Y102000D01*
X127092Y101950D01*
X126717Y101750D01*
G01X133074Y132805D02*
Y135805D01*
X134116D01*
X134449Y135655D01*
X134657Y135455D01*
X134741Y135055D01*
X134657Y134655D01*
X134407Y134405D01*
X134116Y134255D01*
X133074D01*
G01X134116D02*
X134741Y132805D01*
G01X136016Y134055D02*
X136307Y134405D01*
X136557Y134605D01*
X136891Y134705D01*
X137182Y134605D01*
X137391Y134405D01*
X137557Y134105D01*
X137599Y133755D01*
X137557Y133455D01*
X137391Y133155D01*
X137141Y132905D01*
X136849Y132805D01*
X136516Y132905D01*
X136224Y133205D01*
X136057Y133655D01*
X136016Y134155D01*
X136099Y134805D01*
X136224Y135155D01*
X136432Y135505D01*
X136724Y135755D01*
X137016Y135805D01*
X137307Y135705D01*
X137516Y135455D01*
G01X139624Y132805D02*
X139707Y133455D01*
X139832Y134005D01*
X139999Y134505D01*
X140207Y135055D01*
X140541Y135805D01*
X138874D01*
G01X134133Y126500D02*
Y129500D01*
X134967D01*
X135300Y129350D01*
X135550Y129150D01*
X135758Y128850D01*
X135925Y128500D01*
X135967Y128000D01*
X135925Y127500D01*
X135758Y127150D01*
X135550Y126850D01*
X135300Y126650D01*
X134967Y126500D01*
X134133D01*
G01X137242Y126850D02*
X137533Y126600D01*
X137867Y126500D01*
X138200Y126600D01*
X138492Y126900D01*
X138700Y127350D01*
X138783Y127800D01*
Y128350D01*
X138700Y128800D01*
X138492Y129200D01*
X138242Y129400D01*
X137950Y129500D01*
X137617Y129400D01*
X137367Y129200D01*
X137200Y128900D01*
X137117Y128500D01*
X137200Y128150D01*
X137408Y127800D01*
X137658Y127600D01*
X137950Y127550D01*
X138283Y127650D01*
X138533Y127900D01*
X138783Y128350D01*
G01X134824Y150155D02*
X134574Y150305D01*
X134282Y150405D01*
X133949D01*
X133574Y150255D01*
X133282Y150005D01*
X133074Y149705D01*
X132907Y149205D01*
X132866Y148755D01*
X132949Y148305D01*
X133074Y148005D01*
X133324Y147705D01*
X133616Y147505D01*
X133907Y147405D01*
X134199D01*
X134491Y147505D01*
X134741Y147655D01*
X134949Y147855D01*
G01X136807Y147405D02*
Y150405D01*
X136307Y149805D01*
G01Y147405D02*
X137307D01*
G01X139624D02*
X139707Y148055D01*
X139832Y148605D01*
X139999Y149105D01*
X140207Y149655D01*
X140541Y150405D01*
X138874D01*
G01X133074Y137805D02*
Y140805D01*
X134116D01*
X134449Y140655D01*
X134657Y140455D01*
X134741Y140055D01*
X134657Y139655D01*
X134407Y139405D01*
X134116Y139255D01*
X133074D01*
G01X134116D02*
X134741Y137805D01*
G01X136016Y139055D02*
X136307Y139405D01*
X136557Y139605D01*
X136891Y139705D01*
X137182Y139605D01*
X137391Y139405D01*
X137557Y139105D01*
X137599Y138755D01*
X137557Y138455D01*
X137391Y138155D01*
X137141Y137905D01*
X136849Y137805D01*
X136516Y137905D01*
X136224Y138205D01*
X136057Y138655D01*
X136016Y139155D01*
X136099Y139805D01*
X136224Y140155D01*
X136432Y140505D01*
X136724Y140755D01*
X137016Y140805D01*
X137307Y140705D01*
X137516Y140455D01*
G01X138791Y138255D02*
X139041Y138005D01*
X139332Y137855D01*
X139707Y137805D01*
X140082Y137905D01*
X140374Y138105D01*
X140582Y138455D01*
X140624Y138855D01*
X140541Y139255D01*
X140332Y139505D01*
X140041Y139705D01*
X139749Y139755D01*
X139457Y139705D01*
X139082Y139505D01*
X139207Y140805D01*
X140332D01*
G01X133074Y142405D02*
Y145405D01*
X134116D01*
X134449Y145255D01*
X134657Y145055D01*
X134741Y144655D01*
X134657Y144255D01*
X134407Y144005D01*
X134116Y143855D01*
X133074D01*
G01X134116D02*
X134741Y142405D01*
G01X136016Y143655D02*
X136307Y144005D01*
X136557Y144205D01*
X136891Y144305D01*
X137182Y144205D01*
X137391Y144005D01*
X137557Y143705D01*
X137599Y143355D01*
X137557Y143055D01*
X137391Y142755D01*
X137141Y142505D01*
X136849Y142405D01*
X136516Y142505D01*
X136224Y142805D01*
X136057Y143255D01*
X136016Y143755D01*
X136099Y144405D01*
X136224Y144755D01*
X136432Y145105D01*
X136724Y145355D01*
X137016Y145405D01*
X137307Y145305D01*
X137516Y145055D01*
G01X140207Y142405D02*
Y145405D01*
X138666Y143255D01*
X140749D01*
G01X126700Y219800D02*
Y216800D01*
G01X125742Y219800D02*
X127658D01*
G01X128767Y216800D02*
Y219800D01*
X129767D01*
X130100Y219650D01*
X130350Y219300D01*
X130433Y218900D01*
X130350Y218500D01*
X130142Y218200D01*
X129767Y218050D01*
X128767D01*
G01X131708Y219300D02*
X131958Y219600D01*
X132250Y219750D01*
X132583Y219800D01*
X133000Y219700D01*
X133292Y219450D01*
X133375Y219150D01*
X133333Y218850D01*
X133167Y218600D01*
X132333Y218100D01*
X131958Y217750D01*
X131708Y217250D01*
X131625Y216800D01*
X133375D01*
G01X131074Y225045D02*
G03I-3506J0D01*
G01X126017Y233945D02*
X128517D01*
G01X129329Y233995D02*
G03I-2062J0D01*
G01X123817Y282550D02*
X123567Y282700D01*
X123275Y282800D01*
X122942D01*
X122567Y282650D01*
X122275Y282400D01*
X122067Y282100D01*
X121900Y281600D01*
X121858Y281150D01*
X121942Y280700D01*
X122067Y280400D01*
X122317Y280100D01*
X122608Y279900D01*
X122900Y279800D01*
X123192D01*
X123483Y279900D01*
X123733Y280050D01*
X123942Y280250D01*
G01X125800Y279800D02*
Y282800D01*
X125300Y282200D01*
G01Y279800D02*
X126300D01*
G01X127908Y282300D02*
X128158Y282600D01*
X128450Y282750D01*
X128783Y282800D01*
X129200Y282700D01*
X129492Y282450D01*
X129575Y282150D01*
X129533Y281850D01*
X129367Y281600D01*
X128533Y281100D01*
X128158Y280750D01*
X127908Y280250D01*
X127825Y279800D01*
X129575D01*
G01X128006Y285699D02*
X124069D01*
Y283730D01*
X128006D01*
Y285699D01*
G01X122067Y293600D02*
Y296600D01*
X123108D01*
X123442Y296450D01*
X123650Y296250D01*
X123733Y295850D01*
X123650Y295450D01*
X123400Y295200D01*
X123108Y295050D01*
X122067D01*
G01X123108D02*
X123733Y293600D01*
G01X124883Y294200D02*
X125133Y293850D01*
X125467Y293650D01*
X125842Y293600D01*
X126175Y293650D01*
X126508Y293900D01*
X126717Y294200D01*
X126758Y294500D01*
X126675Y294850D01*
X126383Y295100D01*
X126092Y295200D01*
X125717D01*
G01X126092D02*
X126342Y295350D01*
X126550Y295600D01*
X126633Y295900D01*
X126550Y296200D01*
X126342Y296450D01*
X125967Y296600D01*
X125592Y296550D01*
X125217Y296350D01*
G01X128617Y293600D02*
X128700Y294250D01*
X128825Y294800D01*
X128992Y295300D01*
X129200Y295850D01*
X129533Y296600D01*
X127867D01*
G01X129167Y292640D02*
X122868D01*
Y289490D01*
X129167D01*
Y292640D01*
G01X128800Y372600D02*
Y367800D01*
G01X126200Y370400D02*
X131200D01*
G01X128327Y520414D02*
Y495816D01*
X149028D01*
Y520414D01*
X128327D01*
G01X130627Y539515D02*
Y542515D01*
X132210D01*
G01X131627Y541065D02*
X130627D01*
G01X134318Y539515D02*
Y542515D01*
X133818Y541915D01*
G01Y539515D02*
X134818D01*
G01X126124Y549172D02*
Y531258D01*
X138880D01*
Y549172D01*
X126124D01*
G01X126824Y561163D02*
X127074Y561463D01*
X127366Y561613D01*
X127699Y561663D01*
X128116Y561563D01*
X128407Y561313D01*
X128491Y561013D01*
X128449Y560713D01*
X128282Y560463D01*
X127449Y559963D01*
X127074Y559613D01*
X126824Y559113D01*
X126741Y558663D01*
X128491D01*
G01X130516Y561663D02*
X130182Y561563D01*
X129932Y561313D01*
X129766Y561013D01*
X129641Y560613D01*
X129599Y560163D01*
X129641Y559713D01*
X129766Y559313D01*
X129932Y559013D01*
X130182Y558763D01*
X130516Y558663D01*
X130849Y558763D01*
X131099Y559013D01*
X131266Y559313D01*
X131391Y559713D01*
X131432Y560163D01*
X131391Y560613D01*
X131266Y561013D01*
X131099Y561313D01*
X130849Y561563D01*
X130516Y561663D01*
G01X127650Y590200D02*
Y593200D01*
X126108Y591050D01*
X128192D01*
G01X130050Y593200D02*
X129717Y593100D01*
X129467Y592850D01*
X129300Y592550D01*
X129175Y592150D01*
X129133Y591700D01*
X129175Y591250D01*
X129300Y590850D01*
X129467Y590550D01*
X129717Y590300D01*
X130050Y590200D01*
X130383Y590300D01*
X130633Y590550D01*
X130800Y590850D01*
X130925Y591250D01*
X130967Y591700D01*
X130925Y592150D01*
X130800Y592550D01*
X130633Y592850D01*
X130383Y593100D01*
X130050Y593200D01*
G01X155500Y7000D02*
X153000Y4500D01*
X158000D01*
X155500Y7000D01*
G01X155388Y23000D02*
G03I-788J0D01*
G01X145817Y40750D02*
X145567Y40900D01*
X145275Y41000D01*
X144942D01*
X144567Y40850D01*
X144275Y40600D01*
X144067Y40300D01*
X143900Y39800D01*
X143858Y39350D01*
X143942Y38900D01*
X144067Y38600D01*
X144317Y38300D01*
X144608Y38100D01*
X144900Y38000D01*
X145192D01*
X145483Y38100D01*
X145733Y38250D01*
X145942Y38450D01*
G01X146842Y38000D02*
Y41000D01*
X148758Y38000D01*
Y41000D01*
G01X150700Y38000D02*
Y41000D01*
X150200Y40400D01*
G01Y38000D02*
X151200D01*
G01X152726Y70862D02*
X149726D01*
Y71903D01*
X149877Y72236D01*
X150076Y72445D01*
X150476Y72528D01*
X150876Y72445D01*
X151126Y72195D01*
X151276Y71903D01*
Y70862D01*
G01Y71903D02*
X152726Y72528D01*
G01Y74595D02*
X152677Y74886D01*
X152526Y75220D01*
X152277Y75428D01*
X151926Y75512D01*
X151577Y75428D01*
X151276Y75178D01*
X151126Y74803D01*
Y74386D01*
X151027Y74136D01*
X150777Y73928D01*
X150427Y73845D01*
X150076Y73970D01*
X149827Y74261D01*
X149726Y74595D01*
X149827Y74928D01*
X150076Y75220D01*
X150427Y75345D01*
X150777Y75261D01*
X151027Y75053D01*
X151126Y74803D01*
Y74386D01*
X151276Y74012D01*
X151577Y73762D01*
X151926Y73678D01*
X152277Y73762D01*
X152526Y73970D01*
X152677Y74303D01*
X152726Y74595D01*
G01X151477Y76703D02*
X151126Y76995D01*
X150926Y77245D01*
X150827Y77578D01*
X150926Y77870D01*
X151126Y78078D01*
X151427Y78245D01*
X151776Y78286D01*
X152076Y78245D01*
X152377Y78078D01*
X152627Y77828D01*
X152726Y77536D01*
X152627Y77203D01*
X152327Y76912D01*
X151876Y76745D01*
X151376Y76703D01*
X150727Y76786D01*
X150377Y76912D01*
X150027Y77120D01*
X149777Y77411D01*
X149726Y77703D01*
X149827Y77995D01*
X150076Y78203D01*
G01X157691Y70862D02*
X154691D01*
Y71903D01*
X154841Y72236D01*
X155041Y72445D01*
X155441Y72528D01*
X155841Y72445D01*
X156091Y72195D01*
X156241Y71903D01*
Y70862D01*
G01Y71903D02*
X157691Y72528D01*
G01Y74595D02*
X157641Y74886D01*
X157491Y75220D01*
X157241Y75428D01*
X156891Y75512D01*
X156541Y75428D01*
X156241Y75178D01*
X156091Y74803D01*
Y74386D01*
X155991Y74136D01*
X155741Y73928D01*
X155391Y73845D01*
X155041Y73970D01*
X154791Y74261D01*
X154691Y74595D01*
X154791Y74928D01*
X155041Y75220D01*
X155391Y75345D01*
X155741Y75261D01*
X155991Y75053D01*
X156091Y74803D01*
Y74386D01*
X156241Y74012D01*
X156541Y73762D01*
X156891Y73678D01*
X157241Y73762D01*
X157491Y73970D01*
X157641Y74303D01*
X157691Y74595D01*
G01Y77411D02*
X157041Y77495D01*
X156491Y77620D01*
X155991Y77786D01*
X155441Y77995D01*
X154691Y78328D01*
Y76662D01*
G01X147726Y70862D02*
X144726D01*
Y71903D01*
X144877Y72236D01*
X145076Y72445D01*
X145476Y72528D01*
X145876Y72445D01*
X146126Y72195D01*
X146276Y71903D01*
Y70862D01*
G01Y71903D02*
X147726Y72528D01*
G01Y74595D02*
X147676Y74886D01*
X147526Y75220D01*
X147277Y75428D01*
X146926Y75512D01*
X146577Y75428D01*
X146276Y75178D01*
X146126Y74803D01*
Y74386D01*
X146027Y74136D01*
X145777Y73928D01*
X145426Y73845D01*
X145076Y73970D01*
X144826Y74261D01*
X144726Y74595D01*
X144826Y74928D01*
X145076Y75220D01*
X145426Y75345D01*
X145777Y75261D01*
X146027Y75053D01*
X146126Y74803D01*
Y74386D01*
X146276Y74012D01*
X146577Y73762D01*
X146926Y73678D01*
X147277Y73762D01*
X147526Y73970D01*
X147676Y74303D01*
X147726Y74595D01*
G01X147277Y76578D02*
X147526Y76828D01*
X147676Y77120D01*
X147726Y77495D01*
X147627Y77870D01*
X147427Y78161D01*
X147076Y78370D01*
X146676Y78412D01*
X146276Y78328D01*
X146027Y78120D01*
X145826Y77828D01*
X145777Y77536D01*
X145826Y77245D01*
X146027Y76870D01*
X144726Y76995D01*
Y78120D01*
G01X138794Y79069D02*
X134857D01*
Y77100D01*
X138794D01*
Y79069D01*
G01X150242Y83963D02*
Y80026D01*
X152211D01*
Y83963D01*
X150242D01*
G01X145242D02*
Y80026D01*
X147211D01*
Y83963D01*
X145242D01*
G01Y94053D02*
Y90116D01*
X147211D01*
Y94053D01*
X145242D01*
G01X152211Y90116D02*
Y94053D01*
X150242D01*
Y90116D01*
X152211D01*
G01X147600Y95267D02*
X144600D01*
Y96308D01*
X144750Y96642D01*
X144950Y96850D01*
X145350Y96933D01*
X145750Y96850D01*
X146000Y96600D01*
X146150Y96308D01*
Y95267D01*
G01Y96308D02*
X147600Y96933D01*
G01Y99000D02*
X147550Y99292D01*
X147400Y99625D01*
X147150Y99833D01*
X146800Y99917D01*
X146450Y99833D01*
X146150Y99583D01*
X146000Y99208D01*
Y98792D01*
X145900Y98542D01*
X145650Y98333D01*
X145300Y98250D01*
X144950Y98375D01*
X144700Y98667D01*
X144600Y99000D01*
X144700Y99333D01*
X144950Y99625D01*
X145300Y99750D01*
X145650Y99667D01*
X145900Y99458D01*
X146000Y99208D01*
Y98792D01*
X146150Y98417D01*
X146450Y98167D01*
X146800Y98083D01*
X147150Y98167D01*
X147400Y98375D01*
X147550Y98708D01*
X147600Y99000D01*
G01X145100Y101108D02*
X144800Y101358D01*
X144650Y101650D01*
X144600Y101983D01*
X144700Y102400D01*
X144950Y102692D01*
X145250Y102775D01*
X145550Y102733D01*
X145800Y102567D01*
X146300Y101733D01*
X146650Y101358D01*
X147150Y101108D01*
X147600Y101025D01*
Y102775D01*
G01X152600Y95267D02*
X149600D01*
Y96308D01*
X149750Y96642D01*
X149950Y96850D01*
X150350Y96933D01*
X150750Y96850D01*
X151000Y96600D01*
X151150Y96308D01*
Y95267D01*
G01Y96308D02*
X152600Y96933D01*
G01Y99000D02*
X152550Y99292D01*
X152400Y99625D01*
X152150Y99833D01*
X151800Y99917D01*
X151450Y99833D01*
X151150Y99583D01*
X151000Y99208D01*
Y98792D01*
X150900Y98542D01*
X150650Y98333D01*
X150300Y98250D01*
X149950Y98375D01*
X149700Y98667D01*
X149600Y99000D01*
X149700Y99333D01*
X149950Y99625D01*
X150300Y99750D01*
X150650Y99667D01*
X150900Y99458D01*
X151000Y99208D01*
Y98792D01*
X151150Y98417D01*
X151450Y98167D01*
X151800Y98083D01*
X152150Y98167D01*
X152400Y98375D01*
X152550Y98708D01*
X152600Y99000D01*
G01X152000Y100983D02*
X152350Y101233D01*
X152550Y101567D01*
X152600Y101942D01*
X152550Y102275D01*
X152300Y102608D01*
X152000Y102817D01*
X151700Y102858D01*
X151350Y102775D01*
X151100Y102483D01*
X151000Y102192D01*
Y101817D01*
G01Y102192D02*
X150850Y102442D01*
X150600Y102650D01*
X150300Y102733D01*
X150000Y102650D01*
X149750Y102442D01*
X149600Y102067D01*
X149650Y101692D01*
X149850Y101317D01*
G01X141839Y132920D02*
X145776D01*
Y134889D01*
X141839D01*
Y132920D01*
G01X144307Y126405D02*
Y129405D01*
G01X145557Y126155D02*
X140057D01*
Y129655D01*
X145557D01*
Y126155D01*
G01X145776Y149889D02*
X141839D01*
Y147920D01*
X145776D01*
Y149889D01*
G01X155400Y147067D02*
X152400D01*
Y148108D01*
X152550Y148442D01*
X152750Y148650D01*
X153150Y148733D01*
X153550Y148650D01*
X153800Y148400D01*
X153950Y148108D01*
Y147067D01*
G01Y148108D02*
X155400Y148733D01*
G01X154150Y150008D02*
X153800Y150300D01*
X153600Y150550D01*
X153500Y150883D01*
X153600Y151175D01*
X153800Y151383D01*
X154100Y151550D01*
X154450Y151592D01*
X154750Y151550D01*
X155050Y151383D01*
X155300Y151133D01*
X155400Y150842D01*
X155300Y150508D01*
X155000Y150217D01*
X154550Y150050D01*
X154050Y150008D01*
X153400Y150092D01*
X153050Y150217D01*
X152700Y150425D01*
X152450Y150717D01*
X152400Y151008D01*
X152500Y151300D01*
X152750Y151508D01*
G01X155400Y153700D02*
X152400D01*
X153000Y153200D01*
G01X155400D02*
Y154200D01*
G01X141839Y137920D02*
X145776D01*
Y139889D01*
X141839D01*
Y137920D01*
G01X145776Y144889D02*
X141839D01*
Y142920D01*
X145776D01*
Y144889D01*
G01X155400Y156467D02*
X152400D01*
Y157508D01*
X152550Y157842D01*
X152750Y158050D01*
X153150Y158133D01*
X153550Y158050D01*
X153800Y157800D01*
X153950Y157508D01*
Y156467D01*
G01Y157508D02*
X155400Y158133D01*
G01X154950Y159283D02*
X155200Y159533D01*
X155350Y159825D01*
X155400Y160200D01*
X155300Y160575D01*
X155100Y160867D01*
X154750Y161075D01*
X154350Y161117D01*
X153950Y161033D01*
X153700Y160825D01*
X153500Y160533D01*
X153450Y160242D01*
X153500Y159950D01*
X153700Y159575D01*
X152400Y159700D01*
Y160825D01*
G01X154150Y162308D02*
X153800Y162600D01*
X153600Y162850D01*
X153500Y163183D01*
X153600Y163475D01*
X153800Y163683D01*
X154100Y163850D01*
X154450Y163892D01*
X154750Y163850D01*
X155050Y163683D01*
X155300Y163433D01*
X155400Y163142D01*
X155300Y162808D01*
X155000Y162517D01*
X154550Y162350D01*
X154050Y162308D01*
X153400Y162392D01*
X153050Y162517D01*
X152700Y162725D01*
X152450Y163017D01*
X152400Y163308D01*
X152500Y163600D01*
X152750Y163808D01*
G01X143200Y205867D02*
X140200D01*
Y206908D01*
X140350Y207242D01*
X140550Y207450D01*
X140950Y207533D01*
X141350Y207450D01*
X141600Y207200D01*
X141750Y206908D01*
Y205867D01*
G01Y206908D02*
X143200Y207533D01*
G01Y210100D02*
X140200D01*
X142350Y208558D01*
Y210642D01*
G01X143200Y212500D02*
X140200D01*
X140800Y212000D01*
G01X143200D02*
Y213000D01*
G01X142597Y200986D02*
Y204923D01*
X140628D01*
Y200986D01*
X142597D01*
G01X154200Y260500D02*
Y257500D01*
G01X153242Y260500D02*
X155158D01*
G01X156267Y257500D02*
Y260500D01*
X157267D01*
X157600Y260350D01*
X157850Y260000D01*
X157933Y259600D01*
X157850Y259200D01*
X157642Y258900D01*
X157267Y258750D01*
X156267D01*
G01X160000Y257500D02*
Y260500D01*
X159500Y259900D01*
G01Y257500D02*
X160500D01*
G01X162900Y260500D02*
X162567Y260400D01*
X162317Y260150D01*
X162150Y259850D01*
X162025Y259450D01*
X161983Y259000D01*
X162025Y258550D01*
X162150Y258150D01*
X162317Y257850D01*
X162567Y257600D01*
X162900Y257500D01*
X163233Y257600D01*
X163483Y257850D01*
X163650Y258150D01*
X163775Y258550D01*
X163817Y259000D01*
X163775Y259450D01*
X163650Y259850D01*
X163483Y260150D01*
X163233Y260400D01*
X162900Y260500D01*
G01X165008Y260000D02*
X165258Y260300D01*
X165550Y260450D01*
X165883Y260500D01*
X166300Y260400D01*
X166592Y260150D01*
X166675Y259850D01*
X166633Y259550D01*
X166467Y259300D01*
X165633Y258800D01*
X165258Y258450D01*
X165008Y257950D01*
X164925Y257500D01*
X166675D01*
G01X146267Y270000D02*
Y273000D01*
X147308D01*
X147642Y272850D01*
X147850Y272650D01*
X147933Y272250D01*
X147850Y271850D01*
X147600Y271600D01*
X147308Y271450D01*
X146267D01*
G01X147308D02*
X147933Y270000D01*
G01X150500D02*
Y273000D01*
X148958Y270850D01*
X151042D01*
G01X152900Y273000D02*
X152567Y272900D01*
X152317Y272650D01*
X152150Y272350D01*
X152025Y271950D01*
X151983Y271500D01*
X152025Y271050D01*
X152150Y270650D01*
X152317Y270350D01*
X152567Y270100D01*
X152900Y270000D01*
X153233Y270100D01*
X153483Y270350D01*
X153650Y270650D01*
X153775Y271050D01*
X153817Y271500D01*
X153775Y271950D01*
X153650Y272350D01*
X153483Y272650D01*
X153233Y272900D01*
X152900Y273000D01*
G01X152036Y275699D02*
X148099D01*
Y273730D01*
X152036D01*
Y275699D01*
G01X138767Y283000D02*
Y286000D01*
X139808D01*
X140142Y285850D01*
X140350Y285650D01*
X140433Y285250D01*
X140350Y284850D01*
X140100Y284600D01*
X139808Y284450D01*
X138767D01*
G01X139808D02*
X140433Y283000D01*
G01X141583Y283600D02*
X141833Y283250D01*
X142167Y283050D01*
X142542Y283000D01*
X142875Y283050D01*
X143208Y283300D01*
X143417Y283600D01*
X143458Y283900D01*
X143375Y284250D01*
X143083Y284500D01*
X142792Y284600D01*
X142417D01*
G01X142792D02*
X143042Y284750D01*
X143250Y285000D01*
X143333Y285300D01*
X143250Y285600D01*
X143042Y285850D01*
X142667Y286000D01*
X142292Y285950D01*
X141917Y285750D01*
G01X144692Y283350D02*
X144983Y283100D01*
X145317Y283000D01*
X145650Y283100D01*
X145942Y283400D01*
X146150Y283850D01*
X146233Y284300D01*
Y284850D01*
X146150Y285300D01*
X145942Y285700D01*
X145692Y285900D01*
X145400Y286000D01*
X145067Y285900D01*
X144817Y285700D01*
X144650Y285400D01*
X144567Y285000D01*
X144650Y284650D01*
X144858Y284300D01*
X145108Y284100D01*
X145400Y284050D01*
X145733Y284150D01*
X145983Y284400D01*
X146233Y284850D01*
G01X139038Y278910D02*
X145337D01*
Y282060D01*
X139038D01*
Y278910D01*
G01X146844Y291474D02*
Y294474D01*
X147886D01*
X148219Y294324D01*
X148427Y294124D01*
X148511Y293724D01*
X148427Y293324D01*
X148177Y293074D01*
X147886Y292924D01*
X146844D01*
G01X147886D02*
X148511Y291474D01*
G01X149661Y292074D02*
X149911Y291724D01*
X150244Y291524D01*
X150619Y291474D01*
X150952Y291524D01*
X151286Y291774D01*
X151494Y292074D01*
X151536Y292374D01*
X151452Y292724D01*
X151161Y292974D01*
X150869Y293074D01*
X150494D01*
G01X150869D02*
X151119Y293224D01*
X151327Y293474D01*
X151411Y293774D01*
X151327Y294074D01*
X151119Y294324D01*
X150744Y294474D01*
X150369Y294424D01*
X149994Y294224D01*
G01X153477Y291474D02*
X153769Y291524D01*
X154102Y291674D01*
X154311Y291924D01*
X154394Y292274D01*
X154311Y292624D01*
X154061Y292924D01*
X153686Y293074D01*
X153269D01*
X153019Y293174D01*
X152811Y293424D01*
X152727Y293774D01*
X152852Y294124D01*
X153144Y294374D01*
X153477Y294474D01*
X153811Y294374D01*
X154102Y294124D01*
X154227Y293774D01*
X154144Y293424D01*
X153936Y293174D01*
X153686Y293074D01*
X153269D01*
X152894Y292924D01*
X152644Y292624D01*
X152561Y292274D01*
X152644Y291924D01*
X152852Y291674D01*
X153186Y291524D01*
X153477Y291474D01*
G01X153527Y290480D02*
X147228D01*
Y287330D01*
X153527D01*
Y290480D01*
G01X166487Y489786D02*
X153888D01*
Y483384D01*
X166487D01*
Y489786D01*
G01Y500786D02*
X153888D01*
Y494384D01*
X166487D01*
Y500786D01*
G01X153888Y506084D02*
X166487D01*
Y512486D01*
X153888D01*
Y506084D01*
G01Y517084D02*
X166487D01*
Y523486D01*
X153888D01*
Y517084D01*
G01X136233Y510000D02*
Y507850D01*
X136400Y507400D01*
X136733Y507100D01*
X137150Y507000D01*
X137567Y507100D01*
X137900Y507400D01*
X138067Y507850D01*
Y510000D01*
G01X140050Y507000D02*
Y510000D01*
X139550Y509400D01*
G01Y507000D02*
X140550D01*
G01X146177Y520615D02*
X147177Y521615D01*
X145177D01*
X146177Y520615D01*
G01X148802Y539415D02*
Y542415D01*
X150386D01*
G01X149802Y540965D02*
X148802D01*
G01X151702Y541915D02*
X151952Y542215D01*
X152244Y542365D01*
X152577Y542415D01*
X152994Y542315D01*
X153286Y542065D01*
X153369Y541765D01*
X153327Y541465D01*
X153160Y541215D01*
X152327Y540715D01*
X151952Y540365D01*
X151702Y539865D01*
X151619Y539415D01*
X153369D01*
G01X144299Y549072D02*
Y531158D01*
X157055D01*
Y549072D01*
X144299D01*
G01X152467Y636750D02*
X152217Y636900D01*
X151925Y637000D01*
X151592D01*
X151217Y636850D01*
X150925Y636600D01*
X150717Y636300D01*
X150550Y635800D01*
X150508Y635350D01*
X150592Y634900D01*
X150717Y634600D01*
X150967Y634300D01*
X151258Y634100D01*
X151550Y634000D01*
X151842D01*
X152133Y634100D01*
X152383Y634250D01*
X152592Y634450D01*
G01X153658Y636500D02*
X153908Y636800D01*
X154200Y636950D01*
X154533Y637000D01*
X154950Y636900D01*
X155242Y636650D01*
X155325Y636350D01*
X155283Y636050D01*
X155117Y635800D01*
X154283Y635300D01*
X153908Y634950D01*
X153658Y634450D01*
X153575Y634000D01*
X155325D01*
G01X142800Y635400D02*
X141300Y636900D01*
Y633900D01*
X142800Y635400D01*
G01X143599Y628652D02*
X162001D01*
Y642148D01*
X143599D01*
Y628652D01*
G01X149746Y644788D02*
X146746D01*
Y645621D01*
X146896Y645955D01*
X147096Y646205D01*
X147396Y646413D01*
X147746Y646580D01*
X148246Y646621D01*
X148746Y646580D01*
X149096Y646413D01*
X149396Y646205D01*
X149596Y645955D01*
X149746Y645621D01*
Y644788D01*
G01X147246Y647813D02*
X146946Y648063D01*
X146796Y648355D01*
X146746Y648688D01*
X146846Y649105D01*
X147096Y649396D01*
X147396Y649480D01*
X147696Y649438D01*
X147946Y649271D01*
X148446Y648438D01*
X148796Y648063D01*
X149296Y647813D01*
X149746Y647730D01*
Y649480D01*
G01X155207Y83963D02*
Y80026D01*
X157175D01*
Y83963D01*
X155207D01*
G01X155242Y94053D02*
Y90116D01*
X157211D01*
Y94053D01*
X155242D01*
G01X158000Y95267D02*
X155000D01*
Y96308D01*
X155150Y96642D01*
X155350Y96850D01*
X155750Y96933D01*
X156150Y96850D01*
X156400Y96600D01*
X156550Y96308D01*
Y95267D01*
G01Y96308D02*
X158000Y96933D01*
G01Y99000D02*
X157950Y99292D01*
X157800Y99625D01*
X157550Y99833D01*
X157200Y99917D01*
X156850Y99833D01*
X156550Y99583D01*
X156400Y99208D01*
Y98792D01*
X156300Y98542D01*
X156050Y98333D01*
X155700Y98250D01*
X155350Y98375D01*
X155100Y98667D01*
X155000Y99000D01*
X155100Y99333D01*
X155350Y99625D01*
X155700Y99750D01*
X156050Y99667D01*
X156300Y99458D01*
X156400Y99208D01*
Y98792D01*
X156550Y98417D01*
X156850Y98167D01*
X157200Y98083D01*
X157550Y98167D01*
X157800Y98375D01*
X157950Y98708D01*
X158000Y99000D01*
G01Y102400D02*
X155000D01*
X157150Y100858D01*
Y102942D01*
G01X172054Y112985D02*
Y115985D01*
X173096D01*
X173429Y115835D01*
X173637Y115635D01*
X173721Y115235D01*
X173637Y114835D01*
X173387Y114585D01*
X173096Y114435D01*
X172054D01*
G01X173096D02*
X173721Y112985D01*
G01X175704D02*
X175787Y113635D01*
X175912Y114185D01*
X176079Y114685D01*
X176287Y115235D01*
X176621Y115985D01*
X174954D01*
G01X178604Y112985D02*
X178687Y113635D01*
X178812Y114185D01*
X178979Y114685D01*
X179187Y115235D01*
X179521Y115985D01*
X177854D01*
G01X171603Y131506D02*
Y134506D01*
X172645D01*
X172978Y134356D01*
X173186Y134156D01*
X173270Y133756D01*
X173186Y133356D01*
X172936Y133106D01*
X172645Y132956D01*
X171603D01*
G01X172645D02*
X173270Y131506D01*
G01X174545Y132756D02*
X174836Y133106D01*
X175086Y133306D01*
X175420Y133406D01*
X175712Y133306D01*
X175920Y133106D01*
X176086Y132806D01*
X176128Y132456D01*
X176086Y132156D01*
X175920Y131856D01*
X175670Y131606D01*
X175378Y131506D01*
X175045Y131606D01*
X174753Y131906D01*
X174586Y132356D01*
X174545Y132856D01*
X174628Y133506D01*
X174753Y133856D01*
X174962Y134206D01*
X175253Y134456D01*
X175545Y134506D01*
X175836Y134406D01*
X176045Y134156D01*
G01X178236Y131506D02*
X178528Y131556D01*
X178862Y131706D01*
X179070Y131956D01*
X179153Y132306D01*
X179070Y132656D01*
X178820Y132956D01*
X178445Y133106D01*
X178028D01*
X177778Y133206D01*
X177570Y133456D01*
X177486Y133806D01*
X177612Y134156D01*
X177903Y134406D01*
X178236Y134506D01*
X178570Y134406D01*
X178862Y134156D01*
X178986Y133806D01*
X178903Y133456D01*
X178695Y133206D01*
X178445Y133106D01*
X178028D01*
X177653Y132956D01*
X177403Y132656D01*
X177320Y132306D01*
X177403Y131956D01*
X177612Y131706D01*
X177945Y131556D01*
X178236Y131506D01*
G01X166168Y132022D02*
X170105D01*
Y133990D01*
X166168D01*
Y132022D01*
G01X172003Y119765D02*
Y122765D01*
X173045D01*
X173378Y122615D01*
X173586Y122415D01*
X173670Y122015D01*
X173586Y121615D01*
X173336Y121365D01*
X173045Y121215D01*
X172003D01*
G01X173045D02*
X173670Y119765D01*
G01X175653D02*
X175736Y120415D01*
X175862Y120965D01*
X176028Y121465D01*
X176236Y122015D01*
X176570Y122765D01*
X174903D01*
G01X177720Y120365D02*
X177970Y120015D01*
X178303Y119815D01*
X178678Y119765D01*
X179012Y119815D01*
X179345Y120065D01*
X179553Y120365D01*
X179595Y120665D01*
X179512Y121015D01*
X179220Y121265D01*
X178928Y121365D01*
X178553D01*
G01X178928D02*
X179178Y121515D01*
X179386Y121765D01*
X179470Y122065D01*
X179386Y122365D01*
X179178Y122615D01*
X178803Y122765D01*
X178428Y122715D01*
X178053Y122515D01*
G01X170105Y122849D02*
X166168D01*
Y120881D01*
X170105D01*
Y122849D01*
G01X171603Y125025D02*
Y128025D01*
X172645D01*
X172978Y127875D01*
X173186Y127675D01*
X173270Y127275D01*
X173186Y126875D01*
X172936Y126625D01*
X172645Y126475D01*
X171603D01*
G01X172645D02*
X173270Y125025D01*
G01X175253D02*
X175336Y125675D01*
X175462Y126225D01*
X175628Y126725D01*
X175836Y127275D01*
X176170Y128025D01*
X174503D01*
G01X178236Y125025D02*
Y128025D01*
X177736Y127425D01*
G01Y125025D02*
X178736D01*
G01X166168Y125541D02*
X170105D01*
Y127509D01*
X166168D01*
Y125541D01*
G01X170156Y116069D02*
X166219D01*
Y114100D01*
X170156D01*
Y116069D01*
G01X171467Y137000D02*
Y140000D01*
X172508D01*
X172842Y139850D01*
X173050Y139650D01*
X173133Y139250D01*
X173050Y138850D01*
X172800Y138600D01*
X172508Y138450D01*
X171467D01*
G01X172508D02*
X173133Y137000D01*
G01X174408Y138250D02*
X174700Y138600D01*
X174950Y138800D01*
X175283Y138900D01*
X175575Y138800D01*
X175783Y138600D01*
X175950Y138300D01*
X175992Y137950D01*
X175950Y137650D01*
X175783Y137350D01*
X175533Y137100D01*
X175242Y137000D01*
X174908Y137100D01*
X174617Y137400D01*
X174450Y137850D01*
X174408Y138350D01*
X174492Y139000D01*
X174617Y139350D01*
X174825Y139700D01*
X175117Y139950D01*
X175408Y140000D01*
X175700Y139900D01*
X175908Y139650D01*
G01X177308Y138250D02*
X177600Y138600D01*
X177850Y138800D01*
X178183Y138900D01*
X178475Y138800D01*
X178683Y138600D01*
X178850Y138300D01*
X178892Y137950D01*
X178850Y137650D01*
X178683Y137350D01*
X178433Y137100D01*
X178142Y137000D01*
X177808Y137100D01*
X177517Y137400D01*
X177350Y137850D01*
X177308Y138350D01*
X177392Y139000D01*
X177517Y139350D01*
X177725Y139700D01*
X178017Y139950D01*
X178308Y140000D01*
X178600Y139900D01*
X178808Y139650D01*
G01X166168Y137022D02*
X170105D01*
Y138990D01*
X166168D01*
Y137022D01*
G01X156503Y153653D02*
Y149716D01*
X158472D01*
Y153653D01*
X156503D01*
G01X171463Y144300D02*
Y147300D01*
X172505D01*
X172838Y147150D01*
X173046Y146950D01*
X173130Y146550D01*
X173046Y146150D01*
X172796Y145900D01*
X172505Y145750D01*
X171463D01*
G01X172505D02*
X173130Y144300D01*
G01X174405Y145550D02*
X174696Y145900D01*
X174946Y146100D01*
X175280Y146200D01*
X175572Y146100D01*
X175780Y145900D01*
X175946Y145600D01*
X175988Y145250D01*
X175946Y144950D01*
X175780Y144650D01*
X175530Y144400D01*
X175238Y144300D01*
X174905Y144400D01*
X174613Y144700D01*
X174446Y145150D01*
X174405Y145650D01*
X174488Y146300D01*
X174613Y146650D01*
X174821Y147000D01*
X175113Y147250D01*
X175405Y147300D01*
X175696Y147200D01*
X175905Y146950D01*
G01X177180Y144900D02*
X177430Y144550D01*
X177763Y144350D01*
X178138Y144300D01*
X178472Y144350D01*
X178805Y144600D01*
X179013Y144900D01*
X179055Y145200D01*
X178972Y145550D01*
X178680Y145800D01*
X178388Y145900D01*
X178013D01*
G01X178388D02*
X178638Y146050D01*
X178846Y146300D01*
X178930Y146600D01*
X178846Y146900D01*
X178638Y147150D01*
X178263Y147300D01*
X177888Y147250D01*
X177513Y147050D01*
G01X169565Y147384D02*
X165628D01*
Y145416D01*
X169565D01*
Y147384D01*
G01X171263Y149185D02*
Y152185D01*
X172305D01*
X172638Y152035D01*
X172846Y151835D01*
X172930Y151435D01*
X172846Y151035D01*
X172596Y150785D01*
X172305Y150635D01*
X171263D01*
G01X172305D02*
X172930Y149185D01*
G01X174205Y150435D02*
X174496Y150785D01*
X174746Y150985D01*
X175080Y151085D01*
X175372Y150985D01*
X175580Y150785D01*
X175746Y150485D01*
X175788Y150135D01*
X175746Y149835D01*
X175580Y149535D01*
X175330Y149285D01*
X175038Y149185D01*
X174705Y149285D01*
X174413Y149585D01*
X174246Y150035D01*
X174205Y150535D01*
X174288Y151185D01*
X174413Y151535D01*
X174621Y151885D01*
X174913Y152135D01*
X175205Y152185D01*
X175496Y152085D01*
X175705Y151835D01*
G01X177105Y151685D02*
X177355Y151985D01*
X177646Y152135D01*
X177980Y152185D01*
X178396Y152085D01*
X178688Y151835D01*
X178772Y151535D01*
X178730Y151235D01*
X178563Y150985D01*
X177730Y150485D01*
X177355Y150135D01*
X177105Y149635D01*
X177022Y149185D01*
X178772D01*
G01X165628Y150100D02*
X169565D01*
Y152069D01*
X165628D01*
Y150100D01*
G01X171263Y154185D02*
Y157185D01*
X172305D01*
X172638Y157035D01*
X172846Y156835D01*
X172930Y156435D01*
X172846Y156035D01*
X172596Y155785D01*
X172305Y155635D01*
X171263D01*
G01X172305D02*
X172930Y154185D01*
G01X174080Y154635D02*
X174330Y154385D01*
X174621Y154235D01*
X174996Y154185D01*
X175372Y154285D01*
X175663Y154485D01*
X175872Y154835D01*
X175913Y155235D01*
X175830Y155635D01*
X175622Y155885D01*
X175330Y156085D01*
X175038Y156135D01*
X174746Y156085D01*
X174372Y155885D01*
X174496Y157185D01*
X175622D01*
G01X177188Y154535D02*
X177480Y154285D01*
X177813Y154185D01*
X178146Y154285D01*
X178438Y154585D01*
X178646Y155035D01*
X178730Y155485D01*
Y156035D01*
X178646Y156485D01*
X178438Y156885D01*
X178188Y157085D01*
X177896Y157185D01*
X177563Y157085D01*
X177313Y156885D01*
X177146Y156585D01*
X177063Y156185D01*
X177146Y155835D01*
X177355Y155485D01*
X177605Y155285D01*
X177896Y155235D01*
X178230Y155335D01*
X178480Y155585D01*
X178730Y156035D01*
G01X171463Y158985D02*
Y161985D01*
X172505D01*
X172838Y161835D01*
X173046Y161635D01*
X173130Y161235D01*
X173046Y160835D01*
X172796Y160585D01*
X172505Y160435D01*
X171463D01*
G01X172505D02*
X173130Y158985D01*
G01X174280Y159435D02*
X174530Y159185D01*
X174821Y159035D01*
X175196Y158985D01*
X175572Y159085D01*
X175863Y159285D01*
X176072Y159635D01*
X176113Y160035D01*
X176030Y160435D01*
X175822Y160685D01*
X175530Y160885D01*
X175238Y160935D01*
X174946Y160885D01*
X174572Y160685D01*
X174696Y161985D01*
X175822D01*
G01X177180Y159435D02*
X177430Y159185D01*
X177722Y159035D01*
X178096Y158985D01*
X178472Y159085D01*
X178763Y159285D01*
X178972Y159635D01*
X179013Y160035D01*
X178930Y160435D01*
X178722Y160685D01*
X178430Y160885D01*
X178138Y160935D01*
X177846Y160885D01*
X177472Y160685D01*
X177596Y161985D01*
X178722D01*
G01X169565Y162069D02*
X165628D01*
Y160101D01*
X169565D01*
Y162069D01*
G01X156503Y161653D02*
Y157716D01*
X158472D01*
Y161653D01*
X156503D01*
G01X165628Y155101D02*
X169565D01*
Y157069D01*
X165628D01*
Y155101D01*
G01X168700Y276500D02*
Y273500D01*
G01X167742Y276500D02*
X169658D01*
G01X170767Y273500D02*
Y276500D01*
X171767D01*
X172100Y276350D01*
X172350Y276000D01*
X172433Y275600D01*
X172350Y275200D01*
X172142Y274900D01*
X171767Y274750D01*
X170767D01*
G01X174500Y273500D02*
Y276500D01*
X174000Y275900D01*
G01Y273500D02*
X175000D01*
G01X177400Y276500D02*
X177067Y276400D01*
X176817Y276150D01*
X176650Y275850D01*
X176525Y275450D01*
X176483Y275000D01*
X176525Y274550D01*
X176650Y274150D01*
X176817Y273850D01*
X177067Y273600D01*
X177400Y273500D01*
X177733Y273600D01*
X177983Y273850D01*
X178150Y274150D01*
X178275Y274550D01*
X178317Y275000D01*
X178275Y275450D01*
X178150Y275850D01*
X177983Y276150D01*
X177733Y276400D01*
X177400Y276500D01*
G01X180300Y273500D02*
Y276500D01*
X179800Y275900D01*
G01Y273500D02*
X180800D01*
G01X156706Y496586D02*
Y499586D01*
X157747D01*
X158081Y499436D01*
X158289Y499236D01*
X158372Y498836D01*
X158289Y498436D01*
X158039Y498186D01*
X157747Y498036D01*
X156706D01*
G01X157747D02*
X158372Y496586D01*
G01X159647Y499086D02*
X159897Y499386D01*
X160189Y499536D01*
X160522Y499586D01*
X160939Y499486D01*
X161231Y499236D01*
X161314Y498936D01*
X161272Y498636D01*
X161106Y498386D01*
X160272Y497886D01*
X159897Y497536D01*
X159647Y497036D01*
X159564Y496586D01*
X161314D01*
G01X163339D02*
X163631Y496636D01*
X163964Y496786D01*
X164172Y497036D01*
X164256Y497386D01*
X164172Y497736D01*
X163922Y498036D01*
X163547Y498186D01*
X163131D01*
X162881Y498286D01*
X162672Y498536D01*
X162589Y498886D01*
X162714Y499236D01*
X163006Y499486D01*
X163339Y499586D01*
X163672Y499486D01*
X163964Y499236D01*
X164089Y498886D01*
X164006Y498536D01*
X163797Y498286D01*
X163547Y498186D01*
X163131D01*
X162756Y498036D01*
X162506Y497736D01*
X162422Y497386D01*
X162506Y497036D01*
X162714Y496786D01*
X163047Y496636D01*
X163339Y496586D01*
G01X156706Y485586D02*
Y488586D01*
X157747D01*
X158081Y488436D01*
X158289Y488236D01*
X158372Y487836D01*
X158289Y487436D01*
X158039Y487186D01*
X157747Y487036D01*
X156706D01*
G01X157747D02*
X158372Y485586D01*
G01X159522Y486186D02*
X159772Y485836D01*
X160106Y485636D01*
X160481Y485586D01*
X160814Y485636D01*
X161147Y485886D01*
X161356Y486186D01*
X161397Y486486D01*
X161314Y486836D01*
X161022Y487086D01*
X160731Y487186D01*
X160356D01*
G01X160731D02*
X160981Y487336D01*
X161189Y487586D01*
X161272Y487886D01*
X161189Y488186D01*
X160981Y488436D01*
X160606Y488586D01*
X160231Y488536D01*
X159856Y488336D01*
G01X163339Y488586D02*
X163006Y488486D01*
X162756Y488236D01*
X162589Y487936D01*
X162464Y487536D01*
X162422Y487086D01*
X162464Y486636D01*
X162589Y486236D01*
X162756Y485936D01*
X163006Y485686D01*
X163339Y485586D01*
X163672Y485686D01*
X163922Y485936D01*
X164089Y486236D01*
X164214Y486636D01*
X164256Y487086D01*
X164214Y487536D01*
X164089Y487936D01*
X163922Y488236D01*
X163672Y488486D01*
X163339Y488586D01*
G01X174200Y495100D02*
X173200Y494100D01*
X175200D01*
X174200Y495100D01*
G01X192028Y495816D02*
Y520414D01*
X171327D01*
Y495816D01*
X192028D01*
G01X157717Y507600D02*
Y510600D01*
X158758D01*
X159092Y510450D01*
X159300Y510250D01*
X159383Y509850D01*
X159300Y509450D01*
X159050Y509200D01*
X158758Y509050D01*
X157717D01*
G01X158758D02*
X159383Y507600D01*
G01X160658Y510100D02*
X160908Y510400D01*
X161200Y510550D01*
X161533Y510600D01*
X161950Y510500D01*
X162242Y510250D01*
X162325Y509950D01*
X162283Y509650D01*
X162117Y509400D01*
X161283Y508900D01*
X160908Y508550D01*
X160658Y508050D01*
X160575Y507600D01*
X162325D01*
G01X163433Y508050D02*
X163683Y507800D01*
X163975Y507650D01*
X164350Y507600D01*
X164725Y507700D01*
X165017Y507900D01*
X165225Y508250D01*
X165267Y508650D01*
X165183Y509050D01*
X164975Y509300D01*
X164683Y509500D01*
X164392Y509550D01*
X164100Y509500D01*
X163725Y509300D01*
X163850Y510600D01*
X164975D01*
G01X157517Y518400D02*
Y521400D01*
X158558D01*
X158892Y521250D01*
X159100Y521050D01*
X159183Y520650D01*
X159100Y520250D01*
X158850Y520000D01*
X158558Y519850D01*
X157517D01*
G01X158558D02*
X159183Y518400D01*
G01X160458Y520900D02*
X160708Y521200D01*
X161000Y521350D01*
X161333Y521400D01*
X161750Y521300D01*
X162042Y521050D01*
X162125Y520750D01*
X162083Y520450D01*
X161917Y520200D01*
X161083Y519700D01*
X160708Y519350D01*
X160458Y518850D01*
X160375Y518400D01*
X162125D01*
G01X163358Y520900D02*
X163608Y521200D01*
X163900Y521350D01*
X164233Y521400D01*
X164650Y521300D01*
X164942Y521050D01*
X165025Y520750D01*
X164983Y520450D01*
X164817Y520200D01*
X163983Y519700D01*
X163608Y519350D01*
X163358Y518850D01*
X163275Y518400D01*
X165025D01*
G01X165758Y539400D02*
Y542400D01*
X167342D01*
G01X166758Y540950D02*
X165758D01*
G01X168533Y540000D02*
X168783Y539650D01*
X169117Y539450D01*
X169492Y539400D01*
X169825Y539450D01*
X170158Y539700D01*
X170367Y540000D01*
X170408Y540300D01*
X170325Y540650D01*
X170033Y540900D01*
X169742Y541000D01*
X169367D01*
G01X169742D02*
X169992Y541150D01*
X170200Y541400D01*
X170283Y541700D01*
X170200Y542000D01*
X169992Y542250D01*
X169617Y542400D01*
X169242Y542350D01*
X168867Y542150D01*
G01X174555Y531158D02*
Y549072D01*
X161799D01*
Y531158D01*
X174555D01*
G01X164250Y609967D02*
X164100Y609717D01*
X164000Y609425D01*
Y609092D01*
X164150Y608717D01*
X164400Y608425D01*
X164700Y608217D01*
X165200Y608050D01*
X165650Y608008D01*
X166100Y608092D01*
X166400Y608217D01*
X166700Y608467D01*
X166900Y608758D01*
X167000Y609050D01*
Y609342D01*
X166900Y609633D01*
X166750Y609883D01*
X166550Y610092D01*
G01X167000Y612450D02*
X164000D01*
X166150Y610908D01*
Y612992D01*
G01X168216Y612568D02*
Y608632D01*
X170184D01*
Y612568D01*
X168216D01*
G01X162717Y618500D02*
Y621500D01*
X163758D01*
X164092Y621350D01*
X164300Y621150D01*
X164383Y620750D01*
X164300Y620350D01*
X164050Y620100D01*
X163758Y619950D01*
X162717D01*
G01X163758D02*
X164383Y618500D01*
G01X165742Y618850D02*
X166033Y618600D01*
X166367Y618500D01*
X166700Y618600D01*
X166992Y618900D01*
X167200Y619350D01*
X167283Y619800D01*
Y620350D01*
X167200Y620800D01*
X166992Y621200D01*
X166742Y621400D01*
X166450Y621500D01*
X166117Y621400D01*
X165867Y621200D01*
X165700Y620900D01*
X165617Y620500D01*
X165700Y620150D01*
X165908Y619800D01*
X166158Y619600D01*
X166450Y619550D01*
X166783Y619650D01*
X167033Y619900D01*
X167283Y620350D01*
G01X161304Y617739D02*
X169178D01*
Y622661D01*
X161304D01*
Y617739D01*
G01X170000Y632717D02*
X167000D01*
Y633758D01*
X167150Y634092D01*
X167350Y634300D01*
X167750Y634383D01*
X168150Y634300D01*
X168400Y634050D01*
X168550Y633758D01*
Y632717D01*
G01Y633758D02*
X170000Y634383D01*
G01Y636950D02*
X167000D01*
X169150Y635408D01*
Y637492D01*
G01X166754Y644788D02*
X163754D01*
Y645621D01*
X163904Y645955D01*
X164104Y646205D01*
X164404Y646413D01*
X164754Y646580D01*
X165254Y646621D01*
X165754Y646580D01*
X166104Y646413D01*
X166404Y646205D01*
X166604Y645955D01*
X166754Y645621D01*
Y644788D01*
G01X166154Y647688D02*
X166504Y647938D01*
X166704Y648271D01*
X166754Y648646D01*
X166704Y648980D01*
X166454Y649313D01*
X166154Y649521D01*
X165854Y649563D01*
X165504Y649480D01*
X165254Y649188D01*
X165154Y648896D01*
Y648521D01*
G01Y648896D02*
X165004Y649146D01*
X164754Y649355D01*
X164454Y649438D01*
X164154Y649355D01*
X163904Y649146D01*
X163754Y648771D01*
X163804Y648396D01*
X164004Y648021D01*
G01X188854Y50085D02*
Y53085D01*
X189896D01*
X190229Y52935D01*
X190437Y52735D01*
X190521Y52335D01*
X190437Y51935D01*
X190187Y51685D01*
X189896Y51535D01*
X188854D01*
G01X189896D02*
X190521Y50085D01*
G01X191879Y50435D02*
X192171Y50185D01*
X192504Y50085D01*
X192837Y50185D01*
X193129Y50485D01*
X193337Y50935D01*
X193421Y51385D01*
Y51935D01*
X193337Y52385D01*
X193129Y52785D01*
X192879Y52985D01*
X192587Y53085D01*
X192254Y52985D01*
X192004Y52785D01*
X191837Y52485D01*
X191754Y52085D01*
X191837Y51735D01*
X192046Y51385D01*
X192296Y51185D01*
X192587Y51135D01*
X192921Y51235D01*
X193171Y51485D01*
X193421Y51935D01*
G01X195987Y50085D02*
Y53085D01*
X194446Y50935D01*
X196529D01*
G01X187156Y52569D02*
X183219D01*
Y50601D01*
X187156D01*
Y52569D01*
G01X188854Y60085D02*
Y63085D01*
X189896D01*
X190229Y62935D01*
X190437Y62735D01*
X190521Y62335D01*
X190437Y61935D01*
X190187Y61685D01*
X189896Y61535D01*
X188854D01*
G01X189896D02*
X190521Y60085D01*
G01X191879Y60435D02*
X192171Y60185D01*
X192504Y60085D01*
X192837Y60185D01*
X193129Y60485D01*
X193337Y60935D01*
X193421Y61385D01*
Y61935D01*
X193337Y62385D01*
X193129Y62785D01*
X192879Y62985D01*
X192587Y63085D01*
X192254Y62985D01*
X192004Y62785D01*
X191837Y62485D01*
X191754Y62085D01*
X191837Y61735D01*
X192046Y61385D01*
X192296Y61185D01*
X192587Y61135D01*
X192921Y61235D01*
X193171Y61485D01*
X193421Y61935D01*
G01X194696Y62585D02*
X194946Y62885D01*
X195237Y63035D01*
X195571Y63085D01*
X195987Y62985D01*
X196279Y62735D01*
X196362Y62435D01*
X196321Y62135D01*
X196154Y61885D01*
X195321Y61385D01*
X194946Y61035D01*
X194696Y60535D01*
X194612Y60085D01*
X196362D01*
G01X187156Y62569D02*
X183219D01*
Y60600D01*
X187156D01*
Y62569D01*
G01X188854Y55085D02*
Y58085D01*
X189896D01*
X190229Y57935D01*
X190437Y57735D01*
X190521Y57335D01*
X190437Y56935D01*
X190187Y56685D01*
X189896Y56535D01*
X188854D01*
G01X189896D02*
X190521Y55085D01*
G01X191879Y55435D02*
X192171Y55185D01*
X192504Y55085D01*
X192837Y55185D01*
X193129Y55485D01*
X193337Y55935D01*
X193421Y56385D01*
Y56935D01*
X193337Y57385D01*
X193129Y57785D01*
X192879Y57985D01*
X192587Y58085D01*
X192254Y57985D01*
X192004Y57785D01*
X191837Y57485D01*
X191754Y57085D01*
X191837Y56735D01*
X192046Y56385D01*
X192296Y56185D01*
X192587Y56135D01*
X192921Y56235D01*
X193171Y56485D01*
X193421Y56935D01*
G01X194571Y55685D02*
X194821Y55335D01*
X195154Y55135D01*
X195529Y55085D01*
X195862Y55135D01*
X196196Y55385D01*
X196404Y55685D01*
X196446Y55985D01*
X196362Y56335D01*
X196071Y56585D01*
X195779Y56685D01*
X195404D01*
G01X195779D02*
X196029Y56835D01*
X196237Y57085D01*
X196321Y57385D01*
X196237Y57685D01*
X196029Y57935D01*
X195654Y58085D01*
X195279Y58035D01*
X194904Y57835D01*
G01X187156Y57569D02*
X183219D01*
Y55600D01*
X187156D01*
Y57569D01*
G01X196500Y516767D02*
X193500D01*
Y517808D01*
X193650Y518142D01*
X193850Y518350D01*
X194250Y518433D01*
X194650Y518350D01*
X194900Y518100D01*
X195050Y517808D01*
Y516767D01*
G01Y517808D02*
X196500Y518433D01*
G01X194000Y519708D02*
X193700Y519958D01*
X193550Y520250D01*
X193500Y520583D01*
X193600Y521000D01*
X193850Y521292D01*
X194150Y521375D01*
X194450Y521333D01*
X194700Y521167D01*
X195200Y520333D01*
X195550Y519958D01*
X196050Y519708D01*
X196500Y519625D01*
Y521375D01*
G01Y523400D02*
X193500D01*
X194100Y522900D01*
G01X196500D02*
Y523900D01*
G01Y507767D02*
X193500D01*
Y508808D01*
X193650Y509142D01*
X193850Y509350D01*
X194250Y509433D01*
X194650Y509350D01*
X194900Y509100D01*
X195050Y508808D01*
Y507767D01*
G01Y508808D02*
X196500Y509433D01*
G01X194000Y510708D02*
X193700Y510958D01*
X193550Y511250D01*
X193500Y511583D01*
X193600Y512000D01*
X193850Y512292D01*
X194150Y512375D01*
X194450Y512333D01*
X194700Y512167D01*
X195200Y511333D01*
X195550Y510958D01*
X196050Y510708D01*
X196500Y510625D01*
Y512375D01*
G01Y514900D02*
X193500D01*
X195650Y513358D01*
Y515442D01*
G01X196500Y524767D02*
X193500D01*
Y525808D01*
X193650Y526142D01*
X193850Y526350D01*
X194250Y526433D01*
X194650Y526350D01*
X194900Y526100D01*
X195050Y525808D01*
Y524767D01*
G01Y525808D02*
X196500Y526433D01*
G01X194000Y527708D02*
X193700Y527958D01*
X193550Y528250D01*
X193500Y528583D01*
X193600Y529000D01*
X193850Y529292D01*
X194150Y529375D01*
X194450Y529333D01*
X194700Y529167D01*
X195200Y528333D01*
X195550Y527958D01*
X196050Y527708D01*
X196500Y527625D01*
Y529375D01*
G01X193500Y531400D02*
X193600Y531067D01*
X193850Y530817D01*
X194150Y530650D01*
X194550Y530525D01*
X195000Y530483D01*
X195450Y530525D01*
X195850Y530650D01*
X196150Y530817D01*
X196400Y531067D01*
X196500Y531400D01*
X196400Y531733D01*
X196150Y531983D01*
X195850Y532150D01*
X195450Y532275D01*
X195000Y532317D01*
X194550Y532275D01*
X194150Y532150D01*
X193850Y531983D01*
X193600Y531733D01*
X193500Y531400D01*
G01X180033Y509400D02*
Y507250D01*
X180200Y506800D01*
X180533Y506500D01*
X180950Y506400D01*
X181367Y506500D01*
X181700Y506800D01*
X181867Y507250D01*
Y509400D01*
G01X183058Y508900D02*
X183308Y509200D01*
X183600Y509350D01*
X183933Y509400D01*
X184350Y509300D01*
X184642Y509050D01*
X184725Y508750D01*
X184683Y508450D01*
X184517Y508200D01*
X183683Y507700D01*
X183308Y507350D01*
X183058Y506850D01*
X182975Y506400D01*
X184725D01*
G01X184802Y539415D02*
Y542415D01*
X186386D01*
G01X185802Y540965D02*
X184802D01*
G01X188994Y539415D02*
Y542415D01*
X187452Y540265D01*
X189536D01*
G01X180299Y549072D02*
Y531158D01*
X193055D01*
Y549072D01*
X180299D01*
G01X196500Y533767D02*
X193500D01*
Y534808D01*
X193650Y535142D01*
X193850Y535350D01*
X194250Y535433D01*
X194650Y535350D01*
X194900Y535100D01*
X195050Y534808D01*
Y533767D01*
G01Y534808D02*
X196500Y535433D01*
G01Y537500D02*
X193500D01*
X194100Y537000D01*
G01X196500D02*
Y538000D01*
G01X196150Y539692D02*
X196400Y539983D01*
X196500Y540317D01*
X196400Y540650D01*
X196100Y540942D01*
X195650Y541150D01*
X195200Y541233D01*
X194650D01*
X194200Y541150D01*
X193800Y540942D01*
X193600Y540692D01*
X193500Y540400D01*
X193600Y540067D01*
X193800Y539817D01*
X194100Y539650D01*
X194500Y539567D01*
X194850Y539650D01*
X195200Y539858D01*
X195400Y540108D01*
X195450Y540400D01*
X195350Y540733D01*
X195100Y540983D01*
X194650Y541233D01*
G01X198500Y545767D02*
X195500D01*
Y546808D01*
X195650Y547142D01*
X195850Y547350D01*
X196250Y547433D01*
X196650Y547350D01*
X196900Y547100D01*
X197050Y546808D01*
Y545767D01*
G01Y546808D02*
X198500Y547433D01*
G01Y549500D02*
X195500D01*
X196100Y549000D01*
G01X198500D02*
Y550000D01*
G01Y552400D02*
X198450Y552692D01*
X198300Y553025D01*
X198050Y553233D01*
X197700Y553317D01*
X197350Y553233D01*
X197050Y552983D01*
X196900Y552608D01*
Y552192D01*
X196800Y551942D01*
X196550Y551733D01*
X196200Y551650D01*
X195850Y551775D01*
X195600Y552067D01*
X195500Y552400D01*
X195600Y552733D01*
X195850Y553025D01*
X196200Y553150D01*
X196550Y553067D01*
X196800Y552858D01*
X196900Y552608D01*
Y552192D01*
X197050Y551817D01*
X197350Y551567D01*
X197700Y551483D01*
X198050Y551567D01*
X198300Y551775D01*
X198450Y552108D01*
X198500Y552400D01*
G01X190000Y602267D02*
X187000D01*
Y603308D01*
X187150Y603642D01*
X187350Y603850D01*
X187750Y603933D01*
X188150Y603850D01*
X188400Y603600D01*
X188550Y603308D01*
Y602267D01*
G01Y603308D02*
X190000Y603933D01*
G01Y606000D02*
X187000D01*
X187600Y605500D01*
G01X190000D02*
Y606500D01*
G01Y609400D02*
X187000D01*
X189150Y607858D01*
Y609942D01*
G01X196125Y605900D02*
X196458Y605650D01*
X196833Y605500D01*
X197167D01*
X197500Y605650D01*
X197750Y605900D01*
X197875Y606250D01*
X197792Y606600D01*
X197583Y606900D01*
X197208Y607100D01*
X196708Y607200D01*
X196417Y607400D01*
X196292Y607750D01*
X196375Y608100D01*
X196583Y608350D01*
X196875Y608500D01*
X197167D01*
X197458Y608400D01*
X197708Y608150D01*
G01X190000Y620717D02*
X187000D01*
Y621758D01*
X187150Y622092D01*
X187350Y622300D01*
X187750Y622383D01*
X188150Y622300D01*
X188400Y622050D01*
X188550Y621758D01*
Y620717D01*
G01Y621758D02*
X190000Y622383D01*
G01Y624450D02*
X189950Y624742D01*
X189800Y625075D01*
X189550Y625283D01*
X189200Y625367D01*
X188850Y625283D01*
X188550Y625033D01*
X188400Y624658D01*
Y624242D01*
X188300Y623992D01*
X188050Y623783D01*
X187700Y623700D01*
X187350Y623825D01*
X187100Y624117D01*
X187000Y624450D01*
X187100Y624783D01*
X187350Y625075D01*
X187700Y625200D01*
X188050Y625117D01*
X188300Y624908D01*
X188400Y624658D01*
Y624242D01*
X188550Y623867D01*
X188850Y623617D01*
X189200Y623533D01*
X189550Y623617D01*
X189800Y623825D01*
X189950Y624158D01*
X190000Y624450D01*
G01Y611267D02*
X187000D01*
Y612308D01*
X187150Y612642D01*
X187350Y612850D01*
X187750Y612933D01*
X188150Y612850D01*
X188400Y612600D01*
X188550Y612308D01*
Y611267D01*
G01Y612308D02*
X190000Y612933D01*
G01Y615000D02*
X187000D01*
X187600Y614500D01*
G01X190000D02*
Y615500D01*
G01X187500Y617108D02*
X187200Y617358D01*
X187050Y617650D01*
X187000Y617983D01*
X187100Y618400D01*
X187350Y618692D01*
X187650Y618775D01*
X187950Y618733D01*
X188200Y618567D01*
X188700Y617733D01*
X189050Y617358D01*
X189550Y617108D01*
X190000Y617025D01*
Y618775D01*
G01Y627717D02*
X187000D01*
Y628758D01*
X187150Y629092D01*
X187350Y629300D01*
X187750Y629383D01*
X188150Y629300D01*
X188400Y629050D01*
X188550Y628758D01*
Y627717D01*
G01Y628758D02*
X190000Y629383D01*
G01X188750Y630658D02*
X188400Y630950D01*
X188200Y631200D01*
X188100Y631533D01*
X188200Y631825D01*
X188400Y632033D01*
X188700Y632200D01*
X189050Y632242D01*
X189350Y632200D01*
X189650Y632033D01*
X189900Y631783D01*
X190000Y631492D01*
X189900Y631158D01*
X189600Y630867D01*
X189150Y630700D01*
X188650Y630658D01*
X188000Y630742D01*
X187650Y630867D01*
X187300Y631075D01*
X187050Y631367D01*
X187000Y631658D01*
X187100Y631950D01*
X187350Y632158D01*
G01X179000Y624317D02*
X176000D01*
Y625358D01*
X176150Y625692D01*
X176350Y625900D01*
X176750Y625983D01*
X177150Y625900D01*
X177400Y625650D01*
X177550Y625358D01*
Y624317D01*
G01Y625358D02*
X179000Y625983D01*
G01Y628050D02*
X176000D01*
X176600Y627550D01*
G01X179000D02*
Y628550D01*
G01Y631450D02*
X176000D01*
X178150Y629908D01*
Y631992D01*
G01X179000Y634350D02*
X176000D01*
X178150Y632808D01*
Y634892D01*
G01X196750Y616500D02*
X197583D01*
Y615600D01*
X197333Y615300D01*
X197042Y615100D01*
X196625Y615000D01*
X196208Y615100D01*
X195917Y615300D01*
X195667Y615600D01*
X195500Y615950D01*
X195417Y616350D01*
Y616700D01*
X195500Y617000D01*
X195667Y617350D01*
X195917Y617650D01*
X196167Y617850D01*
X196500Y618000D01*
X196792D01*
X197125Y617900D01*
X197375Y617700D01*
G01X195625Y620900D02*
X195958Y620650D01*
X196333Y620500D01*
X196667D01*
X197000Y620650D01*
X197250Y620900D01*
X197375Y621250D01*
X197292Y621600D01*
X197083Y621900D01*
X196708Y622100D01*
X196208Y622200D01*
X195917Y622400D01*
X195792Y622750D01*
X195875Y623100D01*
X196083Y623350D01*
X196375Y623500D01*
X196667D01*
X196958Y623400D01*
X197208Y623150D01*
G01X190000Y635717D02*
X187000D01*
Y636758D01*
X187150Y637092D01*
X187350Y637300D01*
X187750Y637383D01*
X188150Y637300D01*
X188400Y637050D01*
X188550Y636758D01*
Y635717D01*
G01Y636758D02*
X190000Y637383D01*
G01X189400Y638533D02*
X189750Y638783D01*
X189950Y639117D01*
X190000Y639492D01*
X189950Y639825D01*
X189700Y640158D01*
X189400Y640367D01*
X189100Y640408D01*
X188750Y640325D01*
X188500Y640033D01*
X188400Y639742D01*
Y639367D01*
G01Y639742D02*
X188250Y639992D01*
X188000Y640200D01*
X187700Y640283D01*
X187400Y640200D01*
X187150Y639992D01*
X187000Y639617D01*
X187050Y639242D01*
X187250Y638867D01*
G01X190000Y643217D02*
X187000D01*
Y644258D01*
X187150Y644592D01*
X187350Y644800D01*
X187750Y644883D01*
X188150Y644800D01*
X188400Y644550D01*
X188550Y644258D01*
Y643217D01*
G01Y644258D02*
X190000Y644883D01*
G01Y646950D02*
X187000D01*
X187600Y646450D01*
G01X190000D02*
Y647450D01*
G01X196650Y646550D02*
X197483D01*
Y645650D01*
X197233Y645350D01*
X196942Y645150D01*
X196525Y645050D01*
X196108Y645150D01*
X195817Y645350D01*
X195567Y645650D01*
X195400Y646000D01*
X195317Y646400D01*
Y646750D01*
X195400Y647050D01*
X195567Y647400D01*
X195817Y647700D01*
X196067Y647900D01*
X196400Y648050D01*
X196692D01*
X197025Y647950D01*
X197275Y647750D01*
G01X195625Y635900D02*
X195958Y635650D01*
X196333Y635500D01*
X196667D01*
X197000Y635650D01*
X197250Y635900D01*
X197375Y636250D01*
X197292Y636600D01*
X197083Y636900D01*
X196708Y637100D01*
X196208Y637200D01*
X195917Y637400D01*
X195792Y637750D01*
X195875Y638100D01*
X196083Y638350D01*
X196375Y638500D01*
X196667D01*
X196958Y638400D01*
X197208Y638150D01*
G01X196750Y631000D02*
X197583D01*
Y630100D01*
X197333Y629800D01*
X197042Y629600D01*
X196625Y629500D01*
X196208Y629600D01*
X195917Y629800D01*
X195667Y630100D01*
X195500Y630450D01*
X195417Y630850D01*
Y631200D01*
X195500Y631500D01*
X195667Y631850D01*
X195917Y632150D01*
X196167Y632350D01*
X196500Y632500D01*
X196792D01*
X197125Y632400D01*
X197375Y632200D01*
G01X197017Y19348D02*
Y22348D01*
X198100Y19848D01*
X199184Y22348D01*
Y19348D01*
G01X200125D02*
Y22348D01*
G01X201875D02*
Y19348D01*
G01Y20848D02*
X200125D01*
G01X203108Y20598D02*
X203400Y20948D01*
X203650Y21148D01*
X203984Y21248D01*
X204275Y21148D01*
X204483Y20948D01*
X204650Y20648D01*
X204692Y20298D01*
X204650Y19998D01*
X204483Y19698D01*
X204233Y19448D01*
X203942Y19348D01*
X203608Y19448D01*
X203317Y19748D01*
X203150Y20198D01*
X203108Y20698D01*
X203192Y21348D01*
X203317Y21698D01*
X203525Y22048D01*
X203817Y22298D01*
X204108Y22348D01*
X204400Y22248D01*
X204609Y21998D01*
G01X197017Y323744D02*
Y326744D01*
X198100Y324244D01*
X199184Y326744D01*
Y323744D01*
G01X200125D02*
Y326744D01*
G01X201875D02*
Y323744D01*
G01Y325244D02*
X200125D01*
G01X204400Y323744D02*
Y326744D01*
X202858Y324594D01*
X204942D01*
G01X199500Y495767D02*
X196500D01*
Y496808D01*
X196650Y497142D01*
X196850Y497350D01*
X197250Y497433D01*
X197650Y497350D01*
X197900Y497100D01*
X198050Y496808D01*
Y495767D01*
G01Y496808D02*
X199500Y497433D01*
G01X197000Y498708D02*
X196700Y498958D01*
X196550Y499250D01*
X196500Y499583D01*
X196600Y500000D01*
X196850Y500292D01*
X197150Y500375D01*
X197450Y500333D01*
X197700Y500167D01*
X198200Y499333D01*
X198550Y498958D01*
X199050Y498708D01*
X199500Y498625D01*
Y500375D01*
G01X198250Y501608D02*
X197900Y501900D01*
X197700Y502150D01*
X197600Y502483D01*
X197700Y502775D01*
X197900Y502983D01*
X198200Y503150D01*
X198550Y503192D01*
X198850Y503150D01*
X199150Y502983D01*
X199400Y502733D01*
X199500Y502442D01*
X199400Y502108D01*
X199100Y501817D01*
X198650Y501650D01*
X198150Y501608D01*
X197500Y501692D01*
X197150Y501817D01*
X196800Y502025D01*
X196550Y502317D01*
X196500Y502608D01*
X196600Y502900D01*
X196850Y503108D01*
G01X202625Y503900D02*
X202958Y503650D01*
X203333Y503500D01*
X203667D01*
X204000Y503650D01*
X204250Y503900D01*
X204375Y504250D01*
X204292Y504600D01*
X204083Y504900D01*
X203708Y505100D01*
X203208Y505200D01*
X202917Y505400D01*
X202792Y505750D01*
X202875Y506100D01*
X203083Y506350D01*
X203375Y506500D01*
X203667D01*
X203958Y506400D01*
X204208Y506150D01*
G01X210400Y506900D02*
X210350Y506567D01*
X210150Y506275D01*
X209850Y506025D01*
X209500Y505858D01*
X209100Y505775D01*
X208700D01*
X208300Y505858D01*
X207950Y506025D01*
X207650Y506275D01*
X207450Y506567D01*
X207400Y506900D01*
X207450Y507233D01*
X207650Y507525D01*
X207950Y507775D01*
X208300Y507942D01*
X208700Y508025D01*
X209100D01*
X209500Y507942D01*
X209850Y507775D01*
X210150Y507525D01*
X210350Y507233D01*
X210400Y506900D01*
G01X209600Y507233D02*
X210400Y507733D01*
G01Y509800D02*
X207400D01*
X208000Y509300D01*
G01X210400D02*
Y510300D01*
G01X207400Y512700D02*
X207500Y512367D01*
X207750Y512117D01*
X208050Y511950D01*
X208450Y511825D01*
X208900Y511783D01*
X209350Y511825D01*
X209750Y511950D01*
X210050Y512117D01*
X210300Y512367D01*
X210400Y512700D01*
X210300Y513033D01*
X210050Y513283D01*
X209750Y513450D01*
X209350Y513575D01*
X208900Y513617D01*
X208450Y513575D01*
X208050Y513450D01*
X207750Y513283D01*
X207500Y513033D01*
X207400Y512700D01*
G01X203650Y514550D02*
X204483D01*
Y513650D01*
X204233Y513350D01*
X203942Y513150D01*
X203525Y513050D01*
X203108Y513150D01*
X202817Y513350D01*
X202567Y513650D01*
X202400Y514000D01*
X202317Y514400D01*
Y514750D01*
X202400Y515050D01*
X202567Y515400D01*
X202817Y515700D01*
X203067Y515900D01*
X203400Y516050D01*
X203692D01*
X204025Y515950D01*
X204275Y515750D01*
G01X213483Y509050D02*
Y512050D01*
X214317D01*
X214650Y511900D01*
X214900Y511700D01*
X215108Y511400D01*
X215275Y511050D01*
X215317Y510550D01*
X215275Y510050D01*
X215108Y509700D01*
X214900Y509400D01*
X214650Y509200D01*
X214317Y509050D01*
X213483D01*
G01X210400Y523350D02*
X210350Y523017D01*
X210150Y522725D01*
X209850Y522475D01*
X209500Y522308D01*
X209100Y522225D01*
X208700D01*
X208300Y522308D01*
X207950Y522475D01*
X207650Y522725D01*
X207450Y523017D01*
X207400Y523350D01*
X207450Y523683D01*
X207650Y523975D01*
X207950Y524225D01*
X208300Y524392D01*
X208700Y524475D01*
X209100D01*
X209500Y524392D01*
X209850Y524225D01*
X210150Y523975D01*
X210350Y523683D01*
X210400Y523350D01*
G01X209600Y523683D02*
X210400Y524183D01*
G01Y526167D02*
X209750Y526250D01*
X209200Y526375D01*
X208700Y526542D01*
X208150Y526750D01*
X207400Y527083D01*
Y525417D01*
G01X213483Y524050D02*
Y527050D01*
X214317D01*
X214650Y526900D01*
X214900Y526700D01*
X215108Y526400D01*
X215275Y526050D01*
X215317Y525550D01*
X215275Y525050D01*
X215108Y524700D01*
X214900Y524400D01*
X214650Y524200D01*
X214317Y524050D01*
X213483D01*
G01X202625Y519400D02*
X202958Y519150D01*
X203333Y519000D01*
X203667D01*
X204000Y519150D01*
X204250Y519400D01*
X204375Y519750D01*
X204292Y520100D01*
X204083Y520400D01*
X203708Y520600D01*
X203208Y520700D01*
X202917Y520900D01*
X202792Y521250D01*
X202875Y521600D01*
X203083Y521850D01*
X203375Y522000D01*
X203667D01*
X203958Y521900D01*
X204208Y521650D01*
G01X210400Y538350D02*
X210350Y538017D01*
X210150Y537725D01*
X209850Y537475D01*
X209500Y537308D01*
X209100Y537225D01*
X208700D01*
X208300Y537308D01*
X207950Y537475D01*
X207650Y537725D01*
X207450Y538017D01*
X207400Y538350D01*
X207450Y538683D01*
X207650Y538975D01*
X207950Y539225D01*
X208300Y539392D01*
X208700Y539475D01*
X209100D01*
X209500Y539392D01*
X209850Y539225D01*
X210150Y538975D01*
X210350Y538683D01*
X210400Y538350D01*
G01X209600Y538683D02*
X210400Y539183D01*
G01Y541750D02*
X207400D01*
X209550Y540208D01*
Y542292D01*
G01X203650Y544550D02*
X204483D01*
Y543650D01*
X204233Y543350D01*
X203942Y543150D01*
X203525Y543050D01*
X203108Y543150D01*
X202817Y543350D01*
X202567Y543650D01*
X202400Y544000D01*
X202317Y544400D01*
Y544750D01*
X202400Y545050D01*
X202567Y545400D01*
X202817Y545700D01*
X203067Y545900D01*
X203400Y546050D01*
X203692D01*
X204025Y545950D01*
X204275Y545750D01*
G01X213483Y539050D02*
Y542050D01*
X214317D01*
X214650Y541900D01*
X214900Y541700D01*
X215108Y541400D01*
X215275Y541050D01*
X215317Y540550D01*
X215275Y540050D01*
X215108Y539700D01*
X214900Y539400D01*
X214650Y539200D01*
X214317Y539050D01*
X213483D01*
G01X202625Y534400D02*
X202958Y534150D01*
X203333Y534000D01*
X203667D01*
X204000Y534150D01*
X204250Y534400D01*
X204375Y534750D01*
X204292Y535100D01*
X204083Y535400D01*
X203708Y535600D01*
X203208Y535700D01*
X202917Y535900D01*
X202792Y536250D01*
X202875Y536600D01*
X203083Y536850D01*
X203375Y537000D01*
X203667D01*
X203958Y536900D01*
X204208Y536650D01*
G01X203650Y529550D02*
X204483D01*
Y528650D01*
X204233Y528350D01*
X203942Y528150D01*
X203525Y528050D01*
X203108Y528150D01*
X202817Y528350D01*
X202567Y528650D01*
X202400Y529000D01*
X202317Y529400D01*
Y529750D01*
X202400Y530050D01*
X202567Y530400D01*
X202817Y530700D01*
X203067Y530900D01*
X203400Y531050D01*
X203692D01*
X204025Y530950D01*
X204275Y530750D01*
G01X203817Y555350D02*
X203567Y555500D01*
X203275Y555600D01*
X202942D01*
X202567Y555450D01*
X202275Y555200D01*
X202067Y554900D01*
X201900Y554400D01*
X201858Y553950D01*
X201942Y553500D01*
X202067Y553200D01*
X202317Y552900D01*
X202608Y552700D01*
X202900Y552600D01*
X203192D01*
X203483Y552700D01*
X203733Y552850D01*
X203942Y553050D01*
G01X205717Y552600D02*
X205800Y553250D01*
X205925Y553800D01*
X206092Y554300D01*
X206300Y554850D01*
X206633Y555600D01*
X204967D01*
G01X212087Y557234D02*
X199488D01*
Y550935D01*
X212087D01*
Y557234D01*
G01X197017Y579574D02*
Y582574D01*
X198100Y580074D01*
X199184Y582574D01*
Y579574D01*
G01X200125D02*
Y582574D01*
G01X201875D02*
Y579574D01*
G01Y581074D02*
X200125D01*
G01X203108Y582074D02*
X203358Y582374D01*
X203650Y582524D01*
X203984Y582574D01*
X204400Y582474D01*
X204692Y582224D01*
X204775Y581924D01*
X204733Y581624D01*
X204567Y581374D01*
X203733Y580874D01*
X203358Y580524D01*
X203108Y580024D01*
X203025Y579574D01*
X204775D01*
G01X203900Y609850D02*
X203850Y609517D01*
X203650Y609225D01*
X203350Y608975D01*
X203000Y608808D01*
X202600Y608725D01*
X202200D01*
X201800Y608808D01*
X201450Y608975D01*
X201150Y609225D01*
X200950Y609517D01*
X200900Y609850D01*
X200950Y610183D01*
X201150Y610475D01*
X201450Y610725D01*
X201800Y610892D01*
X202200Y610975D01*
X202600D01*
X203000Y610892D01*
X203350Y610725D01*
X203650Y610475D01*
X203850Y610183D01*
X203900Y609850D01*
G01X203100Y610183D02*
X203900Y610683D01*
G01X203300Y611833D02*
X203650Y612083D01*
X203850Y612417D01*
X203900Y612792D01*
X203850Y613125D01*
X203600Y613458D01*
X203300Y613667D01*
X203000Y613708D01*
X202650Y613625D01*
X202400Y613333D01*
X202300Y613042D01*
Y612667D01*
G01Y613042D02*
X202150Y613292D01*
X201900Y613500D01*
X201600Y613583D01*
X201300Y613500D01*
X201050Y613292D01*
X200900Y612917D01*
X200950Y612542D01*
X201150Y612167D01*
G01X207483Y610050D02*
Y613050D01*
X208317D01*
X208650Y612900D01*
X208900Y612700D01*
X209108Y612400D01*
X209275Y612050D01*
X209317Y611550D01*
X209275Y611050D01*
X209108Y610700D01*
X208900Y610400D01*
X208650Y610200D01*
X208317Y610050D01*
X207483D01*
G01X203900Y624850D02*
X203850Y624517D01*
X203650Y624225D01*
X203350Y623975D01*
X203000Y623808D01*
X202600Y623725D01*
X202200D01*
X201800Y623808D01*
X201450Y623975D01*
X201150Y624225D01*
X200950Y624517D01*
X200900Y624850D01*
X200950Y625183D01*
X201150Y625475D01*
X201450Y625725D01*
X201800Y625892D01*
X202200Y625975D01*
X202600D01*
X203000Y625892D01*
X203350Y625725D01*
X203650Y625475D01*
X203850Y625183D01*
X203900Y624850D01*
G01X203100Y625183D02*
X203900Y625683D01*
G01X201400Y626958D02*
X201100Y627208D01*
X200950Y627500D01*
X200900Y627833D01*
X201000Y628250D01*
X201250Y628542D01*
X201550Y628625D01*
X201850Y628583D01*
X202100Y628417D01*
X202600Y627583D01*
X202950Y627208D01*
X203450Y626958D01*
X203900Y626875D01*
Y628625D01*
G01X207483Y625050D02*
Y628050D01*
X208317D01*
X208650Y627900D01*
X208900Y627700D01*
X209108Y627400D01*
X209275Y627050D01*
X209317Y626550D01*
X209275Y626050D01*
X209108Y625700D01*
X208900Y625400D01*
X208650Y625200D01*
X208317Y625050D01*
X207483D01*
G01X203900Y639850D02*
X203850Y639517D01*
X203650Y639225D01*
X203350Y638975D01*
X203000Y638808D01*
X202600Y638725D01*
X202200D01*
X201800Y638808D01*
X201450Y638975D01*
X201150Y639225D01*
X200950Y639517D01*
X200900Y639850D01*
X200950Y640183D01*
X201150Y640475D01*
X201450Y640725D01*
X201800Y640892D01*
X202200Y640975D01*
X202600D01*
X203000Y640892D01*
X203350Y640725D01*
X203650Y640475D01*
X203850Y640183D01*
X203900Y639850D01*
G01X203100Y640183D02*
X203900Y640683D01*
G01Y642750D02*
X200900D01*
X201500Y642250D01*
G01X203900D02*
Y643250D01*
G01X207483Y640050D02*
Y643050D01*
X208317D01*
X208650Y642900D01*
X208900Y642700D01*
X209108Y642400D01*
X209275Y642050D01*
X209317Y641550D01*
X209275Y641050D01*
X209108Y640700D01*
X208900Y640400D01*
X208650Y640200D01*
X208317Y640050D01*
X207483D01*
G54D11*
G01X42965Y480234D02*
X40465D01*
Y478734D01*
X38965Y480234D01*
X40465Y481734D01*
Y480234D01*
G01X38965Y478734D02*
Y480234D01*
X36965D01*
G01X38965D02*
Y481734D01*
G01X-585779Y-292348D02*
Y876943D01*
G01Y-292348D02*
X1067765D01*
G01X-585779Y876943D02*
X1067765D01*
G01X27813Y-1D02*
X207912D01*
G03X219998Y17179I-6738J17582D01*
G01Y187984D01*
G03X217352Y194374I-7384J686D01*
G02X217353Y250227I13694J27926D01*
G03X220000Y254435I-2156J4293D01*
G01Y654499D01*
X216000Y658499D01*
X4000D01*
X0Y654499D01*
Y254414D01*
G03X2624Y250219I4819J96D01*
G02X2612Y194375I-13702J-27919D01*
G03X0Y188068I6328J-6316D01*
G01Y17158D01*
G03X27813Y-1I27470J13406D01*
G01X0Y82613D02*
Y72613D01*
G01Y102613D02*
Y112613D01*
G01Y444456D02*
Y434456D01*
G01Y464456D02*
Y474456D01*
G01X16650Y606000D02*
G03I-3150J0D01*
G01X31650Y196500D02*
G03I-3150J0D01*
G01X31150Y184000D02*
G03I-3150J0D01*
G01X30650Y605000D02*
G03I-3150J0D01*
G01X41983Y-61133D02*
X46150Y-51133D01*
X50317Y-61133D01*
G01X48817Y-57634D02*
X43483D01*
G01X54150Y-59800D02*
X55483Y-60634D01*
X56983Y-61133D01*
X58317D01*
X59650Y-60634D01*
X60650Y-59800D01*
X61150Y-58633D01*
X60817Y-57467D01*
X59983Y-56467D01*
X58483Y-55800D01*
X56483Y-55467D01*
X55317Y-54800D01*
X54816Y-53634D01*
X55150Y-52467D01*
X55983Y-51634D01*
X57150Y-51133D01*
X58317D01*
X59483Y-51467D01*
X60484Y-52300D01*
G01X65650Y-59800D02*
X66983Y-60634D01*
X68483Y-61133D01*
X69817D01*
X71150Y-60634D01*
X72150Y-59800D01*
X72650Y-58633D01*
X72317Y-57467D01*
X71483Y-56467D01*
X69983Y-55800D01*
X67983Y-55467D01*
X66817Y-54800D01*
X66316Y-53634D01*
X66650Y-52467D01*
X67483Y-51634D01*
X68650Y-51133D01*
X69817D01*
X70983Y-51467D01*
X71984Y-52300D01*
G01X83983Y-61133D02*
X77317D01*
Y-51133D01*
X83983D01*
G01X81317Y-55967D02*
X77317D01*
G01X87816Y-61133D02*
Y-51133D01*
X92150Y-59467D01*
X96484Y-51133D01*
Y-61133D01*
G01X104983Y-55800D02*
X105650Y-55300D01*
X106150Y-54467D01*
X106484Y-53300D01*
X106150Y-52300D01*
X105483Y-51634D01*
X104317Y-51133D01*
X99817D01*
Y-61133D01*
X105317D01*
X106484Y-60467D01*
X107150Y-59467D01*
X107483Y-58300D01*
X107150Y-57134D01*
X106150Y-56134D01*
X104983Y-55800D01*
X99817D01*
G01X111817Y-51133D02*
Y-61133D01*
X118483D01*
G01X126650D02*
Y-56633D01*
X123317Y-51133D01*
G01X129983D02*
X126650Y-56633D01*
G01X149650Y-51133D02*
Y-61133D01*
G01X145817Y-51133D02*
X153483D01*
G01X161150Y-61133D02*
X159816Y-60967D01*
X158650Y-60300D01*
X157650Y-59300D01*
X156983Y-58133D01*
X156650Y-56800D01*
Y-55467D01*
X156983Y-54133D01*
X157650Y-52967D01*
X158650Y-51967D01*
X159816Y-51300D01*
X161150Y-51133D01*
X162483Y-51300D01*
X163650Y-51967D01*
X164650Y-52967D01*
X165317Y-54133D01*
X165650Y-55467D01*
Y-56800D01*
X165317Y-58133D01*
X164650Y-59300D01*
X163650Y-60300D01*
X162483Y-60967D01*
X161150Y-61133D01*
G01X169317D02*
Y-51133D01*
X173317D01*
X174650Y-51634D01*
X175650Y-52800D01*
X175983Y-54133D01*
X175650Y-55467D01*
X174817Y-56467D01*
X173317Y-56967D01*
X169317D01*
G01X51114Y-31175D02*
Y-21175D01*
X55114D01*
X56447Y-21675D01*
X57448Y-22842D01*
X57781Y-24175D01*
X57448Y-25508D01*
X56614Y-26509D01*
X55114Y-27009D01*
X51114D01*
G01X69614Y-22009D02*
X68614Y-21509D01*
X67448Y-21175D01*
X66114D01*
X64614Y-21675D01*
X63448Y-22509D01*
X62614Y-23509D01*
X61947Y-25175D01*
X61781Y-26675D01*
X62114Y-28175D01*
X62614Y-29175D01*
X63614Y-30175D01*
X64781Y-30842D01*
X65947Y-31175D01*
X67114D01*
X68281Y-30842D01*
X69281Y-30342D01*
X70114Y-29676D01*
G01X78781Y-25842D02*
X79447Y-25342D01*
X79947Y-24509D01*
X80281Y-23342D01*
X79947Y-22342D01*
X79281Y-21675D01*
X78114Y-21175D01*
X73614D01*
Y-31175D01*
X79114D01*
X80281Y-30509D01*
X80947Y-29509D01*
X81281Y-28342D01*
X80947Y-27175D01*
X79947Y-26175D01*
X78781Y-25842D01*
X73614D01*
G01X103781Y-31175D02*
X97114D01*
Y-21175D01*
X103781D01*
G01X101114Y-26008D02*
X97114D01*
G01X108281Y-31175D02*
Y-21175D01*
X111614D01*
X112947Y-21675D01*
X113947Y-22342D01*
X114781Y-23342D01*
X115447Y-24509D01*
X115614Y-26175D01*
X115447Y-27842D01*
X114781Y-29009D01*
X113947Y-30009D01*
X112947Y-30675D01*
X111614Y-31175D01*
X108281D01*
G01X124447Y-26175D02*
X127781D01*
Y-29175D01*
X126781Y-30175D01*
X125614Y-30842D01*
X123947Y-31175D01*
X122281Y-30842D01*
X121114Y-30175D01*
X120114Y-29175D01*
X119447Y-28009D01*
X119114Y-26675D01*
Y-25508D01*
X119447Y-24509D01*
X120114Y-23342D01*
X121114Y-22342D01*
X122114Y-21675D01*
X123447Y-21175D01*
X124614D01*
X125947Y-21509D01*
X126947Y-22175D01*
G01X138281Y-31175D02*
X131614D01*
Y-21175D01*
X138281D01*
G01X135614Y-26008D02*
X131614D01*
G01X46650Y214000D02*
G03I-3150J0D01*
G01X44650Y567500D02*
G03I-3150J0D01*
G01X56150Y585000D02*
G03I-3150J0D01*
G01X68150Y193000D02*
G03I-3150J0D01*
G01X101738Y51052D02*
G03I-3150J0D01*
G01X106650Y412500D02*
G03I-3150J0D01*
G01X125864Y92275D02*
G03I-3150J0D01*
G01X150750Y259600D02*
G03I-3150J0D01*
G01X164250Y274715D02*
G03I-3150J0D01*
G01X219998Y82581D02*
Y72581D01*
G01Y102581D02*
Y112581D01*
G01X220000Y446466D02*
Y436466D01*
G01Y466466D02*
Y476466D01*
G01X537471Y-272324D02*
X1047708D01*
G01X537471Y-106970D02*
Y-272324D01*
G01X538489Y-216206D02*
X736422D01*
G01X537471Y-217206D02*
X1047708D01*
G01X538489Y-107151D02*
Y-216206D01*
G01Y-200458D02*
X736422D01*
G01X538489Y-181560D02*
X736422D01*
G01X538489Y-162662D02*
X736422D01*
G01X538489Y-143765D02*
X736422D01*
G01X538489Y-124867D02*
X736422D01*
G01X538489Y-107151D02*
X736422D01*
G01X537471Y-106970D02*
X1047708D01*
G01X561914Y-107151D02*
Y-216206D01*
G01X661914Y-107151D02*
Y-216206D01*
G01X701284Y-107151D02*
Y-216206D01*
G01X736422Y-107151D02*
Y-216206D01*
G01X737471Y-106970D02*
Y-217206D01*
G01Y-134529D02*
X1047708D01*
G01X837471Y-106970D02*
Y-272324D01*
G01Y-244765D02*
X1047708D01*
G01X837471Y-189647D02*
X1047708D01*
G01X937471Y-217206D02*
Y-272324D01*
G01Y-106970D02*
Y-134529D01*
G01X1016212Y-244765D02*
Y-272324D01*
G01X1047708Y-106970D02*
Y-272324D01*
G01X1067765Y-292348D02*
Y876943D01*
G54D12*
G01X149517Y-7055D02*
X153517D01*
X148517Y-2055D01*
X143517Y-7055D01*
X146517D01*
Y-31055D01*
X149517D01*
Y-7055D01*
G54D13*
G01X26732Y71909D02*
Y73091D01*
X24370D01*
Y71909D01*
X26732D01*
G54D14*
G01X24599Y52484D02*
X20662D01*
Y50516D01*
X24599D01*
Y52484D01*
G01X191016Y609969D02*
Y606032D01*
X192984D01*
Y609969D01*
X191016D01*
G01Y624968D02*
Y621032D01*
X192984D01*
Y624968D01*
X191016D01*
G01Y616968D02*
Y613032D01*
X192984D01*
Y616968D01*
X191016D01*
G01Y639969D02*
Y636032D01*
X192984D01*
Y639969D01*
X191016D01*
G01X192984Y643031D02*
Y646968D01*
X191016D01*
Y643031D01*
X192984D01*
G01X191016Y631969D02*
Y628032D01*
X192984D01*
Y631969D01*
X191016D01*
G01X178484Y636032D02*
Y639969D01*
X176516D01*
Y636032D01*
X178484D01*
G01X197016Y507969D02*
Y504031D01*
X198984D01*
Y507969D01*
X197016D01*
G01Y522969D02*
Y519032D01*
X198984D01*
Y522969D01*
X197016D01*
G01Y514969D02*
Y511032D01*
X198984D01*
Y514969D01*
X197016D01*
G01Y537968D02*
Y534032D01*
X198984D01*
Y537968D01*
X197016D01*
G01X198984Y541032D02*
Y544968D01*
X197016D01*
Y541032D01*
X198984D01*
G01X197016Y529968D02*
Y526031D01*
X198984D01*
Y529968D01*
X197016D01*
G54D15*
G01X18398Y58878D02*
X30602D01*
Y64784D01*
X18398D01*
Y58878D01*
G01X205447Y515902D02*
Y503698D01*
X211353D01*
Y515902D01*
X205447D01*
G01Y530902D02*
Y518698D01*
X211353D01*
Y530902D01*
X205447D01*
G01Y545902D02*
Y533698D01*
X211353D01*
Y545902D01*
X205447D01*
G01X199447Y617902D02*
Y605698D01*
X205353D01*
Y617902D01*
X199447D01*
G01Y632902D02*
Y620698D01*
X205353D01*
Y632902D01*
X199447D01*
G01Y647902D02*
Y635698D01*
X205353D01*
Y647902D01*
X199447D01*
G54D16*
G01X48525Y482744D02*
X30405D01*
Y493724D01*
X48525D01*
Y482744D01*
G01X51676Y644785D02*
Y648805D01*
X54116D01*
Y644785D01*
X51676D01*
G01X68684Y644985D02*
Y649005D01*
X71124D01*
Y644985D01*
X68684D01*
G01X116300Y627630D02*
X103300D01*
Y620750D01*
X116300D01*
Y627630D01*
G01Y638011D02*
X103300D01*
Y631130D01*
X116300D01*
Y638011D01*
G01Y648391D02*
X103300D01*
Y641511D01*
X116300D01*
Y648391D01*
G01X143076Y644985D02*
Y649005D01*
X145516D01*
Y644985D01*
X143076D01*
G01X172440Y628500D02*
Y641500D01*
X165560D01*
Y628500D01*
X172440D01*
G01X160084Y644985D02*
Y649005D01*
X162524D01*
Y644985D01*
X160084D01*
G54D17*
G01X37602Y20398D02*
G03I-18602J0D01*
G01Y324794D02*
G03I-18602J0D01*
G01Y580624D02*
G03I-18602J0D01*
G01X219602Y20398D02*
G03I-18602J0D01*
G01Y324794D02*
G03I-18602J0D01*
G01Y580624D02*
G03I-18602J0D01*
G54D18*
G01X-585779Y-107703D02*
X-566094D01*
G01X-585779Y92297D02*
X-566094D01*
G01X-585779Y492297D02*
X-566094D01*
G01X-585779Y692297D02*
X-566094D01*
G01Y-272663D02*
Y857258D01*
G01Y-272663D02*
X1048080D01*
G01X-566094Y857258D02*
X1048080D01*
G01X-359007Y876943D02*
Y857258D01*
G01X-159007Y-292348D02*
Y-272663D01*
G01Y876943D02*
Y857258D01*
G01X40993Y-292348D02*
Y-272663D01*
G01Y876943D02*
Y857258D01*
G01X238004Y-272663D02*
G03X243982I2989J0D01*
G01D02*
G03X238004I-2989J0D01*
G01Y857258D02*
G03X243982I2989J0D01*
G01D02*
G03X238004I-2989J0D01*
G01X440993Y-292348D02*
Y-272663D01*
G01Y876943D02*
Y857258D01*
G01X640993Y-292348D02*
Y-272663D01*
G01Y876943D02*
Y857258D01*
G01X840993Y-292348D02*
Y-272663D01*
G01Y876943D02*
Y857258D01*
G01X1048080Y-272663D02*
Y857258D01*
G01X1067765Y-107703D02*
X1048080D01*
G01X1067765Y92297D02*
X1048080D01*
G01X1045090Y292297D02*
G03X1051069I2989J0D01*
G01D02*
G03X1045090I-2989J0D01*
G01X1067765Y492297D02*
X1048080D01*
G01X1067765Y692297D02*
X1048080D01*
G54D19*
G01X-585779Y292297D02*
X-566094D01*
G01X240993Y-292348D02*
Y-272663D01*
G01Y876943D02*
Y857258D01*
G01X1067765Y292297D02*
X1048080D01*
M02*
