G04 ================== begin FILE IDENTIFICATION RECORD ==================*
G04 Layout Name:  CONTROLLER_REV_B-08042023.brd*
G04 Film Name:    OC - FEMA - CNTRLR-v1-Rev-C-PMB.gbr*
G04 File Format:  Gerber RS274X*
G04 File Origin:  Cadence Allegro 17.2-061*
G04 Origin Date:  Sun Apr 09 12:44:52 2023*
G04 *
G04 Layer:  DRAWING FORMAT/TITLE_DATA1*
G04 Layer:  DRAWING FORMAT/SPSE*
G04 Layer:  DRAWING FORMAT/FILM_LABEL_OUTLINE*
G04 Layer:  PACKAGE GEOMETRY/PASTEMASK_BOTTOM*
G04 Layer:  PIN/PASTEMASK_BOTTOM*
G04 Layer:  BOARD GEOMETRY/OUTLINE*
G04 *
G04 Offset:    (0.000 0.000)*
G04 Mirror:    No*
G04 Mode:      Positive*
G04 Rotation:  0*
G04 FullContactRelief:  No*
G04 UndefLineWidth:     6.000*
G04 ================== end FILE IDENTIFICATION RECORD ====================*
%FSLAX55Y55*MOIN*%
%IR0*IPPOS*OFA0.00000B0.00000*MIA0B0*SFA1.00000B1.00000*%
%ADD50R,.11X.055*%
%ADD18R,.055X.11*%
%ADD37R,.090598X.086598*%
%ADD51R,.1378X.0354*%
%ADD43R,.141732X.090551*%
%ADD15R,.009843X.024606*%
%ADD58R,.13189X.057087*%
%ADD52R,.169291X.059055*%
%ADD44R,.009843X.059055*%
%ADD12R,.104299X.059098*%
%ADD13R,.159449X.07874*%
%ADD65R,.02X.032*%
%ADD25R,.012X.03*%
%ADD24R,.012X.015*%
%ADD29R,.015X.012*%
%ADD26R,.016X.03*%
%ADD66R,.023X.06*%
%ADD23R,.036X.037*%
%ADD45R,.059X.051*%
%ADD35R,.037X.036*%
%ADD39R,.051X.059*%
%ADD32R,.021701X.065*%
%ADD64R,.055X.075*%
%ADD34R,.065X.021701*%
%ADD11R,.021X.021*%
%ADD57R,.02X.087008*%
%ADD42R,.031X.031*%
%ADD30R,.022126X.042205*%
%ADD21R,.042205X.022126*%
%ADD69R,.065402X.075*%
%ADD54R,.05118X.03543*%
%ADD67R,.043307X.023622*%
%ADD60R,.0189X.0157*%
%ADD31R,.012008X.012008*%
%ADD10R,.024402X.024402*%
%ADD55R,.019701X.037402*%
%ADD62R,.025591X.011811*%
%ADD47R,.011811X.028346*%
%ADD46R,.028346X.011811*%
%ADD38R,.023622X.023622*%
%ADD14C,.03937*%
%ADD68R,.01772X.01772*%
%ADD49C,.059055*%
%ADD41R,.020079X.046063*%
%ADD33R,.042126X.070079*%
%ADD40R,.174016X.170079*%
%ADD17R,.027598X.0315*%
%ADD28R,.0315X.027598*%
%ADD27R,.023622X.07874*%
%ADD16R,.07874X.023622*%
%ADD59R,.07874X.051181*%
%ADD36R,.066902X.078701*%
%ADD63R,.015748X.070079*%
%ADD56R,.050799X.0575*%
%ADD53R,.035433X.019685*%
%ADD48R,.084646X.084646*%
%ADD61R,.049606X.080709*%
%ADD22R,.047244X.062992*%
%ADD20R,.045276X.057087*%
%ADD19R,.094488X.055118*%
%ADD70C,.007874*%
%ADD71C,.006*%
%ADD72C,.019685*%
G75*
%LPD*%
G75*
G36*
G01X10333Y503814D02*
Y505814D01*
X7317D01*
Y503814D01*
X10333D01*
G37*
G36*
G01Y518814D02*
Y520814D01*
X7317D01*
Y518814D01*
X10333D01*
G37*
G36*
G01Y513814D02*
Y515814D01*
X7317D01*
Y513814D01*
X10333D01*
G37*
G36*
G01Y508814D02*
Y510814D01*
X7317D01*
Y508814D01*
X10333D01*
G37*
G36*
G01X10430Y544605D02*
Y546605D01*
X7414D01*
Y544605D01*
X10430D01*
G37*
G36*
G01Y539605D02*
Y541605D01*
X7414D01*
Y539605D01*
X10430D01*
G37*
G36*
G01Y534605D02*
Y536605D01*
X7414D01*
Y534605D01*
X10430D01*
G37*
G36*
G01Y529605D02*
Y531605D01*
X7414D01*
Y529605D01*
X10430D01*
G37*
G36*
G01X15019Y85681D02*
Y83319D01*
X17381D01*
Y85681D01*
X15019D01*
G37*
G36*
G01X23026Y504668D02*
Y507606D01*
X17932D01*
Y504668D01*
X23026D01*
G37*
G36*
G01X16554D02*
Y507606D01*
X11459D01*
Y504668D01*
X16554D01*
G37*
G36*
G01Y508787D02*
Y511724D01*
X11459D01*
Y508787D01*
X16554D01*
G37*
G36*
G01X23026D02*
Y511724D01*
X17932D01*
Y508787D01*
X23026D01*
G37*
G36*
G01Y512905D02*
Y515842D01*
X17932D01*
Y512905D01*
X23026D01*
G37*
G36*
G01X16554D02*
Y515842D01*
X11459D01*
Y512905D01*
X16554D01*
G37*
G36*
G01Y517023D02*
Y519960D01*
X11459D01*
Y517023D01*
X16554D01*
G37*
G36*
G01X23026D02*
Y519960D01*
X17932D01*
Y517023D01*
X23026D01*
G37*
G36*
G01X23123Y530459D02*
Y533396D01*
X18028D01*
Y530459D01*
X23123D01*
G37*
G36*
G01X16650D02*
Y533396D01*
X11556D01*
Y530459D01*
X16650D01*
G37*
G36*
G01Y534577D02*
Y537514D01*
X11556D01*
Y534577D01*
X16650D01*
G37*
G36*
G01X23123D02*
Y537514D01*
X18028D01*
Y534577D01*
X23123D01*
G37*
G36*
G01Y538695D02*
Y541632D01*
X18028D01*
Y538695D01*
X23123D01*
G37*
G36*
G01X16650D02*
Y541632D01*
X11556D01*
Y538695D01*
X16650D01*
G37*
G36*
G01Y542814D02*
Y545750D01*
X11556D01*
Y542814D01*
X16650D01*
G37*
G36*
G01X23123D02*
Y545750D01*
X18028D01*
Y542814D01*
X23123D01*
G37*
G36*
G01X41910Y503814D02*
Y505814D01*
X38894D01*
Y503814D01*
X41910D01*
G37*
G36*
G01Y518814D02*
Y520814D01*
X38894D01*
Y518814D01*
X41910D01*
G37*
G36*
G01Y513814D02*
Y515814D01*
X38894D01*
Y513814D01*
X41910D01*
G37*
G36*
G01Y508814D02*
Y510814D01*
X38894D01*
Y508814D01*
X41910D01*
G37*
G36*
G01X54603Y504668D02*
Y507606D01*
X49508D01*
Y504668D01*
X54603D01*
G37*
G36*
G01X48130D02*
Y507606D01*
X43036D01*
Y504668D01*
X48130D01*
G37*
G36*
G01Y508787D02*
Y511724D01*
X43036D01*
Y508787D01*
X48130D01*
G37*
G36*
G01X54603D02*
Y511724D01*
X49508D01*
Y508787D01*
X54603D01*
G37*
G36*
G01Y512905D02*
Y515842D01*
X49508D01*
Y512905D01*
X54603D01*
G37*
G36*
G01X48130D02*
Y515842D01*
X43036D01*
Y512905D01*
X48130D01*
G37*
G36*
G01Y517023D02*
Y519960D01*
X43036D01*
Y517023D01*
X48130D01*
G37*
G36*
G01X54603D02*
Y519960D01*
X49508D01*
Y517023D01*
X54603D01*
G37*
G36*
G01X46887Y565667D02*
X44887D01*
Y562651D01*
X46887D01*
Y565667D01*
G37*
G36*
G01X51887D02*
X49887D01*
Y562651D01*
X51887D01*
Y565667D01*
G37*
G36*
G01X52797Y578360D02*
X49860D01*
Y573266D01*
X52797D01*
Y578360D01*
G37*
G36*
G01Y571888D02*
X49860D01*
Y566793D01*
X52797D01*
Y571888D01*
G37*
G36*
G01X48679D02*
X45742D01*
Y566793D01*
X48679D01*
Y571888D01*
G37*
G36*
G01Y578360D02*
X45742D01*
Y573266D01*
X48679D01*
Y578360D01*
G37*
G36*
G01X56887Y565667D02*
X54887D01*
Y562651D01*
X56887D01*
Y565667D01*
G37*
G36*
G01X61887D02*
X59887D01*
Y562651D01*
X61887D01*
Y565667D01*
G37*
G36*
G01X61033Y578360D02*
X58096D01*
Y573266D01*
X61033D01*
Y578360D01*
G37*
G36*
G01Y571888D02*
X58096D01*
Y566793D01*
X61033D01*
Y571888D01*
G37*
G36*
G01X56915D02*
X53978D01*
Y566793D01*
X56915D01*
Y571888D01*
G37*
G36*
G01Y578360D02*
X53978D01*
Y573266D01*
X56915D01*
Y578360D01*
G37*
G36*
G01X74375Y573123D02*
Y574697D01*
X72800D01*
Y573123D01*
X74375D01*
G37*
G36*
G01Y576272D02*
Y577847D01*
X72800D01*
Y576272D01*
X74375D01*
G37*
G54D10*
X10200Y69730D03*
Y73270D03*
X11200Y96730D03*
Y100270D03*
X15200Y96730D03*
Y100270D03*
X19200Y96730D03*
Y100270D03*
X110607Y537335D03*
Y533795D03*
G54D20*
X15557Y416200D03*
X22643D03*
X79334Y464861D03*
X86421D03*
X162054Y288285D03*
X169141D03*
G54D11*
X8500Y78939D03*
Y82679D03*
X20200Y69630D03*
Y73370D03*
X15200Y69630D03*
Y73370D03*
X59722Y52255D03*
Y48515D03*
X79387Y48315D03*
Y52055D03*
X110126Y60085D03*
X113867D03*
X111757Y554311D03*
Y550571D03*
X103008Y554142D03*
X99268D03*
X107277Y554311D03*
Y550571D03*
X126370Y30085D03*
X122630D03*
X135007Y386765D03*
Y390505D03*
X121396Y546657D03*
Y550398D03*
X116253Y554318D03*
Y550577D03*
X154437Y234785D03*
Y238525D03*
X140400Y352000D03*
X136660D03*
X159437Y234785D03*
X172067Y227855D03*
X175808D03*
X172067Y232855D03*
X175808D03*
X159437Y238525D03*
X162149Y297045D03*
X172149D03*
X162149Y300785D03*
X172149D03*
X176277Y386645D03*
Y390385D03*
X196222Y155349D03*
Y151608D03*
X191222Y155349D03*
Y151608D03*
X191187Y161715D03*
Y165455D03*
X188118Y224855D03*
X191859D03*
X177149Y297045D03*
Y300785D03*
X192000Y606130D03*
Y613130D03*
Y616870D03*
Y628130D03*
Y609870D03*
Y624870D03*
Y621130D03*
Y631870D03*
Y643130D03*
Y646870D03*
Y636130D03*
Y639870D03*
X198000Y504130D03*
Y511130D03*
Y514870D03*
Y526130D03*
Y507870D03*
Y522870D03*
Y519130D03*
Y541130D03*
Y544870D03*
Y529870D03*
Y534130D03*
Y537870D03*
G54D21*
X31136Y504814D03*
Y509814D03*
Y514814D03*
Y519814D03*
X31233Y530605D03*
Y535605D03*
Y540605D03*
Y545605D03*
X62713Y504814D03*
Y509814D03*
Y514814D03*
Y519814D03*
G54D30*
X50887Y586470D03*
X45887D03*
X60887D03*
X55887D03*
G54D12*
X10838Y398495D03*
X27757D03*
G54D22*
X24102Y554685D03*
X13472D03*
X21672Y605485D03*
X32302D03*
X74885Y360400D03*
X85515D03*
G54D40*
X92307Y264142D03*
G54D31*
X57620Y44385D03*
X59722D03*
X78739Y42685D03*
X76636D03*
X134252Y10698D03*
Y8596D03*
G54D13*
X12901Y438232D03*
Y475232D03*
X41642Y438232D03*
Y475232D03*
G54D41*
X84807Y249713D03*
X89807D03*
X94807D03*
X99807D03*
G54D14*
X28000Y42600D03*
X185800Y41600D03*
X205700Y490900D03*
G54D32*
X54100Y247820D03*
X59100D03*
X64100D03*
X69100D03*
Y269860D03*
X64100D03*
X59100D03*
X54100D03*
G54D23*
X41800Y31149D03*
Y37251D03*
X68554Y448082D03*
Y454184D03*
X93017Y395966D03*
Y389864D03*
X85857Y394034D03*
Y400136D03*
X78941Y454184D03*
Y448082D03*
X103497Y452764D03*
Y458866D03*
X95825Y452592D03*
Y458694D03*
X110973Y452802D03*
Y458904D03*
X118347Y452894D03*
Y458996D03*
X116437Y533244D03*
Y539346D03*
X147817Y287094D03*
Y293196D03*
X202222Y150427D03*
Y156530D03*
Y170136D03*
Y164034D03*
G54D50*
X112717Y246472D03*
Y258677D03*
X99597Y360432D03*
Y372637D03*
G54D33*
X67424Y285880D03*
X57660D03*
Y350290D03*
X67424D03*
X86951Y285880D03*
X77187D03*
Y350290D03*
X86951D03*
X96715Y285880D03*
Y350290D03*
G54D60*
X135200Y347000D03*
X140400D03*
G54D42*
X93050Y238600D03*
X98950D03*
X107747Y432675D03*
Y426775D03*
G54D24*
X48187Y35686D03*
Y33284D03*
X59387Y23084D03*
Y25486D03*
X67187Y32184D03*
X55987Y23084D03*
Y25486D03*
X53987Y13684D03*
Y16086D03*
X72197Y23936D03*
Y26338D03*
X67187Y34586D03*
G54D15*
X19153Y90061D03*
X17184D03*
X15216D03*
X13247D03*
X19153Y78939D03*
X17184D03*
X15216D03*
X13247D03*
G54D51*
X117187Y310835D03*
Y329335D03*
G54D70*
G01X-585779Y-107703D02*
X-566094D01*
G01X-585779Y92297D02*
X-566094D01*
G01X-585779Y492297D02*
X-566094D01*
G01X-585779Y692297D02*
X-566094D01*
G01Y-272663D02*
Y857258D01*
G01Y-272663D02*
X1048080D01*
G01X-566094Y857258D02*
X1048080D01*
G01X-359007Y876943D02*
Y857258D01*
G01X-159007Y-292348D02*
Y-272663D01*
G01Y876943D02*
Y857258D01*
G01X40993Y-292348D02*
Y-272663D01*
G01Y876943D02*
Y857258D01*
G01X238004Y-272663D02*
G03X243982I2989J0D01*
G01D02*
G03X238004I-2989J0D01*
G01Y857258D02*
G03X243982I2989J0D01*
G01D02*
G03X238004I-2989J0D01*
G01X440993Y-292348D02*
Y-272663D01*
G01Y876943D02*
Y857258D01*
G01X640993Y-292348D02*
Y-272663D01*
G01Y876943D02*
Y857258D01*
G01X840993Y-292348D02*
Y-272663D01*
G01Y876943D02*
Y857258D01*
G01X1048080Y-272663D02*
Y857258D01*
G01X1067765Y-107703D02*
X1048080D01*
G01X1067765Y92297D02*
X1048080D01*
G01X1045090Y292297D02*
G03X1051069I2989J0D01*
G01D02*
G03X1045090I-2989J0D01*
G01X1067765Y492297D02*
X1048080D01*
G01X1067765Y692297D02*
X1048080D01*
G54D61*
X146077Y379115D03*
X191002D03*
G54D16*
X28620Y92061D03*
Y88912D03*
Y85762D03*
Y82612D03*
Y79463D03*
Y76313D03*
Y114108D03*
Y110959D03*
Y107809D03*
Y104660D03*
Y101510D03*
Y98360D03*
Y95211D03*
Y133006D03*
Y129857D03*
Y126707D03*
Y123557D03*
Y120408D03*
Y117258D03*
Y155053D03*
Y151904D03*
Y148754D03*
Y145604D03*
Y142455D03*
Y139305D03*
Y136156D03*
Y173951D03*
Y170801D03*
Y167652D03*
Y164502D03*
Y161352D03*
Y158203D03*
Y195998D03*
Y192849D03*
Y189699D03*
Y186549D03*
Y183400D03*
Y180250D03*
Y177101D03*
Y205447D03*
Y202297D03*
Y199148D03*
X182164Y76313D03*
Y79463D03*
Y82612D03*
Y85762D03*
Y88912D03*
Y92061D03*
Y95211D03*
Y98360D03*
Y101510D03*
Y104660D03*
Y107809D03*
Y110959D03*
Y114108D03*
Y117258D03*
Y120408D03*
Y123557D03*
Y126707D03*
Y129857D03*
Y133006D03*
Y136156D03*
Y139305D03*
Y142455D03*
Y145604D03*
Y148754D03*
Y151904D03*
Y155053D03*
Y158203D03*
Y161352D03*
Y164502D03*
Y167652D03*
Y170801D03*
Y173951D03*
Y177101D03*
Y180250D03*
Y183400D03*
Y186549D03*
Y189699D03*
Y192849D03*
Y195998D03*
Y199148D03*
Y202297D03*
Y205447D03*
G54D34*
X62317Y378235D03*
Y373235D03*
Y368235D03*
Y383235D03*
X84357Y368235D03*
Y373235D03*
Y378235D03*
Y383235D03*
G54D25*
X51987Y52585D03*
X49987D03*
Y48585D03*
X51987D03*
X69387Y52585D03*
X67387D03*
Y48585D03*
X69387D03*
G54D52*
X117857Y360745D03*
Y374525D03*
G54D43*
X84885Y424728D03*
G54D71*
G01X-585779Y-292348D02*
Y876943D01*
G01Y-292348D02*
X1067765D01*
G01X-585779Y876943D02*
X1067765D01*
G01X12200Y-39800D02*
X13533Y-40634D01*
X15033Y-41133D01*
X16367D01*
X17700Y-40634D01*
X18700Y-39800D01*
X19200Y-38633D01*
X18867Y-37467D01*
X18033Y-36467D01*
X16533Y-35800D01*
X14533Y-35467D01*
X13367Y-34800D01*
X12866Y-33634D01*
X13200Y-32467D01*
X14033Y-31634D01*
X15200Y-31133D01*
X16367D01*
X17533Y-31467D01*
X18534Y-32300D01*
G01X27200Y-41133D02*
X25867Y-40967D01*
X24700Y-40300D01*
X23700Y-39300D01*
X23033Y-38133D01*
X22700Y-36800D01*
Y-35467D01*
X23033Y-34133D01*
X23700Y-32967D01*
X24700Y-31967D01*
X25867Y-31300D01*
X27200Y-31133D01*
X28533Y-31300D01*
X29700Y-31967D01*
X30700Y-32967D01*
X31367Y-34133D01*
X31700Y-35467D01*
Y-36800D01*
X31367Y-38133D01*
X30700Y-39300D01*
X29700Y-40300D01*
X28533Y-40967D01*
X27200Y-41133D01*
G01X35367Y-31133D02*
Y-41133D01*
X42033D01*
G01X46533D02*
Y-31133D01*
X49867D01*
X51200Y-31634D01*
X52200Y-32300D01*
X53034Y-33300D01*
X53700Y-34467D01*
X53867Y-36134D01*
X53700Y-37800D01*
X53034Y-38967D01*
X52200Y-39967D01*
X51200Y-40634D01*
X49867Y-41133D01*
X46533D01*
G01X65033D02*
X58367D01*
Y-31133D01*
X65033D01*
G01X62367Y-35967D02*
X58367D01*
G01X69867Y-41133D02*
Y-31133D01*
X74033D01*
X75367Y-31634D01*
X76200Y-32300D01*
X76533Y-33634D01*
X76200Y-34967D01*
X75200Y-35800D01*
X74033Y-36300D01*
X69867D01*
G01X74033D02*
X76533Y-41133D01*
G01X92867D02*
Y-31133D01*
X96867D01*
X98200Y-31634D01*
X99200Y-32800D01*
X99533Y-34133D01*
X99200Y-35467D01*
X98367Y-36467D01*
X96867Y-36967D01*
X92867D01*
G01X103533Y-41133D02*
X107700Y-31133D01*
X111867Y-41133D01*
G01X110367Y-37634D02*
X105033D01*
G01X115700Y-39800D02*
X117033Y-40634D01*
X118533Y-41133D01*
X119867D01*
X121200Y-40634D01*
X122200Y-39800D01*
X122700Y-38633D01*
X122367Y-37467D01*
X121533Y-36467D01*
X120033Y-35800D01*
X118033Y-35467D01*
X116867Y-34800D01*
X116366Y-33634D01*
X116700Y-32467D01*
X117533Y-31634D01*
X118700Y-31133D01*
X119867D01*
X121033Y-31467D01*
X122034Y-32300D01*
G01X130700Y-31133D02*
Y-41133D01*
G01X126867Y-31133D02*
X134533D01*
G01X145533Y-41133D02*
X138867D01*
Y-31133D01*
X145533D01*
G01X142867Y-35967D02*
X138867D01*
G01X166533Y-35800D02*
X167200Y-35300D01*
X167700Y-34467D01*
X168034Y-33300D01*
X167700Y-32300D01*
X167033Y-31634D01*
X165867Y-31133D01*
X161367D01*
Y-41133D01*
X166867D01*
X168034Y-40467D01*
X168700Y-39467D01*
X169033Y-38300D01*
X168700Y-37134D01*
X167700Y-36134D01*
X166533Y-35800D01*
X161367D01*
G01X176700Y-41133D02*
X175366Y-40967D01*
X174200Y-40300D01*
X173200Y-39300D01*
X172533Y-38133D01*
X172200Y-36800D01*
Y-35467D01*
X172533Y-34133D01*
X173200Y-32967D01*
X174200Y-31967D01*
X175366Y-31300D01*
X176700Y-31133D01*
X178033Y-31300D01*
X179200Y-31967D01*
X180200Y-32967D01*
X180867Y-34133D01*
X181200Y-35467D01*
Y-36800D01*
X180867Y-38133D01*
X180200Y-39300D01*
X179200Y-40300D01*
X178033Y-40967D01*
X176700Y-41133D01*
G01X188200Y-31133D02*
Y-41133D01*
G01X184367Y-31133D02*
X192033D01*
G01X199700D02*
Y-41133D01*
G01X195867Y-31133D02*
X203533D01*
G01X211200Y-41133D02*
X209866Y-40967D01*
X208700Y-40300D01*
X207700Y-39300D01*
X207033Y-38133D01*
X206700Y-36800D01*
Y-35467D01*
X207033Y-34133D01*
X207700Y-32967D01*
X208700Y-31967D01*
X209866Y-31300D01*
X211200Y-31133D01*
X212533Y-31300D01*
X213700Y-31967D01*
X214700Y-32967D01*
X215367Y-34133D01*
X215700Y-35467D01*
Y-36800D01*
X215367Y-38133D01*
X214700Y-39300D01*
X213700Y-40300D01*
X212533Y-40967D01*
X211200Y-41133D01*
G01X218366D02*
Y-31133D01*
X222700Y-39467D01*
X227034Y-31133D01*
Y-41133D01*
G01X27813Y-1D02*
X207912D01*
G03X219998Y17179I-6738J17582D01*
G01Y187984D01*
G03X217352Y194374I-7384J686D01*
G02X217353Y250227I13694J27926D01*
G03X220000Y254435I-2156J4293D01*
G01Y654499D01*
X216000Y658499D01*
X4000D01*
X0Y654499D01*
Y254414D01*
G03X2624Y250219I4819J96D01*
G02X2612Y194375I-13702J-27919D01*
G03X0Y188068I6328J-6316D01*
G01Y17158D01*
G03X27813Y-1I27470J13406D01*
G01X0Y82613D02*
Y72613D01*
G01Y102613D02*
Y112613D01*
G01Y444456D02*
Y434456D01*
G01Y464456D02*
Y474456D01*
G01X219998Y82581D02*
Y72581D01*
G01Y102581D02*
Y112581D01*
G01X220000Y446466D02*
Y436466D01*
G01Y466466D02*
Y476466D01*
G01X537471Y-272324D02*
X1047708D01*
G01X537471Y-106970D02*
Y-272324D01*
G01X538489Y-216206D02*
X736422D01*
G01X537471Y-217206D02*
X1047708D01*
G01X538489Y-107151D02*
Y-216206D01*
G01Y-200458D02*
X736422D01*
G01X538489Y-181560D02*
X736422D01*
G01X538489Y-162662D02*
X736422D01*
G01X538489Y-143765D02*
X736422D01*
G01X538489Y-124867D02*
X736422D01*
G01X538489Y-107151D02*
X736422D01*
G01X537471Y-106970D02*
X1047708D01*
G01X561914Y-107151D02*
Y-216206D01*
G01X661914Y-107151D02*
Y-216206D01*
G01X701284Y-107151D02*
Y-216206D01*
G01X736422Y-107151D02*
Y-216206D01*
G01X737471Y-106970D02*
Y-217206D01*
G01Y-134529D02*
X1047708D01*
G01X837471Y-106970D02*
Y-272324D01*
G01Y-244765D02*
X1047708D01*
G01X837471Y-189647D02*
X1047708D01*
G01X937471Y-217206D02*
Y-272324D01*
G01Y-106970D02*
Y-134529D01*
G01X1016212Y-244765D02*
Y-272324D01*
G01X1047708Y-106970D02*
Y-272324D01*
G01X1067765Y-292348D02*
Y876943D01*
G54D53*
X110878Y516625D03*
X101037D03*
G54D17*
X31280Y233260D03*
X38760D03*
X35020Y241140D03*
X51538Y362315D03*
X44057D03*
X47877Y375245D03*
X47797Y370195D03*
X44137Y383125D03*
X51618D03*
X129967Y234015D03*
X130037Y257275D03*
X126297Y249395D03*
X133778D03*
X133707Y241895D03*
X137448Y234015D03*
X147578Y249225D03*
X140097D03*
X143837Y257105D03*
G54D62*
X141077Y375115D03*
X151077D03*
X141077Y377115D03*
X151077D03*
X141077Y379115D03*
X151077D03*
X141077Y381115D03*
X151077D03*
X141077Y383115D03*
X151077D03*
X196002Y381115D03*
X186002D03*
X196002Y379115D03*
X186002D03*
X196002Y377115D03*
X186002D03*
X196002Y375115D03*
X186002D03*
X196002Y383115D03*
X186002D03*
G54D35*
X71349Y390400D03*
X71386Y397375D03*
X71349Y404400D03*
X77451Y390400D03*
X77489Y397375D03*
X77451Y404400D03*
X93349Y404200D03*
X115239Y54285D03*
X109136D03*
X101636Y396966D03*
X107739D03*
X101636Y389864D03*
X107739D03*
X99451Y404200D03*
X126769Y270665D03*
X120666D03*
X120596Y277935D03*
X126699D03*
G54D26*
X47887Y52585D03*
Y48585D03*
X54087Y52585D03*
Y48585D03*
X71487Y52585D03*
X65287D03*
Y48585D03*
X71487D03*
G54D44*
X73369Y413705D03*
X75928D03*
X78487D03*
X81046D03*
X83605D03*
X86164D03*
X88723D03*
X91282D03*
X88723Y435752D03*
X91282D03*
X75928D03*
X78487D03*
X81046D03*
X83605D03*
X86164D03*
X73369D03*
X93841Y413705D03*
X96400D03*
X93841Y435752D03*
X96400D03*
G54D72*
G01X-585779Y292297D02*
X-566094D01*
G01X240993Y-292348D02*
Y-272663D01*
G01Y876943D02*
Y857258D01*
G01X1067765Y292297D02*
X1048080D01*
G54D63*
X138502Y399056D03*
X143502D03*
X148502D03*
X153502D03*
Y460158D03*
X148502D03*
X143502D03*
X138502D03*
X158502Y399056D03*
X163502D03*
X168502D03*
X173502D03*
Y460158D03*
X168502D03*
X163502D03*
X158502D03*
X178502Y399056D03*
X183502D03*
X188502D03*
X193502D03*
Y460158D03*
X188502D03*
X183502D03*
X178502D03*
G54D36*
X59147Y398015D03*
Y415335D03*
G54D27*
X34526Y68046D03*
X37675D03*
X40825D03*
X43974D03*
X47124D03*
X50274D03*
Y213715D03*
X47124D03*
X43974D03*
X40825D03*
X37675D03*
X34526D03*
X53423Y68046D03*
X56573D03*
X59722D03*
X62872D03*
X66022D03*
X69171D03*
X72321D03*
Y213715D03*
X69171D03*
X66022D03*
X62872D03*
X59722D03*
X56573D03*
X53423D03*
X75470Y68046D03*
X78620D03*
X81770D03*
X84919D03*
X88069D03*
X91219D03*
X94368D03*
Y213715D03*
X91219D03*
X88069D03*
X84919D03*
X81770D03*
X78620D03*
X75470D03*
X97518Y68046D03*
X100667D03*
X103817D03*
X106967D03*
X110116D03*
X113266D03*
Y213715D03*
X110116D03*
X106967D03*
X103817D03*
X100667D03*
X97518D03*
X116415Y68046D03*
X119565D03*
X122715D03*
X125864D03*
X129014D03*
X132164D03*
X135313D03*
Y213715D03*
X132164D03*
X129014D03*
X125864D03*
X122715D03*
X119565D03*
X116415D03*
X138463Y68046D03*
X141612D03*
X144762D03*
X147912D03*
X151061D03*
X154211D03*
Y213715D03*
X151061D03*
X147912D03*
X144762D03*
X141612D03*
X138463D03*
X157360Y68046D03*
X160510D03*
X163660D03*
X166809D03*
X169959D03*
X173108D03*
X176258D03*
Y213715D03*
X173108D03*
X169959D03*
X166809D03*
X163660D03*
X160510D03*
X157360D03*
G54D54*
X134252Y19526D03*
X142914Y23266D03*
Y15786D03*
X198069Y608060D03*
Y615540D03*
Y623060D03*
Y630540D03*
Y638060D03*
Y645540D03*
X204069Y506060D03*
X212731Y509800D03*
X204069Y513540D03*
X212731Y524800D03*
X204069Y521060D03*
X212731Y539800D03*
X204069Y536060D03*
Y543540D03*
Y528540D03*
X206731Y611800D03*
Y626800D03*
Y641800D03*
G54D45*
X87453Y456580D03*
Y448706D03*
G54D18*
X29798Y250800D03*
X42002D03*
G54D19*
X17374Y357580D03*
Y381202D03*
G54D28*
X41540Y271980D03*
X33660Y275720D03*
Y268240D03*
Y282840D03*
Y290320D03*
X41540Y286580D03*
X140637Y272655D03*
X144378Y280535D03*
X136897D03*
G54D46*
X88542Y532956D03*
Y535515D03*
Y538074D03*
Y540633D03*
X102833D03*
Y538074D03*
Y535515D03*
Y532956D03*
G54D55*
X121457Y296305D03*
X125197D03*
X128938D03*
Y285685D03*
X121457D03*
G54D64*
X154089Y486585D03*
Y497585D03*
Y509285D03*
Y520285D03*
X166286Y486585D03*
Y497585D03*
Y509285D03*
Y520285D03*
G54D37*
X58624Y438809D03*
Y459289D03*
G54D56*
X137087Y301055D03*
Y337115D03*
X147287Y301055D03*
Y337115D03*
G54D38*
X70438Y575485D03*
X76737D03*
G54D47*
X91849Y543940D03*
Y529649D03*
X94408Y543940D03*
X96967D03*
X99526D03*
Y529649D03*
X96967D03*
X94408D03*
G54D29*
X38701Y261800D03*
X36299D03*
X69461Y21200D03*
X67060D03*
X60788Y28685D03*
X58387D03*
X69461Y17601D03*
X67060D03*
X57218Y12758D03*
X59619D03*
X59186Y16279D03*
X61588D03*
X62587Y12685D03*
X64988D03*
X61788Y34285D03*
X59386D03*
G54D65*
X165937Y231418D03*
Y239292D03*
G54D48*
X95687Y536795D03*
G54D57*
X131177Y497863D03*
Y518367D03*
X136177Y497863D03*
X141177D03*
X146177D03*
X136177Y518367D03*
X141177D03*
X146177D03*
X174177Y497863D03*
Y518367D03*
X179177Y497863D03*
X184177D03*
X189177D03*
X179177Y518367D03*
X184177D03*
X189177D03*
G54D39*
X92263Y230600D03*
X100137D03*
X109424Y478185D03*
X101550D03*
X109624Y468385D03*
X101750D03*
X109424Y488185D03*
X101550D03*
X109424Y497685D03*
X101550D03*
G54D66*
X172149Y308258D03*
X167149D03*
X162149D03*
Y329518D03*
X167149D03*
X172149D03*
X177149Y308258D03*
Y329518D03*
G54D49*
X81676Y566589D03*
Y585290D03*
X138881Y566589D03*
Y585290D03*
G54D67*
X182016Y231115D03*
Y234855D03*
X191859Y231115D03*
X182016Y238595D03*
X191859D03*
G54D58*
X132702Y547695D03*
Y532734D03*
X150677Y547595D03*
Y532635D03*
X168177Y547595D03*
Y532635D03*
X186677Y547595D03*
Y532635D03*
G54D59*
X155028Y248995D03*
Y266715D03*
X190847Y248995D03*
Y266715D03*
G54D68*
X179401Y602785D03*
Y606130D03*
X182747D03*
Y602785D03*
X179401Y618492D03*
Y621839D03*
X182747D03*
Y618492D03*
X179401Y634202D03*
Y637548D03*
X182747D03*
Y634202D03*
X179401Y649911D03*
Y653256D03*
X182747D03*
Y649911D03*
G54D69*
X211410Y554045D03*
X200030D03*
M02*
