G04 ================== begin FILE IDENTIFICATION RECORD ==================*
G04 Layout Name:  E:/Mask Board/WORK/16-05-22/mask-C2-RevC.brd*
G04 Film Name:    mask-C2-RevC_L1-TOP.gbr*
G04 File Format:  Gerber RS274X*
G04 File Origin:  Cadence Allegro 16.6-P004*
G04 Origin Date:  Mon May 16 22:50:49 2022*
G04 *
G04 Layer:  VIA CLASS/TOP*
G04 Layer:  PIN/TOP*
G04 Layer:  ETCH/TOP*
G04 Layer:  DRAWING FORMAT/OUTLINE_DATA*
G04 Layer:  BOARD GEOMETRY/OUTLINE*
G04 Layer:  BOARD GEOMETRY/TITLE_BLOCK*
G04 *
G04 Offset:    (0.00 0.00)*
G04 Mirror:    No*
G04 Mode:      Positive*
G04 Rotation:  0*
G04 FullContactRelief:  No*
G04 UndefLineWidth:     6.00*
G04 ================== end FILE IDENTIFICATION RECORD ====================*
%FSLAX55Y55*MOIN*%
%IR0*IPPOS*OFA0.00000B0.00000*MIA0B0*SFA1.00000B1.00000*%
%ADD10C,.01*%
%ADD11C,.02*%
%ADD23R,.126X.091*%
%ADD25C,.044*%
%ADD22C,.063*%
%ADD19R,.02X.02*%
%ADD26C,.064*%
%ADD33R,.031X.031*%
%ADD31C,.0551*%
%ADD13C,.083*%
%ADD12C,.076*%
%ADD21R,.063X.063*%
%ADD17R,.0244X.0244*%
%ADD15C,.03937*%
%ADD34C,.05937*%
%ADD20R,.08268X.15157*%
%ADD32R,.05937X.05937*%
%ADD30R,.09842X.12992*%
%ADD14R,.024X.022*%
%ADD18R,.022X.024*%
%ADD16C,.315*%
%ADD24R,.079X.023*%
%ADD28C,.2087*%
%ADD29R,.0748X.01181*%
%ADD27R,.11811X.18898*%
%ADD35C,.012*%
%ADD36C,.015*%
%ADD37C,.01969*%
%ADD38C,.005*%
%ADD39C,.006*%
%ADD40C,.00787*%
%ADD41C,.03204*%
%ADD44C,.0554*%
%ADD45C,.08304*%
%ADD43C,.07404*%
%ADD46C,.07514*%
%ADD42C,.09404*%
G75*
%LPD*%
G75*
G36*
G01X88728Y35082D02*
Y19358D01*
G03X88787Y19216I200J0D01*
G01X98026Y9977D01*
G03X98168Y9918I142J141D01*
G01X99092D01*
G02X99292Y9718I0J-199D01*
G01Y4425D01*
G02X99092Y4225I-200J0D01*
G01X4700D01*
G02X4500Y4425I0J200D01*
G01Y77926D01*
G02X4700Y78126I200J0D01*
G01X11372D01*
G03X11572Y78326I0J200D01*
G01Y134599D01*
G02X11660Y134766I200J1D01*
G01X11720Y134806D01*
G02X11972Y134781I111J-167D01*
G01X59245Y87508D01*
G02X59304Y87367I-141J-142D01*
G01Y64672D01*
G03X59362Y64530I200J-1D01*
G01X88670Y35223D01*
G02X88728Y35082I-142J-141D01*
G37*
G36*
G01X102790Y13747D02*
X102596Y13499D01*
G02X102438Y13422I-158J123D01*
G01X99619D01*
G02X99477Y13481I0J200D01*
G01X92291Y20667D01*
G02X92232Y20809I141J142D01*
G01Y36533D01*
G03X92173Y36675I-200J0D01*
G01X62865Y65981D01*
G02X62806Y66123I141J142D01*
G01Y88818D01*
G03X62747Y88960I-200J0D01*
G01X7401Y144307D01*
G02X7342Y144449I141J142D01*
G01Y176348D01*
G02X7485Y176539I200J-1D01*
G01X7916Y176667D01*
X8041Y176621D01*
X8077Y176565D01*
G03Y182171I4323J2803D01*
G01X8041Y182115D01*
X7916Y182069D01*
X7485Y182197D01*
G02X7342Y182388I57J192D01*
G01Y186701D01*
G02X7401Y186843I200J0D01*
G01X11403Y190845D01*
G03X11462Y190987I-141J142D01*
G01Y203398D01*
G02X11662Y203598I200J0D01*
G01X13698D01*
G02X13898Y203398I0J-200D01*
G01Y202518D01*
G03X13957Y202376I200J0D01*
G01X15846Y200487D01*
G03X15988Y200428I142J141D01*
G01X32843D01*
G03X32985Y200487I0J200D01*
G01X36913Y204415D01*
G03X36972Y204557I-141J142D01*
G01Y229051D01*
G02X37031Y229193I200J0D01*
G01X40957Y233119D01*
G02X41099Y233178I142J-141D01*
G01X41279D01*
G02X41464Y233055I0J-200D01*
G01X41487Y232999D01*
X41464Y232881D01*
X38117Y229534D01*
G03X38058Y229392I141J-142D01*
G01Y211828D01*
G03X38117Y211686I200J0D01*
G01X43640Y206163D01*
G02X43691Y205965I-141J-142D01*
G01X43576Y205574D01*
X43496Y205501D01*
X43442Y205489D01*
G03X43745Y202321I337J-1566D01*
G01X43784D01*
X43856Y202290D01*
X43931Y202214D01*
G02Y201932I-142J-141D01*
G01X43855Y201856D01*
X43783Y201825D01*
X43745D01*
G03X45379Y200133I35J-1602D01*
G01X45385Y200233D01*
X45415Y200300D01*
X45437Y200322D01*
X53899D01*
G02X54041Y200263I0J-200D01*
G01X79339Y174964D01*
G02X79398Y174822I-141J-142D01*
G01Y62668D01*
G03X79457Y62526I200J0D01*
G01X96001Y45983D01*
G03X96143Y45924I142J141D01*
G01X97892D01*
G02X98034Y45865I0J-200D01*
G01X98841Y45057D01*
G03X98983Y44998I142J141D01*
G01X99080D01*
G02X99280Y44798I0J-200D01*
G01Y44348D01*
G03X99480Y44148I200J0D01*
G01X107498D01*
G02X107698Y43948I0J-200D01*
G01Y42402D01*
G02X107498Y42202I-200J0D01*
G01X99098D01*
G03X98898Y42002I0J-200D01*
G01Y38998D01*
G02X98698Y38798I-200J0D01*
G01Y32285D01*
G03X98757Y32143I200J0D01*
G01X99249Y31652D01*
X99279Y31579D01*
Y31548D01*
X99280D01*
Y30311D01*
G02X99182Y30139I-200J0D01*
G01X98839Y29937D01*
X98733Y29936D01*
X98686Y29962D01*
G03X98404Y30084I-774J-1403D01*
G01X98342Y30104D01*
X98266Y30209D01*
Y39629D01*
G03X98207Y39771I-200J0D01*
G01X69089Y68889D01*
G02X69030Y69031I141J142D01*
G01Y164664D01*
G03X68971Y164806I-200J0D01*
G01X50499Y183277D01*
G02X50440Y183419I141J142D01*
G01Y183570D01*
G02X50499Y183712I200J0D01*
G01X50528Y183740D01*
G02X50668Y183798I141J-142D01*
G01X52802D01*
G03X53002Y183998I0J200D01*
G01Y191002D01*
X53000D01*
Y194120D01*
G03X52800Y194320I-200J0D01*
G01X46307D01*
X46278Y194329D01*
G03X44654Y191681I-478J-1529D01*
G01X44696Y191638D01*
X44718Y191520D01*
X44528Y191068D01*
X44428Y191002D01*
X44398D01*
Y183998D01*
G03X44598Y183798I200J0D01*
G01X46771D01*
X46844Y183768D01*
X46858Y183754D01*
Y181457D01*
G03X46917Y181315I200J0D01*
G01X65079Y163153D01*
G02X65138Y163011I-141J-142D01*
G01Y67947D01*
G03X65197Y67805I200J0D01*
G01X94461Y38542D01*
G02X94520Y38400I-141J-142D01*
G01Y26827D01*
G02X94448Y26673I-200J0D01*
G03X96672Y26499I1022J-1233D01*
G01X96648Y26526D01*
X96622Y26594D01*
Y26766D01*
G02X96717Y26936I200J0D01*
G01X97006Y27115D01*
G02X97199Y27124I105J-170D01*
G01X97200D01*
G03X98686Y27158I711J1436D01*
G01X98733Y27184D01*
X98839Y27183D01*
X99182Y26981D01*
G02X99280Y26809I-102J-172D01*
G01Y22852D01*
X99279D01*
Y15998D01*
G03X99479Y15798I200J0D01*
G01X102699D01*
G02X102875Y15694I0J-200D01*
G01X103069Y15336D01*
X103065Y15227D01*
X103035Y15181D01*
G03X102826Y13919I1345J-871D01*
G02X102790Y13747I-194J-49D01*
G37*
G36*
G01X4500Y189318D02*
Y225278D01*
G02X4616Y225459I200J0D01*
G01X5000Y225636D01*
X5115Y225620D01*
X5160Y225582D01*
G03X7287Y225623I1040J1218D01*
G01X7331Y225664D01*
X7448Y225684D01*
X7839Y225513D01*
G02X7958Y225330I-81J-183D01*
G01Y192438D01*
G02X7900Y192297I-200J0D01*
G01X4841Y189238D01*
G02X4623Y189195I-141J142D01*
G01X4567Y189218D01*
X4500Y189318D01*
G37*
G36*
G01X24188Y222794D02*
G03X25952Y221165I162J-1594D01*
G01Y221205D01*
X25982Y221275D01*
X26059Y221351D01*
G02X26341I141J-142D01*
G01X26418Y221275D01*
X26448Y221205D01*
Y221165D01*
G03X28212Y222794I1602J35D01*
G02X28087Y222855I20J199D01*
G01X28006Y222941D01*
G02X27952Y223079I146J137D01*
G01Y230742D01*
G02X28010Y230883I200J0D01*
G01X32977Y235850D01*
G02X33118Y235908I141J-142D01*
G01X38309D01*
G02X38494Y235785I1J-200D01*
G01X38517Y235728D01*
X38494Y235611D01*
X33527Y230644D01*
G03X33468Y230502I141J-142D01*
G01Y206008D01*
G02X33410Y205867I-200J0D01*
G01X31533Y203990D01*
G02X31392Y203932I-141J142D01*
G01X19402D01*
G02X19202Y204132I-1J199D01*
G01Y210802D01*
X19172D01*
X19121Y210925D01*
G02X19165Y211143I185J76D01*
G01X21863Y213841D01*
G03X21922Y213983I-141J142D01*
G01Y215297D01*
X21999Y215402D01*
X22062Y215422D01*
G03X20147Y217656I-477J1529D01*
G01X20132Y217627D01*
X20109Y217603D01*
G02X19826I-141J141D01*
G01X19699Y217730D01*
G03X19117Y218035I-779J-779D01*
G02X19012Y218089I35J197D01*
G03X17569Y215380I-1127J-1138D01*
G01X17624Y215370D01*
X17705Y215296D01*
X17823Y214905D01*
G02X17773Y214706I-192J-58D01*
G01X17737Y214670D01*
G02X17596Y214612I-141J142D01*
G01X15438D01*
G03X15296Y214553I0J-200D01*
G01X13407Y212664D01*
G03X13348Y212522I141J-142D01*
G01Y210806D01*
X13344Y210802D01*
X11662D01*
G02X11462Y211002I-1J199D01*
G01Y239770D01*
G02X11520Y239911I200J0D01*
G01X12856Y241247D01*
G02X12997Y241306I142J-141D01*
G01X13128D01*
G02X13328Y241106I-1J-201D01*
G01Y240147D01*
G03X13650Y239368I1101J-1D01*
G01X14177Y238841D01*
G03X14956Y238518I779J778D01*
G01X16075D01*
G03X16217Y238577I0J200D01*
G01X17272Y239632D01*
G03X17330Y239774I-142J141D01*
G01Y241106D01*
G02X17530Y241306I201J-1D01*
G01X17998D01*
G02X18198Y241106I0J-200D01*
G01Y239625D01*
G03X18398Y239425I200J0D01*
G01X25202D01*
G03X25402Y239625I0J200D01*
G01Y241476D01*
G02X25602Y241676I200J0D01*
G01X26276D01*
X26391Y241567D01*
X26396Y241487D01*
G03X28550Y243086I1599J96D01*
G01X28509Y243101D01*
X28324Y243286D01*
G02Y243568I142J141D01*
G01X28527Y243771D01*
X28567Y243787D01*
G03X26395Y245368I-572J1496D01*
G01X26391Y245287D01*
X26276Y245178D01*
X25602D01*
G02X25402Y245378I0J200D01*
G01Y247229D01*
G03X25202Y247429I-200J0D01*
G01X18398D01*
G03X18198Y247229I0J-200D01*
G01Y245008D01*
G02X17998Y244808I-200J0D01*
G01X12066D01*
G02X11881Y244932I0J200D01*
G01X11858Y244989D01*
X11881Y245106D01*
X17595Y250820D01*
G02X17736Y250878I141J-142D01*
G01X17764D01*
X17882Y250996D01*
Y251024D01*
G02X17940Y251165I200J0D01*
G01X29184Y262409D01*
G02X29325Y262468I142J-141D01*
G01X36392D01*
G03X36533Y262526I0J200D01*
G01X41287Y267280D01*
G02X41428Y267338I141J-142D01*
G01X62352D01*
G02X62493Y267280I0J-200D01*
G01X73325Y256448D01*
X73353Y256352D01*
X73343Y256302D01*
G03X73308Y255970I1567J-333D01*
G01Y255930D01*
X73278Y255856D01*
X73049Y255628D01*
G02X72908Y255570I-141J142D01*
G01X53758D01*
G03X53558Y255370I1J-200D01*
G01Y239612D01*
G02X53358Y239412I-199J0D01*
G01X31667D01*
G03X31525Y239353I0J-200D01*
G01X24507Y232335D01*
G03X24448Y232193I141J-142D01*
G01Y223079D01*
G02X24394Y222941I-200J-1D01*
G01X24313Y222855D01*
G02X24188Y222794I-145J138D01*
G37*
G36*
G01X7331Y227936D02*
X7287Y227977D01*
G03X6172Y228402I-1087J-1177D01*
G01X6131Y228401D01*
X6056Y228431D01*
X5770Y228717D01*
G02X5712Y228858I142J141D01*
G01Y238854D01*
G02X5770Y238995I200J0D01*
G01X7617Y240842D01*
G02X7835Y240886I142J-141D01*
G01X7892Y240862D01*
X7958Y240762D01*
Y228270D01*
G02X7839Y228087I-200J0D01*
G01X7448Y227916D01*
X7331Y227936D01*
G37*
G36*
G01X4500Y241120D02*
Y250678D01*
G02X4700Y250878I200J0D01*
G01X14197D01*
G02X14382Y250755I0J-200D01*
G01X14405Y250698D01*
X14382Y250581D01*
X4841Y241040D01*
G02X4623Y240997I-141J142D01*
G01X4567Y241020D01*
X4500Y241120D01*
G37*
G36*
G01X16680Y264148D02*
Y252962D01*
G02X16621Y252820I-200J0D01*
G01X15940Y252139D01*
G02X15798Y252080I-142J141D01*
G01X5560D01*
G02X5360Y252280I0J200D01*
G01Y264148D01*
G02X5560Y264348I200J0D01*
G01X16480D01*
G02X16680Y264148I0J-200D01*
G37*
G36*
G01X76512Y255930D02*
Y255970D01*
G03X75257Y257534I-1602J0D01*
G01X75229Y257540D01*
X75180Y257567D01*
X63364Y269383D01*
G03X63223Y269442I-142J-141D01*
G01X40557D01*
G03X40416Y269383I1J-200D01*
G01X35662Y264629D01*
G02X35521Y264570I-142J141D01*
G01X28454D01*
G03X28313Y264512I0J-200D01*
G01X18223Y254422D01*
G02X18005Y254378I-142J141D01*
G01X17948Y254402D01*
X17882Y254502D01*
Y265350D01*
G03X17682Y265550I-201J-1D01*
G01X10602D01*
G02X10402Y265750I-1J199D01*
G01Y274602D01*
Y278433D01*
G02X10602Y278633I200J0D01*
G01X83170D01*
G02X83370Y278433I0J-200D01*
G01Y255770D01*
G02X83170Y255570I-200J0D01*
G01X76912D01*
G02X76771Y255628I0J200D01*
G01X76542Y255856D01*
X76512Y255930D01*
G37*
G36*
G01X9200Y273400D02*
Y266060D01*
G02X9000Y265860I-200J0D01*
G01X5120D01*
G02X4920Y266060I0J200D01*
G01Y273400D01*
G02X5120Y273600I200J0D01*
G01X9000D01*
G02X9200Y273400I0J-200D01*
G37*
G36*
G01X49500Y207199D02*
G03X49558Y207253I-721J833D01*
G01X49909Y207604D01*
G03X50232Y208383I-778J779D01*
G01Y209233D01*
G03X49909Y210012I-1101J0D01*
G01X49468Y210453D01*
X49452Y210487D01*
G03X46406Y209594I-1462J-655D01*
G01X46413Y209550D01*
X46389Y209467D01*
X46162Y209203D01*
G02X46010Y209134I-151J131D01*
G01X45706D01*
G02X45564Y209193I0J200D01*
G01X41621Y213137D01*
G02X41562Y213279I141J142D01*
G01Y227941D01*
G02X41621Y228083I200J0D01*
G01X41970Y228432D01*
G02X42252I141J-142D01*
G01X42294Y228390D01*
X42319Y228276D01*
X42298Y228220D01*
G03X43765Y226061I1502J-557D01*
G01X43803D01*
X43875Y226030D01*
X43951Y225954D01*
G02Y225672I-142J-141D01*
G01X43875Y225596D01*
X43803Y225565D01*
X43765D01*
G03X45400Y223879I35J-1602D01*
G01X45403Y223935D01*
G02X45461Y224066I200J-10D01*
G01X45463Y224068D01*
X48480D01*
G02X48622Y224009I0J-200D01*
G01X90209Y182422D01*
G02X90268Y182280I-141J-142D01*
G01Y96669D01*
G03X90327Y96527I200J0D01*
G01X96777Y90077D01*
G03X96919Y90018I142J141D01*
G01X97892D01*
G02X98034Y89959I0J-200D01*
G01X98841Y89153D01*
G03X98983Y89094I142J141D01*
G01X99080D01*
G02X99280Y88894I0J-200D01*
G01Y88444D01*
G03X99480Y88244I200J0D01*
G01X108582D01*
G03X108782Y88444I0J200D01*
G01Y95096D01*
G03X108582Y95296I-200J0D01*
G01X99480D01*
G03X99280Y95096I0J-200D01*
G01Y94646D01*
G02X99080Y94446I-200J0D01*
G01X98983D01*
G03X98841Y94388I-1J-200D01*
G01X98272Y93819D01*
G02X97990I-141J142D01*
G01X93831Y97978D01*
G02X93772Y98120I141J142D01*
G01Y183731D01*
G03X93713Y183873I-200J0D01*
G01X50073Y227513D01*
G03X49931Y227572I-142J-141D01*
G01X45492D01*
X45419Y227603D01*
X45408Y227614D01*
X45399Y227759D01*
G03X43774Y229265I-1599J-96D01*
G01X43713Y229264D01*
X43611Y229330D01*
X43443Y229728D01*
G02X43485Y229947I184J78D01*
G01X43877Y230339D01*
G02X44019Y230398I142J-141D01*
G01X54845D01*
G02X55013Y230306I0J-200D01*
G01X55195Y230023D01*
G02X55208Y229831I-168J-108D01*
G03X55506Y228053I1455J-670D01*
G01X55534Y228024D01*
X55562Y227954D01*
Y227846D01*
G02X55362Y227646I-200J0D01*
G01X55292D01*
G02X55154Y227701I0J200D01*
G03X55209Y225442I-1108J-1157D01*
G01X55243D01*
X55316Y225412D01*
X56032Y224696D01*
G03X56174Y224638I141J142D01*
G01X56196D01*
X90183Y190651D01*
G03X90325Y190592I142J141D01*
G01X97892D01*
G02X98034Y190533I0J-200D01*
G01X98841Y189725D01*
G03X98983Y189666I142J141D01*
G01X99080D01*
G02X99280Y189466I0J-200D01*
G01Y189016D01*
G03X99480Y188816I200J0D01*
G01X107598D01*
G02X107798Y188616I0J-200D01*
G01Y187054D01*
G02X107598Y186854I-200J0D01*
G01X98998D01*
G03X98798Y186654I0J-200D01*
G01Y182781D01*
G02X98739Y182639I-200J0D01*
G01X98657Y182557D01*
G03X98598Y182415I141J-142D01*
G01Y176028D01*
G03X98798Y175828I200J0D01*
G01X99080D01*
G02X99280Y175628I0J-200D01*
G01Y167520D01*
X99279D01*
Y160666D01*
G03X99479Y160466I200J0D01*
G01X108583D01*
G03X108783Y160666I0J200D01*
G01Y167520D01*
X108782D01*
Y172094D01*
G02X108982Y172294I200J0D01*
G01X113642D01*
G02X113826Y172171I-1J-200D01*
G02X113783Y171952I-184J-78D01*
G01X113207Y171377D01*
G03X113148Y171235I141J-142D01*
G01Y155180D01*
G02X112948Y154980I-200J0D01*
G01X99492D01*
G03X99292Y154780I0J-200D01*
G01Y144478D01*
G03X99492Y144278I200J0D01*
G01X112948D01*
G02X113148Y144078I0J-200D01*
G01Y125866D01*
G02X112948Y125666I-200J0D01*
G01X99492D01*
G03X99292Y125466I0J-200D01*
G01Y115164D01*
G03X99492Y114964I200J0D01*
G01X109218D01*
G02X109374Y114889I0J-200D01*
G01X109569Y114644D01*
G02X109608Y114476I-156J-125D01*
G01Y114475D01*
G03X112323Y113007I1562J-355D01*
G02X112467Y113068I144J-139D01*
G01X114353D01*
G03X114495Y113127I0J200D01*
G01X115019Y113652D01*
G02X115264Y113682I142J-141D01*
G01X115656Y113445D01*
X115705Y113316D01*
X115684Y113251D01*
G03X117881Y107746I4489J-1399D01*
G01X117882D01*
G02X117977Y107521I-99J-174D01*
G01X117879Y107145D01*
G02X117686Y106996I-193J51D01*
G01X108983D01*
G02X108783Y107196I0J200D01*
G01Y107897D01*
X108782D01*
Y110846D01*
G03X108582Y111046I-200J0D01*
G01X105199D01*
X105082Y111163D01*
Y111185D01*
X103355Y112913D01*
G03X103213Y112972I-142J-141D01*
G01X102337D01*
G02X102193Y113033I0J200D01*
G03X99483Y111541I-1153J-1112D01*
G01X99494Y111497D01*
X99475Y111407D01*
X99322Y111212D01*
G03X99280Y111089I158J-123D01*
G01Y107897D01*
X99279D01*
Y100843D01*
X99280D01*
Y97894D01*
G03X99480Y97694I200J0D01*
G01X108582D01*
G03X108782Y97894I0J200D01*
G01Y100843D01*
X108783D01*
Y104694D01*
G02X108983Y104894I200J0D01*
G01X126028D01*
G03X126170Y104953I0J200D01*
G01X133367Y112149D01*
G02X133509Y112208I142J-141D01*
G01X178021D01*
G02X178163Y112149I0J-200D01*
G01X179869Y110444D01*
X179899Y110369D01*
X179898Y110328D01*
G03X181472Y111902I1602J-28D01*
G01X181431Y111901D01*
X181356Y111931D01*
X179035Y114253D01*
G03X178893Y114312I-142J-141D01*
G01X132637D01*
G03X132495Y114253I0J-200D01*
G01X125298Y107055D01*
G02X125156Y106996I-142J141D01*
G01X122660D01*
G02X122467Y107145I0J200D01*
G01X122369Y107521D01*
G02X122464Y107746I194J51D01*
G01X122465D01*
G03X118773Y116340I-2292J4105D01*
G01X118708Y116319D01*
X118579Y116368D01*
X118342Y116760D01*
G02X118372Y117005I171J103D01*
G01X118417Y117050D01*
G02X118559Y117108I141J-142D01*
G01X183548D01*
G02X183748Y116908I0J-200D01*
G01Y105251D01*
G02X183673Y105095I-200J0D01*
G01X183428Y104900D01*
G02X183260Y104861I-125J156D01*
G01X183259D01*
G03X183258Y101739I-359J-1561D01*
G01X183260D01*
X183304Y101749D01*
X183392Y101729D01*
X183673Y101505D01*
G02X183748Y101349I-125J-156D01*
G01Y101251D01*
G02X183673Y101095I-200J0D01*
G01X183428Y100900D01*
G02X183260Y100861I-125J156D01*
G01X183259D01*
G03X182523Y100857I-360J-1561D01*
G01X182500Y100852D01*
X179629D01*
G02X179499Y100900I0J200D01*
G03X177625Y98313I-1038J-1220D01*
G01X177646Y98300D01*
X178138Y97807D01*
G03X178280Y97748I142J141D01*
G01X181148D01*
G02X181348Y97548I0J-200D01*
G01Y88700D01*
X181343Y88677D01*
G03X183516Y86821I1557J-377D01*
G02X183735Y86778I78J-184D01*
G01X193805Y76707D01*
G03X193947Y76648I142J141D01*
G01X194214D01*
G02X194368Y76576I0J-200D01*
G03X196855Y76604I1232J1024D01*
G01X196881Y76637D01*
X196957Y76677D01*
X197298Y76696D01*
G02X197450Y76638I11J-200D01*
G01X204432Y69657D01*
G03X204574Y69598I142J141D01*
G01X218174D01*
G02X218316Y69539I0J-200D01*
G01X220409Y67447D01*
G02X220468Y67305I-141J-142D01*
G01Y25251D01*
G03X220527Y25109I200J0D01*
G01X227073Y18563D01*
G02X227116Y18344I-141J-141D01*
G01X227093Y18288D01*
X226993Y18222D01*
X225749D01*
G02X225607Y18281I0J200D01*
G01X215171Y28717D01*
G02X215112Y28859I141J142D01*
G01Y61231D01*
G02X215171Y61373I200J0D01*
G01X218116Y64319D01*
X218191Y64349D01*
X218232Y64348D01*
G03X217107Y67063I28J1602D01*
G02X216963Y67002I-144J139D01*
G01X196529D01*
G02X196387Y67061I0J200D01*
G01X188685Y74763D01*
G03X188543Y74822I-142J-141D01*
G01X143589D01*
G02X143447Y74881I0J200D01*
G01X137750Y80577D01*
G03X137608Y80636I-142J-141D01*
G01X123112D01*
G02X122968Y80697I0J200D01*
G03Y78473I-1153J-1112D01*
G02X123112Y78534I144J-139D01*
G01X132881D01*
G02X133081Y78334I0J-200D01*
G01Y78321D01*
X133079Y78309D01*
G03X133078Y78283I199J-21D01*
G01Y78282D01*
G02X132878Y78082I-200J0D01*
G01X125597D01*
G03X125455Y78023I0J-200D01*
G01X122527Y75095D01*
G03X122468Y74953I141J-142D01*
G01Y68571D01*
G02X122345Y68387I-200J0D01*
G01X122289Y68363D01*
X122170Y68387D01*
X119211Y71347D01*
G02X119152Y71489I141J142D01*
G01Y80951D01*
G02X119211Y81093I200J0D01*
G01X119767Y81649D01*
G02X119909Y81708I142J-141D01*
G01X149243D01*
G03X149385Y81767I0J200D01*
G01X173107Y105489D01*
G02X173249Y105548I142J-141D01*
G01X177603D01*
G02X177747Y105487I0J-200D01*
G03Y107713I1153J1113D01*
G02X177603Y107652I-144J139D01*
G01X172377D01*
G03X172235Y107593I0J-200D01*
G01X148513Y83871D01*
G02X148371Y83812I-142J141D01*
G01X141267D01*
G02X141067Y84012I0J200D01*
G01Y90572D01*
X141066D01*
Y92968D01*
X141067D01*
Y99468D01*
G02X141267Y99668I200J0D01*
G01X141629D01*
X141656Y99661D01*
G03X142935Y102567I444J1539D01*
G01X142914Y102580D01*
X142782Y102713D01*
G03X142640Y102772I-142J-141D01*
G01X142412D01*
X142393Y102775D01*
G03X141807I-293J-1575D01*
G01X141788Y102772D01*
X141266D01*
G02X141066Y102972I0J200D01*
G03X140866Y103172I-200J0D01*
G01X131764D01*
G03X131564Y102972I0J-200D01*
G01Y100022D01*
X131563D01*
Y92968D01*
X131564D01*
Y90572D01*
X131563D01*
Y84012D01*
G02X131363Y83812I-200J0D01*
G01X119037D01*
G03X118895Y83753I0J-200D01*
G01X117107Y81965D01*
G03X117048Y81823I141J-142D01*
G01Y70617D01*
G03X117107Y70475I200J0D01*
G01X120509Y67073D01*
G02X120568Y66931I-141J-142D01*
G01Y32859D01*
G02X120509Y32717I-200J0D01*
G01X119137Y31345D01*
G03X119078Y31203I141J-142D01*
G01Y27859D01*
G02X119019Y27717I-200J0D01*
G01X109124Y17821D01*
G02X108907Y17778I-141J142D01*
G01X108850Y17801D01*
X108783Y17902D01*
Y22852D01*
X108782D01*
Y28198D01*
G02X108982Y28398I200J0D01*
G01X114815D01*
G03X114957Y28457I0J200D01*
G01X115743Y29243D01*
G03X115802Y29385I-141J142D01*
G01Y37715D01*
G03X115743Y37857I-200J0D01*
G01X115441Y38158D01*
G02Y38442I141J142D01*
G01X115443Y38443D01*
G03X115502Y38585I-141J142D01*
G01Y44715D01*
G03X115443Y44857I-200J0D01*
G01X114257Y46043D01*
G03X114115Y46102I-142J-141D01*
G01X108982D01*
G02X108782Y46302I0J200D01*
G01Y51002D01*
G03X108582Y51202I-200J0D01*
G01X99480D01*
G03X99280Y51002I0J-200D01*
G01Y50552D01*
G02X99080Y50352I-200J0D01*
G01X98983D01*
G03X98841Y50293I0J-200D01*
G01X98034Y49485D01*
G02X97892Y49426I-142J141D01*
G01X97594D01*
G02X97452Y49485I0J200D01*
G01X82961Y63977D01*
G02X82902Y64119I141J142D01*
G01Y176273D01*
G03X82843Y176415I-200J0D01*
G01X55492Y203765D01*
G03X55350Y203824I-142J-141D01*
G01X45480D01*
X45407Y203854D01*
X45387Y203874D01*
X45379Y204013D01*
G03X44992Y204970I-1599J-90D01*
G01X44953Y205015D01*
X44937Y205130D01*
X45114Y205515D01*
G02X45295Y205632I182J-83D01*
G01X46391D01*
X46491Y205565D01*
X46514Y205509D01*
G03X49426Y206843I1476J623D01*
G02X49410Y206973I180J88D01*
G01X49434Y207089D01*
G02X49500Y207199I195J-42D01*
G37*
G36*
G01X191452Y106048D02*
Y114062D01*
G02X191510Y114203I200J0D01*
G01X191796Y114489D01*
X191871Y114519D01*
X191912Y114518D01*
G03X190338Y116092I28J1602D01*
G01X190339Y116051D01*
X190309Y115976D01*
X189473Y115140D01*
G02X189255Y115096I-142J141D01*
G01X189198Y115120D01*
X189132Y115220D01*
Y150270D01*
G03X189073Y150411I-200J-1D01*
G01X176341Y163143D01*
G03X176200Y163202I-142J-141D01*
G01X143390D01*
G03X143249Y163143I1J-200D01*
G01X142559Y162453D01*
G02X142418Y162394I-142J141D01*
G01X141266D01*
G02X141066Y162594I1J200D01*
G03X140866Y162794I-199J0D01*
G01X131764D01*
G03X131564Y162594I-1J-200D01*
G01Y159092D01*
G03X131764Y158892I199J-1D01*
G01X140866D01*
G03X141066Y159092I1J199D01*
G02X141266Y159292I201J-1D01*
G01X142683D01*
X142708Y159284D01*
G03X144497Y159995I421J1546D01*
G01X144510Y160016D01*
X144534Y160040D01*
G02X144675Y160098I141J-142D01*
G01X174915D01*
G02X175056Y160040I0J-200D01*
G01X185970Y149126D01*
G02X186028Y148985I-142J-141D01*
G01Y118301D01*
G02X185905Y118116I-200J0D01*
G01X185848Y118093D01*
X185731Y118116D01*
X184694Y119153D01*
G03X184553Y119212I-142J-141D01*
G01X150892D01*
G02X150692Y119412I-1J200D01*
G01Y150402D01*
G03X150492Y150602I-201J0D01*
G01X128821D01*
G02X128679Y150660I-1J200D01*
G01X127870Y151469D01*
G02X127812Y151611I142J141D01*
G01Y157469D01*
G02X127935Y157654I200J0D01*
G01X127992Y157677D01*
X128109Y157654D01*
X132896Y152867D01*
G03X133037Y152808I142J141D01*
G01X164822D01*
G02X164963Y152750I0J-200D01*
G01X181769Y135944D01*
X181799Y135869D01*
X181798Y135828D01*
G03X183372Y137402I1602J-28D01*
G01X183331Y137401D01*
X183256Y137431D01*
X165834Y154853D01*
G03X165693Y154912I-142J-141D01*
G01X133908D01*
G02X133767Y154970I0J200D01*
G01X128660Y160077D01*
G02X128602Y160218I142J141D01*
G01Y208273D01*
G03X128543Y208414I-200J-1D01*
G01X125971Y210986D01*
X125941Y211061D01*
X125942Y211102D01*
G03X124368Y209528I-1602J28D01*
G01X124409Y209529D01*
X124484Y209499D01*
X126440Y207543D01*
G02X126498Y207402I-142J-141D01*
G01Y174732D01*
G02X126298Y174532I-199J0D01*
G01X116445D01*
G03X116304Y174473I1J-200D01*
G01X116107Y174276D01*
G02X115889Y174233I-141J142D01*
G01X115832Y174256D01*
X115766Y174356D01*
Y182298D01*
X115802D01*
Y192110D01*
G03X115602Y192310I-201J-1D01*
G01X108982D01*
G02X108782Y192510I0J200D01*
G01Y195670D01*
G03X108582Y195870I-200J0D01*
G01X99480D01*
G03X99280Y195670I0J-200D01*
G01Y195220D01*
G02X99080Y195020I-200J0D01*
G01X98983D01*
G03X98841Y194961I0J-200D01*
G01X98033Y194153D01*
G02X97892Y194094I-142J141D01*
G01X91776D01*
G02X91635Y194153I1J200D01*
G01X57858Y227929D01*
X57851Y228083D01*
X57900Y228143D01*
G03X58118Y229831I-1237J1018D01*
G01X58097Y229878D01*
X58104Y229979D01*
X58313Y230306D01*
G02X58481Y230398I168J-108D01*
G01X61243D01*
G02X61384Y230340I0J-200D01*
G01X88487Y203237D01*
G03X88629Y203178I142J141D01*
G01X97905D01*
G02X98046Y203120I0J-200D01*
G01X98841Y202325D01*
G03X98983Y202266I142J141D01*
G01X99080D01*
G02X99280Y202066I0J-200D01*
G01Y201616D01*
G03X99480Y201416I200J0D01*
G01X108582D01*
G03X108782Y201616I0J200D01*
G01Y208270D01*
G03X108582Y208470I-200J0D01*
G01X99480D01*
G03X99280Y208270I0J-200D01*
G01Y207820D01*
G02X99080Y207620I-200J0D01*
G01X98983D01*
G03X98841Y207561I0J-200D01*
G01X98033Y206753D01*
G02X97892Y206694I-142J141D01*
G01X96836D01*
X96823Y206682D01*
X90080D01*
G02X89939Y206740I0J200D01*
G01X77902Y218777D01*
G02X77858Y218995I141J142D01*
G01X77882Y219052D01*
X77981Y219118D01*
X140901D01*
G02X141042Y219060I0J-200D01*
G01X143980Y216122D01*
G02X144038Y215981I-142J-141D01*
G01Y212643D01*
G02X143914Y212457I-200J-1D01*
G01X143514Y212294D01*
X143395Y212319D01*
X143353Y212363D01*
G03X141615Y212732I-1146J-1120D01*
G01X141568Y212713D01*
X141470Y212724D01*
X141155Y212938D01*
G02X141067Y213103I112J166D01*
G01X140975Y213195D01*
X131763D01*
G03X131563Y212995I0J-200D01*
G01Y210022D01*
G02X131484Y209863I-200J0D01*
G01X131193Y209641D01*
X131101Y209624D01*
X131056Y209637D01*
G03Y206549I-429J-1544D01*
G01X131101Y206562D01*
X131193Y206545D01*
X131484Y206323D01*
G02X131563Y206164I-121J-159D01*
G01Y206141D01*
X131564D01*
Y203192D01*
G03X131764Y202992I199J0D01*
G01X140866D01*
G03X141066Y203192I1J199D01*
G02X141266Y203392I201J0D01*
G01X141470D01*
X141493Y203386D01*
G03Y206500I377J1557D01*
G01X141470Y206494D01*
X141267D01*
G02X141067Y206694I0J200D01*
G01Y209383D01*
G02X141155Y209548I200J-1D01*
G01X141470Y209762D01*
X141568Y209773D01*
X141615Y209754D01*
G03X143353Y210123I592J1489D01*
G01X143395Y210167D01*
X143514Y210192D01*
X143914Y210029D01*
G02X144038Y209843I-76J-185D01*
G01Y198570D01*
G02X143915Y198386I-200J0D01*
G01X143858Y198362D01*
X143741Y198385D01*
X141990Y200136D01*
G03X141849Y200194I-141J-142D01*
G01X141267D01*
G02X141067Y200394I0J200D01*
G01Y200395D01*
G03X140867Y200595I-200J0D01*
G01X131763D01*
G03X131563Y200395I0J-200D01*
G01Y193541D01*
X131564D01*
Y190592D01*
G03X131764Y190392I199J-1D01*
G01X140866D01*
G03X141066Y190592I1J199D01*
G01Y193541D01*
X141067D01*
Y194608D01*
G02X141185Y194790I200J0D01*
G01X141571Y194964D01*
X141687Y194947D01*
X141731Y194908D01*
G03X143469Y194659I1059J1202D01*
G01X143516Y194681D01*
X143617Y194674D01*
X143946Y194465D01*
G02X144038Y194297I-108J-168D01*
G01Y187049D01*
G02X143980Y186908I-200J0D01*
G01X143350Y186278D01*
G02X143209Y186220I-141J142D01*
G01X142454D01*
G02X142313Y186278I0J200D01*
G01X141505Y187086D01*
G03X141363Y187144I-141J-142D01*
G01X141266D01*
G02X141066Y187344I1J201D01*
G01Y187794D01*
G03X140866Y187994I-199J0D01*
G01X131764D01*
G03X131564Y187794I-1J-200D01*
G01Y181142D01*
G03X131764Y180942I199J-1D01*
G01X140866D01*
G03X141066Y181142I1J199D01*
G01Y181592D01*
G02X141266Y181792I201J-1D01*
G01X141363D01*
G03X141505Y181850I1J200D01*
G01X142313Y182658D01*
G02X142454Y182716I141J-142D01*
G01X144660D01*
G03X144802Y182775I0J200D01*
G01X147483Y185456D01*
G03X147542Y185598I-141J142D01*
G01Y210010D01*
G02X147627Y210174I200J0D01*
G01X147936Y210390D01*
X148033Y210403D01*
X148079Y210386D01*
G03X149783Y210777I552J1504D01*
G02X149927Y210838I144J-139D01*
G01X176113D01*
G02X176254Y210780I0J-200D01*
G01X194050Y192984D01*
G02X194108Y192843I-142J-141D01*
G01Y108366D01*
G02X194050Y108225I-200J0D01*
G01X191793Y105968D01*
G02X191575Y105924I-142J141D01*
G01X191518Y105948D01*
X191452Y106048D01*
G37*
G36*
G01X97826Y252185D02*
X97772Y252161D01*
G03Y249239I658J-1461D01*
G01X97826Y249215D01*
X97890Y249116D01*
Y247771D01*
G02X97690Y247571I-200J0D01*
G01X63890D01*
Y247610D01*
X63800D01*
G03X63600Y247410I0J-200D01*
G01Y239700D01*
G02X63400Y239500I-200J0D01*
G01X54960D01*
G02X54760Y239700I0J200D01*
G01Y254168D01*
G02X54960Y254368I200J0D01*
G01X84372D01*
G03X84572Y254568I0J200D01*
G01Y278436D01*
G02X84772Y278636I200J0D01*
G01X366628D01*
G02X366828Y278436I0J-200D01*
G01Y234679D01*
G02X366628Y234479I-200J0D01*
G01X345261D01*
G02X345061Y234679I0J200D01*
G01Y265354D01*
G03X344861Y265554I-200J0D01*
G01X313078D01*
G02X313013Y265565I0J200D01*
G03X305679I-3667J-10622D01*
G02X305614Y265554I-65J189D01*
G01X131450D01*
G03X131250Y265354I0J-200D01*
G01Y251100D01*
G02X131188Y250956I-200J1D01*
G01X130950Y250727D01*
X130874Y250699D01*
X130833Y250701D01*
G03X130307Y247565I-68J-1601D01*
G01X130331Y247558D01*
X130373Y247533D01*
X130389Y247517D01*
X130462Y247486D01*
X131050D01*
G02X131250Y247286I0J-200D01*
G01Y247115D01*
G02X131050Y246915I-200J0D01*
G01X112575D01*
G02X112433Y246974I0J200D01*
G01X111209Y248198D01*
G02X111156Y248385I142J141D01*
G01X111247Y248767D01*
X111316Y248843D01*
X111366Y248860D01*
G03X110832Y251982I-506J1520D01*
G01X110791Y251981D01*
X110716Y252011D01*
X108842Y253885D01*
G02X108783Y254027I141J142D01*
G01Y255515D01*
G03X108583Y255715I-200J0D01*
G01X99479D01*
G03X99279Y255515I0J-200D01*
G01Y255470D01*
G02X99079Y255270I-200J0D01*
G01X98090D01*
G03X97890Y255070I0J-200D01*
G01Y252284D01*
X97826Y252185D01*
G37*
G36*
G01X113496Y4425D02*
Y8295D01*
G02X113619Y8480I200J1D01*
G01X113676Y8503D01*
X113793Y8480D01*
X115276Y6997D01*
G03X115418Y6938I142J141D01*
G01X145732D01*
G03X145874Y6997I0J200D01*
G01X152313Y13436D01*
G03X152372Y13578I-141J142D01*
G01Y37934D01*
G03X152313Y38076I-200J0D01*
G01X149036Y41353D01*
G03X148894Y41412I-142J-141D01*
G01X141819D01*
G02X141678Y41470I0J200D01*
G01X141125Y42023D01*
G02X141066Y42164I141J142D01*
G01Y43126D01*
G03X140866Y43326I-199J1D01*
G01X131764D01*
G03X131564Y43126I-1J-199D01*
G01Y36474D01*
G03X131764Y36274I199J0D01*
G01X140866D01*
G03X141066Y36474I1J200D01*
G01Y37126D01*
G02X141125Y37267I200J-1D01*
G01X141708Y37850D01*
G02X141849Y37908I141J-142D01*
G01X142492D01*
G02X142692Y37708I0J-200D01*
G01Y36522D01*
G03X143014Y35743I1101J-1D01*
G01X143541Y35216D01*
G03X144320Y34894I778J779D01*
G01X145439D01*
G03X145581Y34952I1J200D01*
G01X146636Y36007D01*
G03X146694Y36149I-142J141D01*
G01Y37744D01*
G02X146753Y37885I200J-1D01*
G01X146776Y37908D01*
X147443D01*
G02X147584Y37850I0J-200D01*
G01X148810Y36624D01*
G02X148868Y36483I-142J-141D01*
G01Y15029D01*
G02X148810Y14888I-200J0D01*
G01X144422Y10500D01*
G02X144281Y10442I-141J142D01*
G01X123364D01*
G02X123184Y10555I0J200D01*
G01X123003Y10933D01*
X123016Y11048D01*
X123053Y11093D01*
G03X117293I-2880J2326D01*
G01X117330Y11048D01*
X117343Y10933D01*
X117162Y10555D01*
G02X116982Y10442I-180J87D01*
G01X116869D01*
G02X116728Y10500I0J200D01*
G01X113865Y13363D01*
G03X113723Y13422I-142J-141D01*
G01X108181D01*
G02X107996Y13545I0J200D01*
G01X107973Y13602D01*
X107996Y13719D01*
X121123Y26846D01*
G03X121182Y26987I-141J142D01*
G01Y30332D01*
G02X121240Y30473I200J0D01*
G01X122369Y31602D01*
G02X122651I141J-142D01*
G01X126471Y27782D01*
G03X126612Y27724I141J142D01*
G01X131364D01*
G02X131564Y27524I-1J-201D01*
G01Y20724D01*
G03X131764Y20524I199J0D01*
G01X140866D01*
G03X141066Y20724I1J200D01*
G02X141266Y20924I201J0D01*
G01X141879D01*
G03X142020Y20982I0J200D01*
G01X144313Y23275D01*
G03X144372Y23416I-141J142D01*
G01Y28490D01*
X144377Y28513D01*
G03X141737Y30070I-1557J377D01*
G01X141693Y30030D01*
X141576Y30011D01*
X141186Y30182D01*
G02X141066Y30365I80J183D01*
G01Y33676D01*
G03X140866Y33876I-199J0D01*
G01X131764D01*
G03X131564Y33676I-1J-200D01*
G01Y30026D01*
G02X131364Y29826I-201J1D01*
G01X127483D01*
G02X127342Y29885I1J200D01*
G01X124630Y32597D01*
G02X124572Y32738I142J141D01*
G01Y74082D01*
G02X124630Y74223I200J0D01*
G01X126327Y75920D01*
G02X126468Y75978I141J-142D01*
G01X126959D01*
G02X127118Y75900I1J-200D01*
G01X127339Y75610D01*
X127357Y75518D01*
X127345Y75473D01*
G03X127769Y73906I1545J-423D01*
G02X127828Y73763I-141J-142D01*
G01Y65707D01*
G03X127887Y65566I200J1D01*
G01X131021Y62432D01*
G03X131162Y62374I141J142D01*
G01X131363D01*
G02X131563Y62174I0J-200D01*
G01Y61473D01*
X131564D01*
Y58524D01*
G03X131764Y58324I199J0D01*
G01X140866D01*
G03X141066Y58524I1J200D01*
G02X141266Y58724I201J0D01*
G01X141354D01*
X141385Y58713D01*
G03X142277Y58673I515J1517D01*
G01X142300Y58678D01*
X147555D01*
G02X147696Y58620I0J-200D01*
G01X156350Y49966D01*
G02X156408Y49825I-142J-141D01*
G01Y37770D01*
G03X156467Y37629I200J1D01*
G01X189530Y4566D01*
G02X189573Y4348I-142J-141D01*
G01X189549Y4292D01*
X189450Y4225D01*
X113696D01*
G02X113496Y4425I0J200D01*
G37*
G36*
G01X109141Y29659D02*
X108859Y29941D01*
G02X108800Y30083I141J142D01*
G01Y32000D01*
X108782Y32018D01*
Y32102D01*
G03X108582Y32302I-200J0D01*
G01X108581D01*
G02X108440Y32360I0J200D01*
G01X108430Y32370D01*
X108357Y32400D01*
X100283D01*
G02X100141Y32459I0J200D01*
G01X99959Y32641D01*
G02X99900Y32783I141J142D01*
G01Y37396D01*
G02X100100Y37596I200J0D01*
G01X114221D01*
G02X114363Y37537I0J-200D01*
G01X114541Y37359D01*
G02X114600Y37217I-141J-142D01*
G01Y29883D01*
G02X114541Y29741I-200J0D01*
G01X114459Y29659D01*
G02X114317Y29600I-142J141D01*
G01X109283D01*
G02X109141Y29659I0J200D01*
G37*
G36*
G01X100100Y38998D02*
Y40798D01*
G02X100300Y40998I200J0D01*
G01X108716D01*
G03X108857Y41057I-1J200D01*
G01X108870Y41070D01*
X108900Y41143D01*
Y44217D01*
G02X108959Y44359I200J0D01*
G01X109441Y44841D01*
G02X109583Y44900I142J-141D01*
G01X113617D01*
G02X113759Y44841I0J-200D01*
G01X114241Y44359D01*
G02X114300Y44217I-141J-142D01*
G01Y39083D01*
G02X114241Y38941I-200J0D01*
G01X114156Y38856D01*
G02X114015Y38798I-141J142D01*
G01X100300D01*
G02X100100Y38998I0J200D01*
G37*
G36*
G01X109327Y173554D02*
X108965Y173916D01*
G02X108906Y174058I141J142D01*
G01Y176678D01*
G03X108847Y176820I-200J0D01*
G01X108841Y176826D01*
G02X108782Y176967I141J142D01*
G01Y176970D01*
X108780D01*
G02X108639Y177028I0J200D01*
G01X108637Y177030D01*
X100000D01*
G02X99800Y177230I0J200D01*
G01Y181917D01*
G02X99859Y182059I200J0D01*
G01X100041Y182241D01*
G02X100183Y182300I142J-141D01*
G01X114364D01*
G02X114564Y182100I0J-200D01*
G01Y173695D01*
G02X114364Y173495I-200J0D01*
G01X109469D01*
G02X109327Y173554I0J200D01*
G37*
G36*
G01X100000Y183702D02*
Y185453D01*
G02X100200Y185653I200J0D01*
G01X108719D01*
X108732Y185666D01*
X108782D01*
Y185716D01*
X108941Y185875D01*
G03X109000Y186017I-141J142D01*
G01Y190908D01*
G02X109200Y191108I200J0D01*
G01X114400D01*
G02X114600Y190908I0J-200D01*
G01Y183702D01*
G02X114400Y183502I-200J0D01*
G01X100200D01*
G02X100000Y183702I0J200D01*
G37*
G36*
G01X195847Y194161D02*
X177125Y212883D01*
G03X176984Y212942I-142J-141D01*
G01X149927D01*
G02X149783Y213003I0J200D01*
G03X148079Y213394I-1152J-1113D01*
G01X148033Y213377D01*
X147936Y213390D01*
X147627Y213606D01*
G02X147542Y213770I115J164D01*
G01Y217432D01*
G03X147483Y217574I-200J0D01*
G01X142494Y222563D01*
G03X142352Y222622I-142J-141D01*
G01X114442D01*
G02X114242Y222822I0J200D01*
G01Y228318D01*
Y235472D01*
G03X114183Y235614I-200J0D01*
G01X111679Y238118D01*
G02X111620Y238260I141J142D01*
G01Y239765D01*
G03X111420Y239965I-200J0D01*
G01X108583D01*
Y239964D01*
X100250D01*
G02X100050Y240164I0J200D01*
G01Y242162D01*
G02X100250Y242362I200J0D01*
G01X108582D01*
G03X108782Y242562I1J199D01*
G01Y242890D01*
G02X108982Y243090I200J0D01*
G01X113310D01*
Y243123D01*
X117530Y238903D01*
G02X117588Y238762I-142J-141D01*
G01Y230477D01*
G03X117647Y230336I200J1D01*
G01X120571Y227412D01*
G02X120630Y227270I-141J-142D01*
G01Y227230D01*
X120670D01*
G02X120812Y227171I0J-200D01*
G01X124156Y223827D01*
G03X124297Y223768I142J141D01*
G01X145263D01*
G03X145404Y223827I-1J200D01*
G01X151716Y230139D01*
G02X151857Y230198I142J-141D01*
G01X179098D01*
G02X179239Y230139I-1J-200D01*
G01X196086Y213292D01*
G02X196144Y213151I-142J-141D01*
G01Y194346D01*
G02X196021Y194161I-200J0D01*
G01X195964Y194138D01*
X195847Y194161D01*
G37*
G36*
G01X100050Y226702D02*
Y232712D01*
G02X100250Y232912I200J0D01*
G01X108782D01*
Y232940D01*
X110538D01*
G02X110738Y232740I0J-200D01*
G01Y229769D01*
G02X110680Y229628I-200J0D01*
G01X107612Y226560D01*
G02X107471Y226502I-141J142D01*
G01X100250D01*
G02X100050Y226702I0J200D01*
G37*
G36*
G01X149290Y149400D02*
G02X149490Y149200I0J-200D01*
G01Y119810D01*
G02X149290Y119610I-200J0D01*
G01X114550D01*
G02X114350Y119810I0J200D01*
G01Y170737D01*
G02X114409Y170879I200J0D01*
G01X116801Y173271D01*
G02X116943Y173330I142J-141D01*
G01X126298D01*
G02X126498Y173130I0J-200D01*
G01Y159347D01*
G03X126557Y159206I200J1D01*
G01X126580Y159183D01*
X126610Y159110D01*
Y151113D01*
G03X126669Y150971I200J0D01*
G01X128181Y149459D01*
G03X128323Y149400I142J141D01*
G01X149290D01*
G37*
G36*
G01X268307Y15821D02*
X259696Y7210D01*
G02X259555Y7152I-141J142D01*
G01X191415D01*
G02X191274Y7210I0J200D01*
G01X159570Y38914D01*
G02X159512Y39055I142J141D01*
G01Y51110D01*
G03X159453Y51251I-200J-1D01*
G01X148981Y61723D01*
G03X148840Y61782I-142J-141D01*
G01X142586D01*
X142512Y61812D01*
X142498Y61826D01*
X142033D01*
X142025Y61827D01*
G03X141775I-125J-1597D01*
G01X141767Y61826D01*
X141267D01*
G02X141067Y62026I0J200D01*
G01Y65324D01*
G02X141267Y65524I200J0D01*
G01X177878D01*
G02X178020Y65464I-1J-200D01*
G03X177995Y67689I1140J1125D01*
G02X177849Y67626I-146J137D01*
G01X141267D01*
G02X141067Y67826I0J200D01*
G01Y68327D01*
G03X140867Y68527I-200J0D01*
G01X131763D01*
G03X131563Y68327I0J-200D01*
G01Y65347D01*
G02X131440Y65162I-200J0D01*
G01X131383Y65138D01*
X131265Y65162D01*
X129990Y66437D01*
G02X129932Y66578I142J141D01*
G01Y73744D01*
G02X129994Y73889I200J0D01*
G03X130435Y75473I-1104J1161D01*
G01X130423Y75518D01*
X130441Y75610D01*
X130662Y75900D01*
G02X130821Y75978I158J-122D01*
G01X132173D01*
G02X132314Y75920I0J-200D01*
G01X137177Y71057D01*
G03X137318Y70998I142J141D01*
G01X181922D01*
G02X182063Y70940I0J-200D01*
G01X184840Y68163D01*
G02X184898Y68022I-142J-141D01*
G01Y29467D01*
G03X184957Y29326I200J1D01*
G01X205986Y8297D01*
G03X206127Y8238I142J141D01*
G01X206154D01*
X206229Y8207D01*
X206257Y8177D01*
G03X206714Y10733I1153J1113D01*
G01X206656Y10705D01*
X206531Y10726D01*
X187060Y30197D01*
G02X187002Y30338I142J141D01*
G01Y68893D01*
G03X186943Y69034I-200J-1D01*
G01X183600Y72377D01*
G02X183556Y72595I141J142D01*
G01X183580Y72652D01*
X183680Y72718D01*
X187672D01*
G02X187813Y72660I0J-200D01*
G01X195516Y64957D01*
G03X195657Y64898I142J141D01*
G01X215239D01*
G02X215424Y64775I0J-200D01*
G01X215447Y64718D01*
X215424Y64601D01*
X213067Y62244D01*
G03X213008Y62103I141J-142D01*
G01Y27987D01*
G03X213067Y27846I200J1D01*
G01X224736Y16177D01*
G03X224877Y16118I142J141D01*
G01X268122D01*
G02X268306Y15995I0J-200D01*
G01X268330Y15938D01*
X268307Y15821D01*
G37*
G36*
G01X217148Y86183D02*
Y81018D01*
G02X217090Y80877I-200J0D01*
G01X216544Y80331D01*
X216469Y80301D01*
X216428Y80302D01*
G03X214965Y79412I-28J-1602D01*
G01X214943Y79368D01*
X214866Y79311D01*
X214497Y79251D01*
G02X214324Y79306I-33J197D01*
G01X207352Y86278D01*
G02X207294Y86419I142J141D01*
G01Y137845D01*
G02X207355Y137989I200J0D01*
G03X205337Y140464I-1112J1154D01*
G01X205291Y140432D01*
X205181Y140426D01*
X204818Y140617D01*
G02X204712Y140794I94J177D01*
G01Y157113D01*
G02X204770Y157254I200J0D01*
G01X206433Y158917D01*
G03X206492Y159058I-141J142D01*
G01Y211363D01*
G03X206433Y211504I-200J-1D01*
G01X184144Y233793D01*
G03X184003Y233852I-142J-141D01*
G01X150343D01*
G03X150202Y233793I1J-200D01*
G01X143890Y227481D01*
G02X143749Y227422I-142J141D01*
G01X141250D01*
G02X141050Y227622I0J200D01*
G01Y228186D01*
X141067D01*
Y235240D01*
X141066D01*
Y237636D01*
X141067D01*
Y244136D01*
G02X141267Y244336I200J0D01*
G01X141550D01*
X141571Y244332D01*
G03X142229I329J1568D01*
G01X142250Y244336D01*
X142448D01*
G03X142589Y244395I-1J200D01*
G01X142698Y244503D01*
G02X142735Y244533I143J-139D01*
G03X141482Y247446I-836J1367D01*
G01X141456Y247440D01*
X141266D01*
G02X141066Y247640I0J200D01*
G03X140866Y247840I-200J0D01*
G01X132652D01*
G02X132452Y248040I0J199D01*
G01Y250036D01*
G02X132652Y250236I200J0D01*
G01X140866D01*
G03X141066Y250436I0J200D01*
G02X141266Y250636I200J0D01*
G01X141600D01*
X141623Y250631D01*
G03Y253745I377J1557D01*
G01X141600Y253740D01*
X141266D01*
G02X141066Y253940I0J200D01*
G03X140866Y254140I-200J0D01*
G01X132652D01*
G02X132452Y254340I0J199D01*
G01Y264152D01*
G02X132652Y264352I200J1D01*
G01X343660D01*
G02X343860Y264152I0J-200D01*
G01Y244453D01*
G02X343660Y244253I-200J0D01*
G01X331545D01*
G02X331524Y244254I-1J200D01*
G01X331465Y244260D01*
G03X331444Y244262I-29J-198D01*
G01X241767D01*
G03X241626Y244203I1J-200D01*
G01X231687Y234264D01*
G03X231628Y234123I141J-142D01*
G01Y203717D01*
G03X231687Y203576I200J1D01*
G01X237850Y197413D01*
G02X237908Y197272I-142J-141D01*
G01Y139367D01*
G03X237967Y139226I200J1D01*
G01X241522Y135671D01*
G03X241663Y135612I142J141D01*
G01X246391D01*
G02X246535Y135551I0J-200D01*
G03Y137777I1153J1113D01*
G02X246391Y137716I-144J139D01*
G01X242534D01*
G02X242393Y137774I0J200D01*
G01X240070Y140097D01*
G02X240012Y140238I142J141D01*
G01Y140659D01*
G02X240135Y140844I200J0D01*
G01X240192Y140867D01*
X240309Y140844D01*
X241396Y139757D01*
G03X241537Y139698I142J141D01*
G01X248383D01*
G02X248527Y139637I0J-200D01*
G03X249708Y139148I1153J1113D01*
G01X249749Y139149D01*
X249824Y139119D01*
X250640Y138303D01*
G02X250698Y138162I-142J-141D01*
G01Y128218D01*
G02X250498Y128018I-200J0D01*
G01X237184D01*
G03X237043Y127960I0J-200D01*
G01X231437Y122354D01*
G03X231378Y122213I141J-142D01*
G01Y116188D01*
G02X231320Y116047I-200J0D01*
G01X220677Y105404D01*
G03X220618Y105263I141J-142D01*
G01Y89818D01*
G02X220560Y89677I-200J0D01*
G01X217207Y86324D01*
G03X217148Y86183I141J-142D01*
G37*
G36*
G01X203170Y104407D02*
X203123Y104427D01*
G03X201113Y103795I-643J-1467D01*
G01X201100Y103774D01*
X198777Y101451D01*
G03X198718Y101310I141J-142D01*
G01Y87571D01*
X198713Y87548D01*
G03X201827I1557J-377D01*
G01X201822Y87571D01*
Y100025D01*
G02X201880Y100166I200J0D01*
G01X203294Y101580D01*
X203315Y101593D01*
G03X203372Y101629I-827J1372D01*
G01X203578Y101520D01*
G02X203684Y101343I-94J-177D01*
G01Y84312D01*
G03X203742Y84171I200J0D01*
G01X207769Y80144D01*
X207799Y80069D01*
X207798Y80028D01*
G03X210775Y79178I1602J-28D01*
G01X210799Y79218D01*
X210876Y79268D01*
X211235Y79312D01*
G02X211401Y79255I25J-198D01*
G01X216263Y74393D01*
G02X216307Y74175I-141J-142D01*
G01X216283Y74118D01*
X216183Y74052D01*
X206418D01*
G02X206277Y74110I0J200D01*
G01X200910Y79477D01*
G02X200852Y79618I142J141D01*
G01Y79694D01*
G03X200793Y79835I-200J-1D01*
G01X197835Y82793D01*
G03X197694Y82852I-142J-141D01*
G01X197618D01*
G02X197477Y82910I0J200D01*
G01X191510Y88877D01*
G02X191452Y89018I142J141D01*
G01Y89795D01*
G02X191554Y89969I200J0D01*
G01X191907Y90166D01*
X192014Y90164D01*
X192061Y90135D01*
G03X192872Y93102I839J1365D01*
G01X192831Y93101D01*
X192756Y93131D01*
X192510Y93377D01*
G02X192452Y93518I142J141D01*
G01Y99475D01*
G02X192531Y99634I200J0D01*
G01X192824Y99855D01*
X192915Y99872D01*
X192961Y99859D01*
G03X195002Y101428I439J1541D01*
G01X195001Y101469D01*
X195031Y101544D01*
X198189Y104702D01*
G03X198248Y104843I-141J142D01*
G01Y214022D01*
G03X198189Y214163I-200J-1D01*
G01X180945Y231407D01*
G02X180901Y231625I141J142D01*
G01X180925Y231682D01*
X181025Y231748D01*
X183132D01*
G02X183273Y231690I0J-200D01*
G01X204330Y210633D01*
G02X204388Y210492I-142J-141D01*
G01Y164241D01*
G02X204289Y164068I-200J0D01*
G01X203944Y163867D01*
X203838Y163866D01*
X203791Y163893D01*
G03Y161107I-791J-1393D01*
G01X203838Y161134D01*
X203944Y161133D01*
X204289Y160932D01*
G02X204388Y160759I-101J-173D01*
G01Y159929D01*
G02X204330Y159788I-200J0D01*
G01X202667Y158125D01*
G03X202608Y157984I141J-142D01*
G01Y135946D01*
G03X202667Y135805I200J1D01*
G01X203625Y134847D01*
G02X203684Y134706I-141J-142D01*
G01Y104794D01*
G02X203593Y104626I-200J0D01*
G01X203270Y104415D01*
X203170Y104407D01*
G37*
G36*
G01X228734Y21290D02*
X223629Y26395D01*
G02X223570Y26536I141J142D01*
G01Y68591D01*
G03X223512Y68732I-200J0D01*
G01X220637Y71607D01*
G02X220594Y71825I142J141D01*
G01X220617Y71882D01*
X220717Y71948D01*
X224302D01*
G02X224443Y71890I0J-200D01*
G01X232759Y63574D01*
X232789Y63499D01*
X232788Y63458D01*
G03X233277Y62277I1602J-28D01*
G02X233338Y62133I-139J-144D01*
G01Y27948D01*
G02X233280Y27807I-200J0D01*
G01X230554Y25081D01*
X230479Y25051D01*
X230438Y25052D01*
G03X232012Y23478I-28J-1602D01*
G01X232011Y23519D01*
X232041Y23594D01*
X235383Y26936D01*
G03X235442Y27077I-141J142D01*
G01Y62133D01*
G02X235503Y62277I200J0D01*
G03X235713Y64333I-1113J1152D01*
G01X235681Y64380D01*
X235675Y64489D01*
X235867Y64852D01*
G02X236044Y64958I176J-94D01*
G01X273823D01*
G03X273964Y65017I-1J200D01*
G01X284157Y75210D01*
G02X284298Y75268I141J-142D01*
G01X306800D01*
G02X306978Y75161I1J-200D01*
G01X307167Y74796D01*
X307160Y74685D01*
X307128Y74639D01*
G03X309755Y74635I1312J-919D01*
G02X309778Y74891I164J114D01*
G01X310713Y75826D01*
G03X310772Y75967I-141J142D01*
G01Y76309D01*
G02X310847Y76465I200J0D01*
G01X311128Y76689D01*
X311216Y76709D01*
X311261Y76699D01*
G03X311651Y76658I361J1561D01*
G01X311692Y76659D01*
X311765Y76630D01*
X311999Y76401D01*
G02X312058Y76258I-141J-142D01*
G01Y66596D01*
G03X312258Y66396I201J1D01*
G01X358913D01*
G03X359054Y66455I-1J200D01*
G01X366757Y74158D01*
G02X366975Y74201I141J-142D01*
G01X367032Y74178D01*
X367098Y74078D01*
Y63534D01*
G02X366898Y63334I-199J0D01*
G01X364428D01*
G03X364228Y63134I0J-200D01*
G01Y51298D01*
G03X364428Y51098I200J1D01*
G01X386692D01*
G03X386892Y51298I-1J201D01*
G01Y61748D01*
G02X387092Y61948I199J1D01*
G01X397055D01*
G02X397196Y61890I0J-200D01*
G01X400690Y58396D01*
G02X400748Y58255I-142J-141D01*
G01Y49060D01*
X400743Y49037D01*
G03X403347Y47448I1557J-377D01*
G01X403392Y47486D01*
X403507Y47503D01*
X403892Y47327D01*
G02X404008Y47145I-84J-181D01*
G01Y40478D01*
G02X403950Y40337I-200J0D01*
G01X386863Y23250D01*
G02X386722Y23192I-141J142D01*
G01X349845D01*
G02X349704Y23250I0J200D01*
G01X338681Y34273D01*
G03X338540Y34332I-142J-141D01*
G01X278390D01*
G03X278249Y34273I1J-200D01*
G01X265266Y21290D01*
G02X265125Y21232I-141J142D01*
G01X228875D01*
G02X228734Y21290I0J200D01*
G37*
G36*
G01X235242Y115097D02*
Y121122D01*
G02X235300Y121263I200J0D01*
G01X235937Y121899D01*
G02X236129Y121952I142J-141D01*
G01X236514Y121850D01*
X236590Y121776D01*
X236604Y121725D01*
G03X239119Y123431I1543J432D01*
G01X239068Y123470D01*
X239030Y123592D01*
X239172Y124013D01*
G02X239361Y124148I189J-65D01*
G01X250498D01*
G02X250698Y123948I0J-200D01*
G01Y74841D01*
G02X250575Y74656I-200J0D01*
G01X250518Y74633D01*
X250401Y74656D01*
X243370Y81687D01*
G02X243312Y81828I142J141D01*
G01Y92743D01*
G03X243253Y92884I-200J-1D01*
G01X235944Y100193D01*
G03X235803Y100252I-142J-141D01*
G01X227827D01*
G03X227686Y100193I1J-200D01*
G01X227617Y100124D01*
X227542Y100094D01*
X227501Y100095D01*
G03X227152Y96923I-29J-1602D01*
G01X227206Y96912D01*
X227287Y96838D01*
X227405Y96448D01*
G02X227355Y96249I-192J-58D01*
G01X224693Y93587D01*
G02X224475Y93544I-141J142D01*
G01X224418Y93567D01*
X224352Y93667D01*
Y104042D01*
G02X224410Y104183I200J0D01*
G01X235183Y114956D01*
G03X235242Y115097I-141J142D01*
G37*
G36*
G01X232294Y98148D02*
X234932D01*
G02X235073Y98090I0J-200D01*
G01X241150Y92013D01*
G02X241208Y91872I-142J-141D01*
G01Y81671D01*
G02X241085Y81486I-200J0D01*
G01X241028Y81463D01*
X240911Y81486D01*
X239892Y82505D01*
G02X239834Y82646I142J141D01*
G01Y84544D01*
G02X239895Y84688I200J0D01*
G03X237669I-1113J1153D01*
G02X237730Y84544I-139J-144D01*
G01Y81775D01*
G03X237789Y81634I200J1D01*
G01X249920Y69503D01*
G02X249964Y69285I-141J-142D01*
G01X249940Y69228D01*
X249840Y69162D01*
X245405D01*
G02X245264Y69220I0J200D01*
G01X228798Y85686D01*
X228768Y85761D01*
X228769Y85802D01*
G03X227115Y87431I-1602J28D01*
G01X227074Y87430D01*
X226998Y87459D01*
X226762Y87687D01*
G02X226702Y87831I140J143D01*
G01Y91125D01*
G02X226760Y91266I200J0D01*
G01X231214Y95720D01*
X231235Y95733D01*
G03X231916Y97619I-835J1367D01*
G01X231900Y97665D01*
X231914Y97760D01*
X232131Y98065D01*
G02X232294Y98148I162J-117D01*
G37*
G36*
G01X242267Y141860D02*
X241470Y142657D01*
G02X241412Y142798I142J141D01*
G01Y198723D01*
G03X241353Y198864I-200J-1D01*
G01X235190Y205027D01*
G02X235132Y205168I142J141D01*
G01Y232672D01*
G02X235190Y232813I200J0D01*
G01X242707Y240330D01*
G02X242848Y240388I141J-142D01*
G01X327802D01*
G02X327943Y240330I0J-200D01*
G01X329692Y238581D01*
X329665Y238517D01*
G03X329650Y238440I185J-76D01*
G01Y236232D01*
G02X329450Y236032I-200J0D01*
G01X319763D01*
G02X319577Y236156I-1J200D01*
G01X319414Y236555D01*
X319439Y236674D01*
X319482Y236717D01*
G03X317238I-1122J1143D01*
G01X317281Y236674D01*
X317306Y236555D01*
X317143Y236156D01*
G02X316957Y236032I-185J76D01*
G01X314763D01*
G02X314577Y236156I-1J200D01*
G01X314414Y236555D01*
X314439Y236674D01*
X314482Y236717D01*
G03X312238I-1122J1143D01*
G01X312281Y236674D01*
X312306Y236555D01*
X312143Y236156D01*
G02X311957Y236032I-185J76D01*
G01X309763D01*
G02X309577Y236156I-1J200D01*
G01X309414Y236555D01*
X309439Y236674D01*
X309482Y236717D01*
G03X307238I-1122J1143D01*
G01X307281Y236674D01*
X307306Y236555D01*
X307143Y236156D01*
G02X306957Y236032I-185J76D01*
G01X258728D01*
G02X258587Y236090I0J200D01*
G01X257584Y237093D01*
G03X257443Y237152I-142J-141D01*
G01X241167D01*
G03X241026Y237093I1J-200D01*
G01X236517Y232584D01*
G03X236458Y232443I141J-142D01*
G01Y225277D01*
G02X236397Y225133I-200J0D01*
G03X238623I1113J-1153D01*
G02X238562Y225277I139J144D01*
G01Y231572D01*
G02X238620Y231713I200J0D01*
G01X241897Y234990D01*
G02X242038Y235048I141J-142D01*
G01X242449D01*
G02X242605Y234973I0J-200D01*
G01X242829Y234692D01*
X242849Y234604D01*
X242839Y234559D01*
G03X245961I1561J-359D01*
G01X245951Y234604D01*
X245971Y234692D01*
X246195Y234973D01*
G02X246351Y235048I156J-125D01*
G01X256572D01*
G02X256713Y234990I0J-200D01*
G01X257048Y234655D01*
G02X257092Y234437I-141J-142D01*
G01X257068Y234380D01*
X256968Y234314D01*
X250898D01*
G03X250698Y234114I0J-200D01*
G01Y142654D01*
G02X250616Y142492I-200J-1D01*
G01X250315Y142273D01*
X250221Y142259D01*
X250175Y142274D01*
G03X248527Y141863I-495J-1524D01*
G02X248383Y141802I-144J139D01*
G01X242408D01*
G02X242267Y141860I0J200D01*
G37*
G36*
G01X293897Y178466D02*
X296951Y175412D01*
G02X297010Y175270I-141J-142D01*
G01Y171008D01*
G02X296890Y170825I-200J0D01*
G01X296500Y170653D01*
X296383Y170673D01*
X296339Y170714D01*
G03X296265Y168298I-1088J-1176D01*
G02X296477Y168324I127J-155D01*
G01X296804Y168169D01*
G02X296918Y167988I-86J-181D01*
G01Y86170D01*
G02X296718Y85970I-200J0D01*
G01X274771D01*
G03X274571Y85770I0J-200D01*
G01Y75531D01*
G02X274512Y75389I-200J0D01*
G01X274468Y75345D01*
G02X274326Y75286I-142J141D01*
G01X252100D01*
G02X251900Y75486I0J200D01*
G01Y123948D01*
G02X252100Y124148I200J0D01*
G01X272053D01*
G03X272195Y124207I0J200D01*
G01X276728Y128741D01*
G02X276861Y128799I141J-142D01*
G01X276862D01*
G03X275202Y130287I-62J1601D01*
G01Y130286D01*
G02X275144Y130132I-200J-13D01*
G01X274551Y129538D01*
G02X274368Y129483I-142J141D01*
G01X274041Y129552D01*
G02X273895Y129677I41J196D01*
G03X270798Y129072I-1495J-576D01*
G01X270799Y129031D01*
X270769Y128956D01*
X269890Y128077D01*
G02X269748Y128018I-142J141D01*
G01X252100D01*
G02X251900Y128218I0J200D01*
G01Y137108D01*
G02X252100Y137308I200J0D01*
G01X273113D01*
G03X273255Y137367I0J200D01*
G01X276556Y140669D01*
X276631Y140699D01*
X276672Y140698D01*
G03X275098Y142272I28J1602D01*
G01X275099Y142231D01*
X275069Y142156D01*
X272383Y139471D01*
G02X272241Y139412I-142J141D01*
G01X270518D01*
G02X270349Y139505I0J200D01*
G01X270169Y139790D01*
G02X270157Y139982I169J107D01*
G01Y139983D01*
G03X267263I-1447J687D01*
G01Y139982D01*
G02X267251Y139790I-181J-85D01*
G01X267071Y139505D01*
G02X266902Y139412I-169J107D01*
G01X252589D01*
G02X252447Y139470I-1J200D01*
G01X251959Y139958D01*
G02X251900Y140100I141J142D01*
G01Y232912D01*
G02X252100Y233112I200J0D01*
G01X306364D01*
G02X306500Y233059I0J-200D01*
G01X306727Y232848D01*
X306760Y232779D01*
X306762Y232742D01*
G03X309958I1598J118D01*
G01X309960Y232779D01*
X309993Y232848D01*
X310220Y233059D01*
G02X310356Y233112I136J-147D01*
G01X311364D01*
G02X311500Y233059I0J-200D01*
G01X311727Y232848D01*
X311760Y232779D01*
X311762Y232742D01*
G03X314958I1598J118D01*
G01X314960Y232779D01*
X314993Y232848D01*
X315220Y233059D01*
G02X315356Y233112I136J-147D01*
G01X316364D01*
G02X316500Y233059I0J-200D01*
G01X316727Y232848D01*
X316760Y232779D01*
X316762Y232742D01*
G03X319958I1598J118D01*
G01X319960Y232779D01*
X319993Y232848D01*
X320220Y233059D01*
G02X320356Y233112I136J-147D01*
G01X329478D01*
G02X329620Y233053I0J-200D01*
G01X340715Y221957D01*
G03X340857Y221898I142J141D01*
G01X361604D01*
G02X361785Y221782I0J-200D01*
G01X361963Y221401D01*
X361947Y221285D01*
X361910Y221241D01*
G03X367654I2872J-2422D01*
G01X367617Y221285D01*
X367601Y221401D01*
X367779Y221782D01*
G02X367960Y221898I181J-84D01*
G01X371840D01*
G02X372021Y221782I0J-200D01*
G01X372199Y221401D01*
X372183Y221285D01*
X372146Y221241D01*
G03X377465Y215968I2872J-2422D01*
G01X377510Y216006D01*
X377625Y216022D01*
X378009Y215846D01*
G02X378125Y215664I-84J-182D01*
G01Y206659D01*
G02X377925Y206459I-200J0D01*
G01X357698D01*
G02X357585Y206494I0J200D01*
G03X352885I-2350J-3423D01*
G02X352772Y206459I-113J165D01*
G01X305791D01*
G02X305649Y206518I0J200D01*
G01X303161Y209006D01*
X303131Y209081D01*
X303132Y209122D01*
G03X301558Y207548I-1602J28D01*
G01X301599Y207549D01*
X301674Y207519D01*
X302393Y206800D01*
G02X302436Y206583I-142J-141D01*
G01X302413Y206526D01*
X302312Y206459D01*
X297211D01*
G03X297011Y206259I0J-200D01*
G01Y202425D01*
G02X296952Y202283I-200J0D01*
G01X296868Y202199D01*
G02X296736Y202140I-142J141D01*
G03X296810Y198938I74J-1600D01*
G01X296842D01*
X296952Y198828D01*
G02X297011Y198686I-141J-142D01*
G01Y196879D01*
G02X296887Y196694I-200J0D01*
G01X296831Y196670D01*
X296713Y196694D01*
X296203Y197204D01*
X296174Y197299D01*
X296183Y197348D01*
G03X294307Y196077I-1573J302D01*
G01X294308D01*
G02X294411Y196022I-39J-196D01*
G01X296952Y193481D01*
G02X297011Y193339I-141J-142D01*
G01Y191059D01*
G02X296887Y190874I-200J0D01*
G01X296831Y190850D01*
X296713Y190874D01*
X295276Y192311D01*
X295247Y192402D01*
X295254Y192449D01*
G03X293453Y191103I-1584J241D01*
G01X293485Y191099D01*
X293543Y191070D01*
X294978Y189635D01*
G02X295029Y189441I-142J-141D01*
G01X294936Y189105D01*
G02X294793Y188964I-193J53D01*
G01X294792D01*
G03X293662Y186898I388J-1554D01*
G01X293680Y186846D01*
X293657Y186740D01*
X293381Y186441D01*
G02X293184Y186383I-147J136D01*
G03X292710Y183230I-394J-1553D01*
G02X292841Y183172I-10J-200D01*
G01X293625Y182388D01*
G02X293673Y182182I-141J-142D01*
G01X293539Y181788D01*
X293451Y181716D01*
X293394Y181709D01*
G03X293738Y178524I206J-1589D01*
G02X293897Y178466I17J-199D01*
G37*
G36*
G01X261397Y4523D02*
X283824Y26950D01*
G02X283965Y27008I141J-142D01*
G01X334095D01*
G02X334236Y26950I0J-200D01*
G01X345819Y15367D01*
G03X345960Y15308I142J141D01*
G01X396480D01*
G03X396621Y15367I-1J200D01*
G01X407063Y25809D01*
G03X407122Y25950I-141J142D01*
G01Y31448D01*
G02X407322Y31648I199J0D01*
G01X407796D01*
G02X407996Y31448I0J-200D01*
G01Y19794D01*
G02X407936Y19651I-200J0D01*
G03X410161Y19674I1124J-1141D01*
G02X410098Y19819I137J146D01*
G01Y31448D01*
G02X410298Y31648I200J0D01*
G01X411198D01*
G03X411398Y31848I0J200D01*
G01Y36152D01*
G03X411198Y36352I-200J0D01*
G01X408088D01*
G02X407904Y36475I0J200D01*
G01X407880Y36532D01*
X407903Y36649D01*
X411544Y40290D01*
X411565Y40303D01*
G03X409363Y42505I-835J1367D01*
G01X409350Y42484D01*
X407453Y40587D01*
G02X407235Y40544I-141J142D01*
G01X407178Y40567D01*
X407112Y40667D01*
Y45448D01*
G02X407312Y45648I199J0D01*
G01X411198D01*
G03X411398Y45848I0J200D01*
G01Y50152D01*
G03X411198Y50352I-200J0D01*
G01X410298D01*
G02X410098Y50552I0J200D01*
G01Y51810D01*
G02X410158Y51952I200J-1D01*
G03X407815Y54134I-1129J1137D01*
G01X407774Y54086D01*
X407653Y54055D01*
X407242Y54207D01*
G02X407112Y54395I70J187D01*
G01Y59448D01*
G02X407312Y59648I199J1D01*
G01X411198D01*
G03X411398Y59848I0J200D01*
G01Y64079D01*
G02X411457Y64220I200J-1D01*
G01X416557Y69320D01*
G02X416698Y69378I141J-142D01*
G01X419213D01*
G03X419354Y69437I-1J200D01*
G01X424633Y74716D01*
G03X424692Y74857I-141J142D01*
G01Y175743D01*
G03X424633Y175884I-200J-1D01*
G01X416331Y184186D01*
X416301Y184261D01*
X416302Y184302D01*
G03X414728Y182728I-1602J28D01*
G01X414769Y182729D01*
X414844Y182699D01*
X422530Y175013D01*
G02X422588Y174872I-142J-141D01*
G01Y75728D01*
G02X422530Y75587I-200J0D01*
G01X418483Y71540D01*
G02X418342Y71482I-141J142D01*
G01X415827D01*
G03X415686Y71423I1J-200D01*
G01X408673Y64410D01*
G02X408532Y64352I-141J142D01*
G01X407312D01*
G02X407112Y64552I-1J199D01*
G01Y65165D01*
G02X407170Y65306I200J0D01*
G01X408877Y67013D01*
X408898Y67026D01*
G03X406696Y69228I-835J1367D01*
G02X406666Y69191I-169J106D01*
G01X404067Y66591D01*
G03X404008Y66450I141J-142D01*
G01Y59948D01*
G02X403885Y59764I-200J0D01*
G01X403828Y59740D01*
X403711Y59763D01*
X398481Y64993D01*
G03X398340Y65052I-142J-141D01*
G01X387092D01*
G02X386892Y65252I-1J199D01*
G01Y105334D01*
G02X387092Y105534I199J1D01*
G01X407612D01*
G03X407812Y105734I0J200D01*
G01Y123030D01*
G03X407612Y123230I-200J0D01*
G01X388252D01*
G02X388074Y123339I0J200D01*
G01X387886Y123706D01*
X387895Y123818D01*
X387928Y123864D01*
G03X381202I-3363J2435D01*
G01X381235Y123818D01*
X381244Y123706D01*
X381056Y123339D01*
G02X380878Y123230I-178J91D01*
G01X377130D01*
G02X376930Y123430I0J200D01*
G01Y134550D01*
G02X377130Y134750I200J0D01*
G01X386053D01*
G03X386253Y134950I0J200D01*
G01Y134974D01*
X386370Y135090D01*
X394444D01*
G02X394592Y135025I1J-200D01*
G03X397318Y136547I1188J1075D01*
G01X397305Y136593D01*
X397322Y136684D01*
X397543Y136979D01*
G02X397702Y137058I159J-121D01*
G01X402338D01*
G02X402493Y136984I0J-200D01*
G03X402701Y139209I1247J1006D01*
G02X402571Y139162I-129J153D01*
G01X398571D01*
G02X398386Y139285I0J200D01*
G01X398363Y139342D01*
X398386Y139459D01*
X399733Y140806D01*
G03X399792Y140947I-141J142D01*
G01Y162582D01*
G02X399850Y162723I200J0D01*
G01X407343Y170216D01*
G03X407402Y170357I-141J142D01*
G01Y201943D01*
G03X407343Y202084I-200J-1D01*
G01X388669Y220758D01*
G02X388610Y220900I141J142D01*
G01Y233462D01*
G02X388810Y233662I200J0D01*
G01X389642D01*
G03X389842Y233862I0J201D01*
G01Y243888D01*
G02X390042Y244088I199J1D01*
G01X394310D01*
G03X394510Y244288I0J200D01*
G01Y256600D01*
G02X394710Y256800I200J0D01*
G01X409800D01*
G03X410000Y257000I0J200D01*
G01Y278433D01*
G02X410200Y278633I200J0D01*
G01X425615D01*
G02X425815Y278433I0J-200D01*
G01Y4425D01*
G02X425615Y4225I-200J0D01*
G01X261582D01*
G02X261397Y4348I0J200D01*
G01X261373Y4405D01*
X261397Y4523D01*
G37*
G36*
G01X298503Y83401D02*
X298282Y83696D01*
X298265Y83787D01*
X298278Y83833D01*
G03X298342Y84308I-1538J449D01*
G01X298341Y84349D01*
X298371Y84424D01*
X298963Y85016D01*
G03X299022Y85157I-141J142D01*
G01Y85180D01*
X299469Y85437D01*
X299577D01*
X299623Y85410D01*
G03Y88176I808J1383D01*
G01X299577Y88149D01*
X299469D01*
X299122Y88348D01*
G02X299022Y88522I100J173D01*
G01Y89064D01*
G02X299122Y89238I200J1D01*
G01X299469Y89437D01*
X299577D01*
X299623Y89410D01*
G03Y92176I808J1383D01*
G01X299577Y92149D01*
X299469D01*
X299122Y92348D01*
G02X299022Y92522I100J173D01*
G01Y93064D01*
G02X299122Y93238I200J1D01*
G01X299469Y93437D01*
X299577D01*
X299623Y93410D01*
G03Y96176I808J1383D01*
G01X299577Y96149D01*
X299469D01*
X299122Y96348D01*
G02X299022Y96522I100J173D01*
G01Y97064D01*
G02X299122Y97238I200J1D01*
G01X299469Y97437D01*
X299577D01*
X299623Y97410D01*
G03Y100176I808J1383D01*
G01X299577Y100149D01*
X299469D01*
X299122Y100348D01*
G02X299022Y100522I100J173D01*
G01Y168712D01*
G02X299080Y168853I200J0D01*
G01X300947Y170720D01*
G02X301088Y170778I141J-142D01*
G01X344611D01*
G02X344752Y170720I0J-200D01*
G01X344890Y170582D01*
G03X345031Y170524I141J142D01*
G01X353348D01*
G02X353548Y170324I0J-201D01*
G01Y170300D01*
X353664Y170183D01*
X362430D01*
G03X362630Y170383I0J200D01*
G01Y174120D01*
X362631D01*
Y178872D01*
X362630D01*
Y180641D01*
G03X362430Y180841I-200J0D01*
G01X353748D01*
G03X353548Y180641I0J-200D01*
G01Y180618D01*
X353430Y180500D01*
X320496D01*
G03X320355Y180442I0J-200D01*
G01X320344Y180432D01*
X307238D01*
G02X307097Y180490I0J200D01*
G01X298271Y189316D01*
G02X298212Y189458I141J142D01*
G01Y191738D01*
G02X298336Y191923I200J0D01*
G01X298392Y191946D01*
X298510Y191923D01*
X308040Y182393D01*
G03X308181Y182334I142J141D01*
G01X353348D01*
G02X353548Y182134I0J-200D01*
G01Y182111D01*
X353664Y181994D01*
X362430D01*
G03X362630Y182194I0J200D01*
G01Y188515D01*
G03X362430Y188715I-200J0D01*
G01X353748D01*
G03X353548Y188515I0J-200D01*
G01Y188492D01*
X353430Y188374D01*
X316585D01*
G02X316444Y188433I1J200D01*
G01X300641Y204236D01*
X300611Y204311D01*
X300612Y204352D01*
G03X300566Y204762I-1602J28D01*
G01X300555Y204807D01*
X300574Y204897D01*
X300797Y205181D01*
G02X300954Y205258I158J-123D01*
G01X303853D01*
G02X303994Y205199I-1J-200D01*
G01X318926Y190267D01*
G03X319067Y190208I142J141D01*
G01X353348D01*
G02X353548Y190008I0J-200D01*
G01Y189985D01*
X353664Y189868D01*
X362430D01*
G03X362630Y190068I0J200D01*
G01Y192452D01*
G03X362430Y192652I-200J0D01*
G01X353748D01*
G03X353548Y192452I0J-200D01*
G01Y192428D01*
X353430Y192312D01*
X319938D01*
G02X319797Y192370I0J200D01*
G01X307251Y204916D01*
G02X307207Y205134I141J142D01*
G01X307231Y205191D01*
X307331Y205258D01*
X351048D01*
G02X351215Y205168I0J-200D01*
G01X351427Y204847D01*
X351436Y204747D01*
X351416Y204701D01*
G03X359054I3819J-1630D01*
G01X359034Y204747D01*
X359043Y204847D01*
X359255Y205168D01*
G02X359422Y205258I167J-110D01*
G01X379126D01*
G03X379326Y205458I0J199D01*
G01Y210730D01*
G02X379526Y210930I200J0D01*
G01X388060D01*
G02X388202Y210871I0J-200D01*
G01X401048Y198025D01*
G02X401107Y197893I-141J-142D01*
G01X401112Y197776D01*
G02X401072Y197646I-200J-10D01*
G03X403269Y195368I1278J-966D01*
G01X403315Y195400D01*
X403426Y195407D01*
X403791Y195218D01*
G02X403898Y195040I-93J-177D01*
G01Y171808D01*
G02X403840Y171667I-200J0D01*
G01X394707Y162534D01*
G03X394648Y162393I141J-142D01*
G01Y147202D01*
G02X394448Y147002I-200J0D01*
G01X390598D01*
G03X390398Y146802I0J-200D01*
G01Y146252D01*
G02X390198Y146052I-200J0D01*
G01X389215D01*
G03X389074Y145993I1J-200D01*
G01X388548Y145467D01*
G02X388406Y145408I-142J141D01*
G01X377370D01*
G03X377170Y145208I0J-200D01*
G01Y140855D01*
G03X377370Y140655I200J0D01*
G01X385310D01*
G02X385510Y140455I0J-200D01*
G01Y139702D01*
G02X385310Y139502I-200J0D01*
G01X377369D01*
G03X377169Y139302I0J-200D01*
G01Y135702D01*
G02X376969Y135502I-200J0D01*
G01X345982D01*
G02X345782Y135702I0J200D01*
G01Y137501D01*
G02X345840Y137642I200J0D01*
G01X349135Y140937D01*
G02X349276Y140996I142J-141D01*
G01X353348D01*
G02X353548Y140796I0J-201D01*
G01Y140772D01*
X353664Y140655D01*
X362430D01*
G03X362630Y140855I0J200D01*
G01Y144592D01*
X362631D01*
Y149346D01*
X362630D01*
Y151113D01*
G03X362430Y151313I-200J0D01*
G01X353748D01*
G03X353548Y151113I0J-200D01*
G01Y149346D01*
X353547D01*
Y149204D01*
G02X353347Y149004I-200J0D01*
G01X342141D01*
G03X342000Y148946I0J-200D01*
G01X336957Y143903D01*
G03X336898Y143762I141J-142D01*
G01Y96908D01*
G02X336840Y96767I-200J0D01*
G01X333713Y93640D01*
G02X333572Y93582I-141J142D01*
G01X331902D01*
G02X331717Y93705I-1J200D01*
G01X331694Y93762D01*
X331717Y93879D01*
X333953Y96115D01*
G03X334012Y96257I-141J142D01*
G01Y99010D01*
G03X330408I-1802J0D01*
G01Y97749D01*
G02X330350Y97608I-200J0D01*
G01X330062Y97320D01*
G02X329921Y97262I-141J142D01*
G01X327969D01*
G02X327828Y97320I0J200D01*
G01X326094Y99054D01*
G03X324820Y99582I-1274J-1273D01*
G01X314467D01*
G03X314325Y99523I0J-200D01*
G01X306807Y92005D01*
G03X306748Y91863I141J-142D01*
G01Y90349D01*
G02X306690Y90208I-200J0D01*
G01X304446Y87964D01*
G03X305117Y84992I1274J-1274D01*
G01X305166Y84975D01*
X305233Y84899D01*
X305319Y84518D01*
G02X305266Y84333I-195J-44D01*
G01X304313Y83380D01*
G02X304172Y83322I-141J142D01*
G01X298662D01*
G02X298503Y83401I0J200D01*
G37*
G36*
G01X366101Y75201D02*
X358557Y67657D01*
G02X358415Y67598I-142J141D01*
G01X343112D01*
X343099Y67600D01*
G03X342701I-199J-1590D01*
G01X342688Y67598D01*
X340112D01*
X340099Y67600D01*
G03X339701I-199J-1590D01*
G01X339688Y67598D01*
X313460D01*
G02X313260Y67798I0J200D01*
G01Y83030D01*
G02X313319Y83172I200J0D01*
G01X314072Y83925D01*
G02X314214Y83984I142J-141D01*
G01X333304D01*
X333330Y83977D01*
G03X334190I430J1543D01*
G01X334216Y83984D01*
X336580D01*
G03X336722Y84043I0J200D01*
G01X346140Y93461D01*
G03X346199Y93603I-141J142D01*
G01Y134101D01*
G02X346399Y134301I200J0D01*
G01X375528D01*
G02X375728Y134101I0J-200D01*
G01Y124383D01*
G02X375528Y124183I-200J0D01*
G01X366360D01*
G03X366160Y123983I0J-200D01*
G01Y114591D01*
G02X366084Y114434I-200J0D01*
G01X365800Y114211D01*
X365711Y114192D01*
X365666Y114203D01*
G03Y106899I-884J-3652D01*
G01X365711Y106910D01*
X365800Y106891D01*
X366084Y106668D01*
G02X366160Y106511I-124J-157D01*
G01Y75343D01*
G02X366101Y75201I-200J0D01*
G37*
G36*
G01X365430Y52500D02*
Y61932D01*
G02X365630Y62132I200J0D01*
G01X368100D01*
G03X368300Y62332I0J200D01*
G01Y75360D01*
X368321Y75381D01*
G03X368380Y75523I-141J142D01*
G01Y109469D01*
X368388Y109497D01*
G03Y111605I-3606J1054D01*
G01X368380Y111633D01*
Y121828D01*
G02X368580Y122028I200J0D01*
G01X406411D01*
G02X406611Y121828I0J-200D01*
G01Y107429D01*
G02X406549Y107284I-200J0D01*
G01X406308Y107055D01*
X406232Y107027D01*
X406190Y107029D01*
G03X402100Y106740I-873J-16729D01*
G02X402061Y106736I-40J196D01*
G01X385890D01*
G03X385690Y106536I0J-200D01*
G01Y52500D01*
G02X385490Y52300I-200J0D01*
G01X365630D01*
G02X365430Y52500I0J200D01*
G37*
G36*
G01X393309Y256760D02*
Y245490D01*
G02X393109Y245290I-200J0D01*
G01X388840D01*
G03X388640Y245090I0J-200D01*
G01Y235064D01*
G02X388440Y234864I-200J0D01*
G01X375320D01*
G02X375120Y235064I0J200D01*
G01Y256760D01*
G02X375320Y256960I200J0D01*
G01X393109D01*
G02X393309Y256760I0J-200D01*
G37*
G36*
G01X394510Y258132D02*
Y258162D01*
X375226D01*
G02X375026Y258362I0J200D01*
G01Y278195D01*
G02X375226Y278395I200J0D01*
G01X406710D01*
G02X406910Y278195I0J-200D01*
G01Y258332D01*
G02X406710Y258132I-200J0D01*
G01X394510D01*
G37*
%LPC*%
G75*
G36*
G01X31001Y19005D02*
X34855Y15151D01*
G02X34914Y15010I-141J-142D01*
G01Y9290D01*
G02X34855Y9149I-200J1D01*
G01X31001Y5295D01*
G02X30860Y5236I-142J141D01*
G01X25140D01*
G02X24999Y5295I1J200D01*
G01X21145Y9149D01*
G02X21086Y9290I141J142D01*
G01Y15010D01*
G02X21145Y15151I200J-1D01*
G01X24999Y19005D01*
G02X25140Y19064I142J-141D01*
G01X30860D01*
G02X31001Y19005I-1J-200D01*
G37*
G36*
G01X47110Y51902D02*
X69002D01*
G02X69202Y51702I0J-201D01*
G01Y34398D01*
G02X69002Y34198I-200J1D01*
G01X47110D01*
G02X46910Y34398I1J201D01*
G01Y51702D01*
G02X47110Y51902I201J-1D01*
G37*
G36*
G01X22048Y192309D02*
Y192364D01*
X21137Y193275D01*
G02X21078Y193417I141J142D01*
G01Y194278D01*
G03X20878Y194478I-200J0D01*
G01X20308D01*
G02X20108Y194678I0J200D01*
G01Y198322D01*
G02X20308Y198522I200J0D01*
G01X23952D01*
G02X24152Y198322I0J-200D01*
G01Y194678D01*
G02X23952Y194478I-200J0D01*
G01X23392D01*
G03X23207Y194355I0J-200D01*
G01X23197Y194332D01*
G03X23182Y194255I185J-76D01*
G01Y194206D01*
X24093Y193295D01*
G02X24152Y193153I-141J-142D01*
G01Y192397D01*
G03X24213Y192253I200J0D01*
G02X22048Y192309I-1113J-1153D01*
G37*
G36*
G01X42080Y168420D02*
X41968D01*
G03X41768Y168220I0J-200D01*
G01Y167288D01*
G02X41568Y167088I-200J0D01*
G01X33592D01*
G02X33392Y167288I0J200D01*
G01Y173346D01*
G03X33192Y173546I-200J0D01*
G01X31124D01*
G02X30924Y173746I0J200D01*
G01Y182058D01*
G03X30724Y182258I-200J0D01*
G01X30698D01*
Y184596D01*
G02X30898Y184796I200J0D01*
G01X41568D01*
G02X41768Y184596I0J-200D01*
G01Y171270D01*
G03X41968Y171070I200J0D01*
G01X42080D01*
Y168420D01*
G37*
G36*
G01X49430Y251468D02*
X38397D01*
G03X38328Y251456I-1J-200D01*
G02X34752I-1788J4832D01*
G03X34683Y251468I-68J-188D01*
G01X31098D01*
G02X30898Y251668I0J201D01*
G01Y261580D01*
G02X31098Y261780I200J0D01*
G01X41730D01*
G03X41930Y261980I0J200D01*
G01Y262090D01*
X43940D01*
Y262100D01*
X44130D01*
G02X44330Y261900I0J-200D01*
G01Y261898D01*
X44447Y261780D01*
X48553D01*
X48670Y261898D01*
Y261970D01*
X49840D01*
G02X50040Y261770I0J-200D01*
G01Y252190D01*
G02X49840Y251990I-200J0D01*
G01X49830D01*
G03X49630Y251790I0J-200D01*
G01Y251668D01*
G02X49430Y251468I-200J0D01*
G37*
G36*
G01X141623Y105963D02*
X141600Y105968D01*
X141266D01*
G03X141066Y105768I0J-200D01*
G02X140866Y105568I-200J0D01*
G01X131764D01*
G02X131564Y105768I0J200D01*
G01Y109272D01*
G02X131764Y109472I200J0D01*
G01X140866D01*
G02X141066Y109272I0J-200D01*
G03X141266Y109072I200J0D01*
G01X141600D01*
X141623Y109077D01*
G02Y105963I377J-1557D01*
G37*
G36*
G01X46868Y220335D02*
Y220296D01*
X46899Y220224D01*
X46975Y220149D01*
G03X47257I141J141D01*
G01X47333Y220224D01*
X47364Y220296D01*
Y220335D01*
G02X49692Y218872I1602J-35D01*
G01X49649Y218850D01*
X49594Y218774D01*
X49535Y218406D01*
G03X49591Y218233I198J-32D01*
G01X88033Y179791D01*
G02X88092Y179649I-141J-142D01*
G01Y71940D01*
G03X88151Y71798I200J0D01*
G01X97922Y62026D01*
X97975D01*
X98841Y62893D01*
G02X98983Y62952I142J-141D01*
G01X99080D01*
G03X99280Y63152I0J200D01*
G01Y63602D01*
G02X99480Y63802I200J0D01*
G01X108582D01*
G02X108782Y63602I0J-200D01*
G01Y56948D01*
G02X108582Y56748I-200J0D01*
G01X99480D01*
G02X99280Y56948I0J200D01*
G01Y57398D01*
G03X99080Y57598I-200J0D01*
G01X98983D01*
G02X98841Y57657I0J200D01*
G01X98034Y58465D01*
G03X97892Y58524I-142J-141D01*
G01X96554D01*
G02X96412Y58583I0J200D01*
G01X84647Y70347D01*
G02X84588Y70489I141J142D01*
G01Y178198D01*
G03X84529Y178340I-200J0D01*
G01X45423Y217446D01*
G02X45364Y217588I141J142D01*
G01Y218422D01*
G03X45310Y218559I-200J0D01*
G01X45229Y218645D01*
G03X45103Y218707I-146J-137D01*
G02X46868Y220335I163J1594D01*
G37*
G36*
G01X108583Y66198D02*
X99479D01*
G02X99279Y66398I0J200D01*
G01Y73052D01*
G02X99479Y73252I200J0D01*
G01X108583D01*
G02X108783Y73052I0J-200D01*
G01Y66398D01*
G02X108583Y66198I-200J0D01*
G37*
G36*
G01X142479Y168753D02*
X145550Y171824D01*
X145563Y171845D01*
G02X147765Y169643I1367J-835D01*
G01X147744Y169630D01*
X143764Y165650D01*
G02X143623Y165592I-141J142D01*
G01X141266D01*
G03X141066Y165392I1J-201D01*
G02X140866Y165192I-199J-1D01*
G01X131764D01*
G02X131564Y165392I-1J199D01*
G01Y178344D01*
G02X131764Y178544I199J0D01*
G01X140866D01*
G02X141066Y178344I1J-200D01*
G01Y174694D01*
G03X141266Y174494I201J0D01*
G01X142535D01*
G03X142676Y174553I-1J200D01*
G01X154866Y186743D01*
G02X155007Y186802I142J-141D01*
G01X189283D01*
G03X189427Y186863I0J200D01*
G02Y184637I1153J-1113D01*
G03X189283Y184698I-144J-139D01*
G01X155878D01*
G03X155737Y184640I0J-200D01*
G01X143547Y172450D01*
G02X143406Y172392I-141J142D01*
G01X141266D01*
G03X141066Y172192I1J-201D01*
G01Y168894D01*
G03X141266Y168694I201J0D01*
G01X142338D01*
G03X142479Y168753I-1J200D01*
G37*
G36*
G01X99479Y217920D02*
X108583D01*
G02X108783Y217720I0J-200D01*
G01Y211066D01*
G02X108583Y210866I-200J0D01*
G01X99479D01*
G02X99279Y211066I0J200D01*
G01Y217720D01*
G02X99479Y217920I200J0D01*
G37*
G36*
G01X99492Y270334D02*
X113296D01*
G02X113496Y270134I0J-200D01*
G01Y259832D01*
G02X113296Y259632I-200J0D01*
G01X99492D01*
G02X99292Y259832I0J200D01*
G01Y270134D01*
G02X99492Y270334I200J0D01*
G37*
G36*
G01X141066Y48873D02*
Y45924D01*
G02X140866Y45724I-199J-1D01*
G01X131764D01*
G02X131564Y45924I-1J199D01*
G01Y48873D01*
X131563D01*
Y55727D01*
G02X131763Y55927I200J0D01*
G01X140867D01*
G02X141067Y55727I0J-200D01*
G01Y55726D01*
G03X141267Y55526I200J0D01*
G01X142295D01*
X142318Y55532D01*
G02Y52418I377J-1557D01*
G01X142295Y52424D01*
X141267D01*
G03X141067Y52224I0J-200D01*
G01Y48873D01*
X141066D01*
G37*
G36*
G01Y14424D02*
G02X140866Y14224I-199J0D01*
G01X131764D01*
G02X131564Y14424I-1J200D01*
G01Y17926D01*
G02X131764Y18126I199J0D01*
G01X140866D01*
G02X141066Y17926I1J-200D01*
G03X141266Y17726I201J0D01*
G01X141570D01*
X141593Y17732D01*
G02Y14618I377J-1557D01*
G01X141570Y14624D01*
X141266D01*
G03X141066Y14424I1J-200D01*
G37*
G36*
G01X227044Y215191D02*
X227240Y215387D01*
G03X227298Y215528I-142J141D01*
G01Y247090D01*
G03X227217Y247251I-200J0D01*
G01X226918Y247470D01*
X226825Y247486D01*
X226779Y247471D01*
G02X225893Y250549I-480J1528D01*
G01X225945Y250563D01*
X226021Y250639D01*
X226126Y251025D01*
G03X226074Y251219I-193J52D01*
G01X220043Y257250D01*
G03X219902Y257308I-141J-142D01*
G01X155297D01*
G02X155156Y257367I1J200D01*
G01X151873Y260650D01*
G03X151732Y260708I-141J-142D01*
G01X142487D01*
G03X142343Y260647I0J-200D01*
G02Y262873I-1153J1113D01*
G03X142487Y262812I144J139D01*
G01X152603D01*
G02X152744Y262753I-1J-200D01*
G01X156027Y259470D01*
G03X156168Y259412I141J142D01*
G01X220773D01*
G02X220914Y259353I-1J-200D01*
G01X229402Y250866D01*
Y250841D01*
X229766Y250558D01*
X229856Y250540D01*
X229901Y250552D01*
G02Y247448I399J-1552D01*
G01X229856Y247460D01*
X229766Y247442D01*
X229479Y247219D01*
G03X229402Y247061I123J-158D01*
G01Y214657D01*
G02X229343Y214516I-200J1D01*
G01X228531Y213704D01*
X228501Y213629D01*
X228502Y213588D01*
G02X226928Y215162I-1602J-28D01*
G01X226969Y215161D01*
X227044Y215191D01*
G37*
G36*
G01X217460Y157427D02*
X231956Y142931D01*
X232031Y142901D01*
X232072Y142902D01*
G02X230498Y141328I28J-1602D01*
G01X230499Y141369D01*
X230469Y141444D01*
X215357Y156556D01*
G02X215298Y156697I141J142D01*
G01Y252192D01*
G03X215240Y252333I-200J0D01*
G01X213023Y254550D01*
G03X212882Y254608I-141J-142D01*
G01X152277D01*
G02X152136Y254667I1J200D01*
G01X149973Y256830D01*
G03X149832Y256888I-141J-142D01*
G01X138747D01*
G02X138606Y256947I1J200D01*
G01X135244Y260309D01*
X135169Y260339D01*
X135128Y260338D01*
G02X136702Y261912I-28J1602D01*
G01X136701Y261871D01*
X136731Y261796D01*
X139477Y259050D01*
G03X139618Y258992I141J142D01*
G01X150703D01*
G02X150844Y258933I-1J-200D01*
G01X153007Y256770D01*
G03X153148Y256712I141J142D01*
G01X213753D01*
G02X213894Y256653I-1J-200D01*
G01X217343Y253204D01*
G02X217402Y253063I-141J-142D01*
G01Y157568D01*
G03X217460Y157427I200J0D01*
G37*
G36*
G01X240484Y29481D02*
X246820Y35817D01*
G03X246878Y35958I-142J141D01*
G01Y36333D01*
G03X246817Y36477I-200J0D01*
G02X249043I1113J1153D01*
G03X248982Y36333I139J-144D01*
G01Y35087D01*
G02X248923Y34946I-200J1D01*
G01X241971Y27994D01*
X241941Y27919D01*
X241942Y27878D01*
G02X240368Y29452I-1602J-28D01*
G01X240409Y29451D01*
X240484Y29481D01*
G37*
G36*
G01X245832Y229529D02*
Y189797D01*
G03X245893Y189653I200J0D01*
G02X243667I-1113J-1153D01*
G03X243728Y189797I-139J144D01*
G01Y228430D01*
X243667Y228527D01*
X243614Y228552D01*
G02X245839Y229556I686J1448D01*
G01X245832Y229529D01*
G37*
G36*
G01X417304Y60248D02*
Y59848D01*
G02X417104Y59648I-200J0D01*
G01X412802D01*
G02X412602Y59848I0J200D01*
G01Y64152D01*
G02X412802Y64352I200J0D01*
G01X417104D01*
G02X417304Y64152I0J-200D01*
G01Y63752D01*
G03X417504Y63552I200J0D01*
G01X420880D01*
X420903Y63557D01*
G02Y60443I377J-1557D01*
G01X420880Y60448D01*
X417504D01*
G03X417304Y60248I0J-200D01*
G37*
G36*
G01Y46248D02*
Y45848D01*
G02X417104Y45648I-200J0D01*
G01X412802D01*
G02X412602Y45848I0J200D01*
G01Y50152D01*
G02X412802Y50352I200J0D01*
G01X417104D01*
G02X417304Y50152I0J-200D01*
G01Y49752D01*
G03X417504Y49552I200J0D01*
G01X421070D01*
X421093Y49557D01*
G02Y46443I377J-1557D01*
G01X421070Y46448D01*
X417504D01*
G03X417304Y46248I0J-200D01*
G37*
G36*
G01Y32248D02*
Y31848D01*
G02X417104Y31648I-200J0D01*
G01X412802D01*
G02X412602Y31848I0J200D01*
G01Y36152D01*
G02X412802Y36352I200J0D01*
G01X417104D01*
G02X417304Y36152I0J-200D01*
G01Y35752D01*
G03X417504Y35552I200J0D01*
G01X420540D01*
X420563Y35557D01*
G02Y32443I377J-1557D01*
G01X420540Y32448D01*
X417504D01*
G03X417304Y32248I0J-200D01*
G37*
G36*
G01X414999Y5295D02*
X411145Y9149D01*
G02X411086Y9290I141J142D01*
G01Y15010D01*
G02X411145Y15151I200J-1D01*
G01X414999Y19005D01*
G02X415140Y19064I142J-141D01*
G01X420860D01*
G02X421001Y19005I-1J-200D01*
G01X424855Y15151D01*
G02X424914Y15010I-141J-142D01*
G01Y9290D01*
G02X424855Y9149I-200J1D01*
G01X421001Y5295D01*
G02X420860Y5236I-142J141D01*
G01X415140D01*
G02X414999Y5295I1J200D01*
G37*
G36*
G01X377170Y146761D02*
Y151113D01*
G02X377370Y151313I200J0D01*
G01X386052D01*
G02X386252Y151113I0J-200D01*
G01Y146761D01*
G02X386052Y146561I-200J0D01*
G01X377370D01*
G02X377170Y146761I0J200D01*
G37*
G36*
G01X353548Y152666D02*
Y157019D01*
G02X353748Y157219I200J0D01*
G01X362430D01*
G02X362630Y157019I0J-200D01*
G01Y152666D01*
G02X362430Y152466I-200J0D01*
G01X353748D01*
G02X353548Y152666I0J200D01*
G37*
G36*
G01X377170D02*
Y157019D01*
G02X377370Y157219I200J0D01*
G01X386052D01*
G02X386252Y157019I0J-200D01*
G01Y152666D01*
G02X386052Y152466I-200J0D01*
G01X377370D01*
G02X377170Y152666I0J200D01*
G37*
G36*
G01X353548Y158572D02*
Y162924D01*
G02X353748Y163124I200J0D01*
G01X362430D01*
G02X362630Y162924I0J-200D01*
G01Y158572D01*
G02X362430Y158372I-200J0D01*
G01X353748D01*
G02X353548Y158572I0J200D01*
G37*
G36*
G01X377170D02*
Y162924D01*
G02X377370Y163124I200J0D01*
G01X386052D01*
G02X386252Y162924I0J-200D01*
G01Y158572D01*
G02X386052Y158372I-200J0D01*
G01X377370D01*
G02X377170Y158572I0J200D01*
G37*
G36*
G01X353548Y164477D02*
Y168830D01*
G02X353748Y169030I200J0D01*
G01X362430D01*
G02X362630Y168830I0J-200D01*
G01Y164477D01*
G02X362430Y164277I-200J0D01*
G01X353748D01*
G02X353548Y164477I0J200D01*
G37*
G36*
G01X377170D02*
Y168830D01*
G02X377370Y169030I200J0D01*
G01X386052D01*
G02X386252Y168830I0J-200D01*
G01Y164477D01*
G02X386052Y164277I-200J0D01*
G01X377370D01*
G02X377170Y164477I0J200D01*
G37*
G36*
G01Y170383D02*
Y174735D01*
G02X377370Y174935I200J0D01*
G01X386052D01*
G02X386252Y174735I0J-200D01*
G01Y170383D01*
G02X386052Y170183I-200J0D01*
G01X377370D01*
G02X377170Y170383I0J200D01*
G37*
G36*
G01Y176288D02*
Y180641D01*
G02X377370Y180841I200J0D01*
G01X386052D01*
G02X386252Y180641I0J-200D01*
G01Y176288D01*
G02X386052Y176088I-200J0D01*
G01X377370D01*
G02X377170Y176288I0J200D01*
G37*
G36*
G01Y182194D02*
Y186546D01*
G02X377370Y186746I200J0D01*
G01X386052D01*
G02X386252Y186546I0J-200D01*
G01Y182194D01*
G02X386052Y181994I-200J0D01*
G01X377370D01*
G02X377170Y182194I0J200D01*
G37*
G36*
G01Y188099D02*
Y192452D01*
G02X377370Y192652I200J0D01*
G01X386052D01*
G02X386252Y192452I0J-200D01*
G01Y188099D01*
G02X386052Y187899I-200J0D01*
G01X377370D01*
G02X377170Y188099I0J200D01*
G37*
G36*
G01X350864Y77392D02*
X350843Y77379D01*
X348311Y74847D01*
G02X348170Y74788I-142J141D01*
G01X337555D01*
G03X337414Y74730I0J-200D01*
G01X336280Y73596D01*
X336267Y73575D01*
G02X334065Y75777I-1367J835D01*
G01X334086Y75790D01*
X336129Y77833D01*
G02X336270Y77892I142J-141D01*
G01X346885D01*
G03X347026Y77950I0J200D01*
G01X348649Y79573D01*
X348662Y79594D01*
G02X350864Y77392I1367J-835D01*
G37*
G54D41*
X80700Y27190D03*
X93890Y209800D03*
Y213800D03*
X89890Y209800D03*
Y213800D03*
X85890D03*
X210200Y109600D03*
X214400Y108300D03*
X215250Y119000D03*
X221109Y166709D03*
X234300Y249000D03*
X311000Y55430D03*
X238146Y108146D03*
X238068Y115159D03*
X247030Y109890D03*
Y113890D03*
Y117890D03*
Y121890D03*
X257900Y94800D03*
X257937Y153323D03*
X271781Y104832D03*
X263400Y101900D03*
X269114Y163886D03*
X261690Y163770D03*
X276168Y91032D03*
X275462Y98162D03*
X277200Y147800D03*
X289937Y144663D03*
X282500Y163900D03*
X276700Y206200D03*
X284700D03*
X280700D03*
X276700Y218200D03*
X284700D03*
X280700D03*
X276700Y212200D03*
X280700D03*
X284700D03*
X293677Y144663D03*
X318360Y227860D03*
X313360D03*
X308360D03*
X304431Y90793D03*
Y94793D03*
Y98793D03*
X352750Y88260D03*
X401093Y116030D03*
G54D44*
X422290Y247680D03*
G54D45*
X384565Y203071D03*
G54D43*
X120173Y158087D03*
X318598Y14994D03*
Y159662D03*
G54D46*
X375018Y110551D03*
G54D42*
X120173Y256519D03*
X318598Y254944D03*
Y110276D03*
%LPD*%
G75*
G36*
G01X32325Y183594D02*
X40366D01*
G02X40566Y183394I0J-200D01*
G01Y168489D01*
G02X40366Y168289I-200J0D01*
G01X34794D01*
G02X34594Y168489I0J200D01*
G01Y174548D01*
G03X34394Y174748I-200J0D01*
G01X32325D01*
G02X32125Y174948I0J200D01*
G01Y183394D01*
G02X32325Y183594I200J0D01*
G37*
G36*
G01X32100Y252870D02*
Y260379D01*
G02X32300Y260579I200J0D01*
G01X42118D01*
Y260528D01*
X44122D01*
Y260579D01*
X48228D01*
G02X48428Y260379I0J-200D01*
G01Y252870D01*
G02X48228Y252670I-200J0D01*
G01X32300D01*
G02X32100Y252870I0J200D01*
G37*
G36*
G01X48312Y50700D02*
X67800D01*
G02X68000Y50500I0J-200D01*
G01Y35600D01*
G02X67800Y35400I-200J0D01*
G01X48312D01*
G02X48112Y35600I0J200D01*
G01Y50500D01*
G02X48312Y50700I200J0D01*
G37*
G54D10*
G01X-40415Y-77276D02*
Y-156476D01*
G01D02*
X387485D01*
G01X-40415Y-136476D02*
X462185D01*
G01X-40415Y-116476D02*
X462185D01*
G01X-40415Y-96476D02*
X462185D01*
G01Y-77276D02*
X-40415D01*
G01X387485Y-156476D02*
X462185D01*
G01D02*
Y-77276D01*
X0Y42472D03*
Y47472D03*
Y57472D03*
Y52472D03*
Y242472D03*
Y257472D03*
Y252472D03*
Y247472D03*
X430315Y47472D03*
Y42472D03*
Y52472D03*
Y57472D03*
Y242472D03*
Y252472D03*
Y247472D03*
Y257472D03*
G54D20*
X63600Y16114D03*
Y42886D03*
G54D11*
G01X305720Y86690D02*
X308550Y89520D01*
Y91200D01*
X315130Y97780D01*
X324820D01*
G01D02*
X327140Y95460D01*
X330750D01*
X332210Y96920D01*
Y99010D01*
X14000Y142200D03*
Y148200D03*
X15000Y186600D03*
X11900D03*
X8700Y186500D03*
X6400Y205000D03*
X6300Y210900D03*
X6400Y216900D03*
X6300Y222700D03*
X6730Y234330D03*
X6200Y226800D03*
X12000Y249400D03*
X6730Y269850D03*
X13700Y261960D03*
X10580Y262010D03*
X6760Y272610D03*
X22000Y136200D03*
X18000D03*
Y142200D03*
X22000D03*
Y148200D03*
X18000D03*
X23100Y191100D03*
X28500Y205100D03*
X30628Y193208D03*
X29200Y199100D03*
X24350Y221200D03*
X30580Y210900D03*
Y218200D03*
X30559Y222758D03*
X28050Y221200D03*
X17885Y216951D03*
X21585D03*
X29668Y228732D03*
X30100Y231800D03*
X30800Y240400D03*
X31300Y246400D03*
X27995Y241583D03*
Y245283D03*
X41600Y13800D03*
X46600D03*
Y22800D03*
Y17800D03*
X41600D03*
Y22800D03*
X49100Y36900D03*
Y40900D03*
Y44900D03*
Y48900D03*
X43780Y203923D03*
Y200223D03*
X47990Y206133D03*
X45800Y192800D03*
X45266Y220300D03*
X47990Y209833D03*
X48966Y220300D03*
X43800Y227663D03*
Y223963D03*
X51600Y13800D03*
X56600D03*
Y17800D03*
X51600D03*
X53100Y36900D03*
Y40900D03*
Y44900D03*
X57100D03*
Y36900D03*
Y40900D03*
X53100Y48900D03*
X57100D03*
X60270Y179710D03*
X56270D03*
X64270D03*
Y187710D03*
Y183710D03*
X56270Y187710D03*
X60270D03*
X56270Y183710D03*
X60270D03*
X50300Y192700D03*
X54046Y226544D03*
X56663Y229161D03*
X74080Y12660D03*
X80700Y27190D03*
X75300Y36200D03*
X67000Y212000D03*
X74910Y255970D03*
X95470Y25440D03*
X87090Y17800D03*
X97370Y42950D03*
X96480Y54250D03*
X96840Y85450D03*
X85300Y202300D03*
X93890Y209800D03*
Y213800D03*
X89890Y209800D03*
Y213800D03*
X85890D03*
X97910Y28560D03*
X104380Y14310D03*
X113400Y30900D03*
X110200Y31000D03*
X113200Y43600D03*
X110100D03*
X110800Y55550D03*
X110550Y65000D03*
X97950Y96550D03*
X111170Y114120D03*
X101040Y111920D03*
X109980Y174810D03*
X113090Y174690D03*
X97700Y187618D03*
X113070Y177290D03*
X109980Y177460D03*
X113460Y189948D03*
X110260Y190048D03*
X113520Y187278D03*
X110420D03*
X109940Y200300D03*
X97700Y209668D03*
X109640Y231740D03*
X111510Y241970D03*
X98430Y250700D03*
X110860Y250380D03*
X116290Y30990D03*
X119600Y43600D03*
X116500D03*
X119600Y33700D03*
X128890Y75050D03*
X121815Y79585D03*
X115640Y120790D03*
X129410Y138760D03*
Y134760D03*
X120230Y176600D03*
X119880Y181370D03*
Y185500D03*
X119930Y189500D03*
X124340Y211130D03*
X121310Y244553D03*
X130045Y19325D03*
X141970Y16175D03*
X142820Y28890D03*
X142745Y44525D03*
X142520Y34160D03*
X141900Y60230D03*
X142695Y53975D03*
X129900Y103070D03*
X142000Y107520D03*
X142100Y101200D03*
X145410Y138760D03*
Y134760D03*
X141410Y138760D03*
Y134760D03*
X137410Y138760D03*
Y134760D03*
X133410D03*
Y138760D03*
X130000Y164000D03*
X143130Y160830D03*
X141873Y179743D03*
Y189193D03*
X141880Y202160D03*
X141870Y204943D03*
X142790Y196110D03*
X129984Y214393D03*
X130627Y208093D03*
X142207Y211243D03*
X130765Y249100D03*
X142000Y252188D03*
X141900Y245900D03*
X141190Y261760D03*
X135100Y261940D03*
X153270Y16180D03*
X146930Y54280D03*
X148870Y63350D03*
X158843Y80780D03*
X154000D03*
X148870Y110702D03*
Y104402D03*
X146930Y171010D03*
X148870Y207770D03*
X148630Y211890D03*
X153300Y225600D03*
X158200D03*
X148870Y255370D03*
Y249070D03*
X171325Y56280D03*
X175325D03*
Y52280D03*
X171325D03*
X163500Y80780D03*
X169325Y91500D03*
X177325D03*
X173325D03*
Y95500D03*
X177325D03*
X169325D03*
X162800Y225100D03*
X179325Y56280D03*
Y52280D03*
X179160Y66590D03*
X182900Y88300D03*
X192900Y91500D03*
X182900Y103300D03*
Y99300D03*
X178460Y99680D03*
X178900Y106600D03*
X193400Y101400D03*
X181500Y110300D03*
X192061Y124121D03*
X191940Y116120D03*
X183400Y135800D03*
X190580Y185750D03*
X207410Y9290D03*
X194945Y57080D03*
X202945D03*
X198945D03*
Y53080D03*
X202945D03*
X194945D03*
X195600Y77600D03*
X196530Y87270D03*
X200270Y87171D03*
X209400Y80000D03*
X210200Y109600D03*
X202480Y102960D03*
X202613Y125333D03*
X210251Y141849D03*
X206242Y139142D03*
X203000Y162500D03*
X205668Y218602D03*
X208333Y220500D03*
X202333D03*
X208333Y226500D03*
X202333D03*
X214225Y67975D03*
X224160Y78080D03*
X218260Y65950D03*
X215725Y94300D03*
X219725D03*
X211725D03*
Y90300D03*
X219725D03*
X215725D03*
X216400Y78700D03*
X221100Y79000D03*
X211725Y98300D03*
X219725D03*
X215725D03*
X214400Y108300D03*
X221134Y122777D03*
X210964Y122638D03*
X214601Y126634D03*
X219750Y119000D03*
X222783Y111916D03*
X215250Y119000D03*
X214040Y145640D03*
X221109Y170449D03*
Y166709D03*
X225730Y218820D03*
X218333Y220500D03*
X222333D03*
X214333D03*
X218333Y237500D03*
X222333D03*
X214333D03*
Y232500D03*
X222333D03*
X218333D03*
X214333Y226500D03*
X222333D03*
X218333D03*
Y242500D03*
X222333D03*
X214333D03*
X218333Y248500D03*
X222333D03*
X214333D03*
X226300Y249000D03*
X230410Y23450D03*
X240340Y27850D03*
X241245Y44940D03*
X237245D03*
Y48940D03*
X241245D03*
X234390Y63430D03*
X236357Y81265D03*
X237537Y89884D03*
X238782Y85841D03*
X227167Y85830D03*
X226851Y104409D03*
X234100Y97000D03*
X236700Y100779D03*
X230400Y97100D03*
X238146Y108146D03*
X227473Y98493D03*
X227757Y126679D03*
X227558Y115106D03*
X227249Y122171D03*
X238068Y115159D03*
X238147Y122157D03*
X232100Y141300D03*
X226900Y213560D03*
X237510Y223980D03*
X241600Y250400D03*
X230300Y249000D03*
X234300D03*
X245245Y44940D03*
X247930Y37630D03*
X245245Y48940D03*
X253020Y76860D03*
X257020D03*
Y80360D03*
X253020D03*
X257900Y94800D03*
X247030Y109890D03*
Y113890D03*
Y117890D03*
Y121890D03*
X247688Y136664D03*
X249680Y140750D03*
X257937Y153323D03*
X244780Y188500D03*
X244400Y234200D03*
X244300Y230000D03*
X274100Y58400D03*
Y53400D03*
Y63400D03*
X271781Y104832D03*
X263400Y101900D03*
X272400Y129100D03*
X268710Y140670D03*
X269114Y163886D03*
X261690Y163770D03*
X278100Y58400D03*
X282100D03*
Y53400D03*
X278100D03*
X282100Y63400D03*
X278100D03*
X276168Y91032D03*
X275462Y98162D03*
X276700Y142300D03*
X276800Y130400D03*
X277200Y147800D03*
X289937Y144663D03*
X282500Y163900D03*
X276700Y206200D03*
X284700D03*
X280700D03*
X276700Y218200D03*
X284700D03*
X280700D03*
X276700Y212200D03*
X280700D03*
X284700D03*
X289570Y258070D03*
X285570D03*
X289570Y262070D03*
X285570D03*
X291251Y20870D03*
Y16870D03*
X295251D03*
Y20870D03*
Y24870D03*
X301846Y42990D03*
X295251Y35130D03*
X305290Y66260D03*
X301695Y70705D03*
X296740Y84280D03*
X305720Y86690D03*
X300431Y86793D03*
X304431Y90793D03*
X300431D03*
X304431Y94793D03*
X300431D03*
X304431Y98793D03*
X300431D03*
X293677Y144663D03*
X295251Y169538D03*
X295180Y187410D03*
X292790Y184830D03*
X293600Y180120D03*
X293670Y192690D03*
X294610Y197650D03*
X296810Y200540D03*
X299010Y204380D03*
X301530Y209150D03*
X293570Y258070D03*
Y262070D03*
X319200Y57400D03*
Y52400D03*
X311000Y55430D03*
X307790Y78390D03*
X311620Y78260D03*
X316500Y69800D03*
Y73800D03*
Y77800D03*
X308440Y73720D03*
X311300Y98210D03*
X314300Y140400D03*
X318300D03*
X322300D03*
X314300Y148400D03*
Y144400D03*
X322300Y148400D03*
X318300D03*
X322300Y144400D03*
X318300D03*
X318360Y227860D03*
X313360D03*
X308360D03*
Y232860D03*
X313360D03*
X318360D03*
Y237860D03*
X313360D03*
X308360D03*
X327200Y57400D03*
Y52400D03*
X323200Y57400D03*
Y52400D03*
X334900Y74410D03*
X333760Y85520D03*
X328210Y98860D03*
X324820Y97780D03*
X332210Y99010D03*
X328211Y237040D03*
X339900Y66010D03*
Y63010D03*
X342900Y66010D03*
Y63010D03*
X352750Y88260D03*
X350029Y78759D03*
X352091Y135910D03*
X348400Y137900D03*
X352403Y151884D03*
Y157789D03*
Y163695D03*
X350640Y168430D03*
X347128Y181417D03*
X351904Y189308D03*
X351816Y193205D03*
X341920Y225720D03*
X346920D03*
X351920D03*
Y230720D03*
X346920D03*
X341920D03*
X339590Y248850D03*
X368500Y54510D03*
X371300Y54410D03*
X368500Y60510D03*
Y57510D03*
X371300Y60410D03*
Y57410D03*
X361200Y84800D03*
Y88800D03*
Y92800D03*
X357200D03*
Y88800D03*
Y84800D03*
X361200Y96800D03*
X357200D03*
X365410Y140120D03*
X358400Y131100D03*
X367400Y127100D03*
Y131100D03*
X363400D03*
Y127100D03*
X376900Y30200D03*
Y25200D03*
X384900Y30200D03*
X380900D03*
X384900Y25200D03*
X380900D03*
Y45200D03*
X384900D03*
X376900D03*
X380900Y35200D03*
X384900D03*
X380900Y40200D03*
X384900D03*
X376900Y35200D03*
Y40200D03*
X380900Y50200D03*
X384900D03*
X376900D03*
X376000Y140079D03*
X371400Y127100D03*
Y131100D03*
X376000Y145984D03*
Y151890D03*
Y157795D03*
Y163701D03*
Y169606D03*
Y175512D03*
Y181417D03*
Y187323D03*
Y193228D03*
X376029Y214023D03*
Y210023D03*
X372029Y214023D03*
Y210023D03*
X386560Y249960D03*
Y254960D03*
X381560D03*
X376560D03*
X402220Y27210D03*
X394200Y44400D03*
X390200D03*
X394200Y40400D03*
X390200D03*
X394200Y36400D03*
X390200D03*
Y52400D03*
X394200D03*
X390200Y48400D03*
X394200D03*
X402300Y48660D03*
X388638Y102048D03*
X400199Y108508D03*
X401093Y116030D03*
X401059Y123645D03*
X400199Y112508D03*
X395780Y136100D03*
X402350Y196680D03*
X391560Y249960D03*
Y254960D03*
X401000Y268000D03*
Y271000D03*
X397000Y274000D03*
Y277000D03*
X401000D03*
Y274000D03*
X409190Y6720D03*
X409060Y18510D03*
X410730Y41670D03*
X409030Y53090D03*
X408063Y68393D03*
X404199Y108508D03*
Y112508D03*
X403740Y137990D03*
X414700Y184330D03*
X405000Y271000D03*
Y268000D03*
Y277000D03*
Y274000D03*
X420940Y34000D03*
X421470Y48000D03*
X421280Y62000D03*
G54D30*
X353207Y241830D03*
X353347Y267390D03*
X380373Y241830D03*
X380513Y267390D03*
G54D21*
X59311Y243340D03*
G54D12*
X19290Y167237D03*
Y268419D03*
X29650Y167237D03*
Y268419D03*
G54D40*
G01X-523241Y-423689D02*
X-503556D01*
G01X-523241Y-223689D02*
X-503556D01*
G01X-523241Y176311D02*
X-503556D01*
G01X-523241Y376311D02*
X-503556D01*
G01Y-588650D02*
Y541271D01*
G01Y-588650D02*
X1110617D01*
G01X-503556Y541271D02*
X1110617D01*
G01X-296469Y560956D02*
Y541271D01*
G01X-96469Y560956D02*
Y541271D01*
G01X103531Y560956D02*
Y541271D01*
G01X306521D02*
G03X300541I-2990J0D01*
G01D02*
G03X306521I2990J0D01*
G01X503531Y560956D02*
Y541271D01*
G01X703531Y-608335D02*
Y-588650D01*
G01Y560956D02*
Y541271D01*
G01X903531Y-608335D02*
Y-588650D01*
G01Y560956D02*
Y541271D01*
G01X1110617Y-588650D02*
Y541271D01*
G01X1130302Y-423689D02*
X1110617D01*
G01X1130302Y-223689D02*
X1110617D01*
G01X1113607Y-23689D02*
G03X1107627I-2990J0D01*
G01D02*
G03X1113607I2990J0D01*
G01X1130302Y176311D02*
X1110617D01*
G01X1130302Y376311D02*
X1110617D01*
G54D13*
X12400Y179368D03*
Y256288D03*
X36540Y179368D03*
Y256288D03*
G54D31*
X364782Y110551D03*
Y218819D03*
X375018Y110551D03*
Y218819D03*
G54D22*
X59311Y263340D03*
X79311Y243340D03*
X69311D03*
X79311Y263340D03*
X355235Y126299D03*
Y203071D03*
X384565Y126299D03*
Y203071D03*
G54D14*
X13000Y205500D03*
X17200D03*
X13000Y208900D03*
X17200D03*
X46400Y185700D03*
Y189100D03*
X51000Y185700D03*
Y189100D03*
G54D32*
X403930Y261276D03*
G54D23*
X106394Y4961D03*
Y120315D03*
Y149629D03*
Y264983D03*
G54D24*
X104031Y17750D03*
Y20900D03*
Y24050D03*
Y27200D03*
Y30350D03*
Y33500D03*
Y36650D03*
Y39800D03*
Y42950D03*
Y46100D03*
Y49250D03*
Y52400D03*
Y55550D03*
Y58700D03*
Y61850D03*
Y65000D03*
Y68150D03*
Y71300D03*
Y87045D03*
Y90195D03*
Y93345D03*
Y96495D03*
Y99645D03*
Y102795D03*
Y105945D03*
Y109095D03*
Y162418D03*
Y165568D03*
Y168718D03*
Y171868D03*
Y175018D03*
Y178168D03*
Y181318D03*
Y184468D03*
Y187618D03*
Y190768D03*
Y193918D03*
Y197068D03*
Y200218D03*
Y203368D03*
Y206518D03*
Y209668D03*
Y212818D03*
Y215968D03*
Y231713D03*
Y234863D03*
Y238013D03*
Y241163D03*
Y244313D03*
Y247463D03*
Y250613D03*
Y253763D03*
X136315Y16175D03*
Y19325D03*
Y22475D03*
Y25625D03*
Y28775D03*
Y31925D03*
Y35075D03*
Y38225D03*
Y41375D03*
Y44525D03*
Y47675D03*
Y50825D03*
Y53975D03*
Y57125D03*
Y60275D03*
Y63425D03*
Y66575D03*
Y69725D03*
Y85470D03*
Y88620D03*
Y91770D03*
Y94920D03*
Y98070D03*
Y101220D03*
Y104370D03*
Y107520D03*
Y160843D03*
Y163993D03*
Y167143D03*
Y170293D03*
Y173443D03*
Y176593D03*
Y179743D03*
Y182893D03*
Y186043D03*
Y189193D03*
Y192343D03*
Y195493D03*
Y198643D03*
Y201793D03*
Y204943D03*
Y208093D03*
Y211243D03*
Y214393D03*
Y230138D03*
Y233288D03*
Y236438D03*
Y239588D03*
Y242738D03*
Y245888D03*
Y249038D03*
Y252188D03*
G54D15*
X28000Y12150D03*
X418000D03*
X422290Y247680D03*
G54D33*
X409047Y34000D03*
X414953D03*
X409047Y62000D03*
X414953D03*
X409047Y48000D03*
X414953D03*
G54D16*
X45320Y140450D03*
X405319Y90300D03*
Y231535D03*
G54D34*
X413772Y261276D03*
G54D25*
X120173Y13419D03*
Y158087D03*
X318598Y14994D03*
Y159662D03*
G54D35*
G01X25638Y6638D02*
X30362D01*
X33512Y9788D01*
Y14512D01*
X30362Y17662D01*
X25638D01*
X22488Y14512D01*
Y9788D01*
X25638Y6638D01*
G01X358089Y136142D02*
X353849D01*
X353786Y136079D01*
X352091D01*
Y135910D01*
G01X358089Y138110D02*
X348610D01*
X348400Y137900D01*
G01X358089Y151890D02*
X352409D01*
X352403Y151884D01*
G01X358089Y157795D02*
X352409D01*
X352403Y157789D01*
G01X358089Y163701D02*
X352409D01*
X352403Y163695D01*
G01X358089Y169606D02*
X351816D01*
X350640Y168430D01*
G01X347128Y181417D02*
X358089D01*
G01X351904Y189308D02*
X351921Y189291D01*
X358089D01*
G01X351816Y193205D02*
X351839Y193228D01*
X358089D01*
G01Y140079D02*
X365369D01*
X365410Y140120D01*
G01X376000Y140079D02*
X381711D01*
G01X376000Y151890D02*
X381711D01*
G01X376000Y157795D02*
X381711D01*
G01X376000Y145984D02*
X381711D01*
G01X376000Y169606D02*
X381711D01*
G01X376000Y163701D02*
X381711D01*
G01X376000Y175512D02*
X381711D01*
G01X376000Y181417D02*
X381711D01*
G01X376000Y187323D02*
X381711D01*
G01X376000Y193228D02*
X381711D01*
G01X415638Y6638D02*
X420362D01*
X423512Y9788D01*
Y14512D01*
X420362Y17662D01*
X415638D01*
X412488Y14512D01*
Y9788D01*
X415638Y6638D01*
G54D17*
X25670Y196500D03*
X22130D03*
G54D26*
X120173Y111851D03*
Y256519D03*
X318598Y110276D03*
Y254944D03*
G54D36*
G01X25670Y196500D02*
X27700D01*
X29200Y198000D01*
Y199100D01*
G01X104031Y52400D02*
X98330D01*
X96480Y54250D01*
G01X96840Y85450D02*
X98435Y87045D01*
X104031D01*
G01Y42950D02*
X97370D01*
G01X104031Y55550D02*
X110800D01*
G01X104031Y65000D02*
X110550D01*
G01X97950Y96550D02*
X98005Y96495D01*
X104031D01*
G01Y187618D02*
X97700D01*
G01X104031Y197068D02*
X97700D01*
G01X104031Y200218D02*
X109858D01*
X109940Y200300D01*
G01X104031Y209668D02*
X97700D01*
G01X104031Y231713D02*
X109613D01*
X109640Y231740D01*
G01X104031Y241163D02*
X110703D01*
X111510Y241970D01*
G01X136315Y19325D02*
X130045D01*
G01X136315Y16175D02*
X141970D01*
G01X142820Y28890D02*
Y23976D01*
X141319Y22475D01*
X136315D01*
G01Y44525D02*
X142745D01*
G01X142520Y34160D02*
X141605Y35075D01*
X136315D01*
G01Y57125D02*
X144085D01*
X146930Y54280D01*
G01X141900Y60230D02*
X148280D01*
X157960Y50550D01*
Y38330D01*
X190690Y5600D01*
X260280D01*
X283240Y28560D01*
X334820D01*
X346520Y16860D01*
X395920D01*
X405570Y26510D01*
Y36510D01*
X410730Y41670D01*
G01X136315Y60275D02*
X141855D01*
X141900Y60230D01*
G01X136315Y53975D02*
X142695D01*
G01X136315Y104370D02*
X131200D01*
X129900Y103070D01*
G01X136315Y107520D02*
X142000D01*
G01X136315Y101220D02*
X142080D01*
X142100Y101200D01*
G01X136315Y163993D02*
X130007D01*
X130000Y164000D01*
G01X143130Y160830D02*
X143950Y161650D01*
X175640D01*
X187580Y149710D01*
Y88703D01*
X196333Y79950D01*
X196574D01*
X197950Y78574D01*
Y78333D01*
X205134Y71149D01*
X206666D01*
X218900Y71150D01*
X222019Y68031D01*
Y25811D01*
X228150Y19680D01*
X265850D01*
X278950Y32780D01*
X337980D01*
X349120Y21640D01*
X387447D01*
X405560Y39753D01*
Y65890D01*
X408063Y68393D01*
G01X136315Y160843D02*
X143117D01*
X143130Y160830D01*
G01X136315Y167143D02*
X143063D01*
X146930Y171010D01*
G01X136315Y179743D02*
X141873D01*
G01X136315Y189193D02*
X141873D01*
G01X136315Y201793D02*
X141513D01*
X141880Y202160D01*
G01X136315Y204943D02*
X141870D01*
G01X136315Y198643D02*
X141289D01*
X142790Y197142D01*
Y196110D01*
G01X136315Y214393D02*
X129984D01*
G01X136315Y249038D02*
X131062D01*
X131000Y249100D01*
X130765D01*
G01X136315Y252188D02*
X142000D01*
G01X136315Y245888D02*
X141888D01*
X141900Y245900D01*
G01X182900Y88300D02*
Y99300D01*
G01D02*
X178840D01*
X178460Y99680D01*
G01X200270Y87171D02*
Y100750D01*
X202480Y102960D01*
G01X224160Y78080D02*
X223890Y78350D01*
Y86413D01*
X225150Y87673D01*
Y91850D01*
X230400Y97100D01*
G01X350029Y78759D02*
X347610Y76340D01*
X336830D01*
X334900Y74410D01*
G01X381790Y63500D02*
X397780D01*
X402300Y58980D01*
Y48660D01*
G01X414953Y34000D02*
X420940D01*
G01X414953Y48000D02*
X421470D01*
G01X414953Y62000D02*
X421280D01*
G54D27*
X306197Y14994D03*
Y110269D03*
Y159662D03*
Y254937D03*
X331000Y14994D03*
Y110269D03*
Y159662D03*
Y254937D03*
G54D18*
X23500Y245427D03*
X20100D03*
X23500Y241427D03*
X20100D03*
X395700Y140500D03*
X392300D03*
X395700Y145000D03*
X392300D03*
G54D37*
G01X303531Y560956D02*
Y541271D01*
G01X1130302Y-23689D02*
X1110617D01*
G54D28*
X309346Y15000D03*
Y110275D03*
Y159668D03*
Y254943D03*
G54D19*
X43079Y169764D03*
X39579D03*
X43120Y263030D03*
Y259530D03*
G54D38*
G01X-6200Y-275D02*
X-26200D01*
Y283133D01*
X-6200D01*
G01Y39972D02*
Y-275D01*
G01X0Y39972D02*
Y29972D01*
G01X-6200Y39972D02*
G02X0I3100J0D01*
G01Y59972D02*
G02X-6200I-3100J0D01*
G01X0D02*
Y69972D01*
G01X-6200Y59972D02*
Y229972D01*
G01X0Y239972D02*
Y229972D01*
G01X-6200Y239972D02*
Y229972D01*
G01Y239972D02*
G02X0I3100J0D01*
G01Y259972D02*
G02X-6200I-3100J0D01*
G01X0D02*
Y269972D01*
G01X-6200Y259972D02*
Y283133D01*
G01X74910Y255970D02*
Y256350D01*
X62870Y268390D01*
X40910D01*
X36039Y263519D01*
X28807D01*
X4660Y239372D01*
Y228340D01*
X6200Y226800D01*
G01X23100Y191100D02*
Y192800D01*
X22130Y193770D01*
Y196500D01*
G01X95470Y25440D02*
X95571Y25541D01*
Y38919D01*
X66190Y68300D01*
Y163530D01*
X47910Y181810D01*
Y184190D01*
X46400Y185700D01*
G01Y189100D02*
Y192200D01*
X45800Y192800D01*
G01X97910Y28560D02*
X97214Y29256D01*
Y39276D01*
X67978Y68512D01*
Y164311D01*
X49389Y182900D01*
Y184089D01*
X51000Y185700D01*
G01Y189100D02*
Y192000D01*
X50300Y192700D01*
G01X104380Y14310D02*
X107100D01*
X120130Y27340D01*
Y30850D01*
X121620Y32340D01*
Y67450D01*
X118100Y70970D01*
Y81470D01*
X119390Y82760D01*
X148890D01*
X172730Y106600D01*
X178900D01*
G01X101040Y111920D02*
X102860D01*
X104031Y110749D01*
Y109095D01*
G01X181500Y110300D02*
X178540Y113260D01*
X132990D01*
X125675Y105945D01*
X104031D01*
G01X195600Y77600D02*
X195500Y77700D01*
X194300D01*
X184800Y87200D01*
Y117560D01*
X184200Y118160D01*
X118040D01*
X114000Y114120D01*
X111170D01*
G01X110860Y250380D02*
X107477Y253763D01*
X104031D01*
G01Y250613D02*
X107307D01*
X118640Y239280D01*
Y230830D01*
X124650Y224820D01*
X144910D01*
X151339Y231249D01*
X179616D01*
X197196Y213669D01*
Y105196D01*
X193400Y101400D01*
G01X136315Y28775D02*
X126965D01*
X123520Y32220D01*
Y74600D01*
X125950Y77030D01*
X132691D01*
X137671Y72050D01*
X182440D01*
X185950Y68540D01*
Y29820D01*
X206480Y9290D01*
X207410D01*
G01X128890Y75050D02*
X128880Y75040D01*
Y66060D01*
X131515Y63425D01*
X136315D01*
G01X218260Y65950D02*
X196010D01*
X188190Y73770D01*
X143070D01*
X137255Y79585D01*
X121815D01*
G01X183400Y135800D02*
X165340Y153860D01*
X133390D01*
X127550Y159700D01*
Y207920D01*
X124340Y211130D01*
G01X121310Y244553D02*
X120520Y243763D01*
Y231144D01*
X125293Y226371D01*
X144267D01*
X150696Y232800D01*
X183650D01*
X205440Y211010D01*
Y159411D01*
X203660Y157631D01*
Y136299D01*
X204735Y135224D01*
Y84665D01*
X209400Y80000D01*
G01X136315Y66575D02*
X179145D01*
X179160Y66590D01*
G01X136315Y173443D02*
X143053D01*
X155360Y185750D01*
X190580D01*
G01X136315Y208093D02*
X130627D01*
G01X136315Y211243D02*
X142207D01*
G01X141190Y261760D02*
X152250D01*
X155650Y258360D01*
X220420D01*
X228350Y250430D01*
Y215010D01*
X226900Y213560D01*
G01X135100Y261940D02*
X139100Y257940D01*
X150350D01*
X152630Y255660D01*
X213400D01*
X216350Y252710D01*
Y157050D01*
X232100Y141300D01*
G01X192900Y91500D02*
X191400Y93000D01*
Y104088D01*
X195160Y107848D01*
Y193361D01*
X176631Y211890D01*
X148630D01*
G01X234390Y63430D02*
X224820Y73000D01*
X205900D01*
X199800Y79100D01*
Y79341D01*
X197341Y81800D01*
X197100D01*
X190400Y88500D01*
Y92020D01*
X190000Y92420D01*
Y104668D01*
X190400Y105068D01*
Y114580D01*
X191940Y116120D01*
G01X206242Y139142D02*
Y85901D01*
X217543Y74600D01*
X226300D01*
X234890Y66010D01*
X273470D01*
X283780Y76320D01*
X306790D01*
X307790Y77320D01*
Y78390D01*
G01X402220Y27210D02*
X399720D01*
X392130Y19620D01*
X346377D01*
X335587Y30410D01*
X281020D01*
X267780Y17170D01*
X225230D01*
X214060Y28340D01*
Y61750D01*
X218260Y65950D01*
G01X272400Y129100D02*
X270267Y126967D01*
X237537D01*
X232430Y121860D01*
Y115670D01*
X221670Y104910D01*
Y89300D01*
X218200Y85830D01*
Y80500D01*
X216400Y78700D01*
G01X276800Y130400D02*
Y130300D01*
X271700Y125200D01*
X237750D01*
X234190Y121640D01*
Y115450D01*
X223300Y104560D01*
Y88440D01*
X220000Y85140D01*
Y80100D01*
X221100Y79000D01*
G01X234390Y63430D02*
Y27430D01*
X230410Y23450D01*
G01X240340Y27850D02*
X247930Y35440D01*
Y37630D01*
G01X227167Y85830D02*
X244887Y68110D01*
X273590D01*
X283600Y78120D01*
X304710D01*
X314950Y88360D01*
X336800D01*
X344730Y96290D01*
Y138019D01*
X348758Y142047D01*
X358089D01*
G01Y147953D02*
X342494D01*
X337950Y143409D01*
Y96390D01*
X334090Y92530D01*
X314950D01*
X304690Y82270D01*
X282880D01*
X272410Y71800D01*
X251770D01*
X242260Y81310D01*
Y92390D01*
X235450Y99200D01*
X228180D01*
X227473Y98493D01*
G01X238782Y85841D02*
Y82128D01*
X250660Y70250D01*
X273210D01*
X283580Y80620D01*
X305120D01*
X314920Y90420D01*
X334820D01*
X340340Y95940D01*
Y140020D01*
X346304Y145984D01*
X358089D01*
G01X395700Y140500D02*
X397940D01*
X398740Y141300D01*
Y163100D01*
X406350Y170710D01*
Y201590D01*
X381740Y226200D01*
X359170D01*
X352680Y232690D01*
X341550D01*
X331030Y243210D01*
X242120D01*
X232680Y233770D01*
Y204070D01*
X238960Y197790D01*
Y139720D01*
X242016Y136664D01*
X247688D01*
G01X249680Y140750D02*
X241890D01*
X240360Y142280D01*
Y198370D01*
X234080Y204650D01*
Y233190D01*
X242330Y241440D01*
X328320D01*
X341840Y227920D01*
X352790D01*
X356170Y224540D01*
X379690D01*
X404950Y199280D01*
Y171290D01*
X395700Y162040D01*
Y145000D01*
G01X402350Y196680D02*
Y198210D01*
X377610Y222950D01*
X341210D01*
X329180Y234980D01*
X258210D01*
X257090Y236100D01*
X241520D01*
X237510Y232090D01*
Y223980D01*
G01X249680Y140750D02*
X252070Y138360D01*
X272760D01*
X276700Y142300D01*
G01X244780Y188500D02*
Y229520D01*
X244300Y230000D01*
G01X358089Y171575D02*
X345384D01*
X345129Y171830D01*
X300570D01*
X297970Y169230D01*
Y85510D01*
X296740Y84280D01*
G01X293600Y180120D02*
X293730D01*
X300307Y173543D01*
X358089D01*
G01X293670Y192690D02*
Y192430D01*
X306720Y179380D01*
X320750D01*
Y179350D01*
X320849Y179449D01*
X358089D01*
G01X295180Y187410D02*
X295230D01*
X305160Y177480D01*
X358089D01*
G01X292790Y184830D02*
Y184710D01*
X301988Y175512D01*
X316620D01*
X316662Y175470D01*
X318238D01*
X318280Y175512D01*
X358089D01*
G01X294610Y197650D02*
Y197310D01*
X308534Y183386D01*
X358089D01*
G01X301530Y209150D02*
X319420Y191260D01*
X358089D01*
G01X296810Y200540D02*
X311996Y185354D01*
X358089D01*
G01X299010Y204380D02*
X316067Y187323D01*
X358089D01*
G01X308440Y73720D02*
Y75040D01*
X309720Y76320D01*
Y81060D01*
X315090Y86430D01*
X332850D01*
X333760Y85520D01*
G01X381711Y138110D02*
X403620D01*
X403740Y137990D01*
G01X381711Y136142D02*
X395738D01*
X395780Y136100D01*
G01X392300Y140500D02*
X389821D01*
X388274Y142047D01*
X381711D01*
G01Y144016D02*
X388584D01*
X389568Y145000D01*
X392300D01*
G01X409047Y34000D02*
Y18523D01*
X409060Y18510D01*
G01X409047Y48000D02*
Y53073D01*
X409030Y53090D01*
G01X409047Y62000D02*
Y63297D01*
X416180Y70430D01*
X418860D01*
X423640Y75210D01*
Y175390D01*
X414700Y184330D01*
G01X430315Y39972D02*
Y29972D01*
G01Y39972D02*
G02X436515I3100J0D01*
G01Y59972D02*
G02X430315I-3100J0D01*
G01D02*
Y69972D01*
G01Y239972D02*
Y229972D01*
G01Y239972D02*
G02X436515I3100J0D01*
G01Y259972D02*
G02X430315I-3100J0D01*
G01D02*
Y269972D01*
G01X436515Y283133D02*
X456515D01*
Y-275D01*
X436515D01*
G01Y39972D02*
Y-275D01*
G01Y59972D02*
Y69972D01*
G01Y239972D02*
Y69972D01*
G01Y259972D02*
Y283133D01*
G54D29*
X358089Y142047D03*
Y140079D03*
Y138110D03*
Y136142D03*
Y157795D03*
Y155827D03*
Y153858D03*
Y151890D03*
Y149921D03*
Y147953D03*
Y145984D03*
Y144016D03*
Y173543D03*
Y171575D03*
Y169606D03*
Y167638D03*
Y165669D03*
Y163701D03*
Y161732D03*
Y159764D03*
Y189291D03*
Y187323D03*
Y185354D03*
Y183386D03*
Y181417D03*
Y179449D03*
Y177480D03*
Y175512D03*
Y193228D03*
Y191260D03*
X381711Y136142D03*
Y138110D03*
Y140079D03*
Y142047D03*
Y144016D03*
Y145984D03*
Y147953D03*
Y149921D03*
Y151890D03*
Y153858D03*
Y155827D03*
Y157795D03*
Y159764D03*
Y161732D03*
Y163701D03*
Y165669D03*
Y167638D03*
Y169606D03*
Y171575D03*
Y173543D03*
Y175512D03*
Y177480D03*
Y179449D03*
Y181417D03*
Y183386D03*
Y185354D03*
Y187323D03*
Y189291D03*
Y191260D03*
Y193228D03*
G54D39*
G01X-523241Y-608335D02*
Y560956D01*
G01Y-608335D02*
X1130302D01*
G01X-523241Y560956D02*
X1130302D01*
G01X-34740Y-151376D02*
Y-141376D01*
G01X-31740Y-146209D02*
X-34740D01*
G01Y-141376D02*
X-29990D01*
G01X-31515Y-125977D02*
X-35390D01*
G01Y-131310D02*
X-31265D01*
G01X-35390Y-121310D02*
Y-131310D01*
G01X-32015Y-121310D02*
X-35390D01*
G01X-32415Y-101776D02*
X-31415Y-102276D01*
G01X-34915Y-101776D02*
X-32415D01*
G01Y-111776D02*
X-34915D01*
G01X-31415Y-111276D02*
X-32415Y-111776D01*
G01X-34915D02*
Y-101776D01*
G01X-32215Y-92576D02*
X-34715D01*
G01X-31215Y-92076D02*
X-32215Y-92576D01*
G01X-34715D02*
Y-82576D01*
G01X-32215D02*
X-31215Y-83076D01*
G01X-34715Y-82576D02*
X-32215D01*
G01X-23865Y-151376D02*
X-20865D01*
G01X-22365Y-141376D02*
Y-151376D01*
G01X-23865Y-141376D02*
X-20865D01*
G01X-21515Y-131143D02*
X-22515Y-131310D01*
G01X-20640Y-130477D02*
X-21515Y-131143D01*
G01X-19890Y-129477D02*
X-20640Y-130477D01*
G01X-19390Y-128310D02*
X-19890Y-129477D01*
G01X-19140Y-126977D02*
X-19390Y-128310D01*
G01X-19140Y-125643D02*
Y-126977D01*
G01X-19390Y-124310D02*
X-19140Y-125643D01*
G01X-19890Y-123143D02*
X-19390Y-124310D01*
G01X-20640Y-122143D02*
X-19890Y-123143D01*
G01X-21515Y-121477D02*
X-20640Y-122143D01*
G01X-22515Y-121310D02*
X-21515Y-121477D01*
G01X-23515D02*
X-22515Y-121310D01*
G01X-24390Y-122143D02*
X-23515Y-121477D01*
G01X-25140Y-123143D02*
X-24390Y-122143D01*
G01X-25640Y-124310D02*
X-25140Y-123143D01*
G01X-25890Y-125643D02*
X-25640Y-124310D01*
G01X-25890Y-126977D02*
Y-125643D01*
G01X-25640Y-128310D02*
X-25890Y-126977D01*
G01X-25140Y-129477D02*
X-25640Y-128310D01*
G01X-24390Y-130477D02*
X-25140Y-129477D01*
G01X-23515Y-131143D02*
X-24390Y-130477D01*
G01X-22515Y-131310D02*
X-23515Y-131143D01*
G01X-30640Y-126310D02*
X-31515Y-125977D01*
G01X-29890Y-127310D02*
X-30640Y-126310D01*
G01X-29640Y-128477D02*
X-29890Y-127310D01*
G01Y-129643D02*
X-29640Y-128477D01*
G01X-30390Y-130643D02*
X-29890Y-129643D01*
G01X-31265Y-131310D02*
X-30390Y-130643D01*
G01X-31140Y-121810D02*
X-32015Y-121310D01*
G01X-30640Y-122477D02*
X-31140Y-121810D01*
G01X-30390Y-123477D02*
X-30640Y-122477D01*
G01Y-124644D02*
X-30390Y-123477D01*
G01X-31015Y-125477D02*
X-30640Y-124644D01*
G01X-31515Y-125977D02*
X-31015Y-125477D01*
G01X-24665Y-101776D02*
X-19665D01*
G01X-21665Y-106609D02*
X-24665D01*
G01Y-111776D02*
Y-101776D01*
G01X-19665Y-111776D02*
X-24665D01*
G01X-30665Y-110610D02*
X-31415Y-111276D01*
G01X-30040Y-109609D02*
X-30665Y-110610D01*
G01X-29540Y-108443D02*
X-30040Y-109609D01*
G01X-29415Y-106776D02*
X-29540Y-108443D01*
G01Y-105110D02*
X-29415Y-106776D01*
G01X-30040Y-103943D02*
X-29540Y-105110D01*
G01X-30665Y-102943D02*
X-30040Y-103943D01*
G01X-31415Y-102276D02*
X-30665Y-102943D01*
G01X-19965Y-89076D02*
X-23965D01*
G01X-21965Y-82576D02*
X-18840Y-92576D01*
G01X-25090D02*
X-21965Y-82576D01*
G01X-29340Y-85910D02*
X-29215Y-87576D01*
G01X-29840Y-84743D02*
X-29340Y-85910D01*
G01X-30465Y-83743D02*
X-29840Y-84743D01*
G01X-31215Y-83076D02*
X-30465Y-83743D01*
G01Y-91410D02*
X-31215Y-92076D01*
G01X-29840Y-90409D02*
X-30465Y-91410D01*
G01X-29340Y-89243D02*
X-29840Y-90409D01*
G01X-29215Y-87576D02*
X-29340Y-89243D01*
G01X-2365Y-149709D02*
X885Y-141376D01*
G01X-5615D02*
X-2365Y-149709D01*
G01X-5615Y-151376D02*
Y-141376D01*
G01X-14865Y-151376D02*
X-9865D01*
G01X-14865Y-141376D02*
Y-151376D01*
G01X-1890Y-126477D02*
X-15Y-131310D01*
G01X-1890Y-126477D02*
X-5015D01*
G01X-1015Y-125977D02*
X-1890Y-126477D01*
G01X-265Y-125143D02*
X-1015Y-125977D01*
G01X-15Y-123810D02*
X-265Y-125143D01*
G01Y-122477D02*
X-15Y-123810D01*
G01X-890Y-121810D02*
X-265Y-122477D01*
G01X-1890Y-121310D02*
X-890Y-121810D01*
G01X-5015Y-121310D02*
X-1890D01*
G01X-5015Y-131310D02*
Y-121310D01*
G01X-12515D02*
X-9390Y-131310D01*
G01X-10515Y-127810D02*
X-14515D01*
G01X-15640Y-131310D02*
X-12515Y-121310D01*
G01X-3665Y-101776D02*
X-665D01*
G01X-11665D02*
X-10790Y-102109D01*
G01X-12540Y-101776D02*
X-11665D01*
G01X-3665Y-111776D02*
X-665D01*
G01X-2165Y-101776D02*
Y-111776D01*
G01X-10790Y-102109D02*
X-10040Y-102943D01*
G01X-11540Y-106443D02*
X-13040Y-106109D01*
G01X-10415Y-107109D02*
X-11540Y-106443D01*
G01X-9790Y-108110D02*
X-10415Y-107109D01*
G01X-9540Y-109276D02*
X-9790Y-108110D01*
G01X-9915Y-110443D02*
X-9540Y-109276D01*
G01X-10665Y-111276D02*
X-9915Y-110443D01*
G01X-11665Y-111776D02*
X-10665Y-111276D01*
G01X-12665Y-111776D02*
X-11665D01*
G01X-13415Y-102276D02*
X-12540Y-101776D01*
G01X-14040Y-103109D02*
X-13415Y-102276D01*
G01X-14290Y-104276D02*
X-14040Y-103109D01*
G01X-13915Y-105443D02*
X-14290Y-104276D01*
G01X-13040Y-106109D02*
X-13915Y-105443D01*
G01X-13790Y-111276D02*
X-12665Y-111776D01*
G01X-14790Y-110443D02*
X-13790Y-111276D01*
G01X-1465Y-87409D02*
X-4465D01*
G01Y-92576D02*
Y-82576D01*
G01X535Y-92576D02*
X-4465D01*
G01X-11965Y-82576D02*
Y-92576D01*
G01X-4465Y-82576D02*
X535D01*
G01X-14840D02*
X-9090D01*
G01X430315Y-275D02*
Y283133D01*
X0D01*
Y-275D01*
X430315D01*
G01X15135Y-151376D02*
X20135D01*
G01X15135Y-141376D02*
Y-151376D01*
G01X885Y-141376D02*
Y-151376D01*
G01X7235Y-131310D02*
X4735D01*
G01X8235Y-130810D02*
X7235Y-131310D01*
G01X8985Y-130144D02*
X8235Y-130810D01*
G01X9610Y-129143D02*
X8985Y-130144D01*
G01X10110Y-127977D02*
X9610Y-129143D01*
G01X10235Y-126310D02*
X10110Y-127977D01*
G01Y-124644D02*
X10235Y-126310D01*
G01X9610Y-123477D02*
X10110Y-124644D01*
G01X8985Y-122477D02*
X9610Y-123477D01*
G01X8235Y-121810D02*
X8985Y-122477D01*
G01X7235Y-121310D02*
X8235Y-121810D01*
G01X4735Y-121310D02*
X7235D01*
G01X4735Y-131310D02*
Y-121310D01*
G01X8710Y-101776D02*
X9710Y-102109D01*
G01X7835Y-101776D02*
X8710D01*
G01X6835Y-102276D02*
X7835Y-101776D01*
G01X14960D02*
X20710Y-111776D01*
G01X14960D02*
Y-101776D01*
G01X9710Y-102109D02*
X10460Y-102776D01*
G01X6085Y-102943D02*
X6835Y-102276D01*
G01X5335Y-103943D02*
X6085Y-102943D01*
G01X4835Y-105110D02*
X5335Y-103943D01*
G01X4585Y-106109D02*
X4835Y-105110D01*
G01X4585Y-107276D02*
Y-106109D01*
G01X4835Y-108609D02*
X4585Y-107276D01*
G01X5335Y-109776D02*
X4835Y-108609D01*
G01X6085Y-110776D02*
X5335Y-109776D01*
G01X6960Y-111443D02*
X6085Y-110776D01*
G01X8210Y-111776D02*
X6960Y-111443D01*
G01X9460D02*
X8210Y-111776D01*
G01X10335Y-110776D02*
X9460Y-111443D01*
G01X11085Y-109776D02*
X10335Y-110776D01*
G01X11085Y-106776D02*
Y-109776D01*
G01X8585Y-106776D02*
X11085D01*
G01X12200Y-91000D02*
X12950Y-92167D01*
X13950Y-92833D01*
X15075Y-93000D01*
X16075Y-92833D01*
X17075Y-92000D01*
X17700Y-91000D01*
X17825Y-90000D01*
X17575Y-88834D01*
X16700Y-88000D01*
X15825Y-87667D01*
X14700D01*
G01X15825D02*
X16575Y-87167D01*
X17200Y-86334D01*
X17450Y-85333D01*
X17200Y-84333D01*
X16575Y-83500D01*
X15450Y-83000D01*
X14325Y-83167D01*
X13200Y-83833D01*
G01X24950Y-93000D02*
Y-83000D01*
X23450Y-85000D01*
G01Y-93000D02*
X26450D01*
G01X33325Y-89667D02*
X36575D01*
G01X44950Y-83000D02*
X43950Y-83333D01*
X43200Y-84167D01*
X42700Y-85167D01*
X42325Y-86500D01*
X42200Y-88000D01*
X42325Y-89500D01*
X42700Y-90833D01*
X43200Y-91834D01*
X43950Y-92667D01*
X44950Y-93000D01*
X45950Y-92667D01*
X46700Y-91834D01*
X47200Y-90833D01*
X47575Y-89500D01*
X47700Y-88000D01*
X47575Y-86500D01*
X47200Y-85167D01*
X46700Y-84167D01*
X45950Y-83333D01*
X44950Y-83000D01*
G01X54700Y-93000D02*
X54950Y-90833D01*
X55325Y-89000D01*
X55825Y-87333D01*
X56450Y-85500D01*
X57450Y-83000D01*
X52450D01*
G01X63325Y-89667D02*
X66575D01*
G01X72575Y-84667D02*
X73325Y-83667D01*
X74200Y-83167D01*
X75200Y-83000D01*
X76450Y-83333D01*
X77325Y-84167D01*
X77575Y-85167D01*
X77450Y-86167D01*
X76950Y-87000D01*
X74450Y-88667D01*
X73325Y-89833D01*
X72575Y-91500D01*
X72325Y-93000D01*
X77575D01*
G01X84950Y-83000D02*
X83950Y-83333D01*
X83200Y-84167D01*
X82700Y-85167D01*
X82325Y-86500D01*
X82200Y-88000D01*
X82325Y-89500D01*
X82700Y-90833D01*
X83200Y-91834D01*
X83950Y-92667D01*
X84950Y-93000D01*
X85950Y-92667D01*
X86700Y-91834D01*
X87200Y-90833D01*
X87575Y-89500D01*
X87700Y-88000D01*
X87575Y-86500D01*
X87200Y-85167D01*
X86700Y-84167D01*
X85950Y-83333D01*
X84950Y-83000D01*
G01X92575Y-84667D02*
X93325Y-83667D01*
X94200Y-83167D01*
X95200Y-83000D01*
X96450Y-83333D01*
X97325Y-84167D01*
X97575Y-85167D01*
X97450Y-86167D01*
X96950Y-87000D01*
X94450Y-88667D01*
X93325Y-89833D01*
X92575Y-91500D01*
X92325Y-93000D01*
X97575D01*
G01X104950Y-83000D02*
X103950Y-83333D01*
X103200Y-84167D01*
X102700Y-85167D01*
X102325Y-86500D01*
X102200Y-88000D01*
X102325Y-89500D01*
X102700Y-90833D01*
X103200Y-91834D01*
X103950Y-92667D01*
X104950Y-93000D01*
X105950Y-92667D01*
X106700Y-91834D01*
X107200Y-90833D01*
X107575Y-89500D01*
X107700Y-88000D01*
X107575Y-86500D01*
X107200Y-85167D01*
X106700Y-84167D01*
X105950Y-83333D01*
X104950Y-83000D01*
G01X8285Y-88243D02*
X8035Y-88410D01*
G01X8285Y-87909D02*
Y-88243D01*
G01X8035Y-87743D02*
X8285Y-87909D01*
G01X7785D02*
X8035Y-87743D01*
G01X7785Y-88243D02*
Y-87909D01*
G01X8035Y-88410D02*
X7785Y-88243D01*
G01X8285Y-92743D02*
X8035Y-92909D01*
G01X8285Y-92409D02*
Y-92743D01*
G01X8035Y-92243D02*
X8285Y-92409D01*
G01X7785D02*
X8035Y-92243D01*
G01X7785Y-92743D02*
Y-92409D01*
G01X8035Y-92909D02*
X7785Y-92743D01*
G01X29635Y-147876D02*
X25635D01*
G01X27635Y-141376D02*
X30760Y-151376D01*
G01X24510D02*
X27635Y-141376D01*
G01X30360Y-131310D02*
Y-121310D01*
G01X24610D02*
X30360Y-131310D01*
G01X24610D02*
Y-121310D01*
G01X25335Y-101776D02*
X30335D01*
G01X28335Y-106609D02*
X25335D01*
G01Y-111776D02*
Y-101776D01*
G01X30335Y-111776D02*
X25335D01*
G01X20710D02*
Y-101776D01*
G01X45135Y-151376D02*
Y-141376D01*
G01X50135Y-151376D02*
X45135D01*
G01X37635D02*
Y-146876D01*
G01X48135Y-146209D02*
X45135D01*
G01Y-141376D02*
X50135D01*
G01X40135D02*
X37635Y-146876D01*
G01D02*
X35135Y-141376D01*
G01X47485Y-129643D02*
X50735Y-121310D01*
G01X44235D02*
X47485Y-129643D01*
G01X44235Y-131310D02*
Y-121310D01*
G01X39485Y-127810D02*
X35485D01*
G01X37485Y-121310D02*
X40610Y-131310D01*
G01X34360D02*
X37485Y-121310D01*
G01X37585Y-101776D02*
X38585Y-102276D01*
G01Y-111276D02*
X37585Y-111776D01*
G01X39335Y-110610D02*
X38585Y-111276D01*
G01X39960Y-109609D02*
X39335Y-110610D01*
G01X40460Y-108443D02*
X39960Y-109609D01*
G01X40585Y-106776D02*
X40460Y-108443D01*
G01Y-105110D02*
X40585Y-106776D01*
G01X39960Y-103943D02*
X40460Y-105110D01*
G01X39335Y-102943D02*
X39960Y-103943D01*
G01X38585Y-102276D02*
X39335Y-102943D01*
G01X35085Y-101776D02*
X37585D01*
G01Y-111776D02*
X35085D01*
G01D02*
Y-101776D01*
G01X58260Y-146543D02*
X60135Y-151376D01*
G01X55135D02*
Y-141376D01*
G01X58260Y-146543D02*
X55135D01*
G01X59135Y-146043D02*
X58260Y-146543D01*
G01X59885Y-145209D02*
X59135Y-146043D01*
G01X60135Y-143876D02*
X59885Y-145209D01*
G01Y-142543D02*
X60135Y-143876D01*
G01X59260Y-141876D02*
X59885Y-142543D01*
G01X58260Y-141376D02*
X59260Y-141876D01*
G01X55135Y-141376D02*
X58260D01*
G01X57985Y-126143D02*
X54985D01*
G01Y-121310D02*
X59985D01*
G01X54985Y-131310D02*
Y-121310D01*
G01X59985Y-131310D02*
X54985D01*
G01X50735Y-121310D02*
Y-131310D01*
G01X59835Y-108276D02*
X55835D01*
G01X57835Y-101776D02*
X60960Y-111776D01*
G01X54710D02*
X57835Y-101776D01*
G01X67885Y-151543D02*
X67635Y-151709D01*
G01X67885Y-151209D02*
Y-151543D01*
G01X67635Y-151043D02*
X67885Y-151209D01*
G01X67385D02*
X67635Y-151043D01*
G01X67385Y-151543D02*
Y-151209D01*
G01X67635Y-151709D02*
X67385Y-151543D01*
G01X67885Y-147043D02*
X67635Y-147210D01*
G01X67885Y-146709D02*
Y-147043D01*
G01X67635Y-146543D02*
X67885Y-146709D01*
G01X67385D02*
X67635Y-146543D01*
G01X67385Y-147043D02*
Y-146709D01*
G01X67635Y-147210D02*
X67385Y-147043D01*
G01X67735Y-126977D02*
X67485Y-127144D01*
G01X67735Y-126643D02*
Y-126977D01*
G01X67485Y-126477D02*
X67735Y-126643D01*
G01Y-131477D02*
X67485Y-131643D01*
G01X67735Y-131143D02*
Y-131477D01*
G01X67485Y-130977D02*
X67735Y-131143D01*
G01X67235Y-126643D02*
X67485Y-126477D01*
G01X67235Y-126977D02*
Y-126643D01*
G01X67485Y-127144D02*
X67235Y-126977D01*
G01Y-131143D02*
X67485Y-130977D01*
G01X67235Y-131477D02*
Y-131143D01*
G01X67485Y-131643D02*
X67235Y-131477D01*
G01X78085Y-107443D02*
X77835Y-107610D01*
G01X78085Y-107109D02*
Y-107443D01*
G01X77835Y-106943D02*
X78085Y-107109D01*
G01X77585D02*
X77835Y-106943D01*
G01X77585Y-107443D02*
Y-107109D01*
G01X77835Y-107610D02*
X77585Y-107443D01*
G01X78085Y-111943D02*
X77835Y-112109D01*
G01X78085Y-111609D02*
Y-111943D01*
G01X77835Y-111443D02*
X78085Y-111609D01*
G01X77585D02*
X77835Y-111443D01*
G01X77585Y-111943D02*
Y-111609D01*
G01X77835Y-112109D02*
X77585Y-111943D01*
G01X67835Y-101776D02*
Y-111776D01*
G01X64960Y-101776D02*
X70710D01*
G01X111485Y-77697D02*
Y-155856D01*
G01X183240Y-129040D02*
Y-122374D01*
G01Y-124207D02*
X183615Y-123373D01*
X184240Y-122707D01*
X185115Y-122374D01*
X185990Y-122707D01*
X186615Y-123373D01*
X186990Y-124207D01*
Y-129040D01*
G01Y-124207D02*
X187365Y-123373D01*
X187990Y-122707D01*
X188865Y-122374D01*
X189740Y-122707D01*
X190365Y-123373D01*
X190740Y-124373D01*
Y-129040D01*
G01X199240D02*
Y-122374D01*
G01Y-123540D02*
X198740Y-122873D01*
X197990Y-122540D01*
X197115Y-122374D01*
X196240Y-122707D01*
X195490Y-123373D01*
X194990Y-124373D01*
X194740Y-125707D01*
X194990Y-127040D01*
X195490Y-128040D01*
X196240Y-128707D01*
X197115Y-129040D01*
X197990Y-128873D01*
X198740Y-128373D01*
X199240Y-127707D01*
G01X205115Y-127874D02*
X205740Y-128540D01*
X206615Y-129040D01*
X207365D01*
X208115Y-128707D01*
X208615Y-128207D01*
X208865Y-127540D01*
X208740Y-126540D01*
X208240Y-126040D01*
X205990Y-125040D01*
X205490Y-123873D01*
X205740Y-123040D01*
X206240Y-122540D01*
X206990Y-122374D01*
X207740Y-122540D01*
X208490Y-123040D01*
G01X214865Y-129040D02*
Y-119040D01*
G01X218865Y-122374D02*
X214865Y-126207D01*
G01X216490Y-124707D02*
X219115Y-129040D01*
G01X225365Y-125707D02*
X228615D01*
G01X239740Y-119873D02*
X238990Y-119373D01*
X238115Y-119040D01*
X237115D01*
X235990Y-119540D01*
X235115Y-120373D01*
X234490Y-121373D01*
X233990Y-123040D01*
X233865Y-124540D01*
X234115Y-126040D01*
X234490Y-127040D01*
X235240Y-128040D01*
X236115Y-128707D01*
X236990Y-129040D01*
X237865D01*
X238740Y-128707D01*
X239490Y-128207D01*
X240115Y-127540D01*
G01X244615Y-120707D02*
X245365Y-119707D01*
X246240Y-119207D01*
X247240Y-119040D01*
X248490Y-119373D01*
X249365Y-120207D01*
X249615Y-121207D01*
X249490Y-122207D01*
X248990Y-123040D01*
X246490Y-124707D01*
X245365Y-125873D01*
X244615Y-127540D01*
X244365Y-129040D01*
X249615D01*
G01X255365Y-125707D02*
X258615D01*
G01X264490Y-129040D02*
Y-119040D01*
X267615D01*
X268615Y-119540D01*
X269240Y-120207D01*
X269490Y-121540D01*
X269240Y-122873D01*
X268490Y-123707D01*
X267615Y-124207D01*
X264490D01*
G01X267615D02*
X269490Y-129040D01*
G01X275115Y-124540D02*
X279115D01*
X278740Y-123373D01*
X278115Y-122707D01*
X277240Y-122374D01*
X276365Y-122540D01*
X275615Y-123040D01*
X275115Y-124207D01*
X274865Y-125207D01*
Y-126207D01*
X275115Y-127207D01*
X275740Y-128207D01*
X276490Y-128873D01*
X277365Y-129040D01*
X278240Y-128707D01*
X279115Y-127707D01*
G01X284740Y-122374D02*
X286990Y-129040D01*
X289240Y-122374D01*
G01X299740Y-119873D02*
X298990Y-119373D01*
X298115Y-119040D01*
X297115D01*
X295990Y-119540D01*
X295115Y-120373D01*
X294490Y-121373D01*
X293990Y-123040D01*
X293865Y-124540D01*
X294115Y-126040D01*
X294490Y-127040D01*
X295240Y-128040D01*
X296115Y-128707D01*
X296990Y-129040D01*
X297865D01*
X298740Y-128707D01*
X299490Y-128207D01*
X300115Y-127540D01*
G01X185385Y-84910D02*
X185135Y-86243D01*
G01Y-83577D02*
X185385Y-84910D01*
G01X184385Y-82410D02*
X185135Y-83577D01*
G01X194885Y-88410D02*
X190885D01*
G01X189760Y-91910D02*
X192885Y-81910D01*
G01X183385Y-87744D02*
X180385D01*
G01X184510Y-87243D02*
X183385Y-87744D01*
G01X185135Y-86243D02*
X184510Y-87243D01*
G01X180385Y-91910D02*
Y-81910D01*
G01X183385D02*
X184385Y-82410D01*
G01X180385Y-81910D02*
X183385D01*
G01X192885D02*
X196010Y-91910D01*
G01X203850Y-138800D02*
Y-151300D01*
G01X200285Y-138800D02*
X207415D01*
G01X216250Y-151300D02*
X215010Y-151092D01*
X213925Y-150259D01*
X212995Y-149008D01*
X212375Y-147550D01*
X212065Y-145883D01*
Y-144217D01*
X212375Y-142550D01*
X212995Y-141092D01*
X213925Y-139842D01*
X215010Y-139008D01*
X216250Y-138800D01*
X217490Y-139008D01*
X218575Y-139842D01*
X219505Y-141092D01*
X220125Y-142550D01*
X220435Y-144217D01*
Y-145883D01*
X220125Y-147550D01*
X219505Y-149008D01*
X218575Y-150259D01*
X217490Y-151092D01*
X216250Y-151300D01*
G01X225550D02*
Y-138800D01*
X229270D01*
X230510Y-139425D01*
X231440Y-140883D01*
X231750Y-142550D01*
X231440Y-144217D01*
X230665Y-145467D01*
X229270Y-146092D01*
X225550D01*
G01X236400Y-155467D02*
X245700D01*
G01X250350Y-138800D02*
Y-151300D01*
X256550D01*
G01X261975D02*
X265850Y-138800D01*
X269725Y-151300D01*
G01X268330Y-146925D02*
X263370D01*
G01X278250Y-151300D02*
Y-145675D01*
X275150Y-138800D01*
G01X281350D02*
X278250Y-145675D01*
G01X293750Y-151300D02*
X287550D01*
Y-138800D01*
X293750D01*
G01X291270Y-144842D02*
X287550D01*
G01X299950Y-151300D02*
Y-138800D01*
X303825D01*
X305065Y-139425D01*
X305840Y-140258D01*
X306150Y-141925D01*
X305840Y-143592D01*
X304910Y-144633D01*
X303825Y-145258D01*
X299950D01*
G01X303825D02*
X306150Y-151300D01*
G01X205135Y-85743D02*
X204385Y-86577D01*
G01X205385Y-84410D02*
X205135Y-85743D01*
G01Y-83077D02*
X205385Y-84410D01*
G01X203510Y-87077D02*
X205385Y-91910D01*
G01X203510Y-87077D02*
X200385D01*
G01X204385Y-86577D02*
X203510Y-87077D01*
G01X200385Y-91910D02*
Y-81910D01*
G01X204510Y-82410D02*
X205135Y-83077D01*
G01X203510Y-81910D02*
X204510Y-82410D01*
G01X200385Y-81910D02*
X203510D01*
G01X228260Y-108143D02*
X225135D01*
G01Y-102976D02*
X228260D01*
G01X225135Y-112976D02*
Y-102976D01*
G01X212885Y-81910D02*
Y-91910D01*
G01X210010Y-81910D02*
X215760D01*
G01X238135Y-107809D02*
X235135D01*
G01Y-102976D02*
X240135D01*
G01X235135Y-112976D02*
Y-102976D01*
G01X240135Y-112976D02*
X235135D01*
G01X229885Y-106809D02*
X229135Y-107643D01*
G01X230135Y-105476D02*
X229885Y-106809D01*
G01Y-104143D02*
X230135Y-105476D01*
G01X229260Y-103476D02*
X229885Y-104143D01*
G01X228260Y-108143D02*
X230135Y-112976D01*
G01X229135Y-107643D02*
X228260Y-108143D01*
G01Y-102976D02*
X229260Y-103476D01*
G01X240635Y-90577D02*
X241635Y-91577D01*
G01X240135Y-89077D02*
X240635Y-90577D01*
G01X240135Y-81910D02*
Y-89077D01*
G01X235760Y-91910D02*
Y-81910D01*
G01X230010D02*
X235760Y-91910D01*
G01X230010D02*
Y-81910D01*
G01X260135Y-102976D02*
X257635Y-108476D01*
G01D02*
X255135Y-102976D01*
G01X257635Y-112976D02*
Y-108476D01*
G01X245135Y-112976D02*
X250135D01*
G01X245135Y-102976D02*
Y-112976D01*
G01X256135Y-81910D02*
Y-91910D01*
G01X252885Y-90243D02*
X256135Y-81910D01*
G01X249635D02*
X252885Y-90243D01*
G01X249635Y-91910D02*
Y-81910D01*
G01X245635Y-89077D02*
Y-81910D01*
G01X245135Y-90577D02*
X245635Y-89077D01*
G01X244135Y-91577D02*
X245135Y-90577D01*
G01X242885Y-91910D02*
X244135Y-91577D01*
G01X241635D02*
X242885Y-91910D01*
G01X265010Y-84077D02*
X264760Y-83077D01*
G01Y-85244D02*
X265010Y-84077D01*
G01X264385Y-86077D02*
X264760Y-85244D01*
G01X263885Y-86577D02*
X264385Y-86077D01*
G01X273385Y-86743D02*
X270385D01*
G01Y-91910D02*
Y-81910D01*
G01X275385Y-91910D02*
X270385D01*
G01X264760Y-86910D02*
X263885Y-86577D01*
G01X265510Y-87910D02*
X264760Y-86910D01*
G01X265760Y-89077D02*
X265510Y-87910D01*
G01Y-90243D02*
X265760Y-89077D01*
G01X265010Y-91243D02*
X265510Y-90243D01*
G01X264135Y-91910D02*
X265010Y-91243D01*
G01X263885Y-86577D02*
X260010D01*
G01Y-91910D02*
X264135D01*
G01X260010Y-81910D02*
Y-91910D01*
G01X270385Y-81910D02*
X275385D01*
G01X264260Y-82410D02*
X263385Y-81910D01*
G01X264760Y-83077D02*
X264260Y-82410D01*
G01X263385Y-81910D02*
X260010D01*
G01X290135Y-102976D02*
X287635Y-108476D01*
G01D02*
X285135Y-102976D01*
G01X287635Y-112976D02*
Y-108476D01*
G01X279010Y-103309D02*
X279760Y-104143D01*
G01X278135Y-102976D02*
X279010Y-103309D01*
G01X277260Y-102976D02*
X278135D01*
G01X278260Y-107643D02*
X276760Y-107309D01*
G01X279385Y-108309D02*
X278260Y-107643D01*
G01X280010Y-109310D02*
X279385Y-108309D01*
G01X280260Y-110476D02*
X280010Y-109310D01*
G01X279885Y-111643D02*
X280260Y-110476D01*
G01X279135Y-112476D02*
X279885Y-111643D01*
G01X278135Y-112976D02*
X279135Y-112476D01*
G01X277135Y-112976D02*
X278135D01*
G01X276385Y-103476D02*
X277260Y-102976D01*
G01X275760Y-104309D02*
X276385Y-103476D01*
G01X275510Y-105476D02*
X275760Y-104309D01*
G01X275885Y-106643D02*
X275510Y-105476D01*
G01X276760Y-107309D02*
X275885Y-106643D01*
G01X276010Y-112476D02*
X277135Y-112976D01*
G01X275010Y-111643D02*
X276010Y-112476D01*
G01X285135Y-85743D02*
X284385Y-86577D01*
G01X285385Y-84410D02*
X285135Y-85743D01*
G01Y-83077D02*
X285385Y-84410D01*
G01X283510Y-87077D02*
X285385Y-91910D01*
G01X283510Y-87077D02*
X280385D01*
G01X284385Y-86577D02*
X283510Y-87077D01*
G01X280385Y-91910D02*
Y-81910D01*
G01X284510Y-82410D02*
X285135Y-83077D01*
G01X283510Y-81910D02*
X284510Y-82410D01*
G01X280385Y-81910D02*
X283510D01*
G01X299010Y-103309D02*
X299760Y-104143D01*
G01X298135Y-102976D02*
X299010Y-103309D01*
G01X297260Y-102976D02*
X298135D01*
G01X296385Y-103476D02*
X297260Y-102976D01*
G01X295760Y-104309D02*
X296385Y-103476D01*
G01X295510Y-105476D02*
X295760Y-104309D01*
G01X295885Y-106643D02*
X295510Y-105476D01*
G01X296760Y-107309D02*
X295885Y-106643D01*
G01X298260Y-107643D02*
X296760Y-107309D01*
G01X299385Y-108309D02*
X298260Y-107643D01*
G01X300010Y-109310D02*
X299385Y-108309D01*
G01X300260Y-110476D02*
X300010Y-109310D01*
G01X299885Y-111643D02*
X300260Y-110476D01*
G01X299135Y-112476D02*
X299885Y-111643D01*
G01X298135Y-112976D02*
X299135Y-112476D01*
G01X297135Y-112976D02*
X298135D01*
G01X296010Y-112476D02*
X297135Y-112976D01*
G01X295010Y-111643D02*
X296010Y-112476D01*
G01X304760Y-85244D02*
X301010Y-91910D01*
G01Y-85244D02*
X304760Y-91910D01*
G01X293135Y-87577D02*
X292885Y-87744D01*
G01X293135Y-87243D02*
Y-87577D01*
G01X292885Y-87077D02*
X293135Y-87243D01*
G01Y-92077D02*
X292885Y-92243D01*
G01X293135Y-91743D02*
Y-92077D01*
G01X292885Y-91577D02*
X293135Y-91743D01*
G01X292635Y-87243D02*
X292885Y-87077D01*
G01X292635Y-87577D02*
Y-87243D01*
G01X292885Y-87744D02*
X292635Y-87577D01*
G01Y-91743D02*
X292885Y-91577D01*
G01X292635Y-92077D02*
Y-91743D01*
G01X292885Y-92243D02*
X292635Y-92077D01*
G01X324760Y-85244D02*
X321010Y-91910D01*
G01Y-85244D02*
X324760Y-91910D01*
G01X314760Y-85244D02*
X311010Y-91910D01*
G01Y-85244D02*
X314760Y-91910D01*
G01X334760Y-85244D02*
X331010Y-91910D01*
G01Y-85244D02*
X334760Y-91910D01*
G01X341010Y-85244D02*
X344760Y-91910D01*
G01Y-85244D02*
X341010Y-91910D01*
G01X600009Y-588311D02*
X1110245D01*
G01X600009Y-484466D02*
Y-588311D01*
G01Y-533193D02*
X1110245D01*
G01X600009Y-484466D02*
X1110485Y-484666D01*
G01X619335Y-503166D02*
Y-515666D01*
G01X615770Y-503166D02*
X622900D01*
G01X629875D02*
X633595D01*
G01X631735D02*
Y-515666D01*
G01X629875D02*
X633595D01*
G01X640570Y-503166D02*
X647700D01*
G01X644135D02*
Y-515666D01*
G01X653435Y-503166D02*
Y-515666D01*
G01D02*
X659635D01*
G01X670585Y-562200D02*
Y-552200D01*
G01D02*
X673585D01*
G01D02*
X674585Y-552700D01*
G01D02*
X675335Y-553867D01*
G01D02*
X675585Y-555200D01*
G01D02*
X675335Y-556533D01*
G01D02*
X674710Y-557533D01*
G01D02*
X673585Y-558034D01*
G01D02*
X670585D01*
G01X672035Y-515666D02*
X665835D01*
G01D02*
Y-503166D01*
G01D02*
X672035D01*
G01X669555Y-509208D02*
X665835D01*
G01X679960Y-562200D02*
X683085Y-552200D01*
G01D02*
X686210Y-562200D01*
G01X685085Y-558700D02*
X681085D01*
G01X690585Y-562200D02*
Y-552200D01*
G01D02*
X693710D01*
G01Y-557367D02*
X690585D01*
G01X681335Y-516083D02*
X681025Y-515874D01*
G01D02*
Y-515458D01*
G01D02*
X681335Y-515249D01*
G01D02*
X681645Y-515458D01*
G01D02*
Y-515874D01*
G01D02*
X681335Y-516083D01*
G01Y-510458D02*
X681025Y-510249D01*
G01D02*
Y-509833D01*
G01D02*
X681335Y-509624D01*
G01D02*
X681645Y-509833D01*
G01D02*
Y-510249D01*
G01D02*
X681335Y-510458D01*
G01X693710Y-552200D02*
X694710Y-552700D01*
G01D02*
X695335Y-553367D01*
G01D02*
X695585Y-554700D01*
G01D02*
X695335Y-556033D01*
G01D02*
X694585Y-556867D01*
G01D02*
X693710Y-557367D01*
G01D02*
X695585Y-562200D01*
G01X703085Y-552200D02*
Y-562200D01*
G01X700210Y-552200D02*
X705960D01*
G01X701485Y-484466D02*
Y-532625D01*
G01X720210Y-562200D02*
Y-552200D01*
G01D02*
X725960Y-562200D01*
G01D02*
Y-552200D01*
G01X730335D02*
Y-559367D01*
G01D02*
X730835Y-560867D01*
G01D02*
X731835Y-561867D01*
G01D02*
X733085Y-562200D01*
G01D02*
X734335Y-561867D01*
G01D02*
X735335Y-560867D01*
G01D02*
X735835Y-559367D01*
G01D02*
Y-552200D01*
G01X739835Y-562200D02*
Y-552200D01*
G01D02*
X743085Y-560533D01*
G01D02*
X746335Y-552200D01*
G01D02*
Y-562200D01*
G01X754085Y-556867D02*
X754585Y-556367D01*
G01D02*
X754960Y-555534D01*
G01D02*
X755210Y-554367D01*
G01D02*
X754960Y-553367D01*
G01D02*
X754460Y-552700D01*
G01D02*
X753585Y-552200D01*
G01D02*
X750210D01*
G01D02*
Y-562200D01*
G01D02*
X754335D01*
G01D02*
X755210Y-561533D01*
G01D02*
X755710Y-560533D01*
G01D02*
X755960Y-559367D01*
G01D02*
X755710Y-558200D01*
G01D02*
X754960Y-557200D01*
G01D02*
X754085Y-556867D01*
G01D02*
X750210D01*
G01X765585Y-562200D02*
X760585D01*
G01D02*
Y-552200D01*
G01D02*
X765585D01*
G01X763585Y-557033D02*
X760585D01*
G01X770585Y-562200D02*
Y-552200D01*
G01D02*
X773710D01*
G01Y-557367D02*
X770585D01*
G01X773710Y-552200D02*
X774710Y-552700D01*
G01D02*
X775335Y-553367D01*
G01D02*
X775585Y-554700D01*
G01D02*
X775335Y-556033D01*
G01D02*
X774585Y-556867D01*
G01D02*
X773710Y-557367D01*
G01D02*
X775585Y-562200D01*
G01X783085Y-562533D02*
X782835Y-562367D01*
G01D02*
Y-562033D01*
G01D02*
X783085Y-561867D01*
G01D02*
X783335Y-562033D01*
G01D02*
Y-562367D01*
G01D02*
X783085Y-562533D01*
G01Y-558034D02*
X782835Y-557867D01*
G01D02*
Y-557533D01*
G01D02*
X783085Y-557367D01*
G01D02*
X783335Y-557533D01*
G01D02*
Y-557867D01*
G01D02*
X783085Y-558034D01*
G01X791210Y-555534D02*
X794960Y-562200D01*
G01Y-555534D02*
X791210Y-562200D01*
G01X801210Y-555534D02*
X804960Y-562200D01*
G01Y-555534D02*
X801210Y-562200D01*
G01X811210Y-555534D02*
X814960Y-562200D01*
G01Y-555534D02*
X811210Y-562200D01*
G01X821210Y-555534D02*
X824960Y-562200D01*
G01Y-555534D02*
X821210Y-562200D01*
G01X831210Y-555534D02*
X834960Y-562200D01*
G01Y-555534D02*
X831210Y-562200D01*
G01X825603Y-515061D02*
Y-506728D01*
G01Y-509019D02*
X826068Y-507978D01*
X826843Y-507144D01*
X827928Y-506728D01*
X829013Y-507144D01*
X829788Y-507978D01*
X830253Y-509019D01*
Y-515061D01*
G01Y-509019D02*
X830718Y-507978D01*
X831493Y-507144D01*
X832578Y-506728D01*
X833663Y-507144D01*
X834438Y-507978D01*
X834903Y-509228D01*
Y-515061D01*
G01X845443D02*
Y-506728D01*
G01Y-508186D02*
X844823Y-507353D01*
X843893Y-506936D01*
X842808Y-506728D01*
X841723Y-507144D01*
X840793Y-507978D01*
X840173Y-509228D01*
X839863Y-510894D01*
X840173Y-512561D01*
X840793Y-513811D01*
X841723Y-514644D01*
X842808Y-515061D01*
X843893Y-514853D01*
X844823Y-514228D01*
X845443Y-513395D01*
G01X852728Y-513603D02*
X853503Y-514436D01*
X854588Y-515061D01*
X855518D01*
X856448Y-514644D01*
X857068Y-514020D01*
X857378Y-513186D01*
X857223Y-511936D01*
X856603Y-511311D01*
X853813Y-510061D01*
X853193Y-508603D01*
X853503Y-507561D01*
X854123Y-506936D01*
X855053Y-506728D01*
X855983Y-506936D01*
X856913Y-507561D01*
G01X864818Y-515061D02*
Y-502561D01*
G01X869778Y-506728D02*
X864818Y-511519D01*
G01X866833Y-509644D02*
X870088Y-515061D01*
G01X877838Y-510894D02*
X881868D01*
G01X895663Y-503603D02*
X894733Y-502978D01*
X893648Y-502561D01*
X892408D01*
X891013Y-503186D01*
X889928Y-504228D01*
X889153Y-505478D01*
X888533Y-507561D01*
X888378Y-509436D01*
X888688Y-511311D01*
X889153Y-512561D01*
X890083Y-513811D01*
X891168Y-514644D01*
X892253Y-515061D01*
X893338D01*
X894423Y-514644D01*
X895353Y-514020D01*
X896128Y-513186D01*
G01X901708Y-504644D02*
X902638Y-503395D01*
X903723Y-502769D01*
X904963Y-502561D01*
X906513Y-502978D01*
X907598Y-504019D01*
X907908Y-505269D01*
X907753Y-506520D01*
X907133Y-507561D01*
X904033Y-509644D01*
X902638Y-511103D01*
X901708Y-513186D01*
X901398Y-515061D01*
X907908D01*
G01X915038Y-510894D02*
X919068D01*
G01X926353Y-515061D02*
Y-502561D01*
X930228D01*
X931468Y-503186D01*
X932243Y-504019D01*
X932553Y-505686D01*
X932243Y-507353D01*
X931313Y-508394D01*
X930228Y-509019D01*
X926353D01*
G01X930228D02*
X932553Y-515061D01*
G01X939528Y-509436D02*
X944488D01*
X944023Y-507978D01*
X943248Y-507144D01*
X942163Y-506728D01*
X941078Y-506936D01*
X940148Y-507561D01*
X939528Y-509019D01*
X939218Y-510270D01*
Y-511519D01*
X939528Y-512769D01*
X940303Y-514020D01*
X941233Y-514853D01*
X942318Y-515061D01*
X943403Y-514644D01*
X944488Y-513395D01*
G01X951463Y-506728D02*
X954253Y-515061D01*
X957043Y-506728D01*
G01X970063Y-503603D02*
X969133Y-502978D01*
X968048Y-502561D01*
X966808D01*
X965413Y-503186D01*
X964328Y-504228D01*
X963553Y-505478D01*
X962933Y-507561D01*
X962778Y-509436D01*
X963088Y-511311D01*
X963553Y-512561D01*
X964483Y-513811D01*
X965568Y-514644D01*
X966653Y-515061D01*
X967738D01*
X968823Y-514644D01*
X969753Y-514020D01*
X970528Y-513186D01*
G01X1000009Y-533193D02*
Y-588311D01*
G01X1009985Y-560433D02*
Y-547933D01*
G01X1014945Y-553766D02*
X1013860Y-554391D01*
G01D02*
X1009985D01*
G01X1013860D02*
X1016185Y-560433D01*
G01X1009985Y-547933D02*
X1013860D01*
G01D02*
X1015100Y-548558D01*
G01X1015875Y-549391D02*
X1016185Y-551058D01*
G01D02*
X1015875Y-552725D01*
G01D02*
X1014945Y-553766D01*
G01X1028585Y-560433D02*
X1022385D01*
G01D02*
Y-547933D01*
G01X1026105Y-553975D02*
X1022385D01*
G01X1015100Y-548558D02*
X1015875Y-549391D01*
G01X1022385Y-547933D02*
X1028585D01*
G01X1034010D02*
X1037885Y-560433D01*
G01D02*
X1041760Y-547933D01*
G01X1062685Y-560850D02*
X1062375Y-560641D01*
G01D02*
Y-560225D01*
G01D02*
X1062685Y-560016D01*
G01D02*
X1062995Y-560225D01*
G01Y-560641D02*
X1062685Y-560850D01*
G01Y-555225D02*
X1062375Y-555016D01*
G01D02*
Y-554600D01*
G01D02*
X1062685Y-554391D01*
G01D02*
X1062995Y-554600D01*
G01Y-555016D02*
X1062685Y-555225D01*
G01X1079210Y-548732D02*
X1078280Y-548107D01*
X1077195Y-547690D01*
X1075955D01*
X1074560Y-548315D01*
X1073475Y-549357D01*
X1072700Y-550607D01*
X1072080Y-552690D01*
X1071925Y-554565D01*
X1072235Y-556440D01*
X1072700Y-557690D01*
X1073630Y-558940D01*
X1074715Y-559773D01*
X1075800Y-560190D01*
X1076885D01*
X1077970Y-559773D01*
X1078900Y-559149D01*
X1079675Y-558315D01*
G01X1062995Y-560225D02*
Y-560641D01*
G01Y-554600D02*
Y-555016D01*
G01X1110245Y-422957D02*
Y-588311D01*
G01X1130302Y-608335D02*
Y560956D01*
G01X10470Y79227D02*
X7137D01*
G01X8053D02*
X7637Y79417D01*
X7303Y79734D01*
X7137Y80177D01*
X7303Y80620D01*
X7637Y80937D01*
X8053Y81127D01*
X10470D01*
G01X8053D02*
X7637Y81317D01*
X7303Y81634D01*
X7137Y82077D01*
X7303Y82520D01*
X7637Y82837D01*
X8137Y83027D01*
X10470D01*
G01Y86867D02*
X7137D01*
G01X7720D02*
X7387Y86614D01*
X7220Y86234D01*
X7137Y85790D01*
X7303Y85347D01*
X7637Y84967D01*
X8137Y84714D01*
X8803Y84587D01*
X9470Y84714D01*
X9970Y84967D01*
X10303Y85347D01*
X10470Y85790D01*
X10387Y86234D01*
X10137Y86614D01*
X9803Y86867D01*
G01X9887Y89377D02*
X10220Y89694D01*
X10470Y90137D01*
Y90517D01*
X10303Y90897D01*
X10053Y91150D01*
X9720Y91277D01*
X9220Y91214D01*
X8970Y90960D01*
X8470Y89820D01*
X7887Y89567D01*
X7470Y89694D01*
X7220Y89947D01*
X7137Y90327D01*
X7220Y90707D01*
X7470Y91087D01*
G01X10470Y93850D02*
X5470D01*
G01X7137Y95877D02*
X9053Y93850D01*
G01X8303Y94674D02*
X10470Y96004D01*
G01X8803Y98704D02*
Y100350D01*
G01X5887Y105520D02*
X5637Y105140D01*
X5470Y104697D01*
Y104190D01*
X5720Y103620D01*
X6137Y103177D01*
X6637Y102860D01*
X7470Y102607D01*
X8220Y102544D01*
X8970Y102670D01*
X9470Y102860D01*
X9970Y103240D01*
X10303Y103684D01*
X10470Y104127D01*
Y104570D01*
X10303Y105014D01*
X10053Y105394D01*
X9720Y105710D01*
G01X6303Y107524D02*
X5803Y107904D01*
X5553Y108347D01*
X5470Y108854D01*
X5637Y109487D01*
X6053Y109930D01*
X6553Y110057D01*
X7053Y109994D01*
X7470Y109740D01*
X8303Y108474D01*
X8887Y107904D01*
X9720Y107524D01*
X10470Y107397D01*
Y110057D01*
G01X8803Y112504D02*
Y114150D01*
G01X10470Y116660D02*
X5470D01*
Y118244D01*
X5720Y118750D01*
X6053Y119067D01*
X6720Y119194D01*
X7387Y119067D01*
X7803Y118687D01*
X8053Y118244D01*
Y116660D01*
G01Y118244D02*
X10470Y119194D01*
G01X8220Y121577D02*
Y123604D01*
X7637Y123414D01*
X7303Y123097D01*
X7137Y122654D01*
X7220Y122210D01*
X7470Y121830D01*
X8053Y121577D01*
X8553Y121450D01*
X9053D01*
X9553Y121577D01*
X10053Y121894D01*
X10387Y122274D01*
X10470Y122717D01*
X10303Y123160D01*
X9803Y123604D01*
G01X7137Y125987D02*
X10470Y127127D01*
X7137Y128267D01*
G01X5887Y133120D02*
X5637Y132740D01*
X5470Y132297D01*
Y131790D01*
X5720Y131220D01*
X6137Y130777D01*
X6637Y130460D01*
X7470Y130207D01*
X8220Y130144D01*
X8970Y130270D01*
X9470Y130460D01*
X9970Y130840D01*
X10303Y131284D01*
X10470Y131727D01*
Y132170D01*
X10303Y132614D01*
X10053Y132994D01*
X9720Y133310D01*
G01X136315Y41375D02*
X140215D01*
X141280Y40310D01*
X148521D01*
X151270Y37561D01*
Y13951D01*
X145359Y8040D01*
X115791D01*
X112811Y11020D01*
X98541D01*
X89830Y19731D01*
Y35621D01*
X60405Y65045D01*
Y87906D01*
X4940Y143371D01*
Y187779D01*
X9060Y191899D01*
Y240848D01*
X11919Y243707D01*
X19380D01*
X20100Y244427D01*
Y245427D01*
G01X136315Y38225D02*
X140525D01*
X141310Y39010D01*
X143266D01*
X143793Y38483D01*
Y36522D01*
X144320Y35995D01*
X145066D01*
X145593Y36522D01*
Y38283D01*
X146320Y39010D01*
X147982D01*
X149970Y37022D01*
Y14490D01*
X144820Y9340D01*
X116330D01*
X113350Y12320D01*
X99080D01*
X91130Y20270D01*
Y36160D01*
X61705Y65584D01*
Y88445D01*
X6240Y143910D01*
Y187240D01*
X10360Y191360D01*
Y240309D01*
X12458Y242407D01*
X13902D01*
X14429Y241880D01*
Y240147D01*
X14956Y239620D01*
X15702D01*
X16229Y240147D01*
Y241880D01*
X16756Y242407D01*
X19380D01*
X20100Y241687D01*
Y241427D01*
G01X17200Y205500D02*
X16300Y204600D01*
Y203430D01*
X16900Y202830D01*
X31931D01*
X34570Y205469D01*
Y230129D01*
X40021Y235580D01*
X65029D01*
X79089Y221520D01*
X141979D01*
X146440Y217059D01*
Y185971D01*
X144287Y183818D01*
X141915D01*
X140990Y182893D01*
X136315D01*
G01X13000Y205500D02*
X13275Y205775D01*
X14400D01*
X15000Y205175D01*
Y202891D01*
X16361Y201530D01*
X32470D01*
X35870Y204930D01*
Y229590D01*
X40560Y234280D01*
X64490D01*
X78550Y220220D01*
X141440D01*
X145140Y216520D01*
Y186510D01*
X143748Y185118D01*
X141915D01*
X140990Y186043D01*
X136315D01*
G01X17885Y216951D02*
X18920D01*
X19520Y216351D01*
Y214895D01*
X18135Y213510D01*
X15811D01*
X14450Y212149D01*
Y210350D01*
X13000Y208900D01*
G01X17200D02*
X15750Y210350D01*
Y211610D01*
X16350Y212210D01*
X18674D01*
X20820Y214356D01*
Y216186D01*
X21585Y216951D01*
G01X24350Y221200D02*
X25550Y222400D01*
Y231820D01*
X32040Y238310D01*
X77030D01*
X89940Y225400D01*
X108010D01*
X111840Y229230D01*
Y234560D01*
X110612Y235788D01*
X108948D01*
X108023Y234863D01*
X104031D01*
G01X28050Y221200D02*
X26850Y222400D01*
Y231281D01*
X32579Y237010D01*
X76491D01*
X89401Y224100D01*
X108549D01*
X113140Y228691D01*
Y235099D01*
X111151Y237088D01*
X109162D01*
X108237Y238013D01*
X104031D01*
G01X23500Y241427D02*
X24850Y242777D01*
X27275D01*
X27995Y242057D01*
Y241583D01*
G01X23500Y245427D02*
X24850Y244077D01*
X27275D01*
X27995Y244797D01*
Y245283D01*
G01X104031Y49250D02*
X99356D01*
X98431Y48325D01*
X97055D01*
X81800Y63580D01*
Y175900D01*
X54977Y202723D01*
X44980D01*
X43780Y203923D01*
G01X104031Y46100D02*
X99356D01*
X98431Y47025D01*
X96516D01*
X80500Y63041D01*
Y175361D01*
X54438Y201423D01*
X44980D01*
X43780Y200223D01*
G01X104031Y206518D02*
X99356D01*
X98431Y205593D01*
X97292D01*
X97279Y205580D01*
X89541D01*
X62321Y232800D01*
X42941D01*
X39160Y229019D01*
Y212201D01*
X44628Y206733D01*
X47202D01*
X47285Y206650D01*
X47473D01*
X47990Y206133D01*
G01X104031Y58700D02*
X99356D01*
X98431Y59625D01*
X96927D01*
X85690Y70862D01*
Y178737D01*
X46466Y217961D01*
Y219100D01*
X45266Y220300D01*
G01X47990Y209833D02*
X48530D01*
X49130Y209233D01*
Y208383D01*
X48779Y208032D01*
Y208033D01*
X45167D01*
X40460Y212740D01*
Y228480D01*
X43480Y231500D01*
X61782D01*
X89002Y204280D01*
X97818D01*
X97831Y204293D01*
X98431D01*
X99356Y203368D01*
X104031D01*
G01Y61850D02*
X99356D01*
X98431Y60925D01*
X97466D01*
X86990Y71401D01*
Y179276D01*
X47766Y218500D01*
Y219100D01*
X48966Y220300D01*
G01X43800Y227663D02*
X44993Y226470D01*
X49558D01*
X92670Y183358D01*
Y97581D01*
X97831Y92420D01*
X98431D01*
X99356Y93345D01*
X104031D01*
G01X43800Y223963D02*
X45007Y225170D01*
X49019D01*
X91370Y182819D01*
Y97042D01*
X97292Y91120D01*
X98431D01*
X99356Y90195D01*
X104031D01*
G01X54046Y226544D02*
X55742D01*
X56547Y225739D01*
X56652D01*
X90698Y191693D01*
X98431D01*
X99356Y190768D01*
X104031D01*
G01X56663Y229161D02*
Y227463D01*
X57087Y227039D01*
X57191D01*
X91237Y192993D01*
X98431D01*
X99356Y193918D01*
X104031D01*
M02*
