G04 ================== begin FILE IDENTIFICATION RECORD ==================*
G04 Layout Name:  E:/Mask Board/WORK/16-05-22/mask-C2-RevC.brd*
G04 Film Name:    mask-C2-RevC_PMT.gbr*
G04 File Format:  Gerber RS274X*
G04 File Origin:  Cadence Allegro 16.6-P004*
G04 Origin Date:  Mon May 16 22:50:50 2022*
G04 *
G04 Layer:  PIN/PASTEMASK_TOP*
G04 Layer:  PACKAGE GEOMETRY/PASTEMASK_TOP*
G04 Layer:  DRAWING FORMAT/OUTLINE_DATA*
G04 Layer:  BOARD GEOMETRY/OUTLINE*
G04 *
G04 Offset:    (0.00 0.00)*
G04 Mirror:    No*
G04 Mode:      Positive*
G04 Rotation:  0*
G04 FullContactRelief:  No*
G04 UndefLineWidth:     6.00*
G04 ================== end FILE IDENTIFICATION RECORD ====================*
%FSLAX55Y55*MOIN*%
%IR0*IPPOS*OFA0.00000B0.00000*MIA0B0*SFA1.00000B1.00000*%
%ADD16R,.126X.091*%
%ADD14R,.02X.02*%
%ADD22R,.031X.031*%
%ADD12R,.0244X.0244*%
%ADD11C,.03937*%
%ADD21R,.09842X.12992*%
%ADD15R,.07874X.14764*%
%ADD20R,.07087X.00787*%
%ADD10R,.024X.022*%
%ADD13R,.022X.024*%
%ADD17R,.079X.023*%
%ADD19C,.2087*%
%ADD18R,.11811X.18898*%
%ADD23C,.01*%
%ADD24C,.01969*%
%ADD25C,.005*%
%ADD26C,.006*%
%ADD27C,.00787*%
G75*
%LPD*%
G75*
G54D10*
X13000Y205500D03*
X17200D03*
X13000Y208900D03*
X17200D03*
X46400Y185700D03*
Y189100D03*
X51000Y185700D03*
Y189100D03*
G54D20*
X358089Y142047D03*
Y140079D03*
Y138110D03*
Y136142D03*
Y157795D03*
Y155827D03*
Y153858D03*
Y151890D03*
Y149921D03*
Y147953D03*
Y145984D03*
Y144016D03*
Y173543D03*
Y171575D03*
Y169606D03*
Y167638D03*
Y165669D03*
Y163701D03*
Y161732D03*
Y159764D03*
Y189291D03*
Y187323D03*
Y185354D03*
Y183386D03*
Y181417D03*
Y179449D03*
Y177480D03*
Y175512D03*
Y193228D03*
Y191260D03*
X381711Y136142D03*
Y138110D03*
Y140079D03*
Y142047D03*
Y144016D03*
Y145984D03*
Y147953D03*
Y149921D03*
Y151890D03*
Y153858D03*
Y155827D03*
Y157795D03*
Y159764D03*
Y161732D03*
Y163701D03*
Y165669D03*
Y167638D03*
Y169606D03*
Y171575D03*
Y173543D03*
Y175512D03*
Y177480D03*
Y179449D03*
Y181417D03*
Y183386D03*
Y185354D03*
Y187323D03*
Y189291D03*
Y191260D03*
Y193228D03*
G54D11*
X28000Y12150D03*
X418000D03*
X422290Y247680D03*
G54D21*
X353207Y241830D03*
X353347Y267390D03*
X380373Y241830D03*
X380513Y267390D03*
G54D12*
X25670Y196500D03*
X22130D03*
G54D13*
X23500Y245427D03*
X20100D03*
X23500Y241427D03*
X20100D03*
X395700Y140500D03*
X392300D03*
X395700Y145000D03*
X392300D03*
G54D22*
X409047Y34000D03*
X414953D03*
X409047Y62000D03*
X414953D03*
X409047Y48000D03*
X414953D03*
G54D23*
G01X-40415Y-77276D02*
Y-156476D01*
G01D02*
X387485D01*
G01X-40415Y-136476D02*
X462185D01*
G01X-40415Y-116476D02*
X462185D01*
G01X-40415Y-96476D02*
X462185D01*
G01Y-77276D02*
X-40415D01*
G01X387485Y-156476D02*
X462185D01*
G01D02*
Y-77276D01*
G54D14*
X43079Y169764D03*
X39579D03*
X43120Y263030D03*
Y259530D03*
G54D24*
G01X303531Y560956D02*
Y541271D01*
G01X1130302Y-23689D02*
X1110617D01*
G54D15*
X63600Y16114D03*
Y42886D03*
G54D25*
G01X-6200Y-275D02*
X-26200D01*
Y283133D01*
X-6200D01*
G01Y39972D02*
Y-275D01*
G01X0Y39972D02*
Y29972D01*
G01X-6200Y39972D02*
G02X0I3100J0D01*
G01Y59972D02*
G02X-6200I-3100J0D01*
G01X0D02*
Y69972D01*
G01X-6200Y59972D02*
Y229972D01*
G01X0Y239972D02*
Y229972D01*
G01X-6200Y239972D02*
Y229972D01*
G01Y239972D02*
G02X0I3100J0D01*
G01Y259972D02*
G02X-6200I-3100J0D01*
G01X0D02*
Y269972D01*
G01X-6200Y259972D02*
Y283133D01*
G01X430315Y39972D02*
Y29972D01*
G01Y39972D02*
G02X436515I3100J0D01*
G01Y59972D02*
G02X430315I-3100J0D01*
G01D02*
Y69972D01*
G01Y239972D02*
Y229972D01*
G01Y239972D02*
G02X436515I3100J0D01*
G01Y259972D02*
G02X430315I-3100J0D01*
G01D02*
Y269972D01*
G01X436515Y283133D02*
X456515D01*
Y-275D01*
X436515D01*
G01Y39972D02*
Y-275D01*
G01Y59972D02*
Y69972D01*
G01Y239972D02*
Y69972D01*
G01Y259972D02*
Y283133D01*
G54D16*
X106394Y4961D03*
Y120315D03*
Y149629D03*
Y264983D03*
G54D26*
G01X-523241Y-608335D02*
Y560956D01*
G01Y-608335D02*
X1130302D01*
G01X-523241Y560956D02*
X1130302D01*
G01X-34740Y-151376D02*
Y-141376D01*
G01X-31740Y-146209D02*
X-34740D01*
G01Y-141376D02*
X-29990D01*
G01X-31515Y-125977D02*
X-35390D01*
G01Y-131310D02*
X-31265D01*
G01X-35390Y-121310D02*
Y-131310D01*
G01X-32015Y-121310D02*
X-35390D01*
G01X-32415Y-101776D02*
X-31415Y-102276D01*
G01X-34915Y-101776D02*
X-32415D01*
G01Y-111776D02*
X-34915D01*
G01X-31415Y-111276D02*
X-32415Y-111776D01*
G01X-34915D02*
Y-101776D01*
G01X-32215Y-92576D02*
X-34715D01*
G01X-31215Y-92076D02*
X-32215Y-92576D01*
G01X-34715D02*
Y-82576D01*
G01X-32215D02*
X-31215Y-83076D01*
G01X-34715Y-82576D02*
X-32215D01*
G01X-23865Y-151376D02*
X-20865D01*
G01X-22365Y-141376D02*
Y-151376D01*
G01X-23865Y-141376D02*
X-20865D01*
G01X-21515Y-131143D02*
X-22515Y-131310D01*
G01X-20640Y-130477D02*
X-21515Y-131143D01*
G01X-19890Y-129477D02*
X-20640Y-130477D01*
G01X-19390Y-128310D02*
X-19890Y-129477D01*
G01X-19140Y-126977D02*
X-19390Y-128310D01*
G01X-19140Y-125643D02*
Y-126977D01*
G01X-19390Y-124310D02*
X-19140Y-125643D01*
G01X-19890Y-123143D02*
X-19390Y-124310D01*
G01X-20640Y-122143D02*
X-19890Y-123143D01*
G01X-21515Y-121477D02*
X-20640Y-122143D01*
G01X-22515Y-121310D02*
X-21515Y-121477D01*
G01X-23515D02*
X-22515Y-121310D01*
G01X-24390Y-122143D02*
X-23515Y-121477D01*
G01X-25140Y-123143D02*
X-24390Y-122143D01*
G01X-25640Y-124310D02*
X-25140Y-123143D01*
G01X-25890Y-125643D02*
X-25640Y-124310D01*
G01X-25890Y-126977D02*
Y-125643D01*
G01X-25640Y-128310D02*
X-25890Y-126977D01*
G01X-25140Y-129477D02*
X-25640Y-128310D01*
G01X-24390Y-130477D02*
X-25140Y-129477D01*
G01X-23515Y-131143D02*
X-24390Y-130477D01*
G01X-22515Y-131310D02*
X-23515Y-131143D01*
G01X-30640Y-126310D02*
X-31515Y-125977D01*
G01X-29890Y-127310D02*
X-30640Y-126310D01*
G01X-29640Y-128477D02*
X-29890Y-127310D01*
G01Y-129643D02*
X-29640Y-128477D01*
G01X-30390Y-130643D02*
X-29890Y-129643D01*
G01X-31265Y-131310D02*
X-30390Y-130643D01*
G01X-31140Y-121810D02*
X-32015Y-121310D01*
G01X-30640Y-122477D02*
X-31140Y-121810D01*
G01X-30390Y-123477D02*
X-30640Y-122477D01*
G01Y-124644D02*
X-30390Y-123477D01*
G01X-31015Y-125477D02*
X-30640Y-124644D01*
G01X-31515Y-125977D02*
X-31015Y-125477D01*
G01X-24665Y-101776D02*
X-19665D01*
G01X-21665Y-106609D02*
X-24665D01*
G01Y-111776D02*
Y-101776D01*
G01X-19665Y-111776D02*
X-24665D01*
G01X-30665Y-110610D02*
X-31415Y-111276D01*
G01X-30040Y-109609D02*
X-30665Y-110610D01*
G01X-29540Y-108443D02*
X-30040Y-109609D01*
G01X-29415Y-106776D02*
X-29540Y-108443D01*
G01Y-105110D02*
X-29415Y-106776D01*
G01X-30040Y-103943D02*
X-29540Y-105110D01*
G01X-30665Y-102943D02*
X-30040Y-103943D01*
G01X-31415Y-102276D02*
X-30665Y-102943D01*
G01X-19965Y-89076D02*
X-23965D01*
G01X-21965Y-82576D02*
X-18840Y-92576D01*
G01X-25090D02*
X-21965Y-82576D01*
G01X-29340Y-85910D02*
X-29215Y-87576D01*
G01X-29840Y-84743D02*
X-29340Y-85910D01*
G01X-30465Y-83743D02*
X-29840Y-84743D01*
G01X-31215Y-83076D02*
X-30465Y-83743D01*
G01Y-91410D02*
X-31215Y-92076D01*
G01X-29840Y-90409D02*
X-30465Y-91410D01*
G01X-29340Y-89243D02*
X-29840Y-90409D01*
G01X-29215Y-87576D02*
X-29340Y-89243D01*
G01X-2365Y-149709D02*
X885Y-141376D01*
G01X-5615D02*
X-2365Y-149709D01*
G01X-5615Y-151376D02*
Y-141376D01*
G01X-14865Y-151376D02*
X-9865D01*
G01X-14865Y-141376D02*
Y-151376D01*
G01X-1890Y-126477D02*
X-15Y-131310D01*
G01X-1890Y-126477D02*
X-5015D01*
G01X-1015Y-125977D02*
X-1890Y-126477D01*
G01X-265Y-125143D02*
X-1015Y-125977D01*
G01X-15Y-123810D02*
X-265Y-125143D01*
G01Y-122477D02*
X-15Y-123810D01*
G01X-890Y-121810D02*
X-265Y-122477D01*
G01X-1890Y-121310D02*
X-890Y-121810D01*
G01X-5015Y-121310D02*
X-1890D01*
G01X-5015Y-131310D02*
Y-121310D01*
G01X-12515D02*
X-9390Y-131310D01*
G01X-10515Y-127810D02*
X-14515D01*
G01X-15640Y-131310D02*
X-12515Y-121310D01*
G01X-3665Y-101776D02*
X-665D01*
G01X-11665D02*
X-10790Y-102109D01*
G01X-12540Y-101776D02*
X-11665D01*
G01X-3665Y-111776D02*
X-665D01*
G01X-2165Y-101776D02*
Y-111776D01*
G01X-10790Y-102109D02*
X-10040Y-102943D01*
G01X-11540Y-106443D02*
X-13040Y-106109D01*
G01X-10415Y-107109D02*
X-11540Y-106443D01*
G01X-9790Y-108110D02*
X-10415Y-107109D01*
G01X-9540Y-109276D02*
X-9790Y-108110D01*
G01X-9915Y-110443D02*
X-9540Y-109276D01*
G01X-10665Y-111276D02*
X-9915Y-110443D01*
G01X-11665Y-111776D02*
X-10665Y-111276D01*
G01X-12665Y-111776D02*
X-11665D01*
G01X-13415Y-102276D02*
X-12540Y-101776D01*
G01X-14040Y-103109D02*
X-13415Y-102276D01*
G01X-14290Y-104276D02*
X-14040Y-103109D01*
G01X-13915Y-105443D02*
X-14290Y-104276D01*
G01X-13040Y-106109D02*
X-13915Y-105443D01*
G01X-13790Y-111276D02*
X-12665Y-111776D01*
G01X-14790Y-110443D02*
X-13790Y-111276D01*
G01X-1465Y-87409D02*
X-4465D01*
G01Y-92576D02*
Y-82576D01*
G01X535Y-92576D02*
X-4465D01*
G01X-11965Y-82576D02*
Y-92576D01*
G01X-4465Y-82576D02*
X535D01*
G01X-14840D02*
X-9090D01*
G01X430315Y-275D02*
Y283133D01*
X0D01*
Y-275D01*
X430315D01*
G01X15135Y-151376D02*
X20135D01*
G01X15135Y-141376D02*
Y-151376D01*
G01X885Y-141376D02*
Y-151376D01*
G01X7235Y-131310D02*
X4735D01*
G01X8235Y-130810D02*
X7235Y-131310D01*
G01X8985Y-130144D02*
X8235Y-130810D01*
G01X9610Y-129143D02*
X8985Y-130144D01*
G01X10110Y-127977D02*
X9610Y-129143D01*
G01X10235Y-126310D02*
X10110Y-127977D01*
G01Y-124644D02*
X10235Y-126310D01*
G01X9610Y-123477D02*
X10110Y-124644D01*
G01X8985Y-122477D02*
X9610Y-123477D01*
G01X8235Y-121810D02*
X8985Y-122477D01*
G01X7235Y-121310D02*
X8235Y-121810D01*
G01X4735Y-121310D02*
X7235D01*
G01X4735Y-131310D02*
Y-121310D01*
G01X8710Y-101776D02*
X9710Y-102109D01*
G01X7835Y-101776D02*
X8710D01*
G01X6835Y-102276D02*
X7835Y-101776D01*
G01X14960D02*
X20710Y-111776D01*
G01X14960D02*
Y-101776D01*
G01X9710Y-102109D02*
X10460Y-102776D01*
G01X6085Y-102943D02*
X6835Y-102276D01*
G01X5335Y-103943D02*
X6085Y-102943D01*
G01X4835Y-105110D02*
X5335Y-103943D01*
G01X4585Y-106109D02*
X4835Y-105110D01*
G01X4585Y-107276D02*
Y-106109D01*
G01X4835Y-108609D02*
X4585Y-107276D01*
G01X5335Y-109776D02*
X4835Y-108609D01*
G01X6085Y-110776D02*
X5335Y-109776D01*
G01X6960Y-111443D02*
X6085Y-110776D01*
G01X8210Y-111776D02*
X6960Y-111443D01*
G01X9460D02*
X8210Y-111776D01*
G01X10335Y-110776D02*
X9460Y-111443D01*
G01X11085Y-109776D02*
X10335Y-110776D01*
G01X11085Y-106776D02*
Y-109776D01*
G01X8585Y-106776D02*
X11085D01*
G01X12200Y-91000D02*
X12950Y-92167D01*
X13950Y-92833D01*
X15075Y-93000D01*
X16075Y-92833D01*
X17075Y-92000D01*
X17700Y-91000D01*
X17825Y-90000D01*
X17575Y-88834D01*
X16700Y-88000D01*
X15825Y-87667D01*
X14700D01*
G01X15825D02*
X16575Y-87167D01*
X17200Y-86334D01*
X17450Y-85333D01*
X17200Y-84333D01*
X16575Y-83500D01*
X15450Y-83000D01*
X14325Y-83167D01*
X13200Y-83833D01*
G01X24950Y-93000D02*
Y-83000D01*
X23450Y-85000D01*
G01Y-93000D02*
X26450D01*
G01X33325Y-89667D02*
X36575D01*
G01X44950Y-83000D02*
X43950Y-83333D01*
X43200Y-84167D01*
X42700Y-85167D01*
X42325Y-86500D01*
X42200Y-88000D01*
X42325Y-89500D01*
X42700Y-90833D01*
X43200Y-91834D01*
X43950Y-92667D01*
X44950Y-93000D01*
X45950Y-92667D01*
X46700Y-91834D01*
X47200Y-90833D01*
X47575Y-89500D01*
X47700Y-88000D01*
X47575Y-86500D01*
X47200Y-85167D01*
X46700Y-84167D01*
X45950Y-83333D01*
X44950Y-83000D01*
G01X54700Y-93000D02*
X54950Y-90833D01*
X55325Y-89000D01*
X55825Y-87333D01*
X56450Y-85500D01*
X57450Y-83000D01*
X52450D01*
G01X63325Y-89667D02*
X66575D01*
G01X72575Y-84667D02*
X73325Y-83667D01*
X74200Y-83167D01*
X75200Y-83000D01*
X76450Y-83333D01*
X77325Y-84167D01*
X77575Y-85167D01*
X77450Y-86167D01*
X76950Y-87000D01*
X74450Y-88667D01*
X73325Y-89833D01*
X72575Y-91500D01*
X72325Y-93000D01*
X77575D01*
G01X84950Y-83000D02*
X83950Y-83333D01*
X83200Y-84167D01*
X82700Y-85167D01*
X82325Y-86500D01*
X82200Y-88000D01*
X82325Y-89500D01*
X82700Y-90833D01*
X83200Y-91834D01*
X83950Y-92667D01*
X84950Y-93000D01*
X85950Y-92667D01*
X86700Y-91834D01*
X87200Y-90833D01*
X87575Y-89500D01*
X87700Y-88000D01*
X87575Y-86500D01*
X87200Y-85167D01*
X86700Y-84167D01*
X85950Y-83333D01*
X84950Y-83000D01*
G01X92575Y-84667D02*
X93325Y-83667D01*
X94200Y-83167D01*
X95200Y-83000D01*
X96450Y-83333D01*
X97325Y-84167D01*
X97575Y-85167D01*
X97450Y-86167D01*
X96950Y-87000D01*
X94450Y-88667D01*
X93325Y-89833D01*
X92575Y-91500D01*
X92325Y-93000D01*
X97575D01*
G01X104950Y-83000D02*
X103950Y-83333D01*
X103200Y-84167D01*
X102700Y-85167D01*
X102325Y-86500D01*
X102200Y-88000D01*
X102325Y-89500D01*
X102700Y-90833D01*
X103200Y-91834D01*
X103950Y-92667D01*
X104950Y-93000D01*
X105950Y-92667D01*
X106700Y-91834D01*
X107200Y-90833D01*
X107575Y-89500D01*
X107700Y-88000D01*
X107575Y-86500D01*
X107200Y-85167D01*
X106700Y-84167D01*
X105950Y-83333D01*
X104950Y-83000D01*
G01X8285Y-88243D02*
X8035Y-88410D01*
G01X8285Y-87909D02*
Y-88243D01*
G01X8035Y-87743D02*
X8285Y-87909D01*
G01X7785D02*
X8035Y-87743D01*
G01X7785Y-88243D02*
Y-87909D01*
G01X8035Y-88410D02*
X7785Y-88243D01*
G01X8285Y-92743D02*
X8035Y-92909D01*
G01X8285Y-92409D02*
Y-92743D01*
G01X8035Y-92243D02*
X8285Y-92409D01*
G01X7785D02*
X8035Y-92243D01*
G01X7785Y-92743D02*
Y-92409D01*
G01X8035Y-92909D02*
X7785Y-92743D01*
G01X29635Y-147876D02*
X25635D01*
G01X27635Y-141376D02*
X30760Y-151376D01*
G01X24510D02*
X27635Y-141376D01*
G01X30360Y-131310D02*
Y-121310D01*
G01X24610D02*
X30360Y-131310D01*
G01X24610D02*
Y-121310D01*
G01X25335Y-101776D02*
X30335D01*
G01X28335Y-106609D02*
X25335D01*
G01Y-111776D02*
Y-101776D01*
G01X30335Y-111776D02*
X25335D01*
G01X20710D02*
Y-101776D01*
G01X45135Y-151376D02*
Y-141376D01*
G01X50135Y-151376D02*
X45135D01*
G01X37635D02*
Y-146876D01*
G01X48135Y-146209D02*
X45135D01*
G01Y-141376D02*
X50135D01*
G01X40135D02*
X37635Y-146876D01*
G01D02*
X35135Y-141376D01*
G01X47485Y-129643D02*
X50735Y-121310D01*
G01X44235D02*
X47485Y-129643D01*
G01X44235Y-131310D02*
Y-121310D01*
G01X39485Y-127810D02*
X35485D01*
G01X37485Y-121310D02*
X40610Y-131310D01*
G01X34360D02*
X37485Y-121310D01*
G01X37585Y-101776D02*
X38585Y-102276D01*
G01Y-111276D02*
X37585Y-111776D01*
G01X39335Y-110610D02*
X38585Y-111276D01*
G01X39960Y-109609D02*
X39335Y-110610D01*
G01X40460Y-108443D02*
X39960Y-109609D01*
G01X40585Y-106776D02*
X40460Y-108443D01*
G01Y-105110D02*
X40585Y-106776D01*
G01X39960Y-103943D02*
X40460Y-105110D01*
G01X39335Y-102943D02*
X39960Y-103943D01*
G01X38585Y-102276D02*
X39335Y-102943D01*
G01X35085Y-101776D02*
X37585D01*
G01Y-111776D02*
X35085D01*
G01D02*
Y-101776D01*
G01X58260Y-146543D02*
X60135Y-151376D01*
G01X55135D02*
Y-141376D01*
G01X58260Y-146543D02*
X55135D01*
G01X59135Y-146043D02*
X58260Y-146543D01*
G01X59885Y-145209D02*
X59135Y-146043D01*
G01X60135Y-143876D02*
X59885Y-145209D01*
G01Y-142543D02*
X60135Y-143876D01*
G01X59260Y-141876D02*
X59885Y-142543D01*
G01X58260Y-141376D02*
X59260Y-141876D01*
G01X55135Y-141376D02*
X58260D01*
G01X57985Y-126143D02*
X54985D01*
G01Y-121310D02*
X59985D01*
G01X54985Y-131310D02*
Y-121310D01*
G01X59985Y-131310D02*
X54985D01*
G01X50735Y-121310D02*
Y-131310D01*
G01X59835Y-108276D02*
X55835D01*
G01X57835Y-101776D02*
X60960Y-111776D01*
G01X54710D02*
X57835Y-101776D01*
G01X67885Y-151543D02*
X67635Y-151709D01*
G01X67885Y-151209D02*
Y-151543D01*
G01X67635Y-151043D02*
X67885Y-151209D01*
G01X67385D02*
X67635Y-151043D01*
G01X67385Y-151543D02*
Y-151209D01*
G01X67635Y-151709D02*
X67385Y-151543D01*
G01X67885Y-147043D02*
X67635Y-147210D01*
G01X67885Y-146709D02*
Y-147043D01*
G01X67635Y-146543D02*
X67885Y-146709D01*
G01X67385D02*
X67635Y-146543D01*
G01X67385Y-147043D02*
Y-146709D01*
G01X67635Y-147210D02*
X67385Y-147043D01*
G01X67735Y-126977D02*
X67485Y-127144D01*
G01X67735Y-126643D02*
Y-126977D01*
G01X67485Y-126477D02*
X67735Y-126643D01*
G01Y-131477D02*
X67485Y-131643D01*
G01X67735Y-131143D02*
Y-131477D01*
G01X67485Y-130977D02*
X67735Y-131143D01*
G01X67235Y-126643D02*
X67485Y-126477D01*
G01X67235Y-126977D02*
Y-126643D01*
G01X67485Y-127144D02*
X67235Y-126977D01*
G01Y-131143D02*
X67485Y-130977D01*
G01X67235Y-131477D02*
Y-131143D01*
G01X67485Y-131643D02*
X67235Y-131477D01*
G01X78085Y-107443D02*
X77835Y-107610D01*
G01X78085Y-107109D02*
Y-107443D01*
G01X77835Y-106943D02*
X78085Y-107109D01*
G01X77585D02*
X77835Y-106943D01*
G01X77585Y-107443D02*
Y-107109D01*
G01X77835Y-107610D02*
X77585Y-107443D01*
G01X78085Y-111943D02*
X77835Y-112109D01*
G01X78085Y-111609D02*
Y-111943D01*
G01X77835Y-111443D02*
X78085Y-111609D01*
G01X77585D02*
X77835Y-111443D01*
G01X77585Y-111943D02*
Y-111609D01*
G01X77835Y-112109D02*
X77585Y-111943D01*
G01X67835Y-101776D02*
Y-111776D01*
G01X64960Y-101776D02*
X70710D01*
G01X111485Y-77697D02*
Y-155856D01*
G01X183240Y-129040D02*
Y-122374D01*
G01Y-124207D02*
X183615Y-123373D01*
X184240Y-122707D01*
X185115Y-122374D01*
X185990Y-122707D01*
X186615Y-123373D01*
X186990Y-124207D01*
Y-129040D01*
G01Y-124207D02*
X187365Y-123373D01*
X187990Y-122707D01*
X188865Y-122374D01*
X189740Y-122707D01*
X190365Y-123373D01*
X190740Y-124373D01*
Y-129040D01*
G01X199240D02*
Y-122374D01*
G01Y-123540D02*
X198740Y-122873D01*
X197990Y-122540D01*
X197115Y-122374D01*
X196240Y-122707D01*
X195490Y-123373D01*
X194990Y-124373D01*
X194740Y-125707D01*
X194990Y-127040D01*
X195490Y-128040D01*
X196240Y-128707D01*
X197115Y-129040D01*
X197990Y-128873D01*
X198740Y-128373D01*
X199240Y-127707D01*
G01X205115Y-127874D02*
X205740Y-128540D01*
X206615Y-129040D01*
X207365D01*
X208115Y-128707D01*
X208615Y-128207D01*
X208865Y-127540D01*
X208740Y-126540D01*
X208240Y-126040D01*
X205990Y-125040D01*
X205490Y-123873D01*
X205740Y-123040D01*
X206240Y-122540D01*
X206990Y-122374D01*
X207740Y-122540D01*
X208490Y-123040D01*
G01X214865Y-129040D02*
Y-119040D01*
G01X218865Y-122374D02*
X214865Y-126207D01*
G01X216490Y-124707D02*
X219115Y-129040D01*
G01X225365Y-125707D02*
X228615D01*
G01X239740Y-119873D02*
X238990Y-119373D01*
X238115Y-119040D01*
X237115D01*
X235990Y-119540D01*
X235115Y-120373D01*
X234490Y-121373D01*
X233990Y-123040D01*
X233865Y-124540D01*
X234115Y-126040D01*
X234490Y-127040D01*
X235240Y-128040D01*
X236115Y-128707D01*
X236990Y-129040D01*
X237865D01*
X238740Y-128707D01*
X239490Y-128207D01*
X240115Y-127540D01*
G01X244615Y-120707D02*
X245365Y-119707D01*
X246240Y-119207D01*
X247240Y-119040D01*
X248490Y-119373D01*
X249365Y-120207D01*
X249615Y-121207D01*
X249490Y-122207D01*
X248990Y-123040D01*
X246490Y-124707D01*
X245365Y-125873D01*
X244615Y-127540D01*
X244365Y-129040D01*
X249615D01*
G01X255365Y-125707D02*
X258615D01*
G01X264490Y-129040D02*
Y-119040D01*
X267615D01*
X268615Y-119540D01*
X269240Y-120207D01*
X269490Y-121540D01*
X269240Y-122873D01*
X268490Y-123707D01*
X267615Y-124207D01*
X264490D01*
G01X267615D02*
X269490Y-129040D01*
G01X275115Y-124540D02*
X279115D01*
X278740Y-123373D01*
X278115Y-122707D01*
X277240Y-122374D01*
X276365Y-122540D01*
X275615Y-123040D01*
X275115Y-124207D01*
X274865Y-125207D01*
Y-126207D01*
X275115Y-127207D01*
X275740Y-128207D01*
X276490Y-128873D01*
X277365Y-129040D01*
X278240Y-128707D01*
X279115Y-127707D01*
G01X284740Y-122374D02*
X286990Y-129040D01*
X289240Y-122374D01*
G01X299740Y-119873D02*
X298990Y-119373D01*
X298115Y-119040D01*
X297115D01*
X295990Y-119540D01*
X295115Y-120373D01*
X294490Y-121373D01*
X293990Y-123040D01*
X293865Y-124540D01*
X294115Y-126040D01*
X294490Y-127040D01*
X295240Y-128040D01*
X296115Y-128707D01*
X296990Y-129040D01*
X297865D01*
X298740Y-128707D01*
X299490Y-128207D01*
X300115Y-127540D01*
G01X185385Y-84910D02*
X185135Y-86243D01*
G01Y-83577D02*
X185385Y-84910D01*
G01X184385Y-82410D02*
X185135Y-83577D01*
G01X194885Y-88410D02*
X190885D01*
G01X189760Y-91910D02*
X192885Y-81910D01*
G01X183385Y-87744D02*
X180385D01*
G01X184510Y-87243D02*
X183385Y-87744D01*
G01X185135Y-86243D02*
X184510Y-87243D01*
G01X180385Y-91910D02*
Y-81910D01*
G01X183385D02*
X184385Y-82410D01*
G01X180385Y-81910D02*
X183385D01*
G01X192885D02*
X196010Y-91910D01*
G01X194575Y-150875D02*
Y-140875D01*
X197575D01*
X198575Y-141375D01*
X199325Y-142542D01*
X199575Y-143875D01*
X199325Y-145208D01*
X198700Y-146208D01*
X197575Y-146709D01*
X194575D01*
G01X203950Y-150875D02*
X207075Y-140875D01*
X210200Y-150875D01*
G01X209075Y-147375D02*
X205075D01*
G01X214450Y-149542D02*
X215450Y-150375D01*
X216575Y-150875D01*
X217575D01*
X218575Y-150375D01*
X219325Y-149542D01*
X219700Y-148375D01*
X219450Y-147209D01*
X218825Y-146208D01*
X217700Y-145542D01*
X216200Y-145208D01*
X215325Y-144542D01*
X214950Y-143375D01*
X215200Y-142208D01*
X215825Y-141375D01*
X216700Y-140875D01*
X217575D01*
X218450Y-141208D01*
X219200Y-142042D01*
G01X227075Y-140875D02*
Y-150875D01*
G01X224200Y-140875D02*
X229950D01*
G01X239575Y-150875D02*
X234575D01*
Y-140875D01*
X239575D01*
G01X237575Y-145708D02*
X234575D01*
G01X243825Y-150875D02*
Y-140875D01*
X247075Y-149208D01*
X250325Y-140875D01*
Y-150875D01*
G01X253950D02*
X257075Y-140875D01*
X260200Y-150875D01*
G01X259075Y-147375D02*
X255075D01*
G01X264450Y-149542D02*
X265450Y-150375D01*
X266575Y-150875D01*
X267575D01*
X268575Y-150375D01*
X269325Y-149542D01*
X269700Y-148375D01*
X269450Y-147209D01*
X268825Y-146208D01*
X267700Y-145542D01*
X266200Y-145208D01*
X265325Y-144542D01*
X264950Y-143375D01*
X265200Y-142208D01*
X265825Y-141375D01*
X266700Y-140875D01*
X267575D01*
X268450Y-141208D01*
X269200Y-142042D01*
G01X274325Y-150875D02*
Y-140875D01*
G01X279075D02*
X274325Y-147042D01*
G01X279825Y-150875D02*
X276450Y-144209D01*
G01X283325Y-154208D02*
X290825D01*
G01X297075Y-140875D02*
Y-150875D01*
G01X294200Y-140875D02*
X299950D01*
G01X307075Y-150875D02*
X306075Y-150708D01*
X305200Y-150042D01*
X304450Y-149042D01*
X303950Y-147875D01*
X303700Y-146542D01*
Y-145208D01*
X303950Y-143875D01*
X304450Y-142708D01*
X305200Y-141708D01*
X306075Y-141042D01*
X307075Y-140875D01*
X308075Y-141042D01*
X308950Y-141708D01*
X309700Y-142708D01*
X310200Y-143875D01*
X310450Y-145208D01*
Y-146542D01*
X310200Y-147875D01*
X309700Y-149042D01*
X308950Y-150042D01*
X308075Y-150708D01*
X307075Y-150875D01*
G01X314575D02*
Y-140875D01*
X317575D01*
X318575Y-141375D01*
X319325Y-142542D01*
X319575Y-143875D01*
X319325Y-145208D01*
X318700Y-146208D01*
X317575Y-146709D01*
X314575D01*
G01X205135Y-85743D02*
X204385Y-86577D01*
G01X205385Y-84410D02*
X205135Y-85743D01*
G01Y-83077D02*
X205385Y-84410D01*
G01X203510Y-87077D02*
X205385Y-91910D01*
G01X203510Y-87077D02*
X200385D01*
G01X204385Y-86577D02*
X203510Y-87077D01*
G01X200385Y-91910D02*
Y-81910D01*
G01X204510Y-82410D02*
X205135Y-83077D01*
G01X203510Y-81910D02*
X204510Y-82410D01*
G01X200385Y-81910D02*
X203510D01*
G01X228260Y-108143D02*
X225135D01*
G01Y-102976D02*
X228260D01*
G01X225135Y-112976D02*
Y-102976D01*
G01X212885Y-81910D02*
Y-91910D01*
G01X210010Y-81910D02*
X215760D01*
G01X238135Y-107809D02*
X235135D01*
G01Y-102976D02*
X240135D01*
G01X235135Y-112976D02*
Y-102976D01*
G01X240135Y-112976D02*
X235135D01*
G01X229885Y-106809D02*
X229135Y-107643D01*
G01X230135Y-105476D02*
X229885Y-106809D01*
G01Y-104143D02*
X230135Y-105476D01*
G01X229260Y-103476D02*
X229885Y-104143D01*
G01X228260Y-108143D02*
X230135Y-112976D01*
G01X229135Y-107643D02*
X228260Y-108143D01*
G01Y-102976D02*
X229260Y-103476D01*
G01X240635Y-90577D02*
X241635Y-91577D01*
G01X240135Y-89077D02*
X240635Y-90577D01*
G01X240135Y-81910D02*
Y-89077D01*
G01X235760Y-91910D02*
Y-81910D01*
G01X230010D02*
X235760Y-91910D01*
G01X230010D02*
Y-81910D01*
G01X260135Y-102976D02*
X257635Y-108476D01*
G01D02*
X255135Y-102976D01*
G01X257635Y-112976D02*
Y-108476D01*
G01X245135Y-112976D02*
X250135D01*
G01X245135Y-102976D02*
Y-112976D01*
G01X256135Y-81910D02*
Y-91910D01*
G01X252885Y-90243D02*
X256135Y-81910D01*
G01X249635D02*
X252885Y-90243D01*
G01X249635Y-91910D02*
Y-81910D01*
G01X245635Y-89077D02*
Y-81910D01*
G01X245135Y-90577D02*
X245635Y-89077D01*
G01X244135Y-91577D02*
X245135Y-90577D01*
G01X242885Y-91910D02*
X244135Y-91577D01*
G01X241635D02*
X242885Y-91910D01*
G01X265010Y-84077D02*
X264760Y-83077D01*
G01Y-85244D02*
X265010Y-84077D01*
G01X264385Y-86077D02*
X264760Y-85244D01*
G01X263885Y-86577D02*
X264385Y-86077D01*
G01X273385Y-86743D02*
X270385D01*
G01Y-91910D02*
Y-81910D01*
G01X275385Y-91910D02*
X270385D01*
G01X264760Y-86910D02*
X263885Y-86577D01*
G01X265510Y-87910D02*
X264760Y-86910D01*
G01X265760Y-89077D02*
X265510Y-87910D01*
G01Y-90243D02*
X265760Y-89077D01*
G01X265010Y-91243D02*
X265510Y-90243D01*
G01X264135Y-91910D02*
X265010Y-91243D01*
G01X263885Y-86577D02*
X260010D01*
G01Y-91910D02*
X264135D01*
G01X260010Y-81910D02*
Y-91910D01*
G01X270385Y-81910D02*
X275385D01*
G01X264260Y-82410D02*
X263385Y-81910D01*
G01X264760Y-83077D02*
X264260Y-82410D01*
G01X263385Y-81910D02*
X260010D01*
G01X290135Y-102976D02*
X287635Y-108476D01*
G01D02*
X285135Y-102976D01*
G01X287635Y-112976D02*
Y-108476D01*
G01X279010Y-103309D02*
X279760Y-104143D01*
G01X278135Y-102976D02*
X279010Y-103309D01*
G01X277260Y-102976D02*
X278135D01*
G01X278260Y-107643D02*
X276760Y-107309D01*
G01X279385Y-108309D02*
X278260Y-107643D01*
G01X280010Y-109310D02*
X279385Y-108309D01*
G01X280260Y-110476D02*
X280010Y-109310D01*
G01X279885Y-111643D02*
X280260Y-110476D01*
G01X279135Y-112476D02*
X279885Y-111643D01*
G01X278135Y-112976D02*
X279135Y-112476D01*
G01X277135Y-112976D02*
X278135D01*
G01X276385Y-103476D02*
X277260Y-102976D01*
G01X275760Y-104309D02*
X276385Y-103476D01*
G01X275510Y-105476D02*
X275760Y-104309D01*
G01X275885Y-106643D02*
X275510Y-105476D01*
G01X276760Y-107309D02*
X275885Y-106643D01*
G01X276010Y-112476D02*
X277135Y-112976D01*
G01X275010Y-111643D02*
X276010Y-112476D01*
G01X285135Y-85743D02*
X284385Y-86577D01*
G01X285385Y-84410D02*
X285135Y-85743D01*
G01Y-83077D02*
X285385Y-84410D01*
G01X283510Y-87077D02*
X285385Y-91910D01*
G01X283510Y-87077D02*
X280385D01*
G01X284385Y-86577D02*
X283510Y-87077D01*
G01X280385Y-91910D02*
Y-81910D01*
G01X284510Y-82410D02*
X285135Y-83077D01*
G01X283510Y-81910D02*
X284510Y-82410D01*
G01X280385Y-81910D02*
X283510D01*
G01X299010Y-103309D02*
X299760Y-104143D01*
G01X298135Y-102976D02*
X299010Y-103309D01*
G01X297260Y-102976D02*
X298135D01*
G01X296385Y-103476D02*
X297260Y-102976D01*
G01X295760Y-104309D02*
X296385Y-103476D01*
G01X295510Y-105476D02*
X295760Y-104309D01*
G01X295885Y-106643D02*
X295510Y-105476D01*
G01X296760Y-107309D02*
X295885Y-106643D01*
G01X298260Y-107643D02*
X296760Y-107309D01*
G01X299385Y-108309D02*
X298260Y-107643D01*
G01X300010Y-109310D02*
X299385Y-108309D01*
G01X300260Y-110476D02*
X300010Y-109310D01*
G01X299885Y-111643D02*
X300260Y-110476D01*
G01X299135Y-112476D02*
X299885Y-111643D01*
G01X298135Y-112976D02*
X299135Y-112476D01*
G01X297135Y-112976D02*
X298135D01*
G01X296010Y-112476D02*
X297135Y-112976D01*
G01X295010Y-111643D02*
X296010Y-112476D01*
G01X304760Y-85244D02*
X301010Y-91910D01*
G01Y-85244D02*
X304760Y-91910D01*
G01X293135Y-87577D02*
X292885Y-87744D01*
G01X293135Y-87243D02*
Y-87577D01*
G01X292885Y-87077D02*
X293135Y-87243D01*
G01Y-92077D02*
X292885Y-92243D01*
G01X293135Y-91743D02*
Y-92077D01*
G01X292885Y-91577D02*
X293135Y-91743D01*
G01X292635Y-87243D02*
X292885Y-87077D01*
G01X292635Y-87577D02*
Y-87243D01*
G01X292885Y-87744D02*
X292635Y-87577D01*
G01Y-91743D02*
X292885Y-91577D01*
G01X292635Y-92077D02*
Y-91743D01*
G01X292885Y-92243D02*
X292635Y-92077D01*
G01X324760Y-85244D02*
X321010Y-91910D01*
G01Y-85244D02*
X324760Y-91910D01*
G01X314760Y-85244D02*
X311010Y-91910D01*
G01Y-85244D02*
X314760Y-91910D01*
G01X334760Y-85244D02*
X331010Y-91910D01*
G01Y-85244D02*
X334760Y-91910D01*
G01X341010Y-85244D02*
X344760Y-91910D01*
G01Y-85244D02*
X341010Y-91910D01*
G01X600009Y-588311D02*
X1110245D01*
G01X600009Y-484466D02*
Y-588311D01*
G01Y-533193D02*
X1110245D01*
G01X600009Y-484466D02*
X1110485Y-484666D01*
G01X619335Y-503166D02*
Y-515666D01*
G01X615770Y-503166D02*
X622900D01*
G01X629875D02*
X633595D01*
G01X631735D02*
Y-515666D01*
G01X629875D02*
X633595D01*
G01X640570Y-503166D02*
X647700D01*
G01X644135D02*
Y-515666D01*
G01X653435Y-503166D02*
Y-515666D01*
G01D02*
X659635D01*
G01X670585Y-562200D02*
Y-552200D01*
G01D02*
X673585D01*
G01D02*
X674585Y-552700D01*
G01D02*
X675335Y-553867D01*
G01D02*
X675585Y-555200D01*
G01D02*
X675335Y-556533D01*
G01D02*
X674710Y-557533D01*
G01D02*
X673585Y-558034D01*
G01D02*
X670585D01*
G01X672035Y-515666D02*
X665835D01*
G01D02*
Y-503166D01*
G01D02*
X672035D01*
G01X669555Y-509208D02*
X665835D01*
G01X679960Y-562200D02*
X683085Y-552200D01*
G01D02*
X686210Y-562200D01*
G01X685085Y-558700D02*
X681085D01*
G01X690585Y-562200D02*
Y-552200D01*
G01D02*
X693710D01*
G01Y-557367D02*
X690585D01*
G01X681335Y-516083D02*
X681025Y-515874D01*
G01D02*
Y-515458D01*
G01D02*
X681335Y-515249D01*
G01D02*
X681645Y-515458D01*
G01D02*
Y-515874D01*
G01D02*
X681335Y-516083D01*
G01Y-510458D02*
X681025Y-510249D01*
G01D02*
Y-509833D01*
G01D02*
X681335Y-509624D01*
G01D02*
X681645Y-509833D01*
G01D02*
Y-510249D01*
G01D02*
X681335Y-510458D01*
G01X693710Y-552200D02*
X694710Y-552700D01*
G01D02*
X695335Y-553367D01*
G01D02*
X695585Y-554700D01*
G01D02*
X695335Y-556033D01*
G01D02*
X694585Y-556867D01*
G01D02*
X693710Y-557367D01*
G01D02*
X695585Y-562200D01*
G01X703085Y-552200D02*
Y-562200D01*
G01X700210Y-552200D02*
X705960D01*
G01X701485Y-484466D02*
Y-532625D01*
G01X720210Y-562200D02*
Y-552200D01*
G01D02*
X725960Y-562200D01*
G01D02*
Y-552200D01*
G01X730335D02*
Y-559367D01*
G01D02*
X730835Y-560867D01*
G01D02*
X731835Y-561867D01*
G01D02*
X733085Y-562200D01*
G01D02*
X734335Y-561867D01*
G01D02*
X735335Y-560867D01*
G01D02*
X735835Y-559367D01*
G01D02*
Y-552200D01*
G01X739835Y-562200D02*
Y-552200D01*
G01D02*
X743085Y-560533D01*
G01D02*
X746335Y-552200D01*
G01D02*
Y-562200D01*
G01X754085Y-556867D02*
X754585Y-556367D01*
G01D02*
X754960Y-555534D01*
G01D02*
X755210Y-554367D01*
G01D02*
X754960Y-553367D01*
G01D02*
X754460Y-552700D01*
G01D02*
X753585Y-552200D01*
G01D02*
X750210D01*
G01D02*
Y-562200D01*
G01D02*
X754335D01*
G01D02*
X755210Y-561533D01*
G01D02*
X755710Y-560533D01*
G01D02*
X755960Y-559367D01*
G01D02*
X755710Y-558200D01*
G01D02*
X754960Y-557200D01*
G01D02*
X754085Y-556867D01*
G01D02*
X750210D01*
G01X765585Y-562200D02*
X760585D01*
G01D02*
Y-552200D01*
G01D02*
X765585D01*
G01X763585Y-557033D02*
X760585D01*
G01X770585Y-562200D02*
Y-552200D01*
G01D02*
X773710D01*
G01Y-557367D02*
X770585D01*
G01X773710Y-552200D02*
X774710Y-552700D01*
G01D02*
X775335Y-553367D01*
G01D02*
X775585Y-554700D01*
G01D02*
X775335Y-556033D01*
G01D02*
X774585Y-556867D01*
G01D02*
X773710Y-557367D01*
G01D02*
X775585Y-562200D01*
G01X783085Y-562533D02*
X782835Y-562367D01*
G01D02*
Y-562033D01*
G01D02*
X783085Y-561867D01*
G01D02*
X783335Y-562033D01*
G01D02*
Y-562367D01*
G01D02*
X783085Y-562533D01*
G01Y-558034D02*
X782835Y-557867D01*
G01D02*
Y-557533D01*
G01D02*
X783085Y-557367D01*
G01D02*
X783335Y-557533D01*
G01D02*
Y-557867D01*
G01D02*
X783085Y-558034D01*
G01X791210Y-555534D02*
X794960Y-562200D01*
G01Y-555534D02*
X791210Y-562200D01*
G01X801210Y-555534D02*
X804960Y-562200D01*
G01Y-555534D02*
X801210Y-562200D01*
G01X811210Y-555534D02*
X814960Y-562200D01*
G01Y-555534D02*
X811210Y-562200D01*
G01X821210Y-555534D02*
X824960Y-562200D01*
G01Y-555534D02*
X821210Y-562200D01*
G01X831210Y-555534D02*
X834960Y-562200D01*
G01Y-555534D02*
X831210Y-562200D01*
G01X825603Y-515061D02*
Y-506728D01*
G01Y-509019D02*
X826068Y-507978D01*
X826843Y-507144D01*
X827928Y-506728D01*
X829013Y-507144D01*
X829788Y-507978D01*
X830253Y-509019D01*
Y-515061D01*
G01Y-509019D02*
X830718Y-507978D01*
X831493Y-507144D01*
X832578Y-506728D01*
X833663Y-507144D01*
X834438Y-507978D01*
X834903Y-509228D01*
Y-515061D01*
G01X845443D02*
Y-506728D01*
G01Y-508186D02*
X844823Y-507353D01*
X843893Y-506936D01*
X842808Y-506728D01*
X841723Y-507144D01*
X840793Y-507978D01*
X840173Y-509228D01*
X839863Y-510894D01*
X840173Y-512561D01*
X840793Y-513811D01*
X841723Y-514644D01*
X842808Y-515061D01*
X843893Y-514853D01*
X844823Y-514228D01*
X845443Y-513395D01*
G01X852728Y-513603D02*
X853503Y-514436D01*
X854588Y-515061D01*
X855518D01*
X856448Y-514644D01*
X857068Y-514020D01*
X857378Y-513186D01*
X857223Y-511936D01*
X856603Y-511311D01*
X853813Y-510061D01*
X853193Y-508603D01*
X853503Y-507561D01*
X854123Y-506936D01*
X855053Y-506728D01*
X855983Y-506936D01*
X856913Y-507561D01*
G01X864818Y-515061D02*
Y-502561D01*
G01X869778Y-506728D02*
X864818Y-511519D01*
G01X866833Y-509644D02*
X870088Y-515061D01*
G01X877838Y-510894D02*
X881868D01*
G01X895663Y-503603D02*
X894733Y-502978D01*
X893648Y-502561D01*
X892408D01*
X891013Y-503186D01*
X889928Y-504228D01*
X889153Y-505478D01*
X888533Y-507561D01*
X888378Y-509436D01*
X888688Y-511311D01*
X889153Y-512561D01*
X890083Y-513811D01*
X891168Y-514644D01*
X892253Y-515061D01*
X893338D01*
X894423Y-514644D01*
X895353Y-514020D01*
X896128Y-513186D01*
G01X901708Y-504644D02*
X902638Y-503395D01*
X903723Y-502769D01*
X904963Y-502561D01*
X906513Y-502978D01*
X907598Y-504019D01*
X907908Y-505269D01*
X907753Y-506520D01*
X907133Y-507561D01*
X904033Y-509644D01*
X902638Y-511103D01*
X901708Y-513186D01*
X901398Y-515061D01*
X907908D01*
G01X915038Y-510894D02*
X919068D01*
G01X926353Y-515061D02*
Y-502561D01*
X930228D01*
X931468Y-503186D01*
X932243Y-504019D01*
X932553Y-505686D01*
X932243Y-507353D01*
X931313Y-508394D01*
X930228Y-509019D01*
X926353D01*
G01X930228D02*
X932553Y-515061D01*
G01X939528Y-509436D02*
X944488D01*
X944023Y-507978D01*
X943248Y-507144D01*
X942163Y-506728D01*
X941078Y-506936D01*
X940148Y-507561D01*
X939528Y-509019D01*
X939218Y-510270D01*
Y-511519D01*
X939528Y-512769D01*
X940303Y-514020D01*
X941233Y-514853D01*
X942318Y-515061D01*
X943403Y-514644D01*
X944488Y-513395D01*
G01X951463Y-506728D02*
X954253Y-515061D01*
X957043Y-506728D01*
G01X970063Y-503603D02*
X969133Y-502978D01*
X968048Y-502561D01*
X966808D01*
X965413Y-503186D01*
X964328Y-504228D01*
X963553Y-505478D01*
X962933Y-507561D01*
X962778Y-509436D01*
X963088Y-511311D01*
X963553Y-512561D01*
X964483Y-513811D01*
X965568Y-514644D01*
X966653Y-515061D01*
X967738D01*
X968823Y-514644D01*
X969753Y-514020D01*
X970528Y-513186D01*
G01X1000009Y-533193D02*
Y-588311D01*
G01X1009985Y-560433D02*
Y-547933D01*
G01X1014945Y-553766D02*
X1013860Y-554391D01*
G01D02*
X1009985D01*
G01X1013860D02*
X1016185Y-560433D01*
G01X1009985Y-547933D02*
X1013860D01*
G01D02*
X1015100Y-548558D01*
G01X1015875Y-549391D02*
X1016185Y-551058D01*
G01D02*
X1015875Y-552725D01*
G01D02*
X1014945Y-553766D01*
G01X1028585Y-560433D02*
X1022385D01*
G01D02*
Y-547933D01*
G01X1026105Y-553975D02*
X1022385D01*
G01X1015100Y-548558D02*
X1015875Y-549391D01*
G01X1022385Y-547933D02*
X1028585D01*
G01X1034010D02*
X1037885Y-560433D01*
G01D02*
X1041760Y-547933D01*
G01X1062685Y-560850D02*
X1062375Y-560641D01*
G01D02*
Y-560225D01*
G01D02*
X1062685Y-560016D01*
G01D02*
X1062995Y-560225D01*
G01Y-560641D02*
X1062685Y-560850D01*
G01Y-555225D02*
X1062375Y-555016D01*
G01D02*
Y-554600D01*
G01D02*
X1062685Y-554391D01*
G01D02*
X1062995Y-554600D01*
G01Y-555016D02*
X1062685Y-555225D01*
G01X1079210Y-548732D02*
X1078280Y-548107D01*
X1077195Y-547690D01*
X1075955D01*
X1074560Y-548315D01*
X1073475Y-549357D01*
X1072700Y-550607D01*
X1072080Y-552690D01*
X1071925Y-554565D01*
X1072235Y-556440D01*
X1072700Y-557690D01*
X1073630Y-558940D01*
X1074715Y-559773D01*
X1075800Y-560190D01*
X1076885D01*
X1077970Y-559773D01*
X1078900Y-559149D01*
X1079675Y-558315D01*
G01X1062995Y-560225D02*
Y-560641D01*
G01Y-554600D02*
Y-555016D01*
G01X1110245Y-422957D02*
Y-588311D01*
G01X1130302Y-608335D02*
Y560956D01*
G54D17*
X104031Y17750D03*
Y20900D03*
Y24050D03*
Y27200D03*
Y30350D03*
Y33500D03*
Y36650D03*
Y39800D03*
Y42950D03*
Y46100D03*
Y49250D03*
Y52400D03*
Y55550D03*
Y58700D03*
Y61850D03*
Y65000D03*
Y68150D03*
Y71300D03*
Y87045D03*
Y90195D03*
Y93345D03*
Y96495D03*
Y99645D03*
Y102795D03*
Y105945D03*
Y109095D03*
Y162418D03*
Y165568D03*
Y168718D03*
Y171868D03*
Y175018D03*
Y178168D03*
Y181318D03*
Y184468D03*
Y187618D03*
Y190768D03*
Y193918D03*
Y197068D03*
Y200218D03*
Y203368D03*
Y206518D03*
Y209668D03*
Y212818D03*
Y215968D03*
Y231713D03*
Y234863D03*
Y238013D03*
Y241163D03*
Y244313D03*
Y247463D03*
Y250613D03*
Y253763D03*
X136315Y16175D03*
Y19325D03*
Y22475D03*
Y25625D03*
Y28775D03*
Y31925D03*
Y35075D03*
Y38225D03*
Y41375D03*
Y44525D03*
Y47675D03*
Y50825D03*
Y53975D03*
Y57125D03*
Y60275D03*
Y63425D03*
Y66575D03*
Y69725D03*
Y85470D03*
Y88620D03*
Y91770D03*
Y94920D03*
Y98070D03*
Y101220D03*
Y104370D03*
Y107520D03*
Y160843D03*
Y163993D03*
Y167143D03*
Y170293D03*
Y173443D03*
Y176593D03*
Y179743D03*
Y182893D03*
Y186043D03*
Y189193D03*
Y192343D03*
Y195493D03*
Y198643D03*
Y201793D03*
Y204943D03*
Y208093D03*
Y211243D03*
Y214393D03*
Y230138D03*
Y233288D03*
Y236438D03*
Y239588D03*
Y242738D03*
Y245888D03*
Y249038D03*
Y252188D03*
G54D27*
G01X-523241Y-423689D02*
X-503556D01*
G01X-523241Y-223689D02*
X-503556D01*
G01X-523241Y176311D02*
X-503556D01*
G01X-523241Y376311D02*
X-503556D01*
G01Y-588650D02*
Y541271D01*
G01Y-588650D02*
X1110617D01*
G01X-503556Y541271D02*
X1110617D01*
G01X-296469Y560956D02*
Y541271D01*
G01X-96469Y560956D02*
Y541271D01*
G01X103531Y560956D02*
Y541271D01*
G01X306521D02*
G03X300541I-2990J0D01*
G01D02*
G03X306521I2990J0D01*
G01X503531Y560956D02*
Y541271D01*
G01X703531Y-608335D02*
Y-588650D01*
G01Y560956D02*
Y541271D01*
G01X903531Y-608335D02*
Y-588650D01*
G01Y560956D02*
Y541271D01*
G01X1110617Y-588650D02*
Y541271D01*
G01X1130302Y-423689D02*
X1110617D01*
G01X1130302Y-223689D02*
X1110617D01*
G01X1113607Y-23689D02*
G03X1107627I-2990J0D01*
G01D02*
G03X1113607I2990J0D01*
G01X1130302Y176311D02*
X1110617D01*
G01X1130302Y376311D02*
X1110617D01*
G54D18*
X306197Y14994D03*
Y110269D03*
Y159662D03*
Y254937D03*
X331000Y14994D03*
Y110269D03*
Y159662D03*
Y254937D03*
G54D19*
X309346Y15000D03*
Y110275D03*
Y159668D03*
Y254943D03*
M02*
